<?xml version="1.0" encoding="utf-8"?>
<!-- Generator: Adobe Illustrator 24.2.3, SVG Export Plug-In . SVG Version: 6.00 Build 0)  -->
<svg version="1.1" id="Layer_1" xmlns="http://www.w3.org/2000/svg" xmlns:xlink="http://www.w3.org/1999/xlink" x="0px" y="0px"
	 viewBox="0 0 1892 1107.2" style="enable-background:new 0 0 1892 1107.2;" xml:space="preserve">
<style type="text/css">
	.st0{fill:#FFF6DE;}
	.st1{fill:#99CC33;}
	.st2{fill:#E06186;}
	.st3{fill:#F6C9D3;}
</style>
<rect id="Background" x="0" y="0" class="st0" width="1891" height="1106.2"/>
<polygon class="st1" points="1217.3,1106.2 1250.6,1106.2 1566.4,741 1549.6,721.8 "/>
<polygon class="st1" points="1891,516.8 1817.4,601.7 1753.5,524.8 1891,365.9 1891,327.2 1737,505 1317.6,0 1286.6,0 1721.2,523.3 
	1586.9,678.5 1606.2,694.9 1737.6,543.1 1801.5,620 1380.3,1106.2 1413.6,1106.2 1817.7,639.4 1891,727.7 1891,690.4 1833.5,621.1 
	1891,554.7 "/>
<polygon class="st1" points="665.5,1106.2 696.5,1106.2 93.2,379.9 422.8,0 389.8,0 76.8,360.2 14.5,285.2 260.9,0 227.9,0 0,263.4 
	0,305 61,378.5 0,448.7 0,490 511.6,1106.2 542.6,1106.2 14.6,470.4 77.3,398.1 "/>
<g id="Doors">
	<polygon class="st2" points="1552.4,757.4 1484.3,680.1 1474.6,688.5 1543.6,767.6 	"/>
	<path class="st3" d="M1536.2,739.8l16.2,17.6l26.2-30.2l13.8-16l15.6-18c-34.6-36.9-79.1-51.9-123.8-12.9l0,0L1536.2,739.8z"/>
</g>
</svg>
