<?xml version="1.0" encoding="utf-8"?>
<!-- Generator: Adobe Illustrator 16.0.0, SVG Export Plug-In . SVG Version: 6.00 Build 0)  -->
<!DOCTYPE svg PUBLIC "-//W3C//DTD SVG 1.1//EN" "http://www.w3.org/Graphics/SVG/1.1/DTD/svg11.dtd">
<svg version="1.1" id="Layer_1" xmlns="http://www.w3.org/2000/svg" xmlns:xlink="http://www.w3.org/1999/xlink" x="0px" y="0px"
	 width="153.255px" height="178.982px" viewBox="0 -55.958 153.255 178.982" enable-background="new 0 -55.958 153.255 178.982"
	 xml:space="preserve">
<polygon fill="#FFF5DA" points="1.832,-44.494 140.568,120.026 1.832,120.026 "/>
<polygon fill="#1F006D" points="23.948,-27.967 9.736,-44.503 1.832,-53.7 1.832,-44.493 140.567,120.024 148.344,119.952 "/>
<g>
	<path fill="#1F006D" d="M11.292,90.192v-9.293h1.739c0.901,0,1.561,0.035,1.978,0.104c0.417,0.07,0.777,0.186,1.082,0.347
		c0.36,0.207,0.638,0.479,0.835,0.817c0.196,0.34,0.295,0.723,0.295,1.148c0,0.551-0.163,0.992-0.489,1.324s-0.813,0.553-1.46,0.663
		c0.749,0.11,1.315,0.354,1.698,0.729c0.383,0.377,0.575,0.879,0.575,1.504c0,0.457-0.11,0.875-0.33,1.254
		c-0.22,0.379-0.522,0.672-0.908,0.879c-0.343,0.188-0.745,0.319-1.206,0.399c-0.461,0.081-1.225,0.121-2.292,0.121h-0.203h-1.314
		V90.192z M13.278,84.612h0.444c0.601,0,1.026-0.084,1.276-0.254c0.25-0.169,0.375-0.452,0.375-0.851
		c0-0.389-0.12-0.666-0.359-0.832c-0.239-0.164-0.657-0.247-1.253-0.247h-0.482L13.278,84.612L13.278,84.612z M13.278,88.644h0.781
		c0.5,0,0.878-0.109,1.136-0.327c0.258-0.218,0.387-0.536,0.387-0.955c0-0.394-0.128-0.694-0.384-0.901
		c-0.256-0.207-0.627-0.311-1.114-0.311h-0.806V88.644z"/>
	<path fill="#1F006D" d="M17.82,90.192l3.536-9.293h2.272l3.586,9.293h-2.26L24.2,88.218h-3.599l-0.647,1.975L17.82,90.192
		L17.82,90.192z M23.736,86.658l-1.041-3.004c-0.03-0.089-0.068-0.24-0.114-0.457c-0.046-0.216-0.095-0.48-0.146-0.794
		c-0.055,0.302-0.108,0.57-0.159,0.81c-0.051,0.24-0.089,0.399-0.114,0.479l-1.003,2.966H23.736z"/>
	<path fill="#1F006D" d="M35.325,83.317c-0.402-0.358-0.814-0.623-1.238-0.79c-0.424-0.167-0.876-0.251-1.358-0.251
		c-0.99,0-1.779,0.298-2.368,0.89c-0.588,0.592-0.882,1.389-0.882,2.387c0,0.979,0.273,1.754,0.819,2.326
		c0.546,0.574,1.291,0.861,2.234,0.861c0.538,0,1.037-0.092,1.498-0.271c0.461-0.18,0.889-0.449,1.282-0.811L35.3,89.697
		c-0.423,0.25-0.867,0.436-1.33,0.559c-0.464,0.123-0.951,0.186-1.463,0.186c-1.481,0-2.697-0.461-3.647-1.381
		c-0.95-0.921-1.425-2.09-1.425-3.508c0-1.413,0.476-2.579,1.428-3.497c0.952-0.918,2.179-1.378,3.682-1.378
		c0.503,0,0.99,0.054,1.46,0.158c0.47,0.105,0.933,0.27,1.39,0.49L35.325,83.317z"/>
	<path fill="#1F006D" d="M37.588,90.192v-9.293h1.987v4.209l3.098-4.209h2.298l-3.326,4.233l3.447,5.06h-2.393l-3.123-4.862v4.862
		H37.588z"/>
	<path fill="#1F006D" d="M53.477,82.587v7.604h-1.994v-7.604h-2.272V80.9h6.538v1.688H53.477z"/>
	<path fill="#1F006D" d="M66.487,85.565c0,0.664-0.123,1.292-0.371,1.886c-0.247,0.592-0.604,1.112-1.069,1.562
		c-0.481,0.461-1.026,0.813-1.632,1.06c-0.604,0.246-1.23,0.369-1.879,0.369c-0.566,0-1.122-0.098-1.666-0.289
		c-0.543-0.191-1.042-0.469-1.494-0.828c-0.584-0.466-1.032-1.021-1.343-1.67c-0.312-0.646-0.468-1.344-0.468-2.088
		c0-0.669,0.123-1.297,0.369-1.883s0.604-1.107,1.078-1.564c0.467-0.453,1.006-0.804,1.622-1.054c0.615-0.25,1.249-0.374,1.9-0.374
		c0.647,0,1.276,0.124,1.889,0.374s1.152,0.601,1.622,1.054c0.471,0.457,0.827,0.979,1.073,1.568
		C66.365,84.274,66.487,84.9,66.487,85.565z M61.536,88.669c0.843,0,1.537-0.295,2.086-0.887c0.548-0.59,0.822-1.328,0.822-2.218
		c0-0.881-0.277-1.621-0.832-2.224c-0.555-0.6-1.246-0.899-2.076-0.899c-0.842,0-1.54,0.3-2.094,0.897
		c-0.555,0.599-0.832,1.341-0.832,2.226c0,0.896,0.272,1.64,0.818,2.226C59.976,88.376,60.677,88.669,61.536,88.669z"/>
</g>
<g>
	<path fill="#1F006D" d="M11.292,103.192v-9.293h5.472v1.677h-3.485v1.909h3.485v1.688h-3.485v4.019H11.292z"/>
	<path fill="#1F006D" d="M18.299,103.192v-9.293h5.472v1.677h-3.485v1.909h3.485v1.688h-3.485v2.33h3.485v1.688L18.299,103.192
		L18.299,103.192z"/>
	<path fill="#1F006D" d="M24.615,103.192l3.536-9.293h2.272l3.586,9.293h-2.26l-0.755-1.976h-3.599l-0.647,1.976H24.615z
		 M30.531,99.658l-1.041-3.004c-0.03-0.089-0.068-0.24-0.114-0.457c-0.046-0.216-0.095-0.48-0.146-0.794
		c-0.055,0.302-0.108,0.57-0.159,0.81c-0.051,0.24-0.089,0.399-0.114,0.479l-1.003,2.966H30.531z"/>
	<path fill="#1F006D" d="M38.043,95.587v7.604H36.05v-7.604h-2.272V93.9h6.538v1.688H38.043z"/>
	<path fill="#1F006D" d="M49.609,93.899v5.783c0,1.261-0.332,2.202-0.997,2.823c-0.665,0.623-1.665,0.935-3.002,0.935
		c-1.358,0-2.37-0.312-3.034-0.935c-0.664-0.621-0.997-1.563-0.997-2.823v-5.783h1.974v5.472c0,0.767,0.169,1.344,0.508,1.729
		c0.338,0.388,0.844,0.581,1.517,0.581c0.677,0,1.189-0.194,1.536-0.584c0.347-0.391,0.521-0.965,0.521-1.727v-5.473L49.609,93.899
		L49.609,93.899z"/>
	<path fill="#1F006D" d="M58.388,103.192h-2.291l-2.444-4.342v4.342h-1.987v-9.293h2.844c1.13,0,1.976,0.22,2.539,0.657
		s0.845,1.097,0.845,1.979c0,0.639-0.192,1.184-0.578,1.637c-0.385,0.453-0.883,0.718-1.491,0.793L58.388,103.192z M53.653,97.86
		h0.298c0.804,0,1.335-0.088,1.593-0.264c0.26-0.177,0.389-0.481,0.389-0.917c0-0.457-0.14-0.782-0.416-0.975
		s-0.799-0.289-1.564-0.289h-0.298L53.653,97.86L53.653,97.86z"/>
	<path fill="#1F006D" d="M59.543,103.192v-9.293h5.472v1.677H61.53v1.909h3.484v1.688H61.53v2.33h3.484v1.688L59.543,103.192
		L59.543,103.192z"/>
	<path fill="#1F006D" d="M66.963,103.192v-9.293h2.533c0.998,0,1.785,0.069,2.36,0.209c0.576,0.142,1.08,0.373,1.518,0.699
		c0.563,0.418,0.988,0.946,1.279,1.583c0.289,0.637,0.435,1.361,0.435,2.175c0,0.824-0.147,1.556-0.444,2.192
		c-0.295,0.636-0.729,1.162-1.302,1.576c-0.423,0.306-0.894,0.524-1.411,0.658c-0.519,0.133-1.277,0.199-2.275,0.199H68.95
		L66.963,103.192L66.963,103.192z M68.95,101.517h1.105c1.041,0,1.799-0.237,2.274-0.711c0.476-0.475,0.714-1.225,0.714-2.254
		c0-1.023-0.238-1.773-0.714-2.25c-0.478-0.477-1.233-0.715-2.274-0.715H68.95V101.517z"/>
	<path fill="#1F006D" d="M80.147,102.012l1.104-1.251c0.14,0.344,0.363,0.613,0.672,0.81c0.31,0.197,0.656,0.296,1.041,0.296
		c0.466,0,0.834-0.109,1.104-0.33c0.271-0.221,0.406-0.517,0.406-0.889c0-0.439-0.451-0.879-1.353-1.314
		c-0.292-0.14-0.522-0.254-0.692-0.342c-0.813-0.424-1.375-0.838-1.688-1.242c-0.313-0.403-0.471-0.885-0.471-1.442
		c0-0.767,0.305-1.396,0.912-1.89c0.605-0.492,1.395-0.74,2.362-0.74c0.563,0,1.05,0.1,1.457,0.297
		c0.408,0.195,0.771,0.505,1.082,0.923l-1.174,1.124c-0.14-0.271-0.324-0.473-0.556-0.605c-0.23-0.133-0.51-0.199-0.836-0.199
		c-0.393,0-0.711,0.098-0.951,0.295c-0.241,0.195-0.361,0.451-0.361,0.765c0,0.491,0.479,0.938,1.436,1.347
		c0.189,0.08,0.336,0.144,0.438,0.189c0.787,0.359,1.371,0.766,1.75,1.219c0.378,0.453,0.566,0.969,0.566,1.549
		c0,0.873-0.297,1.566-0.892,2.086c-0.595,0.519-1.394,0.777-2.396,0.777c-0.711,0-1.32-0.123-1.828-0.369
		C80.776,102.826,80.397,102.473,80.147,102.012z"/>
	<path fill="#1F006D" d="M88.024,103.192v-9.293h5.473v1.677h-3.484v1.909h3.484v1.688h-3.484v2.33h3.484v1.688L88.024,103.192
		L88.024,103.192z"/>
	<path fill="#1F006D" d="M94.677,102.101l1.391-0.717c0.047,0.24,0.172,0.432,0.375,0.57c0.203,0.141,0.455,0.209,0.756,0.209
		c0.296,0,0.527-0.054,0.697-0.162c0.17-0.106,0.254-0.256,0.254-0.446c0-0.302-0.301-0.552-0.9-0.755
		c-0.188-0.064-0.335-0.117-0.445-0.159c-0.73-0.274-1.238-0.552-1.52-0.831c-0.282-0.279-0.422-0.625-0.422-1.035
		c0-0.609,0.238-1.104,0.717-1.479c0.479-0.377,1.109-0.565,1.893-0.565c0.559,0,1.041,0.112,1.449,0.337s0.706,0.541,0.893,0.951
		l-1.326,0.66c-0.071-0.232-0.196-0.409-0.375-0.529c-0.178-0.121-0.399-0.182-0.666-0.182c-0.268,0-0.482,0.056-0.647,0.166
		c-0.165,0.109-0.248,0.254-0.248,0.432c0,0.309,0.411,0.596,1.232,0.863c0.097,0.029,0.171,0.053,0.222,0.068
		c0.682,0.226,1.166,0.485,1.454,0.785c0.287,0.297,0.433,0.678,0.433,1.139c0,0.617-0.24,1.108-0.719,1.473
		c-0.479,0.363-1.124,0.547-1.938,0.547c-0.643,0-1.19-0.12-1.646-0.359C95.135,102.843,94.83,102.516,94.677,102.101z"/>
</g>
<polygon fill="#8F80B7" points="38.93,15.056 34.371,11.156 15.546,33.163 19.503,37.769 "/>
<polygon fill="#1F006D" points="33.715,54.305 19.503,37.769 15.546,33.163 11.599,37.778 34.375,64.278 38.925,60.367 "/>
</svg>
