<?xml version="1.0" encoding="utf-8"?>
<!-- Generator: Adobe Illustrator 16.0.0, SVG Export Plug-In . SVG Version: 6.00 Build 0)  -->
<!DOCTYPE svg PUBLIC "-//W3C//DTD SVG 1.1//EN" "http://www.w3.org/Graphics/SVG/1.1/DTD/svg11.dtd">
<svg version="1.1" id="Layer_1" xmlns="http://www.w3.org/2000/svg" xmlns:xlink="http://www.w3.org/1999/xlink" x="0px" y="0px"
	 width="130.494px" height="133.493px" viewBox="0 0 130.494 133.493" enable-background="new 0 0 130.494 133.493"
	 xml:space="preserve">
<g>
	<text transform="matrix(1 0 0 1 19.6069 104.3716)" fill="#1F006D" font-family="'FuturaBT-Heavy'" font-size="13">SEE FULL </text>
	<text transform="matrix(1 0 0 1 19.6069 117.3716)"><tspan x="0" y="0" fill="#1F006D" font-family="'FuturaBT-Heavy'" font-size="13">MARKETP</tspan><tspan x="58.811" y="0" fill="#1F006D" font-family="'FuturaBT-Heavy'" font-size="13">L</tspan><tspan x="65.612" y="0" fill="#1F006D" font-family="'FuturaBT-Heavy'" font-size="13">A</tspan><tspan x="74.529" y="0" fill="#1F006D" font-family="'FuturaBT-Heavy'" font-size="13">CE</tspan></text>
	<rect x="20.191" y="31.591" fill="#1F006D" width="51.628" height="53.376"/>
	<path fill="#8F80B7" d="M63.586,44.996h-3.219V22.388c0-3.372-2.742-6.114-6.114-6.114H38.106c-3.373,0-6.115,2.742-6.115,6.114
		v22.607h-3.218V22.388c0-5.146,4.187-9.332,9.333-9.332h16.147c5.146,0,9.333,4.187,9.333,9.332V44.996z"/>
</g>
</svg>
