<?xml version="1.0" encoding="utf-8"?>
<!-- Generator: Adobe Illustrator 16.0.0, SVG Export Plug-In . SVG Version: 6.00 Build 0)  -->
<!DOCTYPE svg PUBLIC "-//W3C//DTD SVG 1.1//EN" "http://www.w3.org/Graphics/SVG/1.1/DTD/svg11.dtd">
<svg version="1.1" id="Layer_1" xmlns="http://www.w3.org/2000/svg" xmlns:xlink="http://www.w3.org/1999/xlink" x="0px" y="0px"
	 width="130.494px" height="133.493px" viewBox="0 0 130.494 133.493" enable-background="new 0 0 130.494 133.493"
	 xml:space="preserve">
<g>
	<g enable-background="new    ">
		<path fill="#1F006D" d="M20.051,103.191l1.104-1.251c0.14,0.344,0.364,0.613,0.673,0.81c0.309,0.197,0.656,0.296,1.041,0.296
			c0.465,0,0.833-0.11,1.104-0.33c0.271-0.221,0.406-0.517,0.406-0.889c0-0.44-0.451-0.879-1.352-1.314
			c-0.292-0.14-0.522-0.254-0.692-0.343c-0.813-0.423-1.375-0.837-1.688-1.241s-0.47-0.885-0.47-1.443
			c0-0.767,0.304-1.396,0.911-1.889c0.607-0.493,1.395-0.74,2.364-0.74c0.563,0,1.048,0.099,1.457,0.296
			c0.408,0.196,0.769,0.505,1.082,0.923l-1.174,1.124c-0.14-0.271-0.325-0.473-0.555-0.606c-0.231-0.133-0.509-0.199-0.835-0.199
			c-0.394,0-0.711,0.098-0.952,0.295c-0.241,0.196-0.362,0.451-0.362,0.765c0,0.491,0.478,0.939,1.435,1.346
			c0.19,0.08,0.336,0.144,0.438,0.19c0.787,0.359,1.37,0.766,1.749,1.219c0.378,0.453,0.568,0.969,0.568,1.549
			c0,0.872-0.297,1.566-0.892,2.085c-0.594,0.519-1.393,0.778-2.396,0.778c-0.711,0-1.32-0.123-1.828-0.369
			C20.68,104.005,20.301,103.652,20.051,103.191z"/>
		<path fill="#1F006D" d="M27.929,104.372v-9.293H33.4v1.676h-3.485v1.91H33.4v1.689h-3.485v2.329H33.4v1.688H27.929z"/>
		<path fill="#1F006D" d="M35.349,104.372v-9.293h5.472v1.676h-3.485v1.91h3.485v1.689h-3.485v2.329h3.485v1.688H35.349z"/>
		<path fill="#1F006D" d="M46.762,104.372v-9.293h5.472v1.676h-3.485v1.91h3.485v1.689h-3.485v4.018H46.762z"/>
		<path fill="#1F006D" d="M61.762,95.079v5.783c0,1.261-0.332,2.202-0.997,2.824s-1.665,0.934-3.002,0.934
			c-1.358,0-2.37-0.312-3.034-0.934s-0.997-1.563-0.997-2.824v-5.783h1.974v5.472c0,0.766,0.169,1.343,0.508,1.729
			c0.338,0.388,0.844,0.581,1.517,0.581c0.677,0,1.189-0.194,1.536-0.584s0.521-0.965,0.521-1.727v-5.472H61.762z"/>
		<path fill="#1F006D" d="M63.818,104.372v-9.293h1.987v7.604h3.174v1.688H63.818z"/>
		<path fill="#1F006D" d="M70.229,104.372v-9.293h1.986v7.604h3.174v1.688H70.229z"/>
	</g>
	<g enable-background="new    ">
		<path fill="#1F006D" d="M19.842,117.372l1.416-9.293h2.082l1.79,5.472c0.038,0.114,0.079,0.281,0.124,0.501
			c0.044,0.221,0.085,0.473,0.124,0.756c0.034-0.288,0.072-0.545,0.114-0.771s0.083-0.393,0.121-0.498l1.822-5.459h2.05l1.422,9.293
			h-1.885l-0.679-5.605c-0.051-0.414-0.084-0.728-0.102-0.939c-0.017-0.211-0.025-0.408-0.025-0.59c0-0.098,0.001-0.17,0.003-0.219
			c0.002-0.049,0.005-0.092,0.01-0.131c-0.063,0.364-0.124,0.679-0.181,0.943c-0.058,0.265-0.109,0.464-0.156,0.6l-1.968,5.941
			h-1.117l-1.936-5.941c-0.017-0.055-0.054-0.207-0.111-0.457c-0.057-0.25-0.136-0.613-0.238-1.092v0.273
			c0,0.432-0.038,0.96-0.114,1.586l-0.006,0.025l-0.673,5.605H19.842z"/>
		<path fill="#1F006D" d="M31.09,117.372l3.536-9.293h2.272l3.586,9.293h-2.26l-0.755-1.975H33.87l-0.647,1.975H31.09z
			 M37.006,113.836l-1.041-3.003c-0.03-0.089-0.068-0.241-0.114-0.457s-0.095-0.48-0.146-0.794c-0.055,0.301-0.108,0.57-0.159,0.81
			s-0.089,0.399-0.114,0.479l-1.003,2.965H37.006z"/>
		<path fill="#1F006D" d="M48.184,117.372h-2.292l-2.444-4.342v4.342h-1.987v-9.293h2.844c1.13,0,1.976,0.219,2.539,0.657
			c0.563,0.438,0.844,1.097,0.844,1.978c0,0.639-0.192,1.185-0.578,1.637c-0.385,0.453-0.882,0.718-1.492,0.794L48.184,117.372z
			 M43.449,112.04h0.298c0.804,0,1.335-0.088,1.593-0.264s0.387-0.481,0.387-0.917c0-0.457-0.139-0.782-0.416-0.975
			c-0.277-0.192-0.798-0.288-1.564-0.288h-0.298V112.04z"/>
		<path fill="#1F006D" d="M49.339,117.372v-9.293h1.987v4.209l3.098-4.209h2.298l-3.326,4.234l3.447,5.059h-2.393l-3.123-4.862
			v4.862H49.339z"/>
		<path fill="#1F006D" d="M57.763,117.372v-9.293h5.472v1.676H59.75v1.91h3.485v1.689H59.75v2.329h3.485v1.688H57.763z"/>
		<path fill="#1F006D" d="M68.655,109.767v7.604h-1.993v-7.604H64.39v-1.688h6.538v1.688H68.655z"/>
		<path fill="#1F006D" d="M72.229,117.372v-9.293h2.285c1.219,0,2.119,0.232,2.701,0.698c0.581,0.466,0.872,1.185,0.872,2.158
			c0,0.901-0.293,1.608-0.88,2.12c-0.586,0.512-1.396,0.768-2.434,0.768h-0.546v3.549H72.229z M74.229,112.274h0.286
			c0.541,0,0.935-0.111,1.18-0.336c0.246-0.225,0.369-0.584,0.369-1.079c0-0.457-0.123-0.79-0.369-1
			c-0.245-0.209-0.639-0.313-1.18-0.313h-0.286V112.274z"/>
	</g>
	<g enable-background="new    ">
		<path fill="#1F006D" d="M79.459,117.372v-9.293h1.987v7.604h3.174v1.688H79.459z"/>
	</g>
	<g enable-background="new    ">
		<path fill="#1F006D" d="M85.155,117.372l3.535-9.293h2.273l3.586,9.293h-2.26l-0.756-1.975h-3.599l-0.647,1.975H85.155z
			 M91.071,113.836l-1.041-3.003c-0.029-0.089-0.068-0.241-0.114-0.457s-0.095-0.48-0.146-0.794c-0.056,0.301-0.108,0.57-0.159,0.81
			s-0.089,0.399-0.114,0.479l-1.003,2.965H91.071z"/>
	</g>
	<g enable-background="new    ">
		<path fill="#1F006D" d="M102.661,110.497c-0.402-0.359-0.814-0.623-1.238-0.79s-0.876-0.251-1.358-0.251
			c-0.99,0-1.779,0.297-2.368,0.889c-0.588,0.593-0.882,1.389-0.882,2.387c0,0.979,0.272,1.754,0.819,2.327
			c0.545,0.573,1.29,0.86,2.234,0.86c0.537,0,1.036-0.091,1.498-0.271c0.461-0.18,0.889-0.449,1.281-0.81l-0.012,2.038
			c-0.424,0.25-0.867,0.436-1.33,0.559c-0.464,0.123-0.951,0.185-1.463,0.185c-1.481,0-2.697-0.461-3.647-1.381
			c-0.95-0.921-1.425-2.09-1.425-3.508c0-1.413,0.477-2.579,1.428-3.497c0.953-0.918,2.18-1.378,3.682-1.378
			c0.504,0,0.99,0.054,1.461,0.159c0.469,0.105,0.933,0.269,1.39,0.489L102.661,110.497z"/>
		<path fill="#1F006D" d="M104.508,117.372v-9.293h5.472v1.676h-3.484v1.91h3.484v1.689h-3.484v2.329h3.484v1.688H104.508z"/>
	</g>
	<rect x="20.191" y="31.591" fill="#1F006D" width="51.628" height="53.376"/>
	<path fill="#8F80B7" d="M63.586,44.996h-3.219V22.388c0-3.372-2.742-6.114-6.114-6.114H38.106c-3.373,0-6.115,2.742-6.115,6.114
		v22.607h-3.218V22.388c0-5.146,4.187-9.332,9.333-9.332h16.147c5.146,0,9.333,4.187,9.333,9.332V44.996z"/>
</g>
</svg>
