<?xml version="1.0" encoding="utf-8"?>
<!-- Generator: Adobe Illustrator 16.0.0, SVG Export Plug-In . SVG Version: 6.00 Build 0)  -->
<!DOCTYPE svg PUBLIC "-//W3C//DTD SVG 1.1//EN" "http://www.w3.org/Graphics/SVG/1.1/DTD/svg11.dtd">
<svg version="1.1" id="Layer_1" xmlns="http://www.w3.org/2000/svg" xmlns:xlink="http://www.w3.org/1999/xlink" x="0px" y="0px"
	 width="108.51px" height="118.085px" viewBox="0 0 108.51 118.085" enable-background="new 0 0 108.51 118.085"
	 xml:space="preserve">
<g>
	<path fill="#1F006D" d="M11.292,93.192v-9.293h1.739c0.901,0,1.561,0.035,1.978,0.104c0.417,0.07,0.777,0.186,1.082,0.347
		c0.36,0.207,0.638,0.479,0.835,0.818c0.196,0.339,0.295,0.722,0.295,1.148c0,0.551-0.163,0.992-0.489,1.324
		s-0.813,0.553-1.46,0.663c0.749,0.11,1.315,0.354,1.698,0.729c0.383,0.377,0.575,0.879,0.575,1.505c0,0.457-0.11,0.875-0.33,1.254
		s-0.522,0.672-0.908,0.879c-0.343,0.187-0.745,0.319-1.206,0.399c-0.461,0.081-1.225,0.121-2.292,0.121h-0.203H11.292z
		 M13.278,87.612h0.444c0.601,0,1.026-0.084,1.276-0.254c0.25-0.169,0.375-0.452,0.375-0.85c0-0.39-0.12-0.667-0.359-0.832
		c-0.239-0.165-0.657-0.248-1.253-0.248h-0.482V87.612z M13.278,91.644h0.781c0.5,0,0.878-0.109,1.136-0.327
		s0.387-0.536,0.387-0.955c0-0.394-0.128-0.694-0.384-0.901c-0.256-0.207-0.627-0.311-1.114-0.311h-0.806V91.644z"/>
	<path fill="#1F006D" d="M17.82,93.192l3.536-9.293h2.272l3.586,9.293h-2.26L24.2,91.218h-3.599l-0.647,1.975H17.82z M23.736,89.657
		l-1.041-3.003c-0.03-0.089-0.068-0.241-0.114-0.457s-0.095-0.48-0.146-0.794c-0.055,0.301-0.108,0.57-0.159,0.81
		s-0.089,0.399-0.114,0.479l-1.003,2.965H23.736z"/>
	<path fill="#1F006D" d="M35.325,86.317c-0.402-0.359-0.814-0.623-1.238-0.79s-0.876-0.251-1.358-0.251
		c-0.99,0-1.779,0.297-2.368,0.889c-0.588,0.593-0.882,1.389-0.882,2.387c0,0.979,0.273,1.754,0.819,2.327s1.291,0.86,2.234,0.86
		c0.538,0,1.037-0.091,1.498-0.271s0.889-0.449,1.282-0.81L35.3,92.697c-0.423,0.25-0.867,0.436-1.33,0.559
		c-0.464,0.123-0.951,0.185-1.463,0.185c-1.481,0-2.697-0.461-3.647-1.381c-0.95-0.921-1.425-2.09-1.425-3.508
		c0-1.413,0.476-2.579,1.428-3.497s2.179-1.378,3.682-1.378c0.503,0,0.99,0.054,1.46,0.159s0.933,0.269,1.39,0.489L35.325,86.317z"
		/>
	<path fill="#1F006D" d="M37.588,93.192v-9.293h1.987v4.209l3.098-4.209h2.298l-3.326,4.234l3.447,5.059h-2.393l-3.123-4.862v4.862
		H37.588z"/>
	<path fill="#1F006D" d="M53.477,85.588v7.604h-1.994v-7.604h-2.272v-1.688h6.538v1.688H53.477z"/>
	<path fill="#1F006D" d="M66.487,88.565c0,0.664-0.123,1.292-0.371,1.885c-0.247,0.593-0.604,1.113-1.069,1.562
		c-0.482,0.461-1.026,0.814-1.632,1.06c-0.604,0.246-1.23,0.369-1.879,0.369c-0.566,0-1.122-0.097-1.666-0.289
		c-0.543-0.192-1.042-0.469-1.494-0.828c-0.584-0.466-1.032-1.022-1.343-1.67c-0.312-0.647-0.467-1.344-0.467-2.088
		c0-0.669,0.122-1.297,0.368-1.883s0.605-1.107,1.079-1.564c0.466-0.453,1.006-0.804,1.622-1.054c0.615-0.25,1.249-0.374,1.9-0.374
		c0.648,0,1.277,0.124,1.889,0.374s1.152,0.601,1.622,1.054c0.47,0.457,0.827,0.979,1.073,1.568
		C66.365,87.274,66.487,87.9,66.487,88.565z M61.536,91.669c0.843,0,1.537-0.295,2.086-0.886c0.548-0.59,0.822-1.329,0.822-2.218
		c0-0.881-0.277-1.621-0.832-2.223c-0.555-0.601-1.246-0.9-2.076-0.9c-0.842,0-1.54,0.299-2.094,0.897
		c-0.555,0.599-0.832,1.341-0.832,2.226c0,0.896,0.273,1.639,0.818,2.225C59.975,91.376,60.677,91.669,61.536,91.669z"/>
</g>
<g>
	<path fill="#1F006D" d="M11.292,106.192v-9.293h5.472v1.676h-3.485v1.91h3.485v1.689h-3.485v4.018H11.292z"/>
	<path fill="#1F006D" d="M18.299,106.192v-9.293h5.472v1.676h-3.485v1.91h3.485v1.689h-3.485v2.329h3.485v1.688H18.299z"/>
	<path fill="#1F006D" d="M24.615,106.192l3.536-9.293h2.272l3.586,9.293h-2.26l-0.755-1.975h-3.599l-0.647,1.975H24.615z
		 M30.531,102.657l-1.041-3.003c-0.03-0.089-0.068-0.241-0.114-0.457s-0.095-0.48-0.146-0.794c-0.055,0.301-0.108,0.57-0.159,0.81
		s-0.089,0.399-0.114,0.479l-1.003,2.965H30.531z"/>
	<path fill="#1F006D" d="M38.043,98.588v7.604H36.05v-7.604h-2.272v-1.688h6.538v1.688H38.043z"/>
	<path fill="#1F006D" d="M49.609,96.899v5.783c0,1.261-0.332,2.202-0.997,2.824s-1.665,0.934-3.002,0.934
		c-1.358,0-2.37-0.312-3.034-0.934s-0.997-1.563-0.997-2.824v-5.783h1.974v5.472c0,0.766,0.169,1.343,0.508,1.729
		c0.338,0.388,0.844,0.581,1.517,0.581c0.677,0,1.189-0.194,1.536-0.584s0.521-0.965,0.521-1.727v-5.472H49.609z"/>
	<path fill="#1F006D" d="M58.387,106.192h-2.291l-2.443-4.342v4.342h-1.987v-9.293h2.844c1.13,0,1.976,0.219,2.539,0.657
		c0.563,0.438,0.845,1.097,0.845,1.978c0,0.639-0.193,1.185-0.578,1.637c-0.385,0.453-0.883,0.718-1.492,0.794L58.387,106.192z
		 M53.653,100.86h0.298c0.804,0,1.335-0.088,1.593-0.264c0.259-0.176,0.388-0.481,0.388-0.917c0-0.457-0.139-0.782-0.416-0.975
		c-0.276-0.192-0.798-0.288-1.564-0.288h-0.298V100.86z"/>
	<path fill="#1F006D" d="M59.543,106.192v-9.293h5.471v1.676H61.53v1.91h3.484v1.689H61.53v2.329h3.484v1.688H59.543z"/>
	<path fill="#1F006D" d="M66.963,106.192v-9.293h2.533c0.998,0,1.785,0.07,2.361,0.209c0.575,0.141,1.08,0.373,1.517,0.699
		c0.563,0.418,0.989,0.946,1.279,1.583s0.435,1.362,0.435,2.175c0,0.824-0.148,1.556-0.444,2.192s-0.729,1.163-1.302,1.577
		c-0.423,0.305-0.894,0.524-1.412,0.657c-0.518,0.134-1.277,0.2-2.275,0.2H68.95H66.963z M68.95,104.517h1.105
		c1.041,0,1.799-0.237,2.275-0.711c0.476-0.474,0.714-1.225,0.714-2.254c0-1.023-0.238-1.773-0.714-2.25
		c-0.477-0.476-1.234-0.714-2.275-0.714H68.95V104.517z"/>
	<path fill="#1F006D" d="M80.147,105.012l1.105-1.251c0.139,0.344,0.363,0.613,0.672,0.81c0.31,0.197,0.656,0.296,1.041,0.296
		c0.466,0,0.834-0.11,1.105-0.33c0.271-0.221,0.406-0.517,0.406-0.889c0-0.44-0.451-0.879-1.353-1.314
		c-0.292-0.14-0.522-0.254-0.692-0.343c-0.813-0.423-1.375-0.837-1.688-1.241c-0.313-0.404-0.471-0.885-0.471-1.443
		c0-0.767,0.305-1.396,0.912-1.889c0.606-0.493,1.395-0.74,2.363-0.74c0.563,0,1.049,0.099,1.457,0.296
		c0.408,0.196,0.77,0.505,1.082,0.923l-1.174,1.124c-0.14-0.271-0.324-0.473-0.555-0.606c-0.231-0.133-0.51-0.199-0.836-0.199
		c-0.393,0-0.711,0.098-0.951,0.295c-0.242,0.196-0.362,0.451-0.362,0.765c0,0.491,0.478,0.939,1.435,1.346
		c0.19,0.08,0.336,0.144,0.438,0.19c0.787,0.359,1.371,0.766,1.75,1.219c0.378,0.453,0.567,0.969,0.567,1.549
		c0,0.872-0.298,1.566-0.892,2.085c-0.595,0.519-1.394,0.778-2.396,0.778c-0.711,0-1.32-0.123-1.828-0.369
		C80.776,105.826,80.397,105.473,80.147,105.012z"/>
	<path fill="#1F006D" d="M88.025,106.192v-9.293h5.472v1.676h-3.484v1.91h3.484v1.689h-3.484v2.329h3.484v1.688H88.025z"/>
	<path fill="#1F006D" d="M94.677,105.101l1.39-0.717c0.047,0.24,0.172,0.432,0.375,0.57c0.203,0.141,0.455,0.21,0.756,0.21
		c0.296,0,0.528-0.054,0.697-0.162c0.17-0.107,0.254-0.257,0.254-0.447c0-0.301-0.3-0.552-0.9-0.755
		c-0.187-0.064-0.335-0.117-0.445-0.159c-0.731-0.275-1.238-0.552-1.52-0.831s-0.422-0.625-0.422-1.035
		c0-0.609,0.238-1.103,0.717-1.479c0.479-0.377,1.109-0.565,1.892-0.565c0.559,0,1.042,0.112,1.45,0.337
		c0.408,0.224,0.706,0.541,0.893,0.951l-1.327,0.66c-0.071-0.232-0.196-0.409-0.374-0.529c-0.178-0.121-0.4-0.182-0.667-0.182
		s-0.482,0.056-0.647,0.166c-0.165,0.109-0.248,0.254-0.248,0.432c0,0.309,0.411,0.596,1.232,0.863
		c0.097,0.029,0.171,0.053,0.222,0.069c0.681,0.225,1.166,0.485,1.454,0.784c0.287,0.298,0.432,0.678,0.432,1.139
		c0,0.618-0.24,1.109-0.718,1.473c-0.478,0.364-1.124,0.547-1.937,0.547c-0.643,0-1.191-0.12-1.646-0.359
		S94.83,105.516,94.677,105.101z"/>
</g>
<polygon fill="#8F80B7" points="38.93,18.056 34.371,14.156 15.546,36.163 19.503,40.769 "/>
<polygon fill="#1F006D" points="33.715,57.305 19.503,40.769 15.546,36.163 11.599,40.778 34.375,67.278 38.925,63.367 "/>
</svg>
