<?xml version="1.0" encoding="utf-8"?>
<!-- Generator: Adobe Illustrator 16.0.0, SVG Export Plug-In . SVG Version: 6.00 Build 0)  -->
<!DOCTYPE svg PUBLIC "-//W3C//DTD SVG 1.1//EN" "http://www.w3.org/Graphics/SVG/1.1/DTD/svg11.dtd">
<svg version="1.1" id="Layer_1" xmlns="http://www.w3.org/2000/svg" xmlns:xlink="http://www.w3.org/1999/xlink" x="0px" y="0px"
	 width="1401px" height="839px" viewBox="259.496 -0.554 1401 839" enable-background="new 259.496 -0.554 1401 839"
	 xml:space="preserve">
<polygon fill="#FFF5DA" points="259.517,-0.392 259.496,838.446 1442.573,838.446 1660.496,838.422 1660.496,-0.554 "/>
<polygon fill="#FFCA00" points="1661.774,589.395 1160.582,-1.306 1180.352,-1.394 1660.496,564.373 "/>
<polygon fill="#89CE00" points="1660.493,486.878 1301.563,63.255 1310.699,50.586 1660.498,463.371 "/>
<polygon fill="#0099FF" points="1539.762,293.065 1475.043,216.652 1484.899,204.787 1549.698,281.275 "/>
<polygon fill="#FFCA00" points="1660.496,96.5 1616.674,45.018 1626.527,33.156 1660.495,73.054 "/>
<polygon fill="#FF5812" points="1192.34,268.372 966.328,-1.306 986.097,-1.395 1202.298,256.539 "/>
<polygon fill="#FF7FA3" points="733.823,15.575 723.959,27.31 1294.411,701.933 1301.836,693.006 "/>
<polygon fill="#FF7FA3" points="1313.631,702.115 1303.755,714.005 1408.146,837.756 1428.056,837.756 "/>
<polygon fill="#FF7FA3" points="1124.743,838.016 926.604,602.607 936.569,590.845 1144.633,838.016 "/>
<polygon fill="#0099FF" points="1186.885,831.221 1028.07,642.534 1038.015,630.739 1196.771,819.335 "/>
<polygon fill="#FFCA00" points="1086.241,393.606 757.327,-1.306 777.096,-1.394 1097.031,382.772 "/>
<polygon fill="#FFCA00" points="964.758,162.783 829.308,0.154 849.146,0.154 974.771,150.999 "/>
<polygon fill="#FFCA00" points="594.829,158.038 457.486,-2.697 476.984,-2.167 604.438,146.914 "/>
<polygon fill="#89CE00" points="613.438,135.922 498.598,-0.012 517.678,-0.044 623.42,124.02 "/>
<polygon fill="#FF7FA3" points="1253.88,196.789 1088.67,-0.978 1108.681,-1.207 1263.832,184.969 "/>
<polygon fill="#89CE00" points="1252.811,751.954 1018.001,474.214 1028.07,464.072 1262.854,739.878 "/>
<polygon fill="#FF7FA3" points="649.1,844.72 259.496,382.479 259.496,358.881 669.011,844.694 "/>
<polygon fill="#FF7FA3" points="1317.942,0.045 1018.001,354.289 1026.758,364.939 1335.587,0.008 "/>
<polygon fill="#89CE00" points="1070.543,122.938 974.803,235.614 984.3,247 1080.049,134.271 "/>
<polygon fill="#89CE00" points="946.374,269.071 955.901,280.434 974.295,258.779 964.795,247.393 "/>
<polygon fill="#89CE00" points="1168.29,7.899 1080.539,111.174 1090.045,122.503 1177.77,19.223 "/>
<polyline fill="#FF7FA3" points="938.659,216.063 920.176,237.825 910.649,226.463 929.161,204.677 "/>
<polyline fill="#FF7FA3" points="939.169,192.897 1096.236,8.044 1106.13,18.896 948.667,204.282 "/>
<polygon fill="#0099FF" points="1335.587,-0.011 1259.159,90.305 1268.386,102.522 1354.905,0.026 "/>
<polygon fill="#FF7FA3" points="835.035,-0.753 855.079,-0.74 787.44,79.521 777.315,67.846 "/>
<polygon fill="#FFCA00" points="757.463,-1.222 777.315,-1.253 748.475,33.049 738.571,21.237 "/>
<polygon fill="#0099FF" points="360.666,378.035 370.542,389.782 601.339,121.601 591.542,110.007 "/>
<polygon fill="#0099FF" points="687.476,-1.363 601.563,98.375 611.286,110.043 707.067,-1.253 "/>
<polygon fill="#FF5812" points="259.496,384.103 523.293,74.318 513.459,62.81 259.496,360.981 "/>
<polygon fill="#FF5812" points="567.8,-0.274 523.033,51.696 532.865,63.196 587.487,-0.274 "/>
<polygon fill="#FF5812" points="1443.879,231.289 1410.982,270.844 1420.601,282.198 1453.475,242.619 "/>
<polygon fill="#FF5812" points="1453.74,219.433 1463.331,230.754 1654.02,0 1635.294,0 "/>
<polygon fill="#FF5812" points="1406.783,566.819 1406.783,566.819 1308.109,685.463 1181.983,837.114 1201.531,837.077 
	1313.631,702.115 1418.525,575.828 1574.579,385.608 1564.942,374.23 "/>
<polygon fill="#FF5812" points="1660.496,258.306 1574.756,362.281 1584.389,373.65 1660.496,281.322 "/>
<polygon fill="#FFCA00" points="1360.072,757.168 1369.864,768.773 1474.597,642.683 1464.929,631.09 "/>
<polygon fill="#FFCA00" points="1474.758,619.271 1484.488,630.773 1631.904,453.293 1622.265,441.912 "/>
<polygon fill="#FFCA00" points="1632.512,430.457 1642.279,441.872 1661.417,418.831 1660.496,396.809 "/>
<polygon fill="#FFCA00" points="1293.337,837.408 1312.567,837.756 1359.987,780.665 1350.189,769.051 "/>
<polygon fill="#89CE00" points="1504.846,837.408 1521.123,837.275 1660.496,669.986 1660.496,650.086 "/>
<polygon fill="#89CE00" points="1653.201,579.29 1661.771,589.392 1556.585,716.028 1548.439,706.363 "/>
<polygon fill="#FF7FA3" points="1522.629,630.739 1529.693,642.829 1356.327,851.199 1348.184,841.534 "/>
<polygon fill="#FF5812" points="1568.245,838.016 1587.369,838.296 1661.453,748.146 1661.396,724.761 "/>
<polygon fill="#FF7FA3" points="1475.021,369.958 1484.836,381.546 1661.396,171.149 1660.496,148.994 "/>
<polygon fill="#0099FF" points="1516.407,166.854 1661.225,336.023 1660.496,312.249 1526.291,154.953 "/>
<polygon fill="#0099FF" points="1375.052,0 1506.851,155.573 1516.74,143.681 1395.005,-0.004 "/>
<polygon fill="#FF5812" points="726.861,0.18 746.803,0.13 259.496,579.75 259.495,556.805 "/>
<polygon fill="#FF5812" points="325.403,13.896 335.185,25.489 259.496,115.533 259.496,92.296 "/>
<polygon fill="#FF7FA3" points="421.724,-0.084 440.881,-0.084 386.067,64.629 376.797,53.32 "/>
<polygon fill="#FF7FA3" points="259.496,239.771 388.671,90.305 398.515,101.973 259.497,262.858 "/>
<polygon fill="#FF5812" points="1332.967,100.531 1342.498,111.797 727.347,837.756 709.861,837.716 "/>
<polygon fill="#FFCA00" points="1085.087,552.334 994.546,659.718 1004.059,671.019 1094.583,563.637 "/>
<polygon fill="#FFCA00" points="844.317,837.893 863.384,837.893 994.113,682.816 984.602,671.514 "/>
<polygon fill="#89CE00" points="1167.6,627.294 1101.047,705.619 1110.698,716.783 1177.135,638.564 "/>
<polygon fill="#89CE00" points="988.771,837.756 1007.727,838.016 1100.586,728.689 1091.061,717.373 "/>
<polygon fill="#FFCA00" points="1220.086,713.007 1229.593,724.32 1138.707,831.323 1129.321,819.825 "/>
<polygon fill="#FF5812" points="1349.975,658.359 1340.104,670.242 1386.511,725.378 1396.391,713.499 "/>
<polygon fill="#FF5812" points="1406.146,725.091 1396.273,736.979 1481.098,837.756 1500.669,837.378 "/>
<polygon fill="#FF5812" points="1598.551,724.637 1501.936,609.85 1511.806,597.966 1608.428,712.748 "/>
<polygon fill="#FF7FA3" points="1660.496,790.326 1643.282,770.135 1653.203,758.188 1660.494,766.85 "/>
<polygon fill="#FFCA00" points="1569.551,836.428 1545.46,807.807 1555.33,795.923 1579.373,824.485 "/>
<polygon fill="#89CE00" points="1438.14,732.833 1362.631,643.122 1372.502,631.237 1447.997,720.923 "/>
<polygon fill="#0099FF" points="417.998,470.868 427.519,482.162 259.496,679.313 259.496,656.813 "/>
<polygon fill="#89CE00" points="435.26,591.141 444.785,602.436 293.802,780.063 284.417,768.565 "/>
<polygon fill="#FFCA00" points="507.158,563.732 516.68,575.027 293.108,837.874 273.907,837.911 "/>
<polygon fill="#FF5812" points="545.015,717.875 554.539,729.176 463.619,837.521 444.479,837.521 "/>
<polygon fill="#FF5812" points="633.954,720.241 643.479,731.541 552.558,839.887 533.417,839.887 "/>
<polygon fill="#FF7FA3" points="259.495,672.082 313.108,734.816 323.094,723.071 259.496,648.618 "/>
<polygon fill="#FF7FA3" points="332.619,734.396 322.634,746.144 399.484,837.521 419.558,837.755 "/>
<polygon fill="#0099FF" points="259.495,762.715 322.052,837.114 342.467,837.81 259.496,739.124 "/>
<polygon fill="#89CE00" points="262.166,112.355 253.146,123.085 357.436,245.993 366.521,235.326 "/>
<polygon fill="#89CE00" points="376.325,246.908 367.469,257.308 449.578,353.779 458.158,343.57 "/>
<polygon fill="#FF7FA3" points="471.886,272.022 462.84,282.534 476.216,298.617 485.19,288.028 "/>
<polygon fill="#FF7FA3" points="290.246,78.43 453.06,270.773 462.113,260.264 299.366,67.939 "/>
<polygon fill="#FF5812" points="950.714,734.299 940.798,746.137 1018.071,838.016 1038.382,838.524 "/>
<polygon fill="#FF5812" points="883.104,653.942 873.136,665.706 931.251,734.785 941.268,723.068 "/>
<polygon fill="#0099FF" points="907.298,154.947 916.876,166.449 1012.215,53.399 1002.657,42.006 "/>
<polygon fill="#0099FF" points="810.204,106.552 819.784,118.055 919.319,0.026 900.146,0.026 "/>
<polygon fill="#0099FF" points="1038.382,-0.305 1012.615,30.213 1022.167,41.599 1057.226,0.026 "/>
<polygon fill="#0099FF" points="789.547,743.44 779.598,755.211 849.964,838.524 869.413,838.023 "/>
<polygon fill="#FFCA00" points="262.486,259.398 252.771,270.642 727.346,837.755 747.209,837.755 "/>
<polygon fill="#89CE00" points="1272.999,751.034 1263.219,762.808 1325.623,837.844 1345.371,838.015 "/>
<polygon fill="#89CE00" points="1436.53,-0.696 1415.554,24.248 1425.151,35.576 1455.66,-0.696 "/>
<polygon fill="#89CE00" points="1309.208,150.709 1318.795,162.024 1415.208,47.398 1405.611,36.072 "/>
<polygon fill="#FFCA00" points="1464.878,-0.001 1550.042,103.939 1559.385,92.407 1483.525,0.001 "/>
<polygon fill="#0099FF" points="1535.165,-0.011 1516.504,-0.023 1650.711,160.653 1660.547,149.971 "/>
<polygon fill="#FF7FA3" points="1344.892,192.83 1354.479,204.146 1520.899,5.342 1516.511,0 1506.398,0 "/>
<polygon fill="#89CE00" points="1480.784,101.241 1490.374,112.561 1585.414,-0.432 1566.675,-0.896 "/>
<polygon fill="#FFCA00" points="1489.311,262.008 1498.901,273.327 1620.714,125.47 1611.213,114.028 "/>
<polyline fill="#0099FF" points="420.351,1.549 418.856,-0.274 400.11,0.153 410.676,13.05 416.219,19.815 419.993,24.422 
	570.751,210.003 580.449,198.562 429.764,13.041 "/>
<polygon fill="#89CE00" points="457.967,151.033 448.27,162.422 519.028,247.968 528.64,236.508 "/>
<polygon fill="#89CE00" points="313.851,-0.084 438.403,150.933 448.288,139.326 333.112,0.025 "/>
<polygon fill="#0099FF" points="1418.521,552.707 1408.632,564.596 1579.643,767.034 1589.55,755.143 "/>
<polygon fill="#0099FF" points="1627.881,630.193 1617.99,642.101 1660.492,692.19 1660.496,668.62 "/>
<polygon fill="#0099FF" points="1499.135,477.844 1489.311,489.809 1609.604,632.174 1619.455,620.224 "/>
<polygon fill="#0099FF" points="1144.074,226.312 1133.914,237.825 1184.797,298.1 1194.724,286.304 "/>
<polygon fill="#0099FF" points="1037.338,99.887 1026.96,111.128 1125.276,227.592 1135.23,215.836 "/>
<polygon fill="#FFCA00" points="648.698,93.369 569.815,-0.003 589.177,-0.044 658.652,81.469 "/>
<polygon fill="#89CE00" points="345.867,577.771 335.863,589.485 410.205,677.697 420.3,666.067 "/>
<polygon fill="#89CE00" points="258.839,498.43 326.318,578.161 336.324,566.451 259.495,475.667 "/>
<polygon fill="#89CE00" points="429.729,677.253 419.734,689.004 540.146,831.879 550.095,820.039 "/>
</svg>
