<?xml version="1.0" encoding="utf-8"?>
<!-- Generator: Adobe Illustrator 16.0.0, SVG Export Plug-In . SVG Version: 6.00 Build 0)  -->
<!DOCTYPE svg PUBLIC "-//W3C//DTD SVG 1.1//EN" "http://www.w3.org/Graphics/SVG/1.1/DTD/svg11.dtd">
<svg version="1.1" id="Layer_1" xmlns="http://www.w3.org/2000/svg" xmlns:xlink="http://www.w3.org/1999/xlink" x="0px" y="0px"
	 width="1401px" height="839px" viewBox="259.5 -0.61 1401 839" enable-background="new 259.5 -0.61 1401 839" xml:space="preserve"
	>
<polygon fill="#FFF5DA" points="259.5,-0.61 259.5,838.39 1660.5,837.82 1660.5,-0.61 "/>
<polygon fill="#FF7FA3" points="635.479,0 159.11,564.818 149.683,553.325 616.349,0 "/>
<polygon fill="#0099FF" points="1303.595,837.817 1322.912,837.854 1888,165.738 1888,143.056 "/>
<polygon fill="#89CE00" points="1285.473,0.083 1887.999,737.914 1887.999,714.399 1304.997,0 "/>
<polygon fill="#FFCA00" points="50,124.02 50,146.62 618.848,837.131 638.064,837.131 "/>
<polygon fill="#FFCA00" points="1388.057,760.582 1378.403,771.526 1432.156,837.132 1450.9,837.132 "/>
<polygon fill="#FF5812" points="1489.072,640.225 1479.65,651.432 1632.396,837.854 1651.313,837.849 "/>
<polygon fill="#FF7FA3" points="1581.134,650.064 1571.84,661.447 1715.094,837.805 1733.65,837.854 "/>
<polygon fill="#FFCA00" points="1810.149,258.334 1888,354.174 1888,331.363 1819.578,247.118 "/>
<polygon fill="#FFCA00" points="1496.865,404.491 1487.426,415.684 1854.452,837.854 1873.476,836.932 "/>
<polygon fill="#89CE00" points="1529.291,689.215 1538.729,700.707 1887.999,287.93 1887.999,265.248 "/>
<polygon fill="#89CE00" points="1404.538,837.132 1423.668,837.132 1529.241,711.956 1519.814,700.45 "/>
<polygon fill="#FF7FA3" points="1554.354,742.808 1564.074,753.963 1493.564,837.731 1474.514,837.67 "/>
<polygon fill="#0099FF" points="1463.66,789.715 1454.168,800.97 1484.512,837.805 1503.173,837.817 "/>
<polygon fill="#89CE00" points="1533.576,838.296 1552.79,838.194 1635.515,739.836 1626.125,728.277 "/>
<polygon fill="#89CE00" points="1761.096,567.834 1635.553,717.069 1644.939,728.628 1770.646,579.16 "/>
<polygon fill="#FF5812" points="1763.927,710.817 1772.828,721.028 1888,584.085 1888,561.375 "/>
<polygon fill="#FF7FA3" points="1830.77,434.299 1840.298,445.705 1888,388.987 1888,366.268 "/>
<polygon fill="#FF7FA3" points="1794.862,476.984 1804.411,488.375 1830.371,457.508 1820.84,446.104 "/>
<polygon fill="#FF7FA3" points="1788.997,130.841 1798.556,142.187 1692.287,268.542 1682.756,257.135 "/>
<polygon fill="#FF5812" points="375.304,673.738 384.731,685.243 254.312,837.854 233.297,837.854 "/>
<polygon fill="#FF7FA3" points="173.34,606.615 182.767,618.12 108.164,705.417 98.275,693.366 "/>
<polygon fill="#FF5812" points="490.579,680.771 500.006,692.276 454.081,746.729 444.645,735.234 "/>
<polygon fill="#FF7FA3" points="547.111,748.368 556.439,759.99 490.862,837.744 471.732,837.744 "/>
<polygon fill="#FFCA00" points="510.087,814.949 500.409,826.426 509.181,837.132 528.299,837.132 "/>
<polygon fill="#FFCA00" points="222.85,466.537 213.267,477.896 490.98,814.921 500.652,803.455 "/>
<polygon fill="#0099FF" points="50,350.644 183.607,513.061 193.326,501.537 50,327.684 "/>
<polygon fill="#0099FF" points="202.518,513.345 192.989,524.656 450.117,837.982 469.061,837.793 "/>
<polygon fill="#89CE00" points="320.029,760.954 310.105,772.566 363.858,837.744 383.119,837.854 "/>
<polygon fill="#89CE00" points="50,457.184 300.191,760.546 310.203,748.976 50.13,431.978 "/>
<polygon fill="#89CE00" points="65.354,653.253 55.509,664.926 198.844,837.981 217.757,838.956 "/>
<polygon fill="#FFCA00" points="99.722,612.564 89.875,624.238 171.692,723.02 181.076,711.695 "/>
<polygon fill="#FFCA00" points="50,805.88 76.428,837.982 95.221,837.982 50,781.404 "/>
<polygon fill="#89CE00" points="254.23,452.021 244.431,463.652 548.605,837.817 567.849,837.982 "/>
<polygon fill="#89CE00" points="50,224.528 235.022,452.106 245.079,440.787 50,200.727 "/>
<polygon fill="#FF7FA3" points="407.709,713.288 343.333,789.617 352.769,801.111 417.136,724.793 "/>
<polygon fill="#FF7FA3" points="302.69,837.807 320.914,837.744 343.167,812.496 333.74,800.992 "/>
<polygon fill="#FF7FA3" points="463.335,647.332 417.295,701.921 426.78,713.357 472.763,658.838 "/>
<polygon fill="#0099FF" points="388.354,555.665 397.781,567.17 351.612,621.911 342.176,610.417 "/>
<polygon fill="#FF5812" points="86.021,826.473 95.221,837.982 229.989,675.424 220.583,664.019 "/>
<polygon fill="#FF5812" points="293.813,575.646 230.592,651.939 239.976,663.377 303.335,586.953 "/>
<polygon fill="#FF5812" points="433.25,407.374 303.337,564.15 312.858,575.467 442.677,418.879 "/>
<line fill="none" x1="98.275" y1="693.366" x2="173.34" y2="606.615"/>
<polygon fill="#0099FF" points="50,554.17 50,576.99 534.738,0.011 514.651,0 "/>
<polygon fill="#89CE00" points="176.198,356.023 185.589,367.58 209.016,339.646 199.633,328.079 "/>
<polygon fill="#89CE00" points="474.766,0 209.032,316.87 218.514,328.319 493.858,0 "/>
<polygon fill="#FF7FA3" points="519.917,0.004 558.329,45.734 567.945,34.015 538.229,0 "/>
<polygon fill="#FFCA00" points="387.268,-0.05 431.234,51.633 440.892,40.158 407.227,0.135 "/>
<polygon fill="#FFCA00" points="440.852,62.939 502.331,135.208 511.6,124.219 450.455,51.527 "/>
<polygon fill="#FF7FA3" points="208.085,-0.05 342.795,157.366 347.029,162.313 352.437,168.632 362.955,180.923 372.433,169.618 
	361.932,157.309 352.306,146.026 227.733,0.012 "/>
<polygon fill="#FF7FA3" points="50,48.909 50,59.503 115.685,136.259 125.603,125.184 55.178,42.635 "/>
<polygon fill="#0099FF" points="272.701,-0.403 330.716,67.016 339.937,56.081 290.896,-0.403 "/>
<polygon fill="#FF7FA3" points="382.342,181.401 372.913,192.63 413.574,240.427 422.795,229.494 "/>
<polygon fill="#89CE00" points="172.55,93.447 442.677,418.622 451.96,407.631 181.828,82.384 "/>
<polygon fill="#FF5812" points="298.337,105.414 165.027,263.508 174.786,275.342 308.302,117.261 "/>
<polygon fill="#FF5812" points="155.551,274.746 80.06,364.273 89.73,376.047 165.441,286.407 "/>
<polygon fill="#FF5812" points="50,399.92 50,423.088 80.16,387.378 70.539,375.563 "/>
<polygon fill="#FF5812" points="387.268,-0.05 307.94,94.025 317.984,105.798 407.227,0.135 "/>
<polygon fill="#FF5812" points="50,238.17 55.651,231.479 50,224.528 "/>
<polyline fill="#FF5812" points="55.787,207.979 231.161,0 251.5,-0.403 65.59,219.713 "/>
<polygon fill="#0099FF" points="144.124,37.627 153.931,49.394 69.936,148.843 60.168,136.998 "/>
<polygon fill="#FFCA00" points="70.428,-0.248 50,24.644 50,48.908 90.562,-0.248 "/>
<polygon fill="#FF5812" points="225.158,439.975 183.134,489.743 193.325,501.537 235.021,452.106 "/>
<polygon fill="#FF5812" points="50,647.408 50,671.456 183.607,513.06 173.718,500.894 "/>
<polygon fill="#FF5812" points="597.613,-1.112 234.973,428.352 245.08,440.788 616.384,0 "/>
<polygon fill="#FF7FA3" points="1888,611.822 1888,588.087 1394.388,-0.734 1374.446,-0.771 "/>
<polygon fill="#0099FF" points="1660.434,435.579 1888,714.399 1888,690.498 1670.747,424.14 "/>
<polygon fill="#89CE00" points="1472.046,-0.854 1487.993,-0.574 1387.388,121.449 1379.333,111.607 "/>
<polygon fill="#FF5812" points="1419.216,139.551 1428.398,150.771 1465.012,107.007 1455.599,95.805 "/>
<polygon fill="#FF5812" points="1465.502,83.896 1474.945,95.133 1554.534,0 1535.318,-0.05 "/>
<polyline fill="#0099FF" points="1678.723,0 1683.788,5.965 1494.737,231.94 1485.602,220.661 1671.446,0 "/>
<polyline fill="#FF7FA3" points="1755.689,0 1648.108,128.594 1638.975,117.315 1736.544,0 "/>
<polygon fill="#0099FF" points="1480.179,406.766 1489.362,417.985 1607.398,276.456 1597.979,265.247 "/>
<polygon fill="#0099FF" points="1607.723,253.749 1617.032,264.854 1831.436,8.442 1821.947,-2.688 "/>
<polygon fill="#FF5812" points="1653.135,221.679 1643.211,233.545 1778.177,395.051 1788.141,383.274 "/>
<polygon fill="#FF5812" points="1467.317,-0.734 1447.396,-0.771 1633.903,222.408 1643.823,210.534 "/>
<polygon fill="#FF5812" points="1787.708,406.457 1888,526.47 1888,502.801 1797.671,394.682 "/>
<polygon fill="#FFCA00" points="1600.666,84.04 1542.318,14.602 1552.24,2.741 1610.622,72.219 "/>
<polygon fill="#FF7FA3" points="1824.074,-0.248 1887.999,75.218 1887.999,51.412 1844.583,-0.248 "/>
<polygon fill="#89CE00" points="1698.899,-0.401 1678.389,-0.444 1749.566,84.04 1759.646,71.888 "/>
<polygon fill="#89CE00" points="1759.025,95.266 1887.999,248.352 1887.999,224.623 1769.039,83.064 "/>
<polygon fill="#FFCA00" points="1769.176,284.318 1609.552,94.701 1619.474,82.84 1779.128,272.486 "/>
<polyline fill="#FF7FA3" points="112.77,0.004 249.167,163.669 258.319,152.962 130.975,-0.003 "/>
<line fill="none" x1="1678" y1="0.043" x2="1672" y2="0.043"/>
</svg>
