<?xml version="1.0" encoding="utf-8"?>
<!-- Generator: Adobe Illustrator 16.0.0, SVG Export Plug-In . SVG Version: 6.00 Build 0)  -->
<!DOCTYPE svg PUBLIC "-//W3C//DTD SVG 1.1//EN" "http://www.w3.org/Graphics/SVG/1.1/DTD/svg11.dtd">
<svg version="1.1" id="Layer_1" xmlns="http://www.w3.org/2000/svg" xmlns:xlink="http://www.w3.org/1999/xlink" x="0px" y="0px"
	 width="1920px" height="837.779px" viewBox="0 0 1920 837.779" enable-background="new 0 0 1920 837.779" xml:space="preserve">
<polygon fill="#FFF5DA" points="0,-0.248 0,838.349 1920,837.779 1920,-0.248 "/>
<polygon fill="#FF7FA3" points="585.479,0 109.11,564.818 99.683,553.325 566.349,0 "/>
<polygon fill="#0099FF" points="1335.595,837.817 1354.912,837.854 1920,165.738 1920,143.056 "/>
<polygon fill="#89CE00" points="1317.473,0.083 1919.999,737.914 1919.999,714.399 1336.997,0 "/>
<polygon fill="#FFCA00" points="0,124.02 0,146.62 568.848,837.131 588.064,837.131 "/>
<polygon fill="#FFCA00" points="1420.057,760.582 1410.403,771.526 1464.156,837.132 1482.9,837.132 "/>
<polygon fill="#FF5812" points="1521.072,640.225 1511.65,651.432 1664.396,837.854 1683.313,837.849 "/>
<polygon fill="#FF7FA3" points="1613.134,650.064 1603.84,661.447 1747.094,837.805 1765.65,837.854 "/>
<polygon fill="#FFCA00" points="1842.149,258.334 1920,354.174 1920,331.363 1851.578,247.118 "/>
<polygon fill="#FFCA00" points="1528.865,404.491 1519.426,415.684 1886.452,837.854 1905.476,836.932 "/>
<polygon fill="#89CE00" points="1561.291,689.215 1570.729,700.707 1919.999,287.93 1919.999,265.248 "/>
<polygon fill="#89CE00" points="1436.538,837.132 1455.668,837.132 1561.241,711.956 1551.814,700.45 "/>
<polygon fill="#FF7FA3" points="1586.354,742.808 1596.074,753.963 1525.565,837.731 1506.514,837.67 "/>
<polygon fill="#0099FF" points="1495.66,789.715 1486.168,800.97 1516.512,837.805 1535.173,837.817 "/>
<polygon fill="#89CE00" points="1565.576,838.296 1584.79,838.194 1667.515,739.836 1658.125,728.277 "/>
<polygon fill="#89CE00" points="1793.096,567.834 1667.553,717.069 1676.94,728.628 1802.647,579.16 "/>
<polygon fill="#FF5812" points="1795.927,710.817 1804.828,721.028 1920,584.085 1920,561.375 "/>
<polygon fill="#FF7FA3" points="1862.77,434.299 1872.298,445.705 1920,388.987 1920,366.268 "/>
<polygon fill="#FF7FA3" points="1826.862,476.984 1836.411,488.375 1862.371,457.508 1852.84,446.104 "/>
<polygon fill="#FF7FA3" points="1820.997,130.841 1830.556,142.187 1724.287,268.542 1714.756,257.135 "/>
<polygon fill="#FF5812" points="325.304,673.738 334.731,685.243 204.312,837.854 183.297,837.854 "/>
<polygon fill="#FF7FA3" points="123.34,606.615 132.767,618.12 58.164,705.417 48.275,693.366 "/>
<polygon fill="#FF5812" points="440.579,680.771 450.006,692.276 404.081,746.729 394.645,735.234 "/>
<polygon fill="#FF7FA3" points="497.111,748.368 506.439,759.99 440.862,837.744 421.732,837.744 "/>
<polygon fill="#FFCA00" points="460.087,814.949 450.409,826.426 459.181,837.132 478.299,837.132 "/>
<polygon fill="#FFCA00" points="172.85,466.537 163.267,477.896 440.981,814.921 450.652,803.455 "/>
<polygon fill="#0099FF" points="0,350.644 133.607,513.061 143.326,501.537 0,327.684 "/>
<polygon fill="#0099FF" points="152.518,513.345 142.989,524.656 400.117,837.982 419.061,837.793 "/>
<polygon fill="#89CE00" points="270.029,760.954 260.105,772.566 313.858,837.744 333.119,837.853 "/>
<polygon fill="#89CE00" points="0,457.184 250.191,760.546 260.203,748.976 0.13,431.978 "/>
<polygon fill="#89CE00" points="15.354,653.253 5.509,664.926 148.844,837.981 167.757,838.956 "/>
<polygon fill="#FFCA00" points="49.722,612.564 39.875,624.238 121.692,723.02 131.076,711.695 "/>
<polygon fill="#FFCA00" points="0,805.88 26.428,837.982 45.221,837.982 0,781.404 "/>
<polygon fill="#89CE00" points="204.23,452.021 194.431,463.652 498.605,837.817 517.849,837.982 "/>
<polygon fill="#89CE00" points="0,224.528 185.022,452.106 195.079,440.787 0,200.727 "/>
<polygon fill="#FF7FA3" points="357.709,713.288 293.333,789.617 302.769,801.111 367.136,724.793 "/>
<polygon fill="#FF7FA3" points="252.69,837.807 270.914,837.744 293.167,812.496 283.74,800.992 "/>
<polygon fill="#FF7FA3" points="413.335,647.332 367.295,701.921 376.78,713.357 422.763,658.838 "/>
<polygon fill="#0099FF" points="338.354,555.665 347.781,567.17 301.612,621.911 292.176,610.417 "/>
<polygon fill="#FF5812" points="36.021,826.473 45.221,837.982 179.989,675.424 170.583,664.019 "/>
<polygon fill="#FF5812" points="243.813,575.646 180.592,651.939 189.976,663.377 253.335,586.953 "/>
<polygon fill="#FF5812" points="383.25,407.374 253.337,564.15 262.858,575.467 392.677,418.879 "/>
<line fill="#FF7FA3" x1="48.275" y1="693.366" x2="123.34" y2="606.615"/>
<polygon fill="#0099FF" points="0,554.17 0,576.99 484.738,0.011 464.651,0 "/>
<polygon fill="#89CE00" points="126.198,356.023 135.589,367.58 159.016,339.646 149.633,328.079 "/>
<polygon fill="#89CE00" points="424.766,0 159.032,316.87 168.514,328.319 443.858,0 "/>
<polygon fill="#FF7FA3" points="469.917,0.004 508.329,45.734 517.945,34.015 488.228,0 "/>
<polygon fill="#FFCA00" points="337.268,-0.05 381.234,51.633 390.892,40.158 357.227,0.135 "/>
<polygon fill="#FFCA00" points="390.852,62.939 452.331,135.208 461.6,124.219 400.455,51.527 "/>
<polygon fill="#FF7FA3" points="158.085,-0.05 292.795,157.366 297.029,162.313 302.437,168.632 312.955,180.923 322.433,169.618 
	311.932,157.309 302.306,146.026 177.733,0.012 "/>
<polygon fill="#FF7FA3" points="0,48.909 0,59.503 65.685,136.259 75.603,125.184 5.178,42.635 "/>
<polygon fill="#0099FF" points="222.701,-0.403 280.716,67.016 289.937,56.081 240.896,-0.403 "/>
<polygon fill="#FF7FA3" points="332.342,181.401 322.913,192.63 363.574,240.427 372.795,229.494 "/>
<polygon fill="#89CE00" points="122.55,93.447 392.677,418.622 401.96,407.631 131.828,82.384 "/>
<polygon fill="#FF5812" points="248.337,105.414 115.027,263.508 124.786,275.342 258.302,117.261 "/>
<polygon fill="#FF5812" points="105.551,274.746 30.06,364.273 39.73,376.047 115.441,286.407 "/>
<polygon fill="#FF5812" points="0,399.92 0,423.088 30.16,387.378 20.539,375.563 "/>
<polygon fill="#FF5812" points="337.268,-0.05 257.94,94.025 267.984,105.798 357.227,0.135 "/>
<polygon fill="#FF5812" points="0,238.17 5.651,231.479 0,224.528 "/>
<polyline fill="#FF5812" points="5.787,207.979 181.161,0 201.5,-0.403 15.59,219.713 "/>
<polygon fill="#0099FF" points="94.124,37.627 103.931,49.394 19.936,148.843 10.168,136.998 "/>
<polygon fill="#FFCA00" points="20.428,-0.248 0,24.644 0,48.908 40.562,-0.248 "/>
<polygon fill="#FF5812" points="175.158,439.975 133.134,489.743 143.325,501.537 185.021,452.106 "/>
<polygon fill="#FF5812" points="0,647.408 0,671.456 133.607,513.06 123.718,500.894 "/>
<polygon fill="#FF5812" points="547.613,-1.112 184.973,428.352 195.08,440.788 566.384,0 "/>
<polygon fill="#FF7FA3" points="1920,611.822 1920,588.087 1426.388,-0.734 1406.446,-0.771 "/>
<polygon fill="#0099FF" points="1692.434,435.579 1920,714.399 1920,690.498 1702.747,424.14 "/>
<polygon fill="#89CE00" points="1504.046,-0.854 1519.993,-0.574 1419.388,121.449 1411.333,111.607 "/>
<polygon fill="#FF5812" points="1451.216,139.551 1460.398,150.771 1497.012,107.007 1487.599,95.805 "/>
<polygon fill="#FF5812" points="1497.502,83.896 1506.945,95.133 1586.534,0 1567.318,-0.05 "/>
<polyline fill="#0099FF" points="1710.723,0 1715.788,5.965 1526.737,231.94 1517.602,220.661 1703.446,0 "/>
<polyline fill="#FF7FA3" points="1787.69,0 1680.108,128.594 1670.975,117.315 1768.544,0 "/>
<polygon fill="#0099FF" points="1512.179,406.766 1521.362,417.985 1639.398,276.456 1629.979,265.247 "/>
<polygon fill="#0099FF" points="1639.723,253.749 1649.032,264.854 1863.436,8.442 1853.947,-2.688 "/>
<polygon fill="#FF5812" points="1685.135,221.679 1675.211,233.545 1810.177,395.051 1820.141,383.274 "/>
<polygon fill="#FF5812" points="1499.317,-0.734 1479.397,-0.771 1665.903,222.408 1675.823,210.534 "/>
<polygon fill="#FF5812" points="1819.708,406.457 1920,526.47 1920,502.801 1829.671,394.682 "/>
<polygon fill="#FFCA00" points="1632.666,84.04 1574.318,14.602 1584.24,2.741 1642.622,72.219 "/>
<polygon fill="#FF7FA3" points="1856.074,-0.248 1919.999,75.218 1919.999,51.412 1876.583,-0.248 "/>
<polygon fill="#89CE00" points="1730.899,-0.401 1710.389,-0.444 1781.566,84.04 1791.647,71.888 "/>
<polygon fill="#89CE00" points="1791.025,95.266 1919.999,248.352 1919.999,224.623 1801.039,83.064 "/>
<polygon fill="#FFCA00" points="1801.176,284.318 1641.552,94.701 1651.474,82.84 1811.128,272.486 "/>
<polyline fill="#FF7FA3" points="62.77,0.004 199.167,163.669 208.319,152.962 80.975,-0.003 "/>
<line fill="#0099FF" x1="1710" y1="0.043" x2="1704" y2="0.043"/>
</svg>
