<svg id="Layer_1" data-name="Layer 1" xmlns="http://www.w3.org/2000/svg" viewBox="0 0 1920 1080"><defs><style>.cls-1{fill:#ffcb00;}.cls-2{fill:#8acf00;}.cls-3{fill:#009aff;}.cls-4{fill:#ff5812;}.cls-5{fill:#ff7fa4;}</style></defs><g id="Weaved_Lines" data-name="Weaved Lines"><polygon class="cls-1" points="2137.98 1086.23 1213.78 -3.03 1239.44 -3.15 2163.94 1086.23 2137.98 1086.23"/><polygon class="cls-2" points="2199.39 1028.07 1396.74 80.75 1408.6 64.31 2199.39 997.5 2199.39 1028.07"/><polygon class="cls-3" points="1705.87 379 1621.88 279.83 1634.67 264.43 1718.77 363.7 1705.87 379"/><polygon class="cls-1" points="2199.39 519.61 1805.69 57.09 1818.48 41.69 2199.27 488.97 2199.39 519.61"/><polygon class="cls-4" points="2199.33 387.9 1867.61 -1.3 1892.16 -1.31 2199.38 357.69 2199.33 387.9"/><polygon class="cls-4" points="1254.99 346.95 961.68 -3.03 987.34 -3.15 1267.92 331.6 1254.99 346.95"/><polygon class="cls-5" points="659.94 18.88 647.14 34.11 1387.46 909.62 1397.1 898.04 659.94 18.88"/><polygon class="cls-5" points="1412.4 909.86 1399.59 925.29 1535.06 1085.89 1560.9 1085.89 1412.4 909.86"/><polygon class="cls-5" points="1167.27 1086.23 910.13 780.72 923.06 765.45 1193.08 1086.23 1167.27 1086.23"/><polygon class="cls-3" points="1247.91 1077.41 1041.81 832.53 1054.71 817.23 1260.74 1061.98 1247.91 1077.41"/><polygon class="cls-1" points="1117.3 509.48 690.44 -3.03 716.1 -3.15 1131.31 495.42 1117.3 509.48"/><polygon class="cls-1" points="959.64 209.92 783.86 -1.14 809.6 -1.14 972.64 194.63 959.64 209.92"/><polygon class="cls-1" points="479.56 203.76 301.31 -4.84 326.62 -4.15 492.02 189.33 479.56 203.76"/><polygon class="cls-2" points="503.7 175.06 354.67 -1.35 379.43 -1.39 516.66 159.61 503.7 175.06"/><polygon class="cls-5" points="1334.86 254.05 1120.45 -2.6 1146.42 -2.9 1347.78 238.71 1334.86 254.05"/><polygon class="cls-2" points="1333.47 974.54 1028.74 614.09 1041.81 600.93 1346.51 958.87 1333.47 974.54"/><polygon class="cls-5" points="549.99 1094.93 -21.87 416.45 -8.81 401.33 575.83 1094.89 549.99 1094.93"/><polygon class="cls-5" points="1418 -1.28 1028.74 458.45 1040.11 472.28 1440.9 -1.33 1418 -1.28"/><polygon class="cls-2" points="1096.93 158.21 972.68 304.44 985 319.22 1109.27 172.92 1096.93 158.21"/><polygon class="cls-2" points="935.78 347.86 948.15 362.61 972.02 334.5 959.69 319.73 935.78 347.86"/><polygon class="cls-2" points="1223.78 8.92 1109.9 142.94 1122.24 157.65 1236.08 23.61 1223.78 8.92"/><polyline class="cls-5" points="925.77 279.07 901.78 307.31 889.42 292.56 913.45 264.29"/><polyline class="cls-5" points="926.43 249 1130.27 9.11 1143.11 23.19 938.76 263.78"/><polygon class="cls-3" points="1440.9 -1.35 1341.71 115.86 1353.69 131.72 1465.97 -1.3 1440.9 -1.35"/><polygon class="cls-5" points="791.29 -2.31 817.3 -2.3 729.52 101.86 716.38 86.71 791.29 -2.31"/><polygon class="cls-1" points="690.62 -2.92 716.38 -2.96 678.95 41.55 666.1 26.23 690.62 -2.92"/><polygon class="cls-3" points="175.66 489.27 188.48 504.52 488 156.48 475.29 141.43 175.66 489.27"/><polygon class="cls-3" points="599.79 -3.1 488.29 126.33 500.91 141.48 625.22 -2.96 599.79 -3.1"/><polygon class="cls-4" points="-292.42 862.54 -292.42 892.64 386.72 95.11 373.95 80.18 -292.42 862.54"/><polygon class="cls-4" points="445.73 -3.15 386.38 65.75 399.14 80.68 470.76 -2.55 445.73 -3.15"/><polygon class="cls-4" points="1581.44 298.83 1538.74 350.16 1551.23 364.9 1593.89 313.53 1581.44 298.83"/><polygon class="cls-4" points="1594.23 283.44 1606.68 298.13 1915.08 -75.06 1903.07 -89.83 1594.23 283.44"/><polygon class="cls-4" points="1533.3 734.27 1533.3 734.27 1405.24 888.25 1405.24 888.25 1241.55 1085.06 1266.92 1085.01 1412.4 909.86 1548.54 745.96 1751.06 499.1 1738.55 484.33 1533.3 734.27"/><polygon class="cls-4" points="1950.51 227.23 1751.29 468.83 1763.79 483.58 1963.01 241.9 1950.51 227.23"/><polygon class="cls-1" points="1472.67 981.3 1485.38 996.37 1621.3 832.73 1608.76 817.68 1472.67 981.3"/><polygon class="cls-1" points="1621.51 802.34 1634.14 817.27 1825.45 586.94 1812.94 572.17 1621.51 802.34"/><polygon class="cls-1" points="1826.24 557.3 1838.92 572.12 1996.37 382.56 1983.94 367.69 1826.24 557.3"/><polygon class="cls-1" points="1386.07 1085.44 1411.02 1085.89 1472.56 1011.8 1459.85 996.73 1386.07 1085.44"/><polygon class="cls-2" points="1660.56 1085.44 1681.68 1085.27 2175.92 492.04 2164.64 478.79 1660.56 1085.44"/><polygon class="cls-2" points="1853.09 750.46 1864.21 763.57 1727.71 927.91 1717.14 915.37 1853.09 750.46"/><polygon class="cls-5" points="1683.64 817.23 1692.81 832.92 1467.82 1103.34 1457.25 1090.79 1683.64 817.23"/><polygon class="cls-4" points="1742.84 1086.23 1767.66 1086.59 2004.64 798.22 1992 783.3 1742.84 1086.23"/><polygon class="cls-5" points="1621.86 478.79 1634.59 493.83 1904.09 172.69 1891.35 157.73 1621.86 478.79"/><polygon class="cls-5" points="2179.6 -185.67 1904.22 142.4 1916.95 157.36 2192.28 -170.74 2179.6 -185.67"/><polygon class="cls-3" points="1908.94 487.82 2075.24 682.09 2087.35 667.36 1921.38 472.84 1908.94 487.82"/><polygon class="cls-3" points="1675.56 215.2 1896.3 473.06 1908.78 458.06 1688.39 199.76 1675.56 215.2"/><polygon class="cls-3" points="1480.21 -45.96 1467.3 -30.62 1663.16 200.56 1676 185.13 1480.21 -45.96"/><polygon class="cls-4" points="650.9 -1.1 676.78 -1.17 -237.98 1086.89 -261.52 1085.58 650.9 -1.1"/><polygon class="cls-4" points="129.9 16.7 142.59 31.74 -292.41 549.25 -292.41 519.06 129.9 16.7"/><polygon class="cls-5" points="35.52 -1.36 59.17 -1.45 -143.47 242.54 -155.75 227.94 35.52 -1.36"/><polygon class="cls-1" points="28.68 625.7 41.36 640.85 -188.55 921.08 -201.07 906.19 28.68 625.7"/><polygon class="cls-5" points="254.9 -1.45 279.76 -1.45 208.63 82.54 196.6 67.86 254.9 -1.45"/><polygon class="cls-5" points="-293.03 730.27 -293.03 700.24 212.01 115.86 224.78 131 -293.03 730.27"/><polygon class="cls-4" points="1437.5 129.13 1449.87 143.75 651.53 1085.89 628.84 1085.84 1437.5 129.13"/><polygon class="cls-1" points="1115.8 715.47 998.3 854.84 1010.65 869.5 1128.13 730.14 1115.8 715.47"/><polygon class="cls-1" points="803.34 1086.07 828.08 1086.07 997.74 884.81 985.39 870.14 803.34 1086.07"/><polygon class="cls-2" points="1222.89 812.76 1136.52 914.4 1149.04 928.89 1235.26 827.38 1222.89 812.76"/><polygon class="cls-2" points="990.81 1085.89 1015.41 1086.23 1135.92 944.34 1123.56 929.66 990.81 1085.89"/><polygon class="cls-1" points="1291 923.99 1303.34 938.68 1185.39 1077.54 1173.21 1062.62 1291 923.99"/><polygon class="cls-4" points="1459.57 853.07 1446.76 868.49 1506.99 940.05 1519.81 924.63 1459.57 853.07"/><polygon class="cls-4" points="1532.47 939.67 1519.66 955.1 1629.74 1085.89 1655.14 1085.4 1532.47 939.67"/><polygon class="cls-4" points="1782.17 939.09 1656.78 790.12 1669.59 774.69 1794.99 923.66 1782.17 939.09"/><polygon class="cls-5" points="1918.13 1089.52 1840.22 998.13 1853.1 982.63 1930.46 1074.53 1918.13 1089.52"/><polygon class="cls-1" points="1744.53 1084.17 1713.27 1047.02 1726.08 1031.6 1757.28 1068.67 1744.53 1084.17"/><polygon class="cls-2" points="1573.99 949.72 1475.99 833.3 1488.81 817.87 1586.78 934.26 1573.99 949.72"/><polygon class="cls-3" points="250.07 609.75 262.42 624.41 -131.05 1086.09 -155.97 1086.09 250.07 609.75"/><polygon class="cls-2" points="272.47 765.84 284.83 780.5 88.89 1011.02 76.71 996.1 272.47 765.84"/><polygon class="cls-1" points="365.78 730.27 378.13 744.92 87.99 1086.04 63.07 1086.09 365.78 730.27"/><polygon class="cls-4" points="414.91 930.31 427.27 944.98 309.27 1085.58 284.43 1085.58 414.91 930.31"/><polygon class="cls-4" points="530.33 933.38 542.69 948.05 424.7 1088.65 399.86 1088.65 530.33 933.38"/><polygon class="cls-5" points="6.5 796.1 -6.42 811.46 113.94 952.3 126.9 937.06 6.5 796.1"/><polygon class="cls-5" points="139.26 951.75 126.3 967 226.04 1085.58 252.09 1085.89 139.26 951.75"/><polygon class="cls-3" points="-88.8 799.5 -101.52 815 125.55 1085.06 152.04 1085.96 -88.8 799.5"/><polygon class="cls-3" points="24.96 744.39 -70 631.45 -57.04 616.23 37.82 729.07 24.96 744.39"/><polygon class="cls-2" points="47.83 144.48 36.13 158.4 171.47 317.91 183.26 304.07 47.83 144.48"/><polygon class="cls-2" points="-63.02 41.56 23.39 143.4 35.1 129.47 -51.35 27.61 -63.02 41.56"/><polygon class="cls-2" points="195.98 319.1 184.49 332.6 291.05 457.79 302.19 444.54 195.98 319.1"/><polygon class="cls-5" points="320 351.69 308.26 365.33 325.62 386.2 337.27 372.46 320 351.69"/><polygon class="cls-5" points="84.27 100.45 295.57 350.07 307.32 336.43 96.11 86.83 84.27 100.45"/><polygon class="cls-4" points="941.42 951.62 928.55 966.99 1028.83 1086.23 1055.19 1086.89 941.42 951.62"/><polygon class="cls-4" points="853.67 847.34 840.74 862.61 916.16 952.26 929.16 937.05 853.67 847.34"/><polygon class="cls-3" points="885.07 199.75 897.5 214.68 1021.23 67.97 1008.83 53.18 885.07 199.75"/><polygon class="cls-3" points="759.07 136.94 771.5 151.87 900.67 -1.3 875.79 -1.3 759.07 136.94"/><polygon class="cls-3" points="1055.19 -1.73 1021.75 37.87 1034.15 52.65 1079.65 -1.3 1055.19 -1.73"/><polygon class="cls-3" points="732.26 963.49 719.34 978.76 810.66 1086.89 835.9 1086.24 732.26 963.49"/><polygon class="cls-1" points="48.24 335.31 35.64 349.9 651.53 1085.89 677.31 1085.89 48.24 335.31"/><polygon class="cls-1" points="-99 189.01 22.9 334.68 35.55 320.16 -86.74 174.25 -99 189.01"/><polygon class="cls-2" points="1359.67 973.34 1346.98 988.62 1427.97 1086 1453.6 1086.23 1359.67 973.34"/><polygon class="cls-2" points="1571.9 -2.24 1544.68 30.13 1557.13 44.84 1596.73 -2.24 1571.9 -2.24"/><polygon class="cls-2" points="1406.66 194.25 1419.11 208.94 1544.23 60.18 1531.77 45.48 1406.66 194.25"/><polygon class="cls-1" points="1617.59 -19.97 1605.06 -5.77 1719.21 133.56 1731.34 118.59 1617.59 -19.97"/><polygon class="cls-3" points="1874.69 207.72 1862.48 222.27 2120.8 531.54 2133.06 516.79 1874.69 207.72"/><polygon class="cls-3" points="1699.91 -1.35 1675.69 -1.37 1849.86 207.16 1862.63 193.29 1699.91 -1.35"/><polygon class="cls-5" points="1452.97 248.92 1465.41 263.6 1681.39 5.6 1669.2 -9.24 1452.97 248.92"/><polygon class="cls-2" points="1629.33 130.05 1641.78 144.74 1765.12 -1.9 1740.8 -2.5 1629.33 130.05"/><polygon class="cls-1" points="1640.4 338.69 1652.85 353.38 1810.93 161.5 1798.6 146.65 1640.4 338.69"/><polyline class="cls-3" points="253.12 0.67 251.18 -1.69 226.85 -1.14 240.56 15.6 247.76 24.38 252.66 30.36 448.31 271.2 460.89 256.35 265.33 15.59"/><polygon class="cls-2" points="301.94 194.67 289.35 209.45 381.18 320.47 393.66 305.6 301.94 194.67"/><polygon class="cls-2" points="114.91 -1.45 276.55 194.54 289.38 179.48 139.9 -1.3 114.91 -1.45"/><polygon class="cls-3" points="1548.53 715.96 1535.69 731.39 1757.63 994.11 1770.49 978.67 1548.53 715.96"/><polygon class="cls-3" points="1820.23 816.52 1807.4 831.97 2015.07 1076.72 2027.87 1061.16 1820.23 816.52"/><polygon class="cls-3" points="1653.15 618.8 1640.4 634.33 1796.51 819.09 1809.3 803.58 1653.15 618.8"/><polygon class="cls-3" points="1192.36 292.37 1179.17 307.31 1245.21 385.53 1258.09 370.22 1192.36 292.37"/><polygon class="cls-3" points="1053.84 128.29 1040.37 142.88 1167.96 294.03 1180.88 278.77 1053.84 128.29"/><polygon class="cls-1" points="549.47 119.84 441.6 -7.85 464.18 -10.83 562.38 104.39 549.47 119.84"/><polygon class="cls-2" points="156.46 748.49 143.47 763.69 239.95 878.17 253.05 863.08 156.46 748.49"/><polygon class="cls-2" points="-6.07 556.38 -19.04 571.61 131.09 748.99 144.07 733.79 -6.07 556.38"/><polygon class="cls-2" points="265.29 877.59 252.32 892.84 408.59 1078.26 421.5 1062.9 265.29 877.59"/><polygon class="cls-5" points="2069.88 441.17 2081 454.28 1911.96 660.1 1901.39 647.55 2069.88 441.17"/></g></svg>