<?xml version="1.0" encoding="utf-8"?>
<!-- Generator: Adobe Illustrator 16.0.0, SVG Export Plug-In . SVG Version: 6.00 Build 0)  -->
<!DOCTYPE svg PUBLIC "-//W3C//DTD SVG 1.1//EN" "http://www.w3.org/Graphics/SVG/1.1/DTD/svg11.dtd">
<svg version="1.1" id="Layer_1" xmlns="http://www.w3.org/2000/svg" xmlns:xlink="http://www.w3.org/1999/xlink" x="0px" y="0px"
	 width="459.375px" height="65.625px" viewBox="0 0 459.375 65.625" enable-background="new 0 0 459.375 65.625"
	 xml:space="preserve">
<polygon fill="#FFF5DA" points="448.137,52.121 9.863,52.121 37.522,12.431 415.716,12.431 "/>
<g>
	<path fill="#1F006D" d="M157.038,27.402V22.96h-0.744v-1.307h0.744v-1.295c0-0.773,0.178-1.327,0.533-1.661
		s0.941-0.501,1.758-0.501c0.09,0,0.194,0.009,0.313,0.026s0.274,0.05,0.466,0.097v1.33c-0.102-0.055-0.199-0.095-0.293-0.12
		s-0.191-0.038-0.293-0.038c-0.293,0-0.502,0.077-0.627,0.231s-0.188,0.421-0.188,0.8v1.131h1.066v1.307h-1.066v4.441H157.038z"/>
	<path fill="#1F006D" d="M166.539,24.941h-4.318c0.066,0.414,0.217,0.724,0.451,0.929s0.553,0.308,0.955,0.308
		c0.305,0,0.567-0.059,0.788-0.176s0.405-0.295,0.554-0.533l1.348,0.674c-0.313,0.504-0.691,0.878-1.137,1.122
		s-0.975,0.366-1.588,0.366c-0.93,0-1.666-0.277-2.209-0.832s-0.814-1.301-0.814-2.238c0-0.902,0.284-1.645,0.853-2.227
		s1.296-0.873,2.183-0.873c0.914,0,1.637,0.272,2.168,0.817s0.797,1.288,0.797,2.229c0,0.051-0.002,0.106-0.006,0.167
		S166.551,24.824,166.539,24.941z M164.887,23.933c-0.047-0.363-0.179-0.638-0.396-0.823s-0.513-0.278-0.888-0.278
		s-0.675,0.093-0.899,0.278s-0.368,0.46-0.431,0.823H164.887z"/>
	<path fill="#1F006D" d="M167.242,26.394l1.283-0.662c0.043,0.223,0.158,0.398,0.346,0.527s0.42,0.193,0.697,0.193
		c0.273,0,0.488-0.05,0.645-0.149s0.234-0.237,0.234-0.413c0-0.277-0.277-0.51-0.832-0.697c-0.172-0.059-0.309-0.107-0.41-0.146
		c-0.676-0.254-1.144-0.51-1.403-0.768s-0.39-0.576-0.39-0.955c0-0.563,0.221-1.018,0.662-1.365s1.023-0.521,1.746-0.521
		c0.516,0,0.962,0.104,1.339,0.311s0.651,0.5,0.823,0.879l-1.225,0.609c-0.066-0.215-0.182-0.378-0.346-0.489
		s-0.369-0.167-0.615-0.167s-0.445,0.051-0.598,0.152s-0.229,0.234-0.229,0.398c0,0.285,0.379,0.551,1.137,0.797
		c0.09,0.027,0.158,0.049,0.205,0.064c0.629,0.207,1.076,0.448,1.342,0.724s0.398,0.626,0.398,1.052c0,0.57-0.221,1.023-0.662,1.359
		s-1.037,0.504-1.787,0.504c-0.594,0-1.101-0.11-1.521-0.331S167.383,26.777,167.242,26.394z"/>
	<path fill="#1F006D" d="M173.65,27.402V22.96h-0.803v-1.307h0.803v-1.91h1.67v1.91h0.803v1.307h-0.803v4.441H173.65z"/>
	<path fill="#1F006D" d="M177.228,19.292c0-0.266,0.096-0.494,0.287-0.686s0.42-0.287,0.686-0.287c0.27,0,0.501,0.095,0.694,0.284
		s0.29,0.419,0.29,0.688s-0.097,0.5-0.29,0.691s-0.425,0.287-0.694,0.287c-0.266,0-0.494-0.098-0.686-0.293
		S177.228,19.554,177.228,19.292z M177.375,27.402v-5.748h1.664v5.748H177.375z"/>
	<path fill="#1F006D" d="M182.258,27.402l-2.338-5.748h1.928l0.973,2.988c0.078,0.242,0.141,0.467,0.188,0.674s0.08,0.41,0.1,0.609
		c0.047-0.301,0.094-0.557,0.141-0.768s0.102-0.402,0.164-0.574l0.979-2.93h1.898l-2.361,5.748H182.258z"/>
	<path fill="#1F006D" d="M192.482,27.402h-1.617l0.023-0.826c-0.227,0.363-0.499,0.63-0.817,0.8s-0.706,0.255-1.163,0.255
		c-0.762,0-1.376-0.283-1.843-0.85s-0.7-1.314-0.7-2.244c0-0.969,0.229-1.724,0.688-2.265s1.097-0.812,1.913-0.812
		c0.426,0,0.8,0.096,1.122,0.287s0.593,0.477,0.812,0.855v-0.949h1.582V27.402z M190.958,24.519c0-0.516-0.13-0.924-0.39-1.225
		s-0.61-0.451-1.052-0.451c-0.453,0-0.81,0.149-1.069,0.448s-0.39,0.708-0.39,1.228s0.128,0.924,0.384,1.213s0.61,0.434,1.063,0.434
		c0.461,0,0.818-0.145,1.072-0.434S190.958,25.039,190.958,24.519z"/>
	<path fill="#1F006D" d="M194.117,27.402V18.32h1.664v9.082H194.117z"/>
	<path fill="#1F006D" d="M197.679,27.402V22.96h-0.744v-1.307h0.744v-1.295c0-0.773,0.178-1.327,0.533-1.661
		s0.941-0.501,1.758-0.501c0.09,0,0.194,0.009,0.313,0.026s0.274,0.05,0.466,0.097v1.33c-0.102-0.055-0.199-0.095-0.293-0.12
		s-0.191-0.038-0.293-0.038c-0.293,0-0.502,0.077-0.627,0.231s-0.188,0.421-0.188,0.8v1.131h1.066v1.307h-1.066v4.441H197.679z"/>
	<path fill="#1F006D" d="M207.602,24.548c0,0.883-0.302,1.617-0.905,2.203s-1.368,0.879-2.294,0.879
		c-0.934,0-1.703-0.293-2.309-0.879s-0.908-1.32-0.908-2.203c0-0.879,0.305-1.613,0.914-2.203s1.377-0.885,2.303-0.885
		c0.93,0,1.695,0.291,2.297,0.873S207.602,23.654,207.602,24.548z M205.902,24.537c0-0.469-0.137-0.843-0.41-1.122
		s-0.641-0.419-1.102-0.419s-0.826,0.139-1.096,0.416s-0.404,0.652-0.404,1.125c0,0.469,0.135,0.844,0.404,1.125
		s0.635,0.422,1.096,0.422c0.457,0,0.823-0.141,1.099-0.422S205.902,25.005,205.902,24.537z"/>
	<path fill="#1F006D" d="M210.473,23.13c0.168-0.559,0.409-0.977,0.724-1.254s0.704-0.416,1.169-0.416
		c0.105,0,0.279,0.02,0.521,0.059c0.047,0.008,0.082,0.014,0.105,0.018l-0.252,1.793c-0.125-0.051-0.251-0.089-0.378-0.114
		s-0.261-0.038-0.401-0.038c-0.508,0-0.873,0.13-1.096,0.39s-0.334,0.694-0.334,1.304v2.531h-1.67v-5.748h1.646L210.473,23.13z"/>
	<path fill="#1F006D" d="M219.556,27.308c0,0.605-0.036,1.031-0.108,1.277s-0.196,0.459-0.372,0.639
		c-0.25,0.27-0.57,0.469-0.961,0.598s-0.865,0.193-1.424,0.193c-0.934,0-1.643-0.148-2.127-0.445s-0.748-0.748-0.791-1.354h1.834
		c0.027,0.223,0.129,0.387,0.305,0.492s0.436,0.158,0.779,0.158c0.453,0,0.78-0.117,0.981-0.352s0.302-0.625,0.302-1.172v-0.82
		c-0.223,0.355-0.491,0.619-0.806,0.791s-0.687,0.258-1.116,0.258c-0.789,0-1.42-0.276-1.893-0.829s-0.709-1.298-0.709-2.235
		c0-0.953,0.23-1.699,0.691-2.238s1.098-0.809,1.91-0.809c0.418,0,0.79,0.097,1.116,0.29s0.599,0.478,0.817,0.853v-0.949h1.57
		V27.308z M218.044,24.519c0-0.508-0.129-0.908-0.387-1.201s-0.609-0.439-1.055-0.439c-0.457,0-0.814,0.146-1.072,0.437
		s-0.387,0.692-0.387,1.204s0.127,0.91,0.381,1.195s0.609,0.428,1.066,0.428s0.813-0.143,1.069-0.428S218.044,25.031,218.044,24.519
		z"/>
	<path fill="#1F006D" d="M227.249,24.548c0,0.883-0.301,1.617-0.904,2.203s-1.369,0.879-2.295,0.879
		c-0.934,0-1.703-0.293-2.308-0.879s-0.908-1.32-0.908-2.203c0-0.879,0.305-1.613,0.914-2.203s1.376-0.885,2.302-0.885
		c0.93,0,1.695,0.291,2.297,0.873S227.249,23.654,227.249,24.548z M225.55,24.537c0-0.469-0.137-0.843-0.41-1.122
		s-0.641-0.419-1.102-0.419s-0.826,0.139-1.096,0.416s-0.404,0.652-0.404,1.125c0,0.469,0.134,0.844,0.404,1.125
		s0.635,0.422,1.096,0.422c0.457,0,0.824-0.141,1.1-0.422S225.55,25.005,225.55,24.537z"/>
	<path fill="#1F006D" d="M234.556,24.548c0,0.883-0.302,1.617-0.905,2.203s-1.368,0.879-2.294,0.879
		c-0.934,0-1.703-0.293-2.309-0.879s-0.908-1.32-0.908-2.203c0-0.879,0.305-1.613,0.914-2.203s1.377-0.885,2.303-0.885
		c0.93,0,1.695,0.291,2.297,0.873S234.556,23.654,234.556,24.548z M232.856,24.537c0-0.469-0.137-0.843-0.41-1.122
		s-0.641-0.419-1.102-0.419s-0.826,0.139-1.096,0.416s-0.404,0.652-0.404,1.125c0,0.469,0.135,0.844,0.404,1.125
		s0.635,0.422,1.096,0.422c0.457,0,0.823-0.141,1.099-0.422S232.856,25.005,232.856,24.537z"/>
	<path fill="#1F006D" d="M241.575,27.402h-1.617l0.023-0.826c-0.227,0.363-0.499,0.63-0.817,0.8s-0.706,0.255-1.163,0.255
		c-0.762,0-1.376-0.283-1.843-0.85s-0.7-1.314-0.7-2.244c0-0.973,0.229-1.73,0.688-2.273s1.097-0.814,1.913-0.814
		c0.418,0,0.785,0.096,1.102,0.287s0.613,0.494,0.891,0.908c-0.02-0.141-0.034-0.296-0.044-0.466s-0.015-0.364-0.015-0.583V18.32
		h1.582V27.402z M240.052,24.519c0-0.516-0.13-0.924-0.39-1.225s-0.61-0.451-1.052-0.451c-0.453,0-0.81,0.147-1.069,0.442
		s-0.39,0.702-0.39,1.222s0.128,0.926,0.384,1.219s0.61,0.439,1.063,0.439c0.461,0,0.818-0.145,1.072-0.434
		S240.052,25.039,240.052,24.519z"/>
	<path fill="#1F006D" d="M249.233,25.808c-0.215,0.328-0.463,0.569-0.744,0.724s-0.613,0.231-0.996,0.231
		c-0.617,0-1.087-0.168-1.409-0.504s-0.483-0.832-0.483-1.488c0-0.934,0.272-1.717,0.817-2.35s1.216-0.949,2.013-0.949
		c0.313,0,0.584,0.064,0.814,0.193s0.42,0.32,0.568,0.574l0.311-0.574h1.043l-0.861,3.504c-0.012,0.043-0.021,0.087-0.029,0.132
		s-0.012,0.081-0.012,0.108c0,0.137,0.047,0.239,0.141,0.308s0.232,0.103,0.416,0.103c0.152,0,0.312-0.039,0.478-0.117
		s0.321-0.188,0.466-0.328c0.336-0.313,0.591-0.678,0.765-1.096s0.261-0.877,0.261-1.377c0-0.938-0.362-1.708-1.087-2.312
		s-1.659-0.905-2.804-0.905c-0.551,0-1.063,0.066-1.538,0.199s-0.905,0.33-1.292,0.592c-0.664,0.445-1.175,1.002-1.532,1.67
		s-0.536,1.4-0.536,2.197c0,1.199,0.404,2.157,1.213,2.874s1.889,1.075,3.24,1.075c0.633,0,1.251-0.096,1.854-0.287
		s1.165-0.469,1.685-0.832l0.48,0.686c-0.598,0.449-1.231,0.787-1.901,1.014s-1.368,0.34-2.095,0.34
		c-0.75,0-1.439-0.095-2.068-0.284s-1.188-0.47-1.676-0.841c-0.605-0.473-1.059-1.018-1.359-1.635s-0.451-1.316-0.451-2.098
		c0-0.652,0.103-1.274,0.308-1.866s0.507-1.13,0.905-1.614c0.578-0.707,1.273-1.242,2.086-1.605s1.717-0.545,2.713-0.545
		c0.66,0,1.28,0.089,1.86,0.267s1.085,0.429,1.515,0.753c0.527,0.41,0.921,0.878,1.181,1.403s0.39,1.118,0.39,1.778
		c0,0.645-0.128,1.239-0.384,1.784s-0.624,1.011-1.104,1.397c-0.273,0.219-0.571,0.386-0.894,0.501s-0.657,0.173-1.005,0.173
		c-0.414,0-0.726-0.082-0.935-0.246S249.241,26.128,249.233,25.808z M249.526,23.3c-0.051-0.316-0.163-0.558-0.337-0.724
		s-0.403-0.249-0.688-0.249c-0.445,0-0.832,0.242-1.16,0.727s-0.492,1.066-0.492,1.746c0,0.359,0.079,0.633,0.237,0.82
		s0.388,0.281,0.688,0.281c0.324,0,0.62-0.123,0.888-0.369s0.45-0.566,0.548-0.961L249.526,23.3z"/>
	<path fill="#1F006D" d="M256.821,23.13c0.168-0.559,0.409-0.977,0.724-1.254s0.704-0.416,1.169-0.416
		c0.105,0,0.279,0.02,0.521,0.059c0.047,0.008,0.082,0.014,0.105,0.018l-0.252,1.793c-0.125-0.051-0.251-0.089-0.378-0.114
		s-0.261-0.038-0.401-0.038c-0.508,0-0.873,0.13-1.096,0.39s-0.334,0.694-0.334,1.304v2.531h-1.67v-5.748h1.646L256.821,23.13z"/>
	<path fill="#1F006D" d="M265.94,27.402h-1.617l0.023-0.826c-0.227,0.363-0.499,0.63-0.817,0.8s-0.706,0.255-1.163,0.255
		c-0.762,0-1.376-0.283-1.843-0.85s-0.7-1.314-0.7-2.244c0-0.969,0.229-1.724,0.688-2.265s1.097-0.812,1.913-0.812
		c0.426,0,0.8,0.096,1.122,0.287s0.593,0.477,0.812,0.855v-0.949h1.582V27.402z M264.417,24.519c0-0.516-0.13-0.924-0.39-1.225
		s-0.61-0.451-1.052-0.451c-0.453,0-0.81,0.149-1.069,0.448s-0.39,0.708-0.39,1.228s0.128,0.924,0.384,1.213s0.61,0.434,1.063,0.434
		c0.461,0,0.818-0.145,1.072-0.434S264.417,25.039,264.417,24.519z"/>
	<path fill="#1F006D" d="M267.429,19.292c0-0.266,0.096-0.494,0.287-0.686s0.42-0.287,0.686-0.287c0.27,0,0.501,0.095,0.694,0.284
		s0.29,0.419,0.29,0.688s-0.097,0.5-0.29,0.691s-0.425,0.287-0.694,0.287c-0.266,0-0.494-0.098-0.686-0.293
		S267.429,19.554,267.429,19.292z M267.575,27.402v-5.748h1.664v5.748H267.575z"/>
	<path fill="#1F006D" d="M270.37,26.394l1.283-0.662c0.043,0.223,0.158,0.398,0.346,0.527s0.42,0.193,0.697,0.193
		c0.273,0,0.488-0.05,0.645-0.149s0.234-0.237,0.234-0.413c0-0.277-0.277-0.51-0.832-0.697c-0.172-0.059-0.309-0.107-0.41-0.146
		c-0.676-0.254-1.144-0.51-1.403-0.768s-0.39-0.576-0.39-0.955c0-0.563,0.221-1.018,0.662-1.365s1.023-0.521,1.746-0.521
		c0.516,0,0.962,0.104,1.339,0.311s0.651,0.5,0.823,0.879l-1.225,0.609c-0.066-0.215-0.182-0.378-0.346-0.489
		s-0.369-0.167-0.615-0.167s-0.445,0.051-0.598,0.152s-0.229,0.234-0.229,0.398c0,0.285,0.379,0.551,1.137,0.797
		c0.09,0.027,0.158,0.049,0.205,0.064c0.629,0.207,1.076,0.448,1.342,0.724s0.398,0.626,0.398,1.052c0,0.57-0.221,1.023-0.662,1.359
		s-1.037,0.504-1.787,0.504c-0.594,0-1.101-0.11-1.521-0.331S270.511,26.777,270.37,26.394z"/>
	<path fill="#1F006D" d="M282.019,24.941H277.7c0.066,0.414,0.217,0.724,0.451,0.929s0.553,0.308,0.955,0.308
		c0.305,0,0.567-0.059,0.788-0.176s0.405-0.295,0.554-0.533l1.348,0.674c-0.313,0.504-0.691,0.878-1.137,1.122
		s-0.975,0.366-1.588,0.366c-0.93,0-1.666-0.277-2.209-0.832s-0.814-1.301-0.814-2.238c0-0.902,0.284-1.645,0.853-2.227
		s1.296-0.873,2.183-0.873c0.914,0,1.637,0.272,2.168,0.817s0.797,1.288,0.797,2.229c0,0.051-0.002,0.106-0.006,0.167
		S282.03,24.824,282.019,24.941z M280.366,23.933c-0.047-0.363-0.179-0.638-0.396-0.823s-0.513-0.278-0.888-0.278
		s-0.675,0.093-0.899,0.278s-0.368,0.46-0.431,0.823H280.366z"/>
	<path fill="#1F006D" d="M283.296,26.576c0-0.281,0.099-0.521,0.296-0.721s0.435-0.299,0.712-0.299s0.515,0.1,0.712,0.299
		s0.296,0.439,0.296,0.721c0,0.277-0.098,0.513-0.293,0.706s-0.434,0.29-0.715,0.29c-0.277,0-0.515-0.098-0.712-0.293
		S283.296,26.849,283.296,26.576z"/>
	<path fill="#1F006D" d="M286.407,26.394l1.283-0.662c0.043,0.223,0.158,0.398,0.346,0.527s0.42,0.193,0.697,0.193
		c0.273,0,0.488-0.05,0.645-0.149s0.234-0.237,0.234-0.413c0-0.277-0.277-0.51-0.832-0.697c-0.172-0.059-0.309-0.107-0.41-0.146
		c-0.676-0.254-1.144-0.51-1.403-0.768s-0.39-0.576-0.39-0.955c0-0.563,0.221-1.018,0.662-1.365s1.023-0.521,1.746-0.521
		c0.516,0,0.962,0.104,1.339,0.311s0.651,0.5,0.823,0.879l-1.225,0.609c-0.066-0.215-0.182-0.378-0.346-0.489
		s-0.369-0.167-0.615-0.167s-0.445,0.051-0.598,0.152s-0.229,0.234-0.229,0.398c0,0.285,0.379,0.551,1.137,0.797
		c0.09,0.027,0.158,0.049,0.205,0.064c0.629,0.207,1.076,0.448,1.342,0.724s0.398,0.626,0.398,1.052c0,0.57-0.221,1.023-0.662,1.359
		s-1.037,0.504-1.787,0.504c-0.594,0-1.101-0.11-1.521-0.331S286.548,26.777,286.407,26.394z"/>
	<path fill="#1F006D" d="M298.19,27.308c0,0.605-0.036,1.031-0.108,1.277s-0.196,0.459-0.372,0.639
		c-0.25,0.27-0.57,0.469-0.961,0.598s-0.865,0.193-1.424,0.193c-0.934,0-1.643-0.148-2.127-0.445s-0.748-0.748-0.791-1.354h1.834
		c0.027,0.223,0.129,0.387,0.305,0.492s0.436,0.158,0.779,0.158c0.453,0,0.78-0.117,0.981-0.352s0.302-0.625,0.302-1.172v-0.82
		c-0.223,0.355-0.491,0.619-0.806,0.791s-0.687,0.258-1.116,0.258c-0.789,0-1.42-0.276-1.893-0.829s-0.709-1.298-0.709-2.235
		c0-0.953,0.23-1.699,0.691-2.238s1.098-0.809,1.91-0.809c0.418,0,0.79,0.097,1.116,0.29s0.599,0.478,0.817,0.853v-0.949h1.57
		V27.308z M296.679,24.519c0-0.508-0.129-0.908-0.387-1.201s-0.609-0.439-1.055-0.439c-0.457,0-0.814,0.146-1.072,0.437
		s-0.387,0.692-0.387,1.204s0.127,0.91,0.381,1.195s0.609,0.428,1.066,0.428s0.813-0.143,1.069-0.428S296.679,25.031,296.679,24.519
		z"/>
</g>
<g>
	<path fill="#1F006D" d="M41.311,33.219c0.495,0,0.961,0.09,1.397,0.269c0.437,0.18,0.827,0.443,1.173,0.792
		c0.342,0.342,0.603,0.73,0.782,1.165c0.179,0.435,0.269,0.896,0.269,1.385c0,0.499-0.089,0.965-0.266,1.398
		c-0.178,0.433-0.436,0.813-0.774,1.143c-0.352,0.349-0.75,0.616-1.195,0.802c-0.445,0.186-0.906,0.278-1.385,0.278
		c-0.476,0-0.932-0.092-1.368-0.276c-0.437-0.184-0.827-0.448-1.173-0.794c-0.348-0.345-0.614-0.736-0.796-1.175
		c-0.182-0.438-0.273-0.896-0.273-1.376c0-0.472,0.093-0.929,0.278-1.37c0.186-0.441,0.453-0.838,0.802-1.189
		c0.342-0.349,0.725-0.611,1.15-0.787S40.816,33.219,41.311,33.219z M41.316,33.761c-0.422,0-0.817,0.075-1.184,0.227
		c-0.367,0.151-0.693,0.371-0.979,0.66c-0.292,0.299-0.518,0.637-0.675,1.013c-0.158,0.377-0.236,0.769-0.236,1.175
		c0,0.409,0.078,0.799,0.234,1.169s0.381,0.701,0.677,0.993c0.292,0.296,0.624,0.521,0.996,0.678
		c0.372,0.155,0.761,0.233,1.167,0.233s0.795-0.079,1.169-0.236s0.713-0.386,1.018-0.685c0.289-0.285,0.509-0.611,0.66-0.977
		s0.227-0.758,0.227-1.176c0-0.419-0.076-0.814-0.229-1.187s-0.372-0.702-0.658-0.991c-0.295-0.292-0.628-0.515-0.999-0.668
		C42.134,33.837,41.738,33.761,41.316,33.761z M43.042,35.989h-0.811c-0.033-0.241-0.131-0.427-0.294-0.558
		c-0.163-0.13-0.375-0.195-0.636-0.195c-0.323,0-0.576,0.141-0.759,0.423c-0.183,0.282-0.274,0.673-0.274,1.171
		c0,0.496,0.094,0.878,0.281,1.147c0.188,0.269,0.455,0.403,0.8,0.403c0.261,0,0.472-0.071,0.631-0.213
		c0.16-0.142,0.258-0.345,0.294-0.608h0.806c-0.023,0.439-0.196,0.793-0.521,1.061c-0.325,0.267-0.738,0.4-1.24,0.4
		c-0.596,0-1.069-0.194-1.418-0.582c-0.349-0.388-0.523-0.914-0.523-1.579c0-0.678,0.178-1.218,0.535-1.62s0.832-0.604,1.425-0.604
		c0.479,0,0.875,0.125,1.188,0.376C42.841,35.262,43.013,35.588,43.042,35.989z"/>
</g>
<g>
	<path fill="#1F006D" d="M55.293,34.992c-0.329-0.28-0.676-0.49-1.042-0.63s-0.751-0.21-1.155-0.21
		c-0.781,0-1.417,0.251-1.907,0.752s-0.735,1.15-0.735,1.948c0,0.771,0.238,1.408,0.715,1.909s1.078,0.752,1.804,0.752
		c0.423,0,0.826-0.075,1.208-0.225s0.75-0.376,1.101-0.679v1.313c-0.313,0.225-0.653,0.393-1.021,0.503s-0.767,0.166-1.196,0.166
		c-0.547,0-1.052-0.09-1.516-0.269s-0.872-0.442-1.223-0.791c-0.348-0.342-0.616-0.744-0.803-1.209
		c-0.187-0.463-0.281-0.957-0.281-1.481s0.094-1.017,0.281-1.478c0.187-0.46,0.458-0.864,0.813-1.213
		c0.355-0.352,0.762-0.617,1.221-0.799c0.459-0.18,0.956-0.271,1.489-0.271c0.42,0,0.82,0.062,1.201,0.183
		c0.381,0.123,0.75,0.308,1.108,0.555L55.293,34.992z"/>
	<path fill="#1F006D" d="M56.304,38.092c0-0.339,0.064-0.658,0.193-0.96c0.128-0.301,0.313-0.568,0.554-0.803
		c0.238-0.231,0.511-0.408,0.82-0.532s0.633-0.186,0.972-0.186c0.348,0,0.676,0.062,0.984,0.186s0.583,0.306,0.828,0.547
		c0.244,0.237,0.43,0.506,0.557,0.806s0.19,0.613,0.19,0.942c0,0.342-0.063,0.662-0.188,0.962s-0.309,0.564-0.549,0.796
		c-0.254,0.244-0.536,0.429-0.845,0.554c-0.309,0.126-0.635,0.188-0.977,0.188c-0.335,0-0.658-0.063-0.967-0.188
		c-0.309-0.125-0.584-0.307-0.825-0.544c-0.244-0.241-0.43-0.511-0.557-0.811S56.304,38.431,56.304,38.092z M60.284,38.102
		c0-0.43-0.138-0.794-0.415-1.091c-0.277-0.299-0.615-0.447-1.016-0.447c-0.397,0-0.735,0.148-1.013,0.447
		c-0.278,0.297-0.417,0.661-0.417,1.091s0.139,0.794,0.417,1.091c0.278,0.299,0.616,0.447,1.013,0.447s0.735-0.148,1.013-0.447
		C60.145,38.896,60.284,38.532,60.284,38.102z"/>
	<path fill="#1F006D" d="M62.525,42.58v-6.807h1.06v0.757c0.124-0.293,0.321-0.52,0.593-0.679s0.597-0.239,0.974-0.239
		c0.615,0,1.114,0.228,1.497,0.681c0.382,0.455,0.574,1.051,0.574,1.79c0,0.778-0.188,1.391-0.564,1.839
		c-0.376,0.447-0.891,0.671-1.545,0.671c-0.326,0-0.614-0.065-0.867-0.195s-0.473-0.329-0.662-0.596v2.778H62.525z M63.55,38.073
		c0,0.479,0.12,0.861,0.359,1.147s0.554,0.43,0.945,0.43c0.4,0,0.71-0.134,0.93-0.4s0.33-0.646,0.33-1.138
		c0-0.488-0.115-0.87-0.344-1.146c-0.229-0.274-0.544-0.412-0.945-0.412s-0.713,0.134-0.938,0.4S63.55,37.594,63.55,38.073z"/>
	<path fill="#1F006D" d="M68.931,42.58h-1.089l1.27-2.578l-1.699-4.229h1.172l0.85,2.397c0.049,0.146,0.092,0.296,0.129,0.446
		c0.038,0.152,0.067,0.306,0.09,0.462c0.042-0.163,0.143-0.422,0.303-0.776l0.024-0.059l1.143-2.471h1.147L68.931,42.58z"/>
	<path fill="#1F006D" d="M73.907,36.51c0.114-0.306,0.265-0.532,0.452-0.679s0.419-0.22,0.696-0.22c0.15,0,0.297,0.018,0.442,0.054
		s0.287,0.088,0.427,0.156l-0.381,0.898c-0.091-0.065-0.189-0.113-0.295-0.145c-0.106-0.03-0.224-0.046-0.354-0.046
		c-0.352,0-0.604,0.141-0.757,0.423c-0.153,0.281-0.229,0.754-0.229,1.418v2.031h-1.06v-4.639h1.06V36.51z"/>
	<path fill="#1F006D" d="M76.586,33.771c0-0.179,0.066-0.334,0.198-0.464s0.289-0.195,0.471-0.195c0.189,0,0.346,0.063,0.471,0.188
		c0.125,0.125,0.188,0.282,0.188,0.471s-0.063,0.348-0.19,0.477c-0.127,0.128-0.283,0.192-0.469,0.192
		c-0.182,0-0.339-0.065-0.471-0.198C76.652,34.111,76.586,33.954,76.586,33.771z M76.728,40.402v-4.629h1.06v4.629H76.728z"/>
	<path fill="#1F006D" d="M83.656,40.114c0,0.905-0.181,1.542-0.542,1.911c-0.361,0.37-0.97,0.555-1.826,0.555
		c-0.638,0-1.147-0.135-1.528-0.402c-0.381-0.27-0.575-0.626-0.581-1.072l1.138-0.005c0.016,0.198,0.109,0.35,0.278,0.454
		s0.407,0.156,0.713,0.156c0.453,0,0.778-0.1,0.977-0.298s0.299-0.53,0.303-0.996l0.01-0.615c-0.189,0.267-0.409,0.466-0.662,0.596
		s-0.541,0.195-0.867,0.195c-0.654,0-1.169-0.224-1.545-0.671c-0.376-0.448-0.564-1.061-0.564-1.839c0-0.739,0.192-1.335,0.576-1.79
		c0.384-0.453,0.885-0.681,1.504-0.681c0.377,0,0.701,0.079,0.969,0.237c0.269,0.157,0.465,0.385,0.588,0.681v-0.757h1.06V40.114z
		 M82.626,38.073c0-0.479-0.111-0.852-0.334-1.118s-0.535-0.4-0.935-0.4s-0.715,0.138-0.945,0.412
		c-0.229,0.275-0.344,0.657-0.344,1.146c0,0.491,0.111,0.871,0.332,1.138s0.534,0.4,0.938,0.4c0.381,0,0.691-0.145,0.93-0.435
		S82.626,38.544,82.626,38.073z"/>
	<path fill="#1F006D" d="M85.121,40.402v-7.568h0.996v3.696c0.211-0.319,0.46-0.552,0.747-0.698s0.635-0.22,1.045-0.22
		c0.345,0,0.639,0.055,0.881,0.163c0.243,0.109,0.432,0.271,0.569,0.486c0.082,0.127,0.14,0.275,0.176,0.444
		s0.054,0.466,0.054,0.889v2.808H88.52v-2.378c0-0.608-0.074-1.013-0.222-1.214c-0.148-0.199-0.411-0.3-0.789-0.3
		c-0.248,0-0.468,0.046-0.662,0.137s-0.346,0.22-0.457,0.386c-0.078,0.11-0.133,0.253-0.164,0.428
		c-0.031,0.174-0.046,0.451-0.046,0.832v2.109H85.121z"/>
	<path fill="#1F006D" d="M91.249,40.402v-3.701h-0.811v-0.928h0.811V34.02h1.06v1.753h0.811v0.928h-0.811v3.701H91.249z"/>
	<path fill="#1F006D" d="M97.035,37.614h2.612v0.977h-2.612V37.614z"/>
	<path fill="#1F006D" d="M103.793,38.971l0.928-0.43c0.088,0.319,0.249,0.563,0.483,0.729c0.234,0.168,0.534,0.252,0.898,0.252
		c0.345,0,0.619-0.096,0.823-0.288s0.305-0.449,0.305-0.771c0-0.42-0.348-0.794-1.045-1.123c-0.098-0.049-0.172-0.085-0.225-0.107
		c-0.788-0.384-1.313-0.731-1.575-1.042c-0.262-0.312-0.393-0.691-0.393-1.141c0-0.583,0.198-1.055,0.593-1.416
		s0.914-0.542,1.555-0.542c0.527,0,0.968,0.102,1.323,0.306c0.355,0.203,0.601,0.495,0.737,0.876l-0.908,0.469
		c-0.143-0.225-0.3-0.389-0.471-0.493s-0.367-0.156-0.588-0.156c-0.313,0-0.561,0.081-0.745,0.244s-0.276,0.381-0.276,0.654
		c0,0.43,0.404,0.83,1.211,1.201c0.062,0.029,0.111,0.052,0.146,0.068c0.707,0.325,1.191,0.644,1.455,0.955
		c0.264,0.311,0.396,0.698,0.396,1.164c0,0.677-0.213,1.215-0.64,1.613c-0.426,0.399-1.002,0.599-1.729,0.599
		c-0.609,0-1.107-0.14-1.497-0.42S103.914,39.492,103.793,38.971z"/>
	<path fill="#1F006D" d="M109.511,33.771c0-0.179,0.066-0.334,0.198-0.464s0.289-0.195,0.471-0.195c0.189,0,0.346,0.063,0.471,0.188
		c0.125,0.125,0.188,0.282,0.188,0.471s-0.063,0.348-0.19,0.477c-0.127,0.128-0.283,0.192-0.469,0.192
		c-0.182,0-0.339-0.065-0.471-0.198C109.577,34.111,109.511,33.954,109.511,33.771z M109.652,40.402v-4.629h1.06v4.629H109.652z"/>
	<path fill="#1F006D" d="M112.226,40.402v-4.629h0.996v0.757c0.211-0.319,0.46-0.552,0.747-0.698s0.635-0.22,1.045-0.22
		c0.345,0,0.639,0.055,0.881,0.163c0.243,0.109,0.432,0.271,0.569,0.486c0.082,0.127,0.14,0.275,0.176,0.444
		s0.054,0.466,0.054,0.889v2.808h-1.069v-2.378c0-0.608-0.074-1.013-0.222-1.214c-0.148-0.199-0.411-0.3-0.789-0.3
		c-0.248,0-0.468,0.046-0.662,0.137s-0.346,0.22-0.457,0.386c-0.078,0.11-0.133,0.253-0.164,0.428
		c-0.031,0.174-0.046,0.451-0.046,0.832v2.109H112.226z"/>
	<path fill="#1F006D" d="M122.46,40.114c0,0.905-0.181,1.542-0.542,1.911c-0.361,0.37-0.97,0.555-1.826,0.555
		c-0.638,0-1.147-0.135-1.528-0.402c-0.381-0.27-0.575-0.626-0.581-1.072l1.138-0.005c0.016,0.198,0.109,0.35,0.278,0.454
		s0.407,0.156,0.713,0.156c0.453,0,0.778-0.1,0.977-0.298s0.299-0.53,0.303-0.996l0.01-0.615c-0.189,0.267-0.409,0.466-0.662,0.596
		s-0.541,0.195-0.867,0.195c-0.654,0-1.169-0.224-1.545-0.671c-0.376-0.448-0.564-1.061-0.564-1.839c0-0.739,0.192-1.335,0.576-1.79
		c0.384-0.453,0.885-0.681,1.504-0.681c0.377,0,0.701,0.079,0.969,0.237c0.269,0.157,0.465,0.385,0.588,0.681v-0.757h1.06V40.114z
		 M121.43,38.073c0-0.479-0.111-0.852-0.334-1.118s-0.535-0.4-0.935-0.4s-0.715,0.138-0.945,0.412
		c-0.229,0.275-0.344,0.657-0.344,1.146c0,0.491,0.111,0.871,0.332,1.138s0.534,0.4,0.938,0.4c0.381,0,0.691-0.145,0.93-0.435
		S121.43,38.544,121.43,38.073z"/>
	<path fill="#1F006D" d="M128.28,40.402h-1.06v-0.601c-0.189,0.267-0.409,0.466-0.662,0.596s-0.541,0.195-0.867,0.195
		c-0.654,0-1.169-0.224-1.545-0.671c-0.376-0.448-0.564-1.061-0.564-1.839c0-0.739,0.192-1.335,0.576-1.79
		c0.384-0.453,0.885-0.681,1.504-0.681c0.377,0,0.701,0.079,0.969,0.237c0.269,0.157,0.465,0.385,0.588,0.681v-0.757h1.06V40.402z
		 M127.25,38.073c0-0.479-0.111-0.852-0.334-1.118s-0.535-0.4-0.935-0.4s-0.715,0.138-0.945,0.412
		c-0.229,0.275-0.344,0.657-0.344,1.146c0,0.491,0.111,0.871,0.332,1.138s0.534,0.4,0.938,0.4c0.381,0,0.691-0.145,0.93-0.435
		S127.25,38.544,127.25,38.073z"/>
	<path fill="#1F006D" d="M129.745,42.58v-6.807h1.06v0.757c0.124-0.293,0.321-0.52,0.593-0.679s0.597-0.239,0.974-0.239
		c0.615,0,1.114,0.228,1.497,0.681c0.382,0.455,0.574,1.051,0.574,1.79c0,0.778-0.188,1.391-0.564,1.839
		c-0.376,0.447-0.891,0.671-1.545,0.671c-0.326,0-0.614-0.065-0.867-0.195s-0.473-0.329-0.662-0.596v2.778H129.745z M130.771,38.073
		c0,0.479,0.12,0.861,0.359,1.147s0.554,0.43,0.945,0.43c0.4,0,0.71-0.134,0.93-0.4s0.33-0.646,0.33-1.138
		c0-0.488-0.115-0.87-0.344-1.146c-0.229-0.274-0.544-0.412-0.945-0.412s-0.713,0.134-0.938,0.4S130.771,37.594,130.771,38.073z"/>
	<path fill="#1F006D" d="M135.224,38.092c0-0.339,0.064-0.658,0.193-0.96c0.128-0.301,0.313-0.568,0.554-0.803
		c0.238-0.231,0.511-0.408,0.82-0.532s0.633-0.186,0.972-0.186c0.348,0,0.676,0.062,0.984,0.186s0.583,0.306,0.828,0.547
		c0.244,0.237,0.43,0.506,0.557,0.806s0.19,0.613,0.19,0.942c0,0.342-0.063,0.662-0.188,0.962s-0.309,0.564-0.549,0.796
		c-0.254,0.244-0.536,0.429-0.845,0.554c-0.309,0.126-0.635,0.188-0.977,0.188c-0.335,0-0.658-0.063-0.967-0.188
		c-0.309-0.125-0.584-0.307-0.825-0.544c-0.244-0.241-0.43-0.511-0.557-0.811S135.224,38.431,135.224,38.092z M139.203,38.102
		c0-0.43-0.138-0.794-0.415-1.091c-0.277-0.299-0.615-0.447-1.016-0.447c-0.397,0-0.735,0.148-1.013,0.447
		c-0.278,0.297-0.417,0.661-0.417,1.091s0.139,0.794,0.417,1.091c0.278,0.299,0.616,0.447,1.013,0.447s0.735-0.148,1.013-0.447
		C139.064,38.896,139.203,38.532,139.203,38.102z"/>
	<path fill="#1F006D" d="M142.504,36.51c0.114-0.306,0.265-0.532,0.452-0.679s0.419-0.22,0.696-0.22c0.15,0,0.297,0.018,0.442,0.054
		s0.287,0.088,0.427,0.156l-0.381,0.898c-0.091-0.065-0.189-0.113-0.295-0.145c-0.106-0.03-0.224-0.046-0.354-0.046
		c-0.352,0-0.604,0.141-0.757,0.423c-0.153,0.281-0.229,0.754-0.229,1.418v2.031h-1.06v-4.639h1.06V36.51z"/>
	<path fill="#1F006D" d="M149.504,38.244h-3.701c0.026,0.433,0.155,0.771,0.386,1.014c0.231,0.242,0.539,0.363,0.923,0.363
		c0.342,0,0.626-0.071,0.854-0.215s0.426-0.374,0.596-0.693l0.894,0.498c-0.26,0.466-0.583,0.813-0.967,1.04
		s-0.835,0.342-1.353,0.342c-0.742,0-1.333-0.227-1.772-0.679s-0.659-1.057-0.659-1.812c0-0.726,0.227-1.322,0.681-1.79
		c0.454-0.467,1.038-0.7,1.75-0.7c0.746,0,1.327,0.213,1.743,0.64s0.625,1.023,0.625,1.792V38.244z M148.405,37.531
		c-0.042-0.332-0.169-0.585-0.381-0.76c-0.211-0.174-0.501-0.261-0.869-0.261c-0.348,0-0.628,0.085-0.84,0.254
		s-0.36,0.425-0.444,0.767H148.405z"/>
	<path fill="#1F006D" d="M159.45,34.992c-0.329-0.28-0.676-0.49-1.042-0.63s-0.751-0.21-1.155-0.21
		c-0.781,0-1.417,0.251-1.907,0.752s-0.735,1.15-0.735,1.948c0,0.771,0.238,1.408,0.715,1.909s1.078,0.752,1.804,0.752
		c0.423,0,0.826-0.075,1.208-0.225s0.75-0.376,1.101-0.679v1.313c-0.313,0.225-0.653,0.393-1.021,0.503s-0.767,0.166-1.196,0.166
		c-0.547,0-1.052-0.09-1.516-0.269s-0.872-0.442-1.223-0.791c-0.348-0.342-0.616-0.744-0.803-1.209
		c-0.187-0.463-0.281-0.957-0.281-1.481s0.094-1.017,0.281-1.478c0.187-0.46,0.458-0.864,0.813-1.213
		c0.355-0.352,0.762-0.617,1.221-0.799c0.459-0.18,0.956-0.271,1.489-0.271c0.42,0,0.82,0.062,1.201,0.183
		c0.381,0.123,0.75,0.308,1.108,0.555L159.45,34.992z"/>
	<path fill="#1F006D" d="M165.261,38.244h-3.701c0.026,0.433,0.155,0.771,0.386,1.014c0.231,0.242,0.539,0.363,0.923,0.363
		c0.342,0,0.626-0.071,0.854-0.215s0.426-0.374,0.596-0.693l0.894,0.498c-0.26,0.466-0.583,0.813-0.967,1.04
		s-0.835,0.342-1.353,0.342c-0.742,0-1.333-0.227-1.772-0.679s-0.659-1.057-0.659-1.812c0-0.726,0.227-1.322,0.681-1.79
		c0.454-0.467,1.038-0.7,1.75-0.7c0.746,0,1.327,0.213,1.743,0.64s0.625,1.023,0.625,1.792V38.244z M164.162,37.531
		c-0.042-0.332-0.169-0.585-0.381-0.76c-0.211-0.174-0.501-0.261-0.869-0.261c-0.348,0-0.628,0.085-0.84,0.254
		s-0.36,0.425-0.444,0.767H164.162z"/>
	<path fill="#1F006D" d="M166.364,40.402v-4.629h0.996v0.757c0.211-0.319,0.46-0.552,0.747-0.698s0.635-0.22,1.045-0.22
		c0.345,0,0.639,0.055,0.881,0.163c0.243,0.109,0.432,0.271,0.569,0.486c0.082,0.127,0.14,0.275,0.176,0.444
		s0.054,0.466,0.054,0.889v2.808h-1.069v-2.378c0-0.608-0.074-1.013-0.222-1.214c-0.148-0.199-0.411-0.3-0.789-0.3
		c-0.248,0-0.468,0.046-0.662,0.137s-0.346,0.22-0.457,0.386c-0.078,0.11-0.133,0.253-0.164,0.428
		c-0.031,0.174-0.046,0.451-0.046,0.832v2.109H166.364z"/>
	<path fill="#1F006D" d="M172.492,40.402v-3.701h-0.811v-0.928h0.811V34.02h1.06v1.753h0.811v0.928h-0.811v3.701H172.492z"/>
	<path fill="#1F006D" d="M176.335,36.51c0.114-0.306,0.265-0.532,0.452-0.679s0.419-0.22,0.696-0.22c0.15,0,0.297,0.018,0.442,0.054
		s0.287,0.088,0.427,0.156l-0.381,0.898c-0.091-0.065-0.189-0.113-0.295-0.145c-0.106-0.03-0.224-0.046-0.354-0.046
		c-0.352,0-0.604,0.141-0.757,0.423c-0.153,0.281-0.229,0.754-0.229,1.418v2.031h-1.06v-4.639h1.06V36.51z"/>
	<path fill="#1F006D" d="M183.355,38.244h-3.701c0.026,0.433,0.155,0.771,0.386,1.014c0.231,0.242,0.539,0.363,0.923,0.363
		c0.342,0,0.626-0.071,0.854-0.215s0.426-0.374,0.596-0.693l0.894,0.498c-0.26,0.466-0.583,0.813-0.967,1.04
		s-0.835,0.342-1.353,0.342c-0.742,0-1.333-0.227-1.772-0.679s-0.659-1.057-0.659-1.812c0-0.726,0.227-1.322,0.681-1.79
		c0.454-0.467,1.038-0.7,1.75-0.7c0.746,0,1.327,0.213,1.743,0.64s0.625,1.023,0.625,1.792V38.244z M182.256,37.531
		c-0.042-0.332-0.169-0.585-0.381-0.76c-0.211-0.174-0.501-0.261-0.869-0.261c-0.348,0-0.628,0.085-0.84,0.254
		s-0.36,0.425-0.444,0.767H182.256z"/>
	<path fill="#1F006D" d="M187.564,40.402v-7.148h3.989v0.986h-2.827v1.782h2.827v1.021h-2.827v3.359H187.564z"/>
	<path fill="#1F006D" d="M192.293,38.092c0-0.339,0.064-0.658,0.193-0.96c0.128-0.301,0.313-0.568,0.554-0.803
		c0.238-0.231,0.511-0.408,0.82-0.532s0.633-0.186,0.972-0.186c0.348,0,0.676,0.062,0.984,0.186s0.583,0.306,0.828,0.547
		c0.244,0.237,0.43,0.506,0.557,0.806s0.19,0.613,0.19,0.942c0,0.342-0.063,0.662-0.188,0.962s-0.309,0.564-0.549,0.796
		c-0.254,0.244-0.536,0.429-0.845,0.554c-0.309,0.126-0.635,0.188-0.977,0.188c-0.335,0-0.658-0.063-0.967-0.188
		c-0.309-0.125-0.584-0.307-0.825-0.544c-0.244-0.241-0.43-0.511-0.557-0.811S192.293,38.431,192.293,38.092z M196.273,38.102
		c0-0.43-0.138-0.794-0.415-1.091c-0.277-0.299-0.615-0.447-1.016-0.447c-0.397,0-0.735,0.148-1.013,0.447
		c-0.278,0.297-0.417,0.661-0.417,1.091s0.139,0.794,0.417,1.091c0.278,0.299,0.616,0.447,1.013,0.447s0.735-0.148,1.013-0.447
		C196.134,38.896,196.273,38.532,196.273,38.102z"/>
	<path fill="#1F006D" d="M199.574,36.51c0.114-0.306,0.265-0.532,0.452-0.679s0.419-0.22,0.696-0.22c0.15,0,0.297,0.018,0.442,0.054
		s0.287,0.088,0.427,0.156l-0.381,0.898c-0.091-0.065-0.189-0.113-0.295-0.145c-0.106-0.03-0.224-0.046-0.354-0.046
		c-0.352,0-0.604,0.141-0.757,0.423c-0.153,0.281-0.229,0.754-0.229,1.418v2.031h-1.06v-4.639h1.06V36.51z"/>
	<path fill="#1F006D" d="M204.891,38.971l0.928-0.43c0.088,0.319,0.249,0.563,0.483,0.729c0.234,0.168,0.534,0.252,0.898,0.252
		c0.345,0,0.619-0.096,0.823-0.288s0.305-0.449,0.305-0.771c0-0.42-0.348-0.794-1.045-1.123c-0.098-0.049-0.172-0.085-0.225-0.107
		c-0.788-0.384-1.313-0.731-1.575-1.042c-0.262-0.312-0.393-0.691-0.393-1.141c0-0.583,0.198-1.055,0.593-1.416
		s0.914-0.542,1.555-0.542c0.527,0,0.968,0.102,1.323,0.306c0.355,0.203,0.601,0.495,0.737,0.876l-0.908,0.469
		c-0.143-0.225-0.3-0.389-0.471-0.493s-0.367-0.156-0.588-0.156c-0.313,0-0.561,0.081-0.745,0.244s-0.276,0.381-0.276,0.654
		c0,0.43,0.404,0.83,1.211,1.201c0.062,0.029,0.111,0.052,0.146,0.068c0.707,0.325,1.191,0.644,1.455,0.955
		c0.264,0.311,0.396,0.698,0.396,1.164c0,0.677-0.213,1.215-0.64,1.613c-0.426,0.399-1.002,0.599-1.729,0.599
		c-0.609,0-1.107-0.14-1.497-0.42S205.012,39.492,204.891,38.971z"/>
	<path fill="#1F006D" d="M210.36,38.092c0-0.339,0.064-0.658,0.193-0.96c0.128-0.301,0.313-0.568,0.554-0.803
		c0.238-0.231,0.511-0.408,0.82-0.532s0.633-0.186,0.972-0.186c0.348,0,0.676,0.062,0.984,0.186s0.583,0.306,0.828,0.547
		c0.244,0.237,0.43,0.506,0.557,0.806s0.19,0.613,0.19,0.942c0,0.342-0.063,0.662-0.188,0.962s-0.309,0.564-0.549,0.796
		c-0.254,0.244-0.536,0.429-0.845,0.554c-0.309,0.126-0.635,0.188-0.977,0.188c-0.335,0-0.658-0.063-0.967-0.188
		c-0.309-0.125-0.584-0.307-0.825-0.544c-0.244-0.241-0.43-0.511-0.557-0.811S210.36,38.431,210.36,38.092z M214.339,38.102
		c0-0.43-0.138-0.794-0.415-1.091c-0.277-0.299-0.615-0.447-1.016-0.447c-0.397,0-0.735,0.148-1.013,0.447
		c-0.278,0.297-0.417,0.661-0.417,1.091s0.139,0.794,0.417,1.091c0.278,0.299,0.616,0.447,1.013,0.447s0.735-0.148,1.013-0.447
		C214.2,38.896,214.339,38.532,214.339,38.102z"/>
	<path fill="#1F006D" d="M220.038,37.091c-0.163-0.179-0.353-0.315-0.569-0.41s-0.45-0.142-0.701-0.142
		c-0.433,0-0.78,0.14-1.04,0.42s-0.391,0.651-0.391,1.113c0,0.481,0.131,0.86,0.393,1.136c0.262,0.274,0.624,0.412,1.086,0.412
		c0.257,0,0.487-0.048,0.688-0.145c0.202-0.096,0.379-0.241,0.532-0.437v1.221c-0.195,0.11-0.404,0.193-0.627,0.249
		s-0.46,0.083-0.71,0.083c-0.726,0-1.317-0.231-1.775-0.693s-0.686-1.062-0.686-1.797c0-0.745,0.237-1.347,0.71-1.804
		c0.474-0.458,1.093-0.687,1.858-0.687c0.241,0,0.462,0.023,0.664,0.071c0.202,0.047,0.391,0.119,0.566,0.217V37.091z"/>
	<path fill="#1F006D" d="M221.029,33.771c0-0.179,0.066-0.334,0.198-0.464s0.289-0.195,0.471-0.195c0.189,0,0.346,0.063,0.471,0.188
		c0.125,0.125,0.188,0.282,0.188,0.471s-0.063,0.348-0.19,0.477c-0.127,0.128-0.283,0.192-0.469,0.192
		c-0.182,0-0.339-0.065-0.471-0.198C221.095,34.111,221.029,33.954,221.029,33.771z M221.17,40.402v-4.629h1.06v4.629H221.17z"/>
	<path fill="#1F006D" d="M228.1,40.402h-1.06v-0.601c-0.188,0.267-0.409,0.466-0.661,0.596c-0.253,0.13-0.542,0.195-0.867,0.195
		c-0.654,0-1.17-0.224-1.545-0.671c-0.377-0.448-0.564-1.061-0.564-1.839c0-0.739,0.192-1.335,0.576-1.79
		c0.384-0.453,0.886-0.681,1.504-0.681c0.378,0,0.701,0.079,0.969,0.237c0.27,0.157,0.465,0.385,0.589,0.681v-0.757h1.06V40.402z
		 M227.069,38.073c0-0.479-0.111-0.852-0.335-1.118c-0.223-0.267-0.534-0.4-0.935-0.4s-0.716,0.138-0.944,0.412
		c-0.23,0.275-0.345,0.657-0.345,1.146c0,0.491,0.11,0.871,0.332,1.138s0.534,0.4,0.938,0.4c0.381,0,0.69-0.145,0.931-0.435
		C226.949,38.925,227.069,38.544,227.069,38.073z"/>
	<path fill="#1F006D" d="M229.613,40.402v-7.568h1.06v7.568H229.613z"/>
	<path fill="#1F006D" d="M235.292,40.402v-7.148h3.989v0.986h-2.827v1.792h2.827v1.021h-2.827v2.31h2.827v1.04H235.292z"/>
	<path fill="#1F006D" d="M240.526,40.402v-4.629h0.996v0.757c0.212-0.319,0.461-0.552,0.747-0.698s0.635-0.22,1.045-0.22
		c0.345,0,0.639,0.055,0.882,0.163c0.242,0.109,0.432,0.271,0.568,0.486c0.081,0.127,0.14,0.275,0.176,0.444
		s0.054,0.466,0.054,0.889v2.808h-1.069v-2.378c0-0.608-0.074-1.013-0.223-1.214c-0.147-0.199-0.41-0.3-0.788-0.3
		c-0.247,0-0.468,0.046-0.661,0.137c-0.194,0.091-0.347,0.22-0.457,0.386c-0.078,0.11-0.133,0.253-0.164,0.428
		c-0.03,0.174-0.046,0.451-0.046,0.832v2.109H240.526z"/>
	<path fill="#1F006D" d="M246.654,40.402v-3.701h-0.811v-0.928h0.811V34.02h1.06v1.753h0.811v0.928h-0.811v3.701H246.654z"/>
	<path fill="#1F006D" d="M253.975,38.244h-3.701c0.026,0.433,0.154,0.771,0.386,1.014c0.231,0.242,0.539,0.363,0.923,0.363
		c0.342,0,0.627-0.071,0.854-0.215s0.427-0.374,0.596-0.693l0.894,0.498c-0.261,0.466-0.583,0.813-0.967,1.04
		s-0.835,0.342-1.353,0.342c-0.742,0-1.333-0.227-1.772-0.679s-0.659-1.057-0.659-1.812c0-0.726,0.227-1.322,0.682-1.79
		c0.453-0.467,1.037-0.7,1.75-0.7c0.745,0,1.326,0.213,1.743,0.64s0.625,1.023,0.625,1.792V38.244z M252.876,37.531
		c-0.042-0.332-0.169-0.585-0.381-0.76c-0.212-0.174-0.501-0.261-0.869-0.261c-0.349,0-0.628,0.085-0.84,0.254
		s-0.359,0.425-0.444,0.767H252.876z"/>
	<path fill="#1F006D" d="M256.138,36.51c0.114-0.306,0.265-0.532,0.452-0.679c0.187-0.146,0.419-0.22,0.695-0.22
		c0.149,0,0.297,0.018,0.441,0.054c0.146,0.036,0.288,0.088,0.428,0.156l-0.381,0.898c-0.091-0.065-0.189-0.113-0.295-0.145
		c-0.106-0.03-0.225-0.046-0.354-0.046c-0.352,0-0.604,0.141-0.757,0.423c-0.153,0.281-0.229,0.754-0.229,1.418v2.031h-1.06v-4.639
		h1.06V36.51z"/>
	<path fill="#1F006D" d="M258.91,42.58v-6.807h1.06v0.757c0.124-0.293,0.321-0.52,0.593-0.679c0.272-0.159,0.597-0.239,0.975-0.239
		c0.615,0,1.114,0.228,1.496,0.681c0.383,0.455,0.574,1.051,0.574,1.79c0,0.778-0.188,1.391-0.564,1.839
		c-0.375,0.447-0.891,0.671-1.545,0.671c-0.325,0-0.614-0.065-0.867-0.195c-0.252-0.13-0.473-0.329-0.661-0.596v2.778H258.91z
		 M259.936,38.073c0,0.479,0.119,0.861,0.359,1.147c0.238,0.286,0.554,0.43,0.944,0.43c0.4,0,0.71-0.134,0.931-0.4
		c0.219-0.267,0.329-0.646,0.329-1.138c0-0.488-0.114-0.87-0.345-1.146c-0.229-0.274-0.544-0.412-0.944-0.412
		s-0.713,0.134-0.938,0.4S259.936,37.594,259.936,38.073z"/>
	<path fill="#1F006D" d="M265.79,36.51c0.114-0.306,0.265-0.532,0.452-0.679c0.187-0.146,0.419-0.22,0.695-0.22
		c0.149,0,0.297,0.018,0.441,0.054c0.146,0.036,0.288,0.088,0.428,0.156l-0.381,0.898c-0.091-0.065-0.189-0.113-0.295-0.145
		c-0.106-0.03-0.225-0.046-0.354-0.046c-0.352,0-0.604,0.141-0.757,0.423c-0.153,0.281-0.229,0.754-0.229,1.418v2.031h-1.06v-4.639
		h1.06V36.51z"/>
	<path fill="#1F006D" d="M268.459,33.771c0-0.179,0.065-0.334,0.198-0.464c0.131-0.13,0.288-0.195,0.471-0.195
		c0.188,0,0.346,0.063,0.471,0.188c0.126,0.125,0.188,0.282,0.188,0.471s-0.063,0.348-0.19,0.477
		c-0.127,0.128-0.283,0.192-0.469,0.192c-0.183,0-0.34-0.065-0.471-0.198C268.524,34.111,268.459,33.954,268.459,33.771z
		 M268.601,40.402v-4.629h1.06v4.629H268.601z"/>
	<path fill="#1F006D" d="M270.642,39.562l0.879-0.479c0.065,0.231,0.186,0.407,0.361,0.527s0.402,0.181,0.679,0.181
		c0.237,0,0.424-0.055,0.559-0.163c0.136-0.109,0.203-0.259,0.203-0.447c0-0.251-0.241-0.466-0.723-0.645
		c-0.163-0.059-0.288-0.107-0.376-0.146c-0.495-0.205-0.841-0.413-1.038-0.625c-0.196-0.212-0.295-0.469-0.295-0.771
		c0-0.413,0.162-0.749,0.486-1.006c0.323-0.257,0.752-0.386,1.286-0.386c0.358,0,0.665,0.065,0.921,0.198
		c0.255,0.131,0.441,0.319,0.559,0.563l-0.752,0.518c-0.056-0.146-0.152-0.263-0.291-0.349c-0.138-0.087-0.298-0.13-0.48-0.13
		c-0.202,0-0.363,0.048-0.486,0.144c-0.121,0.097-0.183,0.225-0.183,0.384c0,0.241,0.273,0.461,0.82,0.659
		c0.173,0.062,0.306,0.112,0.4,0.151c0.427,0.169,0.731,0.36,0.915,0.573c0.185,0.214,0.276,0.479,0.276,0.799
		c0,0.462-0.168,0.824-0.503,1.086c-0.335,0.263-0.798,0.394-1.387,0.394c-0.452,0-0.828-0.085-1.128-0.254
		S270.811,39.911,270.642,39.562z"/>
	<path fill="#1F006D" d="M279.89,38.244h-3.701c0.026,0.433,0.154,0.771,0.386,1.014c0.231,0.242,0.539,0.363,0.923,0.363
		c0.342,0,0.627-0.071,0.854-0.215s0.427-0.374,0.596-0.693l0.894,0.498c-0.261,0.466-0.583,0.813-0.967,1.04
		s-0.835,0.342-1.353,0.342c-0.742,0-1.333-0.227-1.772-0.679s-0.659-1.057-0.659-1.812c0-0.726,0.227-1.322,0.682-1.79
		c0.453-0.467,1.037-0.7,1.75-0.7c0.745,0,1.326,0.213,1.743,0.64s0.625,1.023,0.625,1.792V38.244z M278.791,37.531
		c-0.042-0.332-0.169-0.585-0.381-0.76c-0.212-0.174-0.501-0.261-0.869-0.261c-0.349,0-0.628,0.085-0.84,0.254
		s-0.359,0.425-0.444,0.767H278.791z"/>
	<path fill="#1F006D" d="M285.261,42.58c-0.388-0.716-0.678-1.475-0.871-2.275c-0.194-0.801-0.291-1.646-0.291-2.534
		c0-0.935,0.096-1.802,0.288-2.603s0.483-1.55,0.874-2.246l0.796,0.239c-0.349,0.69-0.607,1.41-0.776,2.161
		c-0.169,0.75-0.254,1.563-0.254,2.438c0,0.918,0.084,1.748,0.252,2.49c0.167,0.742,0.427,1.433,0.778,2.07L285.261,42.58z"/>
	<path fill="#1F006D" d="M288.103,36.51c0.114-0.306,0.265-0.532,0.452-0.679c0.187-0.146,0.419-0.22,0.695-0.22
		c0.149,0,0.297,0.018,0.441,0.054c0.146,0.036,0.288,0.088,0.428,0.156l-0.381,0.898c-0.091-0.065-0.189-0.113-0.295-0.145
		c-0.106-0.03-0.225-0.046-0.354-0.046c-0.352,0-0.604,0.141-0.757,0.423c-0.153,0.281-0.229,0.754-0.229,1.418v2.031h-1.06v-4.639
		h1.06V36.51z"/>
	<path fill="#1F006D" d="M295.011,40.402h-1.06v-0.601c-0.188,0.267-0.409,0.466-0.661,0.596c-0.253,0.13-0.542,0.195-0.867,0.195
		c-0.654,0-1.17-0.224-1.545-0.671c-0.377-0.448-0.564-1.061-0.564-1.839c0-0.739,0.192-1.335,0.576-1.79
		c0.384-0.453,0.886-0.681,1.504-0.681c0.378,0,0.701,0.079,0.969,0.237c0.27,0.157,0.465,0.385,0.589,0.681v-0.757h1.06V40.402z
		 M293.98,38.073c0-0.479-0.111-0.852-0.335-1.118c-0.223-0.267-0.534-0.4-0.935-0.4s-0.716,0.138-0.944,0.412
		c-0.23,0.275-0.345,0.657-0.345,1.146c0,0.491,0.11,0.871,0.332,1.138s0.534,0.4,0.938,0.4c0.381,0,0.69-0.145,0.931-0.435
		C293.86,38.925,293.98,38.544,293.98,38.073z"/>
	<path fill="#1F006D" d="M296.383,33.771c0-0.179,0.065-0.334,0.198-0.464c0.131-0.13,0.288-0.195,0.471-0.195
		c0.188,0,0.346,0.063,0.471,0.188c0.126,0.125,0.188,0.282,0.188,0.471s-0.063,0.348-0.19,0.477
		c-0.127,0.128-0.283,0.192-0.469,0.192c-0.183,0-0.34-0.065-0.471-0.198C296.448,34.111,296.383,33.954,296.383,33.771z
		 M296.524,40.402v-4.629h1.06v4.629H296.524z"/>
	<path fill="#1F006D" d="M298.775,38.971l0.928-0.43c0.088,0.319,0.249,0.563,0.483,0.729c0.234,0.168,0.534,0.252,0.898,0.252
		c0.345,0,0.619-0.096,0.823-0.288c0.203-0.192,0.305-0.449,0.305-0.771c0-0.42-0.349-0.794-1.045-1.123
		c-0.098-0.049-0.173-0.085-0.225-0.107c-0.788-0.384-1.313-0.731-1.574-1.042c-0.263-0.312-0.394-0.691-0.394-1.141
		c0-0.583,0.198-1.055,0.593-1.416c0.396-0.361,0.914-0.542,1.556-0.542c0.527,0,0.969,0.102,1.323,0.306
		c0.354,0.203,0.601,0.495,0.737,0.876l-0.908,0.469c-0.144-0.225-0.3-0.389-0.472-0.493c-0.17-0.104-0.366-0.156-0.588-0.156
		c-0.313,0-0.561,0.081-0.744,0.244c-0.185,0.163-0.276,0.381-0.276,0.654c0,0.43,0.403,0.83,1.211,1.201
		c0.062,0.029,0.11,0.052,0.146,0.068c0.706,0.325,1.191,0.644,1.455,0.955c0.264,0.311,0.396,0.698,0.396,1.164
		c0,0.677-0.213,1.215-0.64,1.613c-0.427,0.399-1.003,0.599-1.729,0.599c-0.608,0-1.107-0.14-1.497-0.42
		C299.15,39.892,298.896,39.492,298.775,38.971z"/>
	<path fill="#1F006D" d="M304.674,40.402v-7.148h3.989v0.986h-2.827v1.792h2.827v1.021h-2.827v2.31h2.827v1.04H304.674z"/>
	<path fill="#1F006D" d="M310.187,42.58l-0.791-0.259c0.352-0.638,0.611-1.328,0.778-2.07c0.168-0.742,0.252-1.572,0.252-2.49
		c0-0.876-0.084-1.688-0.252-2.438c-0.167-0.751-0.427-1.471-0.778-2.161l0.791-0.239c0.394,0.696,0.687,1.445,0.879,2.246
		s0.288,1.668,0.288,2.603c0,0.889-0.097,1.733-0.291,2.534C310.869,41.105,310.577,41.864,310.187,42.58z"/>
	<path fill="#1F006D" d="M315.943,37.614h2.612v0.977h-2.612V37.614z"/>
	<path fill="#1F006D" d="M327.833,40.402l-0.811-1.841h-2.832l-0.83,1.841h-1.221l3.462-7.432l3.457,7.432H327.833z M324.62,37.594
		h1.992l-0.732-1.631c-0.042-0.104-0.086-0.224-0.132-0.358c-0.046-0.136-0.091-0.286-0.137-0.452
		c-0.039,0.156-0.08,0.302-0.125,0.437c-0.043,0.136-0.088,0.26-0.134,0.374L324.62,37.594z"/>
	<path fill="#1F006D" d="M329.693,40.402v-7.568h1.06v7.568H329.693z"/>
	<path fill="#1F006D" d="M332.315,40.402v-7.568h1.06v7.568H332.315z"/>
	<path fill="#1F006D" d="M339.083,37.204v3.198h-1.089v-7.148h1.621c0.476,0,0.844,0.031,1.105,0.093
		c0.263,0.062,0.486,0.164,0.672,0.308c0.222,0.173,0.393,0.396,0.513,0.669s0.181,0.573,0.181,0.898
		c0,0.573-0.139,1.021-0.415,1.345c-0.276,0.324-0.686,0.519-1.226,0.584l2.461,3.252h-1.313l-2.378-3.198H339.083z M339.156,36.3
		h0.21c0.615,0,1.023-0.071,1.226-0.215s0.303-0.397,0.303-0.762c0-0.394-0.108-0.672-0.324-0.832
		c-0.217-0.162-0.618-0.242-1.204-0.242h-0.21V36.3z"/>
	<path fill="#1F006D" d="M343.414,33.771c0-0.179,0.065-0.334,0.198-0.464c0.131-0.13,0.288-0.195,0.471-0.195
		c0.188,0,0.346,0.063,0.471,0.188c0.126,0.125,0.188,0.282,0.188,0.471s-0.063,0.348-0.19,0.477
		c-0.127,0.128-0.283,0.192-0.469,0.192c-0.183,0-0.34-0.065-0.471-0.198C343.479,34.111,343.414,33.954,343.414,33.771z
		 M343.556,40.402v-4.629h1.06v4.629H343.556z"/>
	<path fill="#1F006D" d="M350.484,40.114c0,0.905-0.181,1.542-0.542,1.911c-0.361,0.37-0.97,0.555-1.826,0.555
		c-0.638,0-1.147-0.135-1.528-0.402c-0.381-0.27-0.574-0.626-0.581-1.072l1.138-0.005c0.017,0.198,0.109,0.35,0.278,0.454
		s0.407,0.156,0.713,0.156c0.452,0,0.778-0.1,0.977-0.298s0.3-0.53,0.303-0.996l0.01-0.615c-0.188,0.267-0.409,0.466-0.661,0.596
		c-0.253,0.13-0.542,0.195-0.867,0.195c-0.654,0-1.17-0.224-1.545-0.671c-0.377-0.448-0.564-1.061-0.564-1.839
		c0-0.739,0.192-1.335,0.576-1.79c0.384-0.453,0.886-0.681,1.504-0.681c0.378,0,0.701,0.079,0.969,0.237
		c0.27,0.157,0.465,0.385,0.589,0.681v-0.757h1.06V40.114z M349.454,38.073c0-0.479-0.111-0.852-0.335-1.118
		c-0.223-0.267-0.534-0.4-0.935-0.4s-0.716,0.138-0.944,0.412c-0.23,0.275-0.345,0.657-0.345,1.146c0,0.491,0.11,0.871,0.332,1.138
		s0.534,0.4,0.938,0.4c0.381,0,0.69-0.145,0.931-0.435C349.334,38.925,349.454,38.544,349.454,38.073z"/>
	<path fill="#1F006D" d="M351.949,40.402v-7.568h0.996v3.696c0.212-0.319,0.461-0.552,0.747-0.698s0.635-0.22,1.045-0.22
		c0.345,0,0.639,0.055,0.882,0.163c0.242,0.109,0.432,0.271,0.568,0.486c0.081,0.127,0.14,0.275,0.176,0.444
		s0.054,0.466,0.054,0.889v2.808h-1.069v-2.378c0-0.608-0.074-1.013-0.223-1.214c-0.147-0.199-0.41-0.3-0.788-0.3
		c-0.247,0-0.468,0.046-0.661,0.137c-0.194,0.091-0.347,0.22-0.457,0.386c-0.078,0.11-0.133,0.253-0.164,0.428
		c-0.03,0.174-0.046,0.451-0.046,0.832v2.109H351.949z"/>
	<path fill="#1F006D" d="M358.077,40.402v-3.701h-0.811v-0.928h0.811V34.02h1.06v1.753h0.811v0.928h-0.811v3.701H358.077z"/>
	<path fill="#1F006D" d="M360.328,39.562l0.879-0.479c0.065,0.231,0.186,0.407,0.361,0.527s0.402,0.181,0.679,0.181
		c0.237,0,0.424-0.055,0.559-0.163c0.136-0.109,0.203-0.259,0.203-0.447c0-0.251-0.241-0.466-0.723-0.645
		c-0.163-0.059-0.288-0.107-0.376-0.146c-0.495-0.205-0.841-0.413-1.038-0.625c-0.196-0.212-0.295-0.469-0.295-0.771
		c0-0.413,0.162-0.749,0.486-1.006c0.323-0.257,0.752-0.386,1.286-0.386c0.358,0,0.665,0.065,0.921,0.198
		c0.255,0.131,0.441,0.319,0.559,0.563l-0.752,0.518c-0.056-0.146-0.152-0.263-0.291-0.349c-0.138-0.087-0.298-0.13-0.48-0.13
		c-0.202,0-0.363,0.048-0.486,0.144c-0.121,0.097-0.183,0.225-0.183,0.384c0,0.241,0.273,0.461,0.82,0.659
		c0.173,0.062,0.306,0.112,0.4,0.151c0.427,0.169,0.731,0.36,0.915,0.573c0.185,0.214,0.276,0.479,0.276,0.799
		c0,0.462-0.168,0.824-0.503,1.086c-0.335,0.263-0.798,0.394-1.387,0.394c-0.452,0-0.828-0.085-1.128-0.254
		S360.497,39.911,360.328,39.562z"/>
	<path fill="#1F006D" d="M369.313,37.204v3.198h-1.089v-7.148h1.621c0.476,0,0.844,0.031,1.105,0.093
		c0.263,0.062,0.486,0.164,0.672,0.308c0.222,0.173,0.393,0.396,0.513,0.669s0.181,0.573,0.181,0.898
		c0,0.573-0.139,1.021-0.415,1.345c-0.276,0.324-0.686,0.519-1.226,0.584l2.461,3.252h-1.313l-2.378-3.198H369.313z M369.386,36.3
		h0.21c0.615,0,1.023-0.071,1.226-0.215s0.303-0.397,0.303-0.762c0-0.394-0.108-0.672-0.324-0.832
		c-0.217-0.162-0.618-0.242-1.204-0.242h-0.21V36.3z"/>
	<path fill="#1F006D" d="M378.024,38.244h-3.701c0.026,0.433,0.154,0.771,0.386,1.014c0.231,0.242,0.539,0.363,0.923,0.363
		c0.342,0,0.627-0.071,0.854-0.215s0.427-0.374,0.596-0.693l0.894,0.498c-0.261,0.466-0.583,0.813-0.967,1.04
		s-0.835,0.342-1.353,0.342c-0.742,0-1.333-0.227-1.772-0.679s-0.659-1.057-0.659-1.812c0-0.726,0.227-1.322,0.682-1.79
		c0.453-0.467,1.037-0.7,1.75-0.7c0.745,0,1.326,0.213,1.743,0.64s0.625,1.023,0.625,1.792V38.244z M376.926,37.531
		c-0.042-0.332-0.169-0.585-0.381-0.76c-0.212-0.174-0.501-0.261-0.869-0.261c-0.349,0-0.628,0.085-0.84,0.254
		s-0.359,0.425-0.444,0.767H376.926z"/>
	<path fill="#1F006D" d="M378.596,39.562l0.879-0.479c0.065,0.231,0.186,0.407,0.361,0.527s0.402,0.181,0.679,0.181
		c0.237,0,0.424-0.055,0.559-0.163c0.136-0.109,0.203-0.259,0.203-0.447c0-0.251-0.241-0.466-0.723-0.645
		c-0.163-0.059-0.288-0.107-0.376-0.146c-0.495-0.205-0.841-0.413-1.038-0.625c-0.196-0.212-0.295-0.469-0.295-0.771
		c0-0.413,0.162-0.749,0.486-1.006c0.323-0.257,0.752-0.386,1.286-0.386c0.358,0,0.665,0.065,0.921,0.198
		c0.255,0.131,0.441,0.319,0.559,0.563l-0.752,0.518c-0.056-0.146-0.152-0.263-0.291-0.349c-0.138-0.087-0.298-0.13-0.48-0.13
		c-0.202,0-0.363,0.048-0.486,0.144c-0.121,0.097-0.183,0.225-0.183,0.384c0,0.241,0.273,0.461,0.82,0.659
		c0.173,0.062,0.306,0.112,0.4,0.151c0.427,0.169,0.731,0.36,0.915,0.573c0.185,0.214,0.276,0.479,0.276,0.799
		c0,0.462-0.168,0.824-0.503,1.086c-0.335,0.263-0.798,0.394-1.387,0.394c-0.452,0-0.828-0.085-1.128-0.254
		S378.765,39.911,378.596,39.562z"/>
	<path fill="#1F006D" d="M387.844,38.244h-3.701c0.026,0.433,0.154,0.771,0.386,1.014c0.231,0.242,0.539,0.363,0.923,0.363
		c0.342,0,0.627-0.071,0.854-0.215s0.427-0.374,0.596-0.693l0.894,0.498c-0.261,0.466-0.583,0.813-0.967,1.04
		s-0.835,0.342-1.353,0.342c-0.742,0-1.333-0.227-1.772-0.679s-0.659-1.057-0.659-1.812c0-0.726,0.227-1.322,0.682-1.79
		c0.453-0.467,1.037-0.7,1.75-0.7c0.745,0,1.326,0.213,1.743,0.64s0.625,1.023,0.625,1.792V38.244z M386.745,37.531
		c-0.042-0.332-0.169-0.585-0.381-0.76c-0.212-0.174-0.501-0.261-0.869-0.261c-0.349,0-0.628,0.085-0.84,0.254
		s-0.359,0.425-0.444,0.767H386.745z"/>
	<path fill="#1F006D" d="M390.007,36.51c0.114-0.306,0.265-0.532,0.452-0.679c0.187-0.146,0.419-0.22,0.695-0.22
		c0.149,0,0.297,0.018,0.441,0.054c0.146,0.036,0.288,0.088,0.428,0.156l-0.381,0.898c-0.091-0.065-0.189-0.113-0.295-0.145
		c-0.106-0.03-0.225-0.046-0.354-0.046c-0.352,0-0.604,0.141-0.757,0.423c-0.153,0.281-0.229,0.754-0.229,1.418v2.031h-1.06v-4.639
		h1.06V36.51z"/>
	<path fill="#1F006D" d="M394.685,40.68l-2.427-4.907h1.157l1.011,2.329c0.032,0.071,0.071,0.179,0.117,0.322
		s0.093,0.314,0.142,0.513c0.032-0.14,0.071-0.279,0.114-0.418c0.045-0.138,0.098-0.277,0.159-0.417l1.006-2.329h1.152
		L394.685,40.68z"/>
	<path fill="#1F006D" d="M402.068,38.244h-3.701c0.026,0.433,0.154,0.771,0.386,1.014c0.231,0.242,0.539,0.363,0.923,0.363
		c0.342,0,0.627-0.071,0.854-0.215s0.427-0.374,0.596-0.693l0.894,0.498c-0.261,0.466-0.583,0.813-0.967,1.04
		s-0.835,0.342-1.353,0.342c-0.742,0-1.333-0.227-1.772-0.679s-0.659-1.057-0.659-1.812c0-0.726,0.227-1.322,0.682-1.79
		c0.453-0.467,1.037-0.7,1.75-0.7c0.745,0,1.326,0.213,1.743,0.64s0.625,1.023,0.625,1.792V38.244z M400.97,37.531
		c-0.042-0.332-0.169-0.585-0.381-0.76c-0.212-0.174-0.501-0.261-0.869-0.261c-0.349,0-0.628,0.085-0.84,0.254
		s-0.359,0.425-0.444,0.767H400.97z"/>
	<path fill="#1F006D" d="M406.468,32.833h1.06v7.568h-1.06v-0.601c-0.188,0.267-0.409,0.466-0.661,0.596
		c-0.253,0.13-0.542,0.195-0.867,0.195c-0.654,0-1.17-0.224-1.545-0.671c-0.377-0.448-0.564-1.061-0.564-1.839
		c0-0.739,0.192-1.335,0.576-1.79c0.384-0.453,0.886-0.681,1.504-0.681c0.378,0,0.701,0.079,0.969,0.237
		c0.27,0.157,0.465,0.385,0.589,0.681V32.833z M406.497,38.073c0-0.479-0.111-0.852-0.335-1.118c-0.223-0.267-0.534-0.4-0.935-0.4
		s-0.716,0.138-0.944,0.412c-0.23,0.275-0.345,0.657-0.345,1.146c0,0.491,0.11,0.871,0.332,1.138s0.534,0.4,0.938,0.4
		c0.384,0,0.695-0.145,0.933-0.432C406.378,38.929,406.497,38.548,406.497,38.073z"/>
</g>
</svg>
