<svg width="104" height="64" viewBox="0 0 104 64" fill="none" xmlns="http://www.w3.org/2000/svg">
<path d="M25.2009 5.8H4.90088V25.3H25.2009V5.8Z" fill="white"/>
<path d="M101.7 2.39999H102L102.1 7.2H101.8C101.3 5.3 99.5005 3.4 95.7005 3.2C91.3005 3 89.3005 5.60001 89.3005 8.10001C89.3005 11.4 91.9005 12.1 95.7005 13.1C97.5005 13.5 104.2 14.4 103.7 22C103.3 27.3 98.8005 29.8 92.3005 29.6C92.3005 29.6 89.6005 29.5 85.9005 28.5C85.2005 28.3 85.0005 28.5 84.7005 29.1H84.4005V23.9H84.7005C84.8005 24.4 84.9005 25.4 85.8005 26.2C86.5005 26.8 88.1005 28.3 91.7005 28.4C95.2005 28.4 98.1005 27 98.5005 23.1C98.6005 22 98.5005 19.6 96.1005 18.5C94.3005 17.6 89.1005 17.1 86.7005 14.9C86.7005 14.9 83.8005 12.9 84.2005 9C84.9005 3.6 89.4005 2.2 93.4005 2.2C93.4005 2.2 97.0005 2.19999 99.9005 2.89999C99.9005 2.89999 100.6 3.09999 101.2 2.89999C101.5 2.69999 101.6 2.49999 101.7 2.39999Z" fill="#231F20"/>
<path d="M76.3008 14.9C76.7008 14.7 81.9008 12.7 81.5008 7.89999C80.9008 1.89999 74.5008 2.39999 72.3008 2.39999C69.3008 2.39999 60.6008 2.39999 60.6008 2.39999V2.69999C61.8008 2.79999 62.4008 3.49999 62.4008 5.69999L62.3008 26.2C62.3008 28.2 61.5008 28.8 60.3008 29V29.3C60.3008 29.3 74.4008 29.3 75.8008 29.3C77.8008 29.3 82.9008 28.6 83.2008 22.7C83.3008 21.3 82.9008 16.5 76.3008 14.9ZM78.1008 22.6C78.0008 26.7 75.7008 27.7 74.3008 28C72.8008 28.3 70.6008 28.3 69.0008 28.2C67.4008 28.1 67.5008 27.5 67.5008 26.8C67.5008 26.8 67.5008 24 67.6008 20.5C67.7008 13.9 67.9008 4.49999 67.9008 4.39999C67.9008 3.49999 68.1008 3.39999 69.0008 3.39999C69.5008 3.39999 69.8008 3.39999 70.9008 3.39999C72.4008 3.39999 76.4008 3.5 76.6008 8.8C76.8008 14.2 71.2008 14.9 69.7008 14.9C69.6008 14.9 69.6008 15.1 69.7008 15.1C74.0008 15.3 78.2008 16.9 78.1008 22.6Z" fill="#231F20"/>
<path d="M47.1008 2.39999C45.8008 2.39999 34.5008 2.39999 34.5008 2.39999V2.7C35.4008 2.8 36.2008 3.49999 36.2008 4.39999C36.5008 7.39999 36.6008 25.8 36.1008 27.8C36.0008 28.3 35.1008 28.8 34.3008 29V29.3C34.3008 29.3 45.8008 29.3 48.4008 29.3C54.0008 29.3 60.0008 24.2 60.0008 15.8C60.1008 6.2 52.7008 2.39999 47.1008 2.39999ZM49.7008 27.5C47.7008 28.2 45.5008 28.4 42.9008 28.2C41.5008 28.1 41.4008 27.2 41.4008 26.9C41.3008 24.4 41.3008 6.80001 41.4008 4.60001C41.5008 3.40001 41.7008 3.39999 42.9008 3.39999C43.9008 3.39999 45.2008 3.5 45.2008 3.5C51.8008 4 54.3008 9.10001 54.8008 15.6C55.3008 22.3 52.2008 26.6 49.7008 27.5Z" fill="#231F20"/>
<path d="M28.1007 15.8C28.1007 13.8 28.2007 12 29.7007 8.89999C30.1007 7.99999 31.1007 6.7 29.7007 5.1C28.6007 4 27.3007 4.19999 26.4007 4.69999C26.9007 3.79999 27.1007 2.59999 26.0007 1.39999C24.5007 -1.25766e-05 23.1007 0.999987 22.2007 1.39999C19.1007 2.89999 17.3007 2.99999 15.3007 2.99999C13.3007 2.99999 11.5007 2.89999 8.40067 1.39999C7.50067 0.999987 6.20066 -1.25766e-05 4.60066 1.39999C3.50066 2.49999 3.70066 3.79999 4.20066 4.69999C3.30066 4.19999 2.10067 4 0.900674 5.1C-0.499326 6.6 0.500674 7.99999 0.900674 8.89999C2.40067 12 2.50065 13.8 2.50065 15.8C2.50065 17.8 2.40067 19.6 0.900674 22.7C0.500674 23.6 -0.499326 24.9 0.900674 26.5C2.00067 27.6 3.30066 27.4 4.20066 26.9C3.70066 27.8 3.50066 29 4.60066 30.2C6.10066 31.6 7.50067 30.6 8.40067 30.2C11.5007 28.7 13.3007 28.6 15.3007 28.6C17.3007 28.6 19.1007 28.7 22.2007 30.2C23.1007 30.6 24.4007 31.6 26.0007 30.2C27.1007 29.1 26.9007 27.8 26.4007 26.9C27.3007 27.4 28.5007 27.6 29.7007 26.5C31.1007 25 30.1007 23.6 29.7007 22.7C28.1007 19.5 28.1007 17.8 28.1007 15.8ZM24.6007 25.2L17.3007 19.1C17.3007 19.1 16.3007 18.1 15.2007 18.1C14.1007 18.1 13.1007 19.1 13.1007 19.1L5.80067 25.2L11.9007 17.9C11.9007 17.9 12.9007 16.9 12.9007 15.8C12.9007 14.7 11.9007 13.7 11.9007 13.7L5.80067 6.39999L13.1007 12.5C13.1007 12.5 14.1007 13.5 15.2007 13.5C16.3007 13.5 17.3007 12.5 17.3007 12.5L24.6007 6.39999L18.5007 13.7C18.5007 13.7 17.5007 14.7 17.5007 15.8C17.5007 16.9 18.5007 17.9 18.5007 17.9L24.6007 25.2Z" fill="#EF1C24"/>
<path d="M8.90052 36.2C9.60052 35.7 10.0005 35.8 10.9005 36C11.4005 36.1 11.6005 36.3 12.0005 36.5C12.0005 36.5 16.1005 39.7 17.1005 40.3C18.1005 40.9 18.2005 41.1 17.9005 41.1C17.6005 41.1 11.4005 38.9 10.7005 38.6C10.0005 38.3 10.0005 38.2 9.40052 38.5C8.80052 38.8 8.80051 38.5 8.60051 38.2C8.40051 37.9 8.1005 38.3 8.0005 37.8C7.9005 37.3 8.5005 37.3 8.5005 37L8.90052 36.2Z" fill="#231F20"/>
<path d="M12.0005 36.5C12.0005 36.5 11.5005 38.3 12.3005 38.4C13.1005 38.5 13.6005 38.4 15.0005 38.2C16.4005 38 16.5005 39.2 18.8005 38C20.8005 36.9 27.7005 37.7 28.7005 37.5C29.7005 37.3 30.1005 37 29.9005 36.7C29.7005 36.5 29.0005 35.9 28.0005 35.4C27.1005 34.8 26.6005 34.3 25.9005 34.8C25.2005 35.3 23.1005 35.9 21.2005 36.2C19.8005 36.4 14.8005 36.8 13.2005 36.7C12.6005 36.7 12.3005 36.6 12.0005 36.5Z" fill="#231F20"/>
<path d="M11.7006 41.2C13.6006 39.2 14.6006 38.4 15.2006 37.9C15.8006 37.5 21.3006 36.2 19.9006 37.2C18.5006 38.1 17.0006 39.1 14.7006 41.4C13.4006 42.7 12.4006 43.6 11.3006 45.1C9.90062 46.8 9.7006 47.3 6.0006 52.8C1.5006 59.5 1.7006 61.1 1.5006 62.2C1.3006 63.4 1.30061 64.6 0.600608 63.6C0.100608 62.8 -0.499386 61.3 0.700614 58C1.00061 57.1 1.3006 56.4 2.0006 54.9C2.3006 54.4 2.70061 53.6 3.20061 52.8C4.90061 50 5.5006 48.8 8.0006 45.5C8.5006 44.8 9.50063 43.6 9.90063 43C11.3006 41.5 11.4006 41.5 11.7006 41.2Z" fill="#231F20"/>
<path d="M3.70078 48.2C4.30078 48.3 5.40077 48.3 7.50077 47.8C9.60077 47.2 10.7008 47.1 14.8008 46.4C18.9008 45.6 20.8008 45.6 20.1008 45.9C19.4008 46.2 13.1008 48 10.7008 48.7C8.30078 49.4 6.00078 49.8 5.30078 50.1C4.60078 50.4 4.20077 50.4 3.50077 50.1C2.80077 49.7 2.70077 49.4 3.00077 49.2C3.30077 48.9 2.80077 48.8 3.00077 48.5C3.10077 48.1 3.70078 48.2 3.70078 48.2Z" fill="#231F20"/>
<path d="M23.8008 47.5C22.9008 47.4 21.8007 46.7 21.6007 46.3C21.4007 45.9 20.7008 45.5 20.3008 45.7C20.0008 45.9 19.8007 45.6 19.5007 45.6C19.2007 45.5 18.9007 45.9 18.6007 46.4C18.6007 46.4 17.3007 47.7 16.0007 49.3C14.8007 50.8 13.9007 52.9 15.0007 53.8C16.1007 54.8 17.8008 54.8 19.7008 53.6C21.6008 52.3 23.6007 49.7 24.0007 48.9C24.5007 48.1 24.7008 47.6 23.8008 47.5ZM21.6007 50.3C21.0007 51.1 20.5008 51.6 19.9008 52.2C19.5008 52.6 18.4007 53.1 17.6007 53.3C16.8007 53.5 16.4007 53.1 16.6007 52.3C16.8007 51.6 17.0007 51.1 17.6007 50.3C18.0007 49.7 18.4008 49.4 18.8008 49C19.2008 48.6 19.8008 48.1 19.8008 48.1C20.3008 47.9 20.8008 47.7 20.4008 48.3C20.0008 48.9 19.8008 49.1 19.9008 49.7C20.0008 50.3 21.1008 51.4 20.9008 50.9C20.7008 50.4 21.1008 50.5 21.2008 50.1C21.3008 49.7 21.8007 49.4 22.0007 49.4C22.2007 49.3 22.1007 49.5 21.6007 50.3Z" fill="#231F20"/>
<path d="M23.1009 49.6C24.0009 49.2 25.0009 49.1 26.5009 48.2C28.0009 47.3 27.8009 47.1 28.2009 46.8C28.5009 46.4 28.6009 46.7 28.9009 46.9C29.1009 47 29.5009 46.9 30.1009 47.1C30.7009 47.3 30.8009 47.2 30.6009 47.5C30.4009 47.8 29.2009 48.6 27.5009 49.1C25.9009 49.6 23.1009 50.1 22.7009 50.1C22.3009 50.1 23.1009 49.6 23.1009 49.6Z" fill="#231F20"/>
<path d="M26.8005 48.7C27.4005 47.9 28.3005 47.5 29.2005 47.5C30.1005 47.5 31.0005 47 30.3005 47.7C29.6005 48.5 28.8005 49.2 28.3005 49.8C27.8005 50.4 26.8005 51.2 26.5005 51.7C26.2005 52.1 27.0005 52.9 28.4005 52.2C29.7005 51.4 33.0005 48.4 33.0005 48.4C34.4005 47.1 34.4005 46.7 35.0005 46.7C35.9005 46.7 37.3005 47 36.7005 47.6C36.1005 48.1 33.6005 51.8 32.9005 52.5C32.2005 53.2 32.1005 54.1 32.6005 53.9C33.8005 53.4 34.0005 53.2 34.6005 52.9C36.2005 52.1 37.8005 50.9 37.1005 51.4C36.4005 51.9 37.5005 51.5 36.8005 52.1C36.1005 52.7 34.4005 54.2 33.5005 54.7C32.6005 55.2 31.5005 55.2 31.2005 54.8C30.9005 54.4 30.7005 53.6 30.9005 53C31.1005 52.3 30.7005 52.4 30.1005 52.9C29.5005 53.4 27.2005 54.9 26.5005 54.8C24.2005 54.7 24.8005 52.3 24.9005 51.6C25.1005 50.6 26.8005 48.7 26.8005 48.7Z" fill="#231F20"/>
<path d="M67.9007 38C69.0007 37.1 68.2007 37.2 67.8007 37.2C67.4007 37.2 66.4007 37 65.9007 37.3C65.4007 37.7 65.5007 37.6 65.0007 38.1C64.6007 38.6 64.6007 38.6 63.8007 39.7C63.0007 40.8 59.4007 45.1 58.8007 46.2C58.2007 47.3 58.1007 47 57.7007 46.9C57.5007 46.9 56.2007 46.2 55.1007 46.2C53.5007 46.2 52.1007 47.1 51.3007 47.6C50.7007 48 49.8007 48.8 48.8007 50.1C48.2007 50.9 47.7007 52.4 47.6007 52.7C47.5007 52.9 47.2007 53.9 47.7007 54.5C48.2007 55.1 49.6007 55 50.2007 54.8C50.9007 54.6 52.0007 54.2 52.6007 53.7C53.9007 52.8 54.7007 52.2 55.4007 51.5C56.0007 50.8 56.3007 50.6 56.4007 50.7C56.6007 50.8 56.6007 51 56.6007 51.6C56.5007 52.2 56.5007 52.4 56.7007 52.8C56.9007 53.3 57.3007 53.8 57.8007 53.8C58.4007 53.8 58.8007 53.9 59.8007 53.1C60.8007 52.3 60.3007 52.4 59.9007 52.6C59.6007 52.8 59.6007 52.9 59.0007 53C58.5007 53 58.2007 52.7 57.9007 51.8C57.6007 50.9 57.8007 50 59.1007 47.9C60.7007 46 66.8007 38.9 67.9007 38ZM55.0007 50.1C54.7007 50.6 53.9007 51.3 52.5007 52.3C50.6007 53.7 50.1007 53.6 49.9007 53.1C49.7007 52.6 50.5007 51.2 51.5007 50.2C52.3007 49.4 53.0007 48.8 53.3007 48.6C53.9007 48.3 55.4007 48 55.6007 48.6C55.8007 49 55.2007 49.7 55.0007 50.1Z" fill="#231F20"/>
<path d="M83.2007 52.6C81.7007 53.2 81.2007 53.2 81.4007 52.6C81.6007 51.9 82.1007 50.8 83.2007 49.7C84.3007 48.6 84.9007 48.4 84.4007 48C84.0007 47.6 83.2007 47.4 82.7007 47.6C82.3007 47.8 82.2007 48.3 81.2007 49.3C80.2007 50.3 78.6007 51.9 76.9007 52.6C76.2007 52.9 73.7007 53.9 73.9007 52.6C74.1007 51.7 74.5007 50.9 75.5007 49.6C76.5007 48.3 82.2007 42.9 82.8007 42.4C83.4007 41.8 84.6007 40.7 84.7007 40.1C84.8007 39.5 83.9007 39.9 83.7007 39.5C83.5007 39.1 82.8007 39 81.9007 39.7C81.0007 40.4 80.3007 41.3 78.6007 43.4C76.9007 45.4 74.5007 47.8 73.3007 49.2C72.0007 50.7 71.3007 51.4 69.9007 52.4C68.6007 53.4 67.8007 53.3 67.9007 52.7C68.0007 52.1 66.3007 52.2 66.7007 53C67.1007 53.8 67.0007 54.8 68.5007 54.6C70.9007 54.3 72.8007 51.1 72.8007 51.1C72.8007 51.1 71.6007 53.3 72.0007 54.1C72.4007 55 74.0007 55.2 76.3007 54.1C78.5007 53 80.1007 51.1 80.1007 51.1C80.1007 51.1 79.5007 52.6 79.5007 53.6C79.4007 54.7 80.2007 55.2 81.5007 54.5C82.8007 53.8 84.4007 53.2 85.0007 52.2C86.3007 50.4 84.8007 52 83.2007 52.6Z" fill="#231F20"/>
<path d="M73.8008 43.5C75.2008 43.5 79.1008 43.2 80.3008 43.2C81.5008 43.2 86.0008 42.6 86.4008 42.6C86.8008 42.6 86.2008 43.2 85.8008 43.7C85.4008 44.2 83.4008 45 81.9008 45.2C80.4008 45.4 78.5008 45 77.6008 45C76.7008 45 75.7008 45 75.0008 44.4C74.3008 44 73.8008 43.5 73.8008 43.5Z" fill="#231F20"/>
<path d="M83.8006 45.2C84.1006 45.2 84.7006 45.2 84.8006 45.5C84.9006 45.7 85.4006 45.7 85.5006 46.1C85.6006 46.5 85.6006 47.1 84.9006 47.2C84.1006 47.3 83.9006 46.8 83.7006 46.3C83.5006 45.8 83.8006 45.2 83.8006 45.2Z" fill="#231F20"/>
<path d="M92.2005 48.9C92.1005 48.5 91.3005 48 90.4005 47.6C89.5005 47.2 89.2005 47.1 88.8005 47.1C88.4005 47 88.3005 47.5 88.2005 47.9C88.1005 48.4 87.8005 48.4 87.2005 48.9C87.2005 48.9 86.5005 49.5 86.1005 50.2C85.7005 50.9 85.0005 51.8 85.1005 52.9C85.2005 54 85.9005 54.8 86.6005 54.9C87.4005 55 88.0005 54.8 88.3005 54.7C89.1005 54.5 90.5005 53.6 91.1005 52.8C91.7005 51.9 92.2005 51.1 92.5005 50.4C92.7005 49.7 92.3005 49.3 92.2005 48.9ZM88.3005 52.8C87.2005 53.6 86.4005 53.9 86.3005 53C86.2005 52.2 87.4005 51 87.4005 51C87.8005 50.4 88.1005 50.3 88.4005 50.3C88.8005 50.3 89.1005 50 89.6005 49.7C90.1005 49.5 90.5005 50.2 90.2005 51C89.7005 51.7 89.4005 52 88.3005 52.8Z" fill="#231F20"/>
<path fill-rule="evenodd" clip-rule="evenodd" d="M45.3007 53.8C45.2007 53.6 45.6007 53 45.8007 52.6C46.0007 52.1 46.2007 51.5 46.5007 51C47.1007 49.9 47.7007 49 48.3007 47.9C48.4007 47.8 48.4007 47.5 48.3007 47.4C47.9007 46.9 46.6007 46.6 46.4007 46.6C46.3007 46.6 46.0007 46.5 45.7007 46.6C45.2007 46.7 45.1007 46.8 44.9007 46.9C44.6007 47 44.2007 47.4 44.0007 47.6C43.5007 48.1 43.1007 48.5 42.7007 48.8C42.2007 49.1 41.7007 49.4 41.3007 49.7C41.3007 49.5 41.5007 49.3 41.5007 49.2C41.8007 48.6 41.7007 47.9 41.0007 47.8C40.8007 47.8 40.7007 47.7 40.4007 47.7C40.2007 47.7 39.9007 47.7 39.8007 47.8C39.7007 47.8 39.4007 47.9 39.2007 48C39.0007 48.1 38.7007 48.4 38.5007 48.7C38.2007 49 37.4007 49.8 37.0007 50.2C36.7007 50.5 35.0007 52 34.4007 52.4C33.8007 52.8 33.1007 53.4 32.7007 53.6L32.8007 54.4C33.1007 54.2 33.3007 54.2 33.8007 53.9C35.1007 53 35.8007 52.5 36.4007 52.1C36.7007 51.9 37.0007 51.5 37.2007 51.4C37.3007 51.3 37.4007 51.3 37.1007 51.6C36.8007 52 36.6007 52.8 36.7007 53.3C36.8007 53.7 37.4007 54 37.9007 53.9C38.4007 53.8 39.3007 53 39.6007 52.8C39.9007 52.5 40.2007 52.2 40.5007 52C41.2007 51.4 41.8007 51 41.8007 51C42.4007 50.5 43.0007 50 43.5007 49.5C43.5007 49.5 43.7007 49.4 43.7007 49.5C43.7007 49.7 43.6007 49.8 43.6007 50C43.5007 50.5 43.2007 51 43.2007 51.4C43.1007 52.3 43.0007 53.3 43.2007 54.1C43.4007 54.8 44.1007 55.1 44.9007 54.9C45.7007 54.7 46.4007 54.1 47.1007 53.7C47.2007 53.6 47.3007 53.5 47.4007 53.4C46.8007 53.7 45.4007 54.2 45.3007 53.8Z" fill="black"/>
<path fill-rule="evenodd" clip-rule="evenodd" d="M100.701 53.7C100.701 53.6 101.001 52.9 101.201 52.5C101.401 52 101.601 51.5 101.901 50.9C102.501 49.9 103.001 49 103.601 47.9C103.701 47.8 103.701 47.5 103.601 47.4C103.201 47 102.001 46.7 101.901 46.6C101.801 46.6 101.501 46.5 101.301 46.6C100.901 46.7 100.801 46.8 100.501 46.9C100.301 47 99.9007 47.4 99.7007 47.6C99.3007 48 98.9007 48.5 98.5007 48.8C98.1007 49.1 97.6007 49.4 97.2007 49.7C97.2007 49.5 97.4007 49.3 97.4007 49.2C97.7007 48.6 97.6007 48 97.0007 47.8C96.8007 47.8 96.7007 47.7 96.5007 47.7C96.3007 47.7 96.1007 47.7 95.9007 47.8C95.8007 47.8 95.6007 47.9 95.4007 48C95.2007 48.1 95.1007 48.5 94.7007 48.7C94.1007 49.1 92.8007 49.1 92.3007 49C91.1007 48.8 91.7007 48.2 91.2007 48.6C90.8007 48.9 91.1007 48.9 91.7007 49.2C92.2007 49.4 93.1007 50 94.5007 50C94.6007 49.9 93.5007 51.4 93.2007 51.8C92.9007 52.2 92.7007 52.9 92.8007 53.5C92.9007 53.9 93.4007 54.2 93.9007 54.1C94.4007 54 95.3007 53.3 95.6007 53.1C95.9007 52.8 96.2007 52.5 96.4007 52.3C97.0007 51.7 97.7007 51.1 97.7007 51.1C98.2007 50.6 98.8007 50.2 99.3007 49.7C99.3007 49.7 99.5007 49.6 99.5007 49.7C99.5007 49.9 99.4007 50 99.4007 50.2C99.3007 50.7 99.0007 51.1 99.0007 51.6C98.9007 52.5 98.7007 53.4 99.0007 54.2C99.2007 54.9 99.8007 55.2 100.501 54.9C101.201 54.7 101.901 54.2 102.601 53.7C102.701 53.7 102.801 53.5 102.901 53.4C102.001 53.6 100.801 54.1 100.701 53.7Z" fill="#231F20"/>
<path fill-rule="evenodd" clip-rule="evenodd" d="M59.5005 52.4C59.9005 51.4 60.4005 50.8 61.0005 50.2C61.4005 49.8 62.1005 49.2 63.7005 48C65.4005 46.6 67.4005 46.9 68.6005 47.9C68.7005 48 68.9005 48.2 69.1005 48.1C69.9005 47.8 70.1005 48.1 70.4005 48.3C70.6005 48.5 70.3005 48.9 70.2005 49C69.8005 49.7 69.3005 50.3 68.9005 51C68.7005 51.3 68.6005 51.5 68.5005 51.9C68.2005 52.8 68.9005 53.1 70.2005 52.3C70.7005 52 71.4005 51.3 72.1005 50.8C72.8005 50.4 72.7005 51.1 72.0005 51.8C71.4005 52.5 70.8005 53.4 70.0005 53.9C67.9005 55 66.4005 54.6 66.5005 52.5C66.5005 52.2 66.6005 51.8 66.5005 51.5C66.2005 51.7 66.3005 51.8 65.1005 52.5C64.3005 53 63.3005 53.8 61.5005 54.5C60.6005 54.8 59.9005 54.5 59.4005 53.9C59.2005 53.6 59.4005 52.7 59.5005 52.4ZM61.9005 51.6C61.6005 51.9 61.1005 52.6 61.3005 52.8C61.7005 53.2 62.7005 52.6 63.1005 52.4C63.6005 52.1 64.4005 51.5 64.5005 51.4C65.5005 50.3 65.6005 50.1 65.9005 49.6C66.2005 49 65.7005 48.6 65.0005 49C64.3005 49.5 63.9005 49.7 63.2005 50.3C62.4005 50.9 62.2005 51.2 61.9005 51.6Z" fill="black"/>
</svg>
