<?xml version="1.0" encoding="utf-8"?>
<!-- Generator: Adobe Illustrator 24.2.3, SVG Export Plug-In . SVG Version: 6.00 Build 0)  -->
<svg version="1.1" id="B2B_Experience" xmlns="http://www.w3.org/2000/svg" xmlns:xlink="http://www.w3.org/1999/xlink" x="0px"
	 y="0px" viewBox="0 0 1892 1107.2" style="enable-background:new 0 0 1892 1107.2;" xml:space="preserve">
<style type="text/css">
	.st0{fill:#FFF6DE;}
	.st1{fill:#99CC33;}
	.st2{fill:#3399FF;}
	.st3{fill:#E06186;}
	.st4{fill:#F6C9D3;}
	.st5{fill:#FF6633;}
	.st6{fill:#FFC2AD;}
	.st7{fill:#88B222;}
	.st8{fill:#D6EBAD;}
	.st9{fill:#FFE38F;}
	.st10{fill:#FFCC33;}
	.st11{fill:#85C2FF;}
	.st12{fill:#1D0777;}
	.st13{fill:#A49AC3;}
	.st14{fill:#FF855C;}
	.st15{fill:#E24C24;}
	.st16{fill:none;stroke:#FFC2AD;stroke-width:0.25;stroke-miterlimit:10;}
	.st17{fill:none;stroke:#FF855C;stroke-width:1.27;stroke-miterlimit:10;}
	.st18{fill:#ADD6FF;}
	.st19{fill:#70B8FF;}
	.st20{fill:#1F8BE5;}
	.st21{fill:none;stroke:#ADD6FF;stroke-width:0.37;stroke-miterlimit:10;}
	.st22{fill:none;stroke:#ADD6FF;stroke-width:0.46;stroke-miterlimit:10;}
	.st23{fill:none;}
	.st24{fill:none;stroke:#ADD6FF;stroke-linecap:round;stroke-linejoin:round;}
	.st25{fill:none;stroke:#3399FF;stroke-miterlimit:10;}
	.st26{fill:#5F4E95;}
	.st27{fill:#F0A0B3;}
	.st28{fill:#E97792;}
	.st29{fill:#FFDB70;}
	.st30{fill:#DBA51D;}
	.st31{fill:none;stroke:#DBA51D;stroke-width:2;stroke-miterlimit:10;}
	.st32{fill:#FFEBAD;}
	.st33{fill:none;stroke:#88B222;stroke-width:0.74;stroke-miterlimit:10;}
	.st34{fill:none;stroke:#88B222;stroke-width:1.48;stroke-miterlimit:10;}
	.st35{fill:none;stroke:#99CC33;stroke-width:0.99;stroke-miterlimit:10;}
	.st36{fill:#1B0268;}
</style>
<rect class="st0" width="1892" height="1107.2"/>
<polygon class="st1" points="1101.7,630.6 1091,617.9 1492,154.6 1502.6,167.2 "/>
<polygon class="st1" points="1151.6,689.8 1141,677.2 1543,215.2 1553.7,227.8 "/>
<polygon class="st2" points="297.1,1107.2 318.9,1107.2 867.4,475.3 856.8,462.7 "/>
<polygon class="st1" points="1151.3,665.3 1140.8,677.3 1503.1,1107.1 1523.8,1107.1 "/>
<polygon class="st1" points="663.4,85.9 653.3,97.5 1101.6,630.6 1112,618.6 "/>
<polygon class="st2" points="1277.4,427.5 1288,415.1 954.3,0 935.1,0 "/>
<polygon class="st1" points="655.8,201.1 645.7,212.9 1399,1107.1 1419.5,1107.1 "/>
<polygon class="st1" points="604.6,164.1 614.8,152.4 486.3,-0.3 466.4,-0.3 "/>
<polygon class="st1" points="0,862.3 534.3,245.4 521.9,235 0,837.6 "/>
<polygon class="st1" points="604.1,139.9 521.9,235 534.3,245.4 614.8,152.4 "/>
<polygon class="st1" points="0,983.1 666.2,213.4 655.8,201.1 0,958.3 "/>
<polygon class="st1" points="737.3,0 653.3,97.5 663.9,110.1 758.5,0 "/>
<polygon class="st1" points="631.6,0 610.8,23.4 591.1,0 571.1,0 600.5,34.9 600.5,34.9 611.2,47.7 653.2,0 "/>
<g id="Doors">
	<polygon class="st3" points="544.2,234.3 500.5,184.7 494.2,190.1 538.5,240.9 	"/>
	<path class="st4" d="M533.8,223l10.4,11.3l16.8-19.4l8.8-10.3l10-11.6c-22.2-23.7-50.7-33.3-79.4-8.3l0,0L533.8,223z"/>
	<polygon class="st5" points="1290.2,505.8 1329.6,551 1323.4,556.4 1284.7,512.1 	"/>
	<path class="st6" d="M1290.2,505.8l2.7-3.1l14.9-17.1l5.4-6.2l6.3-7.2l6.4-7.4c33.2,28.5,29.1,60.1,3.6,86.4l0,0L1290.2,505.8z"/>
	<polygon class="st7" points="1452.6,225 1414.2,179.8 1420.5,174.5 1458,218.7 	"/>
	<path class="st8" d="M1452.6,225l-7.8,9l-11.5,13.3l-8.1,9.4l-8.3,9.6c-20.7-22.8-35.5-55-2.6-86.5l0,0L1452.6,225z"/>
	<polygon class="st9" points="787.6,357.1 747.1,406.9 740.7,401.6 782.2,350.7 	"/>
	<path class="st10" d="M787.6,357.1l3.5,4.2l23.4,27.8l3.6,4.3l3.5,4.1c-19.4,23.5-45.5,38.6-74.6,9.2l0,0L787.6,357.1z"/>
	<polygon class="st11" points="1136.2,590.7 1092.5,541.1 1086.3,546.5 1130.5,597.2 	"/>
	<path class="st2" d="M1125.8,579.4l10.4,11.3l16.8-19.4l8.9-10.3l10-11.6c-22.2-23.7-50.7-33.3-79.5-8.3l0,0L1125.8,579.4z"/>
	<polygon class="st12" points="985.3,592.8 944.8,642.6 938.4,637.3 979.9,586.4 	"/>
	<path class="st13" d="M985.3,592.8l3.5,4.2l23.4,27.8l3.6,4.3l3.5,4.1c-19.4,23.5-45.5,38.6-74.6,9.2l0,0L985.3,592.8z"/>
</g>
<g id="Management_Systems">
	<rect x="1392.1" y="441.5" class="st5" width="148.4" height="8.6"/>
	<rect x="1400.7" y="448.8" class="st5" width="8.6" height="47.8"/>
	<rect x="1523.3" y="448.8" class="st5" width="8.6" height="47.8"/>
	<rect x="1457.7" y="418" class="st6" width="21.9" height="42"/>
	<rect x="1466.7" y="463.2" class="st6" width="3.6" height="33.5"/>
	<rect x="1460.9" y="493.1" class="st6" width="14.8" height="3.6"/>
	<rect x="1457.7" y="459.1" class="st14" width="22" height="5.4"/>
	<polygon class="st14" points="1418.8,425.9 1404.5,425.9 1407.4,411.6 1416,411.7 	"/>
	<rect x="1410.7" y="425.9" class="st6" width="1.9" height="14.8"/>
	<rect x="1406.1" y="440.1" class="st6" width="11" height="1.6"/>
	<rect x="1435.5" y="426.9" class="st6" width="3.2" height="14.5"/>
	<rect x="1432.3" y="426.9" class="st5" width="3.2" height="14.5"/>
	<rect x="1418.7" y="426.9" class="st14" width="3.2" height="14.5"/>
	
		<rect x="1419.9" y="432.5" transform="matrix(0.5305 -0.8477 0.8477 0.5305 302.1085 1413.6089)" class="st6" width="14.5" height="3.2"/>
	<path class="st14" d="M1518.8,441c-0.3,0.3-0.7,0.5-1.1,0.5h-12.5c-0.4,0-0.8-0.2-1.1-0.5c-0.3-0.3-0.4-0.8-0.3-1.2l1-7.4h2
		c0.7,0,1.4-0.5,1.5-1.3h6.6c0.1,0.7,0.8,1.3,1.5,1.3h2l1,7.4C1519.3,440.2,1519.1,440.6,1518.8,441z"/>
	<rect x="1508.1" y="429" class="st6" width="2.2" height="2.2"/>
	<rect x="1507.3" y="432.8" class="st6" width="2.2" height="2.2"/>
	<rect x="1510.2" y="432.8" class="st6" width="2.2" height="2.2"/>
	<rect x="1513.2" y="432.8" class="st6" width="2.2" height="2.2"/>
	<rect x="1507.3" y="435.6" class="st6" width="2.2" height="2.2"/>
	<rect x="1510.2" y="435.6" class="st6" width="2.2" height="2.2"/>
	<rect x="1513.2" y="435.6" class="st6" width="2.2" height="2.2"/>
	<rect x="1507.3" y="438.4" class="st6" width="2.2" height="2.2"/>
	<rect x="1510.2" y="438.4" class="st6" width="2.2" height="2.2"/>
	<rect x="1513.2" y="438.4" class="st6" width="2.2" height="2.2"/>
	<rect x="1510.3" y="429" class="st5" width="2.2" height="2.2"/>
	<rect x="1512.5" y="429" class="st6" width="2.2" height="2.2"/>
	<path class="st6" d="M1503,432.8c-0.3,0-0.5-0.2-0.5-0.5l0,0v-1h4.5v1c0,0.3-0.2,0.5-0.5,0.5l0,0H1503z"/>
	<path class="st6" d="M1520.2,432.3c0,0.3-0.2,0.5-0.5,0.5l0,0h-3.5c-0.3,0-0.5-0.2-0.5-0.5l0,0v-1h4.5V432.3z"/>
	<path class="st14" d="M1520.2,431.3h-4.5v-1.8c0-0.3-0.2-0.5-0.5-0.5h-7.6c-0.3,0-0.5,0.2-0.5,0.5v1.8h-4.5V429
		c0-0.8,0.7-1.5,1.5-1.5h14.6c0.8,0,1.5,0.7,1.5,1.5V431.3z"/>
	<rect x="1227.2" y="618.9" class="st14" width="41.4" height="30.6"/>
	<rect x="1229.7" y="621.5" class="st6" width="36.5" height="25.3"/>
	<rect x="1246.9" y="647.9" class="st14" width="2.1" height="10"/>
	<rect x="1242.9" y="657.1" class="st14" width="10" height="2.1"/>
	<rect x="1271.8" y="618.9" class="st14" width="41.4" height="30.6"/>
	<rect x="1274.3" y="621.5" class="st6" width="36.5" height="25.3"/>
	<path class="st14" d="M1302.3,630.1c0.5-2.5,0.1-4.7-1.4-5.9s-3.6-1.1-5.9-0.1c0.3,1.8,1.3,3.3,2.6,4.5
		C1299,629.7,1300.6,630.2,1302.3,630.1z"/>
	<path class="st15" d="M1293.3,644.2c0.7-1.2,0.9-2.6,0.5-3.9c2.2-1.1,4.1-2.6,5.6-4.5c1.4-1.7,2.4-3.6,3-5.7
		c-1.7,0-3.3-0.5-4.6-1.5c-1.4-1.1-2.4-2.6-2.7-4.3c-1.9,1-3.6,2.5-4.9,4.2c-1.5,1.8-2.6,4-3.2,6.3c-1.4-0.1-2.8,0.4-3.9,1.4
		c-2.3,2.5,2.7,2,2.7,2l1.4,1c-0.9,1.4-1.3,2.8-0.8,3.2s1.7-0.3,2.9-1.5l1.3,1.1C1290.7,642,1291.3,647,1293.3,644.2z M1292,635.5
		c-1.7-1.3-2-3.8-0.6-5.5c1.3-1.7,3.8-2,5.5-0.6c1.7,1.3,2,3.8,0.6,5.5l0,0c-1.3,1.7-3.7,2-5.4,0.7
		C1292.1,635.5,1292,635.5,1292,635.5L1292,635.5z"/>
	<circle class="st14" cx="1294.4" cy="632.4" r="3.9"/>
	<rect x="1291.5" y="647.9" class="st1" width="2.1" height="10"/>
	<rect x="1287.5" y="657.1" class="st1" width="10" height="2.1"/>
	<rect x="1211.6" y="659.1" class="st6" width="157.1" height="9.1"/>
	<rect x="1220.7" y="666.9" class="st6" width="9.1" height="50.6"/>
	<rect x="1350.5" y="666.9" class="st6" width="9.1" height="50.6"/>
	<rect x="1281" y="634.3" class="st5" width="23.2" height="44.5"/>
	<rect x="1290.6" y="682.1" class="st15" width="3.8" height="35.5"/>
	<rect x="1284.4" y="713.8" class="st15" width="15.7" height="3.8"/>
	<rect x="1281" y="677.7" class="st14" width="23.3" height="5.7"/>
	<rect x="1336.7" y="641" class="st10" width="0.8" height="8"/>
	<polygon class="st14" points="1332.1,647.6 1342.2,647.6 1340.1,657.7 1334.1,657.6 	"/>
	<rect x="1332.4" y="657.6" class="st14" width="9.5" height="1.3"/>
	<polygon class="st1" points="1338.8,640.2 1337.2,641.9 1335.5,640.2 1337.1,637 	"/>
	<polygon class="st1" points="1335.8,642.3 1337.1,644.3 1335.1,645.6 1332.3,643.2 	"/>
	<polygon class="st1" points="1338.7,647.1 1337.1,645.4 1338.8,643.8 1342,645.5 	"/>
	<path class="st5" d="M1247.9,629.7c-2.3,0-4.3,1.8-4.4,4.2c0,3,2.1,3.7,2.3,5.7h4c0.2-1.9,2.3-2.7,2.3-5.7
		C1252.1,631.5,1250.2,629.7,1247.9,629.7z"/>
	<circle class="st6" cx="1245.6" cy="634.4" r="0.4"/>
	<circle class="st6" cx="1247.8" cy="634.4" r="0.4"/>
	<circle class="st6" cx="1250.1" cy="634.4" r="0.4"/>
	<polyline class="st16" points="1245.6,634.6 1246.6,636.4 1246.6,639.7 	"/>
	<polyline class="st16" points="1250.1,634.6 1249.1,636.4 1249.1,639.6 	"/>
	<line class="st16" x1="1247.8" y1="634.6" x2="1247.8" y2="639.7"/>
	<path class="st5" d="M1245.8,640.2v0.3c0,0.4,0.3,0.7,0.7,0.7h0.5v0.4c0,0.4,0.4,0.7,0.8,0.6c0.3,0,0.6-0.3,0.6-0.6v-0.4h0.6
		c0.4,0,0.7-0.3,0.7-0.7v-0.4L1245.8,640.2z"/>
	<path class="st14" d="M1247.6,626c-0.2,0-0.4,0.2-0.4,0.4v1.5c0,0.2,0.2,0.3,0.4,0.3c0.2,0,0.3-0.1,0.3-0.3v-1.5
		C1248,626.2,1247.8,626,1247.6,626z"/>
	<path class="st14" d="M1242.5,628.1c-0.2,0-0.4,0.2-0.4,0.4c0,0.1,0,0.2,0.1,0.2l1,1c0.1,0.1,0.4,0.1,0.5,0s0.1-0.4,0-0.5l-1-1
		C1242.7,628.2,1242.6,628.1,1242.5,628.1z"/>
	<path class="st14" d="M1252.8,628.1c-0.1,0-0.2,0-0.2,0.1l-1,1c-0.1,0.1-0.1,0.4,0,0.5s0.4,0.1,0.5,0l1-1c0.1-0.2,0.1-0.4,0-0.5
		C1252.9,628.2,1252.8,628.2,1252.8,628.1z"/>
	<path class="st14" d="M1240.3,633.3c-0.2,0-0.3,0.2-0.3,0.4s0.1,0.3,0.3,0.3h1.5c0.2,0,0.3-0.2,0.3-0.4s-0.1-0.3-0.3-0.3H1240.3z"
		/>
	<path class="st14" d="M1253.4,633.3c-0.2,0-0.3,0.2-0.3,0.4s0.1,0.3,0.3,0.3h1.5c0.2,0,0.4-0.1,0.4-0.3s-0.1-0.4-0.3-0.4h-0.1
		H1253.4z"/>
	<rect x="1245.8" y="639.5" class="st14" width="4" height="0.7"/>
	<rect x="1417.8" y="710.4" class="st5" width="186.8" height="10.8"/>
	<rect x="1428.6" y="719.6" class="st5" width="10.8" height="60.2"/>
	<rect x="1582.9" y="719.6" class="st5" width="10.8" height="60.2"/>
	<rect x="1500.3" y="680.9" class="st6" width="27.6" height="52.9"/>
	<rect x="1511.7" y="737.6" class="st14" width="4.5" height="42.2"/>
	<rect x="1504.3" y="775.3" class="st14" width="18.7" height="4.5"/>
	<rect x="1500.3" y="732.5" class="st5" width="27.7" height="6.7"/>
	<rect x="1424.9" y="692.1" class="st14" width="4" height="18.2"/>
	<rect x="1428.9" y="692.1" class="st6" width="4" height="18.2"/>
	<rect x="1450" y="692.1" class="st6" width="4" height="18.2"/>
	<rect x="1446" y="692.1" class="st5" width="4" height="18.2"/>
	
		<rect x="1437.5" y="692" transform="matrix(0.8477 -0.5305 0.5305 0.8477 -152.6855 870.4344)" class="st14" width="4" height="18.2"/>
	<rect x="1568.7" y="689.1" class="st10" width="1" height="9.6"/>
	<polygon class="st6" points="1563.2,696.9 1575.1,696.9 1572.7,708.9 1565.5,708.8 	"/>
	<rect x="1563.5" y="708.8" class="st6" width="11.3" height="1.6"/>
	<polygon class="st1" points="1571.2,688.2 1569.2,690.1 1567.2,688.2 1569.1,684.3 	"/>
	<polygon class="st1" points="1567.6,690.6 1569.1,693 1566.7,694.5 1563.4,691.7 	"/>
	<polygon class="st1" points="1571.1,696.4 1569.1,694.4 1571.1,692.4 1574.9,694.4 	"/>
	<path class="st6" d="M1459.3,677.5l2.3-3.3c0.3-0.5,0.9-0.6,1.4-0.3l0,0l1,0.7l-3.4,4.9l-1-0.7C1459.2,678.6,1459,678,1459.3,677.5
		L1459.3,677.5z"/>
	<path class="st5" d="M1486.9,690.8c0.6,0.4,0.8,1.3,0.4,2l0,0l-1.2,1.7c-0.5,0.7-1.3,0.8-2,0.4l-0.4-0.2l2.8-4L1486.9,690.8z"/>
	
		<rect x="1480.8" y="691.2" transform="matrix(0.5683 -0.8228 0.8228 0.5683 71.223 1520.1927)" class="st6" width="7.2" height="2.1"/>
	<path class="st17" d="M1464.9,683.3c-1.8,2.3-2.9,5.1-3.2,8c-0.6,6.1,3,10.5,4.2,12.1c1.7,2.1,3.7,3.8,6,5.1"/>
	<path class="st5" d="M1464.3,692.6c0.3,1.5-0.7,2.9-2.2,3.3c-1.5,0.3-2.9-0.7-3.3-2.2s0.7-2.9,2.2-3.3l0,0c0.2,0,0.4-0.1,0.6-0.1
		C1462.9,690.4,1464,691.3,1464.3,692.6z"/>
	<path class="st5" d="M1481.3,694.6c-0.2,0.2-0.4,0.4-0.6,0.4c-0.3,0-0.5,0-0.7-0.2l-19.5-13.5c-0.2-0.1-0.4-0.4-0.4-0.6
		c0-0.3,0-0.5,0.2-0.7l0.2-0.2l0,0l4.1-6c0.2-0.3,0.5-0.4,0.8-0.4c0.2,0,0.4,0.1,0.6,0.2l19.5,13.5c0.2,0.2,0.4,0.4,0.4,0.6
		c0,0.3,0,0.5-0.2,0.7L1481.3,694.6L1481.3,694.6z"/>
	<path class="st6" d="M1496.1,708.7v2h-35.4v-2c0-0.6,0.4-1,1-1h33.4C1495.6,707.7,1496.1,708.2,1496.1,708.7z"/>
	<path class="st14" d="M1478.9,705.2c0-0.7,0.6-1.3,1.3-1.3h12.7c0.7,0,1.3,0.6,1.3,1.3v2.5H1479L1478.9,705.2z"/>
	<rect x="1489.7" y="343.9" class="st6" width="119.3" height="4.9"/>
	<rect x="1498.7" y="346.6" class="st6" width="4.9" height="45.3"/>
	<rect x="1593.5" y="346.6" class="st6" width="4.9" height="45.3"/>
	<rect x="1519.7" y="297.4" class="st14" width="53.5" height="39.5"/>
	<rect x="1522.8" y="300.8" class="st6" width="47.2" height="32.8"/>
	<path class="st6" d="M1557.5,321.6c-0.4,0.4-0.6,1-0.5,1.5h-0.8c0-0.8,0.2-1.6,0.8-2.1c0.4-0.4,0.9-0.6,1.4-0.7
		c0.6-2.3,0.3-4.3-0.7-5.7c-1.1-1.4-2.7-2.3-4.5-2.5h-0.2l-0.1-0.1c-0.9-1-2.1-1.6-3.4-1.6c-1.2,0-2.3,0.4-3.2,1.1l1.1,1l-0.6,0.6
		l-1.4-1.3c-0.9-0.6-2-1-3.1-1c-2.7,0-4.4,2.6-4.4,2.6l-0.1,0.2h-0.2c-1.1,0-2.1,0.5-2.8,1.4c-1.3,1.7-0.8,4.5-0.8,4.6l0,0
		c-0.1,1.3,0.3,2.6,1.2,3.6c1.1,1,2.5,1.5,4,1.4c-0.2-0.4-0.4-0.8-0.4-1.2c0.1-0.9,0.5-1.8,1.2-2.4l0.5,0.6
		c-0.5,0.5-0.8,1.1-0.9,1.8c0,0.5,0.2,1,0.6,1.3c0.5,0.5,1.2,0.8,1.9,0.9c0.2,0,0.4,0,0.5-0.1c-0.1-1.3,0.3-2.5,1.1-3.5
		c0.4-0.4,0.8-0.7,1.2-0.9c-0.6-1.2-0.6-2.7-0.1-3.9c0-0.1,0.1-0.2,0.2-0.3c-0.3-0.5-1.3-2.1-2.6-2l-0.1-0.8
		c1.6-0.1,2.7,1.3,3.2,2.1c0.9-1,2.1-1.7,3.4-2.1l0.2,0.8c0,0-2.7,0.7-3.6,2.6c-0.4,1.1-0.4,2.2,0.1,3.3c0.7-0.2,1.5-0.4,2.3-0.4
		v0.8c-1.3,0-2.6,0.5-3.7,1.4c-0.7,0.8-1,1.9-0.9,3c0.8,1.9,2.1,2.9,3.7,2.9c0.6,0,1.2-0.1,1.7-0.4l1.1-1.4l0.6,0.5l-0.8,1.1
		c0.7,0.1,1.3,0.2,2,0.2c2.8,0,3.7-1.4,3.7-1.4l0.1-0.1h0.1c1.4-0.4,2.5-1.4,3.1-2.8c0.3-1,0.1-2-0.4-2.9
		C1558.1,321.1,1557.7,321.3,1557.5,321.6z M1535.6,321.6c-1-1.1-1.2-2.6-0.7-3.9l0.7,0.3c-0.4,1-0.1,2.2,0.6,3L1535.6,321.6z
		 M1538.2,319.3c-0.4,0.9-0.4,1.9,0.1,2.8l-0.7,0.3c-0.6-1.1-0.6-2.4,0-3.5c0-0.1,0.1-0.1,0.1-0.2c-0.1-0.4-0.4-1.4-1.2-1.5l0.1-0.8
		c0.8,0.1,1.6,0.7,1.8,1.5c0.9-0.8,2-1.3,3.2-1.5l0.1,0.8C1541.6,317.3,1539.1,317.7,1538.2,319.3L1538.2,319.3z M1552.5,323.2
		c0.8,0.2,1.6,0.6,2,1.4l-0.7,0.5c-0.3-0.5-0.9-0.9-1.5-1c-0.7-0.1-1.3,0.1-1.9,0.5c-1.1,1-2.6,1.6-4.1,1.5v-0.8
		c1.4,0.1,2.7-0.4,3.7-1.3l0,0c0.6-0.6,0.9-1.3,1-2.1v-0.1c0.1-0.8-0.3-1.5-0.9-1.9l0.4-0.7c0.8,0.5,1.3,1.4,1.3,2.4
		c0.6,0,1.2-0.2,1.7-0.7c0.3-0.5,0.4-1.2,0.2-1.8l0.8-0.2c0.3,0.9,0.1,1.8-0.3,2.5c-0.6,0.7-1.5,1.1-2.4,1.1c-0.1,0.3-0.2,0.7-0.3,1
		C1551.8,323.2,1552.2,323.2,1552.5,323.2L1552.5,323.2z M1554.1,314.9l0.3-0.8c0.1,0,2.6,0.9,2.6,4.7h-0.8
		C1556.1,315.7,1554.2,314.9,1554.1,314.9L1554.1,314.9z"/>
	<path class="st14" d="M1554.2,321.2c0.5-0.8,0.6-1.7,0.3-2.5l-0.8,0.2c0.2,0.6,0.1,1.3-0.2,1.8c-0.4,0.5-1,0.7-1.7,0.7
		c0-1-0.5-1.8-1.3-2.4l-0.4,0.7c0.6,0.4,1,1.2,0.9,1.9v0.1c-0.1,0.8-0.4,1.5-1,2.1l0,0c-1,0.9-2.3,1.4-3.7,1.3v0.8
		c1.5,0,3-0.5,4.1-1.5c0.5-0.4,1.2-0.6,1.9-0.5c0.6,0.1,1.1,0.5,1.5,1l0.7-0.5c-0.4-0.7-1.2-1.2-2-1.4c-0.4-0.1-0.7,0-1.1,0.1
		c0.1-0.3,0.2-0.6,0.2-0.9C1552.6,322.4,1553.5,321.9,1554.2,321.2z"/>
	<path class="st14" d="M1538.1,318.1c-0.2-0.6-0.7-1.6-1.7-1.6l-0.1,0.8c0.8,0.1,1.2,1.1,1.2,1.5c0,0.1-0.1,0.1-0.1,0.2
		c-0.6,1.1-0.6,2.4,0,3.5l0.7-0.3c-0.5-0.9-0.5-1.9-0.1-2.8c0.8-1.6,3.3-2,3.4-2l-0.1-0.8C1540.2,316.8,1539.1,317.4,1538.1,318.1z"
		/>
	<path class="st14" d="M1535.6,318l-0.7-0.3c-0.5,1.3-0.2,2.8,0.7,3.9l0.6-0.5C1536.1,320.8,1534.7,320.1,1535.6,318z"/>
	<path class="st14" d="M1556.9,318.8L1556.9,318.8c-0.1-1.9-1-3.6-2.6-4.7l-0.3,0.8c0.1,0,2,0.8,2,3.9L1556.9,318.8L1556.9,318.8z"
		/>
	<path class="st14" d="M1558.3,314.2c-1.2-1.6-3-2.6-4.9-2.9c-1-1.1-2.4-1.7-3.9-1.7c-1.4,0-2.8,0.5-3.9,1.4c-1-0.6-2.1-1-3.3-1
		c-2,0.1-3.9,1.2-5,2.9c-1.3,0.1-2.4,0.7-3.2,1.7c-1.4,1.9-1,4.8-0.9,5.2c-0.1,1.5,0.4,3,1.4,4.1c1.7,1.8,4.5,1.7,5.3,1.6
		c0.6,0.6,1.4,0.9,2.3,1c0.2,0,0.5,0,0.7-0.1c1.2,2.5,3,3,4.3,3c0.7,0,1.4-0.1,2-0.4c0.9,0.2,1.7,0.3,2.6,0.3c2.8,0,4-1.3,4.3-1.7
		c1.6-0.5,2.8-1.7,3.4-3.2c0.3-1.2,0.1-2.5-0.5-3.6C1559.7,318,1559.5,315.8,1558.3,314.2z M1558.8,324c-0.6,1.3-1.7,2.3-3.1,2.8
		h-0.1l-0.1,0.1c0,0-0.9,1.4-3.7,1.4c-0.7,0-1.3-0.1-2-0.2l0.8-1.1l-0.6-0.5l-1.1,1.5c-0.5,0.2-1.1,0.4-1.7,0.4
		c-1.6,0-2.8-1-3.7-2.9c-0.1-1.1,0.2-2.2,0.9-3c1-0.9,2.3-1.4,3.7-1.4v-0.8c-0.8,0-1.6,0.1-2.3,0.4c-0.5-1-0.5-2.2-0.1-3.3
		c0.9-1.9,3.5-2.6,3.6-2.6l-0.2-0.8c-1.3,0.4-2.5,1.1-3.4,2.1c-0.5-0.8-1.7-2.2-3.2-2.1l0.1,0.8c1.3-0.1,2.3,1.4,2.6,2
		c-0.1,0.1-0.1,0.2-0.2,0.3c-0.5,1.3-0.5,2.7,0.1,3.9c-0.5,0.2-0.9,0.5-1.2,0.9c-0.8,0.9-1.3,2.2-1.1,3.5c-0.2,0.1-0.3,0.1-0.5,0.1
		c-0.7-0.1-1.4-0.4-1.9-0.9c-0.4-0.3-0.6-0.8-0.6-1.3c0.1-0.7,0.4-1.3,0.9-1.8l-0.5-0.6c-0.7,0.6-1.1,1.5-1.2,2.4
		c0,0.4,0.1,0.9,0.4,1.2c-1.5,0.1-2.9-0.5-4-1.4c-0.9-1-1.3-2.3-1.2-3.6v-0.1c0,0-0.6-2.8,0.8-4.6c0.7-0.8,1.7-1.3,2.7-1.2l0.3-0.1
		l0.1-0.2c0,0,1.7-2.6,4.4-2.6c1.1,0,2.2,0.4,3.1,1l1.4,1.3l0.6-0.6l-1.1-1c1-0.7,2.1-1,3.2-1.1c1.3,0,2.5,0.6,3.4,1.6l0.1,0.1h0.2
		c1.8,0.2,3.4,1.1,4.5,2.5c1,1.4,1.2,3.4,0.7,5.7c-0.5,0.1-1,0.3-1.4,0.7c-0.5,0.6-0.8,1.4-0.8,2.1h0.8c0-0.6,0.1-1.1,0.5-1.5
		c0.3-0.3,0.6-0.4,1-0.5C1559,321.9,1559.1,323,1558.8,324L1558.8,324z"/>
	<polygon class="st15" points="1543.8,320.7 1551,309.5 1545.6,309.5 1547.5,302.1 1541.1,312.9 1545.6,312.9 	"/>
	<rect x="1544.4" y="334.5" class="st14" width="1.9" height="8"/>
	<rect x="1540.5" y="341.8" class="st14" width="10" height="2.1"/>
	<rect x="1562.8" y="308.9" class="st5" width="23.2" height="44.5"/>
	<rect x="1572.4" y="356.7" class="st15" width="3.8" height="35.6"/>
	<rect x="1566.2" y="388.5" class="st15" width="15.7" height="3.8"/>
	<rect x="1562.8" y="352.4" class="st14" width="23.3" height="5.7"/>
</g>
<g id="Business_Services">
	<rect x="991.2" y="349.1" class="st10" width="2" height="46.7"/>
	<polygon class="st18" points="979.8,394.7 1004.6,394.7 999.5,419.5 984.6,419.3 	"/>
	<rect x="980.4" y="419.2" class="st18" width="23.5" height="3.3"/>
	<polygon class="st1" points="996.3,347.1 992.2,351.2 988.1,347.1 992.1,339.2 	"/>
	<polygon class="st1" points="989,352.2 992,357.2 987.1,360.3 980.3,354.6 	"/>
	<polygon class="st1" points="996.1,364.2 992,360 996.2,355.9 1004.1,360 	"/>
	<rect x="1091.2" y="183.5" class="st10" width="2" height="46.7"/>
	<polygon class="st19" points="1079.8,229 1104.7,229 1099.6,253.9 1084.7,253.7 	"/>
	<rect x="1080.5" y="253.6" class="st19" width="23.5" height="3.3"/>
	<polygon class="st1" points="1096.4,181.5 1092.3,185.6 1088.2,181.5 1092.2,173.6 	"/>
	<polygon class="st1" points="1089,186.6 1092.1,191.5 1087.2,194.6 1080.3,188.9 	"/>
	<polygon class="st1" points="1096.2,198.5 1092.1,194.4 1096.3,190.3 1104.2,194.4 	"/>
	<path class="st19" d="M1039.9,413.7h3.6c0.5,0,1,0.4,1.2,0.9h14.3l-0.4-3.6c0-0.5-0.4-0.9-0.9-0.9l0,0H1026c-0.5,0-0.9,0.4-0.9,0.9
		l0,0l0,0l-0.4,3.6h14C1038.9,414.1,1039.4,413.7,1039.9,413.7z"/>
	<rect x="1037.5" y="418.2" class="st18" width="8.5" height="2.1"/>
	<path class="st19" d="M1035.1,408c0-0.8,0.7-1.5,1.5-1.5h10.3c0.8,0,1.5,0.7,1.5,1.5v2.1h1.5v-4.2c0-0.5-0.4-0.9-0.9-0.9l0,0h-14.5
		c-0.5,0-0.9,0.4-0.9,0.9l0,0v4.2h1.5V408z"/>
	<path class="st20" d="M1038.7,414.6h-14.4c-0.5-0.1-0.9,0.3-1,0.8s0.3,0.9,0.8,1c0.1,0,0.1,0,0.2,0h14.3L1038.7,414.6z"/>
	<path class="st20" d="M1059.3,414.6h-14.5l0.2,1.8h14.3h0.2l0,0c0.5-0.1,0.8-0.6,0.7-1.1C1060,415,1059.7,414.7,1059.3,414.6
		L1059.3,414.6z"/>
	<path class="st18" d="M1045.4,419.4c0,0.5-0.2,1-0.6,1.2v1.5c0,0.3-0.3,0.6-0.6,0.6h-4.8c-0.3,0-0.6-0.3-0.6-0.6l0,0v-1.5
		c-0.4-0.3-0.6-0.7-0.6-1.2l0.3-3h-13.8l1.7,13.8l0,0c0,0.5,0.4,0.9,0.9,0.9l0,0h29c0.5,0,0.9-0.4,0.9-0.9l0,0l0,0l2-13.8h-14.1
		L1045.4,419.4z"/>
	<path class="st20" d="M1045.5,420.1l-0.8-5.7l0,0c-0.1-0.4-0.4-0.6-0.8-0.6h-4.6c-0.4,0-0.7,0.2-0.8,0.6l0,0l-0.8,5.7
		c0,0.4,0.5,0.8,0.9,0.9l0,0c1.9,0.4,3.9,0.4,5.8,0C1045.1,420.9,1045.6,420.4,1045.5,420.1z M1044.8,419.8
		c-0.1,0.4-0.4,0.6-0.8,0.6h-4.6c-0.4,0-0.7-0.2-0.8-0.6v-0.9c0.1-0.4,0.4-0.6,0.8-0.6h4.6c0.4,0,0.7,0.2,0.8,0.6V419.8z"/>
	<path class="st20" d="M1038.7,420.7v2.1h6.1v-2.1c-1,0.4-2,0.5-3.1,0.5C1040.7,421.2,1039.7,421,1038.7,420.7z"/>
	<path class="st18" d="M1007.5,428.9c0-0.3-0.3-0.6-0.6-0.6h-11.6c-0.2,0-0.3,0.1-0.5,0.2c-0.1,0.1-0.2,0.3-0.2,0.5v10.3
		c0,0.2,0.1,0.3,0.2,0.5c0.1,0.1,0.3,0.2,0.5,0.2h9c0.3,0,0.5-0.1,0.6-0.4l2.7-9.9C1007.5,429.2,1007.5,429,1007.5,428.9z
		 M998.5,436v-3.9h3.7l-1,3.9H998.5z"/>
	<path class="st20" d="M1032,437.9l-1.3-7.7c0-0.3-0.3-0.5-0.6-0.5h-22.6l-2.7,10v-0.1l0.2-1c0.2,0.2,0.6,0.2,0.9,0l0.7-0.7l0.2-0.1
		l0.8,0.8c0.3,0.2,0.7,0.2,0.9,0l0.8-0.8l0.8,0.8c0.3,0.2,0.7,0.2,0.9,0l0.9-0.9l0.8,0.8c0.1,0.1,0.3,0.2,0.5,0.2s0.3-0.1,0.5-0.2
		l0.8-0.8l0.8,0.8c0.3,0.2,0.7,0.2,0.9,0l0.8-0.8l0.8,0.8c0.3,0.2,0.7,0.2,0.9,0l0.8-0.8l0.8,0.8c0.3,0.2,0.7,0.2,0.9,0l0.8-0.8
		l0.8,0.8c0.3,0.2,0.7,0.2,0.9,0l0.8-0.8l0.8,0.8c0.3,0.2,0.7,0.2,0.9,0l0.8-0.8l0.8,0.8c0.3,0.2,0.7,0.2,0.9,0l0.8-0.8l0.8,0.8
		c0.2,0.2,0.5,0.2,0.8,0.1C1031.8,438.4,1032,438.1,1032,437.9z"/>
	<rect x="1120.3" y="325.9" class="st20" width="3.6" height="3.6"/>
	<rect x="1133" y="339.6" class="st19" width="7.3" height="3.6"/>
	<rect x="1123.9" y="326.8" class="st19" width="1.8" height="1.8"/>
	<rect x="1118.5" y="326.4" class="st19" width="1.8" height="2.7"/>
	<line class="st21" x1="1115.2" y1="327.7" x2="1118.5" y2="327.7"/>
	<polygon class="st18" points="1133,330.9 1133.5,333.2 1133.5,333.7 1135.3,333.7 1134.9,330.9 	"/>
	<rect x="1125.8" y="325" class="st18" width="1.4" height="5"/>
	<polygon class="st20" points="1140.3,324.5 1138.1,324.1 1127.1,324.1 1127.1,325 1127.1,330 1127.1,330.9 1134.9,330.9 
		1135.8,337.3 1133,339.6 1140.3,339.6 1140.3,338.2 1139.4,337.3 1138.5,330.9 1140.3,330.5 	"/>
	<line class="st22" x1="1137.6" y1="325.9" x2="1140.3" y2="325.9"/>
	<line class="st22" x1="1137.6" y1="327.7" x2="1140.3" y2="327.7"/>
	<line class="st22" x1="1131.2" y1="324.1" x2="1131.2" y2="325.9"/>
	<line class="st22" x1="1133" y1="324.1" x2="1133" y2="325.9"/>
	<line class="st22" x1="1134.9" y1="324.1" x2="1134.9" y2="325.9"/>
	<rect x="1128.9" y="327.3" class="st19" width="7.3" height="1.8"/>
	<path class="st20" d="M1161.7,324.7h3.8c0.6,0,1.1,0.4,1.2,1h15.1l-0.4-3.8c0-0.6-0.4-1-1-1H1147c-0.6,0-1,0.4-1,1l0,0l-0.4,3.8
		h14.8C1160.5,325.1,1161.1,324.7,1161.7,324.7z"/>
	<rect x="1159.1" y="329.5" class="st18" width="8.9" height="2.2"/>
	<path class="st19" d="M1156.6,318.6c0-0.9,0.7-1.6,1.6-1.6h10.8c0.9,0,1.6,0.7,1.6,1.6v2.2h1.6v-4.5c0-0.6-0.4-1-1-1H1156
		c-0.6,0-1,0.4-1,1v4.5h1.6V318.6z"/>
	<path class="st19" d="M1160.4,325.7h-15.3c-0.5-0.2-1.1,0.1-1.3,0.7c-0.2,0.5,0.1,1.1,0.7,1.3c0.2,0.1,0.4,0.1,0.6,0h15.1
		L1160.4,325.7z"/>
	<path class="st19" d="M1182.2,325.7h-15.4l0.2,1.9h15.1c0.1,0,0.1,0,0.2,0l0,0c0.5-0.2,0.8-0.8,0.5-1.3
		C1182.7,326,1182.5,325.8,1182.2,325.7L1182.2,325.7z"/>
	<path class="st20" d="M1167.4,330.7c0,0.5-0.2,1-0.6,1.3v1.6c0,0.4-0.3,0.6-0.6,0.6l0,0h-5.1c-0.4,0-0.6-0.3-0.6-0.6l0,0V332
		c-0.4-0.3-0.6-0.8-0.6-1.3l0.3-3.2h-14.6l1.8,14.6l0,0c0,0.6,0.4,1,1,1h30.6c0.6,0,1-0.4,1-1l0,0l2-14.7h-14.9L1167.4,330.7z"/>
	<path class="st19" d="M1167.6,331.4l-0.8-6.1l0,0c-0.1-0.4-0.4-0.7-0.8-0.6h-4.8c-0.4,0-0.8,0.2-0.8,0.6l0,0l-0.8,6.1
		c0,0.4,0.5,0.8,0.9,0.9l0,0c2,0.4,4.1,0.4,6.2,0C1167.2,332.3,1167.6,331.8,1167.6,331.4z M1166.8,331.1c-0.1,0.4-0.4,0.7-0.8,0.6
		h-4.8c-0.4,0-0.8-0.2-0.8-0.6v-1c0.1-0.4,0.4-0.7,0.8-0.6h4.9c0.4,0,0.7,0.2,0.8,0.6L1166.8,331.1z"/>
	<path class="st19" d="M1160.4,332v2.2h6.5V332c-1,0.4-2.1,0.6-3.2,0.5C1162.5,332.6,1161.4,332.4,1160.4,332z"/>
	<path class="st19" d="M1139.3,379.3c0.1-0.1,0.1-0.3,0-0.4s-0.2-0.2-0.4-0.2h-2.4c-0.5,0-0.9-0.4-0.9-0.9s0.4-0.9,0.9-0.9l0,0h2.4
		c0.1,0,0.3-0.1,0.4-0.2s0.1-0.3,0-0.4c-0.2-0.4-0.5-0.8-0.8-1.2c-1.5-1.5-3.9-1.4-5.3,0.1c-0.2,0.2-0.3,0.4-0.5,0.6l-12.4,0.2
		c-1.2-1.7-3.6-2.1-5.3-0.9c-0.6,0.4-1,1-1.3,1.6c-0.1,0.1-0.1,0.3,0,0.4s0.2,0.2,0.4,0.2h2.4c0.5,0,0.9,0.4,0.9,0.9
		s-0.4,0.9-0.9,0.9h-2.4c-0.1,0-0.3,0.1-0.3,0.2c-0.1,0.1-0.1,0.3,0,0.4c0.2,0.4,0.5,0.8,0.8,1.1l0,0c1.5,1.5,3.9,1.4,5.4-0.1
		c0.2-0.2,0.3-0.4,0.5-0.6l12.4-0.2c0.1,0.2,0.3,0.4,0.5,0.5c0.7,0.7,1.7,1.1,2.7,1.1C1137.4,381.6,1138.7,380.7,1139.3,379.3z
		 M1130.7,378.3l-8.5,0.1c-0.1,0-0.2,0-0.3-0.1c-0.1-0.1-0.1-0.2-0.1-0.3c0-0.2,0.2-0.4,0.4-0.4l0,0l8.5-0.1c0.2,0,0.4,0.2,0.4,0.4
		l0,0C1131.2,378.1,1131,378.4,1130.7,378.3C1130.7,378.4,1130.7,378.4,1130.7,378.3L1130.7,378.3z"/>
	<path class="st19" d="M1149.9,378.2l17.9-7.9c0.3,1.3,0.6,2.7,0.8,4l0,0l-17.1,7.6c-0.5,0.2-1.1,0-1.3-0.5l-0.8-1.8
		C1149.2,379,1149.4,378.4,1149.9,378.2L1149.9,378.2z"/>
	<path class="st20" d="M1166.4,366.3l6-2.7c2.4,4.6,5.6,8.8,9.6,12.2c-0.2,0.7-1.3,2.8-5.7,4.8c-4.2,1.9-6.4,1.4-7.2,1.1l-0.2-0.1
		C1169.1,376.4,1168.3,371.2,1166.4,366.3z"/>
	<rect x="1109.2" y="343.2" class="st18" width="80.2" height="5.2"/>
	<rect x="1109.2" y="381.7" class="st18" width="80.2" height="5.2"/>
	<rect x="1109.2" y="420.3" class="st18" width="80.2" height="5.2"/>
	<rect x="1109.2" y="458.9" class="st18" width="80.2" height="5.2"/>
	<rect x="1104.1" y="322.8" class="st20" width="5.2" height="146.9"/>
	<rect x="1189.4" y="322.8" class="st20" width="5.2" height="146.9"/>
	<path class="st23" d="M1122.6,456.7c0.3,0,0.5-0.2,0.5-0.5l0,0v-17c0-0.3-0.2-0.5-0.5-0.5s-0.5,0.2-0.5,0.5l0,0v17
		C1122.1,456.5,1122.3,456.7,1122.6,456.7z"/>
	<rect x="1121" y="438.3" class="st18" width="3.2" height="19.4"/>
	<path class="st20" d="M1120,458.3c0,0.3,0.2,0.5,0.5,0.5l0,0h4.3c0.3,0,0.5-0.2,0.5-0.5l0,0v-20.9h-5.3V458.3z M1122.1,439.2
		c0-0.3,0.2-0.5,0.5-0.5s0.5,0.2,0.5,0.5l0,0v17c0,0.3-0.2,0.5-0.5,0.5s-0.5-0.2-0.5-0.5V439.2z"/>
	<path class="st19" d="M1128,430.1h-7.5c-0.3,0-0.5,0.2-0.5,0.5l0,0c0.1,0.9-0.6,1.7-1.5,1.7s-1.7-0.6-1.7-1.5c0-0.1,0-0.2,0-0.3
		c0-0.3-0.2-0.5-0.5-0.5l0,0h-2.1c-0.3,0-0.5,0.2-0.5,0.5l0,0v6.4c0,0.3,0.2,0.5,0.5,0.5l0,0h2.1c0.3,0,0.5-0.2,0.5-0.5l0,0
		c-0.1-0.9,0.6-1.7,1.5-1.7c0.9-0.1,1.7,0.6,1.7,1.5c0,0.1,0,0.2,0,0.3v0.3h5.3V437c0-2.1,1.7-3.7,3.7-3.7s3.7,1.7,3.7,3.7
		c0,0.3,0.2,0.5,0.5,0.5h1.1c0.3,0,0.5-0.2,0.5-0.5l0,0C1134.9,433.3,1131.8,430.2,1128,430.1z"/>
	<path class="st19" d="M1158.4,451.2c2.9,0.4,5.5,0.7,8,1.1c1.1,0.2,2.1,0.8,2.8,1.7c0.5,0.7,0.6,1.6,0.4,2.4s-0.7,1.4-1.4,1.8
		c-1,0.6-2.2,0.7-3.3,0.3c-1.6-0.5-3.2-1-4.7-1.5l-0.8-0.3c-4.2-1.3-8.2-2.6-11.9-3.4h-0.2l0.9-3.9
		C1151.8,450.3,1155.2,450.8,1158.4,451.2z"/>
	<path class="st2" d="M1137.8,451.8l1.4-6.2c1.1-5,6.2-5.9,8.3-6l-0.7,1c-1,1.3-1.9,2.8-2.5,4.4c-0.1,0.5-0.1,1.1,0.2,1.6
		c0.2,0.5,0.7,0.9,1.3,1.1c1.5,0.4,2.2,0.5,2.6,0.5l0,0c0,0,0.1,0,0.1,0.1v0.1l-1.3,5.9c0,0.1-0.1,0.2-0.2,0.1l-2.4-0.5
		c-0.4-0.1-0.8,0-1.1,0.2c-0.1,0.1-0.2,0.2-0.3,0.3l-4.9-1C1137.8,453,1137.6,452.4,1137.8,451.8z"/>
	<path class="st2" d="M1136.7,457.3l0.6-2.7c0.1-0.5,0.4-0.9,0.8-1.3l5,1c0.4,0.4,0.6,1,0.6,1.6l-0.6,2.7c0,0.1-0.1,0.2-0.2,0.1
		l-5.8-1.3c-0.2,0-0.2-0.1-0.2-0.1C1136.7,457.4,1136.7,457.4,1136.7,457.3z"/>
	<rect x="1169.9" y="416.2" class="st20" width="11" height="1.7"/>
	<polygon class="st19" points="1180.9,416.2 1182.4,415.6 1182.4,418.5 1180.9,417.9 	"/>
	<polygon class="st19" points="1186.1,417.8 1182.3,418.5 1182.3,415.6 1186.1,416.3 	"/>
	<polygon class="st19" points="1170,419.1 1168.5,418.4 1168.4,415.7 1170,415 	"/>
	<path class="st20" d="M1168.5,415.7h-1.6l-1.7-1.9h-9.4c-0.7,0.1-1.4,0.4-1.9,0.9c-0.6,0.6-1,1.4-1,2.3c0,1.7,1.2,3.1,2.9,3.3h9.5
		l1.6-1.9h1.6V415.7z M1155.7,414.7h9.4l0.6,0.7h-10V414.7z M1155.7,416.7h11.1v0.7h-11.1V416.7z M1165.1,419.3h-9.4v-0.7h10
		L1165.1,419.3z"/>
	
		<rect x="1155.4" y="408.5" transform="matrix(0.9182 -0.3962 0.3962 0.9182 -67.1833 493.448)" class="st20" width="11" height="1.7"/>
	<polygon class="st19" points="1165.6,406.5 1166.7,405.4 1167.9,408 1166.3,408.1 	"/>
	<polygon class="st19" points="1171.1,405.9 1167.9,408 1166.7,405.4 1170.5,404.5 	"/>
	<polygon class="st19" points="1156.8,413.4 1155.1,413.5 1154,410.9 1155.2,409.7 	"/>
	<path class="st20" d="M1154,410.9l-1.5,0.6l0,0l-2.3-1h-0.2l-0.6,0.2l-7.9,3.4l0,0c-1.6,0.9-2.2,2.9-1.3,4.5c0.8,1.4,2.4,2,3.9,1.5
		l0,0l8-3.4l0.5-0.2l0.3-0.1l0.7-2.4l0,0l1.5-0.6L1154,410.9z M1142,415.1l8.6-3.7l0.8,0.4l-9.2,4L1142,415.1z M1142.8,416.9
		l10.1-4.3l0.3,0.7l-10.2,4.3L1142.8,416.9z M1152.5,415.6l-8.6,3.7l-0.3-0.6l9.2-4L1152.5,415.6z"/>
	<rect x="891.2" y="185" class="st2" width="11.7" height="1.6"/>
	<rect x="899.2" y="172.7" class="st18" width="1.6" height="1.6"/>
	<path class="st19" d="M895.1,172.7h4.1v2.1l-3.6,2.8h-6.2C889.9,174.8,892.3,172.7,895.1,172.7z"/>
	<rect x="892.4" y="177.6" class="st18" width="3.3" height="1.6"/>
	<polygon class="st19" points="889.9,181.2 891.9,179.2 896.2,179.2 899.8,182.8 899.8,185 889.9,185 	"/>
	<polygon class="st19" points="881.4,176.4 886.5,176.4 888.8,179.4 879,179.4 	"/>
	<rect x="882.3" y="172.3" class="st18" width="3.3" height="4.1"/>
	<rect x="879" y="179.4" class="st18" width="9.8" height="5.7"/>
	<polygon class="st18" points="897.8,214 881.4,214 875.9,186.6 902,186.6 	"/>
	<rect x="874.5" y="185" class="st2" width="7.2" height="1.6"/>
	<path class="st20" d="M908,216.7h-1.3c-0.6,0-1.3-0.2-1.9-0.4c-1.6-0.8-3.5-0.8-5.2,0c-0.6,0.3-1.2,0.4-1.9,0.4h-1.3
		c-1.8,0-3.3-1.5-3.3-3.3l0,0v-3.1c0.9,0.8,2.1,3.1,3.3,3.1h1.3c0.9,0,1.8-0.2,2.6-0.6c1.2-0.6,2.5-0.6,3.7,0
		c0.8,0.4,1.7,0.6,2.6,0.6h1.3c1.2,0,2.4-2.3,3.3-3.1v3.1C911.3,215.3,909.8,216.7,908,216.7L908,216.7z"/>
	<path class="st20" d="M889.9,185h1.4v4.8c0,0.3,0.1,0.5,0.4,0.6l4.1,2c0.2,0.1,0.3,0.3,0.4,0.5c0.1,0.2,0,0.5-0.1,0.7
		c-0.2,0.4-0.7,0.6-1.1,0.4l0,0l0,0l-2.8-1.3c-0.3-0.2-0.8,0-0.9,0.3c0,0.1-0.1,0.2-0.1,0.3v6.8c0,0.8-0.6,1.4-1.4,1.4v-5.4
		c0-0.4-0.3-0.7-0.7-0.7l0,0c-0.4,0-0.7,0.3-0.7,0.7l0,0v4.8c0,0.4-0.3,0.7-0.7,0.7l0,0l0,0c-0.4,0-0.7-0.3-0.7-0.7l0,0v-4.8
		c0-0.4-0.3-0.7-0.7-0.7l0,0c-0.4,0-0.7,0.3-0.7,0.7l0,0v4.8c0,0.4-0.3,0.7-0.7,0.7l0,0l0,0c-0.4,0-0.7-0.3-0.7-0.7l0,0v-4.8
		c0-0.4-0.3-0.7-0.7-0.7l0,0c-0.4,0-0.7,0.3-0.7,0.7l0,0v5.4c-0.8,0-1.4-0.6-1.4-1.4v-15L889.9,185z"/>
	<path class="st11" d="M904.9,207.6c0.6-0.3,1.2-0.4,1.9-0.4h1.3c1.8-0.1,3.4,1.3,3.5,3.1s-1.3,3.4-3.1,3.5c-0.1,0-0.2,0-0.4,0h-1.3
		c-0.6,0-1.3-0.2-1.9-0.4c-1.6-0.8-3.5-0.8-5.2,0c-0.6,0.3-1.2,0.4-1.9,0.4h-1.3c-1.8,0.1-3.4-1.3-3.5-3.1s1.3-3.4,3.1-3.5
		c0.1,0,0.2,0,0.4,0h1.3c0.6,0,1.3,0.2,1.9,0.4C901.3,208.4,903.2,208.4,904.9,207.6z"/>
	<path class="st0" d="M855.5,179.6c-6.4,0-11.5-3.4-11.5-7.6s5-7.6,11.5-7.6s11.5,3.4,11.5,7.6S861.9,179.6,855.5,179.6z
		 M855.5,166.9c-4.8,0-8.9,2.3-8.9,5.1s4.1,5.1,8.9,5.1s8.9-2.3,8.9-5.1S860.3,166.9,855.5,166.9z"/>
	<rect x="839" y="151.8" class="st2" width="33.2" height="50.5"/>
	<path class="st18" d="M837.8,139.9h35.4c0.8,0,1.4,0.6,1.4,1.4v9.2c0,0.8-0.6,1.4-1.4,1.4h-35.4c-0.8,0-1.4-0.6-1.4-1.4v-9.2
		C836.4,140.5,837,139.9,837.8,139.9z"/>
	<rect x="835" y="202.2" class="st18" width="40.8" height="7.1"/>
	<circle class="st2" cx="844" cy="209.9" r="3.7"/>
	<circle class="st2" cx="867" cy="209.9" r="3.7"/>
	<ellipse class="st18" cx="855.2" cy="172.3" rx="9.8" ry="5.4"/>
	<rect x="835" y="165.3" class="st18" width="3.9" height="13.6"/>
	<rect x="801.8" y="208.8" class="st20" width="28.2" height="5.2"/>
	<polygon class="st18" points="805.5,208.8 813.4,199.9 818.9,199.9 826.4,208.8 	"/>
	<rect x="813.4" y="140.3" class="st2" width="5.5" height="59.5"/>
	<rect x="813.4" y="140.3" class="st2" width="16.7" height="5"/>
	<rect x="825.1" y="145.3" class="st2" width="4.9" height="29.6"/>
	<rect x="828.8" y="169.4" class="st2" width="6.2" height="5.5"/>
	<rect x="813.4" y="154.1" class="st18" width="5.5" height="16.8"/>
	<polyline class="st24" points="809.3,152.3 809.3,161.3 814,161.3 	"/>
	<line class="st25" x1="855.6" y1="139.9" x2="855.6" y2="151.8"/>
	<line class="st25" x1="860.9" y1="139.9" x2="860.9" y2="151.8"/>
	<polygon class="st20" points="991.5,167.1 977.4,167.1 974.6,144.5 994.4,144.5 	"/>
	<path class="st11" d="M984.5,135.4c-5,0-9.1,4.1-9.1,9.1h18.2C993.6,139.5,989.5,135.4,984.5,135.4z"/>
	<rect x="1010.6" y="138.1" class="st2" width="27.9" height="1.6"/>
	<polygon class="st18" points="1033.4,167.1 1017,167.1 1011.6,139.8 1037.5,139.8 	"/>
	<rect x="1038" y="147.7" class="st18" width="1.1" height="1.1"/>
	<path class="st19" d="M1035.2,147.7h2.8v1.4l-2.5,2h-4.3C1031.5,149.2,1033.2,147.7,1035.2,147.7z"/>
	<rect x="1033.2" y="151.1" class="st18" width="2.3" height="1.1"/>
	<polygon class="st19" points="1031.5,153.6 1032.9,152.2 1035.9,152.2 1038.4,154.8 1038.4,167.1 1031.5,167.1 	"/>
	<rect x="1033.9" y="158.4" class="st18" width="4.4" height="3.1"/>
	<polygon class="st20" points="1019.8,167.1 995.8,167.1 997.2,162.9 1018.3,162.9 	"/>
	<polygon class="st19" points="1013.4,162.9 1002.1,162.9 1003.5,157.2 1012,157.2 	"/>
	<rect x="1006.3" y="93.7" class="st18" width="2.8" height="63.5"/>
</g>
<g id="Education_Training">
	<rect x="811.3" y="514.5" class="st26" width="102.7" height="4"/>
	<rect x="811.3" y="565.5" class="st26" width="102.7" height="4"/>
	<rect x="903.6" y="615.1" class="st26" width="11" height="4"/>
	<rect x="811.4" y="615.1" class="st26" width="11" height="4"/>
	<rect x="816.5" y="518.5" class="st13" width="93.5" height="47.1"/>
	<rect x="906.9" y="568.8" class="st26" width="4" height="47.4"/>
	<rect x="814.7" y="568.9" class="st26" width="4" height="47.4"/>
	<path class="st12" d="M865.5,555.1c1.1-0.3,2.1-0.7,3.1-1.3l1.8,1.8c0.4,0.4,1.1,0.4,1.6,0l0,0l3.5-3.5c0.4-0.4,0.4-1.1,0-1.6l0,0
		l-1.8-1.8c0.6-1,1-2,1.3-3.1h2.6c0.6,0,1.1-0.5,1.2-1.1l0,0v-5c0-0.6-0.5-1.1-1.1-1.2l0,0H875c-0.3-1.1-0.7-2.1-1.3-3.1l1.8-1.8
		c0.4-0.4,0.4-1.1,0-1.6l0,0l-3.5-3.5c-0.4-0.4-1.1-0.4-1.6,0l0,0l-1.8,1.8c-1-0.6-2-1-3.1-1.3v-2.6c0-0.6-0.5-1.1-1.1-1.2l0,0h-5
		c-0.6,0-1.1,0.5-1.2,1.1l0,0v2.6c-1.1,0.3-2.1,0.7-3.1,1.3l-1.8-1.8c-0.4-0.4-1.1-0.4-1.6,0l0,0l-3.6,3.5c-0.4,0.4-0.4,1.2,0,1.6
		l0,0l1.8,1.9c-0.5,1-1,2-1.3,3.1H846c-0.6,0-1.1,0.5-1.1,1.1v5c0,0.6,0.5,1.1,1.1,1.2l0,0h2.6c0.3,1.1,0.7,2.1,1.3,3.1l-1.9,1.8
		c-0.4,0.4-0.4,1.2,0,1.6l0,0l3.5,3.5c0.4,0.4,1.1,0.4,1.6,0l0,0l1.8-1.8c1,0.6,2,1,3.1,1.3v2.6c0,0.6,0.5,1.1,1.1,1.2l0,0h5
		c0.6,0,1.1-0.5,1.1-1.1l0,0L865.5,555.1L865.5,555.1z M861.9,550.5c-4.7,0-8.4-3.8-8.4-8.4c0-4.7,3.8-8.4,8.4-8.4
		c4.7,0,8.4,3.8,8.4,8.4l0,0C870.3,546.7,866.5,550.5,861.9,550.5L861.9,550.5z"/>
	<rect x="1016" y="696.9" class="st13" width="89" height="3.5"/>
	<rect x="1019.5" y="700.3" class="st26" width="81" height="40.8"/>
	<rect x="1016" y="741.1" class="st13" width="89" height="3.5"/>
	<rect x="1015.5" y="784.1" class="st13" width="9.5" height="3.5"/>
	<rect x="1095.4" y="784.1" class="st13" width="9.5" height="3.5"/>
	<rect x="1018.7" y="744" class="st13" width="3.5" height="41.1"/>
	<rect x="1098.5" y="744" class="st13" width="3.5" height="41.1"/>
	<rect x="683.7" y="675.1" class="st26" width="47.5" height="4"/>
	<rect x="683.7" y="726.2" class="st26" width="47.5" height="4"/>
	<rect x="683.1" y="775.8" class="st26" width="11" height="4"/>
	<rect x="720.8" y="775.8" class="st26" width="11" height="4"/>
	<rect x="687.7" y="679.1" class="st12" width="39.4" height="47.2"/>
	<rect x="686.8" y="729.5" class="st26" width="4" height="47.5"/>
	<rect x="724.1" y="729.5" class="st26" width="4" height="47.5"/>
	<rect x="964.2" y="696.9" class="st26" width="41.1" height="3.5"/>
	<rect x="964.2" y="741.1" class="st26" width="41.1" height="3.5"/>
	<rect x="963.7" y="784.1" class="st26" width="9.5" height="3.5"/>
	<rect x="996.4" y="784.1" class="st26" width="9.5" height="3.5"/>
	<rect x="967.7" y="700.3" class="st12" width="34.1" height="40.8"/>
	<rect x="966.9" y="744" class="st26" width="3.5" height="41.1"/>
	<rect x="999.2" y="744" class="st26" width="3.5" height="41.1"/>
	<path class="st26" d="M979.6,714.2c1.4-1.1,2.3-2.7,2.7-4.5c-2.4-1-4.6-1.1-6,0.1s-1.9,3.4-1.4,5.9
		C976.6,715.8,978.2,715.3,979.6,714.2z"/>
	<path class="st13" d="M986.7,727.7l1.3-1.1c1.2,1.2,2.4,1.9,2.9,1.5s0.2-1.7-0.8-3.2l1.4-1.1c0,0,5.1,0.5,2.8-2.1
		c-1.1-1-2.5-1.5-3.9-1.5c-0.6-2.3-1.7-4.5-3.2-6.4c-1.3-1.8-3-3.2-5-4.3c-0.4,1.7-1.3,3.3-2.8,4.4c-1.3,1-3,1.6-4.7,1.6
		c0.6,2.1,1.6,4.1,3,5.7c1.5,1.9,3.4,3.5,5.6,4.6c-0.4,1.3-0.2,2.8,0.5,4C986,732.9,986.6,727.7,986.7,727.7z M979.7,720.5
		c-1.4-1.7-1.1-4.2,0.6-5.6c1.7-1.4,4.2-1.1,5.6,0.6c1.4,1.7,1.1,4.2-0.6,5.6c0,0,0,0-0.1,0.1c-1.6,1.4-4.1,1.1-5.4-0.5
		C979.8,720.6,979.8,720.6,979.7,720.5L979.7,720.5z"/>
	<circle class="st26" cx="982.9" cy="718.1" r="4"/>
</g>
<g id="Community_Engagement">
	<rect x="288.9" y="290.5" class="st4" width="113.8" height="27.7"/>
	<rect x="288.9" y="330.1" class="st4" width="113.8" height="12.4"/>
	<rect x="288.9" y="318.1" class="st27" width="38.1" height="12.1"/>
	<rect x="326.8" y="318.1" class="st28" width="38.1" height="12.1"/>
	<rect x="364.6" y="318.1" class="st27" width="38.1" height="12.1"/>
	<rect x="270.9" y="305.4" class="st28" width="27.3" height="13"/>
	<rect x="393.4" y="305.4" class="st28" width="27.3" height="13"/>
	<rect x="275.7" y="318" class="st28" width="13.2" height="24.5"/>
	<rect x="402.6" y="318" class="st28" width="13.2" height="24.5"/>
	<rect x="278.4" y="342.5" class="st4" width="8.1" height="6.4"/>
	<rect x="405.1" y="342.5" class="st4" width="8.1" height="6.4"/>
	<rect x="297.2" y="388.7" class="st10" width="2" height="46.7"/>
	<polygon class="st28" points="285.8,434.2 310.6,434.2 305.6,459.1 290.6,458.9 	"/>
	<rect x="286.5" y="458.7" class="st27" width="23.5" height="3.3"/>
	<polygon class="st1" points="302.4,386.6 298.3,390.8 294.1,386.6 298.2,378.7 	"/>
	<polygon class="st1" points="295,391.8 298.1,396.7 293.2,399.8 286.3,394.1 	"/>
	<polygon class="st1" points="302.2,403.7 298.1,399.5 302.3,395.4 310.1,399.6 	"/>
	<rect x="399" y="79.7" class="st28" width="119.3" height="29.1"/>
	<rect x="399" y="121.2" class="st28" width="119.3" height="13"/>
	<rect x="399" y="108.6" class="st27" width="39.9" height="12.6"/>
	<rect x="438.6" y="108.6" class="st4" width="39.9" height="12.6"/>
	<rect x="478.4" y="108.6" class="st27" width="39.9" height="12.6"/>
	<rect x="380.2" y="95.3" class="st4" width="28.6" height="13.6"/>
	<rect x="508.5" y="95.3" class="st4" width="28.6" height="13.6"/>
	<rect x="385.2" y="108.5" class="st4" width="13.8" height="25.7"/>
	<rect x="518.1" y="108.5" class="st4" width="13.8" height="25.7"/>
	<rect x="388" y="134.2" class="st27" width="8.5" height="6.7"/>
	<rect x="520.8" y="134.2" class="st27" width="8.5" height="6.7"/>
	<polygon class="st27" points="317.8,136.9 298,136.9 302,117.1 313.9,117.3 	"/>
	<rect x="306.6" y="137" class="st28" width="2.6" height="59.2"/>
	<rect x="300.3" y="195" class="st28" width="15.3" height="2.3"/>
</g>
<g id="Gifting">
	<path class="st10" d="M404.5,678.2h-21.7v32.3h20.4c0.8,0,1.3-0.7,1.3-1.4L404.5,678.2L404.5,678.2z"/>
	<path class="st29" d="M358.1,709c0,0.7,0.5,1.4,1.3,1.4h20.4v-32.3h-21.6L358.1,709L358.1,709z"/>
	<path class="st29" d="M406.1,668.8h-23.3v9.5h23.3c0.7,0,1.3-0.6,1.3-1.3v-6.9C407.4,669.4,406.9,668.8,406.1,668.8L406.1,668.8z"
		/>
	<path class="st10" d="M355.2,670.1v6.9c0,0.7,0.6,1.3,1.3,1.3h23.3v-9.5h-23.3C355.8,668.8,355.2,669.4,355.2,670.1L355.2,670.1z"
		/>
	<path class="st30" d="M379.7,668.8v41.6h3.2v-41.6c7.5-0.3,16.1-2.9,18.2-7.3c0.9-1.8,0.6-4-0.6-5.6c-2.6-3.2-7.3-3.9-10.7-1.5
		c-3.8,2.5-6.8,6.7-8.4,9.3c-1.6-2.7-4.6-6.8-8.4-9.3c-3.4-2.3-8.1-1.7-10.7,1.5c-1.3,1.6-1.5,3.8-0.7,5.6
		C363.7,665.9,372.2,668.5,379.7,668.8z M384,665.4c1.5-2.4,4.1-6.1,7.5-8.3c0.9-0.6,1.9-0.9,2.9-0.9c1.4-0.1,2.7,0.5,3.6,1.6
		c0.6,0.6,0.7,1.4,0.4,2.1C397,662.6,390.7,664.9,384,665.4L384,665.4z M364.7,657.9c0.9-1.1,2.2-1.7,3.6-1.6c1,0,2,0.3,2.9,0.9
		c3.3,2.2,6,5.9,7.5,8.3c-6.7-0.5-13-2.8-14.3-5.5C364,659.3,364.2,658.4,364.7,657.9z"/>
	<line class="st31" x1="364.4" y1="591.5" x2="364.4" y2="634.9"/>
	<line class="st31" x1="371.9" y1="589.1" x2="371.9" y2="628.7"/>
	<line class="st31" x1="341.4" y1="610" x2="341.4" y2="655.3"/>
	<line class="st31" x1="349.3" y1="600.6" x2="349.3" y2="648.4"/>
	<line class="st31" x1="357.1" y1="594.4" x2="357.1" y2="641.3"/>
	<line class="st31" x1="417.6" y1="610" x2="417.6" y2="655.3"/>
	<line class="st31" x1="409.7" y1="600.6" x2="409.7" y2="648.4"/>
	<line class="st31" x1="401.8" y1="594.4" x2="401.8" y2="641.3"/>
	<line class="st31" x1="394.4" y1="591.5" x2="394.4" y2="634.9"/>
	<line class="st31" x1="386.9" y1="589.1" x2="386.9" y2="628.7"/>
	<line class="st31" x1="379.4" y1="588.4" x2="379.4" y2="623.2"/>
	<path class="st31" d="M335.1,710.4v-77.7c0.4-24.5,20.5-44.1,45-43.7c24,0.4,43.3,19.7,43.7,43.7v77.7"/>
	<line class="st31" x1="671.1" y1="468.3" x2="671.1" y2="511.6"/>
	<line class="st31" x1="678.6" y1="465.8" x2="678.6" y2="505.4"/>
	<line class="st31" x1="648.1" y1="486.7" x2="648.1" y2="532.1"/>
	<line class="st31" x1="656" y1="477.4" x2="656" y2="525.2"/>
	<line class="st31" x1="663.8" y1="471.2" x2="663.8" y2="518.1"/>
	<line class="st31" x1="724.3" y1="486.7" x2="724.3" y2="532.1"/>
	<line class="st31" x1="716.4" y1="477.4" x2="716.4" y2="525.2"/>
	<line class="st31" x1="708.5" y1="471.2" x2="708.5" y2="518.1"/>
	<line class="st31" x1="701.1" y1="468.3" x2="701.1" y2="511.6"/>
	<line class="st31" x1="693.6" y1="465.8" x2="693.6" y2="505.4"/>
	<line class="st31" x1="686.1" y1="465.2" x2="686.1" y2="499.9"/>
	<path class="st31" d="M641.8,587.2v-77.7c0-24.5,19.9-44.3,44.4-44.3s44.3,19.9,44.3,44.3v77.7"/>
	<path class="st10" d="M577,451h-52.3v-30.2l12.1-15.4h5.8v22.5c0,0.4,0.2,0.8,0.6,0.9c0.1,0.1,0.3,0.1,0.4,0.1
		c0.3,0,0.5-0.1,0.7-0.3l6.8-6.6l6.8,6.6c0.3,0.3,0.7,0.4,1.1,0.2c0.4-0.2,0.6-0.5,0.6-0.9v-22.5H577V451z"/>
	<path class="st30" d="M559.8,405.3v27.2l-7.9-7.7c-0.3-0.2-0.6-0.4-1-0.4s-0.7,0.1-1,0.4l-7.9,7.6v-27.2h17.8L559.8,405.3
		L559.8,405.3z"/>
	
		<rect x="487.7" y="423.4" transform="matrix(0.6179 -0.7863 0.7863 0.6179 -137.166 569.5423)" class="st30" width="59.4" height="5"/>
	<rect x="591.3" y="342.5" class="st10" width="123" height="75.9"/>
	<circle class="st32" cx="614.1" cy="418" r="10.1"/>
	<circle class="st32" cx="689.9" cy="418" r="10.1"/>
	<rect x="591.3" y="332.7" class="st10" width="4.3" height="15.4"/>
	<polygon class="st10" points="595.6,336.8 595.5,332.7 581.8,332.7 581.8,336.9 	"/>
	<rect x="611.8" y="312.1" class="st30" width="40.7" height="30.5"/>
	<rect x="653.9" y="312.1" class="st32" width="40.7" height="30.5"/>
	<path class="st32" d="M646.8,306.6c0.6-1.3,0.5-2.9-0.5-4.1c-1.9-2.4-5.4-2.9-7.9-1.1s-4.6,4.2-6.2,6.9c-1.6-2.7-3.7-5-6.2-6.9
		c-2.5-1.7-6-1.2-7.9,1.1c-0.9,1.2-1.1,2.8-0.5,4.1c1.6,3.3,7.9,5.2,13.4,5.4v30.6h2.4V312C638.9,311.7,645.2,309.8,646.8,306.6z
		 M619.7,305.5c-0.2-0.5-0.1-1.1,0.3-1.6c0.6-0.8,1.6-1.2,2.6-1.2c0.8,0,1.5,0.2,2.1,0.6c2.2,1.6,4.1,3.7,5.5,6.1
		C625.3,309.1,620.6,307.4,619.7,305.5L619.7,305.5z M644.7,305.5c-0.9,1.9-5.6,3.6-10.5,4c1.4-2.4,3.3-4.5,5.5-6.1
		c0.6-0.4,1.4-0.6,2.1-0.6c1,0,2,0.4,2.6,1.2C644.8,304.3,644.9,304.9,644.7,305.5L644.7,305.5z"/>
	<path class="st30" d="M688.8,306.6c0.6-1.3,0.5-2.9-0.5-4.1c-1.9-2.4-5.4-2.9-7.9-1.1s-4.6,4.2-6.2,6.9c-1.6-2.7-3.7-5-6.2-6.9
		c-2.5-1.7-6-1.2-7.9,1.1c-0.9,1.2-1.1,2.8-0.5,4.1c1.6,3.3,7.9,5.2,13.4,5.4v30.6h2.3V312C680.9,311.7,687.2,309.8,688.8,306.6z
		 M661.7,305.5c-0.2-0.5-0.1-1.1,0.3-1.6c0.6-0.8,1.6-1.2,2.6-1.2c0.8,0,1.5,0.2,2.1,0.6c2.2,1.6,4.1,3.7,5.5,6.1
		C667.3,309.1,662.6,307.4,661.7,305.5L661.7,305.5z M686.7,305.5c-0.9,1.9-5.6,3.6-10.5,4c1.4-2.4,3.3-4.5,5.5-6.1
		c0.6-0.4,1.4-0.6,2.1-0.6c1,0,2,0.4,2.6,1.2C686.8,304.3,686.9,304.9,686.7,305.5L686.7,305.5z"/>
	<path class="st32" d="M521.4,735.9c0,1,0.7,1.8,1.6,1.8h25.8v-40.9h-27.5v39.1L521.4,735.9L521.4,735.9z"/>
	<path class="st29" d="M580.2,696.8h-27.5v40.9h25.8c1-0.1,1.7-0.9,1.6-1.8v-39.1L580.2,696.8L580.2,696.8z"/>
	<path class="st29" d="M517.7,686.6v8.7c0,0.9,0.7,1.7,1.6,1.7l0,0h29.6v-12.1h-29.6C518.4,684.9,517.7,685.7,517.7,686.6z"/>
	<path class="st32" d="M582.3,684.9h-29.6V697h29.6c0.9,0,1.6-0.8,1.6-1.7l0,0v-8.8C583.9,685.7,583.2,684.9,582.3,684.9z"/>
	<path class="st30" d="M575.9,675.6c1.1-2.3,0.8-5.1-0.8-7.1c-2.6-3.6-8.7-5.2-13.6-2c-4.9,3.2-8.6,8.5-10.7,11.8
		c-2.1-3.4-5.8-8.6-10.7-11.8s-11-1.6-13.6,2c-1.6,2-1.9,4.8-0.8,7.1c2.7,5.7,13.6,8.9,23.1,9.3v52.8h4v-52.8
		C562.4,684.5,573.2,681.2,575.9,675.6z M529.3,673.7c-0.4-0.9-0.3-2,0.5-2.7c1.1-1.3,2.8-2.1,4.5-2c1.3,0,2.6,0.4,3.7,1.1
		c4.2,2.8,7.6,7.5,9.5,10.6C538.9,680,530.9,677,529.3,673.7L529.3,673.7z M572.3,673.7c-1.6,3.3-9.6,6.3-18.1,6.9
		c1.9-3,5.2-7.8,9.5-10.6c1.1-0.7,2.4-1.1,3.7-1.1c1.7-0.1,3.4,0.7,4.5,2C572.6,671.7,572.8,672.8,572.3,673.7L572.3,673.7z"/>
	<path class="st30" d="M533.7,775.8h-60.1V741l13.9-17.7h6.7v25.8c0,0.5,0.3,0.9,0.7,1.1c0.1,0.1,0.3,0.1,0.4,0.1
		c0.3,0,0.6-0.1,0.8-0.3l7.8-7.6l7.8,7.6c0.3,0.3,0.8,0.4,1.3,0.2c0.4-0.2,0.7-0.6,0.7-1.1v-25.8h19.9L533.7,775.8L533.7,775.8z"/>
	<path class="st32" d="M513.9,723.3v31.2l-9-8.8c-0.3-0.3-0.7-0.4-1.1-0.4s-0.8,0.2-1.1,0.4l-9,8.8v-31.2H513.9z"/>
	
		<rect x="431" y="744.1" transform="matrix(0.6179 -0.7863 0.7863 0.6179 -409.6235 651.1989)" class="st32" width="68.4" height="5.8"/>
	<path class="st32" d="M709,555.3h-21.7v32.2h20.4c0.7,0,1.3-0.7,1.3-1.4V555.3z"/>
	<path class="st29" d="M662.6,586.1c0,0.7,0.5,1.4,1.3,1.4l0,0h20.4v-32.2h-21.6v30.8H662.6z"/>
	<path class="st29" d="M710.6,546h-23.3v9.5h23.3c0.7,0,1.3-0.6,1.3-1.3l0,0v-6.9C711.9,546.6,711.3,546,710.6,546L710.6,546z"/>
	<path class="st32" d="M659.7,547.3v6.9c0,0.7,0.6,1.3,1.3,1.3l0,0h23.3V546H661C660.2,546,659.6,546.6,659.7,547.3L659.7,547.3z"/>
	<path class="st30" d="M684.2,545.9v41.6h3.2v-41.6c7.5-0.3,16.1-2.9,18.2-7.4c0.9-1.8,0.6-4-0.7-5.6c-2.6-3.2-7.3-3.9-10.7-1.5
		c-3.8,2.5-6.8,6.7-8.4,9.3c-1.6-2.7-4.6-6.8-8.4-9.3c-3.4-2.4-8.1-1.7-10.7,1.5c-1.3,1.6-1.5,3.7-0.6,5.5
		C668.1,543.1,676.7,545.6,684.2,545.9z M688.5,542.6c1.5-2.4,4.1-6.1,7.5-8.3c0.9-0.6,1.9-0.9,2.9-0.9c1.4,0,2.7,0.6,3.6,1.6
		c0.6,0.6,0.7,1.4,0.4,2.1C701.5,539.7,695.2,542.1,688.5,542.6L688.5,542.6z M669.2,535c0.9-1.1,2.2-1.7,3.6-1.6c1,0,2,0.3,2.9,0.9
		c3.3,2.2,6,5.9,7.5,8.3c-6.7-0.5-13-2.8-14.3-5.5C668.5,536.4,668.6,535.5,669.2,535L669.2,535z"/>
</g>
<g id="Pantry">
	<rect x="1368.5" y="148.7" class="st1" width="23.6" height="35"/>
	<rect x="1371.6" y="183.3" class="st1" width="3.9" height="2.2"/>
	<rect x="1385.2" y="183.3" class="st1" width="3.9" height="2.2"/>
	<path class="st2" d="M1379.2,122.7h2.1c4.4,0,8,3.6,8,8v9.3c0,4.4-3.6,8-8,8h-2.1c-4.4,0-8-3.6-8-8v-9.3
		C1371.2,126.3,1374.7,122.7,1379.2,122.7z"/>
	<path class="st11" d="M1372.3,128.2h16c1.3,0,2.4,1.1,2.4,2.4v0.7c0,1.3-1.1,2.4-2.4,2.4h-16c-1.3,0-2.4-1.1-2.4-2.4v-0.7
		C1369.9,129.3,1371,128.2,1372.3,128.2z"/>
	<path class="st11" d="M1372.3,136.7h16c1.3,0,2.4,1.1,2.4,2.4v0.7c0,1.3-1.1,2.4-2.4,2.4h-16c-1.3,0-2.4-1.1-2.4-2.4v-0.7
		C1369.9,137.8,1371,136.7,1372.3,136.7z"/>
	<rect x="1376.7" y="147.9" class="st2" width="7.3" height="0.8"/>
	<rect x="1370.8" y="155.7" class="st8" width="18.9" height="12.3"/>
	<rect x="1375" y="155.6" class="st1" width="2.1" height="2.4"/>
	<rect x="1375.5" y="157.9" class="st1" width="1.1" height="1.2"/>
	<rect x="1383.6" y="155.6" class="st1" width="2.1" height="2.4"/>
	<rect x="1384.1" y="157.9" class="st1" width="1.1" height="1.2"/>
	<rect x="1377.1" y="150.5" class="st8" width="6.7" height="3.8"/>
	<path class="st8" d="M1372.3,151.6h3.1c0.4,0,0.8,0.4,0.8,0.8v0.2c0,0.4-0.4,0.8-0.8,0.8h-3.1c-0.4,0-0.8-0.4-0.8-0.8v-0.2
		C1371.5,152,1371.8,151.6,1372.3,151.6z"/>
	<path class="st8" d="M1385.2,151.6h3.1c0.4,0,0.8,0.4,0.8,0.8v0.2c0,0.4-0.4,0.8-0.8,0.8h-3.1c-0.4,0-0.8-0.4-0.8-0.8v-0.2
		C1384.4,152,1384.8,151.6,1385.2,151.6z"/>
	<rect x="1230.6" y="240.4" class="st7" width="109" height="7.8"/>
	<rect x="1281.7" y="244.9" class="st7" width="6.1" height="67.2"/>
	<rect x="1222.6" y="239.2" class="st1" width="4.4" height="19.5"/>
	<rect x="1222.6" y="258.6" class="st8" width="15.9" height="4.3"/>
	<rect x="1224.8" y="279" class="st8" width="13.8" height="2.5"/>
	<rect x="1222.7" y="263" class="st8" width="2.9" height="48.8"/>
	<rect x="1235.7" y="263" class="st8" width="2.9" height="48.8"/>
	<rect x="1223.4" y="254.3" class="st1" width="15.2" height="4.4"/>
	<rect x="1343.1" y="239.2" class="st1" width="4.4" height="19.5"/>
	<rect x="1331.6" y="258.6" class="st8" width="15.9" height="4.3"/>
	<rect x="1331.6" y="279" class="st8" width="13.8" height="2.5"/>
	<rect x="1344.6" y="263" class="st8" width="2.9" height="48.8"/>
	<rect x="1331.6" y="263" class="st8" width="2.9" height="48.8"/>
	<rect x="1331.6" y="254.3" class="st1" width="15.2" height="4.4"/>
	<rect x="1251.8" y="239.2" class="st1" width="26.8" height="19.5"/>
	<rect x="1251.8" y="258.6" class="st8" width="26.8" height="4.3"/>
	<rect x="1251.8" y="279" class="st8" width="26.8" height="2.5"/>
	<rect x="1251.8" y="263" class="st8" width="2.9" height="48.8"/>
	<rect x="1275.7" y="263" class="st8" width="2.9" height="48.8"/>
	<rect x="1291.6" y="239.2" class="st1" width="26.8" height="19.5"/>
	<rect x="1291.6" y="258.6" class="st8" width="26.8" height="4.3"/>
	<rect x="1291.6" y="279" class="st8" width="26.8" height="2.5"/>
	<rect x="1291.6" y="263" class="st8" width="2.9" height="48.8"/>
	<rect x="1315.5" y="263" class="st8" width="2.9" height="48.8"/>
	<rect x="1407.7" y="92.2" class="st10" width="1.7" height="38.7"/>
	<polygon class="st8" points="1398.2,130 1418.8,130 1414.6,150.6 1402.2,150.4 	"/>
	<rect x="1398.8" y="150.3" class="st7" width="19.5" height="2.7"/>
	<polygon class="st1" points="1412,90.6 1408.5,94 1405.1,90.6 1408.5,84 	"/>
	<polygon class="st1" points="1405.8,94.8 1408.4,98.9 1404.3,101.5 1398.6,96.8 	"/>
	<polygon class="st1" points="1411.8,104.7 1408.4,101.2 1411.9,97.9 1418.4,101.3 	"/>
	<rect x="1138.5" y="108.4" class="st10" width="1.6" height="38.3"/>
	<polygon class="st1" points="1129.2,145.7 1149.5,145.7 1145.4,166.1 1133.1,165.9 	"/>
	<rect x="1129.7" y="165.8" class="st8" width="19.3" height="2.7"/>
	<polygon class="st1" points="1142.7,106.7 1139.4,110.1 1136,106.7 1139.3,100.2 	"/>
	<polygon class="st1" points="1136.7,110.9 1139.2,114.9 1135.2,117.5 1129.6,112.8 	"/>
	<polygon class="st1" points="1142.6,120.7 1139.2,117.3 1142.6,113.9 1149.1,117.3 	"/>
	<path class="st33" d="M1340.9,57.6c0.5,0,0.9,0.4,0.9,0.9l0,0c0,0.5-0.4,0.8-0.9,0.9c-0.2,0-0.4,0-0.6-0.1"/>
	<rect x="1225.4" y="64.5" class="st1" width="43.3" height="65.2"/>
	<rect x="1268.7" y="64.5" class="st8" width="43.3" height="65.2"/>
	<rect x="1312" y="64.5" class="st7" width="43.3" height="65.2"/>
	<rect x="1229" y="67.6" class="st8" width="36.1" height="53.4"/>
	<rect x="1272.3" y="67.6" class="st1" width="36.1" height="17.5"/>
	<rect x="1272.3" y="85.1" class="st7" width="36.1" height="17.5"/>
	<rect x="1272.3" y="102.7" class="st1" width="36.1" height="17.5"/>
	<rect x="1315.6" y="67.6" class="st8" width="36.1" height="17.5"/>
	<rect x="1315.6" y="85.1" class="st1" width="36.1" height="17.5"/>
	<rect x="1315.6" y="102.7" class="st8" width="36.1" height="17.5"/>
	<path class="st7" d="M1289.1,46.9h5.2c1.7,0,3,1.3,3,3v14.6l0,0H1286l0,0V49.9C1286,48.2,1287.4,46.9,1289.1,46.9
		C1289,46.9,1289.1,46.9,1289.1,46.9z"/>
	<path class="st34" d="M1286.2,59.7c-2.1,0-3.7-1.7-3.7-3.7c0-2.1,1.7-3.7,3.7-3.7"/>
	<rect x="1290.7" y="52.4" class="st8" width="2.2" height="9.5"/>
	<rect x="1294.6" y="48.7" class="st7" width="3.7" height="1.7"/>
	<rect x="1322.8" y="41" class="st1" width="19.7" height="8"/>
	<rect x="1322.8" y="49.1" class="st8" width="8.4" height="14.8"/>
	<rect x="1331.2" y="61.4" class="st1" width="11" height="2.5"/>
	<rect x="1335.2" y="49.1" class="st8" width="4.6" height="2.3"/>
	<rect x="1336.1" y="51.3" class="st8" width="3.2" height="1.2"/>
	<rect x="1339.8" y="49.9" class="st1" width="9.1" height="1"/>
	<path class="st8" d="M1334,56.6h6.9l0,0v2.7c0,1-0.8,1.8-1.8,1.8h-3.2c-1,0-1.8-0.8-1.8-1.8L1334,56.6L1334,56.6z"/>
	<rect x="1175" y="7.8" class="st7" width="50.4" height="73.1"/>
	<rect x="1175" y="80.8" class="st8" width="50.4" height="48.7"/>
	<rect x="1286.2" y="68.8" class="st8" width="8.2" height="1"/>
	<rect x="1286.2" y="86.3" class="st8" width="8.2" height="1"/>
	<rect x="1286.2" y="103.7" class="st8" width="8.2" height="1"/>
	<rect x="1329.5" y="68.8" class="st7" width="8.2" height="1"/>
	<rect x="1329.5" y="86.3" class="st7" width="8.2" height="1"/>
	<rect x="1329.5" y="103.7" class="st7" width="8.2" height="1"/>
	<line class="st35" x1="1247.1" y1="66" x2="1247.1" y2="125.1"/>
	<rect x="1244.1" y="70" class="st1" width="1" height="8.2"/>
	<rect x="1249.1" y="70" class="st1" width="1" height="8.2"/>
	<rect x="1177.5" y="56.7" class="st1" width="1.7" height="20.2"/>
	<rect x="1177.5" y="84.8" class="st1" width="1.7" height="20.2"/>
</g>
<g id="Network_with_B2B_Button">
	<polygon class="st0" points="263,635.4 401.7,800 263,800 	"/>
	<polygon class="st36" points="285.1,652 270.9,635.4 270.9,635.4 263,626.2 263,635.4 401.7,800 409.5,799.9 	"/>
</g>
<rect x="1309.9" y="0.7" class="st23" width="319.4" height="412.3"/>
<polygon class="st0" points="1651.8,340.2 1642.3,0 1363.1,0 "/>
<polygon class="st2" points="1892,631.4 1892,607.7 1381.2,0 1361.4,0 "/>
<polygon class="st1" points="1602,0 1481.6,142.9 1491.5,154.8 1622,0 "/>
<polygon class="st2" points="1411.7,0 1388.3,27.8 1398.2,39.7 1431.7,0 "/>
<polygon class="st2" points="1852,0 1610.7,287.7 1620.6,299.6 1871.9,0 "/>
<polygon class="st1" points="1892,567.7 1615.7,239.9 1605.1,252.6 1892,592.9 "/>
<polygon class="st1" points="1797.6,0 1580.1,259.4 1590,271.2 1817.4,0 "/>
</svg>
