<?xml version="1.0" encoding="utf-8"?>
<!-- Generator: Adobe Illustrator 16.0.0, SVG Export Plug-In . SVG Version: 6.00 Build 0)  -->
<!DOCTYPE svg PUBLIC "-//W3C//DTD SVG 1.1//EN" "http://www.w3.org/Graphics/SVG/1.1/DTD/svg11.dtd">
<svg version="1.1" id="Layer_2" xmlns="http://www.w3.org/2000/svg" xmlns:xlink="http://www.w3.org/1999/xlink" x="0px" y="0px"
	 width="769px" height="87px" viewBox="-189 196 769 87" enable-background="new -189 196 769 87" xml:space="preserve">
<g id="Layer_2_1_">
	<g id="Layer_45">
		<path fill="#99CC33" d="M140.396,248.992l1.735,6.417l2.105-6.417h2.051l2.104,6.417l1.683-6.417h2.683l-2.998,9.94h-2.63
			l-1.945-5.731l-1.947,5.731h-2.63l-2.946-9.94H140.396L140.396,248.992z"/>
		<path fill="#99CC33" d="M159.491,251.201h-3.104v1.631h2.895v2.21h-2.895v1.686h3.052v2.207h-5.628v-9.941h5.629v2.209
			L159.491,251.201L159.491,251.201z"/>
		<path fill="#99CC33" d="M163.911,248.992v7.733h3.104v2.207h-5.682v-9.94H163.911L163.911,248.992z"/>
		<path fill="#99CC33" d="M170.908,248.992v7.733h3.104v2.207h-5.681v-9.94H170.908L170.908,248.992z"/>
		<path fill="#99CC33" d="M175.327,258.935v-9.941h2.578l4.735,6.05v-6.05h2.577v9.941h-2.577l-4.735-6.049v6.049H175.327z"/>
		<path fill="#99CC33" d="M192.951,251.201H189.9v1.631h2.894v2.21H189.9v1.686h3.051v2.207h-5.681v-9.941h5.681V251.201z"/>
		<path fill="#99CC33" d="M200.264,251.517c-0.264-0.209-0.525-0.42-0.841-0.525c-0.264-0.104-0.526-0.156-0.791-0.156
			c-0.314,0-0.578,0.053-0.788,0.21c-0.211,0.157-0.315,0.368-0.315,0.63c0,0.158,0.052,0.316,0.158,0.422
			c0.104,0.104,0.263,0.211,0.421,0.315c0.21,0.104,0.369,0.159,0.579,0.21c0.21,0.055,0.42,0.105,0.63,0.21
			c0.684,0.21,1.368,0.579,1.841,1.104c0.422,0.526,0.631,1.156,0.58,1.843c0,0.473-0.105,0.948-0.264,1.366
			c-0.158,0.42-0.422,0.736-0.737,1.053c-0.368,0.314-0.789,0.525-1.21,0.684c-0.526,0.159-1.051,0.264-1.631,0.264
			c-1.264,0-2.474-0.367-3.473-1.104l1.104-2.104c0.315,0.314,0.737,0.58,1.158,0.736c0.367,0.158,0.735,0.264,1.104,0.264
			c0.315,0,0.686-0.053,0.947-0.315c0.314-0.263,0.369-0.685,0.21-1.051c-0.052-0.107-0.157-0.212-0.262-0.318
			c-0.158-0.104-0.316-0.208-0.475-0.263c-0.21-0.053-0.421-0.156-0.736-0.264c-0.264-0.104-0.631-0.209-0.999-0.367
			c-0.316-0.104-0.579-0.314-0.843-0.525c-0.263-0.21-0.474-0.475-0.631-0.789c-0.158-0.367-0.264-0.789-0.21-1.21
			c0-0.474,0.053-0.896,0.263-1.313c0.159-0.37,0.368-0.736,0.685-1c0.314-0.315,0.684-0.525,1.051-0.685
			c0.475-0.157,0.948-0.264,1.421-0.264c0.525,0,1.052,0.053,1.526,0.209c0.524,0.159,1.052,0.315,1.525,0.58L200.264,251.517z"/>
		<path fill="#99CC33" d="M208.733,251.517c-0.264-0.209-0.527-0.367-0.842-0.525c-0.264-0.104-0.526-0.156-0.843-0.156
			c-0.315,0-0.579,0.053-0.843,0.21c-0.209,0.157-0.314,0.368-0.314,0.63c0,0.158,0.053,0.316,0.157,0.422
			c0.104,0.104,0.264,0.211,0.42,0.315c0.212,0.104,0.369,0.159,0.579,0.21c0.21,0.055,0.42,0.105,0.631,0.21
			c0.686,0.21,1.369,0.579,1.843,1.104c0.42,0.526,0.631,1.156,0.579,1.843c0,0.473-0.105,0.948-0.264,1.366
			c-0.158,0.42-0.42,0.736-0.735,1.053c-0.369,0.314-0.79,0.525-1.21,0.684c-0.526,0.159-1.053,0.264-1.632,0.264
			c-1.262,0-2.473-0.367-3.472-1.104l1.104-2.104c0.315,0.314,0.735,0.58,1.158,0.736c0.367,0.158,0.736,0.264,1.104,0.264
			c0.314,0.054,0.684-0.053,0.947-0.211c0.314-0.263,0.367-0.685,0.21-1.054c-0.054-0.103-0.158-0.21-0.264-0.313
			c-0.158-0.106-0.315-0.213-0.474-0.264c-0.211-0.053-0.422-0.158-0.737-0.263c-0.263-0.106-0.683-0.211-1-0.368
			c-0.315-0.105-0.579-0.316-0.842-0.525c-0.263-0.211-0.474-0.475-0.631-0.791c-0.158-0.367-0.263-0.787-0.21-1.209
			c0-0.475,0.053-0.894,0.263-1.314c0.158-0.368,0.368-0.736,0.685-0.999c0.313-0.315,0.685-0.526,1.053-0.685
			c0.473-0.157,0.947-0.264,1.42-0.209c0.526,0,1.052,0.052,1.526,0.209c0.579,0.158,1.104,0.315,1.577,0.578L208.733,251.517z"/>
		<path fill="#99CC33" d="M156.389,269.823h-3.684l-0.578,1.736h-2.734l3.787-9.942h2.841l3.787,9.942h-2.735L156.389,269.823z
			 M155.704,267.878l-1.157-3.314l-1.156,3.314H155.704z"/>
		<path fill="#99CC33" d="M169.12,271.56h-3.21l-2.473-3.787v3.787h-2.577v-9.942h3.998c0.473,0,1,0.054,1.473,0.264
			c0.368,0.156,0.736,0.368,1,0.632c0.263,0.262,0.475,0.631,0.579,0.946c0.158,0.368,0.209,0.788,0.209,1.157
			c0.053,0.631-0.158,1.314-0.526,1.842c-0.421,0.473-1,0.842-1.63,0.946L169.12,271.56z M163.438,266.089h0.474
			c0.42,0,0.789-0.105,1.157-0.316c0.474-0.473,0.525-1.209,0.105-1.733c-0.053-0.053-0.053-0.053-0.105-0.104
			c-0.368-0.211-0.736-0.367-1.157-0.315h-0.474V266.089z"/>
		<path fill="#99CC33" d="M175.854,263.827h-3.053v1.631h2.894v2.156h-2.894v1.683h3.053v2.211h-5.629v-9.942h5.629V263.827z"/>
		<path fill="#99CC33" d="M177.694,271.56v-9.942h2.578l4.733,6.05v-6.05h2.579v9.942h-2.579l-4.733-6.051v6.051H177.694z"/>
		<path fill="#99CC33" d="M195.792,269.823h-3.683l-0.579,1.736h-2.735l3.787-9.942h2.84l3.787,9.942h-2.84L195.792,269.823z
			 M195.056,267.878l-1.158-3.314l-1.156,3.314H195.056z"/>
		<g id="Statue_1_">
			<rect x="162.543" y="238.683" fill="#99CC33" width="23.411" height="7.996"/>
			<path fill="#99CC33" d="M178.116,231.843c1.577-1.158,3.419-2.054,5.313-2.525c0.315-2,0.158-4.053-0.422-5.997
				c-1.999,0.476-3.84,1.367-5.418,2.63C178.116,227.843,178.326,229.843,178.116,231.843z"/>
			<path fill="#99CC33" d="M170.382,231.843c-0.21-2-0.053-3.998,0.476-5.945c-1.578-1.263-3.419-2.156-5.418-2.63
				c-0.58,1.945-0.738,3.997-0.421,5.997C166.962,229.789,168.751,230.685,170.382,231.843z"/>
			<path fill="#B8DB70" d="M157.704,229.104c1.631,6.894,8.365,11.365,15.361,10.207c0.368-0.054,0.789-0.157,1.158-0.264
				c-2.053-2.052-3.473-4.629-3.998-7.418C166.699,228.737,162.019,227.792,157.704,229.104z"/>
			<path fill="#D6EBAD" d="M174.223,219.372c-1.473,1.369-2.631,3.104-3.367,4.999c-1.946,5.103-0.579,10.89,3.367,14.678
				c5.418-5.051,5.733-13.573,0.684-18.99C174.697,219.846,174.485,219.583,174.223,219.372z"/>
			<path fill="#B8DB70" d="M178.273,231.631c-0.579,2.843-1.999,5.421-3.998,7.418c0.368,0.105,0.736,0.21,1.157,0.265
				c6.998,1.156,13.73-3.264,15.361-10.207C186.427,227.792,181.745,228.737,178.273,231.631z"/>
		</g>
	</g>
</g>
<g id="Layer_2_2_">
	<g id="Layer_71">
		<path fill="#1D0777" d="M377.856,251.125c-0.52-0.675-1.298-1.093-2.182-1.093c-0.363,0-0.727,0.052-1.04,0.209
			c-0.312,0.104-0.623,0.312-0.831,0.571c-0.26,0.259-0.415,0.52-0.571,0.83c-0.155,0.313-0.209,0.676-0.209,1.039
			s0.054,0.728,0.209,1.092c0.104,0.313,0.312,0.624,0.571,0.831c0.259,0.261,0.52,0.415,0.831,0.571
			c0.313,0.155,0.676,0.209,1.04,0.209c0.831,0,1.662-0.416,2.182-1.039v3.012l-0.259,0.105c-0.364,0.103-0.728,0.207-1.092,0.312
			c-0.312,0.053-0.675,0.104-0.987,0.104c-1.352,0-2.598-0.521-3.584-1.455c-0.467-0.469-0.883-1.039-1.143-1.662
			c-0.571-1.353-0.571-2.807,0-4.156c0.52-1.194,1.506-2.182,2.752-2.7c0.623-0.261,1.3-0.363,1.975-0.363
			c0.363,0,0.779,0.052,1.145,0.103c0.414,0.104,0.778,0.209,1.193,0.365V251.125L377.856,251.125z"/>
		<path fill="#1D0777" d="M379.157,252.786c0-2.13,1.246-3.999,3.221-4.778c0.675-0.26,1.455-0.414,2.182-0.414
			s1.507,0.104,2.182,0.414c0.623,0.262,1.248,0.623,1.713,1.092c2.027,2.025,2.027,5.246,0.054,7.324l-0.054,0.053
			c-0.518,0.467-1.09,0.83-1.713,1.091c-0.675,0.261-1.455,0.417-2.182,0.417s-1.507-0.105-2.182-0.417
			C380.456,256.787,379.157,254.865,379.157,252.786z M381.857,252.786c0,0.365,0.052,0.728,0.209,1.093
			c0.623,1.352,2.183,1.975,3.584,1.401c0.312-0.155,0.624-0.312,0.884-0.569c0.26-0.261,0.467-0.521,0.623-0.885
			c0.155-0.363,0.207-0.729,0.207-1.092c0-0.364-0.052-0.727-0.207-1.092c-0.156-0.312-0.365-0.621-0.623-0.883
			c-0.779-0.778-1.975-0.986-3.015-0.57c-0.312,0.103-0.623,0.313-0.882,0.57c-0.26,0.262-0.467,0.519-0.571,0.883
			C381.909,252.008,381.807,252.37,381.857,252.786L381.857,252.786z"/>
		<path fill="#1D0777" d="M391.157,257.619l1.662-9.818h2.547l1.974,5.193l1.974-5.193h2.495l1.662,9.818h-2.545l-0.831-5.611
			l-2.338,5.611h-1.039l-2.182-5.611l-0.832,5.611H391.157z"/>
		<path fill="#1D0777" d="M404.612,257.619l1.662-9.818h2.494l1.975,5.193l1.974-5.193h2.493l1.662,9.818h-2.545l-0.832-5.611
			l-2.285,5.611h-1.039l-2.182-5.611l-0.832,5.611H404.612z"/>
		<path fill="#1D0777" d="M421.028,247.852v5.299c0,0.313,0,0.57,0.053,0.883c0,0.262,0.052,0.571,0.207,0.832
			c0.104,0.259,0.313,0.467,0.521,0.57c0.312,0.156,0.623,0.261,0.985,0.207c0.365,0,0.676-0.051,0.988-0.207
			c0.207-0.155,0.416-0.364,0.52-0.57c0.104-0.261,0.208-0.52,0.208-0.832s0.053-0.57,0.053-0.883v-5.299h2.545v5.662
			c0,1.508-0.364,2.648-1.04,3.322c-0.675,0.729-1.765,1.041-3.22,1.041s-2.494-0.363-3.222-1.041
			c-0.728-0.674-1.039-1.816-1.039-3.322v-5.662H421.028L421.028,247.852z"/>
		<path fill="#1D0777" d="M429.081,257.619v-9.768h2.543l4.678,5.975v-5.975h2.545v9.768h-2.545l-4.678-5.975v5.975H429.081z"/>
		<path fill="#1D0777" d="M443.471,247.852v9.768h-2.545v-9.768H443.471z"/>
		<path fill="#1D0777" d="M449.237,250.032v7.587h-2.545v-7.638h-2.078v-2.132h6.7v2.132h-2.077V250.032L449.237,250.032z"/>
		<path fill="#1D0777" d="M455.419,252.943l-3.586-5.092h3.066l1.818,2.701l1.818-2.701h3.064l-3.584,5.092v4.676h-2.546v-4.676
			H455.419z"/>
		<path fill="#1D0777" d="M397.962,263.592c-0.52-0.674-1.297-1.092-2.182-1.092c-0.363,0-0.728,0.055-1.039,0.211
			c-0.313,0.103-0.625,0.311-0.884,0.569c-0.26,0.26-0.416,0.519-0.571,0.831s-0.207,0.676-0.207,1.04
			c0,0.36,0.052,0.728,0.207,1.089c0.104,0.313,0.312,0.624,0.571,0.831c0.259,0.26,0.519,0.417,0.831,0.571
			c0.313,0.156,0.676,0.209,1.039,0.209c0.831,0,1.663-0.416,2.182-1.039v3.015l-0.259,0.104c-0.364,0.104-0.727,0.207-1.092,0.311
			c-0.985,0.209-2.024,0.104-2.961-0.311c-0.623-0.26-1.144-0.623-1.61-1.092c-0.468-0.468-0.883-1.039-1.144-1.662
			c-0.312-0.676-0.415-1.353-0.415-2.078c0-0.729,0.154-1.402,0.415-2.079c0.521-1.247,1.506-2.183,2.753-2.701
			c0.623-0.261,1.299-0.364,1.975-0.364c0.364,0,0.779,0.053,1.143,0.104c0.417,0.104,0.832,0.209,1.195,0.365L397.962,263.592z"/>
		<path fill="#1D0777" d="M405.131,262.502h-3.013v1.61h2.856v2.13h-2.856v1.663h3.013v2.13h-5.61v-9.768h5.61V262.502z"/>
		<path fill="#1D0777" d="M406.95,270.086v-9.767h2.545l4.676,5.976v-5.976h2.547v9.767h-2.493l-4.677-5.974v5.974H406.95
			L406.95,270.086z"/>
		<path fill="#1D0777" d="M422.534,262.502v7.584h-2.545v-7.637h-2.078v-2.131h6.754v2.131h-2.131V262.502L422.534,262.502z"/>
		<path fill="#1D0777" d="M433.859,270.086h-3.168l-2.442-3.74v3.74h-2.545v-9.767h3.947c0.467,0,0.987,0.052,1.454,0.26
			c0.364,0.157,0.728,0.364,0.988,0.677c0.258,0.258,0.467,0.621,0.571,0.936c0.156,0.363,0.207,0.779,0.207,1.142
			c0.054,0.624-0.154,1.3-0.52,1.819c-0.415,0.468-0.986,0.832-1.609,0.936L433.859,270.086z M428.302,264.736h0.467
			c0.415,0.052,0.832-0.104,1.143-0.313c0.52-0.418,0.52-1.194,0.104-1.664c-0.052-0.051-0.052-0.051-0.104-0.103
			c-0.363-0.209-0.729-0.364-1.143-0.312h-0.467V264.736z"/>
		<path fill="#1D0777" d="M440.509,262.502h-3.012v1.61h2.856v2.13h-2.856v1.663h3.012v2.13h-5.559v-9.768h5.559V262.502z"/>
		<g id="Statue_2_">
			<rect x="405.234" y="238.086" fill="#1D0777" width="21.455" height="7.324"/>
			<path fill="#5F4E95" d="M421.288,227.021L421.288,227.021l-2.442-2.028c-0.728,0.729-2.078,2.028-2.647,2.598
				c-1.611,1.508-3.846,1.664-5.353,0.364c-0.468-0.364-0.779-0.934-0.779-1.558c0.052-0.622,0.312-1.248,0.832-1.662l3.063-3.014
				l2.183-2.08c-0.416-0.311-0.883-0.62-1.299-0.934c-3.532-2.025-8-1.195-10.545,1.922c-1.714,2.077-2.183,4.678-1.454,7.586
				c0.466,1.817,1.454,3.428,2.805,4.728c0.104-0.521,0.365-0.988,0.729-1.3l2.39-2.336l0.052-0.053
				c1.039-0.834,2.547-0.627,3.377,0.362c0.364,0.416,0.571,0.935,0.571,1.454c0.623-0.051,1.247,0.154,1.663,0.57
				c0.467,0.468,0.727,1.093,0.779,1.768c0.676,0,1.351,0.313,1.818,0.831c0.313,0.416,0.52,0.883,0.52,1.401
				c0.675,0.053,1.298,0.365,1.766,0.885c0.313,0.416,0.52,0.884,0.624,1.402c0,0.467-0.104,0.985-0.312,1.401
				c0.727,0.208,1.455,0.104,2.078-0.312c0.569-0.416,0.935-1.092,0.985-1.817c0.625-0.053,1.195-0.312,1.663-0.728
				c0.415-0.467,0.676-1.092,0.727-1.715c0.676-0.052,1.352-0.312,1.818-0.83c0.157-0.155,0.26-0.313,0.365-0.521
				c0.208-0.467,0.258-0.985,0.154-1.507L421.288,227.021z"/>
			<path fill="#A49AC3" d="M429.392,225.409c-0.26-2.233-1.402-4.261-3.168-5.663c-1.715-1.351-3.949-1.974-6.182-1.714
				c-1.403,0.155-2.807,0.728-3.948,1.608l0,0l-2.183,2.08l-3.065,3.013c-0.468,0.415-0.779,1.04-0.831,1.662
				c0,0.624,0.311,1.194,0.779,1.559c1.507,1.3,3.74,1.144,5.353-0.364c0.57-0.569,1.921-1.869,2.647-2.598l2.441,2.027l6.078,4.986
				l0,0C428.925,230.189,429.651,227.799,429.392,225.409z"/>
			<path fill="#A49AC3" d="M419.886,237.981c-0.104-0.521-0.313-0.987-0.624-1.402c-0.468-0.521-1.091-0.832-1.767-0.885
				c0-0.519-0.209-0.987-0.52-1.401c-0.467-0.52-1.143-0.83-1.818-0.83c0-0.676-0.313-1.302-0.779-1.769
				c-0.469-0.415-1.092-0.623-1.715-0.571c-0.051-0.52-0.26-1.039-0.57-1.4c-0.831-1.041-2.338-1.196-3.377-0.416l-0.053,0.051
				l-2.39,2.338c-0.416,0.313-0.675,0.779-0.727,1.3l0,0c0.052,0.779,0.364,1.56,0.985,2.077c0.416,0.416,0.936,0.677,1.508,0.729
				c0.104,0.571,0.363,1.144,0.777,1.559c0.417,0.417,0.936,0.675,1.508,0.729c0.104,0.623,0.416,1.193,0.832,1.61
				c0.519,0.467,1.092,0.778,1.766,0.883c0.209,0.831,0.832,1.558,1.662,1.816c0.313,0.104,0.623,0.155,0.936,0.104
				c0.624,0,1.247-0.209,1.714-0.623l0.052-0.053l0.26-0.208c0.777-0.675,1.455-1.454,2.078-2.286
				C419.833,238.969,419.938,238.448,419.886,237.981z"/>
		</g>
	</g>
</g>
<g id="Layer_2_3_">
	<g id="Layer_61">
		<path fill="#F2B725" d="M255.106,249.755h-3.055v1.687h2.896v2.211h-2.896v1.688h3.055v2.211h-5.635v-10.007h5.635V249.755z"/>
		<path fill="#F2B725" d="M256.95,247.543h3.793c0.631,0,1.316,0.158,1.896,0.421c1.159,0.526,2.108,1.476,2.582,2.687
			c0.526,1.213,0.526,2.58,0,3.793c-0.263,0.578-0.58,1.104-1.054,1.578c-0.422,0.475-0.947,0.844-1.58,1.106
			c-0.579,0.263-1.264,0.422-1.896,0.422h-3.792v-10.007H256.95z M259.532,255.285h0.578c0.422,0,0.791-0.053,1.213-0.211
			c0.315-0.104,0.631-0.314,0.895-0.578s0.421-0.526,0.527-0.896c0.104-0.369,0.211-0.738,0.211-1.106s-0.053-0.736-0.211-1.105
			c-0.264-0.683-0.791-1.212-1.476-1.475c-0.368-0.157-0.79-0.21-1.159-0.21h-0.578V255.285z"/>
		<path fill="#F2B725" d="M269.907,247.543v5.372c0,0.315,0,0.579,0.051,0.894c0,0.266,0.106,0.581,0.211,0.846
			c0.104,0.263,0.316,0.474,0.527,0.578c0.315,0.157,0.631,0.265,1,0.211c0.315,0,0.685-0.054,1-0.211
			c0.211-0.156,0.422-0.367,0.527-0.578c0.105-0.265,0.21-0.526,0.21-0.846c0-0.314,0.054-0.578,0.054-0.894v-5.372h2.582v5.74
			c0,1.525-0.369,2.686-1.054,3.371c-0.685,0.684-1.791,1.054-3.265,1.054c-1.477,0-2.581-0.37-3.266-1.054
			c-0.686-0.687-1.054-1.846-1.054-3.371v-5.74H269.907z"/>
		<path fill="#F2B725" d="M285.18,250.861c-0.526-0.687-1.37-1.106-2.212-1.106c-0.368,0-0.737,0.051-1.053,0.211
			c-0.316,0.104-0.633,0.315-0.844,0.579c-0.263,0.264-0.42,0.527-0.58,0.843c-0.158,0.315-0.211,0.687-0.211,1.054
			s0.053,0.737,0.211,1.104c0.105,0.315,0.316,0.633,0.58,0.896c0.264,0.265,0.527,0.422,0.844,0.58
			c0.315,0.157,0.685,0.211,1.053,0.211c0.842,0,1.686-0.424,2.212-1.055v3.055l-0.265,0.104c-0.367,0.106-0.736,0.212-1.104,0.317
			c-0.315,0.053-0.685,0.104-1,0.104c-1.369,0-2.687-0.526-3.634-1.476c-0.475-0.476-0.896-1.053-1.159-1.687
			c-0.579-1.37-0.579-2.843,0-4.213c0.265-0.632,0.685-1.16,1.159-1.633c0.475-0.476,1.053-0.79,1.686-1.054
			s1.316-0.368,2.002-0.368c0.368,0,0.791,0.054,1.158,0.104c0.422,0.105,0.791,0.211,1.213,0.37v3.054h-0.056V250.861z"/>
		<path fill="#F2B725" d="M293.185,255.759h-3.688l-0.631,1.737h-2.738l3.791-9.899h2.845l3.792,9.899h-2.738L293.185,255.759z
			 M292.501,253.809l-1.159-3.314l-1.159,3.314H292.501z"/>
		<path fill="#F2B725" d="M300.98,249.755v7.741h-2.582v-7.741h-2.106v-2.158h6.848v2.158H300.98z"/>
		<path fill="#F2B725" d="M306.825,247.543v9.9h-2.58v-9.9H306.825z"/>
		<path fill="#F2B725" d="M308.458,252.546c0-0.683,0.16-1.421,0.422-2.054c0.263-0.633,0.632-1.213,1.16-1.687
			c0.474-0.474,1.104-0.843,1.738-1.104c1.42-0.526,3.002-0.526,4.424,0c0.631,0.263,1.263,0.632,1.736,1.104
			c0.475,0.474,0.896,1.054,1.159,1.687c0.526,1.316,0.526,2.791,0,4.107c-0.265,0.633-0.632,1.211-1.159,1.687
			c-0.525,0.474-1.105,0.843-1.736,1.104c-1.422,0.527-3.004,0.527-4.424,0c-0.634-0.263-1.213-0.632-1.738-1.104
			c-0.476-0.476-0.896-1.054-1.16-1.687C308.563,253.915,308.458,253.23,308.458,252.546z M311.145,252.546
			c0,0.369,0.054,0.737,0.211,1.104c0.159,0.318,0.368,0.633,0.58,0.896c0.263,0.262,0.58,0.421,0.896,0.579
			c0.685,0.263,1.474,0.263,2.158,0c0.317-0.158,0.633-0.317,0.896-0.579c0.262-0.264,0.475-0.527,0.63-0.896
			c0.317-0.685,0.317-1.475,0-2.211c-0.157-0.314-0.368-0.632-0.63-0.896c-0.525-0.526-1.212-0.789-1.949-0.789
			c-0.369,0-0.738,0.051-1.054,0.21c-0.315,0.157-0.63,0.314-0.894,0.579c-0.266,0.265-0.475,0.526-0.633,0.896
			C311.251,251.757,311.145,252.125,311.145,252.546L311.145,252.546z"/>
		<path fill="#F2B725" d="M321.099,257.496v-9.953h2.58l4.741,6.057v-6.057h2.581v9.9h-2.581l-4.741-6.058v6.058h-2.58V257.496z"/>
		<path fill="#F2B725" d="M278.438,264.027h3.739v-3.846h2.581v9.955h-2.581v-4.107h-3.739v4.107h-2.581v-9.955h2.581V264.027
			L278.438,264.027z"/>
		<path fill="#F2B725" d="M289.394,260.184v5.372c0,0.316,0,0.579,0.053,0.896c0,0.263,0.105,0.58,0.211,0.844
			c0.104,0.264,0.316,0.475,0.526,0.578c0.315,0.158,0.632,0.265,1,0.21c0.369,0,0.685-0.052,1.001-0.21
			c0.21-0.158,0.421-0.368,0.525-0.578c0.105-0.264,0.16-0.527,0.211-0.844c0-0.315,0.053-0.578,0.053-0.896v-5.372h2.581v5.74
			c0,1.525-0.369,2.688-1.054,3.371c-0.686,0.736-1.791,1.052-3.266,1.052c-1.474,0-2.527-0.366-3.265-1.052
			c-0.738-0.686-1.054-1.846-1.054-3.371v-5.74H289.394z"/>
		<path fill="#F2B725" d="M297.557,260.184h3.845c0.737-0.053,1.527,0.157,2.106,0.631c0.474,0.476,0.737,1.213,0.687,1.896
			c0,0.421-0.054,0.844-0.265,1.264c-0.21,0.369-0.474,0.633-0.842,0.844c0.315,0.055,0.631,0.158,0.948,0.316
			c0.264,0.104,0.475,0.316,0.631,0.527c0.158,0.21,0.264,0.473,0.369,0.683c0.054,0.265,0.104,0.58,0.104,0.845
			c0,0.42-0.052,0.842-0.263,1.211c-0.157,0.369-0.368,0.686-0.684,0.896c-0.318,0.262-0.687,0.421-1.055,0.526
			c-0.475,0.104-0.947,0.209-1.423,0.209h-4.212v-9.848H297.557z M300.137,264.08h0.476c0.791,0,1.211-0.316,1.211-0.948
			c0-0.631-0.42-0.946-1.211-0.946h-0.476V264.08z M300.137,268.137h0.581c0.474,0.051,0.945-0.055,1.369-0.266
			c0.264-0.157,0.422-0.475,0.422-0.789s-0.158-0.633-0.422-0.79c-0.422-0.21-0.896-0.263-1.369-0.263h-0.581V268.137z"/>
		<g id="Statue_3_">
			<rect x="268.642" y="236.799" fill="#FFE38F" width="43.188" height="8.005"/>
			<path fill="#FFCC33" d="M287.972,210.676h-13.482v25.491h13.482c0.209,0,0.475,0,0.684,0.052l0.211,0.055
				c0.158,0.053,0.264,0.105,0.369,0.156c0.104,0.055,0.209,0.106,0.262,0.158c0.158,0.158,0.316,0.316,0.422,0.475
				c0.054,0.053,0.104,0.157,0.158,0.266c0.054,0.105,0.104,0.21,0.104,0.314v-24.754
				C290.237,211.678,289.235,210.676,287.972,210.676z M287.972,233.165H276.7c-0.42-0.052-0.736-0.42-0.684-0.789
				c0.053-0.37,0.316-0.634,0.684-0.687h11.271c0.42,0.053,0.736,0.422,0.684,0.791C288.655,232.85,288.341,233.113,287.972,233.165
				z M287.972,228.636H276.7c-0.42-0.053-0.736-0.422-0.684-0.79c0.053-0.369,0.316-0.632,0.684-0.685h11.271
				c0.42,0.053,0.736,0.42,0.684,0.79C288.655,228.318,288.341,228.636,287.972,228.636z M287.972,224.156H276.7
				c-0.42-0.049-0.736-0.42-0.684-0.789c0.053-0.366,0.316-0.629,0.684-0.682h11.271c0.42,0.051,0.736,0.42,0.684,0.788
				C288.655,223.843,288.341,224.107,287.972,224.156z M287.972,219.684H276.7c-0.42-0.055-0.736-0.421-0.684-0.791
				c0.053-0.367,0.316-0.633,0.684-0.685h11.271c0.42,0.053,0.736,0.422,0.684,0.79
				C288.655,219.314,288.341,219.629,287.972,219.684z M287.972,215.152H276.7c-0.42-0.053-0.736-0.42-0.684-0.789
				c0.053-0.37,0.316-0.633,0.684-0.687h11.271c0.42,0.054,0.736,0.421,0.684,0.791
				C288.655,214.837,288.341,215.152,287.972,215.152z"/>
			<path fill="#FFEBAD" d="M287.972,213.678H276.7c-0.42,0.053-0.736,0.421-0.684,0.791c0.053,0.368,0.316,0.633,0.684,0.686h11.271
				c0.42-0.053,0.736-0.422,0.684-0.791C288.655,213.992,288.341,213.678,287.972,213.678z"/>
			<path fill="#FFEBAD" d="M287.972,218.154H276.7c-0.42,0.054-0.736,0.423-0.684,0.791c0.053,0.369,0.316,0.632,0.684,0.685h11.271
				c0.42-0.053,0.736-0.421,0.684-0.789C288.655,218.472,288.341,218.208,287.972,218.154z"/>
			<path fill="#FFEBAD" d="M287.972,231.636H276.7c-0.42,0.056-0.736,0.423-0.684,0.791c0.053,0.37,0.316,0.634,0.684,0.687h11.271
				c0.42-0.053,0.736-0.422,0.684-0.791C288.655,231.953,288.341,231.691,287.972,231.636z"/>
			<path fill="#FFEBAD" d="M287.972,227.161H276.7c-0.42,0.053-0.736,0.42-0.684,0.79c0.053,0.369,0.316,0.632,0.684,0.685h11.271
				c0.42-0.053,0.736-0.422,0.684-0.79C288.655,227.477,288.341,227.161,287.972,227.161z"/>
			<path fill="#FFEBAD" d="M287.972,222.686H276.7c-0.42,0.053-0.736,0.42-0.684,0.789c0.053,0.368,0.316,0.633,0.684,0.684h11.271
				c0.42-0.051,0.736-0.42,0.684-0.789C288.655,223.001,288.341,222.686,287.972,222.686z"/>
			<path fill="#FFD65C" d="M290.237,212.939v24.756c0.053-0.053,0.053-0.211,0.104-0.316c0.052-0.104,0.104-0.158,0.157-0.264
				c0.105-0.158,0.264-0.367,0.42-0.473c0.107-0.055,0.158-0.105,0.265-0.158c0.104-0.055,0.263-0.104,0.369-0.157l0.21-0.054
				c0.21-0.054,0.475-0.054,0.686-0.054h13.482v-25.544h-13.482C291.237,210.676,290.237,211.678,290.237,212.939z M291.764,232.427
				c0-0.421,0.315-0.735,0.737-0.735h11.271c0.423,0.053,0.738,0.422,0.685,0.789c-0.053,0.371-0.315,0.633-0.685,0.686h-11.271
				C292.079,233.165,291.764,232.797,291.764,232.427L291.764,232.427z M291.764,227.898c0-0.422,0.315-0.737,0.737-0.737h11.271
				c0.423,0.053,0.738,0.421,0.685,0.791c-0.053,0.368-0.315,0.632-0.685,0.684h-11.271
				C292.079,228.636,291.764,228.318,291.764,227.898L291.764,227.898z M291.764,223.421c0-0.42,0.315-0.735,0.737-0.735h11.271
				c0.423,0.053,0.738,0.42,0.685,0.789c-0.053,0.368-0.315,0.633-0.685,0.684h-11.271
				C292.079,224.156,291.764,223.843,291.764,223.421z M291.764,218.893c0-0.421,0.315-0.738,0.737-0.738l0,0h11.271
				c0.423,0.055,0.738,0.424,0.685,0.793c-0.053,0.367-0.315,0.631-0.685,0.684h-11.271
				C292.079,219.684,291.764,219.314,291.764,218.893z M291.764,214.415c0-0.423,0.315-0.737,0.737-0.737h11.271
				c0.423,0.053,0.738,0.421,0.685,0.791c-0.053,0.368-0.315,0.633-0.685,0.686h-11.271
				C292.079,215.152,291.764,214.837,291.764,214.415z"/>
			<path fill="#FFEBAD" d="M292.501,213.678h11.271c0.423,0.053,0.738,0.421,0.685,0.791c-0.053,0.368-0.316,0.633-0.685,0.686
				h-11.271c-0.422,0.054-0.791-0.264-0.791-0.686c-0.053-0.422,0.265-0.791,0.686-0.791
				C292.395,213.678,292.448,213.678,292.501,213.678z"/>
			<path fill="#FFEBAD" d="M292.501,218.154h11.271c0.423,0.054,0.738,0.423,0.685,0.791c-0.053,0.369-0.316,0.632-0.685,0.685
				h-11.271c-0.422,0.054-0.791-0.265-0.791-0.685c-0.053-0.422,0.265-0.791,0.686-0.791
				C292.395,218.154,292.448,218.154,292.501,218.154z"/>
			<path fill="#FFEBAD" d="M292.501,231.636h11.271c0.423,0.056,0.738,0.423,0.685,0.791c-0.053,0.37-0.316,0.634-0.685,0.687
				h-11.271c-0.422,0.053-0.791-0.264-0.791-0.687c-0.053-0.421,0.265-0.791,0.686-0.791
				C292.395,231.636,292.448,231.636,292.501,231.636z"/>
			<path fill="#FFEBAD" d="M292.501,227.161h11.271c0.423,0.053,0.738,0.42,0.685,0.79c-0.053,0.369-0.316,0.632-0.685,0.685
				h-11.271c-0.422,0.054-0.791-0.264-0.791-0.685c-0.053-0.422,0.265-0.79,0.686-0.79
				C292.395,227.161,292.448,227.161,292.501,227.161z"/>
			<path fill="#FFEBAD" d="M292.501,222.686h11.271c0.423,0.053,0.738,0.42,0.685,0.789c-0.053,0.368-0.316,0.633-0.685,0.684
				h-11.271c-0.422,0.055-0.791-0.262-0.791-0.684c-0.053-0.422,0.265-0.789,0.686-0.789
				C292.395,222.632,292.448,222.632,292.501,222.686z"/>
			<path fill="#FFD65C" d="M290.183,237.432c-0.052-0.055-0.052-0.158-0.104-0.212c0-0.053-0.053-0.104-0.105-0.157
				c-0.055-0.105-0.105-0.156-0.159-0.211l-0.053-0.104c-0.104-0.105-0.158-0.158-0.263-0.211l-0.105-0.053
				c-0.053-0.055-0.158-0.104-0.264-0.157l-0.104-0.054c-0.107-0.054-0.16-0.054-0.265-0.104c-0.054,0-0.054,0-0.106-0.054
				c-0.104-0.053-0.263-0.053-0.367-0.053h-13.063c-0.422,0-0.738-0.316-0.738-0.738V210.57h-1.896v26.968h17.644
				c0,0,0-0.054,0-0.104C290.183,237.537,290.183,237.484,290.183,237.432z"/>
			<path fill="#FFCC33" d="M290.288,237.484c0.054-0.053,0.054-0.157,0.105-0.211l0.055-0.105c0.051-0.105,0.104-0.157,0.209-0.262
				l0.053-0.055c0.104-0.104,0.209-0.158,0.316-0.264l0.104-0.053c0.053-0.053,0.157-0.106,0.263-0.156l0.105-0.055
				c0.104-0.053,0.158-0.053,0.264-0.105c0.053,0,0.053,0,0.105-0.052c0.104-0.054,0.263-0.054,0.369-0.054h13.061
				c0.367,0,0.684-0.315,0.684-0.738v-24.752h1.844v26.966h-17.59c0,0,0-0.052,0-0.104H290.288z"/>
		</g>
	</g>
</g>
<g id="Layer_2_4_">
	<g id="Fashion-Main-01">
		<path fill="#E97792" d="M-70.91,250.049h-3.096v1.623h2.833v2.152h-2.833v3.879h-2.569v-9.912h5.665V250.049L-70.91,250.049z"/>
		<path fill="#E97792" d="M-63.725,256.027h-3.672l-0.576,1.732h-2.729l3.776-9.861h2.779l3.776,9.861h-2.727L-63.725,256.027z
			 M-64.406,254.086l-1.154-3.303l-1.152,3.303H-64.406z"/>
		<path fill="#E97792" d="M-53.812,250.361c-0.262-0.209-0.524-0.418-0.84-0.523c-0.262-0.104-0.523-0.156-0.786-0.156
			c-0.313,0-0.576,0.055-0.839,0.209c-0.21,0.159-0.314,0.368-0.314,0.631c0,0.157,0.053,0.314,0.157,0.418
			c0.104,0.106,0.263,0.211,0.42,0.315c0.21,0.104,0.367,0.157,0.576,0.211l0.631,0.208c0.734,0.211,1.363,0.576,1.835,1.154
			c0.419,0.524,0.63,1.154,0.576,1.836c0,0.473-0.104,0.943-0.263,1.363c-0.157,0.42-0.419,0.735-0.732,1.049
			c-0.368,0.315-0.787,0.523-1.207,0.684c-0.524,0.156-1.049,0.26-1.626,0.26c-1.26,0-2.466-0.367-3.463-1.1l1.103-2.047
			c0.313,0.314,0.734,0.576,1.154,0.734c0.366,0.157,0.733,0.262,1.102,0.262c0.314,0.055,0.683-0.051,0.944-0.262
			c0.209-0.158,0.314-0.42,0.314-0.628c0-0.159,0-0.264-0.052-0.368c-0.053-0.104-0.157-0.209-0.263-0.315
			c-0.157-0.103-0.314-0.21-0.472-0.261c-0.211-0.053-0.42-0.156-0.734-0.263c-0.314-0.104-0.629-0.209-0.996-0.366
			c-0.315-0.104-0.578-0.314-0.839-0.524c-0.263-0.21-0.473-0.472-0.629-0.786c-0.157-0.368-0.263-0.787-0.209-1.206
			c0-0.474,0.052-0.892,0.262-1.312c0.157-0.367,0.367-0.735,0.682-0.998c0.314-0.314,0.683-0.523,1.103-0.68
			c0.472-0.158,0.943-0.211,1.417-0.211c0.523,0,1.048,0.053,1.521,0.211c0.525,0.154,1.049,0.313,1.521,0.575L-53.812,250.361z"/>
		<path fill="#E97792" d="M-48.199,251.672h3.725v-3.828h2.568v9.861h-2.568v-4.092h-3.725v4.092h-2.571v-9.861h2.571V251.672z"/>
		<path fill="#E97792" d="M-37.29,247.844v9.861h-2.57v-9.861H-37.29z"/>
		<path fill="#E97792" d="M-35.664,252.773c0-1.414,0.524-2.725,1.521-3.725c0.473-0.471,1.102-0.838,1.731-1.1
			c1.415-0.524,2.989-0.524,4.404,0c0.63,0.262,1.259,0.629,1.73,1.1c0.473,0.477,0.84,1.051,1.104,1.68
			c0.523,1.313,0.523,2.781,0,4.092c-0.264,0.629-0.63,1.207-1.155,1.68c-0.525,0.472-1.102,0.84-1.729,1.103
			c-1.418,0.522-2.99,0.522-4.406,0C-34.405,256.814-35.664,254.926-35.664,252.773z M-32.989,252.773
			c0,0.369,0.053,0.736,0.21,1.104c0.264,0.681,0.839,1.152,1.468,1.416c0.683,0.261,1.469,0.261,2.151,0
			c0.315-0.158,0.629-0.314,0.892-0.578c0.263-0.262,0.473-0.523,0.631-0.891c0.156-0.367,0.209-0.735,0.209-1.103
			c0-0.735-0.315-1.47-0.84-1.94c-0.263-0.263-0.576-0.42-0.892-0.578c-0.683-0.26-1.468-0.26-2.15,0
			c-0.314,0.158-0.629,0.315-0.892,0.578c-0.263,0.262-0.472,0.523-0.63,0.84C-32.884,252.039-32.989,252.408-32.989,252.773
			L-32.989,252.773z"/>
		<path fill="#E97792" d="M-23.074,257.758v-9.86h2.569l4.721,6.031v-6.031h2.569v9.86h-2.569l-4.773-6.033v6.033H-23.074z"/>
		<path fill="#E97792" d="M-64.616,270.346h-2.571v-9.859h4.092c0.943-0.053,1.836,0.262,2.568,0.838
			c1.207,1.416,1.207,3.463,0,4.879c-0.681,0.629-1.625,0.943-2.568,0.892h-1.521L-64.616,270.346L-64.616,270.346z
			 M-64.616,264.996h0.838c0.945,0,1.417-0.418,1.417-1.258c0-0.841-0.472-1.261-1.417-1.261h-0.838V264.996z"/>
		<path fill="#E97792" d="M-55.752,260.433v7.709h3.094v2.149h-5.665v-9.858H-55.752L-55.752,260.433z"/>
		<path fill="#E97792" d="M-44.842,268.615h-3.672l-0.577,1.731h-2.728l3.776-9.86h2.779l3.776,9.86h-2.729L-44.842,268.615z
			 M-45.525,266.674l-1.153-3.305l-1.153,3.305H-45.525z"/>
		<path fill="#E97792" d="M-36.923,268.142h4.143v2.203h-8.443l4.669-7.711h-3.883v-2.147h8.183L-36.923,268.142z"/>
		<path fill="#E97792" d="M-24.964,268.615h-3.672l-0.578,1.731h-2.729l3.778-9.86h2.833l3.776,9.86h-2.728L-24.964,268.615z
			 M-25.646,266.674l-1.153-3.305l-1.153,3.305H-25.646z"/>
		<g id="Statue_4_">
			<rect x="-60.315" y="237.615" fill="#F6C9D3" width="30.842" height="7.502"/>
			<path fill="#ED92A8" d="M-58.847,236.883c-0.209,0.209-0.157,0.523,0.053,0.732c0.104,0.104,0.209,0.104,0.314,0.158h11.645
				c1.625,0,3.094-0.892,3.829-2.256l3.775-6.871c0.787-1.417,1.626-2.729,2.623-4.037c0.263-0.369,0.786-0.475,1.206-0.158
				c0.21,0.158,0.367,0.42,0.315,0.684v12.641h1.259v-6.82c0-2.465,0.629-4.824,1.888-6.922c2.256-3.83,0.997-8.76-2.833-11.017
				l-3.934,4.774l-7.711,12.324c-0.996,1.574-2.569,2.729-4.405,3.252l-3.304,0.893C-55.909,234.679-57.535,235.625-58.847,236.883z
				"/>
		</g>
	</g>
</g>
<g id="Layer_2_6_">
	<g id="Gourmet">
		<path fill="#3399FF" d="M31.476,251.643h5.17c0,0.479,0,0.959-0.055,1.439c-0.053,0.424-0.105,0.797-0.266,1.225
			c-0.16,0.479-0.428,0.959-0.746,1.385c-0.32,0.372-0.693,0.745-1.119,1.012c-0.426,0.268-0.906,0.479-1.438,0.641
			c-0.533,0.158-1.066,0.213-1.6,0.213c-0.746,0-1.439-0.105-2.131-0.373c-0.641-0.213-1.172-0.586-1.652-1.064
			c-0.479-0.479-0.852-1.065-1.064-1.705c-0.268-0.694-0.428-1.439-0.428-2.187s0.107-1.438,0.373-2.131
			c0.215-0.638,0.586-1.171,1.068-1.651c0.479-0.479,1.064-0.853,1.705-1.064c0.691-0.268,1.438-0.43,2.184-0.43
			c0.961,0,1.918,0.215,2.771,0.696c0.852,0.478,1.492,1.224,1.865,2.13l-2.451,1.014c-0.16-0.479-0.479-0.906-0.906-1.174
			c-0.373-0.268-0.799-0.373-1.279-0.373c-0.373,0-0.746,0.055-1.064,0.215c-0.32,0.158-0.586,0.371-0.801,0.639
			c-0.213,0.266-0.426,0.641-0.531,0.96c-0.268,0.799-0.268,1.649,0,2.45c0.105,0.373,0.266,0.691,0.479,0.96
			c0.213,0.267,0.479,0.479,0.799,0.64c0.373,0.159,0.746,0.213,1.172,0.213c0.268,0,0.48-0.054,0.746-0.107
			c0.215-0.051,0.428-0.158,0.641-0.266c0.213-0.104,0.373-0.32,0.48-0.479c0.105-0.213,0.213-0.48,0.266-0.747h-2.186v-2.079
			H31.476z"/>
		<path fill="#3399FF" d="M37.87,252.229c0-1.439,0.533-2.771,1.545-3.783c0.48-0.479,1.119-0.854,1.76-1.119
			c1.438-0.533,3.037-0.533,4.475,0c0.641,0.267,1.279,0.641,1.76,1.119c2.078,2.023,2.131,5.381,0.055,7.459l-0.055,0.055
			c-0.533,0.479-1.119,0.853-1.76,1.117c-1.438,0.533-3.037,0.533-4.475,0c-0.641-0.266-1.225-0.64-1.76-1.117
			c-0.479-0.479-0.854-1.066-1.119-1.705C37.978,253.668,37.87,252.974,37.87,252.229z M40.587,252.229
			c0,0.373,0.055,0.744,0.215,1.118c0.16,0.319,0.373,0.64,0.639,0.853c0.268,0.268,0.586,0.426,0.906,0.586
			c1.439,0.586,3.037-0.053,3.676-1.438c0.32-0.69,0.32-1.491,0-2.235c-0.16-0.322-0.373-0.643-0.639-0.908
			c-0.801-0.799-2.025-1.012-3.092-0.586c-0.32,0.106-0.639,0.32-0.904,0.586c-0.268,0.267-0.48,0.533-0.641,0.908
			C40.642,251.483,40.587,251.855,40.587,252.229z"/>
		<path fill="#3399FF" d="M53.271,247.222v5.435c0,0.318,0,0.586,0.055,0.904c0,0.268,0.105,0.585,0.213,0.854
			c0.105,0.267,0.318,0.479,0.531,0.586c0.32,0.16,0.641,0.267,1.014,0.213c0.373,0,0.691-0.053,1.012-0.213
			c0.213-0.158,0.426-0.373,0.533-0.586c0.105-0.269,0.16-0.533,0.213-0.854c0-0.318,0.053-0.586,0.053-0.904v-5.435h2.561v5.808
			c0,1.545-0.375,2.717-1.068,3.409c-0.691,0.692-1.811,1.065-3.303,1.065s-2.559-0.373-3.305-1.065
			c-0.744-0.692-1.064-1.864-1.064-3.409v-5.808H53.271z"/>
		<path fill="#3399FF" d="M69.843,257.236h-3.25l-2.506-3.837v3.837h-2.609v-10.07h4.104c0.479,0,1.012,0.056,1.49,0.268
			c0.373,0.159,0.746,0.372,1.014,0.691c0.268,0.268,0.48,0.64,0.639,0.959c0.16,0.375,0.213,0.801,0.213,1.172
			c0.053,0.642-0.16,1.334-0.533,1.865c-0.426,0.533-1.012,0.854-1.65,0.961L69.843,257.236z M64.087,251.695h0.479
			c0.428,0.055,0.854-0.105,1.172-0.318c0.48-0.479,0.533-1.228,0.109-1.76c-0.055-0.055-0.055-0.055-0.109-0.106
			c-0.371-0.214-0.744-0.373-1.172-0.319h-0.479V251.695z"/>
		<path fill="#3399FF" d="M70.481,257.236l1.705-10.016h2.559l2.025,5.381l2.023-5.381h2.611l1.705,10.016h-2.611l-0.852-5.753
			l-2.398,5.808h-1.012l-2.291-5.808l-0.854,5.808h-2.611V257.236L70.481,257.236z"/>
		<path fill="#3399FF" d="M90.413,249.404h-3.092v1.707h2.932v2.235h-2.932v1.706h3.092v2.236h-5.701v-10.018h5.701V249.404
			L90.413,249.404z"/>
		<path fill="#3399FF" d="M96.112,249.404v7.832h-2.609v-7.832H91.37v-2.184h6.928v2.184H96.112z"/>
		<path fill="#3399FF" d="M44.798,262.565c-0.268-0.213-0.533-0.426-0.854-0.532c-0.266-0.105-0.533-0.158-0.852-0.158
			c-0.32,0-0.586,0.053-0.801,0.266c-0.213,0.159-0.32,0.373-0.32,0.639c0,0.16,0.055,0.321,0.16,0.428
			c0.105,0.105,0.266,0.211,0.426,0.32c0.215,0.105,0.373,0.158,0.586,0.213l0.641,0.213c0.691,0.213,1.385,0.586,1.863,1.117
			c0.428,0.534,0.641,1.174,0.586,1.865c0,0.48-0.053,0.961-0.266,1.387c-0.16,0.428-0.426,0.746-0.746,1.065
			c-0.373,0.319-0.799,0.532-1.225,0.692c-0.533,0.16-1.066,0.267-1.652,0.267c-1.279,0-2.504-0.373-3.518-1.118l1.119-2.08
			c0.32,0.32,0.693,0.588,1.119,0.803c0.373,0.158,0.746,0.266,1.119,0.266c0.32,0.053,0.693-0.055,0.959-0.319
			c0.215-0.159,0.322-0.428,0.322-0.641c0-0.159-0.055-0.267-0.107-0.372s-0.158-0.213-0.266-0.32
			c-0.16-0.105-0.32-0.213-0.48-0.268c-0.213-0.104-0.426-0.159-0.744-0.266c-0.268-0.105-0.641-0.213-1.014-0.373
			c-0.318-0.105-0.586-0.318-0.852-0.533c-0.268-0.215-0.426-0.479-0.586-0.799c-0.16-0.373-0.268-0.799-0.213-1.226
			c0-0.479,0.053-0.905,0.213-1.388c0.16-0.426,0.373-0.745,0.691-1.065c0.32-0.319,0.693-0.532,1.066-0.69
			c0.479-0.162,0.959-0.269,1.438-0.213c0.533,0,1.066,0.051,1.547,0.213c0.531,0.158,1.064,0.318,1.545,0.586L44.798,262.565z"/>
		<path fill="#3399FF" d="M51.726,262.193v7.834h-2.611v-7.834h-2.131v-2.187h6.873v2.187H51.726z"/>
		<path fill="#3399FF" d="M63.396,270.027h-3.25l-2.506-3.837v3.837h-2.611v-10.072h4.051c0.479,0,1.012,0.053,1.492,0.266
			c0.746,0.268,1.385,0.908,1.652,1.654c0.158,0.371,0.211,0.799,0.211,1.226c0.055,0.64-0.16,1.331-0.533,1.865
			c-0.426,0.479-1.012,0.853-1.65,0.96L63.396,270.027z M57.64,264.484h0.48c0.426,0.053,0.852-0.105,1.172-0.32
			c0.479-0.479,0.533-1.226,0.105-1.758c-0.053-0.055-0.053-0.055-0.105-0.106c-0.373-0.212-0.746-0.372-1.172-0.318h-0.48V264.484z
			"/>
		<path fill="#3399FF" d="M70.163,262.193h-3.092v1.651h2.932v2.237h-2.932v1.705h3.092v2.186h-5.701v-10.018h5.701V262.193z"/>
		<path fill="#3399FF" d="M77.784,262.193h-3.092v1.651h2.932v2.237h-2.932v1.705h3.092v2.186h-5.703v-10.018h5.703V262.193z"/>
		<path fill="#3399FF" d="M83.485,262.193v7.834h-2.611v-7.834h-2.133v-2.187h6.928v2.187H83.485z"/>
		<g id="Statue_5_">
			<rect x="48.636" y="235.176" fill="#3399FF" width="26.695" height="9.113"/>
			<path fill="#C2E0FF" d="M69.685,217.059c1.918-0.96,1.65-0.8,2.344-0.8c0.746,0,1.439,0.104,2.186,0.267l2.396-2.664
				c1.279-1.279-0.158-4.316-1.439-5.596c-1.277-1.279-3.303-1.279-4.582,0l0,0L47.729,231.18c-1.279,1.279-1.279,3.355,0,4.636
				c0.641,0.64,2.824,1.918,3.73,1.918c0.852,0,1.705-0.319,2.291-0.96l2.344-2.291c-0.373-1.865-0.533-3.25,0.906-4.688
				L69.685,217.059z"/>
			<path fill="#70B8FF" d="M68.724,210.184c-0.691-0.479-2.344-1.277-3.145-1.277c-1.117,0-2.131,0.426-2.932,1.225l-12.682,12.684
				c-1.439,1.438-0.746,4.21,0.32,5.809L68.724,210.184z"/>
			<path fill="#70B8FF" d="M75.278,217.271c-1.598-1.6-4.209-1.652-5.809-0.055l-0.053,0.055l-12.631,12.682
				c-1.6,1.6-1.6,4.265,0,5.862l0.055,0.054c1.598,1.599,4.209,1.599,5.807,0l0,0l12.684-12.684
				C76.931,221.533,76.931,218.924,75.278,217.271L75.278,217.271z"/>
			<path fill="#3399FF" d="M52.897,230.914c0.107,0.053,0.213,0.053,0.32,0.053c0.32,0,0.639-0.213,0.746-0.531l0.639-1.548
				c0.32-0.798,0.959-1.438,1.758-1.757c1.227-0.48,2.188-1.44,2.664-2.665c0.322-0.8,0.961-1.438,1.707-1.759
				c1.227-0.479,2.186-1.438,2.664-2.666c0.32-0.799,0.959-1.438,1.707-1.756c1.227-0.481,2.186-1.438,2.664-2.664
				c0.318-0.801,0.959-1.439,1.705-1.76l1.545-0.64c0.426-0.16,0.639-0.64,0.48-1.065c-0.162-0.426-0.641-0.64-1.066-0.479
				l-1.598,0.64c-1.227,0.479-2.186,1.439-2.666,2.665c-0.318,0.8-0.959,1.438-1.758,1.759c-1.225,0.479-2.184,1.438-2.662,2.664
				c-0.32,0.801-0.961,1.439-1.76,1.758c-1.227,0.479-2.186,1.438-2.666,2.664c-0.318,0.801-0.959,1.438-1.758,1.76
				c-1.225,0.479-2.186,1.438-2.666,2.662l-0.639,1.549C52.206,230.273,52.472,230.754,52.897,230.914z"/>
		</g>
	</g>
</g>
<g id="Layer_2_5_">
	<g id="Layer_11">
		<path fill="#FF6633" d="M503.552,247.43v7.771h3.12v2.219h-5.709v-9.99H503.552z"/>
		<path fill="#FF6633" d="M510.582,247.43v9.99h-2.59v-9.99H510.582z"/>
		<path fill="#FF6633" d="M514.442,247.43l2.38,6.079l2.432-6.079h2.854l-4.229,9.99h-2.062l-4.177-9.99H514.442z"/>
		<path fill="#FF6633" d="M525.701,247.43v9.99h-2.59v-9.99H525.701z"/>
		<path fill="#FF6633" d="M527.816,257.42v-9.99h2.59l4.758,6.079v-6.079h2.59v9.99h-2.59l-4.758-6.08v6.08H527.816z"/>
		<path fill="#FF6633" d="M544.893,251.816h5.128c0,0.477,0,0.953-0.053,1.428c-0.054,0.422-0.106,0.793-0.265,1.216
			c-0.158,0.476-0.422,0.951-0.74,1.375c-0.317,0.37-0.688,0.741-1.11,1.004c-0.423,0.265-0.899,0.476-1.374,0.636
			c-0.529,0.156-1.057,0.211-1.586,0.211c-0.74,0-1.427-0.105-2.114-0.371c-0.635-0.211-1.163-0.582-1.64-1.057
			c-0.475-0.476-0.846-1.058-1.057-1.691c-0.528-1.375-0.528-2.906,0-4.281c0.211-0.635,0.582-1.163,1.057-1.641
			c0.477-0.476,1.057-0.847,1.691-1.059c0.688-0.263,1.428-0.421,2.168-0.37c0.951,0,1.903,0.214,2.748,0.688
			c0.848,0.476,1.48,1.217,1.851,2.115l-2.433,1.004c-0.158-0.477-0.475-0.898-0.898-1.162c-0.369-0.266-0.792-0.37-1.268-0.37
			c-0.371,0-0.74,0.053-1.059,0.212c-0.316,0.158-0.582,0.37-0.793,0.633c-0.212,0.266-0.424,0.635-0.529,0.952
			c-0.158,0.423-0.211,0.846-0.211,1.271c0,0.422,0.055,0.791,0.159,1.162c0.106,0.368,0.265,0.688,0.478,0.95
			c0.211,0.211,0.475,0.423,0.791,0.582c0.371,0.159,0.74,0.211,1.112,0.211c0.265,0,0.476-0.053,0.739-0.104
			c0.212-0.053,0.424-0.157,0.635-0.266c0.211-0.104,0.37-0.314,0.477-0.476c0.158-0.21,0.209-0.476,0.263-0.74h-2.113
			L544.893,251.816z"/>
		<path fill="#FF6633" d="M510.953,270.107h-3.225l-2.484-3.808v3.808h-2.591v-9.99h4.017c0.477,0,1.006,0.052,1.48,0.264
			c0.369,0.159,0.739,0.37,1.004,0.688c0.264,0.265,0.475,0.635,0.581,0.949c0.159,0.371,0.212,0.795,0.212,1.164
			c0.053,0.635-0.158,1.321-0.529,1.852c-0.422,0.527-0.951,0.846-1.586,0.951L510.953,270.107z M505.244,264.559h0.476
			c0.423,0.053,0.845-0.105,1.163-0.317c0.529-0.476,0.529-1.216,0.105-1.745c-0.053-0.055-0.053-0.055-0.105-0.105
			c-0.37-0.211-0.739-0.371-1.163-0.315h-0.476V264.559z"/>
		<path fill="#FF6633" d="M511.375,265.085c0-2.166,1.27-4.069,3.277-4.862c1.428-0.527,3.014-0.527,4.441,0
			c0.633,0.264,1.268,0.635,1.744,1.11c0.476,0.476,0.898,1.058,1.164,1.69c0.527,1.322,0.527,2.802,0,4.123
			c-0.266,0.635-0.635,1.217-1.164,1.69c-0.529,0.478-1.11,0.847-1.744,1.113c-1.428,0.526-3.014,0.526-4.441,0
			C512.699,269.156,511.375,267.254,511.375,265.085z M514.072,265.085c0,0.371,0.053,0.74,0.211,1.112
			c0.158,0.316,0.37,0.635,0.582,0.896c0.266,0.264,0.582,0.424,0.899,0.581c0.688,0.265,1.479,0.265,2.167,0
			c0.316-0.157,0.636-0.317,0.898-0.581c0.266-0.263,0.477-0.527,0.635-0.896c0.158-0.372,0.211-0.741,0.211-1.112
			c0-0.369-0.053-0.739-0.211-1.108c-0.159-0.316-0.37-0.635-0.635-0.898c-0.263-0.264-0.582-0.422-0.898-0.582
			c-0.688-0.266-1.479-0.266-2.167,0c-0.687,0.264-1.216,0.794-1.479,1.428C514.178,264.346,514.072,264.716,514.072,265.085z"/>
		<path fill="#FF6633" d="M523.588,265.085c0-2.166,1.268-4.069,3.279-4.862c1.426-0.527,3.012-0.527,4.439,0
			c0.634,0.264,1.27,0.635,1.744,1.11c2.062,2.062,2.062,5.34,0.054,7.453l-0.054,0.052c-0.528,0.477-1.11,0.848-1.744,1.113
			c-1.428,0.527-3.014,0.527-4.439,0C524.908,269.156,523.588,267.254,523.588,265.085z M526.336,265.085
			c0,0.371,0.053,0.74,0.211,1.112c0.634,1.373,2.221,2.007,3.646,1.426c0.318-0.159,0.635-0.316,0.899-0.581
			s0.476-0.53,0.635-0.899s0.211-0.738,0.211-1.108c0-0.371-0.053-0.739-0.211-1.11c-0.159-0.316-0.37-0.634-0.635-0.846
			c-0.792-0.793-2.009-1.005-3.066-0.582c-0.317,0.105-0.633,0.316-0.897,0.582c-0.264,0.265-0.477,0.527-0.582,0.896
			C526.389,264.346,526.336,264.716,526.336,265.085L526.336,265.085z"/>
		<path fill="#FF6633" d="M535.852,270.107l1.691-9.99h2.539l2.008,5.285l2.009-5.285h2.592l1.69,9.938h-2.59l-0.846-5.709
			l-2.328,5.709h-1.057l-2.221-5.709l-0.846,5.709L535.852,270.107z"/>
		<g id="Statue_6_">
			<rect x="505.931" y="237.068" fill="#FFC2AD" width="38.696" height="8.035"/>
			<rect x="509.578" y="233.684" fill="#FF855C" width="4.019" height="4.021"/>
			<rect x="536.961" y="233.684" fill="#FF6633" width="4.02" height="4.021"/>
			<path fill="#FF855C" d="M540.082,223.8v-5.394c0-1.479-1.215-2.697-2.697-2.697h-12.105v13.482h14.803V223.8L540.082,223.8z"/>
			<path fill="#FF6633" d="M525.278,215.71h-12.157c-1.481,0-2.697,1.218-2.697,2.696v10.785h14.854V215.71L525.278,215.71z"/>
			<path fill="#FFC2AD" d="M542.777,220.152c-1.217,0-2.697,1.056-2.697,2.271v5.604c0,0.634-0.475,1.108-1.108,1.108l0,0H511.64
				c-0.634,0-1.108-0.476-1.163-1.108l0,0l-0.053-5.604c0-1.216-1.641-2.379-2.748-2.379c-1.217,0-2.645,1.163-2.645,2.379v11.207
				h40.494v-11.207C545.474,221.208,543.94,220.152,542.777,220.152z"/>
		</g>
	</g>
</g>
<g>
	<path fill="#371B87" d="M-166.058,248.973v-9.361h1.636v8h3.656v1.361H-166.058z"/>
	<path fill="#371B87" d="M-159.44,248.973v-9.361h5.615v1.292h-3.979v2.347h3.979v1.336h-3.979v3.024h3.979v1.362H-159.44
		L-159.44,248.973z"/>
	<path fill="#371B87" d="M-146.374,244.178h3.986c0,0.063,0.002,0.152,0.007,0.269c0.014,0.304,0.021,0.507,0.021,0.614
		c0,1.316-0.405,2.34-1.216,3.068c-0.811,0.729-1.955,1.094-3.43,1.094c-0.825,0-1.561-0.112-2.207-0.338
		c-0.646-0.227-1.212-0.567-1.698-1.023c-0.477-0.451-0.842-0.982-1.096-1.592s-0.381-1.262-0.381-1.957
		c0-0.708,0.129-1.359,0.388-1.957c0.259-0.598,0.643-1.123,1.151-1.579c0.49-0.448,1.065-0.789,1.725-1.022
		c0.66-0.234,1.365-0.353,2.117-0.353c0.792,0,1.501,0.134,2.127,0.403c0.626,0.269,1.183,0.68,1.674,1.234l-1.196,0.838
		c-0.339-0.367-0.722-0.641-1.147-0.818c-0.426-0.18-0.903-0.27-1.43-0.27c-1.091,0-1.98,0.325-2.67,0.975
		c-0.689,0.65-1.034,1.496-1.034,2.537c0,1.057,0.345,1.914,1.034,2.574c0.69,0.658,1.584,0.987,2.684,0.987
		c0.935,0,1.67-0.202,2.207-0.606c0.536-0.405,0.804-0.957,0.804-1.656v-0.135h-2.42V244.178z"/>
	<path fill="#371B87" d="M-140.641,248.973v-9.361h5.615v1.292h-3.979v2.347h3.979v1.336h-3.979v3.024h3.979v1.362H-140.641
		L-140.641,248.973z"/>
	<path fill="#371B87" d="M-133.149,248.973v-9.732l6.393,5.725c0.174,0.162,0.351,0.334,0.528,0.518
		c0.179,0.184,0.366,0.391,0.563,0.621v-6.491h1.512v9.726l-6.523-5.824c-0.174-0.158-0.342-0.324-0.505-0.5
		c-0.163-0.174-0.317-0.357-0.464-0.549v6.51h-1.504V248.973z"/>
	<path fill="#371B87" d="M-121.842,248.973v-9.361h2.205c1.434,0,2.443,0.066,3.028,0.202c0.584,0.134,1.096,0.358,1.536,0.674
		c0.582,0.414,1.023,0.944,1.322,1.593c0.301,0.647,0.451,1.387,0.451,2.219c0,0.83-0.15,1.566-0.451,2.209
		c-0.299,0.642-0.741,1.17-1.322,1.588c-0.44,0.316-0.94,0.541-1.502,0.675c-0.561,0.134-1.436,0.202-2.622,0.202h-0.44H-121.842
		L-121.842,248.973z M-120.208,247.598h1.375c0.756,0,1.322-0.047,1.701-0.141c0.377-0.094,0.707-0.25,0.985-0.473
		c0.38-0.303,0.666-0.68,0.854-1.128c0.19-0.45,0.287-0.974,0.287-1.569c0-0.598-0.096-1.121-0.287-1.57
		c-0.189-0.45-0.475-0.826-0.854-1.129c-0.284-0.222-0.625-0.379-1.021-0.473c-0.396-0.094-1.017-0.141-1.859-0.141h-0.591h-0.591
		V247.598z"/>
</g>
</svg>
