<?xml version="1.0" encoding="utf-8"?>
<!-- Generator: Adobe Illustrator 24.0.0, SVG Export Plug-In . SVG Version: 6.00 Build 0)  -->
<svg version="1.1" id="Layer_1" xmlns="http://www.w3.org/2000/svg" xmlns:xlink="http://www.w3.org/1999/xlink" x="0px" y="0px"
	 viewBox="0 0 503.8 87.3" width="503.79" height="87.303" style="enable-background:new 0 0 503.8 87.3;" xml:space="preserve">
<style type="text/css">
	.st0{fill:#FFF6DE;}
	.st1{enable-background:new    ;}
	.st2{fill:#332083;}
</style>
<g id="Group_129" transform="translate(-158.173 -525.383)">
	<g id="Tagline">
		<path id="Path_268" class="st0" d="M614.2,564.8l-39.3-37l-3.2-2.2l-36.6-0.1l-94.8-0.1H220.8H197l-38.7,46.1h-0.1l46.2,38.7
			l-0.1,0.2l457.8,0L614,564.8L614.2,564.8z"/>
		<g class="st1">
			<path class="st2" d="M230.4,551.7l4.9-14.3h4.9l4.9,14.3h-3.9l-0.7-2.6H235l-0.7,2.6H230.4z M235.8,546.3h3.9l-1.5-4.7
				c0-0.1-0.1-0.3-0.2-0.7c-0.1-0.4-0.2-0.9-0.3-1.2c-0.1,0.3-0.2,0.7-0.2,1c-0.1,0.3-0.2,0.6-0.3,0.9L235.8,546.3z"/>
			<path class="st2" d="M247.1,547.1c0.6,0.7,1.2,1.2,1.7,1.5c0.6,0.3,1.1,0.5,1.7,0.5c0.5,0,0.9-0.1,1.3-0.4
				c0.3-0.3,0.5-0.6,0.5-1.1c0-0.5-0.1-0.8-0.4-1.1c-0.3-0.3-1-0.5-2-0.8c-1.4-0.4-2.4-0.9-3-1.5c-0.6-0.6-0.9-1.4-0.9-2.5
				c0-1.4,0.5-2.5,1.4-3.3c0.9-0.9,2.1-1.3,3.6-1.3c0.8,0,1.6,0.1,2.2,0.3c0.7,0.2,1.4,0.5,2,1l-1.2,2.8c-0.4-0.4-0.9-0.7-1.4-0.9
				c-0.5-0.2-0.9-0.3-1.4-0.3c-0.5,0-0.8,0.1-1.1,0.3c-0.3,0.2-0.4,0.5-0.4,0.9c0,0.3,0.1,0.6,0.4,0.9c0.3,0.2,0.8,0.4,1.5,0.6
				c0,0,0,0,0.1,0s0,0,0.1,0c1.6,0.4,2.6,0.9,3.1,1.4c0.3,0.3,0.6,0.8,0.8,1.3c0.2,0.5,0.3,1,0.3,1.6c0,1.5-0.5,2.7-1.5,3.7
				c-1,0.9-2.3,1.4-4,1.4c-1,0-1.9-0.2-2.7-0.5s-1.6-0.9-2.4-1.6L247.1,547.1z"/>
			<path class="st2" d="M258.2,551.7v-14.3h3.9v14.3H258.2z"/>
			<path class="st2" d="M263.6,551.7l4.9-14.3h4.9l4.9,14.3h-3.9l-0.7-2.6h-5.5l-0.7,2.6H263.6z M269.1,546.3h3.9l-1.5-4.7
				c0-0.1-0.1-0.3-0.2-0.7c-0.1-0.4-0.2-0.9-0.3-1.2c-0.1,0.3-0.2,0.7-0.2,1c-0.1,0.3-0.2,0.6-0.3,0.9L269.1,546.3z"/>
			<path class="st2" d="M279,537.6h2.1v5.5H279V537.6z"/>
			<path class="st2" d="M284,547.1c0.6,0.7,1.2,1.2,1.7,1.5c0.6,0.3,1.1,0.5,1.7,0.5c0.5,0,0.9-0.1,1.3-0.4c0.3-0.3,0.5-0.6,0.5-1.1
				c0-0.5-0.1-0.8-0.4-1.1c-0.3-0.3-1-0.5-2-0.8c-1.4-0.4-2.4-0.9-3-1.5c-0.6-0.6-0.9-1.4-0.9-2.5c0-1.4,0.5-2.5,1.4-3.3
				c0.9-0.9,2.1-1.3,3.6-1.3c0.8,0,1.6,0.1,2.2,0.3c0.7,0.2,1.4,0.5,2,1l-1.2,2.8c-0.4-0.4-0.9-0.7-1.4-0.9
				c-0.5-0.2-0.9-0.3-1.4-0.3c-0.5,0-0.8,0.1-1.1,0.3c-0.3,0.2-0.4,0.5-0.4,0.9c0,0.3,0.1,0.6,0.4,0.9c0.3,0.2,0.8,0.4,1.5,0.6
				c0,0,0,0,0.1,0s0,0,0.1,0c1.6,0.4,2.6,0.9,3.1,1.4c0.3,0.3,0.6,0.8,0.8,1.3c0.2,0.5,0.3,1,0.3,1.6c0,1.5-0.5,2.7-1.5,3.7
				c-1,0.9-2.3,1.4-4,1.4c-1,0-1.9-0.2-2.7-0.5s-1.6-0.9-2.4-1.6L284,547.1z"/>
			<path class="st2" d="M301.2,551.7v-14.3h3.9v11h4.8v3.3H301.2z"/>
			<path class="st2" d="M310.2,551.7l4.9-14.3h4.9l4.9,14.3h-3.9l-0.7-2.6h-5.5l-0.7,2.6H310.2z M315.7,546.3h3.9l-1.5-4.7
				c0-0.1-0.1-0.3-0.2-0.7c-0.1-0.4-0.2-0.9-0.3-1.2c-0.1,0.3-0.2,0.7-0.2,1c-0.1,0.3-0.2,0.6-0.3,0.9L315.7,546.3z"/>
			<path class="st2" d="M326.3,551.7v-14.3h4.1c0.8,0,1.5,0,2,0s1,0.1,1.3,0.2c0.6,0.1,1.1,0.4,1.6,0.7c0.5,0.4,0.9,0.9,1.2,1.5
				c0.3,0.6,0.4,1.3,0.4,2c0,1.1-0.3,2-0.8,2.7c-0.5,0.7-1.3,1.2-2.4,1.4l3.9,5.8h-4.4l-3.3-5.6v5.6H326.3z M330,544.1h0.7
				c0.9,0,1.5-0.1,1.8-0.4c0.4-0.3,0.6-0.8,0.6-1.4c0-0.7-0.2-1.2-0.5-1.5c-0.4-0.3-1-0.5-1.8-0.5H330V544.1z"/>
			<path class="st2" d="M345.9,546.4v-3h7.7c0,0.1,0,0.2,0,0.3v0.5c0,2.5-0.6,4.4-1.9,5.7c-1.3,1.4-3.1,2-5.5,2
				c-1.1,0-2.2-0.2-3.1-0.5c-0.9-0.3-1.7-0.9-2.4-1.6c-0.7-0.7-1.2-1.5-1.6-2.4c-0.2-0.5-0.3-1-0.4-1.5c-0.1-0.5-0.1-1-0.1-1.5
				c0-1.1,0.2-2,0.5-2.9c0.4-0.9,0.9-1.7,1.6-2.4c0.7-0.7,1.5-1.2,2.5-1.6c0.9-0.4,1.9-0.5,3-0.5c1.4,0,2.6,0.3,3.7,0.8
				c0.3,0.2,0.7,0.4,1,0.6s0.6,0.5,0.9,0.8s0.5,0.6,0.8,1l-3.4,1.6c-0.4-0.6-0.9-1-1.4-1.2c-0.5-0.3-1.1-0.4-1.7-0.4
				c-1.2,0-2.1,0.4-2.7,1.2c-0.7,0.8-1,1.8-1,3.2c0,1.4,0.3,2.4,1,3.2c0.7,0.8,1.6,1.2,2.7,1.2c1,0,1.8-0.2,2.5-0.7
				c0.7-0.5,1.1-1.1,1.2-1.9H345.9z"/>
			<path class="st2" d="M356,551.7v-14.3h8.8v3.1h-5v2.5h4.7v3.1h-4.7v2.4h5v3.2H356z"/>
			<path class="st2" d="M368,547.1c0.6,0.7,1.2,1.2,1.7,1.5c0.6,0.3,1.1,0.5,1.7,0.5c0.5,0,0.9-0.1,1.3-0.4c0.3-0.3,0.5-0.6,0.5-1.1
				c0-0.5-0.1-0.8-0.4-1.1c-0.3-0.3-1-0.5-2-0.8c-1.4-0.4-2.4-0.9-3-1.5c-0.6-0.6-0.9-1.4-0.9-2.5c0-1.4,0.5-2.5,1.4-3.3
				c0.9-0.9,2.1-1.3,3.6-1.3c0.8,0,1.6,0.1,2.2,0.3c0.7,0.2,1.4,0.5,2,1l-1.2,2.8c-0.4-0.4-0.9-0.7-1.4-0.9
				c-0.5-0.2-0.9-0.3-1.4-0.3c-0.5,0-0.8,0.1-1.1,0.3c-0.3,0.2-0.4,0.5-0.4,0.9c0,0.3,0.1,0.6,0.4,0.9c0.3,0.2,0.8,0.4,1.5,0.6
				c0,0,0,0,0.1,0s0,0,0.1,0c1.6,0.4,2.6,0.9,3.1,1.4c0.3,0.3,0.6,0.8,0.8,1.3c0.2,0.5,0.3,1,0.3,1.6c0,1.5-0.5,2.7-1.5,3.7
				c-1,0.9-2.3,1.4-4,1.4c-1,0-1.9-0.2-2.7-0.5s-1.6-0.9-2.4-1.6L368,547.1z"/>
			<path class="st2" d="M381,551.7v-10.9h-3.2v-3.4h10.3v3.4h-3.2v10.9H381z"/>
			<path class="st2" d="M406.7,537.9v4.3c-0.6-0.6-1.1-1-1.6-1.3c-0.6-0.3-1.1-0.4-1.7-0.4c-1.1,0-2,0.4-2.7,1.1
				c-0.2,0.3-0.4,0.6-0.6,0.9s-0.3,0.6-0.3,1s-0.1,0.8-0.1,1.1c0,1.1,0.4,2.1,1.1,2.9c0.7,0.7,1.6,1.1,2.7,1.1
				c0.6,0,1.2-0.1,1.7-0.4c0.5-0.3,1-0.7,1.6-1.3v4.3c-0.7,0.3-1.3,0.6-1.8,0.7c-0.6,0.1-1.3,0.2-1.9,0.2c-0.8,0-1.5-0.1-2.2-0.3
				s-1.3-0.5-1.8-0.8c-1.1-0.7-1.9-1.6-2.4-2.7c-0.6-1.1-0.8-2.3-0.8-3.7c0-1.1,0.2-2.1,0.5-3c0.2-0.4,0.4-0.8,0.6-1.2
				s0.6-0.8,1-1.2c0.7-0.7,1.5-1.2,2.3-1.6c0.8-0.3,1.8-0.5,2.8-0.5c0.6,0,1.2,0.1,1.9,0.2C405.4,537.4,406.1,537.7,406.7,537.9z"/>
			<path class="st2" d="M408.9,551.7v-14.3h8.8v3.1h-5v2.5h4.7v3.1h-4.7v2.4h5v3.2H408.9z"/>
			<path class="st2" d="M420.2,551.7v-14.3h3.9v11h4.8v3.3H420.2z"/>
			<path class="st2" d="M430.8,551.7v-14.3h8.8v3.1h-5v2.5h4.7v3.1h-4.7v2.4h5v3.2H430.8z"/>
			<path class="st2" d="M442.2,551.7v-14.3h3.9c1.6,0,2.7,0.1,3.4,0.2c0.6,0.1,1.2,0.3,1.7,0.5c0.5,0.3,0.9,0.7,1.2,1.2
				c0.3,0.5,0.4,1.1,0.4,1.7c0,0.8-0.2,1.5-0.6,1.9c-0.4,0.5-1.1,0.8-2,1.1c1,0.1,1.8,0.4,2.4,1.1c0.6,0.6,0.9,1.5,0.9,2.6
				c0,0.8-0.2,1.4-0.5,2c-0.3,0.6-0.8,1.1-1.4,1.4c-0.5,0.2-1.1,0.4-1.8,0.6c-0.8,0.1-1.9,0.2-3.5,0.2H442.2z M445.8,543.1h0.8
				c1,0,1.6-0.1,2-0.3c0.4-0.2,0.5-0.6,0.5-1.1c0-0.5-0.2-0.9-0.5-1.1c-0.4-0.2-1-0.3-2-0.3h-0.8V543.1z M445.8,548.8h1.4
				c0.9,0,1.6-0.1,2-0.4c0.4-0.2,0.6-0.6,0.6-1.1c0-0.6-0.2-1-0.5-1.3c-0.4-0.2-1-0.4-2-0.4h-1.4V548.8z"/>
			<path class="st2" d="M455.7,551.7v-14.3h4.1c0.8,0,1.5,0,2,0c0.5,0,1,0.1,1.3,0.2c0.6,0.1,1.1,0.4,1.6,0.7
				c0.5,0.4,0.9,0.9,1.2,1.5c0.3,0.6,0.4,1.3,0.4,2c0,1.1-0.3,2-0.8,2.7c-0.5,0.7-1.3,1.2-2.4,1.4l3.9,5.8h-4.4l-3.3-5.6v5.6H455.7z
				 M459.4,544.1h0.7c0.9,0,1.5-0.1,1.8-0.4c0.4-0.3,0.6-0.8,0.6-1.4c0-0.7-0.2-1.2-0.5-1.5c-0.4-0.3-1-0.5-1.8-0.5h-0.8V544.1z"/>
			<path class="st2" d="M466.9,551.7l4.9-14.3h4.9l4.9,14.3h-3.9l-0.7-2.6h-5.5l-0.7,2.6H466.9z M472.3,546.3h3.9l-1.5-4.7
				c0-0.1-0.1-0.3-0.2-0.7c-0.1-0.4-0.2-0.9-0.3-1.2c-0.1,0.3-0.2,0.7-0.2,1c-0.1,0.3-0.2,0.6-0.3,0.9L472.3,546.3z"/>
			<path class="st2" d="M485.1,551.7v-10.9h-3.2v-3.4h10.3v3.4H489v10.9H485.1z"/>
			<path class="st2" d="M494.2,551.7v-14.3h3.9v14.3H494.2z"/>
			<path class="st2" d="M515.9,544.6c0,1-0.2,2-0.6,2.9c-0.4,0.9-0.9,1.7-1.7,2.4c-0.7,0.7-1.6,1.2-2.5,1.6c-1,0.4-2,0.6-2.9,0.6
				c-1,0-1.9-0.2-2.9-0.6c-1-0.4-1.8-0.9-2.5-1.6c-0.7-0.7-1.3-1.5-1.7-2.4c-0.4-0.9-0.6-1.9-0.6-2.9s0.2-2,0.6-2.9
				c0.4-0.9,1-1.8,1.7-2.4c0.7-0.7,1.5-1.3,2.5-1.6c0.9-0.4,1.9-0.6,2.9-0.6c1,0,2,0.2,2.9,0.6c0.9,0.4,1.7,0.9,2.5,1.6
				s1.3,1.5,1.7,2.4C515.7,542.6,515.9,543.5,515.9,544.6z M508.3,548.8c1.1,0,2-0.4,2.7-1.2c0.4-0.4,0.6-0.8,0.8-1.3
				c0.2-0.5,0.3-1,0.3-1.7c0-1.2-0.4-2.2-1.1-3c-0.7-0.8-1.6-1.2-2.7-1.2c-1.1,0-2,0.4-2.7,1.2s-1.1,1.8-1.1,3c0,1.2,0.3,2.2,1,3
				C506.3,548.4,507.2,548.8,508.3,548.8z"/>
			<path class="st2" d="M518.4,551.7v-14.3h3.8l5.4,7.4c0.1,0.2,0.3,0.5,0.5,0.9c0.3,0.5,0.5,1.1,0.8,1.6c-0.1-0.7-0.2-1.3-0.2-1.6
				c0-0.5-0.1-0.9-0.1-1.2v-7.1h3.7v14.3h-3.7l-5.4-7.4c-0.1-0.1-0.3-0.4-0.5-0.9c-0.2-0.4-0.5-0.9-0.8-1.6c0.1,0.5,0.1,1,0.2,1.6
				c0,0.6,0,1,0,1.2v7.1H518.4z"/>
		</g>
		<g class="st1">
			<path class="st2" d="M276.6,564.6c0,1-0.2,2-0.6,2.9c-0.4,0.9-0.9,1.7-1.7,2.4c-0.7,0.7-1.6,1.2-2.5,1.6c-1,0.4-2,0.6-2.9,0.6
				c-1,0-1.9-0.2-2.9-0.6c-1-0.4-1.8-0.9-2.5-1.6c-0.7-0.7-1.3-1.5-1.7-2.4c-0.4-0.9-0.6-1.9-0.6-2.9s0.2-2,0.6-2.9
				c0.4-0.9,1-1.8,1.7-2.4c0.7-0.7,1.5-1.3,2.5-1.6c0.9-0.4,1.9-0.6,2.9-0.6c1,0,2,0.2,2.9,0.6s1.7,0.9,2.5,1.6
				c0.7,0.7,1.3,1.5,1.7,2.4C276.4,562.6,276.6,563.5,276.6,564.6z M269,568.8c1.1,0,2-0.4,2.7-1.2c0.4-0.4,0.6-0.8,0.8-1.3
				s0.3-1,0.3-1.7c0-1.2-0.4-2.2-1.1-3c-0.7-0.8-1.6-1.2-2.7-1.2c-1.1,0-2,0.4-2.7,1.2s-1.1,1.8-1.1,3c0,1.2,0.3,2.2,1,3
				C267,568.4,267.9,568.8,269,568.8z"/>
			<path class="st2" d="M279.1,571.7v-14.3h8.8v3.1h-5v2.5h4.7v3.1h-4.7v5.6H279.1z"/>
			<path class="st2" d="M296.8,567.1c0.6,0.7,1.2,1.2,1.7,1.5c0.6,0.3,1.1,0.5,1.7,0.5c0.5,0,0.9-0.1,1.3-0.4
				c0.3-0.3,0.5-0.6,0.5-1.1c0-0.5-0.1-0.8-0.4-1.1c-0.3-0.3-1-0.5-2-0.8c-1.4-0.4-2.4-0.9-3-1.5c-0.6-0.6-0.9-1.4-0.9-2.5
				c0-1.4,0.5-2.5,1.4-3.3c0.9-0.9,2.1-1.3,3.6-1.3c0.8,0,1.6,0.1,2.2,0.3c0.7,0.2,1.4,0.5,2,1l-1.2,2.8c-0.4-0.4-0.9-0.7-1.4-0.9
				c-0.5-0.2-0.9-0.3-1.4-0.3c-0.5,0-0.8,0.1-1.1,0.3c-0.3,0.2-0.4,0.5-0.4,0.9c0,0.3,0.1,0.6,0.4,0.9c0.3,0.2,0.8,0.4,1.5,0.6
				c0,0,0,0,0.1,0s0,0,0.1,0c1.6,0.4,2.6,0.9,3.1,1.4c0.3,0.3,0.6,0.8,0.8,1.3c0.2,0.5,0.3,1,0.3,1.6c0,1.5-0.5,2.7-1.5,3.7
				c-1,0.9-2.3,1.4-4,1.4c-1,0-1.9-0.2-2.7-0.5s-1.6-0.9-2.4-1.6L296.8,567.1z"/>
			<path class="st2" d="M322.5,564.6c0,1-0.2,2-0.6,2.9c-0.4,0.9-0.9,1.7-1.7,2.4c-0.7,0.7-1.6,1.2-2.5,1.6c-1,0.4-2,0.6-2.9,0.6
				c-1,0-1.9-0.2-2.9-0.6c-1-0.4-1.8-0.9-2.5-1.6c-0.7-0.7-1.3-1.5-1.7-2.4c-0.4-0.9-0.6-1.9-0.6-2.9s0.2-2,0.6-2.9
				c0.4-0.9,1-1.8,1.7-2.4c0.7-0.7,1.5-1.3,2.5-1.6c0.9-0.4,1.9-0.6,2.9-0.6c1,0,2,0.2,2.9,0.6s1.7,0.9,2.5,1.6
				c0.7,0.7,1.3,1.5,1.7,2.4C322.3,562.6,322.5,563.5,322.5,564.6z M314.9,568.8c1.1,0,2-0.4,2.7-1.2c0.4-0.4,0.6-0.8,0.8-1.3
				s0.3-1,0.3-1.7c0-1.2-0.4-2.2-1.1-3c-0.7-0.8-1.6-1.2-2.7-1.2c-1.1,0-2,0.4-2.7,1.2s-1.1,1.8-1.1,3c0,1.2,0.3,2.2,1,3
				C312.9,568.4,313.8,568.8,314.9,568.8z"/>
			<path class="st2" d="M335.3,557.9v4.3c-0.6-0.6-1.1-1-1.6-1.3c-0.6-0.3-1.1-0.4-1.7-0.4c-1.1,0-2,0.4-2.7,1.1
				c-0.2,0.3-0.4,0.6-0.6,0.9s-0.3,0.6-0.3,1s-0.1,0.8-0.1,1.1c0,1.1,0.4,2.1,1.1,2.9c0.7,0.7,1.6,1.1,2.7,1.1
				c0.6,0,1.2-0.1,1.7-0.4c0.5-0.3,1-0.7,1.6-1.3v4.3c-0.7,0.3-1.3,0.6-1.8,0.7c-0.6,0.1-1.3,0.2-1.9,0.2c-0.8,0-1.5-0.1-2.2-0.3
				s-1.3-0.5-1.8-0.8c-1.1-0.7-1.9-1.6-2.4-2.7c-0.6-1.1-0.8-2.3-0.8-3.7c0-1.1,0.2-2.1,0.5-3c0.2-0.4,0.4-0.8,0.6-1.2
				s0.6-0.8,1-1.2c0.7-0.7,1.5-1.2,2.3-1.6c0.8-0.3,1.8-0.5,2.8-0.5c0.6,0,1.2,0.1,1.9,0.2C334.1,557.4,334.7,557.7,335.3,557.9z"/>
			<path class="st2" d="M337.6,571.7v-14.3h3.9v14.3H337.6z"/>
			<path class="st2" d="M343,571.7l4.9-14.3h4.9l4.9,14.3h-3.9l-0.7-2.6h-5.5l-0.7,2.6H343z M348.5,566.3h3.9l-1.5-4.7
				c0-0.1-0.1-0.3-0.2-0.7c-0.1-0.4-0.2-0.9-0.3-1.2c-0.1,0.3-0.2,0.7-0.2,1c-0.1,0.3-0.2,0.6-0.3,0.9L348.5,566.3z"/>
			<path class="st2" d="M359.1,571.7v-14.3h3.9v11h4.8v3.3H359.1z"/>
			<path class="st2" d="M376,571.7v-14.3h8.8v3.1h-5v2.5h4.7v3.1h-4.7v2.4h5v3.2H376z"/>
			<path class="st2" d="M387.4,571.7v-14.3h3.8l5.4,7.4c0.1,0.2,0.3,0.5,0.5,0.9c0.3,0.5,0.5,1.1,0.8,1.6c-0.1-0.7-0.2-1.3-0.2-1.6
				c0-0.5-0.1-0.9-0.1-1.2v-7.1h3.7v14.3h-3.7l-5.4-7.4c-0.1-0.1-0.3-0.4-0.5-0.9c-0.2-0.4-0.5-0.9-0.8-1.6c0.1,0.5,0.1,1,0.2,1.6
				c0,0.6,0,1,0,1.2v7.1H387.4z"/>
			<path class="st2" d="M406.5,571.7v-10.9h-3.2v-3.4h10.3v3.4h-3.2v10.9H406.5z"/>
			<path class="st2" d="M415.5,571.7v-14.3h8.8v3.1h-5v2.5h4.7v3.1h-4.7v2.4h5v3.2H415.5z"/>
			<path class="st2" d="M426.8,571.7v-14.3h4.1c0.8,0,1.5,0,2,0c0.5,0,1,0.1,1.3,0.2c0.6,0.1,1.1,0.4,1.6,0.7
				c0.5,0.4,0.9,0.9,1.2,1.5c0.3,0.6,0.4,1.3,0.4,2c0,1.1-0.3,2-0.8,2.7c-0.5,0.7-1.3,1.2-2.4,1.4l3.9,5.8h-4.4l-3.3-5.6v5.6H426.8z
				 M430.5,564.1h0.7c0.9,0,1.5-0.1,1.8-0.4c0.4-0.3,0.6-0.8,0.6-1.4c0-0.7-0.2-1.2-0.5-1.5c-0.4-0.3-1-0.5-1.8-0.5h-0.8V564.1z"/>
			<path class="st2" d="M443.3,571.7h-3.7v-14.3h4.1c1.6,0,2.7,0.1,3.4,0.2c0.7,0.2,1.2,0.4,1.6,0.8c0.5,0.4,0.9,1,1.2,1.6
				c0.3,0.7,0.4,1.4,0.4,2.2c0,0.9-0.1,1.6-0.4,2.2c-0.2,0.6-0.6,1.2-1.2,1.6c-0.4,0.3-0.9,0.5-1.4,0.7c-0.5,0.1-1.4,0.2-2.6,0.2
				H444h-0.7V571.7z M443.3,563.8h0.7c0.9,0,1.6-0.1,2-0.4c0.4-0.2,0.6-0.7,0.6-1.3c0-0.6-0.2-1-0.5-1.3s-1-0.4-1.9-0.4h-0.8V563.8z
				"/>
			<path class="st2" d="M452.3,571.7v-14.3h4.1c0.8,0,1.5,0,2,0c0.5,0,1,0.1,1.3,0.2c0.6,0.1,1.1,0.4,1.6,0.7
				c0.5,0.4,0.9,0.9,1.2,1.5c0.3,0.6,0.4,1.3,0.4,2c0,1.1-0.3,2-0.8,2.7c-0.5,0.7-1.3,1.2-2.4,1.4l3.9,5.8h-4.4l-3.3-5.6v5.6H452.3z
				 M456,564.1h0.7c0.9,0,1.5-0.1,1.8-0.4c0.4-0.3,0.6-0.8,0.6-1.4c0-0.7-0.2-1.2-0.5-1.5c-0.4-0.3-1-0.5-1.8-0.5H456V564.1z"/>
			<path class="st2" d="M465.2,571.7v-14.3h3.9v14.3H465.2z"/>
			<path class="st2" d="M472.9,567.1c0.6,0.7,1.2,1.2,1.7,1.5c0.6,0.3,1.1,0.5,1.7,0.5c0.5,0,0.9-0.1,1.3-0.4s0.5-0.6,0.5-1.1
				c0-0.5-0.1-0.8-0.4-1.1c-0.3-0.3-1-0.5-2-0.8c-1.4-0.4-2.4-0.9-3-1.5c-0.6-0.6-0.9-1.4-0.9-2.5c0-1.4,0.5-2.5,1.4-3.3
				c0.9-0.9,2.1-1.3,3.6-1.3c0.8,0,1.6,0.1,2.2,0.3c0.7,0.2,1.4,0.5,2,1l-1.2,2.8c-0.4-0.4-0.9-0.7-1.4-0.9
				c-0.5-0.2-0.9-0.3-1.4-0.3c-0.5,0-0.8,0.1-1.1,0.3c-0.3,0.2-0.4,0.5-0.4,0.9c0,0.3,0.1,0.6,0.4,0.9c0.3,0.2,0.8,0.4,1.5,0.6
				c0,0,0,0,0.1,0s0,0,0.1,0c1.6,0.4,2.6,0.9,3.1,1.4c0.3,0.3,0.6,0.8,0.8,1.3c0.2,0.5,0.3,1,0.3,1.6c0,1.5-0.5,2.7-1.5,3.7
				c-1,0.9-2.3,1.4-4,1.4c-1,0-1.9-0.2-2.7-0.5c-0.8-0.3-1.6-0.9-2.4-1.6L472.9,567.1z"/>
			<path class="st2" d="M483.9,571.7v-14.3h8.8v3.1h-5v2.5h4.7v3.1h-4.7v2.4h5v3.2H483.9z"/>
			<path class="st2" d="M495.9,567.1c0.6,0.7,1.2,1.2,1.7,1.5c0.6,0.3,1.1,0.5,1.7,0.5c0.5,0,0.9-0.1,1.3-0.4s0.5-0.6,0.5-1.1
				c0-0.5-0.1-0.8-0.4-1.1c-0.3-0.3-1-0.5-2-0.8c-1.4-0.4-2.4-0.9-3-1.5c-0.6-0.6-0.9-1.4-0.9-2.5c0-1.4,0.5-2.5,1.4-3.3
				c0.9-0.9,2.1-1.3,3.6-1.3c0.8,0,1.6,0.1,2.2,0.3c0.7,0.2,1.4,0.5,2,1l-1.2,2.8c-0.4-0.4-0.9-0.7-1.4-0.9
				c-0.5-0.2-0.9-0.3-1.4-0.3c-0.5,0-0.8,0.1-1.1,0.3c-0.3,0.2-0.4,0.5-0.4,0.9c0,0.3,0.1,0.6,0.4,0.9c0.3,0.2,0.8,0.4,1.5,0.6
				c0,0,0,0,0.1,0s0,0,0.1,0c1.6,0.4,2.6,0.9,3.1,1.4c0.3,0.3,0.6,0.8,0.8,1.3c0.2,0.5,0.3,1,0.3,1.6c0,1.5-0.5,2.7-1.5,3.7
				c-1,0.9-2.3,1.4-4,1.4c-1,0-1.9-0.2-2.7-0.5c-0.8-0.3-1.6-0.9-2.4-1.6L495.9,567.1z"/>
		</g>
		<g class="st1">
			<path class="st2" d="M286.9,591.7l4.9-14.3h4.9l4.9,14.3h-3.9l-0.7-2.6h-5.5l-0.7,2.6H286.9z M292.3,586.3h3.9l-1.5-4.7
				c0-0.1-0.1-0.3-0.2-0.7c-0.1-0.4-0.2-0.9-0.3-1.2c-0.1,0.3-0.2,0.7-0.2,1c-0.1,0.3-0.2,0.6-0.3,0.9L292.3,586.3z"/>
			<path class="st2" d="M303,591.7v-14.3h3.8l5.4,7.4c0.1,0.2,0.3,0.5,0.5,0.9c0.3,0.5,0.5,1.1,0.8,1.6c-0.1-0.7-0.2-1.3-0.2-1.6
				c0-0.5-0.1-0.9-0.1-1.2v-7.1h3.7v14.3h-3.7l-5.4-7.4c-0.1-0.1-0.3-0.4-0.5-0.9c-0.2-0.4-0.5-0.9-0.8-1.6c0.1,0.5,0.1,1,0.2,1.6
				c0,0.6,0,1,0,1.2v7.1H303z"/>
			<path class="st2" d="M320,591.7v-14.3h3c2.3,0,3.8,0.1,4.7,0.3c0.9,0.2,1.7,0.6,2.4,1c0.9,0.6,1.6,1.4,2.1,2.4
				c0.5,1,0.7,2.1,0.7,3.4c0,1.3-0.2,2.4-0.7,3.4c-0.5,1-1.1,1.8-2.1,2.4c-0.7,0.5-1.5,0.8-2.4,1c-0.9,0.2-2.2,0.3-4.1,0.3H323H320z
				 M323.9,588.5h0.7c1.5,0,2.7-0.3,3.3-1c0.7-0.6,1.1-1.6,1.1-3c0-1.4-0.4-2.4-1.1-3s-1.8-1-3.3-1h-0.7V588.5z"/>
			<path class="st2" d="M343.7,591.7v-10.9h-3.2v-3.4h10.3v3.4h-3.2v10.9H343.7z"/>
			<path class="st2" d="M352.7,591.7v-14.3h3.9v5.6h5.2v-5.6h3.9v14.3h-3.9v-5.8h-5.2v5.8H352.7z"/>
			<path class="st2" d="M368.7,591.7v-14.3h8.8v3.1h-5v2.5h4.7v3.1h-4.7v2.4h5v3.2H368.7z"/>
			<path class="st2" d="M380.2,591.7v-14.3h3.9v14.3H380.2z"/>
			<path class="st2" d="M387.2,591.7v-14.3h4.1c0.8,0,1.5,0,2,0s1,0.1,1.3,0.2c0.6,0.1,1.1,0.4,1.6,0.7c0.5,0.4,0.9,0.9,1.2,1.5
				c0.3,0.6,0.4,1.3,0.4,2c0,1.1-0.3,2-0.8,2.7c-0.5,0.7-1.3,1.2-2.4,1.4l3.9,5.8h-4.4l-3.3-5.6v5.6H387.2z M390.9,584.1h0.7
				c0.9,0,1.5-0.1,1.8-0.4c0.4-0.3,0.6-0.8,0.6-1.4c0-0.7-0.2-1.2-0.5-1.5c-0.4-0.3-1-0.5-1.8-0.5h-0.8V584.1z"/>
			<path class="st2" d="M406.4,591.7v-14.3h3.9v14.3H406.4z"/>
			<path class="st2" d="M429.9,591.7h-3.6l-0.8-6.2c-0.1-0.6-0.1-1-0.2-1.5c0-0.4-0.1-1-0.1-1.7c-0.1,0.7-0.3,1.4-0.5,2.3
				c-0.1,0.2-0.1,0.3-0.1,0.4l-1.9,6.7h-2.6L418,585c0-0.1-0.1-0.3-0.1-0.4c-0.3-0.9-0.5-1.6-0.5-2.3c-0.1,0.7-0.1,1.3-0.1,1.6
				c0,0.2,0,0.4-0.1,0.8s-0.1,0.6-0.1,0.8l-0.8,6.2h-3.6l2.2-14.3h3.9l2.2,7.4c0,0.1,0.1,0.2,0.1,0.3c0.2,0.6,0.3,1.2,0.4,1.7
				c0-0.2,0.1-0.5,0.1-0.9c0-0.1,0.1-0.5,0.3-1.1l2.2-7.4h3.9L429.9,591.7z"/>
			<path class="st2" d="M435.7,591.7H432v-14.3h4.1c1.6,0,2.7,0.1,3.4,0.2c0.7,0.2,1.2,0.4,1.6,0.8c0.5,0.4,0.9,1,1.2,1.6
				c0.3,0.7,0.4,1.4,0.4,2.2c0,0.9-0.1,1.6-0.4,2.2c-0.2,0.6-0.6,1.2-1.2,1.6c-0.4,0.3-0.9,0.5-1.4,0.7c-0.5,0.1-1.4,0.2-2.6,0.2
				h-0.7h-0.7V591.7z M435.7,583.8h0.7c0.9,0,1.6-0.1,2-0.4c0.4-0.2,0.6-0.7,0.6-1.3c0-0.6-0.2-1-0.5-1.3s-1-0.4-1.9-0.4h-0.8V583.8
				z"/>
			<path class="st2" d="M443,591.7l4.9-14.3h4.9l4.9,14.3h-3.9l-0.7-2.6h-5.5l-0.7,2.6H443z M448.5,586.3h3.9l-1.5-4.7
				c0-0.1-0.1-0.3-0.2-0.7c-0.1-0.4-0.2-0.9-0.3-1.2c-0.1,0.3-0.2,0.7-0.2,1c-0.1,0.3-0.2,0.6-0.3,0.9L448.5,586.3z"/>
			<path class="st2" d="M469.5,577.9v4.3c-0.6-0.6-1.1-1-1.6-1.3c-0.6-0.3-1.1-0.4-1.7-0.4c-1.1,0-2,0.4-2.7,1.1
				c-0.2,0.3-0.4,0.6-0.6,0.9c-0.2,0.3-0.3,0.6-0.3,1c-0.1,0.4-0.1,0.8-0.1,1.1c0,1.1,0.4,2.1,1.1,2.9c0.7,0.7,1.6,1.1,2.7,1.1
				c0.6,0,1.2-0.1,1.7-0.4c0.5-0.3,1-0.7,1.6-1.3v4.3c-0.7,0.3-1.3,0.6-1.8,0.7c-0.6,0.1-1.3,0.2-1.9,0.2c-0.8,0-1.5-0.1-2.2-0.3
				s-1.3-0.5-1.8-0.8c-1.1-0.7-1.9-1.6-2.4-2.7c-0.6-1.1-0.8-2.3-0.8-3.7c0-1.1,0.2-2.1,0.5-3c0.2-0.4,0.4-0.8,0.6-1.2
				c0.3-0.4,0.6-0.8,1-1.2c0.7-0.7,1.5-1.2,2.3-1.6c0.8-0.3,1.8-0.5,2.8-0.5c0.6,0,1.2,0.1,1.9,0.2
				C468.3,577.4,468.9,577.7,469.5,577.9z"/>
			<path class="st2" d="M473.7,591.7v-10.9h-3.2v-3.4h10.3v3.4h-3.2v10.9H473.7z"/>
		</g>
	</g>
</g>
</svg>
