<svg id="Layer_2" data-name="Layer 2" xmlns="http://www.w3.org/2000/svg" xmlns:xlink="http://www.w3.org/1999/xlink" width="1892.28" height="2516.1" viewBox="0 0 1892.28 2516.1"><defs><style>.cls-1{fill:none;}.cls-2{fill:#fff6de;}.cls-3{clip-path:url(#clip-path);}.cls-4{fill:#9c3;}.cls-5{fill:#fc3;}.cls-6{fill:#39f;}.cls-7{fill:#ef86a4;}.cls-8{fill:#f63;}.cls-9{clip-path:url(#clip-path-2);}.cls-10{clip-path:url(#clip-path-3);}.cls-11{clip-path:url(#clip-path-4);}.cls-12{clip-path:url(#clip-path-5);}.cls-13{clip-path:url(#clip-path-6);}.cls-14{clip-path:url(#clip-path-7);}.cls-15{clip-path:url(#clip-path-8);}.cls-16{clip-path:url(#clip-path-9);}.cls-17{fill:#ff7fa4;}.cls-18{fill:#009aff;}.cls-19{fill:#8acf00;}.cls-20{fill:#ffcb00;}.cls-21{fill:#ff5812;}.cls-22{fill:#fff6db;}.cls-23{fill:#1f006d;}</style><clipPath id="clip-path"><rect id="SVGID" class="cls-1" x="382.69" y="206" width="604.4" height="99.9"/></clipPath><clipPath id="clip-path-2"><polygon id="SVGID-2" data-name="SVGID" class="cls-1" points="956.99 305.9 364.69 305.9 361.09 207.2 956.99 205.4 956.99 305.9"/></clipPath><clipPath id="clip-path-3"><polygon id="SVGID-3" data-name="SVGID" class="cls-1" points="956.99 206.1 364.69 206.9 364.69 107.4 675.29 106.3 956.99 107.4 956.99 206.1"/></clipPath><clipPath id="clip-path-4"><rect id="SVGID-4" data-name="SVGID" class="cls-1" x="364.69" y="305.9" width="608.8" height="100"/></clipPath><clipPath id="clip-path-5"><rect id="SVGID-5" data-name="SVGID" class="cls-1" x="364.69" y="405.9" width="608.8" height="99.9"/></clipPath><clipPath id="clip-path-6"><polygon id="SVGID-6" data-name="SVGID" class="cls-1" points="956.99 605.1 681.99 605.1 364.69 605.1 364.89 505.9 957.09 505.9 956.99 605.1"/></clipPath><clipPath id="clip-path-7"><rect id="SVGID-7" data-name="SVGID" class="cls-1" x="492.99" y="605.1" width="368.6" height="117.3"/></clipPath><clipPath id="clip-path-8"><rect id="SVGID-8" data-name="SVGID" class="cls-1" x="-3.91" y="0.1" width="1643.1" height="838.1"/></clipPath><clipPath id="clip-path-9"><rect id="SVGID-9" data-name="SVGID" class="cls-1" x="273.69" width="1642.4" height="838.2"/></clipPath></defs><title>home-bg_extend4</title><rect id="Background" class="cls-2" x="-3.91" y="0.4" width="1920" height="2517"/><g id="Main_Weave_Type_" data-name="Main Weave Type "><g class="cls-3"><polygon class="cls-4" points="719.59 320.1 707.99 329.9 675.09 291 685.09 279.3 719.59 320.1"/><rect class="cls-5" x="702.82" y="209.42" width="51.9" height="15.2" transform="translate(87.72 626) rotate(-49.12)"/><rect class="cls-4" x="634.8" y="176.92" width="15.2" height="173.4" transform="matrix(0.76, -0.65, 0.65, 0.76, -18.52, 476.6)"/><rect class="cls-6" x="475.44" y="253.37" width="173.4" height="15.2" transform="translate(-3.08 515.19) rotate(-49.12)"/><rect class="cls-7" x="654.61" y="176.92" width="15.2" height="173.4" transform="matrix(0.76, -0.65, 0.65, 0.76, -13.84, 489.38)"/><rect class="cls-5" x="542.01" y="186.59" width="15.2" height="173.4" transform="matrix(0.76, -0.65, 0.65, 0.76, -46.65, 419.02)"/><rect class="cls-4" x="428.24" y="247.78" width="173.4" height="15.2" transform="translate(-15.17 477.58) rotate(-49.12)"/><rect class="cls-8" x="590.08" y="174.18" width="15.2" height="173.4" transform="matrix(0.76, -0.65, 0.65, 0.76, -27.3, 447.11)"/><rect class="cls-6" x="543.3" y="247.69" width="173.4" height="15.2" transform="translate(24.66 564.54) rotate(-49.12)"/><rect class="cls-7" x="609.8" y="247.68" width="173.4" height="15.2" transform="translate(47.64 614.82) rotate(-49.12)"/><polygon class="cls-8" points="788.69 323.6 777.19 313.6 858.19 220.1 868.59 231.4 788.69 323.6"/><rect class="cls-5" x="666.3" y="248.29" width="173.4" height="15.2" transform="translate(66.7 657.75) rotate(-49.12)"/><rect class="cls-6" x="740.79" y="176.48" width="15.2" height="173.4" transform="matrix(0.76, -0.65, 0.65, 0.76, 6.77, 544.87)"/><polygon class="cls-4" points="851.99 326.2 837.99 334.5 726.09 202 737.69 192.2 851.99 326.2"/><polygon class="cls-5" points="761.99 331.5 750.39 321.5 848.49 208.2 859.19 219.1 761.99 331.5"/><polygon class="cls-7" points="829.99 324.6 818.39 334.4 705.89 201.9 717.59 192.1 829.99 324.6"/><polygon class="cls-8" points="509.89 287.5 498.09 297.1 448.59 235 457.29 225 509.89 287.5"/><rect class="cls-7" x="855.21" y="169.8" width="15.2" height="173.4" transform="matrix(0.76, -0.65, 0.65, 0.76, 38.07, 617.11)"/><polygon class="cls-7" points="709.79 308.1 690.99 309.5 651.99 263.2 663.59 253.4 709.79 308.1"/><polygon class="cls-5" points="543.89 254.8 532.29 264.6 482.79 206 502.99 206.2 543.89 254.8"/><rect class="cls-4" x="620.51" y="218.07" width="15.1" height="56.8" transform="matrix(0.76, -0.65, 0.65, 0.76, -10.84, 463.3)"/><polygon class="cls-5" points="757.39 262.5 747.59 250.6 757.59 239 767.49 250.8 757.39 262.5"/></g><g class="cls-9"><polygon class="cls-4" points="719.89 320.1 708.29 330 675.39 291 685.49 279.3 719.89 320.1"/><rect class="cls-5" x="703.08" y="209.41" width="51.9" height="15.2" transform="translate(87.82 626.19) rotate(-49.12)"/><polygon class="cls-8" points="459.69 229.4 541.19 325.3 530.19 334.8 450.29 239.6 459.69 229.4"/><rect class="cls-4" x="635.08" y="176.9" width="15.2" height="173.4" transform="matrix(0.76, -0.65, 0.65, 0.76, -18.44, 476.78)"/><rect class="cls-7" x="654.89" y="176.9" width="15.2" height="173.4" transform="matrix(0.76, -0.65, 0.65, 0.76, -13.77, 489.55)"/><rect class="cls-5" x="542.41" y="186.81" width="15.2" height="173.4" transform="matrix(0.76, -0.65, 0.65, 0.76, -46.69, 419.33)"/><polygon class="cls-4" points="461.79 328.4 450.79 317.9 566.29 184.8 577.79 194.8 461.79 328.4"/><polygon class="cls-8" points="659.79 322.3 648.19 332.2 536.39 200.4 547.99 189.8 659.79 322.3"/><rect class="cls-6" x="543.62" y="247.82" width="173.41" height="15.2" transform="translate(24.67 564.82) rotate(-49.12)"/><rect class="cls-8" x="610.12" y="247.82" width="173.41" height="15.2" transform="translate(47.65 615.1) rotate(-49.12)"/><polygon class="cls-8" points="788.99 323.6 777.49 313.7 851.89 227.6 863.39 237.6 788.99 323.6"/><rect class="cls-5" x="666.57" y="248.28" width="173.41" height="15.2" transform="translate(66.8 657.94) rotate(-49.12)"/><polygon class="cls-5" points="632.29 318.2 619.39 309.9 739.09 174.6 748.89 183.5 632.29 318.2"/><rect class="cls-6" x="741.1" y="176.6" width="15.2" height="173.4" transform="matrix(0.76, -0.65, 0.65, 0.76, 6.76, 545.1)"/><polygon class="cls-6" points="732.99 310.7 726.39 327.7 611.89 192.1 623.59 182.3 732.99 310.7"/><polygon class="cls-4" points="852.39 326.2 838.29 334.6 726.39 202.1 738.09 192.2 852.39 326.2"/><polygon class="cls-5" points="762.29 331.5 750.69 321.4 844.59 212.5 856.19 222.7 762.29 331.5"/><polygon class="cls-7" points="830.29 324.6 818.69 334.5 706.19 202 717.89 192.1 830.29 324.6"/><rect class="cls-7" x="855.49" y="169.79" width="15.2" height="173.4" transform="matrix(0.76, -0.65, 0.65, 0.76, 38.14, 617.29)"/><polygon class="cls-7" points="710.19 308.2 691.29 309.5 652.29 263.3 663.99 253.4 710.19 308.2"/><polygon class="cls-5" points="544.19 254.8 532.59 264.6 483.09 206 503.29 206.3 544.19 254.8"/><rect class="cls-4" x="620.82" y="218.19" width="15.1" height="56.8" transform="matrix(0.76, -0.65, 0.65, 0.76, -10.84, 463.53)"/><polygon class="cls-5" points="757.79 262.5 747.89 250.6 757.89 239.1 767.89 250.9 757.79 262.5"/><polygon class="cls-8" points="428.99 306.2 429.79 330.8 407.99 305 417.79 293.7 428.99 306.2"/><polygon class="cls-4" points="655.79 291 665.89 279.4 688.09 305.7 668.39 305.8 655.79 291"/></g><g class="cls-10"><rect class="cls-4" x="548.76" y="144.88" width="173.4" height="15.2" transform="translate(104.28 533.15) rotate(-49.12)"/><rect class="cls-8" x="646.7" y="65.49" width="15.2" height="173.4" transform="matrix(0.76, -0.65, 0.65, 0.76, 56.17, 457.99)"/><polygon class="cls-4" points="768.39 227 756.79 217 803.79 164.9 815.39 174.9 768.39 227"/><polygon class="cls-5" points="776.49 213.9 764.79 223.7 655.69 94.5 666.59 83.7 776.49 213.9"/><polygon class="cls-6" points="544.59 223.1 535.19 214.1 658.09 72.1 666.59 83.7 544.59 223.1"/><polygon class="cls-7" points="631.29 214.8 619.69 224.7 540.69 130.3 552.39 120.5 631.29 214.8"/><polygon class="cls-8" points="796.59 214.2 784.99 224 634.29 45.5 644.39 33.9 796.59 214.2"/><polygon class="cls-5" points="555.19 233.9 543.69 223.9 657.19 94.4 668.69 102.7 555.19 233.9"/><rect class="cls-5" x="765.69" y="196.72" width="64.9" height="15.2" transform="translate(121.29 674.06) rotate(-49.12)"/><polygon class="cls-6" points="681.99 229.9 670.39 220 762.49 113.7 773.19 124.6 681.99 229.9"/><polygon class="cls-4" points="655.29 141.6 645.39 129.8 677.19 93.1 688.69 103.1 655.29 141.6"/><rect class="cls-8" x="729.38" y="129.27" width="15.2" height="52.1" transform="matrix(0.76, -0.65, 0.65, 0.76, 73.65, 512.07)"/><polygon class="cls-8" points="634.99 141.2 676.49 190.4 686.79 178.9 645.29 129.8 634.99 141.2"/><polygon class="cls-8" points="593.59 92.2 625.79 130.3 635.99 118.7 603.79 80.6 593.59 92.2"/></g><g class="cls-11"><polygon class="cls-8" points="824.89 426.9 814.89 415.2 845.09 380.3 855.09 392.1 824.89 426.9"/><polygon class="cls-8" points="924.69 318.2 914.59 306.5 944.79 271.6 954.79 283.4 924.69 318.2"/><polygon class="cls-8" points="632.39 299.6 615.39 319.2 604.79 308.1 620.19 290.4 632.39 299.6"/><polygon class="cls-8" points="711.39 310.2 701.29 298.3 718.79 278.4 730.29 288.4 711.39 310.2"/><polygon class="cls-4" points="932.09 418.4 920.99 428.7 807.39 296.8 818.99 287 932.09 418.4"/><rect class="cls-4" x="479.11" y="353.11" width="173.41" height="15.2" transform="translate(-77.23 552.43) rotate(-49.12)"/><rect class="cls-4" x="673.63" y="349.9" width="173.41" height="15.2" transform="translate(-7.59 698.39) rotate(-49.12)"/><rect class="cls-6" x="693.83" y="349.91" width="173.4" height="15.2" transform="translate(-0.61 713.67) rotate(-49.12)"/><polygon class="cls-5" points="784.19 427.7 772.59 417.7 839.99 334.7 850.09 346.4 784.19 427.7"/><polygon class="cls-6" points="883.09 428.3 871.59 418.3 952.09 325.3 961.99 336.8 883.09 428.3"/><polygon class="cls-8" points="872.19 372.1 824.09 427.7 812.59 417.7 862.19 360.4 872.19 372.1"/><polygon class="cls-8" points="882.29 360.5 937.59 296.6 926.09 286.6 872.19 348.8 882.29 360.5"/><rect class="cls-8" x="568.07" y="349.49" width="173.41" height="15.2" transform="translate(-43.75 618.44) rotate(-49.12)"/><polygon class="cls-5" points="547.99 415.6 534.79 407.6 653.09 271 664.59 281 547.99 415.6"/><polygon class="cls-4" points="767.19 337.8 750.29 357.7 758.49 371.5 779.99 346.4 767.19 337.8"/><rect class="cls-4" x="422.88" y="340.19" width="178.11" height="15.2" transform="translate(-86.07 507.23) rotate(-49.12)"/><polygon class="cls-4" points="380.99 421.8 380.39 399.2 486.09 277.1 497.59 287.1 380.99 421.8"/><rect class="cls-8" x="454.52" y="270.51" width="15.2" height="173.4" transform="matrix(0.76, -0.65, 0.65, 0.76, -121.42, 382.38)"/><polygon class="cls-8" points="625.69 423.6 613.99 433.5 501.59 300.6 511.69 289.4 625.69 423.6"/><polygon class="cls-7" points="645.49 424.1 633.69 433.8 521.29 300.8 532.29 290.2 645.49 424.1"/><rect class="cls-5" x="733.4" y="269.17" width="15.2" height="173.4" transform="matrix(0.76, -0.65, 0.65, 0.76, -54.77, 561.97)"/><rect class="cls-6" x="753.12" y="269.31" width="15.2" height="173.4" transform="matrix(0.76, -0.65, 0.65, 0.76, -50.21, 574.72)"/><rect class="cls-7" x="773.13" y="269.3" width="15.2" height="173.4" transform="matrix(0.76, -0.65, 0.65, 0.76, -45.48, 587.63)"/><polygon class="cls-7" points="705.29 422.2 693.69 432 604.79 326.7 614.89 315.1 705.29 422.2"/><polygon class="cls-7" points="969.39 368.9 960.29 382 887.19 296.8 898.79 287 969.39 368.9"/><rect class="cls-4" x="462.59" y="373.7" width="40.7" height="15.2" transform="translate(-121.43 496.89) rotate(-49.12)"/><polygon class="cls-5" points="584.09 374.6 573.79 362.4 604.19 327.4 614.59 338.8 584.09 374.6"/><polygon class="cls-8" points="645.29 379.8 635.29 368.1 665.49 333.2 675.49 345 645.29 379.8"/><polygon class="cls-4" points="731.19 403.1 721.09 391.4 751.29 356.5 761.29 368.3 731.19 403.1"/><polygon class="cls-4" points="771.29 356.5 761.29 344.8 791.49 309.9 801.39 321.7 771.29 356.5"/><polygon class="cls-6" points="433.19 422.3 427.89 405.1 509.79 310.3 519.69 322.1 433.19 422.3"/><rect class="cls-8" x="810.72" y="402.1" width="37.8" height="15.2" transform="translate(-23.12 768.81) rotate(-49.12)"/><polygon class="cls-8" points="922.09 314.5 911.99 302.9 936.69 274.3 948.19 284.3 922.09 314.5"/><polygon class="cls-7" points="549.69 310.9 538.59 321.2 512.39 290.5 526.79 284.5 549.69 310.9"/><polygon class="cls-7" points="603.29 305.8 595.09 315.2 587.09 305.8 601.99 305.8 603.29 305.8"/><polygon class="cls-7" points="448.59 406.7 428.09 406 374.49 343 384.59 331.3 448.59 406.7"/><polygon class="cls-8" points="457.59 224.4 447.39 236.1 417.79 200.6 427.79 188.9 457.59 224.4"/></g><g class="cls-12"><rect class="cls-4" x="683.78" y="457.79" width="173.4" height="15.2" transform="translate(-85.65 743.35) rotate(-49.12)"/><rect class="cls-5" x="543.78" y="376.31" width="15.2" height="173.4" transform="matrix(0.76, -0.65, 0.65, 0.76, -168.61, 464.92)"/><rect class="cls-8" x="660.82" y="376.28" width="15.2" height="173.4" transform="matrix(0.76, -0.65, 0.65, 0.76, -140.99, 540.41)"/><rect class="cls-6" x="620.7" y="375.61" width="15.2" height="173.4" transform="matrix(0.76, -0.65, 0.65, 0.76, -150.02, 514.37)"/><polygon class="cls-8" points="904.19 455.5 894.69 466.9 837.59 399.4 849.19 389.6 904.19 455.5"/><polygon class="cls-6" points="515.39 527 503.69 536.8 391.39 403.6 403.89 394.2 515.39 527"/><polygon class="cls-6" points="877.29 482.3 866.79 493.5 783.09 394.4 794.79 384.5 877.29 482.3"/><rect class="cls-7" x="751.49" y="368.49" width="15.2" height="173.4" transform="matrix(0.76, -0.65, 0.65, 0.76, -114.57, 597.07)"/><polygon class="cls-7" points="549.99 526.8 538.39 536.6 426.49 404.1 437.69 393.8 549.99 526.8"/><polygon class="cls-5" points="700.59 523.9 689.09 513.9 804.99 380.4 818.49 387.6 700.59 523.9"/><rect class="cls-8" x="434.29" y="444.12" width="173.4" height="15.2" transform="translate(-161.52 549.99) rotate(-49.12)"/><rect class="cls-4" x="588.98" y="447.7" width="173.41" height="15.2" transform="translate(-110.78 668.18) rotate(-49.12)"/><rect class="cls-7" x="569.04" y="447.78" width="173.41" height="15.2" transform="translate(-117.73 653.14) rotate(-49.12)"/><polygon class="cls-4" points="866.49 469.5 856.59 457.7 920.19 384.2 931.69 394.1 866.49 469.5"/><rect class="cls-5" x="611.3" y="445.15" width="173.4" height="15.2" transform="translate(-101.14 684.18) rotate(-49.12)"/><rect class="cls-4" x="454.21" y="444.1" width="173.4" height="15.2" transform="translate(-154.62 565.05) rotate(-49.12)"/><rect class="cls-7" x="441.7" y="408.22" width="15.2" height="22.5" transform="matrix(0.76, -0.65, 0.65, 0.76, -164.61, 388.79)"/><rect class="cls-7" x="495.48" y="460.97" width="15.2" height="44.1" transform="matrix(0.76, -0.65, 0.65, 0.76, -192.92, 438.48)"/><polygon class="cls-5" points="541.39 439.4 531.49 451.2 516.39 433.3 527.99 423.5 541.39 439.4"/><polygon class="cls-8" points="668.89 451.9 658.69 463.4 645.29 447.5 656.89 437.7 668.89 451.9"/><polygon class="cls-8" points="716.69 508.5 706.59 520.1 693.19 504.2 704.79 494.4 716.69 508.5"/><polygon class="cls-6" points="658.89 486.4 648.69 498 638.99 486.4 649.09 474.7 658.89 486.4"/><polygon class="cls-7" points="750.99 433.7 736.89 440.5 717.99 418.1 728.19 406.4 750.99 433.7"/><polygon class="cls-4" points="727.69 526.3 716.09 516.8 759.49 467.5 769.39 479.2 727.69 526.3"/><rect class="cls-6" x="798.12" y="395.3" width="15.2" height="28" transform="matrix(0.76, -0.65, 0.65, 0.76, -73.97, 616.32)"/><polygon class="cls-4" points="808.29 433.4 799.29 420.6 819.69 396.6 835.49 402 808.29 433.4"/><polygon class="cls-8" points="705.59 495.3 693.99 505.1 668.59 475.1 678.69 463.4 705.59 495.3"/><polygon class="cls-5" points="521.89 416.2 510.29 426 487.79 399.4 499.49 389.7 521.89 416.2"/><polygon class="cls-4" points="814.99 529 803.39 519 846.39 469.3 856.39 481.1 814.99 529"/><polygon class="cls-8" points="505.59 457.9 484.69 482 494.59 493.5 516.49 468.3 505.59 457.9"/></g><g class="cls-13"><rect class="cls-7" x="644.79" y="467.69" width="15.2" height="173.4" transform="matrix(0.76, -0.65, 0.65, 0.76, -203.74, 551.64)"/><polygon class="cls-5" points="632.29 638.7 622.19 650.3 489.49 493.1 501.09 483.3 632.29 638.7"/><polygon class="cls-5" points="529.59 723.2 507.39 725.9 712.29 487.2 723.79 497.2 529.59 723.2"/><polygon class="cls-8" points="780.39 597.3 768.69 607.2 699.69 525.4 709.69 513.7 780.39 597.3"/><polygon class="cls-8" points="555.39 605.1 540.69 598.7 644.69 479.9 656.19 489.8 555.39 605.1"/><polygon class="cls-6" points="662.59 626.3 651.69 638.5 528.89 493.1 540.59 483.3 662.59 626.3"/><polygon class="cls-6" points="620.69 674.9 610.89 663.3 766.49 481.8 777.99 491.7 620.69 674.9"/><polygon class="cls-4" points="601.39 720.6 579.19 723.3 784.09 484.6 795.59 494.6 601.39 720.6"/><polygon class="cls-8" points="747.39 558.3 736.99 569.6 724.19 554.4 734.29 542.7 747.39 558.3"/><polygon class="cls-7" points="755.49 494.7 745.49 506.5 734.19 493.1 745.79 483.3 755.49 494.7"/><polygon class="cls-7" points="827.79 524.2 817.79 536 779.89 491.6 791.39 481.6 827.79 524.2"/><polygon class="cls-8" points="490.29 498.5 483.89 506 480.79 509.5 477.79 505.8 490.29 498.5"/></g><g class="cls-14"><polygon class="cls-7" points="728.19 656.3 683.09 602.5 692.39 589.8 738.49 644.8 728.19 656.3"/><polygon class="cls-8" points="660.79 722.6 650.79 710.7 712.49 637.6 722.39 649.4 660.79 722.6"/><polygon class="cls-6" points="614.69 682.1 603.89 671.5 660.89 605 680.69 605.1 614.69 682.1"/><polygon class="cls-5" points="672.09 685.8 661.99 697.4 581.19 601.7 592.79 591.8 672.09 685.8"/><polygon class="cls-4" points="598.19 658.6 585.19 650.4 631.19 596 644.49 605.1 598.19 658.6"/></g></g><g id="Left_Weaved_Clipped_" data-name="Left Weaved Clipped "><g class="cls-15"><g id="Left_Weave" data-name="Left Weave"><polygon class="cls-7" points="963.89 362 596.89 797.1 607.19 809.5 973.19 372.7 963.89 362"/><polygon class="cls-7" points="24.59 -32.1 24.69 -9.9 681.59 771.4 691.49 759.6 24.59 -32.1"/><polygon class="cls-6" points="-17.01 61 -16.11 84.1 617.59 840.8 633.49 841 -17.01 61"/><polygon class="cls-8" points="-19.71 771 -19.71 794.6 285.39 444.2 275.59 432.4 -19.71 771"/><polygon class="cls-4" points="655.69 -3.5 284.39 422.4 294.19 434.1 675.19 -3.5 655.69 -3.5"/><polygon class="cls-5" points="569.79 140.8 559.99 129.1 661.09 12.9 671.19 24.6 569.79 140.8"/><polygon class="cls-5" points="501.09 220.3 487.99 211.4 549.79 140.7 559.69 152.5 501.09 220.3"/><polygon class="cls-8" points="707.69 108.8 697.09 120.1 643.69 56.1 653.89 44.3 707.69 108.8"/><polygon class="cls-6" points="646.19 106.9 628.09 106.7 712.29 11 721.09 21.1 646.19 106.9"/><polygon class="cls-5" points="-18.81 901.3 -18.81 878.3 383.99 417.2 393.89 429 -18.81 901.3"/><polygon class="cls-8" points="147.09 895.8 147.09 872.1 460.89 508.6 470.79 520.4 147.09 895.8"/><polygon class="cls-8" points="352.09 838.3 332.59 838.2 548.79 589.1 558.19 601.4 352.09 838.3"/><polygon class="cls-4" points="462.29 812.3 452.39 800.5 582.49 652.9 592.39 664.8 462.29 812.3"/><polygon class="cls-6" points="482.29 836.2 472.39 824.5 619.59 652.9 630.59 663.2 482.29 836.2"/><polygon class="cls-8" points="560.59 840.3 540.59 840.4 640.69 722.2 650.39 733.9 560.59 840.3"/><polygon class="cls-6" points="730.49 10.5 721.39 0.2 724.99 -3.5 742.69 -3.5 730.49 10.5"/><polygon class="cls-6" points="800.99 91.2 791.39 80.3 864.49 -3.5 882.09 -3.5 800.99 91.2"/><polygon class="cls-4" points="661.99 110.4 678.59 114.7 685.69 106.4 675.69 94.4 661.99 110.4"/><polygon class="cls-4" points="759.89 -3.5 685.89 82.6 695.79 94.6 779.79 -3.5 759.89 -3.5"/><polygon class="cls-5" points="827.29 181.7 817.09 170.1 967.49 -3.5 987.69 -3.5 827.29 181.7"/><polygon class="cls-6" points="774.59 121.6 765.09 110.7 782.09 91.2 791.29 102.2 774.59 121.6"/><polygon class="cls-8" points="643.79 33.2 633.49 44.5 594.09 -3.5 613.09 -3.5 643.79 33.2"/><polygon class="cls-5" points="430.79 385.7 498.79 305.4 481.19 305.8 421.39 374.6 430.79 385.7"/><polygon class="cls-5" points="420.79 397.4 403.49 417.9 393.79 406.4 411.59 386.5 420.79 397.4"/><polygon class="cls-8" points="457.29 223.8 447.09 235.4 417.39 199.9 427.49 188.2 457.29 223.8"/><polygon class="cls-5" points="430.39 385.2 498.59 304.8 480.89 305.2 420.99 374.1 430.39 385.2"/><polygon class="cls-5" points="420.49 396.9 403.09 417.4 393.39 405.9 411.19 386 420.49 396.9"/><polygon class="cls-7" points="218.09 521.6 208.69 532.3 400.49 760.1 409.69 749.4 218.09 521.6"/><polygon class="cls-4" points="-81.61 259.3 369.89 795.5 379.09 784.8 -80.91 238.1 -81.61 259.3"/><polygon class="cls-6" points="217.29 814.4 208.09 825.1 240.79 864 249.99 853.3 217.29 814.4"/><polygon class="cls-7" points="419.29 760.9 410.19 771.6 465.99 838.2 483.99 838.2 419.29 760.9"/><polygon class="cls-5" points="297.39 314.3 135.19 494.9 145.29 507 307.39 326.2 297.39 314.3"/><polygon class="cls-4" points="299.29 173.6 183.89 301.9 193.99 314 309.29 185.6 299.29 173.6"/><polygon class="cls-5" points="315.49 -21.8 107.39 210.2 117.59 222.4 325.49 -9.9 315.49 -21.8"/><polygon class="cls-7" points="261.09 666.2 204.19 729.6 214.49 741.7 271.19 678.3 261.09 666.2"/><polygon class="cls-8" points="454.29 335.9 444.09 347.5 163.19 13.4 173.59 2 454.29 335.9"/><polygon class="cls-5" points="316.89 315.2 594.09 -3.5 574.69 -3.5 306.79 303.4 316.89 315.2"/><polygon class="cls-7" points="540.09 129 428.99 -3.4 448.79 -3.5 550.29 117.4 540.09 129"/><polygon class="cls-5" points="501.69 204.2 489.99 214.1 446.99 162.7 457.29 151.2 501.69 204.2"/></g></g></g><g id="Right_Weaved_Clipped_" data-name="Right Weaved Clipped "><g class="cls-16"><g id="Right_Weave" data-name="Right Weave"><polygon class="cls-7" points="1341.69 229.9 813.59 857.7 833.39 857.9 1351.59 241.3 1341.69 229.9"/><polygon class="cls-8" points="904.19 455 1140.19 733.1 1130.29 744.2 895.09 465.8 904.19 455"/><polygon class="cls-4" points="1237.69 112.9 1246.69 124.6 936.69 493 926.69 481.3 1237.69 112.9"/><polygon class="cls-4" points="1086.09 293.1 1095.09 304.8 636.29 848.2 615.99 848.7 1086.09 293.1"/><polygon class="cls-6" points="887.59 595.4 896.49 607.1 665.09 881.4 651.79 873.7 887.59 595.4"/><polygon class="cls-5" points="1089.89 438.1 1097.89 451 742.09 873.4 722.79 872.7 1089.89 438.1"/><polygon class="cls-8" points="1372.29 767.9 1382.79 756.1 699.59 -24.9 680.59 -24.9 1372.29 767.9"/><polygon class="cls-8" points="1337.79 483.8 1350.69 474.8 914.09 -24.9 894.99 -24.9 1337.79 483.8"/><polygon class="cls-4" points="1735.69 871.8 1735.79 848.1 1283.09 322.6 1273.09 334.4 1735.69 871.8"/><polygon class="cls-6" points="1770.79 -33.5 1770.69 -11.4 1053.19 838.5 1033.99 838.6 1770.79 -33.5"/><polygon class="cls-6" points="1927.89 -17.9 1936.39 -6.4 1463.99 556.7 1454.39 545.4 1927.89 -17.9"/><polygon class="cls-8" points="1723.29 411.7 1732.39 422.5 1553.49 637 1543.89 625.8 1723.29 411.7"/><polygon class="cls-8" points="1953.39 219.5 1961.89 231 1579.39 691.2 1569.79 679.9 1953.39 219.5"/><polygon class="cls-4" points="2030.39 296.5 2038.89 308 1656.39 768.2 1646.79 756.9 2030.39 296.5"/><polygon class="cls-8" points="1677.59 168 1686.19 179.5 1556.99 334.4 1547.39 323.1 1677.59 168"/><polygon class="cls-7" points="1508.29 607.2 1517.39 618.4 1282.99 897 1273.39 885.7 1508.29 607.2"/><polygon class="cls-4" points="1293.89 677.9 1303.09 689.2 1151.49 869.5 1141.89 858.2 1293.89 677.9"/><polygon class="cls-5" points="1403.29 302.5 1412.39 313.8 1313.09 432 1303.49 420.8 1403.29 302.5"/><polygon class="cls-7" points="1950.39 950.6 1950.39 927 1115.39 -29.3 1095.99 -29.3 1950.39 950.6"/><polygon class="cls-5" points="1508.59 276.8 1672.79 472 1681.89 461.1 1517.59 266.2 1508.59 276.8"/><polygon class="cls-4" points="1568.99 227.6 1645.19 318.5 1654.19 307.7 1577.99 216.9 1568.99 227.6"/><polygon class="cls-8" points="1513.89 -23.1 1723.49 225.3 1732.59 214.4 1523.09 -33.5 1513.89 -23.1"/><polygon class="cls-5" points="1578.39 -86.9 1697.09 53.8 1706.19 43 1587.59 -97.3 1578.39 -86.9"/><polygon class="cls-7" points="1351.49 240.9 1341.99 230.1 1545.79 -6.5 1564.59 -8.3 1351.49 240.9"/><polygon class="cls-5" points="1535.29 245.3 1544.59 234.3 1310.99 -41.4 1301.79 -31 1535.29 245.3"/><polygon class="cls-6" points="1367.09 200.9 1376.29 189.8 1142.79 -85.9 1133.59 -75.4 1367.09 200.9"/><polygon class="cls-6" points="1016.09 398.5 1005.99 410.4 1099.39 518.1 1109.69 505.9 1016.09 398.5"/><polygon class="cls-6" points="647.79 -23.9 629.19 -23.9 995.99 398.9 1006.19 387.1 647.79 -23.9"/><polygon class="cls-4" points="1151.59 237.6 1126.09 267.9 1115.69 257.4 1148.19 218.9 1151.59 237.6"/><polygon class="cls-7" points="1115.79 499.7 1145.39 464 1155.19 474.8 1123.09 513.9 1115.79 499.7"/><polygon class="cls-4" points="1353.99 -24.9 1373.39 -24.9 1225.19 150.2 1219.19 134.7 1353.99 -24.9"/><polygon class="cls-5" points="1215.39 909.2 856.89 481 866.69 469.3 1235.29 909.2 1215.39 909.2"/><polygon class="cls-7" points="1094.69 204.6 973.19 349 983.49 360.7 1104.59 215.9 1094.69 204.6"/><polygon class="cls-5" points="933.49 242.9 1151.89 -27 1140.29 -37 923.29 231.2 933.49 242.9"/><polygon class="cls-7" points="1144.89 884.8 1124.69 884.7 814.89 532.1 826.39 522.1 1144.89 884.8"/><polygon class="cls-5" points="741.29 768 731.29 779.9 671.49 708.5 681.49 696.7 741.29 768"/><polygon class="cls-8" points="782.69 599.7 772.69 611.4 994.89 877.8 1004.79 866 782.69 599.7"/><polygon class="cls-8" points="1313.69 197.8 1323.39 209 1413.49 101.2 1404.09 90 1313.69 197.8"/><polygon class="cls-8" points="1495.89 -19.5 1413.19 79.2 1422.59 90.3 1504.99 -8.3 1495.89 -19.5"/><polygon class="cls-5" points="1195.69 668.8 1325.99 823.5 1334.99 812.8 1204.69 658.2 1195.69 668.8"/></g></g></g><g id="Overlay_Weave_Type_" data-name="Overlay Weave Type "><polygon class="cls-5" points="656.09 267.5 614.69 314.5 624.69 326.2 666.09 279.2 656.09 267.5"/><polygon class="cls-7" points="642.99 251.7 651.69 241.6 652.99 240 708.19 305.3 686.19 305.1 642.99 251.7"/><polygon class="cls-4" points="741.79 219.6 814.89 305.8 834.89 305.2 756.79 213.5 741.79 219.6"/><polygon class="cls-6" points="437.39 393.4 540.29 273.7 550.19 285.5 447.59 405.4 437.39 393.4"/><path class="cls-5" d="M783,405.1,690,512.7c2,2.2.6,12.7,2.7,13.7,2.9,1.3,7.8-6,10.9-6,17.2-19.7,77-89.4,94.3-109l-5-6.2Z"/><polygon class="cls-4" points="868.59 443.8 814.89 505.9 835.09 505.9 879.09 454.9 868.59 443.8"/><path class="cls-6" d="M639.39,463.2a26.83,26.83,0,0,1-1.5,8.9,20.27,20.27,0,0,1-4.7,7.5L580.39,417l10.2-11.6Z"/><path class="cls-4" d="M544,459.1l46.6-53.7-20.1-.3-46.7,54Z"/><path class="cls-8" d="M640.09,385.1a18.55,18.55,0,0,1-6.5-3.8,21.17,21.17,0,0,1-5.5-6.8L688,305.3l9.9,11.9Z"/><path class="cls-6" d="M708.19,305.3l8,9.3,86.1,102,10.1-11.8c-20-23.7-63.4-75.7-83.4-99.4Z"/><polygon class="cls-4" points="579.89 354.7 568.49 354.7 568.49 345 602.79 305.3 622.69 305.3 579.89 354.7"/><polygon class="cls-8" points="731.99 637 722.19 625.5 760.69 580 772.89 588.3 731.99 637"/><polygon class="cls-4" points="514.69 243.1 524.79 255 496.69 287.1 490.59 287.2 490.69 270.7 514.69 243.1"/><polygon class="cls-5" points="924.09 254.5 859.89 333.8 849.79 322.1 913.89 242.9 924.09 254.5"/><polygon class="cls-5" points="810.69 370.3 820.79 382.1 807.39 398.9 797.29 386.9 810.69 370.3"/></g><g id="Weaved_Lines_-_Border" data-name="Weaved Lines - Border"><polygon class="cls-17" points="588.09 808.2 597.59 819.6 103.69 1405.2 94.19 1393.7 588.09 808.2"/><polygon class="cls-18" points="1916.99 982.9 1916.99 1005.6 1351.09 1678.6 1331.79 1678.6 1916.99 982.9"/><polygon class="cls-19" points="1333.19 839.7 1313.59 839.7 1916.99 1578.6 1916.99 1555 1333.19 839.7"/><polygon class="cls-20" points="-5.61 963.8 -6.11 985.9 563.99 1677.9 583.19 1677.9 -5.61 963.8"/></g><g id="Weaved_Lines_-_Bottom_Right" data-name="Weaved Lines - Bottom Right"><polygon class="cls-20" points="1416.29 1601.3 1406.69 1612.2 1460.49 1677.9 1479.29 1677.9 1416.29 1601.3"/><polygon class="cls-21" points="1517.49 1480.7 1508.09 1492 1660.99 1678.6 1679.99 1678.6 1517.49 1480.7"/><polygon class="cls-17" points="1609.69 1490.6 1600.39 1502 1743.79 1678.6 1762.39 1678.6 1609.69 1490.6"/><polygon class="cls-20" points="1848.39 1087.1 1838.99 1098.3 1916.99 1194.3 1916.99 1171.5 1848.39 1087.1"/><polygon class="cls-20" points="1525.29 1244.7 1515.79 1255.9 1883.39 1678.6 1902.39 1677.7 1525.29 1244.7"/><polygon class="cls-19" points="1557.79 1529.8 1567.19 1541.3 1916.99 1128 1916.99 1105.3 1557.79 1529.8"/><polygon class="cls-19" points="1432.79 1677.9 1451.99 1677.9 1557.69 1552.6 1548.29 1541 1432.79 1677.9"/><polygon class="cls-17" points="1582.89 1583.5 1592.59 1594.6 1521.99 1678.5 1502.89 1678.4 1582.89 1583.5"/><polygon class="cls-18" points="1491.99 1630.4 1482.49 1641.7 1512.89 1678.6 1531.59 1678.6 1491.99 1630.4"/><polygon class="cls-19" points="1562.09 1679.1 1581.29 1679 1664.09 1580.5 1654.69 1568.9 1562.09 1679.1"/><polygon class="cls-19" points="1789.89 1408.2 1664.19 1557.7 1673.59 1569.3 1799.39 1419.6 1789.89 1408.2"/><polygon class="cls-21" points="1916.99 1401.8 1916.99 1424.5 1801.59 1561.6 1792.69 1551.4 1916.99 1401.8"/><polygon class="cls-17" points="1859.59 1274.5 1869.19 1286 1916.99 1229.2 1916.99 1206.4 1859.59 1274.5"/><polygon class="cls-17" points="1823.69 1317.3 1833.29 1328.7 1859.19 1297.8 1849.69 1286.4 1823.69 1317.3"/><polygon class="cls-17" points="1817.79 970.7 1827.39 982 1720.99 1108.6 1711.39 1097.1 1817.79 970.7"/></g><g id="Weaved_Lines_-_Bottom_Left" data-name="Weaved Lines - Bottom Left"><polygon class="cls-21" points="320.09 1514.3 329.59 1525.8 198.99 1678.6 177.89 1678.6 320.09 1514.3"/><polygon class="cls-17" points="117.89 1447.1 127.29 1458.6 52.59 1546 42.69 1533.9 117.89 1447.1"/><polygon class="cls-21" points="435.59 1521.3 444.99 1532.9 398.99 1587.4 389.59 1575.9 435.59 1521.3"/><polygon class="cls-17" points="492.19 1589 501.49 1600.7 435.79 1678.5 416.69 1678.5 492.19 1589"/><polygon class="cls-20" points="455.09 1655.7 445.39 1667.2 454.19 1677.9 473.29 1677.9 455.09 1655.7"/><polygon class="cls-20" points="167.49 1306.8 157.89 1318.2 435.99 1655.7 445.69 1644.2 167.49 1306.8"/><polygon class="cls-18" points="-5.61 1167.8 -5.61 1190.8 128.19 1353.4 137.89 1341.9 -5.61 1167.8"/><polygon class="cls-18" points="147.09 1353.7 137.59 1365 394.99 1678.8 413.99 1678.6 147.09 1353.7"/><polygon class="cls-19" points="264.79 1601.6 254.89 1613.3 308.69 1678.5 327.99 1678.6 264.79 1601.6"/><polygon class="cls-19" points="-5.51 1272.2 -5.61 1297.5 244.89 1601.2 254.89 1589.6 -5.51 1272.2"/><polygon class="cls-19" points="9.79 1493.8 -0.11 1505.5 143.39 1678.8 162.39 1679.7 9.79 1493.8"/><polygon class="cls-20" points="44.19 1453 34.29 1464.7 116.29 1563.6 125.69 1552.3 44.19 1453"/><polygon class="cls-20" points="-5.61 1622.1 -5.61 1646.6 20.89 1678.8 39.69 1678.8 -5.61 1622.1"/><polygon class="cls-19" points="198.89 1292.3 189.09 1303.9 493.69 1678.6 512.89 1678.8 198.89 1292.3"/><polygon class="cls-19" points="-5.61 1040.7 -5.61 1064.5 179.69 1292.4 189.69 1281 -5.61 1040.7"/><polygon class="cls-17" points="352.59 1553.9 288.09 1630.3 297.59 1641.8 361.99 1565.4 352.59 1553.9"/><polygon class="cls-17" points="247.39 1678.6 265.69 1678.5 287.99 1653.2 278.49 1641.7 247.39 1678.6"/><polygon class="cls-17" points="408.29 1487.9 362.19 1542.5 371.69 1554 417.69 1499.4 408.29 1487.9"/><polygon class="cls-18" points="333.19 1396.1 342.59 1407.6 296.39 1462.4 286.99 1450.9 333.19 1396.1"/><polygon class="cls-21" points="30.49 1667.2 39.69 1678.8 174.59 1516 165.19 1504.6 30.49 1667.2"/><polygon class="cls-21" points="238.49 1416.1 175.19 1492.5 184.59 1503.9 248.09 1427.4 238.49 1416.1"/><polygon class="cls-21" points="378.19 1247.6 248.09 1404.6 257.59 1415.9 387.59 1259.1 378.19 1247.6"/><line class="cls-1" x1="42.69" y1="1533.9" x2="117.89" y2="1447.1"/></g><g id="Weaved_Lines_-_Top_Left" data-name="Weaved Lines - Top Left"><polygon class="cls-18" points="462.29 836.5 479.79 839.7 -5.61 1417.4 -5.61 1394.6 462.29 836.5"/><polygon class="cls-19" points="120.79 1196.2 130.19 1207.7 153.59 1179.8 144.19 1168.2 120.79 1196.2"/><polygon class="cls-19" points="442.29 812.7 153.59 1157 163.09 1168.4 451.89 824.1 442.29 812.7"/><polygon class="cls-17" points="476.19 831.6 462.29 836.5 503.39 885.5 512.99 873.7 476.19 831.6"/><polygon class="cls-20" points="332.09 839.6 376.09 891.4 385.79 879.9 352.09 839.8 332.09 839.6"/><polygon class="cls-20" points="385.79 902.7 447.29 975 456.59 964 395.39 891.3 385.79 902.7"/><polygon class="cls-17" points="152.69 839.6 287.59 997.2 291.79 1002.2 297.19 1008.5 307.79 1020.8 317.29 1009.5 306.69 997.2 297.09 985.9 172.39 839.7 152.69 839.6"/><polygon class="cls-17" points="-5.61 899.2 60.19 976.1 70.09 965 -0.41 882.4 -5.61 888.6 -5.61 899.2"/><polygon class="cls-18" points="217.39 839.3 275.49 906.8 284.69 895.8 235.59 839.3 217.39 839.3"/><polygon class="cls-17" points="327.19 1021.3 317.69 1032.5 358.49 1080.4 367.69 1069.5 327.19 1021.3"/><polygon class="cls-19" points="117.09 933.2 387.59 1258.8 396.89 1247.8 126.39 922.2 117.09 933.2"/><polygon class="cls-21" points="243.09 945.2 109.59 1103.5 119.39 1115.4 252.99 957.1 243.09 945.2"/><polygon class="cls-21" points="100.09 1114.8 24.49 1204.4 34.19 1216.2 109.99 1126.4 100.09 1114.8"/><polygon class="cls-21" points="-5.61 1240.1 -5.61 1263.3 24.59 1227.6 14.99 1215.7 -5.61 1240.1"/><polygon class="cls-21" points="332.09 839.6 252.69 933.8 262.69 945.6 352.09 839.8 332.09 839.6"/><polygon class="cls-21" points="-5.61 1064.5 -5.61 1078.1 0.09 1071.4 -5.61 1064.5"/><polyline class="cls-21" points="0.19 1047.9 247.29 754.8 267.29 755 9.99 1059.7"/><polygon class="cls-18" points="88.59 877.3 98.49 889.1 14.39 988.7 4.59 976.8 88.59 877.3"/><polygon class="cls-20" points="14.89 839.4 34.99 839.4 -5.61 888.6 -5.61 864.3 14.89 839.4"/><polygon class="cls-21" points="169.79 1280.2 127.69 1330.1 137.89 1341.9 179.69 1292.4 169.79 1280.2"/><polygon class="cls-21" points="-5.61 1487.9 -5.61 1512 128.19 1353.4 118.29 1341.2 -5.61 1487.9"/><polygon class="cls-21" points="558.69 819.7 179.59 1268.6 189.69 1281 568.49 831.4 558.69 819.7"/></g><g id="Weaved_Lines_-_Top_Right" data-name="Weaved Lines - Top Right"><polygon class="cls-17" points="1916.99 1452.3 1402.69 838.9 1422.69 838.9 1916.99 1428.5 1916.99 1452.3"/><polygon class="cls-18" points="1916.99 1555 1689.09 1275.8 1699.39 1264.4 1916.99 1531.1 1916.99 1555"/><polygon class="cls-19" points="1500.39 838.8 1516.39 839.1 1415.69 961.3 1407.59 951.4 1500.39 838.8"/><polygon class="cls-21" points="1447.49 979.4 1456.69 990.6 1493.39 946.8 1483.99 935.6 1447.49 979.4"/><polygon class="cls-21" points="1493.89 923.7 1503.29 934.9 1582.99 839.7 1563.79 839.6 1493.89 923.7"/><polygon class="cls-18" points="1703.69 835.4 1712.49 845.6 1523.19 1071.9 1513.99 1060.6 1703.69 835.4"/><polygon class="cls-17" points="1793.19 806.1 1793.39 829 1676.69 968.4 1667.59 957.1 1793.19 806.1"/><polygon class="cls-18" points="1508.59 1247 1517.79 1258.2 1635.99 1116.5 1626.49 1105.3 1508.59 1247"/><polygon class="cls-18" points="1636.29 1093.7 1645.59 1104.9 1860.29 848.1 1850.79 837 1636.29 1093.7"/><polygon class="cls-21" points="1681.79 1061.6 1671.79 1073.5 1806.99 1235.2 1816.99 1223.4 1681.79 1061.6"/><polygon class="cls-21" points="1495.69 838.9 1475.79 838.9 1662.49 1062.4 1672.49 1050.5 1495.69 838.9"/><polygon class="cls-21" points="1826.49 1234.9 1816.49 1246.7 1916.99 1366.8 1916.99 1343.1 1826.49 1234.9"/><polygon class="cls-20" points="1629.19 923.8 1570.79 854.3 1580.69 842.4 1639.19 912 1629.19 923.8"/><polygon class="cls-17" points="1916.99 915 1852.89 839.4 1873.49 839.4 1916.99 891.1 1916.99 915"/><polygon class="cls-19" points="1727.59 839.3 1707.09 839.2 1778.29 923.8 1788.39 911.6 1727.59 839.3"/><polygon class="cls-19" points="1797.79 922.8 1787.79 935.1 1916.99 1088.3 1916.99 1064.6 1797.79 922.8"/><polygon class="cls-20" points="1797.99 1124.4 1638.09 934.5 1648.09 922.6 1807.89 1112.5 1797.99 1124.4"/></g><polygon class="cls-17" points="65.39 827.6 56.09 838.3 193.79 1003.5 202.99 992.8 65.39 827.6"/><g id="Weaved_Lines" data-name="Weaved Lines"><polygon class="cls-20" points="1869.59 2517.7 1156.49 1677.3 1176.29 1677.2 1889.59 2517.7 1869.59 2517.7"/><polygon class="cls-19" points="1916.99 2472.9 1297.69 1741.9 1306.79 1729.3 1916.99 2449.3 1916.99 2472.9"/><polygon class="cls-18" points="1536.19 1972.1 1471.39 1895.5 1481.29 1883.7 1546.19 1960.3 1536.19 1972.1"/><polygon class="cls-20" points="1916.99 2080.5 1613.19 1723.7 1623.09 1711.8 1916.89 2056.9 1916.99 2080.5"/><polygon class="cls-21" points="1916.99 1978.9 1660.99 1678.6 1679.99 1678.6 1916.99 1955.6 1916.99 1978.9"/><polygon class="cls-17" points="1916.99 1881.7 1743.79 1678.6 1762.39 1678.6 1916.99 1858.7 1916.99 1881.7"/><polygon class="cls-20" points="1916.99 1717.9 1883.39 1678.6 1902.39 1677.7 1917.29 1695.1 1916.99 1717.9"/><polygon class="cls-21" points="1188.29 1947.3 961.99 1677.3 981.79 1677.2 1198.29 1935.5 1188.29 1947.3"/><polygon class="cls-17" points="729.19 1694.2 719.29 1705.9 1290.49 2381.5 1297.99 2372.5 729.19 1694.2"/><polygon class="cls-17" points="1309.79 2381.6 1299.89 2393.6 1404.39 2517.5 1424.39 2517.5 1309.79 2381.6"/><polygon class="cls-17" points="1120.59 2517.7 922.19 2282 932.19 2270.2 1140.59 2517.7 1120.59 2517.7"/><polygon class="cls-18" points="1182.89 2510.9 1023.79 2322 1033.79 2310.2 1192.79 2499 1182.89 2510.9"/><polygon class="cls-20" points="1082.09 2072.7 752.69 1677.3 772.49 1677.2 1092.89 2061.9 1082.09 2072.7"/><polygon class="cls-20" points="960.39 1841.6 824.79 1678.8 844.69 1678.8 970.49 1829.8 960.39 1841.6"/><polygon class="cls-20" points="589.99 1836.8 452.49 1675.9 471.99 1676.4 599.59 1825.7 589.99 1836.8"/><polygon class="cls-19" points="608.69 1814.7 493.69 1678.6 512.79 1678.6 618.69 1802.8 608.69 1814.7"/><polygon class="cls-17" points="1249.99 1875.7 1084.49 1677.6 1104.59 1677.4 1259.89 1863.8 1249.99 1875.7"/><polygon class="cls-19" points="1248.89 2431.6 1013.79 2153.4 1023.79 2143.3 1258.89 2419.5 1248.89 2431.6"/><polygon class="cls-17" points="644.39 2524.4 203.09 2001 213.19 1989.3 664.29 2524.4 644.39 2524.4"/><polygon class="cls-17" points="1314.09 1678.6 1013.79 2033.4 1022.49 2044 1331.79 1678.6 1314.09 1678.6"/><polygon class="cls-19" points="1066.39 1801.7 970.49 1914.5 979.99 1925.9 1075.89 1813.1 1066.39 1801.7"/><polygon class="cls-19" points="941.99 1948 951.59 1959.4 969.99 1937.7 960.49 1926.3 941.99 1948"/><polygon class="cls-19" points="1164.29 1686.5 1076.39 1789.9 1085.89 1801.3 1173.69 1697.8 1164.29 1686.5"/><polyline class="cls-17" points="934.29 1895 915.79 1916.7 906.29 1905.4 924.79 1883.5"/><polyline class="cls-17" points="934.79 1871.8 1092.09 1686.7 1101.99 1697.5 944.29 1883.2"/><polygon class="cls-18" points="1331.79 1678.6 1255.19 1769 1264.49 1781.3 1351.09 1678.6 1331.79 1678.6"/><polygon class="cls-17" points="830.59 1677.8 850.59 1677.9 782.89 1758.2 772.79 1746.5 830.59 1677.8"/><polygon class="cls-20" points="752.89 1677.4 772.79 1677.3 743.89 1711.7 733.99 1699.9 752.89 1677.4"/><polygon class="cls-18" points="355.59 2057.1 365.39 2068.9 596.49 1800.4 586.69 1788.8 355.59 2057.1"/><polygon class="cls-18" points="682.79 1677.2 596.79 1777.1 606.49 1788.8 702.39 1677.3 682.79 1677.2"/><polygon class="cls-21" points="-5.61 2345.1 -5.61 2368.4 518.39 1753 508.59 1741.5 -5.61 2345.1"/><polygon class="cls-21" points="563.89 1677.2 518.09 1730.4 527.99 1741.9 583.19 1677.7 563.89 1677.2"/><polygon class="cls-21" points="1440.19 1910.2 1407.29 1949.8 1416.89 1961.2 1449.79 1921.5 1440.19 1910.2"/><polygon class="cls-21" points="1450.09 1898.3 1459.69 1909.7 1697.59 1621.7 1688.39 1610.3 1450.09 1898.3"/><polygon class="cls-21" points="1403.09 2246.2 1403.09 2246.2 1304.29 2365 1304.29 2365 1177.99 2516.8 1197.49 2516.8 1309.79 2381.6 1414.79 2255.2 1571.09 2064.7 1561.39 2053.3 1403.09 2246.2"/><polygon class="cls-21" points="1724.99 1855 1571.29 2041.4 1580.89 2052.7 1734.59 1866.3 1724.99 1855"/><polygon class="cls-20" points="1356.29 2436.8 1366.09 2448.4 1470.99 2322.1 1461.29 2310.5 1356.29 2436.8"/><polygon class="cls-20" points="1471.09 2298.7 1480.89 2310.2 1628.49 2132.5 1618.79 2121.1 1471.09 2298.7"/><polygon class="cls-20" points="1629.09 2109.6 1638.89 2121.1 1760.39 1974.8 1750.79 1963.3 1629.09 2109.6"/><polygon class="cls-19" points="1896.89 1858.1 1823.19 1946.8 1832.89 1958.3 1906.59 1869.5 1896.89 1858.1"/><polygon class="cls-19" points="1789.29 1987.5 1799.09 1998.9 1822.99 1970.2 1813.29 1958.7 1789.29 1987.5"/><polygon class="cls-18" points="1899.69 1697.7 1799.39 1818.3 1809.09 1829.8 1909.39 1709 1899.69 1697.7"/><polygon class="cls-18" points="1757.09 1869.2 1766.79 1880.6 1799.59 1841.1 1789.79 1829.8 1757.09 1869.2"/><polygon class="cls-20" points="1289.49 2517.1 1308.69 2517.5 1356.19 2460.3 1346.39 2448.7 1289.49 2517.1"/><polygon class="cls-19" points="1501.29 2517.1 1517.59 2517 1898.89 2059.3 1890.19 2049 1501.29 2517.1"/><polygon class="cls-19" points="1649.79 2258.7 1658.39 2268.8 1553.09 2395.6 1544.89 2385.9 1649.79 2258.7"/><polygon class="cls-17" points="1519.09 2310.2 1526.09 2322.3 1352.49 2530.9 1344.39 2521.3 1519.09 2310.2"/><polygon class="cls-21" points="1564.69 2517.7 1583.89 2518 1766.69 2295.5 1756.99 2284 1564.69 2517.7"/><polygon class="cls-21" points="1766.79 2272 1776.59 2283.5 1916.99 2112.7 1916.99 2089.4 1766.79 2272"/><polygon class="cls-17" points="1794.39 2405.5 1804.19 2417 1916.99 2279.8 1917.49 2255.9 1794.39 2405.5"/><polygon class="cls-17" points="1702.19 2517.6 1721.39 2517.7 1794.29 2429 1784.39 2417.7 1702.19 2517.6"/><polygon class="cls-21" points="1860.49 2406.2 1870.29 2417.7 1788.19 2517.6 1768.79 2517.7 1860.49 2406.2"/><polygon class="cls-18" points="1916.99 2463.8 1916.99 2487.1 1890.79 2519 1880.99 2507.5 1916.99 2463.8"/><polygon class="cls-17" points="1471.39 2049.1 1481.19 2060.7 1689.19 1812.9 1679.29 1801.3 1471.39 2049.1"/><polygon class="cls-17" points="1901.69 1536.4 1689.29 1789.5 1699.09 1801 1911.49 1547.9 1901.69 1536.4"/><polygon class="cls-18" points="1917.09 2296 1840.19 2205.9 1830.99 2217.3 1917.49 2318.4 1917.09 2296"/><polygon class="cls-18" points="1692.89 2056 1821.19 2205.9 1830.59 2194.5 1702.49 2044.5 1692.89 2056"/><polygon class="cls-18" points="1512.79 1845.7 1683.09 2044.6 1692.79 2033.1 1522.69 1833.8 1512.79 1845.7"/><polygon class="cls-18" points="1362.09 1644.2 1352.09 1656 1503.29 1834.4 1513.19 1822.5 1362.09 1644.2"/><polygon class="cls-21" points="722.19 1678.8 742.19 1678.7 36.39 2518.2 18.19 2517.2 722.19 1678.8"/><polygon class="cls-21" points="320.19 1692.5 329.99 1704.1 -5.61 2103.4 -5.61 2080.1 320.19 1692.5"/><polygon class="cls-17" points="247.39 1678.6 265.69 1678.5 109.29 1866.8 99.79 1855.5 247.39 1678.6"/><polygon class="cls-21" points="177.89 1678.6 199.69 1677.9 -6.11 1923.7 -6.11 1898.4 177.89 1678.6"/><polygon class="cls-21" points="20.89 1678.8 30.59 1690.4 -5.61 1733.4 -5.61 1710.1 20.89 1678.8"/><polygon class="cls-20" points="242.09 2162.4 251.89 2174.1 74.49 2390.3 64.89 2378.8 242.09 2162.4"/><polygon class="cls-18" points="131.29 1641.8 142.59 1655.7 34.29 1778.5 24.69 1766.2 131.29 1641.8"/><polygon class="cls-17" points="416.69 1678.5 435.89 1678.5 380.99 1743.3 371.69 1732 416.69 1678.5"/><polygon class="cls-17" points="-6.11 2243.1 -6.11 2219.9 383.59 1769 393.49 1780.7 -6.11 2243.1"/><polygon class="cls-21" points="1329.09 1779.3 1338.69 1790.5 722.69 2517.5 705.19 2517.4 1329.09 1779.3"/><polygon class="cls-20" points="1080.89 2231.7 990.29 2339.2 999.79 2350.5 1090.39 2243 1080.89 2231.7"/><polygon class="cls-20" points="839.79 2517.6 858.89 2517.6 989.79 2362.3 980.29 2351 839.79 2517.6"/><polygon class="cls-19" points="1163.59 2306.7 1096.89 2385.2 1106.59 2396.3 1173.09 2318 1163.59 2306.7"/><polygon class="cls-19" points="984.49 2517.5 1003.49 2517.7 1096.49 2408.3 1086.89 2396.9 984.49 2517.5"/><polygon class="cls-20" points="1216.09 2392.6 1225.59 2403.9 1134.59 2511 1125.19 2499.5 1216.09 2392.6"/><polygon class="cls-21" points="1346.19 2337.8 1336.29 2349.7 1382.79 2404.9 1392.69 2393 1346.19 2337.8"/><polygon class="cls-21" points="1402.39 2404.7 1392.49 2416.6 1477.49 2517.5 1497.09 2517.1 1402.39 2404.7"/><polygon class="cls-21" points="1595.09 2404.2 1498.29 2289.3 1508.19 2277.4 1604.99 2392.3 1595.09 2404.2"/><polygon class="cls-17" points="1699.99 2520.3 1639.89 2449.8 1649.79 2437.8 1709.49 2508.7 1699.99 2520.3"/><polygon class="cls-20" points="1565.99 2516.1 1541.89 2487.5 1551.79 2475.6 1575.89 2504.2 1565.99 2516.1"/><polygon class="cls-19" points="1434.49 2412.4 1358.89 2322.6 1368.69 2310.7 1444.29 2400.5 1434.49 2412.4"/><polygon class="cls-18" points="412.99 2150.1 422.49 2161.4 118.89 2517.6 99.69 2517.6 412.99 2150.1"/><polygon class="cls-19" points="430.19 2270.5 439.79 2281.8 288.59 2459.7 279.19 2448.2 430.19 2270.5"/><polygon class="cls-20" points="502.19 2243.1 511.79 2254.4 287.89 2517.6 268.69 2517.6 502.19 2243.1"/><polygon class="cls-21" points="540.09 2397.4 549.69 2408.7 458.59 2517.2 439.49 2517.2 540.09 2397.4"/><polygon class="cls-21" points="629.19 2399.8 638.69 2411.1 547.69 2519.6 528.49 2519.6 629.19 2399.8"/><polygon class="cls-17" points="224.99 2293.9 215.09 2305.7 307.89 2414.4 317.89 2402.6 224.99 2293.9"/><polygon class="cls-17" points="141.29 2195.9 131.29 2207.7 205.39 2294.4 215.29 2282.5 141.29 2195.9"/><polygon class="cls-17" points="28.09 2063.3 18.09 2075.2 121.39 2196.1 131.39 2184.3 28.09 2063.3"/><polygon class="cls-17" points="-5.61 2023.9 -5.61 2047.5 8.19 2063.7 18.19 2051.8 -5.61 2023.9"/><polygon class="cls-17" points="327.49 2414 317.49 2425.7 394.39 2517.2 414.49 2517.5 327.49 2414"/><polygon class="cls-18" points="-6.31 2132.5 31.09 2176.9 41.19 2165.3 -5.91 2109.3 -6.31 2132.5"/><polygon class="cls-18" points="151.49 2296.5 141.69 2308.5 316.89 2516.8 337.29 2517.5 151.49 2296.5"/><polygon class="cls-18" points="50.99 2177 40.99 2188.7 131.99 2296.9 141.79 2284.9 50.99 2177"/><polygon class="cls-20" points="-5.61 2295 -5.61 2318.6 89.79 2432 99.69 2420.2 -5.61 2295"/><polygon class="cls-20" points="109.19 2431.6 99.29 2443.4 161.29 2517.2 181.49 2517.5 109.19 2431.6"/><polygon class="cls-18" points="239.29 2254 165.99 2166.8 175.99 2155.1 249.19 2242.2 239.29 2254"/><polygon class="cls-17" points="-5.61 2379.2 -5.61 2402.8 95.09 2522.6 105.29 2511 -5.61 2379.2"/><polygon class="cls-18" points="-4.21 1731.8 -14.31 1743.3 141.39 1928.5 151.29 1916.7 -4.21 1731.8"/><polygon class="cls-19" points="256.89 1791.1 247.89 1801.9 352.29 1924.9 361.39 1914.2 256.89 1791.1"/><polygon class="cls-19" points="171.39 1711.7 238.09 1790.3 247.09 1779.5 180.39 1700.9 171.39 1711.7"/><polygon class="cls-19" points="143.39 1678.8 160.79 1699.2 169.79 1688.4 161.59 1678.8 143.39 1678.8"/><polygon class="cls-19" points="371.19 1925.8 362.39 1936.3 444.59 2032.8 453.19 2022.6 371.19 1925.8"/><polygon class="cls-17" points="466.89 1951 457.89 1961.5 471.29 1977.6 480.19 1967 466.89 1951"/><polygon class="cls-17" points="284.99 1757.1 448.09 1949.7 457.09 1939.2 294.19 1746.6 284.99 1757.1"/><polygon class="cls-21" points="946.39 2413.9 936.49 2425.7 1013.79 2517.7 1034.19 2518.2 946.39 2413.9"/><polygon class="cls-21" points="878.69 2333.4 868.69 2345.2 926.89 2414.4 936.89 2402.6 878.69 2333.4"/><polygon class="cls-18" points="902.89 1833.8 912.49 1845.3 1007.99 1732.1 998.39 1720.7 902.89 1833.8"/><polygon class="cls-18" points="805.69 1785.3 815.29 1796.8 914.99 1678.6 895.79 1678.6 805.69 1785.3"/><polygon class="cls-18" points="1034.19 1678.3 1008.39 1708.9 1017.89 1720.3 1052.99 1678.6 1034.19 1678.3"/><polygon class="cls-18" points="784.99 2423 774.99 2434.8 845.49 2518.2 864.99 2517.7 784.99 2423"/><polygon class="cls-20" points="39.69 1678.8 20.89 1678.8 59.79 1725.3 69.29 1714.1 39.69 1678.8"/><polygon class="cls-20" points="257.19 1938.3 247.49 1949.6 722.69 2517.5 742.59 2517.5 257.19 1938.3"/><polygon class="cls-20" points="143.59 1825.5 237.69 1937.9 247.39 1926.7 153.09 1814.1 143.59 1825.5"/><polygon class="cls-20" points="79.89 1726.8 70.29 1737.8 134.29 1814.3 143.69 1802.9 79.89 1726.8"/><polygon class="cls-19" points="1269.09 2430.6 1259.29 2442.4 1321.79 2517.6 1341.59 2517.7 1269.09 2430.6"/><polygon class="cls-19" points="1432.79 1677.9 1411.79 1702.9 1421.49 1714.2 1451.99 1677.9 1432.79 1677.9"/><polygon class="cls-19" points="1305.39 1829.5 1314.99 1840.8 1411.49 1726.1 1401.89 1714.7 1305.39 1829.5"/><polygon class="cls-20" points="1468.09 1664.2 1458.39 1675.2 1546.49 1782.7 1555.89 1771.1 1468.09 1664.2"/><polygon class="cls-18" points="1874.49 2088.8 1864.89 2100 1916.69 2162 1917.29 2139.9 1874.49 2088.8"/><polygon class="cls-18" points="1666.49 1839.9 1656.99 1851.1 1856.39 2089.8 1865.79 2078.4 1666.49 1839.9"/><polygon class="cls-18" points="1531.59 1678.6 1512.89 1678.6 1647.29 1839.5 1657.19 1828.8 1531.59 1678.6"/><polygon class="cls-17" points="1341.09 1871.7 1350.69 1883 1517.29 1683.9 1507.89 1672.5 1341.09 1871.7"/><polygon class="cls-19" points="1477.19 1780 1486.79 1791.3 1581.89 1678.2 1563.19 1677.7 1477.19 1780"/><polygon class="cls-20" points="1485.69 1941 1495.29 1952.3 1617.29 1804.2 1607.79 1792.8 1485.69 1941"/><polyline class="cls-18" points="415.29 1680.2 413.79 1678.3 394.99 1678.8 405.59 1691.7 411.19 1698.4 414.99 1703.1 565.89 1888.9 575.59 1877.4 424.69 1691.7"/><polygon class="cls-19" points="452.99 1829.8 443.29 1841.2 514.09 1926.9 523.79 1915.4 452.99 1829.8"/><polygon class="cls-19" points="308.69 1678.5 433.39 1829.7 443.29 1818.1 327.99 1678.6 308.69 1678.5"/><polygon class="cls-18" points="1414.79 2232 1404.89 2243.9 1576.19 2446.7 1586.09 2434.7 1414.79 2232"/><polygon class="cls-18" points="1624.49 2309.6 1614.49 2321.6 1774.79 2510.4 1784.69 2498.4 1624.49 2309.6"/><polygon class="cls-18" points="1495.49 2157.1 1485.69 2169.1 1606.19 2311.6 1615.99 2299.6 1495.49 2157.1"/><polygon class="cls-18" points="1139.99 1905.2 1129.79 1916.7 1180.79 1977.1 1190.69 1965.3 1139.99 1905.2"/><polygon class="cls-18" points="1033.09 1778.6 1022.69 1789.9 1121.19 1906.5 1131.09 1894.7 1033.09 1778.6"/><polygon class="cls-20" points="643.99 1772.1 560.69 1673.6 578.19 1671.3 653.89 1760.2 643.99 1772.1"/><polygon class="cls-19" points="340.69 2257.1 330.69 2268.9 405.19 2357.2 415.29 2345.6 340.69 2257.1"/><polygon class="cls-19" points="215.29 2108.9 205.29 2120.7 321.19 2257.5 331.19 2245.8 215.29 2108.9"/><polygon class="cls-19" points="102.19 1975.2 92.19 1987 195.49 2109 205.49 2097.3 102.19 1975.2"/><polygon class="cls-19" points="-6.31 1847 -6.31 1870.6 82.39 1975.4 92.39 1963.6 -6.31 1847"/><polygon class="cls-19" points="424.69 2356.8 414.69 2368.5 535.29 2511.6 545.19 2499.7 424.69 2356.8"/><polygon class="cls-17" points="1817.09 2020 1825.69 2030.1 1695.19 2188.9 1687.09 2179.3 1817.09 2020"/></g><g id="Copyright"><polygon class="cls-22" points="1187.88 2497.71 753.11 2502.95 780.76 2463.26 1158.96 2463.26 1187.88 2497.71"/><path class="cls-23" d="M903.72,2475.5v-3.7H903v-1.23h.74v-1a1.7,1.7,0,0,1,.47-1.29,2,2,0,0,1,1.4-.43h.32l.39.08v1.33a1,1,0,0,0-.22-.07l-.18,0a.41.41,0,0,0-.36.15.83.83,0,0,0-.11.47v.79h.87v1.23h-.87v3.7Z"/><path class="cls-23" d="M912.17,2473.38h-3.75a1.36,1.36,0,0,0,.29.88,1.08,1.08,0,0,0,.82.31,1.41,1.41,0,0,0,.67-.15,1,1,0,0,0,.41-.44l1.31.53a1.65,1.65,0,0,1-.83.86,3.12,3.12,0,0,1-1.46.32,2.89,2.89,0,0,1-2.07-.73,2.38,2.38,0,0,1-.78-1.87,2.58,2.58,0,0,1,.78-1.92,2.68,2.68,0,0,1,2-.76,2.54,2.54,0,0,1,1.93.76,2.7,2.7,0,0,1,.54.93,3.93,3.93,0,0,1,.17,1.19Zm-1.71-1a1,1,0,0,0-.32-.67.9.9,0,0,0-.67-.26.94.94,0,0,0-.67.23,1.19,1.19,0,0,0-.34.7Z"/><path class="cls-23" d="M912.71,2475.09l.36-1.33a3,3,0,0,0,.84.51,2.47,2.47,0,0,0,.92.18,1,1,0,0,0,.5-.11.34.34,0,0,0,.17-.3c0-.22-.23-.38-.69-.49l-.36-.09a2.74,2.74,0,0,1-1.13-.57,1.21,1.21,0,0,1-.36-.9,1.4,1.4,0,0,1,.54-1.15,2.23,2.23,0,0,1,1.46-.43,4.24,4.24,0,0,1,1,.11,5.14,5.14,0,0,1,1,.34l-.36,1.2a3,3,0,0,0-.71-.36,2.12,2.12,0,0,0-.71-.12.89.89,0,0,0-.45.09.29.29,0,0,0-.15.27c0,.17.23.32.69.44l.23.07a3.07,3.07,0,0,1,1.26.6,1.32,1.32,0,0,1,.35.95,1.48,1.48,0,0,1-.58,1.22,2.44,2.44,0,0,1-1.54.47,4.48,4.48,0,0,1-1.2-.15A4.06,4.06,0,0,1,912.71,2475.09Z"/><path class="cls-23" d="M918.28,2475.5v-3.7h-.74v-1.23h.74v-1.48H920v1.48h.73v1.23H920v3.7Z"/><path class="cls-23" d="M921.5,2475.5v-4.93h1.74v4.93Zm.22-6.2h0a.55.55,0,0,1,.19-.45.66.66,0,0,1,.92,0,.59.59,0,0,1,.19.46.64.64,0,0,1-.19.46.62.62,0,0,1-.46.19.63.63,0,0,1-.47-.19A.62.62,0,0,1,921.72,2469.3Z"/><path class="cls-23" d="M926.15,2475.5l-2.22-4.93h1.86l.84,2.18a.22.22,0,0,1,0,.08,5.59,5.59,0,0,1,.2.68,4.6,4.6,0,0,1,.19-.64.87.87,0,0,0,.05-.12l.84-2.18h1.81l-2.24,4.93Z"/><path class="cls-23" d="M935.59,2470.57v4.93H934v-.8a2.28,2.28,0,0,1-.77.75,2,2,0,0,1-1,.24,1.89,1.89,0,0,1-1.57-.73,2.4,2.4,0,0,1-.44-.84,3.61,3.61,0,0,1-.15-1.08,2.77,2.77,0,0,1,.62-1.92,2.09,2.09,0,0,1,1.66-.71,1.79,1.79,0,0,1,.95.24,1.88,1.88,0,0,1,.69.73v-.81Zm-1.54,2.46a1.3,1.3,0,0,0-.3-.91,1.21,1.21,0,0,0-1.67,0,1.31,1.31,0,0,0-.31.92,1.26,1.26,0,0,0,.31.91,1.06,1.06,0,0,0,.83.33,1.07,1.07,0,0,0,.83-.33A1.26,1.26,0,0,0,934.05,2473Z"/><path class="cls-23" d="M936.94,2475.5v-7.57h1.75v7.57Z"/><path class="cls-23" d="M940.19,2475.5v-3.7h-.74v-1.23h.74v-1a1.7,1.7,0,0,1,.47-1.29,2,2,0,0,1,1.4-.43h.32l.39.08v1.33a1,1,0,0,0-.22-.07l-.18,0a.41.41,0,0,0-.36.15.83.83,0,0,0-.11.47v.79h.87v1.23h-.87v3.7Z"/><path class="cls-23" d="M948.76,2473.05a2.47,2.47,0,0,1-.21,1,2.89,2.89,0,0,1-.6.86,3,3,0,0,1-.89.58,3.05,3.05,0,0,1-2.12,0,2.79,2.79,0,0,1-.89-.58,2.63,2.63,0,0,1-.8-1.87,2.53,2.53,0,0,1,.21-1,2.46,2.46,0,0,1,.59-.85,2.91,2.91,0,0,1,.89-.58,3,3,0,0,1,1.06-.18,3,3,0,0,1,1.06.18,2.79,2.79,0,0,1,.89.58,2.28,2.28,0,0,1,.6.85A2.53,2.53,0,0,1,948.76,2473.05Zm-1.73,0a1.25,1.25,0,0,0-.28-.87.93.93,0,0,0-.75-.32.91.91,0,0,0-.75.32,1.21,1.21,0,0,0-.28.87,1.28,1.28,0,0,0,.27.86,1.06,1.06,0,0,0,1.52,0A1.32,1.32,0,0,0,947,2473.05Z"/><path class="cls-23" d="M949.77,2475.5v-4.93h1.64v1.16a2.1,2.1,0,0,1,.69-1,1.8,1.8,0,0,1,1.07-.31h.42l-.17,1.58a1.58,1.58,0,0,0-.31-.08,1.8,1.8,0,0,0-.29,0,1.24,1.24,0,0,0-1,.39,1.58,1.58,0,0,0-.34,1.1v2Z"/><path class="cls-23" d="M959.52,2470.57v4.92a2,2,0,0,1-.68,1.65,2.37,2.37,0,0,1-.86.4,5.16,5.16,0,0,1-1.25.13,3.21,3.21,0,0,1-1.81-.43,1.48,1.48,0,0,1-.69-1.2H956a.51.51,0,0,0,.26.35,1,1,0,0,0,.57.13,1,1,0,0,0,.78-.26,2.07,2.07,0,0,0,.21-1.15v-.44a1.75,1.75,0,0,1-.7.68,2.07,2.07,0,0,1-1,.24,2,2,0,0,1-1.57-.71,2.49,2.49,0,0,1-.44-.82A3.48,3.48,0,0,1,954,2473a2.78,2.78,0,0,1,.62-1.89,1.91,1.91,0,0,1,.73-.53,2.45,2.45,0,0,1,.93-.17,2,2,0,0,1,1,.23,1.85,1.85,0,0,1,.69.72v-.79ZM958,2473a1.29,1.29,0,0,0-.3-.9,1.16,1.16,0,0,0-.85-.32,1.18,1.18,0,0,0-.85.32,1.25,1.25,0,0,0-.31.9,1.21,1.21,0,0,0,.31.89,1.13,1.13,0,0,0,.85.33,1.11,1.11,0,0,0,.84-.33A1.19,1.19,0,0,0,958,2473Z"/><path class="cls-23" d="M966.06,2473.05a2.47,2.47,0,0,1-.21,1,2.89,2.89,0,0,1-.6.86,3,3,0,0,1-.89.58,3.05,3.05,0,0,1-2.12,0,2.79,2.79,0,0,1-.89-.58,2.63,2.63,0,0,1-.8-1.87,2.53,2.53,0,0,1,.21-1,2.46,2.46,0,0,1,.59-.85,2.91,2.91,0,0,1,.89-.58,3,3,0,0,1,1.06-.18,3,3,0,0,1,1.06.18,2.79,2.79,0,0,1,.89.58,2.28,2.28,0,0,1,.6.85A2.53,2.53,0,0,1,966.06,2473.05Zm-1.73,0a1.25,1.25,0,0,0-.28-.87.93.93,0,0,0-.75-.32.91.91,0,0,0-.75.32,1.21,1.21,0,0,0-.28.87,1.28,1.28,0,0,0,.27.86,1.06,1.06,0,0,0,1.52,0A1.32,1.32,0,0,0,964.33,2473.05Z"/><path class="cls-23" d="M972.29,2473.05a2.47,2.47,0,0,1-.21,1,2.89,2.89,0,0,1-.6.86,3,3,0,0,1-.89.58,3.05,3.05,0,0,1-2.12,0,2.79,2.79,0,0,1-.89-.58,2.63,2.63,0,0,1-.8-1.87,2.53,2.53,0,0,1,.21-1,2.46,2.46,0,0,1,.59-.85,2.91,2.91,0,0,1,.89-.58,3,3,0,0,1,1.06-.18,3,3,0,0,1,1.06.18,2.79,2.79,0,0,1,.89.58,2.28,2.28,0,0,1,.6.85A2.53,2.53,0,0,1,972.29,2473.05Zm-1.73,0a1.25,1.25,0,0,0-.28-.87.93.93,0,0,0-.75-.32.91.91,0,0,0-.75.32,1.21,1.21,0,0,0-.28.87,1.28,1.28,0,0,0,.27.86,1.06,1.06,0,0,0,1.52,0A1.32,1.32,0,0,0,970.56,2473.05Z"/><path class="cls-23" d="M978.6,2467.93v7.57H977v-.8a2.29,2.29,0,0,1-.75.74,1.73,1.73,0,0,1-.92.25,2,2,0,0,1-1.65-.73,3.27,3.27,0,0,1,0-3.83,2,2,0,0,1,1.59-.72,2,2,0,0,1,1,.23,2.05,2.05,0,0,1,.7.75c0-.09,0-.22,0-.4s0-.36,0-.48v-2.58Zm-1.54,5.11a1.3,1.3,0,0,0-.3-.91,1.11,1.11,0,0,0-.84-.33,1.07,1.07,0,0,0-.83.33,1.53,1.53,0,0,0,0,1.82,1.07,1.07,0,0,0,.83.33,1.11,1.11,0,0,0,.84-.33A1.3,1.3,0,0,0,977.06,2473Z"/><path class="cls-23" d="M984.92,2474.22a1.93,1.93,0,0,1-.62.59,1.77,1.77,0,0,1-.82.18,1.57,1.57,0,0,1-1.21-.43,1.74,1.74,0,0,1-.41-1.25,2.84,2.84,0,0,1,.7-2,2.12,2.12,0,0,1,1.7-.79,1.3,1.3,0,0,1,.65.15,1.18,1.18,0,0,1,.47.45l.25-.45h1l-.75,3v0l0,.14a.27.27,0,0,0,.08.21.32.32,0,0,0,.23.07,1.45,1.45,0,0,0,1.18-.69,2.72,2.72,0,0,0,.5-1.64,2.34,2.34,0,0,0-.88-1.91,3.42,3.42,0,0,0-2.28-.74,5.09,5.09,0,0,0-1.34.18,3.8,3.8,0,0,0-2.29,1.87,3.85,3.85,0,0,0-.41,1.75,2.94,2.94,0,0,0,1,2.35,3.85,3.85,0,0,0,2.65.88,5.15,5.15,0,0,0,2.91-.91l.48.66a5.79,5.79,0,0,1-.79.49,5.26,5.26,0,0,1-.82.36,5.62,5.62,0,0,1-1.78.28,6.35,6.35,0,0,1-1.73-.23,4.62,4.62,0,0,1-.73-.29,6.26,6.26,0,0,1-.68-.42,4.46,4.46,0,0,1-.66-.64,4.28,4.28,0,0,1-.48-.74,4.14,4.14,0,0,1-.28-.84,4,4,0,0,1-.1-.92,4.88,4.88,0,0,1,.26-1.57,5.69,5.69,0,0,1,.32-.71,5.58,5.58,0,0,1,.44-.64,4.89,4.89,0,0,1,1.76-1.37,5.66,5.66,0,0,1,2.28-.45,5.16,5.16,0,0,1,1.56.22,3.73,3.73,0,0,1,1.27.65,3.27,3.27,0,0,1,1,1.19,3.37,3.37,0,0,1,.32,1.49,3.42,3.42,0,0,1-.32,1.5,3.22,3.22,0,0,1-.93,1.17,2.58,2.58,0,0,1-.74.42,2.81,2.81,0,0,1-.87.14,1.34,1.34,0,0,1-.79-.19A.74.74,0,0,1,984.92,2474.22Zm.18-2.12a.91.91,0,0,0-.24-.56.69.69,0,0,0-.54-.2,1.08,1.08,0,0,0-.89.59,2.62,2.62,0,0,0-.38,1.4,1.09,1.09,0,0,0,.17.63.58.58,0,0,0,.48.22,1,1,0,0,0,.72-.29,1.5,1.5,0,0,0,.43-.77Z"/><path class="cls-23" d="M989.9,2475.5v-4.93h1.64v1.16a2.25,2.25,0,0,1,.69-1,1.8,1.8,0,0,1,1.07-.31h.42l-.17,1.58a1.58,1.58,0,0,0-.31-.08,1.74,1.74,0,0,0-.29,0,1.24,1.24,0,0,0-1,.39,1.58,1.58,0,0,0-.34,1.1v2Z"/><path class="cls-23" d="M999.65,2470.57v4.93h-1.6v-.8a2.3,2.3,0,0,1-.78.75,2,2,0,0,1-1,.24,1.91,1.91,0,0,1-1.58-.73,2.4,2.4,0,0,1-.44-.84,3.61,3.61,0,0,1-.15-1.08,2.82,2.82,0,0,1,.62-1.92,2.1,2.1,0,0,1,1.66-.71,1.79,1.79,0,0,1,1,.24,1.9,1.9,0,0,1,.7.73v-.81Zm-1.53,2.46a1.3,1.3,0,0,0-.31-.91,1.21,1.21,0,0,0-1.67,0,1.31,1.31,0,0,0-.31.92,1.26,1.26,0,0,0,.31.91,1.07,1.07,0,0,0,.83.33,1.11,1.11,0,0,0,.84-.33A1.3,1.3,0,0,0,998.12,2473Z"/><path class="cls-23" d="M1000.92,2475.5v-4.93h1.74v4.93Zm.22-6.2h0a.59.59,0,0,1,.19-.45.62.62,0,0,1,.46-.19.64.64,0,0,1,.47.18.62.62,0,0,1,.18.46.65.65,0,0,1-.65.65.64.64,0,0,1-.47-.19A.66.66,0,0,1,1001.14,2469.3Z"/><path class="cls-23" d="M1003.62,2475.09l.36-1.33a3,3,0,0,0,.84.51,2.51,2.51,0,0,0,.92.18,1,1,0,0,0,.5-.11.34.34,0,0,0,.17-.3c0-.22-.23-.38-.69-.49l-.36-.09a2.74,2.74,0,0,1-1.13-.57,1.21,1.21,0,0,1-.36-.9,1.4,1.4,0,0,1,.54-1.15,2.23,2.23,0,0,1,1.46-.43,4.18,4.18,0,0,1,1,.11,4.92,4.92,0,0,1,1,.34l-.36,1.2a2.8,2.8,0,0,0-.71-.36,2.08,2.08,0,0,0-.71-.12.89.89,0,0,0-.45.09.29.29,0,0,0-.15.27c0,.17.23.32.69.44l.23.07a3.07,3.07,0,0,1,1.26.6,1.28,1.28,0,0,1,.35.95,1.48,1.48,0,0,1-.58,1.22,2.44,2.44,0,0,1-1.54.47,4.59,4.59,0,0,1-1.2-.15A4.06,4.06,0,0,1,1003.62,2475.09Z"/><path class="cls-23" d="M1014,2473.38h-3.75a1.36,1.36,0,0,0,.29.88,1.08,1.08,0,0,0,.82.31,1.41,1.41,0,0,0,.67-.15,1,1,0,0,0,.41-.44l1.31.53a1.65,1.65,0,0,1-.83.86,3.09,3.09,0,0,1-1.46.32,2.89,2.89,0,0,1-2.07-.73,2.38,2.38,0,0,1-.78-1.87,2.58,2.58,0,0,1,.78-1.92,2.68,2.68,0,0,1,2-.76,2.54,2.54,0,0,1,1.93.76,2.7,2.7,0,0,1,.54.93,3.93,3.93,0,0,1,.17,1.19Zm-1.71-1a1,1,0,0,0-.32-.67.9.9,0,0,0-.67-.26.94.94,0,0,0-.67.23,1.19,1.19,0,0,0-.34.7Z"/><path class="cls-23" d="M1015,2474.7a1,1,0,0,1,1-1,1,1,0,0,1,.71.28,1,1,0,0,1,0,1.4,1,1,0,0,1-.71.29,1,1,0,0,1-.7-.29A.94.94,0,0,1,1015,2474.7Z"/><path class="cls-23" d="M1017.69,2475.09l.36-1.33a3,3,0,0,0,.84.51,2.47,2.47,0,0,0,.92.18,1,1,0,0,0,.5-.11.34.34,0,0,0,.17-.3c0-.22-.23-.38-.69-.49l-.36-.09a2.74,2.74,0,0,1-1.13-.57,1.21,1.21,0,0,1-.36-.9,1.4,1.4,0,0,1,.54-1.15,2.23,2.23,0,0,1,1.46-.43,4.24,4.24,0,0,1,1,.11,5.14,5.14,0,0,1,1,.34l-.36,1.2a3,3,0,0,0-.71-.36,2.08,2.08,0,0,0-.71-.12.89.89,0,0,0-.45.09.29.29,0,0,0-.15.27c0,.17.23.32.69.44l.23.07a3.07,3.07,0,0,1,1.26.6,1.32,1.32,0,0,1,.35.95,1.48,1.48,0,0,1-.58,1.22,2.44,2.44,0,0,1-1.54.47,4.48,4.48,0,0,1-1.2-.15A4.06,4.06,0,0,1,1017.69,2475.09Z"/><path class="cls-23" d="M1028.28,2470.57v4.92a2,2,0,0,1-.68,1.65,2.37,2.37,0,0,1-.86.4,5.16,5.16,0,0,1-1.25.13,3.21,3.21,0,0,1-1.81-.43,1.48,1.48,0,0,1-.69-1.2h1.8a.51.51,0,0,0,.26.35,1,1,0,0,0,.57.13,1,1,0,0,0,.78-.26,2.07,2.07,0,0,0,.21-1.15v-.44a1.75,1.75,0,0,1-.7.68,2.07,2.07,0,0,1-1,.24,2,2,0,0,1-1.57-.71,2.49,2.49,0,0,1-.44-.82,3.48,3.48,0,0,1-.15-1.06,2.78,2.78,0,0,1,.62-1.89,2,2,0,0,1,.72-.53,2.54,2.54,0,0,1,.94-.17,2,2,0,0,1,1,.23,1.85,1.85,0,0,1,.69.72v-.79Zm-1.53,2.45a1.29,1.29,0,0,0-.3-.9,1.16,1.16,0,0,0-.85-.32,1.18,1.18,0,0,0-.85.32,1.25,1.25,0,0,0-.31.9,1.21,1.21,0,0,0,.31.89,1.13,1.13,0,0,0,.85.33,1.11,1.11,0,0,0,.84-.33A1.19,1.19,0,0,0,1026.75,2473Z"/><path class="cls-23" d="M806.58,2487.1a3,3,0,1,1-3-3.08A3,3,0,0,1,806.58,2487.1Zm-5.54,0a2.53,2.53,0,1,0,2.54-2.7A2.57,2.57,0,0,0,801,2487.13Zm3.75-1.17a2.11,2.11,0,0,0-1-.23,1.29,1.29,0,0,0-1.4,1.4,1.33,1.33,0,0,0,1.41,1.41,1.89,1.89,0,0,0,1-.26l.12.38a2.22,2.22,0,0,1-1.22.31,1.73,1.73,0,0,1-1.83-1.81,1.84,1.84,0,0,1,1.91-1.86,1.91,1.91,0,0,1,1.09.27Z"/><path class="cls-23" d="M814.53,2490.28a4.28,4.28,0,0,1-1.78.32,3.15,3.15,0,0,1-3.32-3.41,3.35,3.35,0,0,1,3.52-3.54,3.56,3.56,0,0,1,1.59.3l-.21.71a3.12,3.12,0,0,0-1.35-.28,2.51,2.51,0,0,0-2.63,2.78,2.45,2.45,0,0,0,2.59,2.71,3.47,3.47,0,0,0,1.41-.28Z"/><path class="cls-23" d="M819.87,2488a2.37,2.37,0,0,1-2.41,2.57,2.3,2.3,0,0,1-2.32-2.49,2.36,2.36,0,0,1,2.4-2.57A2.29,2.29,0,0,1,819.87,2488Zm-3.84.05c0,1.06.61,1.86,1.47,1.86s1.47-.79,1.47-1.88c0-.82-.41-1.86-1.45-1.86S816,2487.17,816,2488.09Z"/><path class="cls-23" d="M821,2487.24c0-.62,0-1.12,0-1.58h.79l0,.83h0a1.9,1.9,0,0,1,1.72-.94,2.19,2.19,0,0,1,2,2.46c0,1.74-1,2.6-2.19,2.6a1.7,1.7,0,0,1-1.49-.76h0v2.63H821Zm.87,1.29a2,2,0,0,0,0,.36,1.36,1.36,0,0,0,1.32,1c.93,0,1.47-.76,1.47-1.87s-.51-1.8-1.44-1.8a1.4,1.4,0,0,0-1.33,1.09,1.43,1.43,0,0,0-.06.36Z"/><path class="cls-23" d="M826.92,2485.66l1.06,2.86c.11.32.23.7.31,1h0c.09-.29.19-.66.31-1l1-2.84h.92l-1.31,3.45a7.37,7.37,0,0,1-1.66,3,2.49,2.49,0,0,1-1.08.57l-.22-.74a2.33,2.33,0,0,0,.77-.43,2.67,2.67,0,0,0,.74-1,.63.63,0,0,0,.07-.21.77.77,0,0,0-.06-.23l-1.79-4.46Z"/><path class="cls-23" d="M831.31,2487.17c0-.57,0-1.06,0-1.51H832l0,1h0a1.45,1.45,0,0,1,1.34-1.06,1,1,0,0,1,.25,0v.83a1.32,1.32,0,0,0-.3,0,1.23,1.23,0,0,0-1.18,1.13,2.48,2.48,0,0,0,0,.41v2.58h-.87Z"/><path class="cls-23" d="M835.6,2484.3a.55.55,0,0,1-1.09,0,.54.54,0,0,1,.55-.55A.52.52,0,0,1,835.6,2484.3Zm-1,6.2v-4.84h.88v4.84Z"/><path class="cls-23" d="M841.12,2485.66c0,.35,0,.74,0,1.33v2.81a2.78,2.78,0,0,1-.69,2.21,2.57,2.57,0,0,1-1.76.58,3.11,3.11,0,0,1-1.6-.4l.22-.67a2.72,2.72,0,0,0,1.41.38c.9,0,1.56-.47,1.56-1.69v-.54h0a1.73,1.73,0,0,1-1.54.81,2.16,2.16,0,0,1-2-2.36,2.32,2.32,0,0,1,2.18-2.57,1.6,1.6,0,0,1,1.5.84h0l0-.73Zm-.91,1.91a1.29,1.29,0,0,0-1.27-1.33c-.84,0-1.44.71-1.44,1.83,0,.95.48,1.74,1.42,1.74a1.29,1.29,0,0,0,1.22-.9,1.53,1.53,0,0,0,.07-.47Z"/><path class="cls-23" d="M842.55,2483.4h.88v3h0a1.57,1.57,0,0,1,.63-.62,1.75,1.75,0,0,1,.89-.25c.65,0,1.69.4,1.69,2.07v2.88h-.88v-2.78c0-.78-.29-1.44-1.12-1.44a1.25,1.25,0,0,0-1.17.88,1.07,1.07,0,0,0-.06.42v2.92h-.88Z"/><path class="cls-23" d="M849.12,2484.27v1.39h1.25v.67h-1.25v2.61c0,.6.17.94.65.94a2,2,0,0,0,.51-.06l0,.66a2.15,2.15,0,0,1-.78.12,1.2,1.2,0,0,1-.94-.37,1.79,1.79,0,0,1-.34-1.26v-2.64h-.75v-.67h.75v-1.16Z"/><path class="cls-23" d="M855.52,2487.47v.65h-2.46v-.65Z"/><path class="cls-23" d="M858.59,2489.44a3.05,3.05,0,0,0,1.56.44c.88,0,1.4-.47,1.4-1.15s-.36-1-1.26-1.34c-1.1-.39-1.78-1-1.78-1.91a1.94,1.94,0,0,1,2.17-1.83,3.06,3.06,0,0,1,1.49.33l-.24.71a2.67,2.67,0,0,0-1.27-.32c-.92,0-1.27.55-1.27,1,0,.63.4.94,1.33,1.3,1.14.44,1.72,1,1.72,2s-.77,1.94-2.36,1.94a3.47,3.47,0,0,1-1.71-.43Z"/><path class="cls-23" d="M864.58,2484.3a.52.52,0,0,1-.55.54.52.52,0,0,1-.53-.54.53.53,0,0,1,.54-.55A.52.52,0,0,1,864.58,2484.3Zm-1,6.2v-4.84h.88v4.84Z"/><path class="cls-23" d="M866,2487c0-.5,0-.91,0-1.31h.77l.06.8h0a1.78,1.78,0,0,1,1.6-.91c.67,0,1.71.4,1.71,2.06v2.89h-.88v-2.79c0-.78-.29-1.43-1.12-1.43a1.26,1.26,0,0,0-1.18.9,1.28,1.28,0,0,0,0,.41v2.91H866Z"/><path class="cls-23" d="M875.66,2485.66c0,.35,0,.74,0,1.33v2.81a2.78,2.78,0,0,1-.69,2.21,2.57,2.57,0,0,1-1.76.58,3.06,3.06,0,0,1-1.6-.4l.22-.67a2.66,2.66,0,0,0,1.41.38c.9,0,1.56-.47,1.56-1.69v-.54h0a1.73,1.73,0,0,1-1.54.81,2.16,2.16,0,0,1-2.05-2.36,2.32,2.32,0,0,1,2.17-2.57,1.61,1.61,0,0,1,1.51.84h0l0-.73Zm-.91,1.91a1.25,1.25,0,0,0,0-.4,1.27,1.27,0,0,0-1.23-.93c-.84,0-1.43.71-1.43,1.83,0,.95.47,1.74,1.42,1.74a1.29,1.29,0,0,0,1.22-.9,1.53,1.53,0,0,0,.07-.47Z"/><path class="cls-23" d="M879.76,2490.5l-.07-.61h0a1.8,1.8,0,0,1-1.48.72,1.38,1.38,0,0,1-1.48-1.39c0-1.17,1-1.81,2.91-1.8v-.1a1,1,0,0,0-1.1-1.12,2.41,2.41,0,0,0-1.26.36l-.2-.58a3,3,0,0,1,1.59-.43c1.48,0,1.84,1,1.84,2v1.81a6.81,6.81,0,0,0,.08,1.16Zm-.13-2.47c-1,0-2,.15-2,1.09a.78.78,0,0,0,.83.84,1.2,1.2,0,0,0,1.17-.81.92.92,0,0,0,0-.28Z"/><path class="cls-23" d="M881.91,2487.24c0-.62,0-1.12,0-1.58h.79l0,.83h0a1.91,1.91,0,0,1,1.72-.94,2.19,2.19,0,0,1,2.05,2.46c0,1.74-1.06,2.6-2.2,2.6a1.7,1.7,0,0,1-1.49-.76h0v2.63h-.87Zm.87,1.29a2,2,0,0,0,0,.36,1.36,1.36,0,0,0,1.32,1c.93,0,1.47-.76,1.47-1.87s-.51-1.8-1.44-1.8a1.4,1.4,0,0,0-1.33,1.09,1.42,1.42,0,0,0-.05.36Z"/><path class="cls-23" d="M892,2488a2.37,2.37,0,0,1-2.41,2.57,2.3,2.3,0,0,1-2.32-2.49,2.36,2.36,0,0,1,2.4-2.57A2.29,2.29,0,0,1,892,2488Zm-3.84.05c0,1.06.61,1.86,1.47,1.86s1.47-.79,1.47-1.88c0-.82-.41-1.86-1.45-1.86S888.13,2487.17,888.13,2488.09Z"/><path class="cls-23" d="M893.08,2487.17c0-.57,0-1.06,0-1.51h.77l0,1h0a1.45,1.45,0,0,1,1.34-1.06,1,1,0,0,1,.25,0v.83a1.32,1.32,0,0,0-.3,0,1.23,1.23,0,0,0-1.18,1.13,2.48,2.48,0,0,0,0,.41v2.58h-.87Z"/><path class="cls-23" d="M896.74,2488.24a1.55,1.55,0,0,0,1.66,1.68,3.18,3.18,0,0,0,1.34-.25l.15.63a3.92,3.92,0,0,1-1.61.3,2.24,2.24,0,0,1-2.37-2.44,2.34,2.34,0,0,1,2.26-2.61,2.05,2.05,0,0,1,2,2.28,3.32,3.32,0,0,1,0,.41Zm2.58-.63a1.25,1.25,0,0,0-1.22-1.43,1.46,1.46,0,0,0-1.35,1.43Z"/><path class="cls-23" d="M908.12,2490.28a4.32,4.32,0,0,1-1.78.32,3.15,3.15,0,0,1-3.33-3.41,3.35,3.35,0,0,1,3.52-3.54,3.61,3.61,0,0,1,1.6.3l-.21.71a3.17,3.17,0,0,0-1.36-.28,2.51,2.51,0,0,0-2.63,2.78,2.45,2.45,0,0,0,2.59,2.71,3.48,3.48,0,0,0,1.42-.28Z"/><path class="cls-23" d="M909.56,2488.24a1.55,1.55,0,0,0,1.66,1.68,3.18,3.18,0,0,0,1.34-.25l.15.63a3.92,3.92,0,0,1-1.61.3,2.25,2.25,0,0,1-2.38-2.44,2.35,2.35,0,0,1,2.27-2.61,2.05,2.05,0,0,1,2,2.28,3.32,3.32,0,0,1,0,.41Zm2.58-.63a1.25,1.25,0,0,0-1.22-1.43,1.46,1.46,0,0,0-1.35,1.43Z"/><path class="cls-23" d="M914.08,2487c0-.5,0-.91,0-1.31h.78l0,.8h0a1.78,1.78,0,0,1,1.6-.91c.67,0,1.71.4,1.71,2.06v2.89h-.88v-2.79c0-.78-.29-1.43-1.12-1.43a1.25,1.25,0,0,0-1.18.9,1.27,1.27,0,0,0-.06.41v2.91h-.88Z"/><path class="cls-23" d="M920.65,2484.27v1.39h1.26v.67h-1.26v2.61c0,.6.17.94.66.94a2,2,0,0,0,.51-.06l0,.66a2.15,2.15,0,0,1-.78.12,1.22,1.22,0,0,1-1-.37,1.79,1.79,0,0,1-.34-1.26v-2.64H919v-.67h.75v-1.16Z"/><path class="cls-23" d="M922.9,2487.17c0-.57,0-1.06,0-1.51h.77l0,1h0a1.45,1.45,0,0,1,1.34-1.06,1,1,0,0,1,.25,0v.83a1.32,1.32,0,0,0-.3,0,1.23,1.23,0,0,0-1.18,1.13,2.48,2.48,0,0,0,0,.41v2.58h-.87Z"/><path class="cls-23" d="M926.56,2488.24a1.55,1.55,0,0,0,1.66,1.68,3.18,3.18,0,0,0,1.34-.25l.15.63a3.92,3.92,0,0,1-1.61.3,2.25,2.25,0,0,1-2.38-2.44,2.35,2.35,0,0,1,2.27-2.61,2.05,2.05,0,0,1,2,2.28,3.32,3.32,0,0,1,0,.41Zm2.58-.63a1.25,1.25,0,0,0-1.22-1.43,1.46,1.46,0,0,0-1.35,1.43Z"/><path class="cls-23" d="M933.23,2483.76h3.63v.73H934.1v2.24h2.55v.72H934.1v3.05h-.87Z"/><path class="cls-23" d="M942.14,2488a2.37,2.37,0,0,1-2.41,2.57,2.3,2.3,0,0,1-2.32-2.49,2.36,2.36,0,0,1,2.4-2.57A2.29,2.29,0,0,1,942.14,2488Zm-3.84.05c0,1.06.61,1.86,1.47,1.86s1.47-.79,1.47-1.88c0-.82-.41-1.86-1.45-1.86S938.3,2487.17,938.3,2488.09Z"/><path class="cls-23" d="M943.25,2487.17c0-.57,0-1.06,0-1.51H944l0,1h0a1.45,1.45,0,0,1,1.34-1.06,1,1,0,0,1,.25,0v.83a1.32,1.32,0,0,0-.3,0,1.23,1.23,0,0,0-1.18,1.13,2.48,2.48,0,0,0,0,.41v2.58h-.87Z"/><path class="cls-23" d="M948.55,2489.44a3.08,3.08,0,0,0,1.56.44c.89,0,1.41-.47,1.41-1.15s-.36-1-1.27-1.34c-1.1-.39-1.78-1-1.78-1.91a1.94,1.94,0,0,1,2.18-1.83,3.06,3.06,0,0,1,1.49.33l-.24.71a2.68,2.68,0,0,0-1.28-.32c-.92,0-1.27.55-1.27,1,0,.63.41.94,1.34,1.3,1.14.44,1.72,1,1.72,2s-.77,1.94-2.36,1.94a3.48,3.48,0,0,1-1.72-.43Z"/><path class="cls-23" d="M958,2488a2.37,2.37,0,0,1-2.41,2.57,2.3,2.3,0,0,1-2.32-2.49,2.36,2.36,0,0,1,2.4-2.57A2.29,2.29,0,0,1,958,2488Zm-3.84.05c0,1.06.61,1.86,1.47,1.86s1.47-.79,1.47-1.88c0-.82-.41-1.86-1.45-1.86S954.17,2487.17,954.17,2488.09Z"/><path class="cls-23" d="M962.57,2490.32a3.24,3.24,0,0,1-1.39.28,2.3,2.3,0,0,1-2.41-2.47,2.46,2.46,0,0,1,2.6-2.57,2.94,2.94,0,0,1,1.22.25l-.2.68a2,2,0,0,0-1-.23,1.82,1.82,0,0,0,0,3.64,2.5,2.5,0,0,0,1.08-.24Z"/><path class="cls-23" d="M964.58,2484.3a.55.55,0,0,1-1.09,0,.54.54,0,0,1,.55-.55A.52.52,0,0,1,964.58,2484.3Zm-1,6.2v-4.84h.88v4.84Z"/><path class="cls-23" d="M968.62,2490.5l-.07-.61h0a1.8,1.8,0,0,1-1.48.72,1.38,1.38,0,0,1-1.48-1.39c0-1.17,1-1.81,2.91-1.8v-.1a1,1,0,0,0-1.1-1.12,2.41,2.41,0,0,0-1.26.36l-.2-.58a3,3,0,0,1,1.59-.43c1.48,0,1.84,1,1.84,2v1.81a6.81,6.81,0,0,0,.08,1.16Zm-.13-2.47c-1,0-2,.15-2,1.09a.78.78,0,0,0,.83.84,1.2,1.2,0,0,0,1.17-.81.92.92,0,0,0,0-.28Z"/><path class="cls-23" d="M970.76,2483.4h.88v7.1h-.88Z"/><path class="cls-23" d="M978.76,2487.34h-2.62v2.43h2.92v.73h-3.79v-6.74h3.64v.73h-2.77v2.13h2.62Z"/><path class="cls-23" d="M980.16,2487c0-.5,0-.91,0-1.31h.78l.05.8h0a1.78,1.78,0,0,1,1.6-.91c.67,0,1.71.4,1.71,2.06v2.89h-.88v-2.79c0-.78-.29-1.43-1.12-1.43a1.25,1.25,0,0,0-1.18.9,1.27,1.27,0,0,0-.06.41v2.91h-.88Z"/><path class="cls-23" d="M986.73,2484.27v1.39H988v.67h-1.26v2.61c0,.6.17.94.66.94a2,2,0,0,0,.51-.06l0,.66a2.15,2.15,0,0,1-.78.12,1.22,1.22,0,0,1-.95-.37,1.79,1.79,0,0,1-.34-1.26v-2.64h-.75v-.67h.75v-1.16Z"/><path class="cls-23" d="M989.41,2488.24a1.55,1.55,0,0,0,1.66,1.68,3.18,3.18,0,0,0,1.34-.25l.15.63a3.92,3.92,0,0,1-1.61.3,2.25,2.25,0,0,1-2.38-2.44,2.35,2.35,0,0,1,2.27-2.61,2.05,2.05,0,0,1,2,2.28,3.32,3.32,0,0,1,0,.41Zm2.58-.63a1.25,1.25,0,0,0-1.22-1.43,1.46,1.46,0,0,0-1.35,1.43Z"/><path class="cls-23" d="M993.93,2487.17c0-.57,0-1.06,0-1.51h.77l0,1h0a1.45,1.45,0,0,1,1.34-1.06,1,1,0,0,1,.25,0v.83a1.32,1.32,0,0,0-.3,0,1.23,1.23,0,0,0-1.18,1.13,2.48,2.48,0,0,0,0,.41v2.58h-.87Z"/><path class="cls-23" d="M997.24,2487.24c0-.62,0-1.12,0-1.58H998l0,.83h0a1.9,1.9,0,0,1,1.72-.94,2.19,2.19,0,0,1,2.05,2.46c0,1.74-1.06,2.6-2.2,2.6a1.7,1.7,0,0,1-1.49-.76h0v2.63h-.87Zm.87,1.29a2,2,0,0,0,0,.36,1.36,1.36,0,0,0,1.32,1c.93,0,1.47-.76,1.47-1.87s-.51-1.8-1.44-1.8a1.4,1.4,0,0,0-1.33,1.09,1.43,1.43,0,0,0-.06.36Z"/><path class="cls-23" d="M1002.93,2487.17c0-.57,0-1.06,0-1.51h.77l0,1h0a1.45,1.45,0,0,1,1.34-1.06,1,1,0,0,1,.25,0v.83a1.32,1.32,0,0,0-.3,0,1.23,1.23,0,0,0-1.18,1.13,2.48,2.48,0,0,0,0,.41v2.58h-.87Z"/><path class="cls-23" d="M1007.22,2484.3a.55.55,0,0,1-1.09,0,.54.54,0,0,1,.55-.55A.52.52,0,0,1,1007.22,2484.3Zm-1,6.2v-4.84h.88v4.84Z"/><path class="cls-23" d="M1008.46,2489.6a2.31,2.31,0,0,0,1.16.35c.64,0,.94-.32.94-.72s-.25-.65-.9-.89c-.87-.31-1.28-.79-1.28-1.37a1.49,1.49,0,0,1,1.67-1.42,2.42,2.42,0,0,1,1.19.3l-.22.64a1.88,1.88,0,0,0-1-.28c-.52,0-.81.3-.81.66s.29.58.92.82c.84.32,1.27.74,1.27,1.46s-.66,1.45-1.81,1.45a2.76,2.76,0,0,1-1.36-.33Z"/><path class="cls-23" d="M1013,2488.24a1.55,1.55,0,0,0,1.66,1.68,3.18,3.18,0,0,0,1.34-.25l.15.63a3.92,3.92,0,0,1-1.61.3,2.25,2.25,0,0,1-2.38-2.44,2.35,2.35,0,0,1,2.27-2.61,2.05,2.05,0,0,1,2,2.28,3.32,3.32,0,0,1,0,.41Zm2.58-.63a1.25,1.25,0,0,0-1.22-1.43,1.46,1.46,0,0,0-1.35,1.43Z"/><path class="cls-23" d="M1021.58,2483.56a6.59,6.59,0,0,0-1.26,4.09,6.74,6.74,0,0,0,1.26,4.06h-.69a6.46,6.46,0,0,1-1.31-4.06,6.6,6.6,0,0,1,1.31-4.09Z"/><path class="cls-23" d="M1022.51,2487.17c0-.57,0-1.06,0-1.51h.77l0,1h0a1.45,1.45,0,0,1,1.34-1.06,1,1,0,0,1,.25,0v.83a1.32,1.32,0,0,0-.3,0,1.23,1.23,0,0,0-1.18,1.13,2.48,2.48,0,0,0,0,.41v2.58h-.87Z"/><path class="cls-23" d="M1028.41,2490.5l-.07-.61h0a1.8,1.8,0,0,1-1.48.72,1.38,1.38,0,0,1-1.48-1.39c0-1.17,1-1.81,2.91-1.8v-.1a1,1,0,0,0-1.1-1.12,2.41,2.41,0,0,0-1.26.36l-.2-.58a3,3,0,0,1,1.59-.43c1.48,0,1.84,1,1.84,2v1.81a6.81,6.81,0,0,0,.08,1.16Zm-.13-2.47c-1,0-2,.15-2,1.09a.78.78,0,0,0,.83.84,1.2,1.2,0,0,0,1.17-.81.92.92,0,0,0,0-.28Z"/><path class="cls-23" d="M1031.53,2484.3a.55.55,0,0,1-1.09,0,.54.54,0,0,1,.55-.55A.52.52,0,0,1,1031.53,2484.3Zm-1,6.2v-4.84h.88v4.84Z"/><path class="cls-23" d="M1032.8,2489.44a3.08,3.08,0,0,0,1.56.44c.89,0,1.41-.47,1.41-1.15s-.36-1-1.27-1.34c-1.1-.39-1.78-1-1.78-1.91a1.94,1.94,0,0,1,2.18-1.83,3.06,3.06,0,0,1,1.49.33l-.24.71a2.68,2.68,0,0,0-1.28-.32c-.92,0-1.27.55-1.27,1,0,.63.41.94,1.34,1.3,1.14.44,1.72,1,1.72,2s-.77,1.94-2.36,1.94a3.48,3.48,0,0,1-1.72-.43Z"/><path class="cls-23" d="M1041.34,2487.34h-2.62v2.43h2.92v.73h-3.79v-6.74h3.64v.73h-2.77v2.13h2.62Z"/><path class="cls-23" d="M1042.21,2491.71a6.77,6.77,0,0,0,1.26-4.09,6.63,6.63,0,0,0-1.26-4.06h.68a6.37,6.37,0,0,1,1.31,4.07,6.49,6.49,0,0,1-1.31,4.08Z"/><path class="cls-23" d="M1049.74,2487.47v.65h-2.47v-.65Z"/><path class="cls-23" d="M1054,2488.38l-.7,2.12h-.9l2.29-6.74h1l2.3,6.74h-.93l-.72-2.12Zm2.21-.68-.66-1.94c-.15-.44-.25-.84-.35-1.23h0c-.1.4-.21.81-.34,1.22l-.66,1.95Z"/><path class="cls-23" d="M1059,2483.4h.88v7.1H1059Z"/><path class="cls-23" d="M1061.34,2483.4h.88v7.1h-.88Z"/><path class="cls-23" d="M1065.85,2483.85a9.06,9.06,0,0,1,1.67-.14,2.76,2.76,0,0,1,2,.55,1.68,1.68,0,0,1,.53,1.28,1.77,1.77,0,0,1-1.27,1.72v0a1.68,1.68,0,0,1,1,1.36,10.73,10.73,0,0,0,.52,1.85h-.9a8.73,8.73,0,0,1-.45-1.61c-.2-.93-.56-1.28-1.35-1.31h-.82v2.92h-.87Zm.87,3.07h.89c.93,0,1.52-.51,1.52-1.28s-.63-1.25-1.55-1.26a3.58,3.58,0,0,0-.86.08Z"/><path class="cls-23" d="M1072.28,2484.3a.55.55,0,0,1-1.09,0,.54.54,0,0,1,.55-.55A.52.52,0,0,1,1072.28,2484.3Zm-1,6.2v-4.84h.88v4.84Z"/><path class="cls-23" d="M1077.81,2485.66c0,.35,0,.74,0,1.33v2.81a2.78,2.78,0,0,1-.69,2.21,2.57,2.57,0,0,1-1.76.58,3.12,3.12,0,0,1-1.61-.4l.22-.67a2.73,2.73,0,0,0,1.42.38c.9,0,1.56-.47,1.56-1.69v-.54h0a1.73,1.73,0,0,1-1.54.81,2.16,2.16,0,0,1-2.06-2.36,2.32,2.32,0,0,1,2.18-2.57,1.61,1.61,0,0,1,1.51.84h0l0-.73Zm-.91,1.91a1.25,1.25,0,0,0-.05-.4,1.27,1.27,0,0,0-1.23-.93c-.84,0-1.44.71-1.44,1.83,0,.95.48,1.74,1.43,1.74a1.29,1.29,0,0,0,1.22-.9,1.53,1.53,0,0,0,.07-.47Z"/><path class="cls-23" d="M1079.23,2483.4h.88v3h0a1.63,1.63,0,0,1,.63-.62,1.81,1.81,0,0,1,.9-.25c.65,0,1.69.4,1.69,2.07v2.88h-.88v-2.78c0-.78-.29-1.44-1.12-1.44a1.26,1.26,0,0,0-1.18.88,1.07,1.07,0,0,0-.06.42v2.92h-.88Z"/><path class="cls-23" d="M1085.8,2484.27v1.39h1.26v.67h-1.26v2.61c0,.6.17.94.66.94a2,2,0,0,0,.51-.06l0,.66a2.15,2.15,0,0,1-.78.12,1.22,1.22,0,0,1-1-.37,1.79,1.79,0,0,1-.34-1.26v-2.64h-.75v-.67h.75v-1.16Z"/><path class="cls-23" d="M1087.93,2489.6a2.31,2.31,0,0,0,1.16.35c.64,0,.94-.32.94-.72s-.25-.65-.9-.89c-.87-.31-1.28-.79-1.28-1.37a1.49,1.49,0,0,1,1.67-1.42,2.42,2.42,0,0,1,1.19.3l-.22.64a1.88,1.88,0,0,0-1-.28c-.52,0-.81.3-.81.66s.29.58.92.82c.84.32,1.27.74,1.27,1.46s-.66,1.45-1.81,1.45a2.76,2.76,0,0,1-1.36-.33Z"/><path class="cls-23" d="M1094.16,2483.85a9.06,9.06,0,0,1,1.67-.14,2.76,2.76,0,0,1,2,.55,1.68,1.68,0,0,1,.53,1.28,1.77,1.77,0,0,1-1.27,1.72v0a1.68,1.68,0,0,1,1,1.36,10.73,10.73,0,0,0,.52,1.85h-.9a8.73,8.73,0,0,1-.45-1.61c-.2-.93-.56-1.28-1.35-1.31H1095v2.92h-.87Zm.87,3.07h.89c.93,0,1.52-.51,1.52-1.28s-.63-1.25-1.55-1.26a3.58,3.58,0,0,0-.86.08Z"/><path class="cls-23" d="M1100,2488.24a1.55,1.55,0,0,0,1.66,1.68,3.18,3.18,0,0,0,1.34-.25l.15.63a3.92,3.92,0,0,1-1.61.3,2.25,2.25,0,0,1-2.38-2.44,2.35,2.35,0,0,1,2.27-2.61,2.05,2.05,0,0,1,2,2.28,3.32,3.32,0,0,1,0,.41Zm2.58-.63a1.25,1.25,0,0,0-1.22-1.43,1.46,1.46,0,0,0-1.35,1.43Z"/><path class="cls-23" d="M1104.44,2489.6a2.31,2.31,0,0,0,1.16.35c.64,0,.94-.32.94-.72s-.25-.65-.9-.89c-.87-.31-1.28-.79-1.28-1.37a1.49,1.49,0,0,1,1.67-1.42,2.42,2.42,0,0,1,1.19.3l-.22.64a1.88,1.88,0,0,0-1-.28c-.52,0-.81.3-.81.66s.29.58.92.82c.84.32,1.27.74,1.27,1.46s-.66,1.45-1.81,1.45a2.76,2.76,0,0,1-1.36-.33Z"/><path class="cls-23" d="M1109,2488.24a1.55,1.55,0,0,0,1.66,1.68,3.18,3.18,0,0,0,1.34-.25l.15.63a3.92,3.92,0,0,1-1.61.3,2.25,2.25,0,0,1-2.38-2.44,2.35,2.35,0,0,1,2.27-2.61,2.05,2.05,0,0,1,2,2.28,3.32,3.32,0,0,1,0,.41Zm2.58-.63a1.25,1.25,0,0,0-1.22-1.43,1.46,1.46,0,0,0-1.35,1.43Z"/><path class="cls-23" d="M1113.53,2487.17c0-.57,0-1.06,0-1.51h.77l0,1h0a1.45,1.45,0,0,1,1.34-1.06,1,1,0,0,1,.25,0v.83a1.32,1.32,0,0,0-.3,0,1.23,1.23,0,0,0-1.18,1.13,2.48,2.48,0,0,0,0,.41v2.58h-.87Z"/><path class="cls-23" d="M1117.39,2485.66l.95,2.72a12.45,12.45,0,0,1,.39,1.24h0c.11-.4.25-.8.41-1.24l.94-2.72h.92l-1.9,4.84h-.84l-1.84-4.84Z"/><path class="cls-23" d="M1122.25,2488.24a1.55,1.55,0,0,0,1.66,1.68,3.18,3.18,0,0,0,1.34-.25l.15.63a3.92,3.92,0,0,1-1.61.3,2.25,2.25,0,0,1-2.38-2.44,2.35,2.35,0,0,1,2.27-2.61,2.05,2.05,0,0,1,2,2.28,3.32,3.32,0,0,1,0,.41Zm2.58-.63a1.25,1.25,0,0,0-1.22-1.43,1.46,1.46,0,0,0-1.35,1.43Z"/><path class="cls-23" d="M1131,2483.4v5.85c0,.43,0,.92,0,1.25h-.79l0-.84h0a1.79,1.79,0,0,1-1.65,1,2.21,2.21,0,0,1-2.07-2.46,2.32,2.32,0,0,1,2.17-2.6,1.62,1.62,0,0,1,1.46.74h0v-2.89Zm-.88,4.23a1.55,1.55,0,0,0,0-.37,1.29,1.29,0,0,0-1.27-1c-.91,0-1.45.8-1.45,1.87s.48,1.79,1.43,1.79a1.32,1.32,0,0,0,1.29-1.05,1.53,1.53,0,0,0,0-.38Z"/></g></svg>