<svg width="398" height="475" viewBox="0 0 398 475" fill="none" xmlns="http://www.w3.org/2000/svg">
<path d="M27.9541 0.598755L397.6 441.87L397.303 0.798335L27.9541 0.598755Z" fill="#FFF6DE"/>
<path d="M192.01 196.486L205.788 212.952L386 0H358.443L192.01 196.486Z" fill="#3399FF"/>
<path d="M397.501 388.183L363.5 348.267L348.829 365.83L397.501 422.909V388.183Z" fill="#3399FF"/>
<path d="M74.2464 55.8823L121.035 0H93.4771L60.4677 39.417L27.4583 0H0L397.501 474.9V441.87L379.361 420.215L397.501 398.561V365.63L365.582 403.75L341.692 375.21L397.501 308.45V275.52L327.913 358.745L74.2464 55.8823Z" fill="#FF6633"/>
<path d="M133.26 28.6885V18.1754H134.839C135.543 18.1754 136.104 18.2299 136.521 18.3388C136.943 18.4478 137.3 18.6316 137.59 18.8904C137.885 19.1582 138.119 19.4918 138.292 19.8913C138.469 20.2953 138.557 20.7038 138.557 21.1169C138.557 21.8704 138.269 22.5082 137.692 23.0302C138.251 23.2209 138.691 23.5545 139.013 24.0312C139.34 24.5032 139.504 25.0525 139.504 25.6789C139.504 26.5005 139.213 27.1951 138.632 27.7625C138.283 28.112 137.89 28.3549 137.454 28.491C136.977 28.6227 136.381 28.6885 135.663 28.6885H133.26ZM134.846 22.6898H135.343C135.933 22.6898 136.365 22.5604 136.637 22.3017C136.914 22.0384 137.052 21.6526 137.052 21.1441C137.052 20.6494 136.912 20.2749 136.63 20.0207C136.349 19.7619 135.94 19.6326 135.405 19.6326H134.846V22.6898ZM134.846 27.1973H135.827C136.544 27.1973 137.071 27.0566 137.406 26.7752C137.761 26.471 137.938 26.0852 137.938 25.6177C137.938 25.1637 137.767 24.7824 137.427 24.4737C137.095 24.1696 136.503 24.0175 135.65 24.0175H134.846V27.1973Z" fill="#332083"/>
<path d="M145.073 24.2082L148.328 28.6885H146.387L143.385 24.3852H143.099V28.6885H141.512V18.1754H143.371C144.76 18.1754 145.763 18.4364 146.381 18.9585C147.062 19.5395 147.402 20.3066 147.402 21.2599C147.402 22.0043 147.189 22.6444 146.762 23.18C146.335 23.7157 145.772 24.0584 145.073 24.2082ZM143.099 23.003H143.603C145.105 23.003 145.856 22.4288 145.856 21.2803C145.856 20.2045 145.126 19.6666 143.664 19.6666H143.099V23.003Z" fill="#332083"/>
<path d="M149.145 23.3843C149.145 21.9045 149.688 20.6335 150.772 19.5713C151.853 18.5091 153.151 17.978 154.667 17.978C156.165 17.978 157.45 18.5136 158.521 19.5849C159.597 20.6562 160.135 21.9431 160.135 23.4456C160.135 24.9572 159.595 26.2395 158.514 27.2927C157.429 28.3503 156.12 28.8792 154.586 28.8792C153.228 28.8792 152.009 28.4093 150.929 27.4697C149.74 26.4302 149.145 25.0684 149.145 23.3843ZM150.745 23.4047C150.745 24.5668 151.136 25.5223 151.916 26.2713C152.693 27.0203 153.589 27.3948 154.606 27.3948C155.709 27.3948 156.64 27.0135 157.398 26.2509C158.156 25.4792 158.535 24.5396 158.535 23.432C158.535 22.3108 158.16 21.3711 157.411 20.613C156.667 19.8504 155.745 19.4691 154.647 19.4691C153.553 19.4691 152.629 19.8504 151.876 20.613C151.122 21.3666 150.745 22.2971 150.745 23.4047Z" fill="#332083"/>
<path d="M163.716 18.1754V24.5078C163.716 25.4111 163.864 26.0716 164.159 26.4892C164.599 27.0929 165.219 27.3948 166.018 27.3948C166.821 27.3948 167.443 27.0929 167.883 26.4892C168.179 26.0852 168.326 25.4247 168.326 24.5078V18.1754H169.913V24.9436C169.913 26.0512 169.568 26.9636 168.878 27.6808C168.101 28.4797 167.148 28.8792 166.018 28.8792C164.888 28.8792 163.937 28.4797 163.165 27.6808C162.475 26.9636 162.13 26.0512 162.13 24.9436V18.1754H163.716Z" fill="#332083"/>
<path d="M177.845 23.2141H182.189V23.5613C182.189 24.3512 182.096 25.0502 181.91 25.6585C181.728 26.2214 181.422 26.7479 180.991 27.2382C180.015 28.3367 178.773 28.886 177.266 28.886C175.795 28.886 174.536 28.3549 173.487 27.2927C172.439 26.2259 171.914 24.9458 171.914 23.4524C171.914 21.9272 172.448 20.6335 173.514 19.5713C174.581 18.5045 175.879 17.9712 177.409 17.9712C178.231 17.9712 178.998 18.1391 179.711 18.475C180.392 18.8109 181.061 19.3557 181.719 20.1092L180.589 21.1918C179.727 20.0434 178.676 19.4691 177.436 19.4691C176.324 19.4691 175.391 19.8527 174.638 20.6199C173.884 21.3734 173.508 22.3176 173.508 23.4524C173.508 24.6235 173.928 25.5881 174.767 26.3462C175.553 27.0498 176.404 27.4016 177.321 27.4016C178.101 27.4016 178.803 27.1383 179.425 26.6118C180.047 26.0807 180.394 25.4452 180.466 24.7052H177.845V23.2141Z" fill="#332083"/>
<path d="M185.777 22.2881H190.312V18.1754H191.899V28.6885H190.312V23.7792H185.777V28.6885H184.191V18.1754H185.777V22.2881Z" fill="#332083"/>
<path d="M197.319 19.6666V28.6885H195.732V19.6666H193.315V18.1754H199.729V19.6666H197.319Z" fill="#332083"/>
<path d="M208.349 19.6666V28.6885H206.763V19.6666H204.346V18.1754H210.76V19.6666H208.349Z" fill="#332083"/>
<path d="M211.311 23.3843C211.311 21.9045 211.854 20.6335 212.939 19.5713C214.019 18.5091 215.317 17.978 216.833 17.978C218.331 17.978 219.616 18.5136 220.687 19.5849C221.763 20.6562 222.301 21.9431 222.301 23.4456C222.301 24.9572 221.761 26.2395 220.68 27.2927C219.595 28.3503 218.286 28.8792 216.752 28.8792C215.394 28.8792 214.175 28.4093 213.095 27.4697C211.906 26.4302 211.311 25.0684 211.311 23.3843ZM212.911 23.4047C212.911 24.5668 213.302 25.5223 214.082 26.2713C214.859 27.0203 215.755 27.3948 216.772 27.3948C217.875 27.3948 218.806 27.0135 219.564 26.2509C220.322 25.4792 220.701 24.5396 220.701 23.432C220.701 22.3108 220.326 21.3711 219.577 20.613C218.833 19.8504 217.911 19.4691 216.813 19.4691C215.719 19.4691 214.795 19.8504 214.042 20.613C213.288 21.3666 212.911 22.2971 212.911 23.4047Z" fill="#332083"/>
<path d="M230.724 24.1469L227.292 18.1754H229.117L231.52 22.3766L233.931 18.1754H235.755L232.31 24.1469V28.6885H230.724V24.1469Z" fill="#332083"/>
<path d="M235.919 23.3843C235.919 21.9045 236.461 20.6335 237.546 19.5713C238.627 18.5091 239.925 17.978 241.441 17.978C242.939 17.978 244.224 18.5136 245.295 19.5849C246.371 20.6562 246.909 21.9431 246.909 23.4456C246.909 24.9572 246.368 26.2395 245.288 27.2927C244.203 28.3503 242.893 28.8792 241.359 28.8792C240.002 28.8792 238.783 28.4093 237.703 27.4697C236.513 26.4302 235.919 25.0684 235.919 23.3843ZM237.519 23.4047C237.519 24.5668 237.909 25.5223 238.69 26.2713C239.466 27.0203 240.363 27.3948 241.38 27.3948C242.483 27.3948 243.413 27.0135 244.171 26.2509C244.929 25.4792 245.308 24.5396 245.308 23.432C245.308 22.3108 244.934 21.3711 244.185 20.613C243.44 19.8504 242.519 19.4691 241.42 19.4691C240.327 19.4691 239.403 19.8504 238.649 20.613C237.896 21.3666 237.519 22.2971 237.519 23.4047Z" fill="#332083"/>
<path d="M250.49 18.1754V24.5078C250.49 25.4111 250.638 26.0716 250.933 26.4892C251.373 27.0929 251.993 27.3948 252.791 27.3948C253.595 27.3948 254.217 27.0929 254.657 26.4892C254.952 26.0852 255.1 25.4247 255.1 24.5078V18.1754H256.686V24.9436C256.686 26.0512 256.341 26.9636 255.651 27.6808C254.875 28.4797 253.922 28.8792 252.791 28.8792C251.661 28.8792 250.71 28.4797 249.939 27.6808C249.249 26.9636 248.904 26.0512 248.904 24.9436V18.1754H250.49Z" fill="#332083"/>
<path d="M263.516 28.6885V18.1754H265.095C265.799 18.1754 266.36 18.2299 266.777 18.3388C267.199 18.4478 267.556 18.6316 267.846 18.8904C268.141 19.1582 268.375 19.4918 268.547 19.8913C268.725 20.2953 268.813 20.7038 268.813 21.1169C268.813 21.8704 268.525 22.5082 267.948 23.0302C268.507 23.2209 268.947 23.5545 269.269 24.0312C269.596 24.5032 269.759 25.0525 269.759 25.6789C269.759 26.5005 269.469 27.1951 268.888 27.7625C268.538 28.112 268.146 28.3549 267.71 28.491C267.233 28.6227 266.636 28.6885 265.919 28.6885H263.516ZM265.102 22.6898H265.599C266.189 22.6898 266.621 22.5604 266.893 22.3017C267.17 22.0384 267.308 21.6526 267.308 21.1441C267.308 20.6494 267.168 20.2749 266.886 20.0207C266.605 19.7619 266.196 19.6326 265.66 19.6326H265.102V22.6898ZM265.102 27.1973H266.083C266.8 27.1973 267.326 27.0566 267.662 26.7752C268.016 26.471 268.193 26.0852 268.193 25.6177C268.193 25.1637 268.023 24.7824 267.683 24.4737C267.351 24.1696 266.759 24.0175 265.906 24.0175H265.102V27.1973Z" fill="#332083"/>
<path d="M273.361 24.1469L269.93 18.1754H271.755L274.158 22.3766L276.568 18.1754H278.393L274.948 24.1469V28.6885H273.361V24.1469Z" fill="#332083"/>
<path d="M272.666 154.487V165H271.08V154.487H272.666Z" fill="#332083"/>
<path d="M275.192 165V153.772L282.859 161.793V154.487H284.446V165.64L276.779 157.639V165H275.192Z" fill="#332083"/>
<path d="M292.862 160.731V165H291.275V154.487H293.073C293.953 154.487 294.618 154.548 295.068 154.671C295.522 154.793 295.921 155.025 296.266 155.365C296.87 155.955 297.172 156.7 297.172 157.599C297.172 158.561 296.849 159.324 296.205 159.886C295.56 160.449 294.691 160.731 293.597 160.731H292.862ZM292.862 159.26H293.454C294.911 159.26 295.64 158.699 295.64 157.578C295.64 156.493 294.888 155.951 293.386 155.951H292.862V159.26Z" fill="#332083"/>
<path d="M304.205 162.447H299.705L298.533 165H296.824L302.026 153.826L307.045 165H305.308L304.205 162.447ZM303.558 160.955L301.999 157.381L300.365 160.955H303.558Z" fill="#332083"/>
<path d="M311.927 160.52L315.181 165H313.241L310.238 160.697H309.952V165H308.366V154.487H310.224C311.613 154.487 312.617 154.748 313.234 155.27C313.915 155.851 314.255 156.618 314.255 157.571C314.255 158.316 314.042 158.956 313.615 159.492C313.189 160.027 312.626 160.37 311.927 160.52ZM309.952 159.315H310.456C311.958 159.315 312.71 158.74 312.71 157.592C312.71 156.516 311.979 155.978 310.517 155.978H309.952V159.315Z" fill="#332083"/>
<path d="M319.546 155.978V165H317.959V155.978H315.542V154.487H321.956V155.978H319.546Z" fill="#332083"/>
<path d="M323.373 165V153.772L331.04 161.793V154.487H332.626V165.64L324.959 157.639V165H323.373Z" fill="#332083"/>
<path d="M340.953 155.978H336.739V158.504H340.831V159.995H336.739V163.509H340.953V165H335.152V154.487H340.953V155.978Z" fill="#332083"/>
<path d="M346.598 160.52L349.853 165H347.912L344.909 160.697H344.623V165H343.037V154.487H344.896C346.285 154.487 347.288 154.748 347.905 155.27C348.586 155.851 348.927 156.618 348.927 157.571C348.927 158.316 348.713 158.956 348.287 159.492C347.86 160.027 347.297 160.37 346.598 160.52ZM344.623 159.315H345.127C346.63 159.315 347.381 158.74 347.381 157.592C347.381 156.516 346.65 155.978 345.189 155.978H344.623V159.315Z" fill="#332083"/>
<path d="M357.383 156.053L356.097 156.816C355.856 156.398 355.627 156.126 355.409 155.999C355.182 155.853 354.889 155.781 354.531 155.781C354.09 155.781 353.725 155.905 353.434 156.155C353.144 156.4 352.998 156.709 352.998 157.081C352.998 157.594 353.38 158.007 354.142 158.32L355.191 158.749C356.044 159.094 356.669 159.517 357.063 160.016C357.458 160.511 357.656 161.119 357.656 161.841C357.656 162.808 357.334 163.606 356.689 164.237C356.04 164.873 355.234 165.191 354.272 165.191C353.359 165.191 352.606 164.921 352.011 164.38C351.426 163.84 351.06 163.08 350.915 162.099L352.522 161.745C352.594 162.363 352.722 162.789 352.903 163.025C353.23 163.479 353.707 163.706 354.333 163.706C354.828 163.706 355.239 163.541 355.565 163.209C355.892 162.878 356.056 162.458 356.056 161.95C356.056 161.745 356.026 161.559 355.967 161.391C355.913 161.219 355.824 161.062 355.702 160.921C355.584 160.776 355.429 160.642 355.239 160.52C355.048 160.393 354.821 160.272 354.558 160.159L353.543 159.737C352.104 159.128 351.385 158.239 351.385 157.068C351.385 156.278 351.687 155.617 352.29 155.086C352.894 154.55 353.645 154.283 354.544 154.283C355.756 154.283 356.703 154.873 357.383 156.053Z" fill="#332083"/>
<path d="M361.156 158.6H365.69V154.487H367.277V165H365.69V160.091H361.156V165H359.569V154.487H361.156V158.6Z" fill="#332083"/>
<path d="M371.383 154.487V165H369.796V154.487H371.383Z" fill="#332083"/>
<path d="M375.495 160.731V165H373.909V154.487H375.706C376.587 154.487 377.252 154.548 377.701 154.671C378.155 154.793 378.555 155.025 378.9 155.365C379.504 155.955 379.805 156.7 379.805 157.599C379.805 158.561 379.483 159.324 378.839 159.886C378.194 160.449 377.325 160.731 376.231 160.731H375.495ZM375.495 159.26H376.088C377.545 159.26 378.273 158.699 378.273 157.578C378.273 156.493 377.522 155.951 376.02 155.951H375.495V159.26Z" fill="#332083"/>
<path d="M308.849 173.487L311.586 180.514L314.446 172.976L317.183 180.514L320.091 173.487H321.813L317.115 184.667L314.412 177.218L311.593 184.674L307.126 173.487H308.849Z" fill="#332083"/>
<path d="M324.707 173.487V184H323.121V173.487H324.707Z" fill="#332083"/>
<path d="M330.134 174.978V184H328.547V174.978H326.13V173.487H332.544V174.978H330.134Z" fill="#332083"/>
<path d="M335.547 177.6H340.082V173.487H341.668V184H340.082V179.091H335.547V184H333.961V173.487H335.547V177.6Z" fill="#332083"/>
</svg>
