<?xml version="1.0" encoding="utf-8"?>
<!-- Generator: Adobe Illustrator 24.2.3, SVG Export Plug-In . SVG Version: 6.00 Build 0)  -->
<svg version="1.1" id="Layer_1" xmlns="http://www.w3.org/2000/svg" xmlns:xlink="http://www.w3.org/1999/xlink" x="0px" y="0px"
	 viewBox="0 0 1892 1107.2" style="enable-background:new 0 0 1892 1107.2;" xml:space="preserve">
<style type="text/css">
	.st0{fill:#FFF6DE;}
	.st1{fill:none;}
	.st2{fill:#3399FF;}
	.st3{fill:#FF6633;}
</style>
<rect id="Background" y="0" class="st0" width="1892" height="1107.2"/>
<rect x="263" y="0" class="st1" width="1367.3" height="800.5"/>
<polygon class="st1" points="922.5,-21.5 892.4,13.5 922,48.5 952,13.5 "/>
<polygon class="st2" points="903.3,73.8 943.2,73.8 922,48.5 892.4,13.5 892.2,13.8 880.6,0 841.1,0 "/>
<polygon class="st2" points="943.2,73.8 943.2,73.8 943.2,73.8 "/>
<polygon class="st3" points="892.4,13.5 904,0 881.1,0 "/>
<polygon class="st3" points="892.2,13.8 892.4,13.5 881.1,0 880.6,0 "/>
<polygon class="st3" points="963.8,0 952.3,13.8 952,13.5 922,48.5 943.2,73.8 1006.6,0 "/>
<polygon class="st3" points="922,48.5 922,48.5 943.2,73.8 943.2,73.8 "/>
<polygon class="st2" points="952,13.5 963.6,0 940.7,0 "/>
<polygon class="st2" points="963.6,0 952,13.5 952.3,13.8 963.8,0 "/>
<polygon class="st1" points="330.2,828 440,828 386.2,764.2 "/>
<polygon class="st2" points="296.2,609.7 275,584.4 274.9,584.5 296.2,609.7 "/>
<polygon class="st2" points="0,939.3 275.8,633 254.5,607.7 0,889.8 "/>
<polygon class="st3" points="450.5,0 112.6,396.3 0,265.6 0,311.7 92.8,419.5 0,528.4 0,578.5 114.3,444.4 229.2,577.8 254.5,607.7 
	275.8,633 364.9,738.9 365,738.8 386.2,764.1 386.2,764.2 676.3,1107.3 716.7,1107.3 296.2,609.7 274.9,584.5 134.1,421.2 493.3,0 
	"/>
<polygon class="st2" points="1892,306.6 1892,256.7 1158.8,1107.3 1201.8,1107.3 "/>
<polygon class="st2" points="33.9,1107.3 77.6,1107.3 386.2,764.2 364.9,738.9 "/>
<polygon class="st2" points="386.2,764.1 365,738.8 364.9,738.9 386.2,764.2 "/>
</svg>
