<svg width="99" height="73" viewBox="0 0 99 73" fill="none" xmlns="http://www.w3.org/2000/svg">
<path d="M5.48234 20.4491C5.99941 17.9433 6.83469 16.1136 7.98816 14.9601C9.14164 13.8067 10.4741 13.2299 11.9856 13.2299C12.3038 13.2299 12.5424 13.2498 12.7015 13.2896L12.4629 18.5996C12.3038 18.5598 12.1447 18.5399 11.9856 18.5399C11.8265 18.5001 11.6475 18.4802 11.4486 18.4802C10.494 18.4802 9.63883 18.7984 8.8831 19.4348C8.16715 20.0315 7.55064 20.827 7.03356 21.8213C6.55626 22.8157 6.1784 23.9493 5.89997 25.2221C5.66132 26.4551 5.542 27.7279 5.542 29.0405V44.1948H0.411014V21.8213C0.411014 20.6281 0.391126 19.3553 0.351351 18.0029C0.311576 16.6108 0.251914 15.3579 0.172363 14.2442H5.00503C5.12436 15.2386 5.20391 16.2727 5.24368 17.3466C5.32323 18.4206 5.36301 19.4547 5.36301 20.4491H5.48234Z" fill="#404041"/>
<path d="M29.8244 44.1948C29.6653 43.28 29.546 42.3652 29.4665 41.4503C29.3869 40.5355 29.3471 39.7997 29.3471 39.2428H29.2278C28.7903 41.0327 27.9948 42.4447 26.8413 43.4789C25.7276 44.4732 24.1764 44.9704 22.1876 44.9704C21.3523 44.9704 20.4972 44.8113 19.6221 44.4931C18.7471 44.1749 17.9516 43.6578 17.2356 42.9419C16.5594 42.2259 15.9827 41.3111 15.5054 40.1974C15.0679 39.0837 14.8491 37.7115 14.8491 36.0807C14.8491 33.9328 15.227 32.1827 15.9827 30.8304C16.7782 29.4383 17.7527 28.3643 18.9062 27.6086C20.0994 26.8131 21.412 26.2761 22.8439 25.9977C24.2758 25.7193 25.6481 25.5801 26.9606 25.5801H28.9295V24.2675C28.9295 21.9208 28.4721 20.2303 27.5573 19.1962C26.6822 18.1223 25.489 17.5853 23.9775 17.5853C22.8638 17.5853 21.8296 17.8637 20.875 18.4206C19.9204 18.9774 19.1051 19.7133 18.4289 20.6281L15.8634 17.466C16.8578 16.1136 18.1505 15.0795 19.7415 14.3635C21.3325 13.6078 22.9036 13.2299 24.4548 13.2299C26.1651 13.2299 27.597 13.5083 28.7505 14.0652C29.9438 14.622 30.8984 15.4374 31.6143 16.5114C32.3303 17.5853 32.8275 18.9178 33.1059 20.5088C33.4241 22.06 33.5832 23.83 33.5832 25.8187V37.9302C33.5832 38.9644 33.623 40.098 33.7025 41.331C33.7821 42.5243 33.8815 43.4789 34.0008 44.1948H29.8244ZM29.0488 29.4581H26.8413C25.9265 29.4581 25.0315 29.5377 24.1565 29.6968C23.3212 29.8559 22.5655 30.1741 21.8893 30.6514C21.2131 31.0889 20.6563 31.7054 20.2188 32.5009C19.821 33.2964 19.6221 34.3107 19.6221 35.5437C19.6221 37.3734 20.0199 38.7257 20.8154 39.6008C21.6109 40.4361 22.5257 40.8537 23.5599 40.8537C24.594 40.8537 25.4492 40.5554 26.1254 39.9588C26.8413 39.3224 27.418 38.5269 27.8556 37.5723C28.2931 36.6177 28.5914 35.5835 28.7505 34.4698C28.9494 33.3163 29.0488 32.2225 29.0488 31.1884V29.4581Z" fill="#404041"/>
<path d="M45.0401 5.35447C45.0401 6.34885 44.7219 7.16424 44.0855 7.80064C43.4888 8.43704 42.753 8.75524 41.8779 8.75524C40.9631 8.75524 40.2074 8.43704 39.6108 7.80064C39.0141 7.16424 38.7158 6.34885 38.7158 5.35447C38.7158 4.39987 39.0141 3.60437 39.6108 2.96797C40.2074 2.29179 40.9631 1.9537 41.8779 1.9537C42.7928 1.9537 43.5485 2.29179 44.1451 2.96797C44.7417 3.60437 45.0401 4.39987 45.0401 5.35447ZM39.3124 44.1948V14.2442H44.3838V44.1948H39.3124Z" fill="#404041"/>
<path d="M68.8435 12.0963C68.1275 11.2611 67.2922 10.6247 66.3376 10.1871C65.383 9.70983 64.3886 9.47118 63.3545 9.47118C62.2806 9.47118 61.3061 9.80927 60.431 10.4854C59.5958 11.1616 59.1781 12.2753 59.1781 13.8265C59.1781 15.1391 59.6156 16.1733 60.4907 16.929C61.3657 17.645 62.6584 18.4405 64.3688 19.3155C65.3234 19.7928 66.3177 20.3695 67.3519 21.0457C68.4258 21.6821 69.4003 22.4776 70.2754 23.4322C71.1504 24.3868 71.8664 25.5403 72.4232 26.8927C73.0198 28.2052 73.3182 29.7764 73.3182 31.606C73.3182 33.8732 72.9602 35.8818 72.2442 37.6319C71.5283 39.3423 70.5538 40.7742 69.3208 41.9276C68.1275 43.0413 66.7354 43.8766 65.1444 44.4335C63.5534 45.0301 61.9027 45.3284 60.1924 45.3284C57.6468 45.3284 55.3199 44.8511 53.2119 43.8965C51.1436 42.9419 49.473 41.8282 48.2002 40.5554L53.0925 33.3959C54.0074 34.3505 55.0614 35.1261 56.2546 35.7227C57.4479 36.2796 58.661 36.558 59.8941 36.558C61.0475 36.558 62.022 36.1801 62.8175 35.4244C63.613 34.6687 64.0108 33.6146 64.0108 32.2623C64.0108 30.8702 63.5335 29.7764 62.5789 28.9808C61.6243 28.1456 60.2322 27.2705 58.4025 26.3557C57.249 25.7988 56.1552 25.1823 55.1211 24.5062C54.1267 23.83 53.2317 23.0146 52.4362 22.06C51.6805 21.1054 51.0839 19.9917 50.6464 18.7189C50.2088 17.4461 49.9901 15.9346 49.9901 14.1845C49.9901 11.8378 50.3679 9.82915 51.1237 8.1586C51.9192 6.44827 52.9334 5.05615 54.1665 3.98222C55.4393 2.90829 56.8314 2.11279 58.3428 1.59571C59.8941 1.07864 61.4453 0.820099 62.9965 0.820099C65.3035 0.820099 67.3718 1.19796 69.2014 1.95369C71.0311 2.70942 72.5624 3.74357 73.7955 5.05615L68.8435 12.0963Z" fill="#7B3972"/>
<path d="M77.6729 44.1948V1.9537H98.0775V10.3661H86.8012V18.6592H97.1825V26.5347H86.8012V35.6631H98.7934V44.1948H77.6729Z" fill="#7B3972"/>
<path d="M5.92379 51.3891C5.43662 50.6739 4.72659 50.3163 3.79371 50.3163C3.50348 50.3163 3.21844 50.3578 2.93857 50.4407C2.65871 50.5133 2.40476 50.6325 2.17672 50.7983C1.95905 50.9538 1.78284 51.1611 1.64809 51.4202C1.51334 51.669 1.44596 51.9644 1.44596 52.3065C1.44596 52.804 1.5859 53.1927 1.86576 53.4726C2.14562 53.7421 2.49286 53.9649 2.90748 54.1411C3.32209 54.3173 3.77298 54.478 4.26015 54.6231C4.75769 54.7579 5.21376 54.9445 5.62838 55.1829C6.04299 55.4109 6.39023 55.7167 6.67009 56.1002C6.94996 56.4837 7.08989 57.0072 7.08989 57.6705C7.08989 58.1681 6.98105 58.619 6.76338 59.0232C6.55607 59.4171 6.27621 59.7488 5.92379 60.0183C5.58173 60.2878 5.19303 60.4951 4.75769 60.6402C4.33271 60.7853 3.90255 60.8579 3.4672 60.8579C2.79346 60.8579 2.15081 60.7335 1.53925 60.4847C0.938063 60.2256 0.424979 59.8058 0 59.2253L1.01062 58.4946C1.24902 58.8988 1.58071 59.2253 2.00569 59.4741C2.43067 59.7125 2.93339 59.8317 3.51385 59.8317C3.79371 59.8317 4.07358 59.7902 4.35344 59.7073C4.6333 59.614 4.88207 59.4845 5.09974 59.3186C5.32778 59.1424 5.51436 58.9299 5.65947 58.6812C5.80459 58.4324 5.87714 58.1473 5.87714 57.826C5.87714 57.4425 5.79422 57.1264 5.62838 56.8776C5.4729 56.6185 5.26041 56.406 4.99091 56.2401C4.73178 56.0639 4.43118 55.9188 4.08912 55.8048C3.75743 55.6908 3.41019 55.5767 3.04741 55.4627C2.69499 55.3487 2.34775 55.2191 2.00569 55.074C1.674 54.9289 1.37341 54.7475 1.10391 54.5298C0.844775 54.3018 0.632285 54.0219 0.46644 53.6902C0.31096 53.3482 0.23322 52.9232 0.23322 52.4153C0.23322 51.8867 0.331691 51.4254 0.528632 51.0315C0.735939 50.6377 1.00544 50.3111 1.33713 50.052C1.67918 49.7929 2.0627 49.6011 2.48768 49.4767C2.91266 49.3524 3.348 49.2902 3.79371 49.2902C4.41563 49.2902 4.98054 49.3886 5.48844 49.5856C5.99635 49.7825 6.46797 50.1298 6.90331 50.6273L5.92379 51.3891Z" fill="#3B3A3D"/>
<path d="M10.4741 60.578H9.35467V49.57H10.4741V60.578Z" fill="#3B3A3D"/>
<path d="M21.4148 58.8988H21.4459V49.57H22.5654V60.578H21.1661L14.6048 51.1559H14.5737V60.578H13.4542V49.57H14.8536L21.4148 58.8988Z" fill="#3B3A3D"/>
<path d="M33.6872 51.5913C33.314 51.1974 32.8683 50.8864 32.35 50.6584C31.8318 50.4303 31.2306 50.3163 30.5465 50.3163C29.8416 50.3163 29.2093 50.4459 28.6496 50.705C28.0899 50.9642 27.6131 51.3114 27.2192 51.7467C26.8357 52.1821 26.5403 52.69 26.333 53.2704C26.1257 53.8405 26.022 54.4417 26.022 55.074C26.022 55.7063 26.1257 56.3127 26.333 56.8931C26.5403 57.4632 26.8357 57.9659 27.2192 58.4013C27.6131 58.8366 28.0899 59.1839 28.6496 59.443C29.2093 59.7021 29.8416 59.8317 30.5465 59.8317C31.1166 59.8317 31.6607 59.7643 32.179 59.6296C32.7076 59.4845 33.1793 59.2927 33.5939 59.0543V55.3694H30.9663V54.3433H34.7133V59.7384C34.0914 60.1012 33.4073 60.3811 32.661 60.578C31.9251 60.7646 31.2202 60.8579 30.5465 60.8579C29.7276 60.8579 28.9658 60.7128 28.2609 60.4225C27.5664 60.1323 26.9601 59.7332 26.4418 59.2253C25.9339 58.7071 25.5348 58.0955 25.2446 57.3907C24.9544 56.6858 24.8093 55.9136 24.8093 55.074C24.8093 54.2344 24.9544 53.4622 25.2446 52.7574C25.5348 52.0525 25.9339 51.4462 26.4418 50.9382C26.9601 50.42 27.5664 50.0157 28.2609 49.7255C28.9658 49.4353 29.7276 49.2902 30.5465 49.2902C31.4275 49.2902 32.1842 49.4145 32.8165 49.6633C33.4591 49.9017 34.0292 50.2697 34.5268 50.7672L33.6872 51.5913Z" fill="#3B3A3D"/>
<path d="M39.1029 56.6599H43.8761L41.4972 50.8761L39.1029 56.6599ZM37.4703 60.578H36.1643L40.9531 49.57H42.0414L46.8302 60.578H45.5242L44.3114 57.6861H38.6831L37.4703 60.578Z" fill="#3B3A3D"/>
<path d="M49.4352 54.4365H51.2388C51.7363 54.4365 52.1561 54.3847 52.4982 54.2811C52.8506 54.1774 53.1305 54.0427 53.3378 53.8768C53.5451 53.7006 53.6954 53.4985 53.7887 53.2704C53.882 53.032 53.9286 52.7781 53.9286 52.5086C53.9286 52.2495 53.882 52.0059 53.7887 51.7778C53.6954 51.5394 53.5451 51.3321 53.3378 51.1559C53.1305 50.9797 52.8506 50.845 52.4982 50.7517C52.1561 50.648 51.7363 50.5962 51.2388 50.5962H49.4352V54.4365ZM48.3158 49.57H51.5187C52.6381 49.57 53.5192 49.8136 54.1618 50.3008C54.8148 50.788 55.1413 51.5239 55.1413 52.5086C55.1413 53.4933 54.8148 54.2344 54.1618 54.732C53.5192 55.2191 52.6381 55.4627 51.5187 55.4627H49.4352V60.578H48.3158V49.57Z" fill="#3B3A3D"/>
<path d="M66.7591 55.074C66.7591 54.4417 66.6554 53.8405 66.4481 53.2704C66.2408 52.69 65.9402 52.1821 65.5464 51.7467C65.1628 51.3114 64.6912 50.9642 64.1315 50.705C63.5718 50.4459 62.9395 50.3163 62.2346 50.3163C61.5298 50.3163 60.8975 50.4459 60.3378 50.705C59.7781 50.9642 59.3012 51.3114 58.9074 51.7467C58.5238 52.1821 58.2284 52.69 58.0211 53.2704C57.8138 53.8405 57.7102 54.4417 57.7102 55.074C57.7102 55.7063 57.8138 56.3127 58.0211 56.8931C58.2284 57.4632 58.5238 57.9659 58.9074 58.4013C59.3012 58.8366 59.7781 59.1839 60.3378 59.443C60.8975 59.7021 61.5298 59.8317 62.2346 59.8317C62.9395 59.8317 63.5718 59.7021 64.1315 59.443C64.6912 59.1839 65.1628 58.8366 65.5464 58.4013C65.9402 57.9659 66.2408 57.4632 66.4481 56.8931C66.6554 56.3127 66.7591 55.7063 66.7591 55.074ZM67.9718 55.074C67.9718 55.9136 67.8267 56.6858 67.5365 57.3907C67.2463 58.0955 66.842 58.7071 66.3238 59.2253C65.8159 59.7332 65.2095 60.1323 64.5046 60.4225C63.8102 60.7128 63.0535 60.8579 62.2346 60.8579C61.4158 60.8579 60.6539 60.7128 59.9491 60.4225C59.2546 60.1323 58.6482 59.7332 58.13 59.2253C57.6221 58.7071 57.223 58.0955 56.9328 57.3907C56.6425 56.6858 56.4974 55.9136 56.4974 55.074C56.4974 54.2344 56.6425 53.4622 56.9328 52.7574C57.223 52.0525 57.6221 51.4462 58.13 50.9382C58.6482 50.42 59.2546 50.0157 59.9491 49.7255C60.6539 49.4353 61.4158 49.2902 62.2346 49.2902C63.0535 49.2902 63.8102 49.4353 64.5046 49.7255C65.2095 50.0157 65.8159 50.42 66.3238 50.9382C66.842 51.4462 67.2463 52.0525 67.5365 52.7574C67.8267 53.4622 67.9718 54.2344 67.9718 55.074Z" fill="#3B3A3D"/>
<path d="M71.33 54.4365H73.3201C73.8177 54.4365 74.2375 54.3847 74.5795 54.2811C74.9319 54.1774 75.2118 54.0427 75.4191 53.8768C75.6264 53.7006 75.7767 53.4985 75.87 53.2704C75.9633 53.032 76.0099 52.7781 76.0099 52.5086C76.0099 52.2495 75.9633 52.0059 75.87 51.7778C75.7767 51.5394 75.6264 51.3321 75.4191 51.1559C75.2118 50.9797 74.9319 50.845 74.5795 50.7517C74.2375 50.648 73.8177 50.5962 73.3201 50.5962H71.33V54.4365ZM71.33 60.578H70.2105V49.57H73.6C74.7194 49.57 75.6005 49.8136 76.2431 50.3008C76.8962 50.788 77.2227 51.5239 77.2227 52.5086C77.2227 53.2756 76.9791 53.9235 76.4919 54.4521C76.0151 54.9704 75.3206 55.271 74.4085 55.3539L77.5803 60.578H76.212L73.1957 55.4627H71.33V60.578Z" fill="#3B3A3D"/>
<path d="M80.5464 59.5518H86.4391V60.578H79.427V49.57H86.2525V50.5962H80.5464V54.3433H85.8794V55.3694H80.5464V59.5518Z" fill="#3B3A3D"/>
<path d="M12.5347 66.737C12.405 66.5684 12.2407 66.4387 12.0418 66.3479C11.8429 66.2571 11.6375 66.2117 11.4257 66.2117C11.1662 66.2117 10.9306 66.2614 10.7187 66.3609C10.5112 66.456 10.3317 66.5879 10.1804 66.7565C10.0334 66.9251 9.91882 67.124 9.83667 67.3532C9.75452 67.578 9.71344 67.8202 9.71344 68.0796C9.71344 68.3217 9.75235 68.5509 9.83018 68.7671C9.90801 68.9833 10.0204 69.1735 10.1674 69.3378C10.3144 69.5021 10.4939 69.6318 10.7058 69.727C10.9176 69.8221 11.1576 69.8696 11.4257 69.8696C11.6894 69.8696 11.9207 69.8156 12.1196 69.7075C12.3185 69.5994 12.4872 69.4481 12.6255 69.2535L13.1509 69.6491C13.1163 69.6967 13.0557 69.7659 12.9693 69.8567C12.8828 69.9431 12.7682 70.0318 12.6255 70.1226C12.4828 70.2091 12.3099 70.2847 12.1067 70.3496C11.9078 70.4188 11.6764 70.4534 11.4127 70.4534C11.0495 70.4534 10.7209 70.3842 10.4269 70.2458C10.1372 70.1074 9.88855 69.9258 9.68101 69.701C9.47779 69.4762 9.32214 69.2232 9.21404 68.9422C9.10595 68.6568 9.0519 68.3693 9.0519 68.0796C9.0519 67.725 9.11027 67.3986 9.22701 67.1002C9.34375 66.7976 9.5059 66.5382 9.71344 66.322C9.92531 66.1014 10.1782 65.9307 10.4723 65.8096C10.7663 65.6885 11.0906 65.628 11.4451 65.628C11.7478 65.628 12.044 65.6864 12.3337 65.8031C12.6277 65.9198 12.8677 66.0993 13.0536 66.3414L12.5347 66.737ZM14.1957 69.0135C14.1957 69.1476 14.2238 69.2708 14.28 69.3832C14.3406 69.4913 14.4184 69.5843 14.5135 69.6621C14.6086 69.7399 14.7189 69.8005 14.8443 69.8437C14.9697 69.8869 15.0994 69.9086 15.2334 69.9086C15.415 69.9086 15.5728 69.8675 15.7069 69.7853C15.8409 69.6988 15.9642 69.5864 16.0766 69.4481L16.5176 69.7853C16.1933 70.2047 15.7393 70.4144 15.1556 70.4144C14.9135 70.4144 14.693 70.3734 14.4941 70.2912C14.2995 70.2091 14.133 70.0966 13.9947 69.954C13.8606 69.8069 13.7569 69.6362 13.6833 69.4416C13.6098 69.2427 13.5731 69.0287 13.5731 68.7995C13.5731 68.5703 13.612 68.3585 13.6898 68.1639C13.772 67.965 13.8822 67.7942 14.0206 67.6515C14.1633 67.5045 14.3319 67.3899 14.5265 67.3078C14.7211 67.2256 14.9329 67.1846 15.1621 67.1846C15.4345 67.1846 15.6636 67.2321 15.8496 67.3272C16.0398 67.4224 16.1955 67.5478 16.3165 67.7034C16.4376 67.8547 16.5241 68.0277 16.576 68.2223C16.6322 68.4125 16.6603 68.6071 16.6603 68.806V69.0135H14.1957ZM16.0377 68.5466C16.0333 68.4168 16.0117 68.2979 15.9728 68.1898C15.9382 68.0817 15.8842 67.9888 15.8107 67.911C15.7372 67.8288 15.6442 67.7661 15.5318 67.7229C15.4237 67.6753 15.2961 67.6515 15.1491 67.6515C15.0064 67.6515 14.8746 67.6796 14.7535 67.7358C14.6367 67.7877 14.5373 67.8569 14.4551 67.9434C14.373 68.0299 14.3081 68.1271 14.2606 68.2352C14.2173 68.339 14.1957 68.4428 14.1957 68.5466H16.0377ZM17.3586 67.2624H17.9423V67.7358H17.9552C18.0287 67.5715 18.1563 67.4397 18.3379 67.3402C18.5195 67.2364 18.7292 67.1846 18.967 67.1846C19.114 67.1846 19.2545 67.2083 19.3886 67.2559C19.5269 67.2991 19.6458 67.3683 19.7453 67.4634C19.8491 67.5586 19.9312 67.6818 19.9918 67.8331C20.0523 67.9801 20.0826 68.1553 20.0826 68.3585V70.3366H19.4988V68.5206C19.4988 68.3779 19.4794 68.2569 19.4405 68.1574C19.4016 68.0536 19.3497 67.9715 19.2848 67.911C19.22 67.8461 19.1443 67.8007 19.0578 67.7748C18.9757 67.7445 18.8892 67.7294 18.7984 67.7294C18.6773 67.7294 18.5649 67.7488 18.4611 67.7877C18.3574 67.8266 18.2666 67.8893 18.1887 67.9758C18.1109 68.058 18.0504 68.1639 18.0071 68.2936C17.9639 68.4233 17.9423 68.5768 17.9423 68.7541V70.3366H17.3586V67.2624ZM22.6098 67.7683H21.7731V69.1627C21.7731 69.2492 21.7753 69.3356 21.7796 69.4221C21.784 69.5043 21.7991 69.5799 21.825 69.6491C21.8553 69.714 21.8985 69.768 21.9547 69.8113C22.0153 69.8502 22.1018 69.8696 22.2142 69.8696C22.2834 69.8696 22.3547 69.8632 22.4282 69.8502C22.5017 69.8372 22.5687 69.8134 22.6293 69.7788V70.3107C22.5601 70.3496 22.4693 70.3755 22.3569 70.3885C22.2488 70.4058 22.1644 70.4144 22.1039 70.4144C21.8791 70.4144 21.704 70.3842 21.5786 70.3236C21.4575 70.2588 21.3667 70.1766 21.3062 70.0772C21.25 69.9777 21.2154 69.8675 21.2024 69.7464C21.1938 69.621 21.1894 69.4956 21.1894 69.3702V67.7683H20.5149V67.2624H21.1894V66.3998H21.7731V67.2624H22.6098V67.7683ZM23.3629 67.2624H23.9466V67.7358H23.9596C23.9985 67.6537 24.0504 67.5802 24.1152 67.5153C24.1801 67.4461 24.2514 67.3878 24.3293 67.3402C24.4114 67.2927 24.5001 67.2559 24.5952 67.23C24.6903 67.1997 24.7854 67.1846 24.8806 67.1846C24.9757 67.1846 25.0622 67.1975 25.14 67.2235L25.114 67.8526C25.0665 67.8396 25.0189 67.8288 24.9714 67.8202C24.9238 67.8115 24.8762 67.8072 24.8287 67.8072C24.5433 67.8072 24.3249 67.8872 24.1736 68.0472C24.0223 68.2071 23.9466 68.4558 23.9466 68.793V70.3366H23.3629V67.2624ZM26.0904 69.0135C26.0904 69.1476 26.1185 69.2708 26.1747 69.3832C26.2352 69.4913 26.3131 69.5843 26.4082 69.6621C26.5033 69.7399 26.6136 69.8005 26.739 69.8437C26.8643 69.8869 26.9941 69.9086 27.1281 69.9086C27.3097 69.9086 27.4675 69.8675 27.6016 69.7853C27.7356 69.6988 27.8588 69.5864 27.9712 69.4481L28.4123 69.7853C28.088 70.2047 27.634 70.4144 27.0503 70.4144C26.8081 70.4144 26.5876 70.3734 26.3887 70.2912C26.1942 70.2091 26.0277 70.0966 25.8893 69.954C25.7553 69.8069 25.6515 69.6362 25.578 69.4416C25.5045 69.2427 25.4678 69.0287 25.4678 68.7995C25.4678 68.5703 25.5067 68.3585 25.5845 68.1639C25.6667 67.965 25.7769 67.7942 25.9153 67.6515C26.058 67.5045 26.2266 67.3899 26.4212 67.3078C26.6157 67.2256 26.8276 67.1846 27.0568 67.1846C27.3292 67.1846 27.5583 67.2321 27.7442 67.3272C27.9345 67.4224 28.0901 67.5478 28.2112 67.7034C28.3323 67.8547 28.4188 68.0277 28.4706 68.2223C28.5269 68.4125 28.555 68.6071 28.555 68.806V69.0135H26.0904ZM27.9323 68.5466C27.928 68.4168 27.9064 68.2979 27.8675 68.1898C27.8329 68.0817 27.7788 67.9888 27.7053 67.911C27.6318 67.8288 27.5389 67.7661 27.4264 67.7229C27.3183 67.6753 27.1908 67.6515 27.0438 67.6515C26.9011 67.6515 26.7692 67.6796 26.6482 67.7358C26.5314 67.7877 26.432 67.8569 26.3498 67.9434C26.2677 68.0299 26.2028 68.1271 26.1552 68.2352C26.112 68.339 26.0904 68.4428 26.0904 68.5466H27.9323ZM31.2853 67.7683H30.6238V67.2624H31.2853V66.5749C31.2853 66.1641 31.3632 65.8593 31.5188 65.6604C31.6788 65.4572 31.9512 65.3556 32.336 65.3556C32.4009 65.3556 32.4679 65.3578 32.5371 65.3621C32.6106 65.3664 32.6884 65.3794 32.7706 65.401L32.7057 65.9198C32.6495 65.8982 32.5954 65.8831 32.5436 65.8744C32.4917 65.8658 32.4355 65.8615 32.3749 65.8615C32.2668 65.8615 32.1804 65.8788 32.1155 65.9134C32.0506 65.9436 31.9988 65.989 31.9598 66.0496C31.9253 66.1101 31.9015 66.1836 31.8885 66.2701C31.8799 66.3522 31.8755 66.4474 31.8755 66.5554V67.2624H32.5695V67.7683H31.869V70.3366H31.2853V67.7683ZM33.6916 68.7995C33.6916 68.9552 33.7154 69.1 33.7629 69.234C33.8105 69.3638 33.8775 69.4762 33.964 69.5713C34.0505 69.6621 34.1564 69.7356 34.2818 69.7918C34.4072 69.8437 34.5477 69.8696 34.7033 69.8696C34.859 69.8696 34.9995 69.8437 35.1249 69.7918C35.2503 69.7356 35.3562 69.6621 35.4427 69.5713C35.5292 69.4762 35.5962 69.3638 35.6438 69.234C35.6913 69.1 35.7151 68.9552 35.7151 68.7995C35.7151 68.6438 35.6913 68.5012 35.6438 68.3714C35.5962 68.2374 35.5292 68.125 35.4427 68.0342C35.3562 67.9391 35.2503 67.8656 35.1249 67.8137C34.9995 67.7575 34.859 67.7294 34.7033 67.7294C34.5477 67.7294 34.4072 67.7575 34.2818 67.8137C34.1564 67.8656 34.0505 67.9391 33.964 68.0342C33.8775 68.125 33.8105 68.2374 33.7629 68.3714C33.7154 68.5012 33.6916 68.6438 33.6916 68.7995ZM33.069 68.7995C33.069 68.5747 33.11 68.365 33.1922 68.1704C33.2787 67.9758 33.3954 67.805 33.5424 67.658C33.6894 67.511 33.8624 67.3964 34.0613 67.3143C34.2602 67.2278 34.4742 67.1846 34.7033 67.1846C34.9325 67.1846 35.1465 67.2278 35.3454 67.3143C35.5443 67.3964 35.7173 67.511 35.8643 67.658C36.0113 67.805 36.1259 67.9758 36.208 68.1704C36.2945 68.365 36.3377 68.5747 36.3377 68.7995C36.3377 69.0243 36.2945 69.2362 36.208 69.4351C36.1259 69.6297 36.0113 69.8005 35.8643 69.9475C35.7173 70.0902 35.5443 70.2047 35.3454 70.2912C35.1465 70.3734 34.9325 70.4144 34.7033 70.4144C34.4742 70.4144 34.2602 70.3734 34.0613 70.2912C33.8624 70.2047 33.6894 70.0902 33.5424 69.9475C33.3954 69.8005 33.2787 69.6297 33.1922 69.4351C33.11 69.2362 33.069 69.0243 33.069 68.7995ZM37.069 67.2624H37.6527V67.7358H37.6657C37.7046 67.6537 37.7565 67.5802 37.8213 67.5153C37.8862 67.4461 37.9575 67.3878 38.0354 67.3402C38.1175 67.2927 38.2062 67.2559 38.3013 67.23C38.3964 67.1997 38.4915 67.1846 38.5867 67.1846C38.6818 67.1846 38.7683 67.1975 38.8461 67.2235L38.8201 67.8526C38.7726 67.8396 38.725 67.8288 38.6775 67.8202C38.6299 67.8115 38.5823 67.8072 38.5348 67.8072C38.2494 67.8072 38.0311 67.8872 37.8797 68.0472C37.7284 68.2071 37.6527 68.4558 37.6527 68.793V70.3366H37.069V67.2624Z" fill="#3B3A3D"/>
<path d="M41.5599 69.3767C41.6723 69.5454 41.815 69.6707 41.988 69.7529C42.1652 69.8307 42.3468 69.8696 42.5327 69.8696C42.6365 69.8696 42.7425 69.8545 42.8505 69.8242C42.9586 69.7896 43.0559 69.7399 43.1424 69.6751C43.2332 69.6102 43.3067 69.5302 43.3629 69.4351C43.4191 69.34 43.4472 69.2297 43.4472 69.1043C43.4472 68.9271 43.391 68.793 43.2786 68.7022C43.1662 68.6071 43.0257 68.5293 42.857 68.4687C42.6927 68.4039 42.5111 68.3433 42.3122 68.2871C42.1177 68.2266 41.9361 68.1444 41.7674 68.0407C41.6031 67.9369 41.4648 67.7985 41.3524 67.6256C41.2399 67.4483 41.1837 67.2105 41.1837 66.9122C41.1837 66.7781 41.2118 66.6354 41.268 66.4841C41.3286 66.3328 41.4215 66.1944 41.5469 66.069C41.6723 65.9436 41.8323 65.8399 42.0269 65.7577C42.2258 65.6712 42.4636 65.628 42.7403 65.628C42.9911 65.628 43.231 65.6626 43.4602 65.7318C43.6894 65.8009 43.8904 65.9415 44.0634 66.1533L43.5575 66.6138C43.4797 66.4928 43.3694 66.3955 43.2267 66.322C43.084 66.2485 42.9219 66.2117 42.7403 66.2117C42.5673 66.2117 42.4225 66.2355 42.3058 66.283C42.1933 66.3263 42.1025 66.3847 42.0334 66.4582C41.9642 66.5273 41.9144 66.603 41.8842 66.6852C41.8582 66.7673 41.8453 66.843 41.8453 66.9122C41.8453 67.1067 41.9015 67.2559 42.0139 67.3597C42.1263 67.4634 42.2647 67.5478 42.429 67.6126C42.5976 67.6775 42.7792 67.7358 42.9738 67.7877C43.1727 67.8396 43.3543 67.9131 43.5186 68.0082C43.6872 68.099 43.8277 68.2244 43.9401 68.3844C44.0526 68.5401 44.1088 68.7563 44.1088 69.033C44.1088 69.2535 44.0655 69.4524 43.9791 69.6297C43.8969 69.8069 43.7845 69.9561 43.6418 70.0772C43.4991 70.1982 43.3305 70.2912 43.1359 70.3561C42.9413 70.4209 42.7338 70.4534 42.5133 70.4534C42.2193 70.4534 41.9404 70.4015 41.6766 70.2977C41.4129 70.1939 41.2032 70.0339 41.0475 69.8178L41.5599 69.3767Z" fill="#7B3972"/>
<path d="M45.3525 68.7995C45.3525 68.9552 45.3763 69.1 45.4238 69.234C45.4714 69.3638 45.5384 69.4762 45.6249 69.5713C45.7113 69.6621 45.8173 69.7356 45.9427 69.7918C46.0681 69.8437 46.2086 69.8696 46.3642 69.8696C46.5199 69.8696 46.6604 69.8437 46.7858 69.7918C46.9112 69.7356 47.0171 69.6621 47.1036 69.5713C47.1901 69.4762 47.2571 69.3638 47.3047 69.234C47.3522 69.1 47.376 68.9552 47.376 68.7995C47.376 68.6438 47.3522 68.5012 47.3047 68.3714C47.2571 68.2374 47.1901 68.125 47.1036 68.0342C47.0171 67.9391 46.9112 67.8656 46.7858 67.8137C46.6604 67.7575 46.5199 67.7294 46.3642 67.7294C46.2086 67.7294 46.0681 67.7575 45.9427 67.8137C45.8173 67.8656 45.7113 67.9391 45.6249 68.0342C45.5384 68.125 45.4714 68.2374 45.4238 68.3714C45.3763 68.5012 45.3525 68.6438 45.3525 68.7995ZM44.7298 68.7995C44.7298 68.5747 44.7709 68.365 44.8531 68.1704C44.9395 67.9758 45.0563 67.805 45.2033 67.658C45.3503 67.511 45.5233 67.3964 45.7222 67.3143C45.9211 67.2278 46.1351 67.1846 46.3642 67.1846C46.5934 67.1846 46.8074 67.2278 47.0063 67.3143C47.2052 67.3964 47.3782 67.511 47.5252 67.658C47.6722 67.805 47.7868 67.9758 47.8689 68.1704C47.9554 68.365 47.9986 68.5747 47.9986 68.7995C47.9986 69.0243 47.9554 69.2362 47.8689 69.4351C47.7868 69.6297 47.6722 69.8005 47.5252 69.9475C47.3782 70.0902 47.2052 70.2047 47.0063 70.2912C46.8074 70.3734 46.5934 70.4144 46.3642 70.4144C46.1351 70.4144 45.9211 70.3734 45.7222 70.2912C45.5233 70.2047 45.3503 70.0902 45.2033 69.9475C45.0563 69.8005 44.9395 69.6297 44.8531 69.4351C44.7709 69.2362 44.7298 69.0243 44.7298 68.7995ZM50.9286 68.0796C50.8205 67.9672 50.7059 67.8829 50.5848 67.8266C50.4681 67.7661 50.3275 67.7358 50.1632 67.7358C50.0033 67.7358 49.8627 67.7661 49.7417 67.8266C49.6249 67.8829 49.5255 67.9628 49.4433 68.0666C49.3655 68.1661 49.305 68.2828 49.2617 68.4168C49.2228 68.5466 49.2034 68.6828 49.2034 68.8254C49.2034 68.9681 49.2271 69.1043 49.2747 69.234C49.3223 69.3594 49.3893 69.4697 49.4758 69.5648C49.5622 69.6599 49.666 69.7356 49.7871 69.7918C49.9081 69.8437 50.0443 69.8696 50.1957 69.8696C50.36 69.8696 50.5005 69.8415 50.6172 69.7853C50.734 69.7248 50.8421 69.6383 50.9415 69.5259L51.3566 69.941C51.2053 70.1096 51.028 70.2307 50.8248 70.3042C50.6259 70.3777 50.414 70.4144 50.1892 70.4144C49.9514 70.4144 49.733 70.3755 49.5341 70.2977C49.3396 70.2199 49.1709 70.1118 49.0282 69.9734C48.8856 69.8307 48.7753 69.6621 48.6975 69.4675C48.6196 69.2686 48.5807 69.0503 48.5807 68.8125C48.5807 68.5747 48.6196 68.3563 48.6975 68.1574C48.7753 67.9585 48.8834 67.7877 49.0218 67.645C49.1644 67.5024 49.3331 67.3921 49.5276 67.3143C49.7265 67.2321 49.9471 67.191 50.1892 67.191C50.414 67.191 50.628 67.2321 50.8313 67.3143C51.0388 67.3921 51.2182 67.5132 51.3696 67.6775L50.9286 68.0796ZM51.9041 67.2624H52.4879V70.3366H51.9041V67.2624ZM51.7679 66.1598C51.7679 66.0431 51.809 65.9436 51.8912 65.8615C51.9776 65.775 52.0793 65.7318 52.196 65.7318C52.3127 65.7318 52.4122 65.775 52.4943 65.8615C52.5808 65.9436 52.6241 66.0431 52.6241 66.1598C52.6241 66.2766 52.5808 66.3782 52.4943 66.4646C52.4122 66.5468 52.3127 66.5879 52.196 66.5879C52.0793 66.5879 51.9776 66.5468 51.8912 66.4646C51.809 66.3782 51.7679 66.2766 51.7679 66.1598ZM53.4298 67.6386C53.5941 67.4872 53.7844 67.3748 54.0005 67.3013C54.2167 67.2235 54.4329 67.1846 54.6491 67.1846C54.874 67.1846 55.0664 67.2127 55.2263 67.2689C55.3906 67.3251 55.5247 67.4007 55.6285 67.4959C55.7322 67.591 55.8079 67.7013 55.8555 67.8266C55.9073 67.9477 55.9333 68.0753 55.9333 68.2093V69.7788C55.9333 69.8869 55.9354 69.9864 55.9398 70.0772C55.9441 70.168 55.9506 70.2545 55.9592 70.3366H55.4404C55.4274 70.181 55.4209 70.0253 55.4209 69.8696H55.4079C55.2782 70.0685 55.1247 70.2091 54.9475 70.2912C54.7702 70.3734 54.5648 70.4144 54.3313 70.4144C54.1886 70.4144 54.0524 70.395 53.9227 70.3561C53.793 70.3172 53.6784 70.2588 53.579 70.181C53.4839 70.1031 53.4082 70.008 53.352 69.8956C53.2958 69.7788 53.2677 69.6448 53.2677 69.4935C53.2677 69.2946 53.3109 69.1281 53.3974 68.9941C53.4882 68.86 53.6092 68.7519 53.7606 68.6698C53.9162 68.5833 54.0957 68.5228 54.2989 68.4882C54.5064 68.4493 54.7269 68.4298 54.9604 68.4298H55.3885V68.3001C55.3885 68.2223 55.3734 68.1444 55.3431 68.0666C55.3128 67.9888 55.2674 67.9196 55.2069 67.8591C55.1464 67.7942 55.0707 67.7445 54.9799 67.7099C54.8891 67.671 54.781 67.6515 54.6556 67.6515C54.5432 67.6515 54.4437 67.6623 54.3573 67.684C54.2751 67.7056 54.1994 67.7337 54.1303 67.7683C54.0611 67.7985 53.9984 67.8353 53.9422 67.8785C53.886 67.9218 53.8319 67.9628 53.78 68.0018L53.4298 67.6386ZM55.0772 68.8579C54.9388 68.8579 54.7961 68.8665 54.6491 68.8838C54.5064 68.8968 54.3746 68.9249 54.2535 68.9681C54.1367 69.0114 54.0395 69.0719 53.9616 69.1497C53.8881 69.2276 53.8514 69.327 53.8514 69.4481C53.8514 69.6253 53.9097 69.7529 54.0265 69.8307C54.1476 69.9086 54.3097 69.9475 54.5129 69.9475C54.6729 69.9475 54.8091 69.9215 54.9215 69.8696C55.0339 69.8134 55.1247 69.7421 55.1939 69.6556C55.2631 69.5691 55.3128 69.474 55.3431 69.3702C55.3734 69.2621 55.3885 69.1562 55.3885 69.0524V68.8579H55.0772ZM56.8254 65.4334H57.4091V70.3366H56.8254V65.4334Z" fill="#7B3972"/>
<path d="M60.2894 65.7447H63.2534V66.3284H60.912V67.6969H63.0912V68.2806H60.912V69.7529H63.3701V70.3366H60.2894V65.7447Z" fill="#7B3972"/>
<path d="M64.1041 67.2624H64.6878V67.7358H64.7008C64.7743 67.5715 64.9019 67.4397 65.0835 67.3402C65.2651 67.2364 65.4748 67.1846 65.7126 67.1846C65.8596 67.1846 66.0001 67.2083 66.1341 67.2559C66.2725 67.2991 66.3914 67.3683 66.4909 67.4634C66.5946 67.5586 66.6768 67.6818 66.7373 67.8331C66.7978 67.9801 66.8281 68.1553 66.8281 68.3585V70.3366H66.2444V68.5206C66.2444 68.3779 66.2249 68.2569 66.186 68.1574C66.1471 68.0536 66.0952 67.9715 66.0304 67.911C65.9655 67.8461 65.8898 67.8007 65.8034 67.7748C65.7212 67.7445 65.6347 67.7294 65.5439 67.7294C65.4229 67.7294 65.3105 67.7488 65.2067 67.7877C65.1029 67.8266 65.0121 67.8893 64.9343 67.9758C64.8565 68.058 64.7959 68.1639 64.7527 68.2936C64.7094 68.4233 64.6878 68.5768 64.6878 68.7541V70.3366H64.1041V67.2624ZM69.3554 67.7683H68.5187V69.1627C68.5187 69.2492 68.5209 69.3356 68.5252 69.4221C68.5295 69.5043 68.5446 69.5799 68.5706 69.6491C68.6008 69.714 68.6441 69.768 68.7003 69.8113C68.7608 69.8502 68.8473 69.8696 68.9597 69.8696C69.0289 69.8696 69.1002 69.8632 69.1738 69.8502C69.2473 69.8372 69.3143 69.8134 69.3748 69.7788V70.3107C69.3056 70.3496 69.2148 70.3755 69.1024 70.3885C68.9943 70.4058 68.91 70.4144 68.8495 70.4144C68.6246 70.4144 68.4495 70.3842 68.3241 70.3236C68.2031 70.2588 68.1123 70.1766 68.0517 70.0772C67.9955 69.9777 67.9609 69.8675 67.948 69.7464C67.9393 69.621 67.935 69.4956 67.935 69.3702V67.7683H67.2605V67.2624H67.935V66.3998H68.5187V67.2624H69.3554V67.7683ZM70.5495 69.0135C70.5495 69.1476 70.5776 69.2708 70.6338 69.3832C70.6943 69.4913 70.7722 69.5843 70.8673 69.6621C70.9624 69.7399 71.0727 69.8005 71.1981 69.8437C71.3234 69.8869 71.4532 69.9086 71.5872 69.9086C71.7688 69.9086 71.9266 69.8675 72.0606 69.7853C72.1947 69.6988 72.3179 69.5864 72.4303 69.4481L72.8714 69.7853C72.5471 70.2047 72.0931 70.4144 71.5094 70.4144C71.2672 70.4144 71.0467 70.3734 70.8478 70.2912C70.6533 70.2091 70.4868 70.0966 70.3484 69.954C70.2144 69.8069 70.1106 69.6362 70.0371 69.4416C69.9636 69.2427 69.9269 69.0287 69.9269 68.7995C69.9269 68.5703 69.9658 68.3585 70.0436 68.1639C70.1257 67.965 70.236 67.7942 70.3744 67.6515C70.5171 67.5045 70.6857 67.3899 70.8803 67.3078C71.0748 67.2256 71.2867 67.1846 71.5158 67.1846C71.7882 67.1846 72.0174 67.2321 72.2033 67.3272C72.3936 67.4224 72.5492 67.5478 72.6703 67.7034C72.7914 67.8547 72.8778 68.0277 72.9297 68.2223C72.9859 68.4125 73.014 68.6071 73.014 68.806V69.0135H70.5495ZM72.3914 68.5466C72.3871 68.4168 72.3655 68.2979 72.3266 68.1898C72.292 68.0817 72.2379 67.9888 72.1644 67.911C72.0909 67.8288 71.998 67.7661 71.8855 67.7229C71.7774 67.6753 71.6499 67.6515 71.5029 67.6515C71.3602 67.6515 71.2283 67.6796 71.1073 67.7358C70.9905 67.7877 70.8911 67.8569 70.8089 67.9434C70.7268 68.0299 70.6619 68.1271 70.6143 68.2352C70.5711 68.339 70.5495 68.4428 70.5495 68.5466H72.3914ZM73.7123 67.2624H74.296V67.7358H74.309C74.3479 67.6537 74.3998 67.5802 74.4647 67.5153C74.5295 67.4461 74.6009 67.3878 74.6787 67.3402C74.7608 67.2927 74.8495 67.2559 74.9446 67.23C75.0397 67.1997 75.1349 67.1846 75.23 67.1846C75.3251 67.1846 75.4116 67.1975 75.4894 67.2235L75.4635 67.8526C75.4159 67.8396 75.3683 67.8288 75.3208 67.8202C75.2732 67.8115 75.2257 67.8072 75.1781 67.8072C74.8927 67.8072 74.6744 67.8872 74.523 68.0472C74.3717 68.2071 74.296 68.4558 74.296 68.793V70.3366H73.7123V67.2624ZM76.1128 67.2624H76.6965V67.7034H76.7095C76.8219 67.5391 76.9754 67.4116 77.17 67.3208C77.3689 67.23 77.5721 67.1846 77.7796 67.1846C78.0174 67.1846 78.2315 67.2256 78.4217 67.3078C78.6163 67.3899 78.7806 67.5045 78.9146 67.6515C79.053 67.7985 79.1589 67.9715 79.2324 68.1704C79.3059 68.365 79.3427 68.5747 79.3427 68.7995C79.3427 69.0287 79.3059 69.2427 79.2324 69.4416C79.1589 69.6362 79.053 69.8069 78.9146 69.954C78.7806 70.0966 78.6163 70.2091 78.4217 70.2912C78.2315 70.3734 78.0174 70.4144 77.7796 70.4144C77.5591 70.4144 77.3516 70.369 77.157 70.2782C76.9624 70.1831 76.8132 70.0556 76.7095 69.8956H76.6965V72.1656H76.1128V67.2624ZM77.7083 67.7294C77.5526 67.7294 77.4121 67.7575 77.2867 67.8137C77.1613 67.8656 77.0554 67.9391 76.9689 68.0342C76.8824 68.125 76.8154 68.2374 76.7678 68.3714C76.7203 68.5012 76.6965 68.6438 76.6965 68.7995C76.6965 68.9552 76.7203 69.1 76.7678 69.234C76.8154 69.3638 76.8824 69.4762 76.9689 69.5713C77.0554 69.6621 77.1613 69.7356 77.2867 69.7918C77.4121 69.8437 77.5526 69.8696 77.7083 69.8696C77.8639 69.8696 78.0045 69.8437 78.1298 69.7918C78.2552 69.7356 78.3612 69.6621 78.4476 69.5713C78.5341 69.4762 78.6011 69.3638 78.6487 69.234C78.6963 69.1 78.72 68.9552 78.72 68.7995C78.72 68.6438 78.6963 68.5012 78.6487 68.3714C78.6011 68.2374 78.5341 68.125 78.4476 68.0342C78.3612 67.9391 78.2552 67.8656 78.1298 67.8137C78.0045 67.7575 77.8639 67.7294 77.7083 67.7294ZM80.0777 67.2624H80.6614V67.7358H80.6744C80.7133 67.6537 80.7652 67.5802 80.83 67.5153C80.8949 67.4461 80.9662 67.3878 81.0441 67.3402C81.1262 67.2927 81.2148 67.2559 81.31 67.23C81.4051 67.1997 81.5002 67.1846 81.5953 67.1846C81.6905 67.1846 81.7769 67.1975 81.8548 67.2235L81.8288 67.8526C81.7813 67.8396 81.7337 67.8288 81.6861 67.8202C81.6386 67.8115 81.591 67.8072 81.5435 67.8072C81.2581 67.8072 81.0397 67.8872 80.8884 68.0472C80.7371 68.2071 80.6614 68.4558 80.6614 68.793V70.3366H80.0777V67.2624ZM82.5236 67.2624H83.1073V70.3366H82.5236V67.2624ZM82.3874 66.1598C82.3874 66.0431 82.4284 65.9436 82.5106 65.8615C82.5971 65.775 82.6987 65.7318 82.8154 65.7318C82.9322 65.7318 83.0316 65.775 83.1138 65.8615C83.2002 65.9436 83.2435 66.0431 83.2435 66.1598C83.2435 66.2766 83.2002 66.3782 83.1138 66.4646C83.0316 66.5468 82.9322 66.5879 82.8154 66.5879C82.6987 66.5879 82.5971 66.5468 82.5106 66.4646C82.4284 66.3782 82.3874 66.2766 82.3874 66.1598ZM85.6706 68.0342C85.6015 67.9477 85.515 67.8764 85.4112 67.8202C85.3118 67.7596 85.1885 67.7294 85.0415 67.7294C84.9032 67.7294 84.7821 67.7596 84.6783 67.8202C84.5789 67.8764 84.5292 67.9607 84.5292 68.0731C84.5292 68.1639 84.5573 68.2374 84.6135 68.2936C84.674 68.3498 84.7432 68.3952 84.821 68.4298C84.9032 68.4644 84.9896 68.4903 85.0804 68.5076C85.1712 68.5249 85.2491 68.5401 85.3139 68.553C85.4393 68.5833 85.5561 68.6201 85.6642 68.6633C85.7766 68.7065 85.8717 68.7627 85.9495 68.8319C86.0317 68.9011 86.0944 68.9854 86.1376 69.0849C86.1852 69.1843 86.209 69.3054 86.209 69.4481C86.209 69.621 86.1722 69.7702 86.0987 69.8956C86.0252 70.0166 85.9301 70.1161 85.8133 70.1939C85.6966 70.2718 85.5625 70.328 85.4112 70.3626C85.2642 70.3971 85.115 70.4144 84.9637 70.4144C84.7086 70.4144 84.4838 70.3755 84.2892 70.2977C84.0989 70.2199 83.9281 70.0772 83.7768 69.8696L84.2178 69.5064C84.313 69.6016 84.4189 69.6859 84.5356 69.7594C84.6524 69.8329 84.7951 69.8696 84.9637 69.8696C85.0372 69.8696 85.1107 69.8632 85.1842 69.8502C85.262 69.8329 85.3291 69.8091 85.3853 69.7788C85.4458 69.7442 85.4934 69.7032 85.528 69.6556C85.5669 69.6037 85.5863 69.5454 85.5863 69.4805C85.5863 69.394 85.5582 69.3227 85.502 69.2665C85.4501 69.2103 85.3853 69.167 85.3074 69.1368C85.2339 69.1022 85.1539 69.0762 85.0675 69.0589C84.9853 69.0373 84.9118 69.02 84.847 69.007C84.7216 68.9768 84.6027 68.9422 84.4902 68.9033C84.3778 68.8644 84.2784 68.8125 84.1919 68.7476C84.1054 68.6828 84.0362 68.6006 83.9844 68.5012C83.9325 68.4017 83.9065 68.2785 83.9065 68.1315C83.9065 67.9715 83.939 67.8331 84.0038 67.7164C84.073 67.5953 84.1616 67.4959 84.2697 67.418C84.3821 67.3402 84.5075 67.2818 84.6459 67.2429C84.7886 67.204 84.9313 67.1846 85.074 67.1846C85.2815 67.1846 85.4804 67.2235 85.6706 67.3013C85.8609 67.3791 86.0122 67.5088 86.1246 67.6904L85.6706 68.0342ZM87.3591 69.0135C87.3591 69.1476 87.3872 69.2708 87.4434 69.3832C87.5039 69.4913 87.5818 69.5843 87.6769 69.6621C87.772 69.7399 87.8823 69.8005 88.0077 69.8437C88.1331 69.8869 88.2628 69.9086 88.3968 69.9086C88.5784 69.9086 88.7362 69.8675 88.8703 69.7853C89.0043 69.6988 89.1275 69.5864 89.24 69.4481L89.681 69.7853C89.3567 70.2047 88.9027 70.4144 88.319 70.4144C88.0768 70.4144 87.8563 70.3734 87.6574 70.2912C87.4629 70.2091 87.2964 70.0966 87.158 69.954C87.024 69.8069 86.9202 69.6362 86.8467 69.4416C86.7732 69.2427 86.7365 69.0287 86.7365 68.7995C86.7365 68.5703 86.7754 68.3585 86.8532 68.1639C86.9354 67.965 87.0456 67.7942 87.184 67.6515C87.3267 67.5045 87.4953 67.3899 87.6899 67.3078C87.8844 67.2256 88.0963 67.1846 88.3255 67.1846C88.5979 67.1846 88.827 67.2321 89.013 67.3272C89.2032 67.4224 89.3589 67.5478 89.4799 67.7034C89.601 67.8547 89.6875 68.0277 89.7394 68.2223C89.7956 68.4125 89.8237 68.6071 89.8237 68.806V69.0135H87.3591ZM89.201 68.5466C89.1967 68.4168 89.1751 68.2979 89.1362 68.1898C89.1016 68.0817 89.0475 67.9888 88.974 67.911C88.9005 67.8288 88.8076 67.7661 88.6952 67.7229C88.5871 67.6753 88.4595 67.6515 88.3125 67.6515C88.1698 67.6515 88.0379 67.6796 87.9169 67.7358C87.8001 67.7877 87.7007 67.8569 87.6185 67.9434C87.5364 68.0299 87.4715 68.1271 87.424 68.2352C87.3807 68.339 87.3591 68.4428 87.3591 68.5466H89.201Z" fill="#7B3972"/>
</svg>
