<svg width="116" height="85" viewBox="0 0 116 85" fill="none" xmlns="http://www.w3.org/2000/svg">
<path d="M9.89746 7.05518C9.89746 5.67562 10.4032 4.49072 11.4146 3.50049C12.4217 2.51025 13.632 2.01514 15.0454 2.01514C16.4419 2.01514 17.6395 2.51449 18.6382 3.51318C19.6411 4.51188 20.1426 5.71159 20.1426 7.1123C20.1426 8.52148 19.639 9.71696 18.6318 10.6987C17.6204 11.6847 16.3996 12.1777 14.9692 12.1777C13.7039 12.1777 12.5677 11.7397 11.5605 10.8638C10.4518 9.89469 9.89746 8.62516 9.89746 7.05518ZM11.3892 7.07422C11.3892 8.15755 11.7531 9.04834 12.481 9.74658C13.2046 10.4448 14.0404 10.7939 14.9883 10.7939C16.0166 10.7939 16.8841 10.4385 17.5908 9.72754C18.2975 9.00814 18.6509 8.13216 18.6509 7.09961C18.6509 6.05436 18.3018 5.17839 17.6035 4.47168C16.9095 3.76074 16.0505 3.40527 15.0264 3.40527C14.0065 3.40527 13.1453 3.76074 12.4429 4.47168C11.7404 5.17415 11.3892 6.04167 11.3892 7.07422ZM25.3223 7.82324L28.3564 12H26.5474L23.748 7.98828H23.4814V12H22.0024V2.19922H23.7354C25.0303 2.19922 25.9655 2.44255 26.541 2.9292C27.1758 3.47087 27.4932 4.18604 27.4932 5.07471C27.4932 5.76872 27.2943 6.3654 26.8965 6.86475C26.4987 7.3641 25.974 7.68359 25.3223 7.82324ZM23.4814 6.69971H23.9512C25.3519 6.69971 26.0522 6.16439 26.0522 5.09375C26.0522 4.09082 25.3709 3.58936 24.0083 3.58936H23.4814V6.69971ZM34.647 6.89648H38.6968V7.22021C38.6968 7.95654 38.61 8.60824 38.4365 9.17529C38.2673 9.70003 37.9816 10.1909 37.5796 10.6479C36.6698 11.672 35.5124 12.1841 34.1074 12.1841C32.7363 12.1841 31.562 11.689 30.5845 10.6987C29.6069 9.70426 29.1182 8.5109 29.1182 7.11865C29.1182 5.69678 29.6154 4.49072 30.6099 3.50049C31.6043 2.50602 32.8146 2.00879 34.2407 2.00879C35.0067 2.00879 35.7218 2.16536 36.3862 2.47852C37.021 2.79167 37.6452 3.29948 38.2588 4.00195L37.2051 5.01123C36.401 3.94059 35.4214 3.40527 34.2661 3.40527C33.2293 3.40527 32.3597 3.76286 31.6572 4.47803C30.9548 5.1805 30.6035 6.06071 30.6035 7.11865C30.6035 8.21045 30.995 9.1097 31.7778 9.81641C32.5099 10.4723 33.3034 10.8003 34.1582 10.8003C34.8861 10.8003 35.5399 10.5549 36.1196 10.064C36.6994 9.56885 37.0231 8.9764 37.0908 8.28662H34.647V6.89648ZM45.876 9.61963H41.6802L40.5884 12H38.9951L43.8447 1.5835L48.5229 12H46.9043L45.876 9.61963ZM45.2729 8.22949L43.8193 4.89697L42.2959 8.22949H45.2729ZM49.7544 12V1.53271L56.9019 9.01025V2.19922H58.3809V12.5967L51.2334 5.13818V12H49.7544ZM62.2148 2.19922V12H60.7358V2.19922H62.2148ZM70.1113 3.65918L68.9116 4.37012C68.6873 3.98079 68.4736 3.72689 68.2705 3.6084C68.0589 3.47298 67.786 3.40527 67.4517 3.40527C67.0412 3.40527 66.7005 3.52165 66.4297 3.75439C66.1589 3.98291 66.0234 4.27067 66.0234 4.61768C66.0234 5.09587 66.3789 5.48096 67.0898 5.77295L68.0674 6.17285C68.863 6.49447 69.4448 6.88802 69.813 7.35352C70.1812 7.81478 70.3652 8.38184 70.3652 9.05469C70.3652 9.95605 70.0648 10.7008 69.4639 11.2891C68.8587 11.8815 68.1076 12.1777 67.2104 12.1777C66.3599 12.1777 65.6574 11.9259 65.103 11.4224C64.5571 10.9188 64.2165 10.21 64.0811 9.2959L65.5791 8.96582C65.6468 9.54134 65.7653 9.93913 65.9346 10.1592C66.2393 10.5824 66.6836 10.7939 67.2676 10.7939C67.7288 10.7939 68.1118 10.6395 68.4165 10.3306C68.7212 10.0216 68.8735 9.63021 68.8735 9.15625C68.8735 8.96582 68.846 8.79232 68.791 8.63574C68.7402 8.47493 68.6577 8.32894 68.5435 8.19775C68.4334 8.06234 68.2896 7.9375 68.1118 7.82324C67.9341 7.70475 67.7225 7.59261 67.4771 7.48682L66.5312 7.09326C65.1898 6.5262 64.519 5.69678 64.519 4.60498C64.519 3.86865 64.8005 3.25293 65.3633 2.75781C65.9261 2.25846 66.6265 2.00879 67.4644 2.00879C68.5942 2.00879 69.4766 2.55892 70.1113 3.65918ZM77.5571 3.58936H73.6279V5.94434H77.4429V7.33447H73.6279V10.6099H77.5571V12H72.1489V2.19922H77.5571V3.58936ZM79.4995 12V2.19922H81.5562C82.5422 2.19922 83.3208 2.29655 83.8921 2.49121C84.5057 2.68164 85.0622 3.00537 85.5615 3.4624C86.5729 4.38493 87.0786 5.59733 87.0786 7.09961C87.0786 8.60612 86.5518 9.82487 85.498 10.7559C84.9691 11.2214 84.4147 11.5451 83.835 11.7271C83.2933 11.909 82.5252 12 81.5308 12H79.4995ZM80.9785 10.6099H81.645C82.3094 10.6099 82.8617 10.54 83.3018 10.4004C83.7419 10.2523 84.1396 10.0174 84.4951 9.6958C85.223 9.03141 85.5869 8.16602 85.5869 7.09961C85.5869 6.02474 85.2272 5.15299 84.5078 4.48438C83.8604 3.8877 82.9061 3.58936 81.645 3.58936H80.9785V10.6099ZM92.9565 12V2.19922H94.4292C95.0851 2.19922 95.6077 2.25 95.9971 2.35156C96.3906 2.45312 96.7228 2.62451 96.9937 2.86572C97.2687 3.1154 97.4867 3.42643 97.6475 3.79883C97.8125 4.17546 97.895 4.55632 97.895 4.94141C97.895 5.64388 97.6263 6.23844 97.0889 6.7251C97.6094 6.90283 98.0199 7.21387 98.3203 7.6582C98.625 8.09831 98.7773 8.61035 98.7773 9.19434C98.7773 9.96029 98.5065 10.6077 97.9648 11.1367C97.639 11.4626 97.2729 11.689 96.8667 11.8159C96.4224 11.9386 95.8659 12 95.1973 12H92.9565ZM94.4355 6.40771H94.8989C95.4491 6.40771 95.8511 6.28711 96.105 6.0459C96.3631 5.80046 96.4922 5.44076 96.4922 4.9668C96.4922 4.50553 96.361 4.15641 96.0986 3.91943C95.8363 3.67822 95.4554 3.55762 94.9561 3.55762H94.4355V6.40771ZM94.4355 10.6099H95.3496C96.0182 10.6099 96.5091 10.4787 96.8223 10.2163C97.1523 9.93278 97.3174 9.57308 97.3174 9.13721C97.3174 8.71403 97.1587 8.35856 96.8413 8.0708C96.5324 7.78727 95.9801 7.64551 95.1846 7.64551H94.4355V10.6099ZM102.135 7.76611L98.936 2.19922H100.637L102.878 6.11572L105.125 2.19922H106.826L103.614 7.76611V12H102.135V7.76611Z" fill="#332083"/>
<g clip-path="url(#clip0)">
<path d="M23.6554 45.0777C24.0149 44.6901 24.4493 44.3806 24.932 44.168C25.4146 43.9555 25.9353 43.8445 26.4622 43.8418C26.6339 43.8364 26.8058 43.8507 26.9744 43.8842L26.806 47.6695C26.6927 47.6415 26.5779 47.6203 26.4622 47.606C26.336 47.5981 26.2094 47.5981 26.0833 47.606C25.4378 47.6013 24.8115 47.8264 24.315 48.2416C23.7685 48.7211 23.3245 49.3073 23.0099 49.9647C22.638 50.7256 22.369 51.5332 22.21 52.3659C22.0269 53.2676 21.9352 54.1856 21.9363 55.106V65.9111H18.2946V49.9647C18.2946 49.1173 18.2946 48.1992 18.2525 47.2246C18.2104 46.25 18.1753 45.3602 18.1191 44.5692H21.5434C21.6276 45.2755 21.6907 45.9817 21.7328 46.7797C21.7749 47.5777 21.796 48.2769 21.796 48.9902H21.8802C22.0871 47.5417 22.7033 46.1837 23.6554 45.0777Z" fill="#404041"/>
<path d="M39.1136 65.911C39.0014 65.2543 38.9171 64.6045 38.861 63.9548C38.8049 63.3051 38.7768 62.7754 38.7768 62.38H38.6926C38.4567 63.5258 37.8732 64.5696 37.0226 65.3673C36.0946 66.1376 34.9115 66.5261 33.7107 66.4548C33.0898 66.4502 32.4746 66.3354 31.8933 66.1158C31.2602 65.8787 30.6891 65.4995 30.2233 65.0071C29.6924 64.4409 29.2754 63.7766 28.9953 63.0509C28.6538 62.1157 28.4942 61.123 28.5252 60.1271C28.4726 58.8214 28.7579 57.5244 29.3532 56.363C29.8454 55.4428 30.5506 54.6555 31.4091 54.0678C32.2489 53.5138 33.188 53.13 34.1738 52.9379C35.1332 52.7503 36.1084 52.6557 37.0858 52.6554H38.4891V51.7091C38.4891 50.0353 38.1734 48.8277 37.5348 48.0721C37.2222 47.7015 36.8295 47.4077 36.3869 47.2131C35.9442 47.0185 35.4633 46.9282 34.9807 46.9492C34.2091 46.9457 33.4507 47.1506 32.7844 47.5424C32.1025 47.9437 31.5101 48.4822 31.0443 49.1243L29.2269 46.8644C29.9376 45.8946 30.885 45.1259 31.9775 44.6328C33.0168 44.1244 34.1551 43.8543 35.3105 43.8418C36.3635 43.81 37.4106 44.0126 38.3769 44.4351C39.1909 44.8222 39.8846 45.4252 40.3837 46.1794C40.9248 47.0397 41.2898 48.0001 41.4572 49.0043C41.6794 50.2581 41.7851 51.5301 41.773 52.8037V61.4407C41.773 62.1822 41.773 62.9803 41.8572 63.8489C41.9414 64.7175 41.9905 65.3955 42.0747 65.911H39.1136ZM38.5663 55.4096H37.0016C36.3709 55.4084 35.7414 55.4651 35.121 55.5791C34.5411 55.6816 33.9889 55.9053 33.5001 56.2359C33.0015 56.5815 32.6003 57.051 32.3354 57.5989C32.0241 58.2601 31.8726 58.9861 31.8933 59.7175C31.7999 60.7552 32.1007 61.7899 32.7353 62.613C32.9758 62.8958 33.2738 63.1234 33.609 63.2805C33.9443 63.4377 34.3091 63.5207 34.679 63.524C35.352 63.5453 36.0083 63.3108 36.5174 62.8673C37.0314 62.3975 37.4424 61.825 37.7243 61.1865C38.033 60.4749 38.2432 59.724 38.3488 58.9548C38.472 58.1889 38.5354 57.4144 38.5382 56.6384L38.5663 55.4096Z" fill="#404041"/>
<path d="M49.8843 38.2345C49.9004 38.8687 49.6657 39.4834 49.2317 39.9435C49.0324 40.1678 48.7879 40.3468 48.5144 40.4686C48.241 40.5904 47.9449 40.6521 47.6459 40.6497C47.3481 40.6511 47.0534 40.5889 46.7812 40.4672C46.5091 40.3454 46.2657 40.1669 46.0671 39.9435C45.8524 39.7105 45.6854 39.4371 45.5758 39.1389C45.4662 38.8408 45.4162 38.5239 45.4286 38.2062C45.4169 37.5796 45.6456 36.9726 46.0671 36.5113C46.2715 36.2886 46.5194 36.1108 46.7954 35.9892C47.0713 35.8677 47.3693 35.8049 47.6705 35.8049C47.9717 35.8049 48.2697 35.8677 48.5456 35.9892C48.8216 36.1108 49.0695 36.2886 49.2738 36.5113C49.6894 36.9856 49.908 37.6025 49.8843 38.2345ZM45.8356 65.911V44.5692H49.4212V65.911H45.8356Z" fill="#404041"/>
<path d="M66.7388 42.9944C66.2541 42.4013 65.6487 41.9197 64.9635 41.5819C64.3075 41.2613 63.5877 41.0947 62.8584 41.0947C62.1152 41.0867 61.3919 41.336 60.8095 41.8009C60.486 42.1016 60.236 42.4735 60.0789 42.8876C59.9219 43.3017 59.8622 43.7467 59.9044 44.1879C59.8721 44.6055 59.9364 45.025 60.0922 45.4134C60.2481 45.8018 60.4912 46.1486 60.8025 46.4266C61.6733 47.1016 62.6144 47.6793 63.6093 48.1497C64.3109 48.4887 65.0126 48.8913 65.7564 49.3644C66.52 49.84 67.2142 50.4199 67.8194 51.0876C68.4696 51.8108 68.9939 52.6393 69.3701 53.5382C69.7812 54.6063 69.9699 55.7481 69.9244 56.8927C69.9741 58.3611 69.7356 59.825 69.2227 61.2006C68.7508 62.3641 68.0324 63.4101 67.1177 64.2656C66.2521 65.0643 65.2355 65.6792 64.1285 66.0735C63.0034 66.4819 61.8161 66.6898 60.6201 66.6879C58.9283 66.7098 57.2522 66.3604 55.7083 65.6639C54.3859 65.092 53.1762 64.2859 52.1367 63.2839L55.603 58.185C56.2458 58.8615 57.0039 59.4165 57.8414 59.8235C58.6422 60.2228 59.5229 60.4329 60.4166 60.4379C60.8031 60.4522 61.1886 60.3884 61.5502 60.2501C61.9118 60.1118 62.2421 59.9019 62.5216 59.6328C62.8126 59.3385 63.0386 58.9857 63.1849 58.5975C63.3312 58.2093 63.3945 57.7944 63.3707 57.38C63.3904 56.9338 63.3091 56.4889 63.1328 56.0791C62.9566 55.6692 62.69 55.305 62.3532 55.0141C61.4429 54.2865 60.4516 53.6679 59.3991 53.1709C58.6033 52.7833 57.8344 52.3421 57.0976 51.8503C56.3787 51.3703 55.7374 50.782 55.1961 50.1059C54.6284 49.3963 54.1912 48.5903 53.905 47.726C53.5753 46.6807 53.4188 45.588 53.4418 44.4915C53.4052 43.0106 53.6852 41.5391 54.2628 40.1766C54.7614 39.048 55.4962 38.0411 56.417 37.2246C57.2738 36.4864 58.2619 35.9184 59.329 35.5509C60.3817 35.1887 61.4863 35.0026 62.5988 35C64.1014 34.975 65.5941 35.2486 66.9914 35.8051C68.2226 36.2899 69.3337 37.0395 70.2472 38.0014L66.7388 42.9944Z" fill="#7B3972"/>
<path d="M72.9912 65.911V35.8051H87.4669V41.8009H79.4537V47.7119H86.8074V53.3616H79.4537V59.7882H87.9441V65.911H72.9912Z" fill="#7B3972"/>
<path d="M22.2101 70.9534C22.0456 70.7059 21.8201 70.5056 21.5557 70.3719C21.2913 70.2382 20.997 70.1758 20.7015 70.1907C20.4957 70.1921 20.2907 70.2182 20.091 70.2684C19.899 70.3222 19.7183 70.4107 19.5577 70.5297C19.4014 70.6462 19.2721 70.7956 19.1788 70.9675C19.0835 71.1655 19.0355 71.3832 19.0385 71.6031C19.0264 71.7529 19.0451 71.9035 19.0934 72.0456C19.1417 72.1878 19.2186 72.3184 19.3192 72.4294C19.534 72.6346 19.7835 72.7996 20.0559 72.9167C20.3723 73.0454 20.6956 73.1562 21.0243 73.2486C21.3585 73.3465 21.681 73.4815 21.9856 73.6511C22.2759 73.8133 22.5273 74.0375 22.7223 74.3079C22.9351 74.6419 23.0382 75.0347 23.017 75.4308C23.0244 75.7627 22.9471 76.0909 22.7925 76.3842C22.6483 76.6592 22.4473 76.9 22.2031 77.0904C21.9534 77.2819 21.6735 77.43 21.3751 77.5283C21.0794 77.6313 20.7688 77.6838 20.4559 77.6836C19.9891 77.6848 19.5265 77.5936 19.0946 77.4153C18.6583 77.2275 18.2802 76.925 18 76.5396L18.7017 76.017C18.8688 76.3111 19.1111 76.555 19.4034 76.7232C19.7276 76.9025 20.0931 76.9926 20.4629 76.9845C20.6656 76.9827 20.8668 76.9493 21.0593 76.8856C21.2522 76.8269 21.4328 76.7336 21.5926 76.6102C21.7497 76.4896 21.881 76.3382 21.9785 76.1653C22.0851 75.9786 22.1385 75.766 22.1329 75.5509C22.1462 75.304 22.0877 75.0586 21.9645 74.8446C21.8458 74.6672 21.6902 74.5178 21.5084 74.4068C21.3101 74.2754 21.0954 74.1709 20.8699 74.0961L20.1682 73.856C19.9156 73.7712 19.67 73.6794 19.4314 73.5805C19.2005 73.4809 18.9853 73.3477 18.7929 73.185C18.6023 73.0196 18.4492 72.8149 18.3438 72.5848C18.2226 72.2995 18.1651 71.9909 18.1754 71.6808C18.168 71.3415 18.2401 71.0052 18.3859 70.6992C18.5233 70.4237 18.7198 70.1825 18.9613 69.993C19.2012 69.8138 19.4726 69.682 19.7612 69.6045C20.0617 69.5141 20.3738 69.4689 20.6874 69.4704C21.0971 69.4645 21.5041 69.5364 21.8873 69.6822C22.2723 69.8349 22.6161 70.0769 22.8907 70.3884L22.2101 70.9534Z" fill="#3B3A3D"/>
<path d="M26.5187 77.5H25.7188V69.654H26.5117L26.5187 77.5Z" fill="#3B3A3D"/>
<path d="M35.3735 76.3065V69.654H36.1664V77.5H35.191L30.5459 70.7839V77.5H29.7319V69.654H30.7283L35.3735 76.3065Z" fill="#3B3A3D"/>
<path d="M45.1482 71.0947C44.8777 70.8142 44.5561 70.5888 44.2009 70.4308C43.7963 70.2628 43.3615 70.181 42.9239 70.1907C42.4603 70.1834 42.0006 70.2774 41.5766 70.4661C41.1948 70.6408 40.8531 70.8933 40.5732 71.2077C40.2963 71.5241 40.0819 71.8908 39.9417 72.2882C39.8043 72.7046 39.7402 73.1419 39.7522 73.5805C39.7514 74.0189 39.8274 74.454 39.9768 74.8658C40.1153 75.264 40.3298 75.6311 40.6083 75.9464C40.8819 76.247 41.2107 76.4916 41.5766 76.6667C42.0006 76.8554 42.4603 76.9494 42.9239 76.9421C43.3145 76.9433 43.7037 76.8935 44.0816 76.7938C44.4291 76.6986 44.7637 76.5611 45.078 76.3842V73.7924H43.2186V73.0862H45.8709V76.928C45.4197 77.1941 44.9329 77.3938 44.4255 77.5212C43.936 77.6553 43.4311 77.7242 42.9239 77.726C42.3705 77.7341 41.8213 77.6284 41.31 77.4153C40.8269 77.2208 40.3877 76.9301 40.0189 76.5608C39.6524 76.1864 39.3638 75.7422 39.1698 75.2543C38.7585 74.1939 38.7585 73.0166 39.1698 71.9562C39.3592 71.4726 39.6431 71.0321 40.0047 70.6609C40.3662 70.2897 40.7982 69.9953 41.2749 69.7952C41.7874 69.586 42.3358 69.4804 42.8888 69.4845C43.4381 69.4712 43.9852 69.5597 44.5026 69.7458C44.9531 69.9222 45.3619 70.1916 45.7025 70.5368L45.1482 71.0947Z" fill="#3B3A3D"/>
<path d="M48.9233 77.5H47.9971L51.3862 69.654H52.1581L55.5472 77.5H54.621L53.786 75.4379H49.7793L48.9233 77.5ZM50.0741 74.6752H53.4562L51.7721 70.5509L50.0741 74.6752Z" fill="#3B3A3D"/>
<path d="M57.7085 69.654H59.9749C60.6394 69.6175 61.2974 69.801 61.8484 70.1766C62.0678 70.3752 62.2432 70.6181 62.3633 70.8894C62.4833 71.1607 62.5454 71.4544 62.5454 71.7514C62.5454 72.0484 62.4833 72.3421 62.3633 72.6134C62.2432 72.8847 62.0678 73.1276 61.8484 73.3263C61.2997 73.7072 60.6405 73.8936 59.9749 73.8559H58.5014V77.5H57.7085V69.654ZM58.5014 73.1356H59.7785C60.0789 73.1417 60.3788 73.106 60.6696 73.0297C60.8827 72.9687 61.0827 72.8681 61.259 72.7331C61.3998 72.618 61.5106 72.4701 61.5818 72.3023C61.7125 71.959 61.7125 71.5792 61.5818 71.2359C61.509 71.067 61.3986 70.9171 61.259 70.798C61.0838 70.6628 60.8834 70.5643 60.6696 70.5085C60.3788 70.4321 60.0789 70.3965 59.7785 70.4026H58.5014V73.1356Z" fill="#3B3A3D"/>
<path d="M72.7314 73.5805C72.7375 74.154 72.6302 74.723 72.4157 75.2543C72.2191 75.7425 71.9281 76.1866 71.5596 76.5608C71.187 76.9149 70.7481 77.191 70.2685 77.3729C69.2343 77.7869 68.082 77.7869 67.0478 77.3729C66.5647 77.1784 66.1255 76.8878 65.7567 76.5184C65.3927 76.1583 65.104 75.7284 64.9076 75.2543C64.4963 74.1939 64.4963 73.0166 64.9076 71.9562C65.0991 71.4691 65.3881 71.0268 65.7567 70.6568C66.1251 70.2852 66.5642 69.9922 67.0478 69.7952C68.082 69.3812 69.2343 69.3812 70.2685 69.7952C70.7518 69.9927 71.1908 70.2857 71.5596 70.6569C71.9283 71.028 72.2195 71.4699 72.4157 71.9562C72.6237 72.4722 72.7309 73.0237 72.7314 73.5805ZM71.8683 73.5805C71.8715 73.1403 71.7979 72.7028 71.6508 72.2882C71.5106 71.8908 71.2962 71.5241 71.0193 71.2076C70.7355 70.8946 70.3918 70.6424 70.0089 70.4661C69.5839 70.2845 69.1269 70.1909 68.6652 70.1909C68.2034 70.1909 67.7464 70.2845 67.3214 70.4661C66.9396 70.6408 66.5979 70.8933 66.318 71.2076C66.0389 71.5237 65.8222 71.8904 65.6795 72.2882C65.5358 72.7037 65.4623 73.1405 65.462 73.5805C65.4623 74.0182 65.5358 74.4527 65.6795 74.8658C65.8168 75.2688 66.0314 75.6407 66.311 75.9605C66.5963 76.2598 66.9372 76.4997 67.3144 76.6667C67.7394 76.8483 68.1964 76.9419 68.6581 76.9419C69.1199 76.9419 69.5769 76.8483 70.0019 76.6667C70.3802 76.498 70.7231 76.2584 71.0123 75.9605C71.2908 75.6452 71.5053 75.2781 71.6438 74.88C71.7925 74.4633 71.8662 74.0232 71.8613 73.5805H71.8683Z" fill="#3B3A3D"/>
<path d="M76.1977 77.5H75.4048V69.654H77.8045C78.4711 69.6185 79.131 69.8019 79.6851 70.1766C79.9208 70.3615 80.1081 70.6017 80.2304 70.8762C80.3527 71.1508 80.4064 71.4512 80.3867 71.7514C80.4067 72.2716 80.2227 72.7789 79.8745 73.1639C79.4813 73.5625 78.9517 73.7949 78.394 73.8136L80.6393 77.5353H79.657L77.5519 73.8913H76.1977V77.5ZM76.1977 73.1215H77.6011C77.9038 73.1276 78.206 73.092 78.4992 73.0156C78.7124 72.9546 78.9123 72.854 79.0886 72.719C79.2295 72.6056 79.3384 72.4571 79.4044 72.2882C79.5351 71.9449 79.5351 71.5651 79.4044 71.2218C79.3367 71.0518 79.2282 70.9014 79.0886 70.7839C78.9134 70.6487 78.713 70.5502 78.4992 70.4944C78.2197 70.4217 77.9319 70.3861 77.6432 70.3884H76.2398L76.1977 73.1215Z" fill="#3B3A3D"/>
<path d="M83.8251 76.7726H88.0352V77.4788H83.0322V69.654H87.8668V70.3602H83.8251V73.0297H87.6072V73.7359H83.8251V76.7726Z" fill="#3B3A3D"/>
<path d="M26.8762 81.1299C26.7841 81.01 26.6634 80.9153 26.5254 80.8545C26.389 80.7909 26.2407 80.7572 26.0903 80.7557C25.8421 80.7548 25.5999 80.8328 25.3983 80.9787C25.1967 81.1245 25.046 81.3307 24.9676 81.5678C24.8508 81.8942 24.8508 82.2513 24.9676 82.5777C25.0204 82.7283 25.1014 82.8673 25.2062 82.9873C25.3123 83.1044 25.4413 83.1981 25.5851 83.2627C25.7467 83.3326 25.9215 83.3664 26.0974 83.3616C26.2679 83.366 26.4368 83.3271 26.5885 83.2486C26.7313 83.1698 26.8539 83.0586 26.9464 82.9237L27.3183 83.2062L27.192 83.3545C27.1169 83.4265 27.0346 83.4904 26.9464 83.5452C26.8312 83.613 26.7088 83.6675 26.5815 83.7076C26.4228 83.7583 26.2568 83.7822 26.0903 83.7783C25.8484 83.7817 25.6088 83.731 25.3887 83.6299C25.1886 83.5382 25.0094 83.406 24.8624 83.2415C24.7187 83.086 24.6066 82.9037 24.5326 82.7048C24.456 82.509 24.4156 82.3008 24.4133 82.0904C24.4096 81.849 24.4525 81.6091 24.5396 81.3842C24.6162 81.177 24.7331 80.9873 24.8834 80.8263C25.0369 80.6699 25.2208 80.5473 25.4237 80.4661C25.6468 80.3768 25.8854 80.3336 26.1254 80.339C26.3416 80.3377 26.5561 80.3784 26.7569 80.459C26.9553 80.5399 27.1294 80.6714 27.2621 80.8404L26.8762 81.1299Z" fill="#3B3A3D"/>
<path d="M28.0482 82.7543C28.0465 82.8454 28.0683 82.9354 28.1113 83.0156C28.1531 83.0926 28.2077 83.1619 28.2727 83.2204C28.345 83.2752 28.4256 83.3181 28.5113 83.3475C28.5997 83.3759 28.6921 83.3902 28.7849 83.3899C28.9025 83.3904 29.0183 83.3613 29.1217 83.3051C29.2197 83.2386 29.3073 83.1577 29.3814 83.065L29.6971 83.3051C29.5824 83.4514 29.4348 83.568 29.2664 83.6454C29.098 83.7228 28.9137 83.7586 28.7288 83.75C28.5704 83.7519 28.4132 83.7232 28.2657 83.6653C28.1314 83.6105 28.0097 83.5288 27.9078 83.4252C27.8128 83.3178 27.7389 83.1932 27.6903 83.0579C27.6358 82.9137 27.6096 82.7602 27.6131 82.606C27.6112 82.4489 27.6398 82.293 27.6973 82.1469C27.7509 82.011 27.8295 81.8864 27.9289 81.7797C28.0307 81.676 28.1525 81.5943 28.2867 81.5396C28.4294 81.4818 28.582 81.453 28.7358 81.4548C28.905 81.4478 29.0735 81.4817 29.227 81.5537C29.3535 81.6172 29.4639 81.709 29.5498 81.8221C29.6372 81.9301 29.7017 82.0551 29.7392 82.1893C29.7756 82.3252 29.7944 82.4652 29.7953 82.606V82.7543H28.0482ZM29.3533 82.4223C29.3549 82.3357 29.3406 82.2495 29.3112 82.1681C29.2868 82.0939 29.246 82.0263 29.1919 81.9704C29.1417 81.9063 29.0731 81.8594 28.9954 81.8362C28.911 81.8009 28.8201 81.784 28.7288 81.7867C28.6321 81.7829 28.5359 81.8023 28.4481 81.8432C28.367 81.8785 28.2932 81.9288 28.2306 81.9916C28.1774 82.0536 28.1326 82.1225 28.0973 82.1964C28.0687 82.2685 28.0521 82.3448 28.0482 82.4223H29.3533Z" fill="#3B3A3D"/>
<path d="M30.2936 81.5042H30.7076V81.8432C30.7633 81.7221 30.857 81.6229 30.9743 81.5607C31.1129 81.4884 31.2672 81.452 31.4233 81.4548C31.5254 81.4545 31.627 81.4688 31.7251 81.4972C31.8193 81.5303 31.9054 81.5833 31.9777 81.6525C32.0524 81.7259 32.11 81.8152 32.1461 81.9138C32.191 82.0333 32.2124 82.1604 32.2092 82.2881V83.7006H31.8023V82.4011C31.8038 82.3122 31.7895 82.2237 31.7602 82.1398C31.737 82.075 31.6984 82.0168 31.6479 81.9703C31.6031 81.9244 31.5476 81.8905 31.4865 81.8715C31.4262 81.8608 31.3644 81.8608 31.3041 81.8715C31.2252 81.8567 31.1443 81.8567 31.0655 81.8715C30.9909 81.901 30.9238 81.9468 30.869 82.0056C30.8134 82.0725 30.7706 82.1491 30.7427 82.2316C30.7132 82.3397 30.699 82.4515 30.7006 82.5636V83.7288H30.2866L30.2936 81.5042Z" fill="#3B3A3D"/>
<path d="M34.0125 81.8644H33.4371V82.8602C33.4371 82.9237 33.4371 82.9802 33.4371 83.0438C33.4372 83.0998 33.4492 83.1552 33.4722 83.2062C33.4902 83.2525 33.5221 83.292 33.5634 83.3192C33.6186 83.3516 33.6822 83.3664 33.7458 83.3616H33.8932C33.9452 83.3514 33.995 83.3323 34.0405 83.3051V83.6865C33.9822 83.7188 33.9175 83.738 33.8511 83.7429C33.7904 83.7485 33.7293 83.7485 33.6686 83.7429C33.5415 83.7496 33.4145 83.7279 33.2968 83.6794C33.2163 83.6399 33.1483 83.5788 33.1003 83.5028C33.0624 83.4304 33.0385 83.3513 33.0301 83.2698C33.0301 83.178 33.0301 83.0932 33.0301 83.0014V81.8644H32.5249V81.5042H33.002V80.904H33.4371V81.5184H34.0335L34.0125 81.8644Z" fill="#3B3A3D"/>
<path d="M34.5459 81.5043H34.9599V81.8433C34.9867 81.7845 35.0249 81.7317 35.0722 81.6879C35.1156 81.6365 35.1679 81.5934 35.2265 81.5608C35.2834 81.5263 35.3448 81.5002 35.409 81.4831C35.4764 81.4731 35.545 81.4731 35.6125 81.4831C35.6731 81.4758 35.7343 81.4758 35.7949 81.4831V81.9351H35.6967H35.5984C35.5121 81.9293 35.4256 81.942 35.3445 81.9725C35.2635 82.0029 35.1898 82.0503 35.1283 82.1116C35.0123 82.2623 34.9572 82.4514 34.9739 82.6413V83.7288H34.5599L34.5459 81.5043Z" fill="#3B3A3D"/>
<path d="M36.4686 82.7543C36.4669 82.8454 36.4887 82.9354 36.5317 83.0156C36.5745 83.0939 36.6316 83.1634 36.7001 83.2204C36.7686 83.2771 36.8472 83.3202 36.9317 83.3475C37.0203 83.3753 37.1125 83.3896 37.2053 83.3899C37.3229 83.3904 37.4387 83.3613 37.5421 83.3051C37.6402 83.2386 37.7277 83.1577 37.8018 83.065L38.1175 83.3051C38.0029 83.4514 37.8552 83.568 37.6868 83.6454C37.5184 83.7228 37.3341 83.7586 37.1492 83.75C36.9909 83.7519 36.8336 83.7232 36.6861 83.6653C36.5518 83.6105 36.4301 83.5288 36.3282 83.4252C36.2332 83.3178 36.1593 83.1932 36.1107 83.0579C36.0562 82.9137 36.03 82.7602 36.0335 82.606C36.0317 82.4489 36.0603 82.293 36.1177 82.1469C36.1713 82.011 36.2499 81.8864 36.3493 81.7797C36.4511 81.676 36.5729 81.5943 36.7071 81.5396C36.8498 81.4818 37.0024 81.453 37.1562 81.4548C37.3254 81.4478 37.4939 81.4817 37.6474 81.5537C37.7739 81.6172 37.8843 81.709 37.9702 81.8221C38.0577 81.9301 38.1221 82.0551 38.1596 82.1893C38.196 82.3252 38.2148 82.4652 38.2158 82.606V82.7543H36.4686ZM37.7737 82.4223C37.7753 82.3357 37.761 82.2495 37.7316 82.1681C37.7072 82.0939 37.6664 82.0263 37.6123 81.9704C37.5634 81.9081 37.4976 81.8615 37.4229 81.8362C37.3358 81.8015 37.2428 81.7847 37.1492 81.7867C37.0525 81.7829 36.9563 81.8023 36.8685 81.8432C36.788 81.8759 36.716 81.9266 36.658 81.9916C36.6004 82.0516 36.553 82.1208 36.5177 82.1964C36.4891 82.2685 36.4725 82.3448 36.4686 82.4223H37.7737Z" fill="#3B3A3D"/>
<path d="M40.1523 81.8644H39.6821V81.5043H40.1523V81.017C40.1364 80.7855 40.1955 80.555 40.3207 80.3602C40.3944 80.2834 40.4845 80.2244 40.5842 80.1877C40.6838 80.151 40.7905 80.1376 40.896 80.1483H41.0364C41.0921 80.1387 41.1491 80.1387 41.2048 80.1483L41.1557 80.5509H41.0434H40.9241C40.8616 80.5381 40.7972 80.5381 40.7347 80.5509C40.6916 80.5741 40.6553 80.6081 40.6294 80.6497C40.6007 80.6967 40.5839 80.7501 40.5803 80.8051C40.5761 80.8733 40.5761 80.9417 40.5803 81.0099V81.5113H41.0715V81.8715H40.5803V83.7288H40.1663L40.1523 81.8644Z" fill="#3B3A3D"/>
<path d="M41.4151 82.606C41.4138 82.4512 41.4424 82.2977 41.4993 82.154C41.5604 82.0187 41.6434 81.8946 41.7449 81.7867C41.8528 81.6822 41.9789 81.5984 42.1168 81.5396C42.408 81.4263 42.7307 81.4263 43.0219 81.5396C43.1598 81.5984 43.2859 81.6822 43.3938 81.7867C43.5005 81.8937 43.5852 82.0208 43.643 82.1608C43.7008 82.3008 43.7305 82.4508 43.7305 82.6024C43.7305 82.754 43.7008 82.9041 43.643 83.0441C43.5852 83.184 43.5005 83.3111 43.3938 83.4181C43.2859 83.5226 43.1598 83.6064 43.0219 83.6653C42.7307 83.7785 42.408 83.7785 42.1168 83.6653C41.9789 83.6064 41.8528 83.5226 41.7449 83.4181C41.6434 83.3102 41.5604 83.1861 41.4993 83.0509C41.4431 82.9094 41.4145 82.7583 41.4151 82.606ZM41.8571 82.606C41.8551 82.7093 41.8718 82.8122 41.9063 82.9096C41.9367 82.9982 41.9844 83.0799 42.0466 83.1497C42.1095 83.2172 42.1861 83.2702 42.2711 83.3051C42.3663 83.3461 42.4694 83.3654 42.5729 83.3616C42.674 83.3644 42.7745 83.3451 42.8676 83.3051C42.9526 83.2702 43.0292 83.2172 43.0921 83.1497C43.1574 83.0822 43.2055 82.9998 43.2324 82.9096C43.2692 82.8126 43.2882 82.7098 43.2886 82.606C43.2955 82.5085 43.286 82.4106 43.2605 82.3164C43.2336 82.2262 43.1854 82.1438 43.1202 82.0763C43.0573 82.0088 42.9807 81.9559 42.8956 81.9209C42.8026 81.8809 42.7021 81.8617 42.6009 81.8644C42.4974 81.8606 42.3944 81.8799 42.2992 81.9209C42.2141 81.9559 42.1375 82.0088 42.0747 82.0763C42.0125 82.1462 41.9648 82.2278 41.9343 82.3164C41.8921 82.4077 41.866 82.5057 41.8571 82.606Z" fill="#3B3A3D"/>
<path d="M44.2432 81.5043H44.6642V81.8432C44.6884 81.7848 44.7242 81.7319 44.7694 81.6879C44.8159 81.6397 44.8677 81.597 44.9238 81.5607C44.9832 81.5264 45.0469 81.5003 45.1133 81.4831C45.1807 81.4722 45.2493 81.4722 45.3167 81.4831C45.3773 81.4757 45.4386 81.4757 45.4992 81.4831V81.935H45.4009H45.2957C45.2104 81.9294 45.125 81.9422 45.0451 81.9727C44.9652 82.0031 44.8927 82.0505 44.8326 82.1116C44.7141 82.2612 44.6564 82.4505 44.6712 82.6413V83.7288H44.2432V81.5043Z" fill="#3B3A3D"/>
<path d="M48.1232 83.0226C48.1967 83.1372 48.3014 83.228 48.425 83.2839C48.5461 83.3396 48.6777 83.3685 48.8109 83.3687C48.8854 83.3786 48.9609 83.3786 49.0354 83.3687C49.1096 83.342 49.1802 83.3064 49.2459 83.2627C49.3063 83.2151 49.3584 83.1578 49.4003 83.0932C49.4378 83.0189 49.457 82.9365 49.4565 82.8531C49.459 82.799 49.4497 82.745 49.429 82.6949C49.4084 82.6448 49.377 82.6 49.3372 82.5636C49.249 82.4927 49.1493 82.4377 49.0425 82.4012C48.9232 82.3517 48.7969 82.3093 48.6565 82.267C48.5205 82.2295 48.3905 82.1724 48.2706 82.0975C48.1524 82.021 48.0519 81.9198 47.9759 81.8009C47.8873 81.6469 47.8458 81.47 47.8566 81.2924C47.8586 81.1881 47.88 81.0851 47.9198 80.9887C47.9616 80.8776 48.0261 80.7765 48.1092 80.6921C48.209 80.5961 48.3256 80.5195 48.453 80.4661C48.6146 80.406 48.786 80.3772 48.9583 80.3814C49.1292 80.3796 49.2995 80.4034 49.4635 80.452C49.6334 80.5034 49.7831 80.6071 49.8915 80.7486L49.5336 81.0805C49.4756 80.993 49.3958 80.9224 49.3021 80.8757C49.1966 80.8184 49.0782 80.7892 48.9583 80.791C48.8533 80.7901 48.749 80.8068 48.6495 80.8404C48.5774 80.8714 48.511 80.9144 48.453 80.9675C48.4089 81.0138 48.3753 81.0692 48.3548 81.13C48.3456 81.1837 48.3456 81.2386 48.3548 81.2924C48.3503 81.3516 48.3594 81.411 48.3813 81.4661C48.4032 81.5211 48.4373 81.5704 48.4811 81.6102C48.5662 81.6905 48.6664 81.7529 48.7758 81.7938C48.8951 81.8362 49.0214 81.8786 49.1617 81.9139C49.2952 81.9527 49.4244 82.0048 49.5477 82.0692C49.6633 82.1372 49.7636 82.2286 49.8424 82.3376C49.928 82.4773 49.9696 82.6398 49.9617 82.8037C49.9648 82.9502 49.9335 83.0954 49.8704 83.2274C49.8154 83.3499 49.7339 83.4585 49.6319 83.5452C49.5261 83.635 49.4048 83.7044 49.274 83.75C49.1305 83.7929 48.9816 83.8143 48.8319 83.8136C48.6284 83.8147 48.4264 83.7788 48.2355 83.7077C48.0591 83.6359 47.906 83.516 47.7935 83.3616L48.1232 83.0226Z" fill="#7B3972"/>
<path d="M50.3687 82.606C50.3674 82.4512 50.396 82.2977 50.4529 82.154C50.514 82.0187 50.597 81.8946 50.6985 81.7867C50.8064 81.6822 50.9325 81.5984 51.0704 81.5396C51.3616 81.4263 51.6843 81.4263 51.9756 81.5396C52.1135 81.5984 52.2395 81.6822 52.3474 81.7867C52.4542 81.8937 52.5388 82.0208 52.5966 82.1608C52.6544 82.3008 52.6841 82.4508 52.6841 82.6024C52.6841 82.754 52.6544 82.9041 52.5966 83.0441C52.5388 83.184 52.4542 83.3111 52.3474 83.4181C52.2395 83.5226 52.1135 83.6064 51.9756 83.6653C51.6843 83.7785 51.3616 83.7785 51.0704 83.6653C50.9325 83.6064 50.8064 83.5226 50.6985 83.4181C50.597 83.3102 50.514 83.1861 50.4529 83.0509C50.3967 82.9094 50.3681 82.7583 50.3687 82.606ZM50.8108 82.606C50.8087 82.7093 50.8254 82.8122 50.8599 82.9096C50.8903 82.9982 50.9381 83.0799 51.0002 83.1497C51.0631 83.2172 51.1397 83.2702 51.2247 83.3051C51.3199 83.3461 51.423 83.3654 51.5265 83.3616C51.6276 83.3644 51.7281 83.3451 51.8212 83.3051C51.9072 83.2719 51.9841 83.2187 52.0457 83.1497C52.1104 83.0805 52.1605 82.9988 52.1931 82.9096C52.2584 82.7101 52.2584 82.4947 52.1931 82.2952C52.1605 82.206 52.1104 82.1243 52.0457 82.0551C51.9841 81.9862 51.9072 81.9329 51.8212 81.8997C51.7281 81.8597 51.6276 81.8405 51.5265 81.8432C51.423 81.8394 51.3199 81.8587 51.2247 81.8997C51.1397 81.9347 51.0631 81.9877 51.0002 82.0551C50.9381 82.125 50.8903 82.2066 50.8599 82.2952C50.8248 82.3949 50.8082 82.5002 50.8108 82.606Z" fill="#7B3972"/>
<path d="M54.7541 82.0904C54.6848 82.0167 54.6043 81.9547 54.5155 81.9068C54.4213 81.8619 54.3179 81.8401 54.2138 81.8432C54.1119 81.841 54.011 81.8627 53.9191 81.9068C53.8375 81.9472 53.7656 82.005 53.7086 82.0763C53.6518 82.1539 53.6068 82.2395 53.5752 82.3305C53.547 82.4244 53.5328 82.522 53.5331 82.6201C53.5345 82.7185 53.5511 82.8162 53.5822 82.9096C53.6161 82.9982 53.6661 83.0796 53.7296 83.1497C53.7898 83.217 53.8641 83.2701 53.9471 83.3051C54.0374 83.3461 54.1359 83.3655 54.2348 83.3616C54.3384 83.3669 54.4418 83.3475 54.5365 83.3051C54.6243 83.2587 54.7028 83.1965 54.7681 83.1215L55.0558 83.4181C54.9557 83.5337 54.8276 83.6212 54.6839 83.6723C54.5405 83.7267 54.388 83.753 54.2348 83.75C54.0769 83.7541 53.9197 83.7278 53.7717 83.6723C53.6379 83.62 53.5161 83.5407 53.4138 83.4393C53.3116 83.3361 53.2305 83.2138 53.1753 83.0791C53.0633 82.7786 53.0633 82.4474 53.1753 82.1469C53.2271 82.01 53.3059 81.8851 53.4068 81.7797C53.5148 81.6735 53.644 81.5917 53.7857 81.5395C53.9356 81.4811 54.0952 81.4523 54.2559 81.4548C54.4118 81.4548 54.5663 81.4835 54.712 81.5395C54.8555 81.5981 54.9848 81.6872 55.0909 81.8008L54.7541 82.0904Z" fill="#7B3972"/>
<path d="M55.3505 80.7204C55.3495 80.6811 55.3565 80.6422 55.3709 80.6057C55.3854 80.5693 55.4071 80.5362 55.4347 80.5085C55.4627 80.4789 55.4965 80.4555 55.5339 80.4397C55.5713 80.4239 55.6116 80.4161 55.6522 80.4167C55.7316 80.4185 55.8074 80.4511 55.8636 80.5076C55.9198 80.5642 55.9521 80.6404 55.9539 80.7204C55.9545 80.7612 55.9467 80.8017 55.931 80.8394C55.9153 80.8771 55.8921 80.9111 55.8627 80.9393C55.8351 80.967 55.8023 80.9888 55.7661 81.0034C55.7299 81.018 55.6911 81.025 55.6522 81.024C55.612 81.0261 55.5719 81.0196 55.5344 81.005C55.4969 80.9905 55.4628 80.9682 55.4344 80.9396C55.4059 80.911 55.3838 80.8767 55.3693 80.8389C55.3549 80.8012 55.3484 80.7608 55.3505 80.7204ZM55.4417 81.5043H55.8908V83.7288H55.4768L55.4417 81.5043Z" fill="#7B3972"/>
<path d="M56.5225 81.7726C56.6416 81.6671 56.7798 81.5856 56.9294 81.5325C57.0756 81.4793 57.2301 81.453 57.3855 81.4548C57.5257 81.4498 57.6657 81.4689 57.7995 81.5113C57.9033 81.5451 57.999 81.6004 58.0802 81.6737C58.1508 81.7382 58.2059 81.8178 58.2416 81.9068C58.2784 81.9939 58.2975 82.0875 58.2977 82.1822V83.5099C58.3009 83.5734 58.3009 83.6371 58.2977 83.7006H57.9328C57.9328 83.5876 57.9328 83.4746 57.9328 83.3616C57.8564 83.4945 57.7413 83.6005 57.603 83.6653C57.4657 83.7245 57.3174 83.7534 57.168 83.75C57.0726 83.7642 56.9757 83.7642 56.8803 83.75C56.7928 83.725 56.7115 83.6817 56.6417 83.6229C56.5732 83.566 56.5161 83.4965 56.4733 83.4181C56.4355 83.3288 56.4164 83.2326 56.4172 83.1356C56.4113 83.0091 56.443 82.8837 56.5084 82.7754C56.5758 82.6785 56.6647 82.5988 56.768 82.5424C56.886 82.478 57.0142 82.4349 57.147 82.4153C57.302 82.3862 57.4594 82.372 57.6171 82.3729H57.9188V82.2458C57.9181 82.1898 57.9061 82.1346 57.8837 82.0833C57.8629 82.0248 57.8293 81.9717 57.7855 81.928C57.7411 81.8832 57.6887 81.8472 57.6311 81.822C57.5544 81.8102 57.4763 81.8102 57.3996 81.822C57.3296 81.814 57.259 81.814 57.1891 81.822L57.0277 81.8785C56.9793 81.9 56.9344 81.9285 56.8943 81.9633L56.7821 82.048L56.5225 81.7726ZM57.6873 82.6412C57.5891 82.6343 57.4907 82.6343 57.3925 82.6412C57.2961 82.6466 57.2013 82.6681 57.1119 82.7048C57.0327 82.7299 56.9606 82.7734 56.9014 82.8319C56.8502 82.8903 56.8226 82.9659 56.8242 83.0438C56.8194 83.0968 56.8285 83.1502 56.8507 83.1985C56.8729 83.2469 56.9073 83.2885 56.9505 83.3192C57.0546 83.373 57.1703 83.3997 57.2873 83.3969C57.3886 83.4022 57.4897 83.3828 57.582 83.3404C57.6562 83.3072 57.7213 83.2563 57.7715 83.1921C57.8188 83.1309 57.8545 83.0615 57.8767 82.9873C57.8986 82.9139 57.9104 82.8379 57.9118 82.7613V82.6201L57.6873 82.6412Z" fill="#7B3972"/>
<path d="M58.9292 80.1978H59.3432V83.7288H58.9292V80.1978Z" fill="#7B3972"/>
<path d="M61.6377 80.4238H63.7428V80.8404H62.0727V81.815H63.6094V82.2317H62.0657V83.2839H63.8199V83.7288H61.6377V80.4238Z" fill="#7B3972"/>
<path d="M64.311 81.5042H64.725V81.8432C64.7807 81.7221 64.8744 81.6229 64.9917 81.5607C65.1303 81.4884 65.2846 81.452 65.4407 81.4548C65.5428 81.4545 65.6444 81.4688 65.7425 81.4972C65.8356 81.5325 65.9213 81.5852 65.9951 81.6525C66.0698 81.7259 66.1274 81.8152 66.1635 81.9138C66.2084 82.0333 66.2298 82.1604 66.2266 82.2881V83.7006H65.8126V82.4011C65.8243 82.3144 65.8243 82.2265 65.8126 82.1398C65.787 82.0763 65.7488 82.0186 65.7004 81.9703C65.6555 81.9244 65.6001 81.8905 65.539 81.8715C65.4786 81.8608 65.4169 81.8608 65.3565 81.8715C65.2777 81.8562 65.1968 81.8562 65.118 81.8715C65.0434 81.901 64.9763 81.9468 64.9215 82.0056C64.8632 82.0705 64.82 82.1478 64.7952 82.2316C64.7631 82.3393 64.7466 82.4511 64.7461 82.5636V83.7288H64.311V81.5042Z" fill="#7B3972"/>
<path d="M68.0581 81.8644H67.4617V82.8602C67.4582 82.9213 67.4582 82.9826 67.4617 83.0438C67.4505 83.0974 67.4505 83.1527 67.4617 83.2062C67.4773 83.2539 67.5098 83.2941 67.5529 83.3192C67.6081 83.3516 67.6717 83.3664 67.7353 83.3616H67.8827C67.9325 83.3514 67.98 83.3323 68.023 83.3051V83.6864C67.9647 83.7188 67.9 83.738 67.8336 83.7429C67.7729 83.7489 67.7118 83.7489 67.6511 83.7429C67.5264 83.749 67.4018 83.7273 67.2863 83.6794C67.2045 83.642 67.1359 83.5804 67.0898 83.5028C67.0487 83.4317 67.0247 83.3519 67.0196 83.2698C67.0196 83.178 67.0196 83.0932 67.0196 83.0014V81.8644H66.5425V81.5042H67.0196V80.904H67.4336V81.5184H68.0301L68.0581 81.8644Z" fill="#7B3972"/>
<path d="M68.9002 82.7543C68.8985 82.8454 68.9203 82.9354 68.9633 83.0156C69.0028 83.0941 69.0577 83.1638 69.1247 83.2204C69.1955 83.2736 69.2734 83.3164 69.3562 83.3475C69.4471 83.3758 69.5418 83.3901 69.6369 83.3898C69.7525 83.3929 69.8667 83.3635 69.9667 83.3051C70.0669 83.2388 70.1568 83.1579 70.2334 83.065L70.5421 83.3051C70.4297 83.4521 70.2835 83.5695 70.116 83.647C69.9485 83.7245 69.7649 83.7599 69.5808 83.75C69.4201 83.7525 69.2605 83.7237 69.1107 83.6653C68.9794 83.6087 68.8603 83.5272 68.7598 83.4252C68.6625 83.3182 68.5863 83.1936 68.5353 83.0579C68.4841 82.9128 68.458 82.7599 68.4581 82.606C68.4562 82.4489 68.4848 82.293 68.5423 82.1469C68.5983 82.0106 68.6792 81.886 68.7809 81.7797C68.8814 81.6777 69.0005 81.5961 69.1317 81.5396C69.2768 81.4817 69.4317 81.4529 69.5878 81.4548C69.7548 81.4478 69.9209 81.4817 70.072 81.5537C70.2005 81.6171 70.3132 81.7088 70.4018 81.8221C70.4873 81.9304 70.5494 82.0554 70.5842 82.1893C70.6258 82.3242 70.6471 82.4647 70.6473 82.606V82.7543H68.9002ZM70.2053 82.4223C70.1993 82.3364 70.1852 82.2513 70.1632 82.1681C70.1361 82.0953 70.0956 82.0282 70.0439 81.9704C69.9923 81.9079 69.9242 81.8614 69.8474 81.8362C69.7607 81.8003 69.6674 81.7835 69.5738 81.7867C69.3897 81.7875 69.2133 81.8611 69.0826 81.9915C69.0266 82.0515 68.9815 82.1208 68.9493 82.1963C68.917 82.2673 68.9002 82.3443 68.9002 82.4223H70.2053Z" fill="#7B3972"/>
<path d="M71.1387 81.5043H71.5527V81.8432C71.582 81.786 71.6198 81.7336 71.6649 81.6879C71.7114 81.6397 71.7632 81.597 71.8193 81.5608C71.8787 81.5264 71.9424 81.5003 72.0088 81.4831C72.0738 81.4728 72.1401 81.4728 72.2052 81.4831C72.2681 81.4754 72.3318 81.4754 72.3947 81.4831V81.9351H72.2964H72.1912C72.1059 81.9284 72.0201 81.9408 71.9401 81.9713C71.86 82.0018 71.7876 82.0497 71.7281 82.1116C71.6096 82.2612 71.5519 82.4505 71.5667 82.6413V83.7288H71.1527L71.1387 81.5043Z" fill="#7B3972"/>
<path d="M72.8364 81.5043H73.2504V81.8221C73.3304 81.7018 73.4422 81.6064 73.5732 81.5466C73.7101 81.4852 73.8584 81.4539 74.0082 81.4548C74.1643 81.453 74.3192 81.4817 74.4643 81.5396C74.5962 81.5944 74.7138 81.679 74.8082 81.7868C74.9079 81.8919 74.9844 82.017 75.0327 82.154C75.1354 82.4464 75.1354 82.7655 75.0327 83.0579C74.9844 83.1949 74.9079 83.3201 74.8082 83.4252C74.7115 83.5285 74.5943 83.6103 74.4643 83.6653C74.3192 83.7231 74.1643 83.7519 74.0082 83.75C73.8551 83.7541 73.7032 83.7201 73.5662 83.6512C73.4365 83.5956 73.3265 83.5021 73.2504 83.3828V85H72.8364V81.5043ZM73.9661 81.8432C73.865 81.8405 73.7645 81.8598 73.6714 81.8997C73.5863 81.9347 73.5098 81.9877 73.4469 82.0551C73.3822 82.1244 73.3321 82.206 73.2995 82.2952C73.2342 82.4948 73.2342 82.7101 73.2995 82.9096C73.3321 82.9988 73.3822 83.0805 73.4469 83.1497C73.5098 83.2172 73.5863 83.2702 73.6714 83.3051C73.7645 83.3451 73.865 83.3644 73.9661 83.3616C74.0696 83.3654 74.1727 83.3461 74.2679 83.3051C74.3529 83.2702 74.4295 83.2172 74.4924 83.1497C74.5577 83.0822 74.6058 82.9999 74.6327 82.9096C74.6695 82.8126 74.6885 82.7098 74.6889 82.606C74.6892 82.4998 74.6702 82.3945 74.6327 82.2952C74.6058 82.205 74.5577 82.1226 74.4924 82.0551C74.4295 81.9877 74.3529 81.9347 74.2679 81.8997C74.1727 81.8587 74.0696 81.8394 73.9661 81.8432Z" fill="#7B3972"/>
<path d="M75.6436 81.5043H76.0575V81.8432C76.0868 81.786 76.1247 81.7336 76.1698 81.6879C76.2163 81.6397 76.2681 81.597 76.3242 81.5608C76.3836 81.5264 76.4473 81.5003 76.5136 81.4831C76.5787 81.4728 76.645 81.4728 76.7101 81.4831C76.773 81.4754 76.8366 81.4754 76.8996 81.4831V81.9351H76.8013H76.6961C76.6107 81.9284 76.525 81.9408 76.445 81.9713C76.3649 82.0018 76.2925 82.0497 76.233 82.1116C76.1145 82.2612 76.0568 82.4505 76.0716 82.6413V83.7288H75.6576L75.6436 81.5043Z" fill="#7B3972"/>
<path d="M77.2785 80.7204C77.2771 80.6804 77.2845 80.6407 77.3003 80.604C77.3161 80.5674 77.3398 80.5348 77.3697 80.5085C77.3967 80.4795 77.4293 80.4564 77.4655 80.4406C77.5017 80.4248 77.5407 80.4166 77.5802 80.4167C77.6609 80.4167 77.7384 80.4484 77.7961 80.5052C77.8538 80.5619 77.8871 80.6392 77.889 80.7204C77.8871 80.8023 77.8545 80.8805 77.7977 80.9393C77.7386 80.9944 77.6608 81.0248 77.5802 81.024C77.5019 81.0237 77.4267 80.9934 77.3697 80.9393C77.3403 80.9111 77.3171 80.8771 77.3014 80.8394C77.2857 80.8017 77.2779 80.7612 77.2785 80.7204ZM77.3767 81.5043H77.7907V83.7288H77.3767V81.5043Z" fill="#7B3972"/>
<path d="M79.601 82.0551C79.5509 81.9944 79.4917 81.942 79.4255 81.8997C79.343 81.858 79.2511 81.8385 79.1589 81.8432C79.0711 81.8383 78.9837 81.8578 78.9063 81.8997C78.8769 81.9153 78.8516 81.9376 78.8325 81.9649C78.8133 81.9922 78.8008 82.0236 78.796 82.0566C78.7912 82.0897 78.7943 82.1234 78.8049 82.1551C78.8155 82.1867 78.8334 82.2154 78.8572 82.2387C78.8988 82.2818 78.949 82.3155 79.0045 82.3376C79.0628 82.3638 79.1241 82.3828 79.187 82.3941H79.3484C79.4349 82.4115 79.5195 82.4375 79.601 82.4718C79.6755 82.4989 79.7445 82.5396 79.8045 82.5918C79.8602 82.6411 79.9055 82.7011 79.9378 82.7684C79.9704 82.8516 79.9871 82.9402 79.9869 83.0297C79.9879 83.1404 79.9614 83.2497 79.9097 83.3475C79.8574 83.4317 79.7881 83.5039 79.7062 83.5593C79.6215 83.6177 79.5261 83.6586 79.4255 83.6794C79.16 83.7381 78.8836 83.7234 78.6256 83.637C78.4791 83.5674 78.3533 83.4602 78.2607 83.3263L78.5765 83.072C78.6436 83.1402 78.7191 83.1995 78.801 83.2486C78.8915 83.3045 78.9967 83.3316 79.1028 83.3263C79.1564 83.333 79.2106 83.333 79.2642 83.3263C79.3132 83.3173 79.3606 83.3006 79.4045 83.2769C79.4446 83.2586 79.4786 83.2292 79.5027 83.1921C79.531 83.156 79.5459 83.111 79.5448 83.065C79.5457 83.0378 79.5413 83.0106 79.5316 82.9851C79.522 82.9597 79.5074 82.9364 79.4887 82.9167C79.4497 82.8737 79.4018 82.84 79.3484 82.8178L79.18 82.7613H79.0186L78.766 82.6907C78.6903 82.6645 78.6193 82.6263 78.5555 82.5777C78.4939 82.5306 78.4435 82.4703 78.4081 82.4011C78.3691 82.3197 78.3499 82.2302 78.352 82.1398C78.3507 82.0358 78.3774 81.9333 78.4292 81.8432C78.472 81.7588 78.5346 81.6861 78.6116 81.6314C78.6924 81.5737 78.7827 81.5306 78.8782 81.5043C78.9785 81.4939 79.0796 81.4939 79.18 81.5043C79.3241 81.5012 79.4673 81.5277 79.601 81.5819C79.7379 81.6354 79.8521 81.7353 79.9237 81.8644L79.601 82.0551Z" fill="#7B3972"/>
<path d="M80.7936 82.7543C80.792 82.8454 80.8138 82.9354 80.8568 83.0156C80.8995 83.0939 80.9567 83.1634 81.0252 83.2204C81.0937 83.2771 81.1723 83.3202 81.2567 83.3475C81.3453 83.3753 81.4376 83.3896 81.5304 83.3899C81.6435 83.3906 81.7548 83.3613 81.8532 83.3051C81.9512 83.2386 82.0387 83.1577 82.1128 83.065L82.4286 83.3051C82.3139 83.4514 82.1662 83.568 81.9978 83.6454C81.8294 83.7228 81.6452 83.7586 81.4602 83.75C81.3019 83.7519 81.1447 83.7232 80.9971 83.6653C80.8641 83.6121 80.7443 83.5301 80.6463 83.4252C80.5466 83.3201 80.47 83.1949 80.4217 83.0579C80.3672 82.9137 80.341 82.7602 80.3446 82.606C80.3427 82.4489 80.3713 82.293 80.4288 82.1469C80.4824 82.011 80.5609 81.8864 80.6603 81.7797C80.7622 81.676 80.8839 81.5943 81.0182 81.5396C81.1608 81.4818 81.3135 81.453 81.4672 81.4548C81.6365 81.4478 81.8049 81.4817 81.9584 81.5537C82.0858 81.619 82.1981 81.7104 82.2882 81.8221C82.3737 81.9304 82.4358 82.0555 82.4707 82.1893C82.507 82.3252 82.5259 82.4652 82.5268 82.606V82.7543H80.7936ZM82.0988 82.4223C82.1003 82.3357 82.0861 82.2495 82.0567 82.1681C82.0323 82.0939 81.9915 82.0263 81.9374 81.9704C81.8885 81.9081 81.8227 81.8615 81.7479 81.8362C81.6609 81.8015 81.5678 81.7847 81.4743 81.7867C81.3776 81.7829 81.2814 81.8023 81.1936 81.8432C81.1131 81.8759 81.0411 81.9266 80.9831 81.9916C80.9255 82.0516 80.8781 82.1208 80.8427 82.1964C80.8141 82.2685 80.7976 82.3448 80.7936 82.4223H82.0988Z" fill="#7B3972"/>
</g>
<defs>
<clipPath id="clip0">
<rect width="70" height="50" fill="white" transform="translate(18 35)"/>
</clipPath>
</defs>
</svg>
