<svg width="148" height="101" viewBox="0 0 148 101" fill="none" xmlns="http://www.w3.org/2000/svg">
<path d="M31.7267 48.4491C32.2438 45.9432 33.079 44.1136 34.2325 42.9601C35.386 41.8066 36.7185 41.2299 38.2299 41.2299C38.5481 41.2299 38.7868 41.2498 38.9459 41.2896L38.7072 46.5995C38.5481 46.5598 38.389 46.5399 38.2299 46.5399C38.0708 46.5001 37.8918 46.4802 37.6929 46.4802C36.7383 46.4802 35.8832 46.7984 35.1274 47.4348C34.4115 48.0314 33.795 48.8269 33.2779 49.8213C32.8006 50.8157 32.4227 51.9493 32.1443 53.2221C31.9057 54.4551 31.7863 55.7279 31.7863 57.0405V72.1948H26.6554V49.8213C26.6554 48.6281 26.6355 47.3553 26.5957 46.0029C26.5559 44.6108 26.4963 43.3579 26.4167 42.2442H31.2494C31.3687 43.2385 31.4483 44.2727 31.488 45.3466C31.5676 46.4205 31.6074 47.4547 31.6074 48.4491H31.7267Z" fill="#404041"/>
<path d="M56.0687 72.1948C55.9096 71.28 55.7902 70.3651 55.7107 69.4503C55.6311 68.5355 55.5914 67.7996 55.5914 67.2428H55.472C55.0345 69.0327 54.239 70.4447 53.0855 71.4788C51.9718 72.4732 50.4206 72.9704 48.4319 72.9704C47.5966 72.9704 46.7414 72.8113 45.8664 72.4931C44.9913 72.1749 44.1958 71.6578 43.4799 70.9419C42.8037 70.2259 42.2269 69.3111 41.7496 68.1974C41.3121 67.0837 41.0934 65.7115 41.0934 64.0807C41.0934 61.9328 41.4712 60.1827 42.2269 58.8304C43.0224 57.4382 43.9969 56.3643 45.1504 55.6086C46.3437 54.8131 47.6562 54.2761 49.0881 53.9977C50.52 53.7193 51.8923 53.5801 53.2049 53.5801H55.1737V52.2675C55.1737 49.9208 54.7163 48.2303 53.8015 47.1962C52.9264 46.1222 51.7332 45.5853 50.2217 45.5853C49.108 45.5853 48.0739 45.8637 47.1193 46.4205C46.1647 46.9774 45.3493 47.7132 44.6731 48.6281L42.1076 45.4659C43.102 44.1136 44.3947 43.0794 45.9857 42.3635C47.5767 41.6078 49.1478 41.2299 50.699 41.2299C52.4094 41.2299 53.8413 41.5083 54.9947 42.0652C56.188 42.622 57.1426 43.4374 57.8585 44.5113C58.5745 45.5853 59.0717 46.9177 59.3501 48.5087C59.6683 50.06 59.8274 51.83 59.8274 53.8187V65.9302C59.8274 66.9644 59.8672 68.098 59.9467 69.331C60.0263 70.5242 60.1257 71.4788 60.245 72.1948H56.0687ZM55.2931 57.4581H53.0855C52.1707 57.4581 51.2758 57.5377 50.4007 57.6968C49.5654 57.8559 48.8097 58.1741 48.1335 58.6514C47.4574 59.0889 46.9005 59.7054 46.463 60.5009C46.0652 61.2964 45.8664 62.3107 45.8664 63.5437C45.8664 65.3734 46.2641 66.7257 47.0596 67.6008C47.8551 68.436 48.7699 68.8537 49.8041 68.8537C50.8382 68.8537 51.6934 68.5554 52.3696 67.9587C53.0855 67.3223 53.6623 66.5268 54.0998 65.5722C54.5373 64.6176 54.8356 63.5835 54.9947 62.4698C55.1936 61.3163 55.2931 60.2225 55.2931 59.1883V57.4581Z" fill="#404041"/>
<path d="M71.2842 33.3544C71.2842 34.3488 70.966 35.1642 70.3296 35.8006C69.7329 36.437 68.9971 36.7552 68.122 36.7552C67.2072 36.7552 66.4515 36.437 65.8549 35.8006C65.2582 35.1642 64.9599 34.3488 64.9599 33.3544C64.9599 32.3998 65.2582 31.6043 65.8549 30.9679C66.4515 30.2918 67.2072 29.9537 68.122 29.9537C69.0369 29.9537 69.7926 30.2918 70.3892 30.9679C70.9858 31.6043 71.2842 32.3998 71.2842 33.3544ZM65.5565 72.1948V42.2442H70.6279V72.1948H65.5565Z" fill="#404041"/>
<path d="M95.0875 40.0963C94.3716 39.261 93.5363 38.6246 92.5817 38.1871C91.6271 37.7098 90.6327 37.4712 89.5986 37.4712C88.5247 37.4712 87.5502 37.8092 86.6751 38.4854C85.8398 39.1616 85.4222 40.2753 85.4222 41.8265C85.4222 43.1391 85.8597 44.1733 86.7348 44.929C87.6098 45.6449 88.9025 46.4404 90.6128 47.3155C91.5674 47.7928 92.5618 48.3695 93.596 49.0457C94.6699 49.6821 95.6444 50.4776 96.5194 51.4322C97.3945 52.3868 98.1104 53.5403 98.6673 54.8926C99.2639 56.2052 99.5622 57.7763 99.5622 59.606C99.5622 61.8732 99.2043 63.8818 98.4883 65.6319C97.7724 67.3422 96.7979 68.7741 95.5648 69.9276C94.3716 71.0413 92.9795 71.8766 91.3885 72.4334C89.7975 73.0301 88.1468 73.3284 86.4365 73.3284C83.8909 73.3284 81.564 72.8511 79.4559 71.8965C77.3876 70.9419 75.7171 69.8282 74.4443 68.5554L79.3366 61.3959C80.2514 62.3505 81.3055 63.1261 82.4987 63.7227C83.692 64.2796 84.9051 64.558 86.1382 64.558C87.2916 64.558 88.2661 64.1801 89.0616 63.4244C89.8571 62.6687 90.2549 61.6146 90.2549 60.2623C90.2549 58.8701 89.7776 57.7763 88.823 56.9808C87.8684 56.1456 86.4762 55.2705 84.6466 54.3557C83.4931 53.7988 82.3993 53.1823 81.3651 52.5061C80.3708 51.83 79.4758 51.0146 78.6803 50.06C77.9246 49.1054 77.328 47.9917 76.8904 46.7189C76.4529 45.4461 76.2342 43.9346 76.2342 42.1845C76.2342 39.8378 76.612 37.8291 77.3677 36.1586C78.1633 34.4483 79.1775 33.0561 80.4105 31.9822C81.6833 30.9083 83.0755 30.1128 84.5869 29.5957C86.1382 29.0786 87.6894 28.8201 89.2406 28.8201C91.5476 28.8201 93.6159 29.1979 95.4455 29.9537C97.2752 30.7094 98.8065 31.7435 100.04 33.0561L95.0875 40.0963Z" fill="#7B3972"/>
<path d="M103.917 72.1948V29.9537H124.322V38.3661H113.045V46.6592H123.427V54.5347H113.045V63.663H125.038V72.1948H103.917Z" fill="#7B3972"/>
<path d="M32.168 79.3891C31.6808 78.6739 30.9708 78.3163 30.0379 78.3163C29.7477 78.3163 29.4626 78.3578 29.1828 78.4407C28.9029 78.5133 28.649 78.6325 28.4209 78.7983C28.2032 78.9538 28.027 79.1611 27.8923 79.4202C27.7575 79.669 27.6902 79.9644 27.6902 80.3065C27.6902 80.804 27.8301 81.1927 28.11 81.4726C28.3898 81.7421 28.7371 81.9649 29.1517 82.1411C29.5663 82.3173 30.0172 82.478 30.5043 82.6231C31.0019 82.7579 31.458 82.9444 31.8726 83.1828C32.2872 83.4109 32.6344 83.7167 32.9143 84.1002C33.1942 84.4837 33.3341 85.0071 33.3341 85.6705C33.3341 86.1681 33.2252 86.619 33.0076 87.0232C32.8003 87.4171 32.5204 87.7488 32.168 88.0183C31.8259 88.2878 31.4372 88.4951 31.0019 88.6402C30.5769 88.7853 30.1467 88.8579 29.7114 88.8579C29.0377 88.8579 28.395 88.7335 27.7834 88.4847C27.1823 88.2256 26.6692 87.8058 26.2442 87.2253L27.2548 86.4946C27.4932 86.8988 27.8249 87.2253 28.2499 87.4741C28.6749 87.7125 29.1776 87.8317 29.758 87.8317C30.0379 87.8317 30.3178 87.7902 30.5976 87.7073C30.8775 87.614 31.1263 87.4845 31.3439 87.3186C31.572 87.1424 31.7586 86.9299 31.9037 86.6811C32.0488 86.4324 32.1213 86.1473 32.1213 85.826C32.1213 85.4425 32.0384 85.1263 31.8726 84.8776C31.7171 84.6184 31.5046 84.406 31.2351 84.2401C30.976 84.0639 30.6754 83.9188 30.3333 83.8048C30.0016 83.6907 29.6544 83.5767 29.2916 83.4627C28.9392 83.3487 28.5919 83.2191 28.2499 83.074C27.9182 82.9289 27.6176 82.7475 27.3481 82.5298C27.089 82.3018 26.8765 82.0219 26.7106 81.6902C26.5552 81.3482 26.4774 80.9232 26.4774 80.4153C26.4774 79.8867 26.5759 79.4254 26.7728 79.0315C26.9801 78.6376 27.2496 78.3111 27.5813 78.052C27.9234 77.7929 28.3069 77.6011 28.7319 77.4767C29.1569 77.3523 29.5922 77.2902 30.0379 77.2902C30.6598 77.2902 31.2247 77.3886 31.7326 77.5856C32.2405 77.7825 32.7122 78.1297 33.1475 78.6273L32.168 79.3891ZM36.7183 88.578H35.5989V77.57H36.7183V88.578ZM47.659 86.8988H47.6901V77.57H48.8096V88.578H47.4102L40.849 79.1559H40.8179V88.578H39.6984V77.57H41.0978L47.659 86.8988ZM59.9314 79.5913C59.5582 79.1974 59.1125 78.8864 58.5942 78.6584C58.076 78.4303 57.4748 78.3163 56.7907 78.3163C56.0858 78.3163 55.4535 78.4459 54.8938 78.705C54.3341 78.9642 53.8573 79.3114 53.4634 79.7467C53.0799 80.1821 52.7845 80.69 52.5772 81.2704C52.3699 81.8405 52.2662 82.4417 52.2662 83.074C52.2662 83.7063 52.3699 84.3127 52.5772 84.8931C52.7845 85.4632 53.0799 85.9659 53.4634 86.4013C53.8573 86.8366 54.3341 87.1839 54.8938 87.443C55.4535 87.7021 56.0858 87.8317 56.7907 87.8317C57.3608 87.8317 57.9049 87.7643 58.4232 87.6296C58.9518 87.4845 59.4235 87.2927 59.8381 87.0543V83.3694H57.2105V82.3433H60.9575V87.7384C60.3356 88.1012 59.6515 88.3811 58.9052 88.578C58.1693 88.7646 57.4644 88.8579 56.7907 88.8579C55.9718 88.8579 55.21 88.7128 54.5051 88.4225C53.8106 88.1323 53.2043 87.7332 52.686 87.2253C52.1781 86.7071 51.779 86.0955 51.4888 85.3907C51.1986 84.6858 51.0535 83.9136 51.0535 83.074C51.0535 82.2344 51.1986 81.4622 51.4888 80.7574C51.779 80.0525 52.1781 79.4461 52.686 78.9382C53.2043 78.42 53.8106 78.0157 54.5051 77.7255C55.21 77.4353 55.9718 77.2902 56.7907 77.2902C57.6717 77.2902 58.4284 77.4145 59.0607 77.6633C59.7033 77.9017 60.2734 78.2697 60.771 78.7672L59.9314 79.5913ZM65.3471 84.6599H70.1203L67.7414 78.8761L65.3471 84.6599ZM63.7145 88.578H62.4085L67.1973 77.57H68.2856L73.0744 88.578H71.7684L70.5556 85.6861H64.9273L63.7145 88.578ZM75.6794 82.4365H77.483C77.9805 82.4365 78.4003 82.3847 78.7424 82.2811C79.0948 82.1774 79.3747 82.0427 79.582 81.8768C79.7893 81.7006 79.9396 81.4985 80.0329 81.2704C80.1262 81.032 80.1728 80.7781 80.1728 80.5086C80.1728 80.2495 80.1262 80.0059 80.0329 79.7778C79.9396 79.5394 79.7893 79.3321 79.582 79.1559C79.3747 78.9797 79.0948 78.845 78.7424 78.7517C78.4003 78.648 77.9805 78.5962 77.483 78.5962H75.6794V82.4365ZM74.56 77.57H77.7629C78.8823 77.57 79.7634 77.8136 80.406 78.3008C81.059 78.7879 81.3855 79.5239 81.3855 80.5086C81.3855 81.4933 81.059 82.2344 80.406 82.732C79.7634 83.2191 78.8823 83.4627 77.7629 83.4627H75.6794V88.578H74.56V77.57ZM93.0033 83.074C93.0033 82.4417 92.8996 81.8405 92.6923 81.2704C92.485 80.69 92.1844 80.1821 91.7906 79.7467C91.407 79.3114 90.9354 78.9642 90.3757 78.705C89.816 78.4459 89.1837 78.3163 88.4788 78.3163C87.774 78.3163 87.1417 78.4459 86.582 78.705C86.0222 78.9642 85.5454 79.3114 85.1516 79.7467C84.768 80.1821 84.4726 80.69 84.2653 81.2704C84.058 81.8405 83.9544 82.4417 83.9544 83.074C83.9544 83.7063 84.058 84.3127 84.2653 84.8931C84.4726 85.4632 84.768 85.9659 85.1516 86.4013C85.5454 86.8366 86.0222 87.1839 86.582 87.443C87.1417 87.7021 87.774 87.8317 88.4788 87.8317C89.1837 87.8317 89.816 87.7021 90.3757 87.443C90.9354 87.1839 91.407 86.8366 91.7906 86.4013C92.1844 85.9659 92.485 85.4632 92.6923 84.8931C92.8996 84.3127 93.0033 83.7063 93.0033 83.074ZM94.216 83.074C94.216 83.9136 94.0709 84.6858 93.7807 85.3907C93.4905 86.0955 93.0862 86.7071 92.568 87.2253C92.0601 87.7332 91.4537 88.1323 90.7488 88.4225C90.0544 88.7128 89.2977 88.8579 88.4788 88.8579C87.66 88.8579 86.8981 88.7128 86.1933 88.4225C85.4988 88.1323 84.8924 87.7332 84.3742 87.2253C83.8663 86.7071 83.4672 86.0955 83.177 85.3907C82.8867 84.6858 82.7416 83.9136 82.7416 83.074C82.7416 82.2344 82.8867 81.4622 83.177 80.7574C83.4672 80.0525 83.8663 79.4461 84.3742 78.9382C84.8924 78.42 85.4988 78.0157 86.1933 77.7255C86.8981 77.4353 87.66 77.2902 88.4788 77.2902C89.2977 77.2902 90.0544 77.4353 90.7488 77.7255C91.4537 78.0157 92.0601 78.42 92.568 78.9382C93.0862 79.4461 93.4905 80.0525 93.7807 80.7574C94.0709 81.4622 94.216 82.2344 94.216 83.074ZM97.5742 82.4365H99.5643C100.062 82.4365 100.482 82.3847 100.824 82.2811C101.176 82.1774 101.456 82.0427 101.663 81.8768C101.871 81.7006 102.021 81.4985 102.114 81.2704C102.207 81.032 102.254 80.7781 102.254 80.5086C102.254 80.2495 102.207 80.0059 102.114 79.7778C102.021 79.5394 101.871 79.3321 101.663 79.1559C101.456 78.9797 101.176 78.845 100.824 78.7517C100.482 78.648 100.062 78.5962 99.5643 78.5962H97.5742V82.4365ZM97.5742 88.578H96.4547V77.57H99.8442C100.964 77.57 101.845 77.8136 102.487 78.3008C103.14 78.7879 103.467 79.5239 103.467 80.5086C103.467 81.2756 103.223 81.9235 102.736 82.4521C102.259 82.9704 101.565 83.271 100.653 83.3539L103.824 88.578H102.456L99.4399 83.4627H97.5742V88.578ZM106.791 87.5518H112.683V88.578H105.671V77.57H112.497V78.5962H106.791V82.3433H112.124V83.3694H106.791V87.5518Z" fill="#3B3A3D"/>
<path d="M38.7789 94.737C38.6491 94.5684 38.4848 94.4387 38.2859 94.3479C38.0871 94.2571 37.8817 94.2117 37.6698 94.2117C37.4104 94.2117 37.1747 94.2614 36.9629 94.3609C36.7553 94.456 36.5759 94.5879 36.4246 94.7565C36.2775 94.9251 36.163 95.124 36.0808 95.3532C35.9987 95.578 35.9576 95.8202 35.9576 96.0796C35.9576 96.3217 35.9965 96.5509 36.0743 96.7671C36.1522 96.9833 36.2646 97.1735 36.4116 97.3378C36.5586 97.5021 36.738 97.6318 36.9499 97.727C37.1618 97.8221 37.4017 97.8696 37.6698 97.8696C37.9336 97.8696 38.1649 97.8156 38.3638 97.7075C38.5627 97.5994 38.7313 97.4481 38.8697 97.2535L39.395 97.6491C39.3604 97.6967 39.2999 97.7659 39.2134 97.8567C39.1269 97.9431 39.0123 98.0318 38.8697 98.1226C38.727 98.2091 38.554 98.2847 38.3508 98.3496C38.1519 98.4188 37.9206 98.4534 37.6568 98.4534C37.2936 98.4534 36.965 98.3842 36.671 98.2458C36.3813 98.1074 36.1327 97.9258 35.9252 97.701C35.7219 97.4762 35.5663 97.2232 35.4582 96.9422C35.3501 96.6568 35.296 96.3693 35.296 96.0796C35.296 95.725 35.3544 95.3986 35.4712 95.1002C35.5879 94.7976 35.75 94.5382 35.9576 94.322C36.1694 94.1014 36.4224 93.9307 36.7164 93.8096C37.0104 93.6885 37.3347 93.628 37.6893 93.628C37.9919 93.628 38.2881 93.6864 38.5778 93.8031C38.8718 93.9198 39.1118 94.0993 39.2977 94.3414L38.7789 94.737ZM40.4399 97.0135C40.4399 97.1476 40.468 97.2708 40.5242 97.3832C40.5847 97.4913 40.6625 97.5843 40.7577 97.6621C40.8528 97.7399 40.963 97.8005 41.0884 97.8437C41.2138 97.8869 41.3435 97.9086 41.4776 97.9086C41.6592 97.9086 41.817 97.8675 41.951 97.7853C42.0851 97.6988 42.2083 97.5864 42.3207 97.4481L42.7617 97.7853C42.4375 98.2047 41.9835 98.4144 41.3997 98.4144C41.1576 98.4144 40.9371 98.3734 40.7382 98.2912C40.5436 98.2091 40.3772 98.0966 40.2388 97.954C40.1048 97.8069 40.001 97.6362 39.9275 97.4416C39.854 97.2427 39.8172 97.0287 39.8172 96.7995C39.8172 96.5703 39.8561 96.3585 39.934 96.1639C40.0161 95.965 40.1264 95.7942 40.2647 95.6515C40.4074 95.5045 40.5761 95.3899 40.7706 95.3078C40.9652 95.2256 41.1771 95.1846 41.4062 95.1846C41.6786 95.1846 41.9078 95.2321 42.0937 95.3272C42.284 95.4224 42.4396 95.5478 42.5607 95.7034C42.6817 95.8547 42.7682 96.0277 42.8201 96.2223C42.8763 96.4125 42.9044 96.6071 42.9044 96.806V97.0135H40.4399ZM42.2818 96.5466C42.2775 96.4168 42.2559 96.2979 42.2169 96.1898C42.1823 96.0817 42.1283 95.9888 42.0548 95.911C41.9813 95.8288 41.8883 95.7661 41.7759 95.7229C41.6678 95.6753 41.5403 95.6515 41.3933 95.6515C41.2506 95.6515 41.1187 95.6796 40.9976 95.7358C40.8809 95.7877 40.7814 95.8569 40.6993 95.9434C40.6171 96.0299 40.5523 96.1271 40.5047 96.2352C40.4615 96.339 40.4399 96.4428 40.4399 96.5466H42.2818ZM43.6027 95.2624H44.1864V95.7358H44.1994C44.2729 95.5715 44.4004 95.4397 44.582 95.3402C44.7636 95.2364 44.9733 95.1846 45.2112 95.1846C45.3582 95.1846 45.4987 95.2083 45.6327 95.2559C45.7711 95.2991 45.89 95.3683 45.9894 95.4634C46.0932 95.5586 46.1754 95.6818 46.2359 95.8331C46.2964 95.9801 46.3267 96.1553 46.3267 96.3585V98.3366H45.743V96.5206C45.743 96.3779 45.7235 96.2569 45.6846 96.1574C45.6457 96.0536 45.5938 95.9715 45.529 95.911C45.4641 95.8461 45.3884 95.8007 45.302 95.7748C45.2198 95.7445 45.1333 95.7294 45.0425 95.7294C44.9215 95.7294 44.809 95.7488 44.7053 95.7877C44.6015 95.8266 44.5107 95.8893 44.4329 95.9758C44.355 96.058 44.2945 96.1639 44.2513 96.2936C44.208 96.4233 44.1864 96.5768 44.1864 96.7541V98.3366H43.6027V95.2624ZM48.8539 95.7683H48.0173V97.1627C48.0173 97.2492 48.0194 97.3356 48.0238 97.4221C48.0281 97.5043 48.0432 97.5799 48.0692 97.6491C48.0994 97.714 48.1427 97.768 48.1989 97.8113C48.2594 97.8502 48.3459 97.8696 48.4583 97.8696C48.5275 97.8696 48.5988 97.8632 48.6723 97.8502C48.7458 97.8372 48.8129 97.8134 48.8734 97.7788V98.3107C48.8042 98.3496 48.7134 98.3755 48.601 98.3885C48.4929 98.4058 48.4086 98.4144 48.3481 98.4144C48.1232 98.4144 47.9481 98.3842 47.8227 98.3236C47.7016 98.2588 47.6108 98.1766 47.5503 98.0772C47.4941 97.9777 47.4595 97.8675 47.4465 97.7464C47.4379 97.621 47.4336 97.4956 47.4336 97.3702V95.7683H46.7591V95.2624H47.4336V94.3998H48.0173V95.2624H48.8539V95.7683ZM49.607 95.2624H50.1908V95.7358H50.2037C50.2426 95.6537 50.2945 95.5802 50.3594 95.5153C50.4242 95.4461 50.4956 95.3878 50.5734 95.3402C50.6556 95.2927 50.7442 95.2559 50.8393 95.23C50.9344 95.1997 51.0296 95.1846 51.1247 95.1846C51.2198 95.1846 51.3063 95.1975 51.3841 95.2235L51.3582 95.8526C51.3106 95.8396 51.2631 95.8288 51.2155 95.8202C51.1679 95.8115 51.1204 95.8072 51.0728 95.8072C50.7874 95.8072 50.5691 95.8872 50.4178 96.0472C50.2664 96.2071 50.1908 96.4558 50.1908 96.793V98.3366H49.607V95.2624ZM52.3345 97.0135C52.3345 97.1476 52.3626 97.2708 52.4188 97.3832C52.4794 97.4913 52.5572 97.5843 52.6523 97.6621C52.7475 97.7399 52.8577 97.8005 52.9831 97.8437C53.1085 97.8869 53.2382 97.9086 53.3722 97.9086C53.5538 97.9086 53.7117 97.8675 53.8457 97.7853C53.9797 97.6988 54.103 97.5864 54.2154 97.4481L54.6564 97.7853C54.3321 98.2047 53.8781 98.4144 53.2944 98.4144C53.0523 98.4144 52.8318 98.3734 52.6329 98.2912C52.4383 98.2091 52.2718 98.0966 52.1335 97.954C51.9994 97.8069 51.8957 97.6362 51.8222 97.4416C51.7487 97.2427 51.7119 97.0287 51.7119 96.7995C51.7119 96.5703 51.7508 96.3585 51.8286 96.1639C51.9108 95.965 52.0211 95.7942 52.1594 95.6515C52.3021 95.5045 52.4707 95.3899 52.6653 95.3078C52.8599 95.2256 53.0717 95.1846 53.3009 95.1846C53.5733 95.1846 53.8025 95.2321 53.9884 95.3272C54.1786 95.4224 54.3343 95.5478 54.4554 95.7034C54.5764 95.8547 54.6629 96.0277 54.7148 96.2223C54.771 96.4125 54.7991 96.6071 54.7991 96.806V97.0135H52.3345ZM54.1765 96.5466C54.1721 96.4168 54.1505 96.2979 54.1116 96.1898C54.077 96.0817 54.023 95.9888 53.9495 95.911C53.876 95.8288 53.783 95.7661 53.6706 95.7229C53.5625 95.6753 53.4349 95.6515 53.2879 95.6515C53.1452 95.6515 53.0134 95.6796 52.8923 95.7358C52.7756 95.7877 52.6761 95.8569 52.594 95.9434C52.5118 96.0299 52.4469 96.1271 52.3994 96.2352C52.3561 96.339 52.3345 96.4428 52.3345 96.5466H54.1765ZM57.5295 95.7683H56.8679V95.2624H57.5295V94.5749C57.5295 94.1641 57.6073 93.8593 57.763 93.6604C57.9229 93.4572 58.1953 93.3556 58.5802 93.3556C58.645 93.3556 58.712 93.3578 58.7812 93.3621C58.8547 93.3664 58.9325 93.3794 59.0147 93.401L58.9498 93.9198C58.8936 93.8982 58.8396 93.8831 58.7877 93.8744C58.7358 93.8658 58.6796 93.8615 58.6191 93.8615C58.511 93.8615 58.4245 93.8788 58.3596 93.9134C58.2948 93.9436 58.2429 93.989 58.204 94.0496C58.1694 94.1101 58.1456 94.1836 58.1326 94.2701C58.124 94.3522 58.1197 94.4474 58.1197 94.5554V95.2624H58.8136V95.7683H58.1132V98.3366H57.5295V95.7683ZM59.9357 96.7995C59.9357 96.9552 59.9595 97.1 60.0071 97.234C60.0546 97.3638 60.1216 97.4762 60.2081 97.5713C60.2946 97.6621 60.4005 97.7356 60.5259 97.7918C60.6513 97.8437 60.7918 97.8696 60.9475 97.8696C61.1031 97.8696 61.2437 97.8437 61.3691 97.7918C61.4945 97.7356 61.6004 97.6621 61.6869 97.5713C61.7733 97.4762 61.8404 97.3638 61.8879 97.234C61.9355 97.1 61.9593 96.9552 61.9593 96.7995C61.9593 96.6438 61.9355 96.5012 61.8879 96.3714C61.8404 96.2374 61.7733 96.125 61.6869 96.0342C61.6004 95.9391 61.4945 95.8656 61.3691 95.8137C61.2437 95.7575 61.1031 95.7294 60.9475 95.7294C60.7918 95.7294 60.6513 95.7575 60.5259 95.8137C60.4005 95.8656 60.2946 95.9391 60.2081 96.0342C60.1216 96.125 60.0546 96.2374 60.0071 96.3714C59.9595 96.5012 59.9357 96.6438 59.9357 96.7995ZM59.3131 96.7995C59.3131 96.5747 59.3542 96.365 59.4363 96.1704C59.5228 95.9758 59.6395 95.805 59.7865 95.658C59.9336 95.511 60.1065 95.3964 60.3054 95.3143C60.5043 95.2278 60.7183 95.1846 60.9475 95.1846C61.1767 95.1846 61.3907 95.2278 61.5896 95.3143C61.7885 95.3964 61.9614 95.511 62.1084 95.658C62.2554 95.805 62.37 95.9758 62.4522 96.1704C62.5386 96.365 62.5819 96.5747 62.5819 96.7995C62.5819 97.0243 62.5386 97.2362 62.4522 97.4351C62.37 97.6297 62.2554 97.8005 62.1084 97.9475C61.9614 98.0902 61.7885 98.2047 61.5896 98.2912C61.3907 98.3734 61.1767 98.4144 60.9475 98.4144C60.7183 98.4144 60.5043 98.3734 60.3054 98.2912C60.1065 98.2047 59.9336 98.0902 59.7865 97.9475C59.6395 97.8005 59.5228 97.6297 59.4363 97.4351C59.3542 97.2362 59.3131 97.0243 59.3131 96.7995ZM63.3131 95.2624H63.8969V95.7358H63.9098C63.9487 95.6537 64.0006 95.5802 64.0655 95.5153C64.1303 95.4461 64.2017 95.3878 64.2795 95.3402C64.3617 95.2927 64.4503 95.2559 64.5454 95.23C64.6406 95.1997 64.7357 95.1846 64.8308 95.1846C64.9259 95.1846 65.0124 95.1975 65.0902 95.2235L65.0643 95.8526C65.0167 95.8396 64.9692 95.8288 64.9216 95.8202C64.874 95.8115 64.8265 95.8072 64.7789 95.8072C64.4935 95.8072 64.2752 95.8872 64.1239 96.0472C63.9725 96.2071 63.8969 96.4558 63.8969 96.793V98.3366H63.3131V95.2624Z" fill="#3B3A3D"/>
<path d="M67.8035 97.3767C67.916 97.5454 68.0587 97.6707 68.2316 97.7529C68.4089 97.8307 68.5905 97.8696 68.7764 97.8696C68.8802 97.8696 68.9861 97.8545 69.0942 97.8242C69.2023 97.7896 69.2996 97.7399 69.3861 97.6751C69.4769 97.6102 69.5504 97.5302 69.6066 97.4351C69.6628 97.34 69.6909 97.2297 69.6909 97.1043C69.6909 96.9271 69.6347 96.793 69.5223 96.7022C69.4098 96.6071 69.2693 96.5293 69.1007 96.4687C68.9364 96.4039 68.7548 96.3433 68.5559 96.2871C68.3613 96.2266 68.1797 96.1444 68.0111 96.0407C67.8468 95.9369 67.7084 95.7985 67.596 95.6256C67.4836 95.4483 67.4274 95.2105 67.4274 94.9122C67.4274 94.7781 67.4555 94.6354 67.5117 94.4841C67.5722 94.3328 67.6652 94.1944 67.7906 94.069C67.916 93.9436 68.0759 93.8399 68.2705 93.7577C68.4694 93.6712 68.7072 93.628 68.9839 93.628C69.2347 93.628 69.4747 93.6626 69.7039 93.7318C69.933 93.8009 70.1341 93.9415 70.307 94.1533L69.8011 94.6138C69.7233 94.4928 69.6131 94.3955 69.4704 94.322C69.3277 94.2485 69.1655 94.2117 68.9839 94.2117C68.811 94.2117 68.6661 94.2355 68.5494 94.283C68.437 94.3263 68.3462 94.3847 68.277 94.4582C68.2078 94.5273 68.1581 94.603 68.1278 94.6852C68.1019 94.7673 68.0889 94.843 68.0889 94.9122C68.0889 95.1067 68.1451 95.2559 68.2575 95.3597C68.37 95.4634 68.5083 95.5478 68.6726 95.6126C68.8413 95.6775 69.0229 95.7358 69.2174 95.7877C69.4163 95.8396 69.5979 95.9131 69.7622 96.0082C69.9309 96.099 70.0714 96.2244 70.1838 96.3844C70.2962 96.5401 70.3524 96.7563 70.3524 97.033C70.3524 97.2535 70.3092 97.4524 70.2227 97.6297C70.1406 97.8069 70.0281 97.9561 69.8855 98.0772C69.7428 98.1982 69.5741 98.2912 69.3796 98.3561C69.185 98.4209 68.9775 98.4534 68.7569 98.4534C68.4629 98.4534 68.184 98.4015 67.9203 98.2977C67.6565 98.1939 67.4468 98.0339 67.2912 97.8178L67.8035 97.3767Z" fill="#7B3972"/>
<path d="M71.5961 96.7995C71.5961 96.9552 71.6199 97.1 71.6675 97.234C71.715 97.3638 71.782 97.4762 71.8685 97.5713C71.955 97.6621 72.0609 97.7356 72.1863 97.7918C72.3117 97.8437 72.4522 97.8696 72.6079 97.8696C72.7636 97.8696 72.9041 97.8437 73.0295 97.7918C73.1549 97.7356 73.2608 97.6621 73.3473 97.5713C73.4337 97.4762 73.5008 97.3638 73.5483 97.234C73.5959 97.1 73.6197 96.9552 73.6197 96.7995C73.6197 96.6438 73.5959 96.5012 73.5483 96.3714C73.5008 96.2374 73.4337 96.125 73.3473 96.0342C73.2608 95.9391 73.1549 95.8656 73.0295 95.8137C72.9041 95.7575 72.7636 95.7294 72.6079 95.7294C72.4522 95.7294 72.3117 95.7575 72.1863 95.8137C72.0609 95.8656 71.955 95.9391 71.8685 96.0342C71.782 96.125 71.715 96.2374 71.6675 96.3714C71.6199 96.5012 71.5961 96.6438 71.5961 96.7995ZM70.9735 96.7995C70.9735 96.5747 71.0146 96.365 71.0967 96.1704C71.1832 95.9758 71.2999 95.805 71.447 95.658C71.594 95.511 71.7669 95.3964 71.9658 95.3143C72.1647 95.2278 72.3787 95.1846 72.6079 95.1846C72.8371 95.1846 73.0511 95.2278 73.25 95.3143C73.4489 95.3964 73.6218 95.511 73.7688 95.658C73.9158 95.805 74.0304 95.9758 74.1126 96.1704C74.1991 96.365 74.2423 96.5747 74.2423 96.7995C74.2423 97.0243 74.1991 97.2362 74.1126 97.4351C74.0304 97.6297 73.9158 97.8005 73.7688 97.9475C73.6218 98.0902 73.4489 98.2047 73.25 98.2912C73.0511 98.3734 72.8371 98.4144 72.6079 98.4144C72.3787 98.4144 72.1647 98.3734 71.9658 98.2912C71.7669 98.2047 71.594 98.0902 71.447 97.9475C71.2999 97.8005 71.1832 97.6297 71.0967 97.4351C71.0146 97.2362 70.9735 97.0243 70.9735 96.7995ZM77.1722 96.0796C77.0641 95.9672 76.9495 95.8829 76.8285 95.8266C76.7117 95.7661 76.5712 95.7358 76.4069 95.7358C76.2469 95.7358 76.1064 95.7661 75.9853 95.8266C75.8686 95.8829 75.7691 95.9628 75.687 96.0666C75.6092 96.1661 75.5486 96.2828 75.5054 96.4168C75.4665 96.5466 75.447 96.6828 75.447 96.8254C75.447 96.9681 75.4708 97.1043 75.5184 97.234C75.5659 97.3594 75.6329 97.4697 75.7194 97.5648C75.8059 97.6599 75.9097 97.7356 76.0307 97.7918C76.1518 97.8437 76.288 97.8696 76.4393 97.8696C76.6036 97.8696 76.7441 97.8415 76.8609 97.7853C76.9776 97.7248 77.0857 97.6383 77.1852 97.5259L77.6003 97.941C77.4489 98.1096 77.2717 98.2307 77.0684 98.3042C76.8695 98.3777 76.6577 98.4144 76.4328 98.4144C76.195 98.4144 75.9767 98.3755 75.7778 98.2977C75.5832 98.2199 75.4146 98.1118 75.2719 97.9734C75.1292 97.8307 75.019 97.6621 74.9411 97.4675C74.8633 97.2686 74.8244 97.0503 74.8244 96.8125C74.8244 96.5747 74.8633 96.3563 74.9411 96.1574C75.019 95.9585 75.127 95.7877 75.2654 95.645C75.4081 95.5024 75.5767 95.3921 75.7713 95.3143C75.9702 95.2321 76.1907 95.191 76.4328 95.191C76.6577 95.191 76.8717 95.2321 77.0749 95.3143C77.2825 95.3921 77.4619 95.5132 77.6132 95.6775L77.1722 96.0796ZM78.1478 95.2624H78.7315V98.3366H78.1478V95.2624ZM78.0116 94.1598C78.0116 94.0431 78.0527 93.9436 78.1348 93.8615C78.2213 93.775 78.3229 93.7318 78.4397 93.7318C78.5564 93.7318 78.6558 93.775 78.738 93.8615C78.8245 93.9436 78.8677 94.0431 78.8677 94.1598C78.8677 94.2766 78.8245 94.3782 78.738 94.4646C78.6558 94.5468 78.5564 94.5879 78.4397 94.5879C78.3229 94.5879 78.2213 94.5468 78.1348 94.4646C78.0527 94.3782 78.0116 94.2766 78.0116 94.1598ZM79.6735 95.6386C79.8378 95.4872 80.028 95.3748 80.2442 95.3013C80.4604 95.2235 80.6766 95.1846 80.8928 95.1846C81.1176 95.1846 81.31 95.2127 81.47 95.2689C81.6343 95.3251 81.7683 95.4007 81.8721 95.4959C81.9759 95.591 82.0515 95.7013 82.0991 95.8266C82.151 95.9477 82.1769 96.0753 82.1769 96.2093V97.7788C82.1769 97.8869 82.1791 97.9864 82.1834 98.0772C82.1877 98.168 82.1942 98.2545 82.2029 98.3366H81.684C81.6711 98.181 81.6646 98.0253 81.6646 97.8696H81.6516C81.5219 98.0685 81.3684 98.2091 81.1911 98.2912C81.0138 98.3734 80.8085 98.4144 80.575 98.4144C80.4323 98.4144 80.2961 98.395 80.1664 98.3561C80.0367 98.3172 79.9221 98.2588 79.8226 98.181C79.7275 98.1031 79.6518 98.008 79.5956 97.8956C79.5394 97.7788 79.5113 97.6448 79.5113 97.4935C79.5113 97.2946 79.5546 97.1281 79.641 96.9941C79.7318 96.86 79.8529 96.7519 80.0042 96.6698C80.1599 96.5833 80.3393 96.5228 80.5425 96.4882C80.7501 96.4493 80.9706 96.4298 81.2041 96.4298H81.6321V96.3001C81.6321 96.2223 81.617 96.1444 81.5867 96.0666C81.5565 95.9888 81.5111 95.9196 81.4505 95.8591C81.39 95.7942 81.3143 95.7445 81.2235 95.7099C81.1327 95.671 81.0246 95.6515 80.8993 95.6515C80.7868 95.6515 80.6874 95.6623 80.6009 95.684C80.5188 95.7056 80.4431 95.7337 80.3739 95.7683C80.3047 95.7985 80.242 95.8353 80.1858 95.8785C80.1296 95.9218 80.0756 95.9628 80.0237 96.0018L79.6735 95.6386ZM81.3208 96.8579C81.1825 96.8579 81.0398 96.8665 80.8928 96.8838C80.7501 96.8968 80.6182 96.9249 80.4971 96.9681C80.3804 97.0114 80.2831 97.0719 80.2053 97.1497C80.1318 97.2276 80.095 97.327 80.095 97.4481C80.095 97.6253 80.1534 97.7529 80.2701 97.8307C80.3912 97.9086 80.5533 97.9475 80.7566 97.9475C80.9165 97.9475 81.0527 97.9215 81.1652 97.8696C81.2776 97.8134 81.3684 97.7421 81.4376 97.6556C81.5067 97.5691 81.5565 97.474 81.5867 97.3702C81.617 97.2621 81.6321 97.1562 81.6321 97.0524V96.8579H81.3208ZM83.0691 93.4334H83.6528V98.3366H83.0691V93.4334Z" fill="#7B3972"/>
<path d="M86.5336 93.7447H89.4975V94.3284H87.1562V95.6969H89.3354V96.2806H87.1562V97.7529H89.6143V98.3366H86.5336V93.7447Z" fill="#7B3972"/>
<path d="M90.3483 95.2624H90.932V95.7358H90.9449C91.0184 95.5715 91.146 95.4397 91.3276 95.3402C91.5092 95.2364 91.7189 95.1846 91.9567 95.1846C92.1037 95.1846 92.2442 95.2083 92.3783 95.2559C92.5166 95.2991 92.6355 95.3683 92.735 95.4634C92.8388 95.5586 92.9209 95.6818 92.9814 95.8331C93.042 95.9801 93.0722 96.1553 93.0722 96.3585V98.3366H92.4885V96.5206C92.4885 96.3779 92.4691 96.2569 92.4302 96.1574C92.3912 96.0536 92.3394 95.9715 92.2745 95.911C92.2097 95.8461 92.134 95.8007 92.0475 95.7748C91.9654 95.7445 91.8789 95.7294 91.7881 95.7294C91.667 95.7294 91.5546 95.7488 91.4508 95.7877C91.3471 95.8266 91.2563 95.8893 91.1784 95.9758C91.1006 96.058 91.0401 96.1639 90.9968 96.2936C90.9536 96.4233 90.932 96.5768 90.932 96.7541V98.3366H90.3483V95.2624ZM95.5995 95.7683H94.7628V97.1627C94.7628 97.2492 94.765 97.3356 94.7693 97.4221C94.7736 97.5043 94.7888 97.5799 94.8147 97.6491C94.845 97.714 94.8882 97.768 94.9444 97.8113C95.005 97.8502 95.0914 97.8696 95.2039 97.8696C95.273 97.8696 95.3444 97.8632 95.4179 97.8502C95.4914 97.8372 95.5584 97.8134 95.6189 97.7788V98.3107C95.5498 98.3496 95.459 98.3755 95.3466 98.3885C95.2385 98.4058 95.1541 98.4144 95.0936 98.4144C94.8688 98.4144 94.6937 98.3842 94.5683 98.3236C94.4472 98.2588 94.3564 98.1766 94.2959 98.0772C94.2397 97.9777 94.2051 97.8675 94.1921 97.7464C94.1834 97.621 94.1791 97.4956 94.1791 97.3702V95.7683H93.5046V95.2624H94.1791V94.3998H94.7628V95.2624H95.5995V95.7683ZM96.7936 97.0135C96.7936 97.1476 96.8217 97.2708 96.8779 97.3832C96.9385 97.4913 97.0163 97.5843 97.1114 97.6621C97.2065 97.7399 97.3168 97.8005 97.4422 97.8437C97.5676 97.8869 97.6973 97.9086 97.8313 97.9086C98.0129 97.9086 98.1708 97.8675 98.3048 97.7853C98.4388 97.6988 98.5621 97.5864 98.6745 97.4481L99.1155 97.7853C98.7912 98.2047 98.3372 98.4144 97.7535 98.4144C97.5114 98.4144 97.2909 98.3734 97.092 98.2912C96.8974 98.2091 96.7309 98.0966 96.5926 97.954C96.4585 97.8069 96.3548 97.6362 96.2813 97.4416C96.2077 97.2427 96.171 97.0287 96.171 96.7995C96.171 96.5703 96.2099 96.3585 96.2877 96.1639C96.3699 95.965 96.4801 95.7942 96.6185 95.6515C96.7612 95.5045 96.9298 95.3899 97.1244 95.3078C97.319 95.2256 97.5308 95.1846 97.76 95.1846C98.0324 95.1846 98.2616 95.2321 98.4475 95.3272C98.6377 95.4224 98.7934 95.5478 98.9144 95.7034C99.0355 95.8547 99.122 96.0277 99.1739 96.2223C99.2301 96.4125 99.2582 96.6071 99.2582 96.806V97.0135H96.7936ZM98.6356 96.5466C98.6312 96.4168 98.6096 96.2979 98.5707 96.1898C98.5361 96.0817 98.4821 95.9888 98.4086 95.911C98.3351 95.8288 98.2421 95.7661 98.1297 95.7229C98.0216 95.6753 97.894 95.6515 97.747 95.6515C97.6043 95.6515 97.4725 95.6796 97.3514 95.7358C97.2346 95.7877 97.1352 95.8569 97.053 95.9434C96.9709 96.0299 96.906 96.1271 96.8585 96.2352C96.8152 96.339 96.7936 96.4428 96.7936 96.5466H98.6356ZM99.9565 95.2624H100.54V95.7358H100.553C100.592 95.6537 100.644 95.5802 100.709 95.5153C100.774 95.4461 100.845 95.3878 100.923 95.3402C101.005 95.2927 101.094 95.2559 101.189 95.23C101.284 95.1997 101.379 95.1846 101.474 95.1846C101.569 95.1846 101.656 95.1975 101.734 95.2235L101.708 95.8526C101.66 95.8396 101.612 95.8288 101.565 95.8202C101.517 95.8115 101.47 95.8072 101.422 95.8072C101.137 95.8072 100.919 95.8872 100.767 96.0472C100.616 96.2071 100.54 96.4558 100.54 96.793V98.3366H99.9565V95.2624ZM102.357 95.2624H102.941V95.7034H102.954C103.066 95.5391 103.22 95.4116 103.414 95.3208C103.613 95.23 103.816 95.1846 104.024 95.1846C104.262 95.1846 104.476 95.2256 104.666 95.3078C104.86 95.3899 105.025 95.5045 105.159 95.6515C105.297 95.7985 105.403 95.9715 105.477 96.1704C105.55 96.365 105.587 96.5747 105.587 96.7995C105.587 97.0287 105.55 97.2427 105.477 97.4416C105.403 97.6362 105.297 97.8069 105.159 97.954C105.025 98.0966 104.86 98.2091 104.666 98.2912C104.476 98.3734 104.262 98.4144 104.024 98.4144C103.803 98.4144 103.596 98.369 103.401 98.2782C103.207 98.1831 103.057 98.0556 102.954 97.8956H102.941V100.166H102.357V95.2624ZM103.952 95.7294C103.797 95.7294 103.656 95.7575 103.531 95.8137C103.405 95.8656 103.3 95.9391 103.213 96.0342C103.127 96.125 103.06 96.2374 103.012 96.3714C102.964 96.5012 102.941 96.6438 102.941 96.7995C102.941 96.9552 102.964 97.1 103.012 97.234C103.06 97.3638 103.127 97.4762 103.213 97.5713C103.3 97.6621 103.405 97.7356 103.531 97.7918C103.656 97.8437 103.797 97.8696 103.952 97.8696C104.108 97.8696 104.249 97.8437 104.374 97.7918C104.499 97.7356 104.605 97.6621 104.692 97.5713C104.778 97.4762 104.845 97.3638 104.893 97.234C104.94 97.1 104.964 96.9552 104.964 96.7995C104.964 96.6438 104.94 96.5012 104.893 96.3714C104.845 96.2374 104.778 96.125 104.692 96.0342C104.605 95.9391 104.499 95.8656 104.374 95.8137C104.249 95.7575 104.108 95.7294 103.952 95.7294ZM106.322 95.2624H106.906V95.7358H106.919C106.957 95.6537 107.009 95.5802 107.074 95.5153C107.139 95.4461 107.21 95.3878 107.288 95.3402C107.37 95.2927 107.459 95.2559 107.554 95.23C107.649 95.1997 107.744 95.1846 107.839 95.1846C107.935 95.1846 108.021 95.1975 108.099 95.2235L108.073 95.8526C108.025 95.8396 107.978 95.8288 107.93 95.8202C107.883 95.8115 107.835 95.8072 107.788 95.8072C107.502 95.8072 107.284 95.8872 107.133 96.0472C106.981 96.2071 106.906 96.4558 106.906 96.793V98.3366H106.322V95.2624ZM108.768 95.2624H109.351V98.3366H108.768V95.2624ZM108.631 94.1598C108.631 94.0431 108.673 93.9436 108.755 93.8615C108.841 93.775 108.943 93.7318 109.06 93.7318C109.176 93.7318 109.276 93.775 109.358 93.8615C109.444 93.9436 109.488 94.0431 109.488 94.1598C109.488 94.2766 109.444 94.3782 109.358 94.4646C109.276 94.5468 109.176 94.5879 109.06 94.5879C108.943 94.5879 108.841 94.5468 108.755 94.4646C108.673 94.3782 108.631 94.2766 108.631 94.1598ZM111.915 96.0342C111.846 95.9477 111.759 95.8764 111.655 95.8202C111.556 95.7596 111.433 95.7294 111.286 95.7294C111.147 95.7294 111.026 95.7596 110.922 95.8202C110.823 95.8764 110.773 95.9607 110.773 96.0731C110.773 96.1639 110.801 96.2374 110.858 96.2936C110.918 96.3498 110.987 96.3952 111.065 96.4298C111.147 96.4644 111.234 96.4903 111.325 96.5076C111.415 96.5249 111.493 96.5401 111.558 96.553C111.683 96.5833 111.8 96.6201 111.908 96.6633C112.021 96.7065 112.116 96.7627 112.194 96.8319C112.276 96.9011 112.339 96.9854 112.382 97.0849C112.429 97.1843 112.453 97.3054 112.453 97.4481C112.453 97.621 112.416 97.7702 112.343 97.8956C112.269 98.0166 112.174 98.1161 112.057 98.1939C111.941 98.2718 111.807 98.328 111.655 98.3626C111.508 98.3971 111.359 98.4144 111.208 98.4144C110.953 98.4144 110.728 98.3755 110.533 98.2977C110.343 98.2199 110.172 98.0772 110.021 97.8696L110.462 97.5064C110.557 97.6016 110.663 97.6859 110.78 97.7594C110.897 97.8329 111.039 97.8696 111.208 97.8696C111.281 97.8696 111.355 97.8632 111.428 97.8502C111.506 97.8329 111.573 97.8091 111.629 97.7788C111.69 97.7442 111.738 97.7032 111.772 97.6556C111.811 97.6037 111.83 97.5454 111.83 97.4805C111.83 97.394 111.802 97.3227 111.746 97.2665C111.694 97.2103 111.629 97.167 111.552 97.1368C111.478 97.1022 111.398 97.0762 111.312 97.0589C111.229 97.0373 111.156 97.02 111.091 97.007C110.966 96.9768 110.847 96.9422 110.734 96.9033C110.622 96.8644 110.523 96.8125 110.436 96.7476C110.35 96.6828 110.28 96.6006 110.228 96.5012C110.177 96.4017 110.151 96.2785 110.151 96.1315C110.151 95.9715 110.183 95.8331 110.248 95.7164C110.317 95.5953 110.406 95.4959 110.514 95.418C110.626 95.3402 110.752 95.2818 110.89 95.2429C111.033 95.204 111.175 95.1846 111.318 95.1846C111.526 95.1846 111.725 95.2235 111.915 95.3013C112.105 95.3791 112.256 95.5088 112.369 95.6904L111.915 96.0342ZM113.603 97.0135C113.603 97.1476 113.631 97.2708 113.688 97.3832C113.748 97.4913 113.826 97.5843 113.921 97.6621C114.016 97.7399 114.126 97.8005 114.252 97.8437C114.377 97.8869 114.507 97.9086 114.641 97.9086C114.823 97.9086 114.98 97.8675 115.114 97.7853C115.248 97.6988 115.372 97.5864 115.484 97.4481L115.925 97.7853C115.601 98.2047 115.147 98.4144 114.563 98.4144C114.321 98.4144 114.1 98.3734 113.902 98.2912C113.707 98.2091 113.541 98.0966 113.402 97.954C113.268 97.8069 113.164 97.6362 113.091 97.4416C113.017 97.2427 112.981 97.0287 112.981 96.7995C112.981 96.5703 113.02 96.3585 113.097 96.1639C113.18 95.965 113.29 95.7942 113.428 95.6515C113.571 95.5045 113.739 95.3899 113.934 95.3078C114.129 95.2256 114.34 95.1846 114.57 95.1846C114.842 95.1846 115.071 95.2321 115.257 95.3272C115.447 95.4224 115.603 95.5478 115.724 95.7034C115.845 95.8547 115.932 96.0277 115.983 96.2223C116.04 96.4125 116.068 96.6071 116.068 96.806V97.0135H113.603ZM115.445 96.5466C115.441 96.4168 115.419 96.2979 115.38 96.1898C115.346 96.0817 115.292 95.9888 115.218 95.911C115.145 95.8288 115.052 95.7661 114.939 95.7229C114.831 95.6753 114.704 95.6515 114.557 95.6515C114.414 95.6515 114.282 95.6796 114.161 95.7358C114.044 95.7877 113.945 95.8569 113.863 95.9434C113.781 96.0299 113.716 96.1271 113.668 96.2352C113.625 96.339 113.603 96.4428 113.603 96.5466H115.445Z" fill="#7B3972"/>
<path d="M1.79628 15.6885V5.17543H3.37597C4.07956 5.17543 4.64017 5.22991 5.05779 5.33885C5.47994 5.44779 5.83628 5.63164 6.1268 5.89038C6.42185 6.1582 6.65563 6.49184 6.82812 6.8913C7.00516 7.2953 7.09367 7.70384 7.09367 8.11692C7.09367 8.87044 6.80543 9.50822 6.22893 10.0302C6.78727 10.2209 7.22758 10.5545 7.54988 11.0312C7.87671 11.5033 8.04012 12.0525 8.04012 12.6789C8.04012 13.5006 7.74961 14.1951 7.16857 14.7625C6.81904 15.112 6.42639 15.3549 5.99062 15.491C5.51399 15.6227 4.91707 15.6885 4.19985 15.6885H1.79628ZM3.38278 9.68979H3.87983C4.46994 9.68979 4.90118 9.56042 5.17354 9.30168C5.45044 9.0384 5.58889 8.65256 5.58889 8.14415C5.58889 7.64937 5.44817 7.27487 5.16673 7.02067C4.88529 6.76193 4.47675 6.63256 3.94111 6.63256H3.38278V9.68979ZM3.38278 14.1973H4.36327C5.08048 14.1973 5.60704 14.0566 5.94295 13.7752C6.29702 13.471 6.47406 13.0852 6.47406 12.6177C6.47406 12.1637 6.30383 11.7824 5.96338 11.4737C5.63201 11.1696 5.03963 11.0175 4.18624 11.0175H3.38278V14.1973ZM13.6099 11.2082L16.8646 15.6885H14.924L11.9212 11.3852H11.6353V15.6885H10.0488V5.17543H11.9076C13.2967 5.17543 14.2998 5.43645 14.9172 5.95847C15.5981 6.5395 15.9385 7.30665 15.9385 8.2599C15.9385 9.00435 15.7252 9.6444 15.2985 10.18C14.8718 10.7157 14.3089 11.0584 13.6099 11.2082ZM11.6353 10.003H12.1391C13.6416 10.003 14.3929 9.42878 14.3929 8.28033C14.3929 7.20451 13.6621 6.6666 12.2004 6.6666H11.6353V10.003ZM17.6816 10.3843C17.6816 8.90449 18.2241 7.63348 19.309 6.57128C20.3894 5.50908 21.6876 4.97797 23.2037 4.97797C24.7017 4.97797 25.9863 5.51361 27.0576 6.58489C28.1334 7.65617 28.6713 8.94307 28.6713 10.4456C28.6713 11.9572 28.1312 13.2395 27.0508 14.2927C25.9659 15.3503 24.6563 15.8792 23.122 15.8792C21.7648 15.8792 20.546 15.4093 19.4656 14.4697C18.2763 13.4302 17.6816 12.0684 17.6816 10.3843ZM19.2818 10.4047C19.2818 11.5668 19.6721 12.5223 20.4529 13.2713C21.2291 14.0203 22.1256 14.3948 23.1424 14.3948C24.2455 14.3948 25.1761 14.0135 25.9341 13.2509C26.6922 12.4792 27.0712 11.5396 27.0712 10.432C27.0712 9.31076 26.6967 8.37112 25.9478 7.61305C25.2033 6.85045 24.2818 6.46914 23.1833 6.46914C22.0893 6.46914 21.1656 6.85045 20.412 7.61305C19.6585 8.36658 19.2818 9.29714 19.2818 10.4047ZM32.2529 5.17543V11.5078C32.2529 12.4111 32.4004 13.0716 32.6955 13.4892C33.1358 14.0929 33.7554 14.3948 34.5543 14.3948C35.3578 14.3948 35.9797 14.0929 36.42 13.4892C36.715 13.0852 36.8626 12.4247 36.8626 11.5078V5.17543H38.449V11.9436C38.449 13.0512 38.1041 13.9636 37.4141 14.6808C36.6379 15.4797 35.6846 15.8792 34.5543 15.8792C33.424 15.8792 32.473 15.4797 31.7013 14.6808C31.0114 13.9636 30.6664 13.0512 30.6664 11.9436V5.17543H32.2529ZM46.3815 10.2141H50.7256V10.5613C50.7256 11.3512 50.6326 12.0502 50.4465 12.6585C50.2649 13.2214 49.9585 13.7479 49.5273 14.2382C48.5513 15.3367 47.3098 15.886 45.8028 15.886C44.332 15.886 43.0723 15.3549 42.0238 14.2927C40.9752 13.2259 40.4509 11.9458 40.4509 10.4524C40.4509 8.92719 40.9843 7.63348 42.051 6.57128C43.1177 5.50454 44.416 4.97117 45.9457 4.97117C46.7674 4.97117 47.5345 5.13912 48.2472 5.47503C48.9281 5.81094 49.5976 6.35566 50.2558 7.10919L49.1255 8.19182C48.2631 7.04337 47.2122 6.46914 45.973 6.46914C44.8608 6.46914 43.928 6.85271 43.1745 7.61986C42.421 8.37339 42.0442 9.31757 42.0442 10.4524C42.0442 11.6235 42.4641 12.5881 43.3039 13.3462C44.0892 14.0498 44.9403 14.4016 45.8572 14.4016C46.638 14.4016 47.3393 14.1383 47.9612 13.6118C48.5831 13.0807 48.9303 12.4452 49.003 11.7053H46.3815V10.2141ZM54.314 9.28806H58.8488V5.17543H60.4353V15.6885H58.8488V10.7792H54.314V15.6885H52.7275V5.17543H54.314V9.28806ZM65.8552 6.6666V15.6885H64.2687V6.6666H61.8515V5.17543H68.2656V6.6666H65.8552ZM76.8858 6.6666V15.6885H75.2993V6.6666H72.8821V5.17543H79.2961V6.6666H76.8858ZM79.8477 10.3843C79.8477 8.90449 80.3901 7.63348 81.475 6.57128C82.5554 5.50908 83.8536 4.97797 85.3698 4.97797C86.8677 4.97797 88.1524 5.51361 89.2236 6.58489C90.2995 7.65617 90.8374 8.94307 90.8374 10.4456C90.8374 11.9572 90.2972 13.2395 89.2168 14.2927C88.1319 15.3503 86.8223 15.8792 85.2881 15.8792C83.9308 15.8792 82.712 15.4093 81.6316 14.4697C80.4423 13.4302 79.8477 12.0684 79.8477 10.3843ZM81.4478 10.4047C81.4478 11.5668 81.8382 12.5223 82.6189 13.2713C83.3952 14.0203 84.2917 14.3948 85.3085 14.3948C86.4115 14.3948 87.3421 14.0135 88.1002 13.2509C88.8582 12.4792 89.2373 11.5396 89.2373 10.432C89.2373 9.31076 88.8628 8.37112 88.1138 7.61305C87.3693 6.85045 86.4479 6.46914 85.3493 6.46914C84.2554 6.46914 83.3316 6.85045 82.5781 7.61305C81.8246 8.36658 81.4478 9.29714 81.4478 10.4047ZM99.2601 11.1469L95.8284 5.17543H97.6532L100.057 9.37658L102.467 5.17543H104.292L100.847 11.1469V15.6885H99.2601V11.1469ZM104.455 10.3843C104.455 8.90449 104.998 7.63348 106.083 6.57128C107.163 5.50908 108.461 4.97797 109.977 4.97797C111.475 4.97797 112.76 5.51361 113.831 6.58489C114.907 7.65617 115.445 8.94307 115.445 10.4456C115.445 11.9572 114.905 13.2395 113.825 14.2927C112.74 15.3503 111.43 15.8792 109.896 15.8792C108.538 15.8792 107.32 15.4093 106.239 14.4697C105.05 13.4302 104.455 12.0684 104.455 10.3843ZM106.055 10.4047C106.055 11.5668 106.446 12.5223 107.227 13.2713C108.003 14.0203 108.899 14.3948 109.916 14.3948C111.019 14.3948 111.95 14.0135 112.708 13.2509C113.466 12.4792 113.845 11.5396 113.845 10.432C113.845 9.31076 113.47 8.37112 112.721 7.61305C111.977 6.85045 111.056 6.46914 109.957 6.46914C108.863 6.46914 107.939 6.85045 107.186 7.61305C106.432 8.36658 106.055 9.29714 106.055 10.4047ZM119.027 5.17543V11.5078C119.027 12.4111 119.174 13.0716 119.469 13.4892C119.909 14.0929 120.529 14.3948 121.328 14.3948C122.131 14.3948 122.753 14.0929 123.194 13.4892C123.489 13.0852 123.636 12.4247 123.636 11.5078V5.17543H125.223V11.9436C125.223 13.0512 124.878 13.9636 124.188 14.6808C123.412 15.4797 122.458 15.8792 121.328 15.8792C120.198 15.8792 119.247 15.4797 118.475 14.6808C117.785 13.9636 117.44 13.0512 117.44 11.9436V5.17543H119.027ZM132.052 15.6885V5.17543H133.632C134.335 5.17543 134.896 5.22991 135.314 5.33885C135.736 5.44779 136.092 5.63164 136.383 5.89038C136.678 6.1582 136.912 6.49184 137.084 6.8913C137.261 7.2953 137.35 7.70384 137.35 8.11692C137.35 8.87044 137.061 9.50822 136.485 10.0302C137.043 10.2209 137.483 10.5545 137.806 11.0312C138.133 11.5033 138.296 12.0525 138.296 12.6789C138.296 13.5006 138.005 14.1951 137.424 14.7625C137.075 15.112 136.682 15.3549 136.246 15.491C135.77 15.6227 135.173 15.6885 134.456 15.6885H132.052ZM133.639 9.68979H134.136C134.726 9.68979 135.157 9.56042 135.429 9.30168C135.706 9.0384 135.845 8.65256 135.845 8.14415C135.845 7.64937 135.704 7.27487 135.423 7.02067C135.141 6.76193 134.733 6.63256 134.197 6.63256H133.639V9.68979ZM133.639 14.1973H134.619C135.336 14.1973 135.863 14.0566 136.199 13.7752C136.553 13.471 136.73 13.0852 136.73 12.6177C136.73 12.1637 136.56 11.7824 136.219 11.4737C135.888 11.1696 135.296 11.0175 134.442 11.0175H133.639V14.1973ZM141.898 11.1469L138.466 5.17543H140.291L142.695 9.37658L145.105 5.17543H146.93L143.484 11.1469V15.6885H141.898V11.1469Z" fill="#332083"/>
</svg>
