<?xml version="1.0" encoding="utf-8"?>
<!-- Generator: Adobe Illustrator 16.0.0, SVG Export Plug-In . SVG Version: 6.00 Build 0)  -->
<!DOCTYPE svg PUBLIC "-//W3C//DTD SVG 1.1//EN" "http://www.w3.org/Graphics/SVG/1.1/DTD/svg11.dtd">
<svg version="1.1" id="Layer_1" xmlns="http://www.w3.org/2000/svg" xmlns:xlink="http://www.w3.org/1999/xlink" x="0px" y="0px"
	 width="134.375px" height="123.958px" viewBox="0 0 134.375 123.958" enable-background="new 0 0 134.375 123.958"
	 xml:space="preserve">
<g>
	<g>
		<g>
			<g>
				<defs>
					<rect id="SVGID_1_" x="23.005" y="54.487" width="88.614" height="48.666"/>
				</defs>
				<clipPath id="SVGID_2_">
					<use xlink:href="#SVGID_1_"  overflow="visible"/>
				</clipPath>
				<g clip-path="url(#SVGID_2_)">
					<path fill="#002853" d="M29.346,99.61c-0.155-0.809-0.466-1.309-1.43-1.959c-0.869-0.59-1.958-1.336-1.958-1.336
						s-1.368-0.745-1.43-1.617c-0.094-0.867,0.87-1.676,2.113-1.613c0.59,0.031,0.963,0.217,1.182,0.34
						c0.372,0.25,0.559,0.561,0.622,0.656c0,0.029,0.031,0.029,0.031,0.029c0.03,0.029,0.062,0.063,0.125,0.063
						c0.03,0,0.062-0.063,0.062-0.094V92.37c0,0-0.87,0-2.425,0c-1.492,0-3.295,1.088-3.232,2.826
						c0.032,0.434-0.031,1.243,1.647,2.301c1.554,0.994,2.954,1.584,2.954,3.075c0,1.554-1.492,2.177-2.673,1.989
						c-0.56-0.096-0.933-0.313-1.15-0.527c-0.342-0.342-0.436-0.748-0.499-1.09c0-0.063-0.062-0.092-0.124-0.092
						c-0.031,0-0.063,0.063-0.063,0.092v1.307c0,0,0.778,0.778,2.114,0.867C28.663,103.372,29.596,101.04,29.346,99.61z"/>
					<path fill="#002853" d="M35.905,93.954c-2.828,0-4.475,1.865-4.475,4.539c0,2.795,1.833,4.473,4.351,4.473
						c2.767,0,4.476-2.02,4.476-4.631C40.256,95.506,38.328,93.954,35.905,93.954z M35.812,102.469
						c-1.772,0-3.047-1.492-3.047-3.947c0-2.857,1.554-3.977,3.077-3.977c0.777,0,1.958,0.342,2.58,1.492
						c0.403,0.744,0.497,1.77,0.497,2.424C38.919,101.008,37.645,102.469,35.812,102.469z"/>
					<path fill="#002853" d="M65.37,97.961h-3.077c0.031,0.096,0.125,0.468,0.497,0.59h2.581v3.764c0,0.029,0,0.122,0.031,0.186
						c0.032,0.125,0.25,0.311,0.56,0.311h0.715v-8.639h-1.306L65.37,97.961L65.37,97.961z"/>
					<path fill="#002853" d="M48.648,99.765c-0.033,0.37,0,0.747-0.094,1.057c-0.342,1.398-1.896,1.521-2.175,1.521
						c-0.685,0-1.244-0.309-1.586-0.713c-0.342-0.373-0.373-0.842-0.403-1.646v-0.029V94.11h-1.306h-0.31
						c-0.032,0-0.032,0.029-0.032,0.029c0,0.031,0,0.063,0.032,0.063c0.063,0.062,0.31,0.25,0.31,0.809v4.879
						c0,0.841,0.063,1.398,0.466,1.896c0.653,0.842,1.803,1.09,2.61,1.09c1.212,0,1.928-0.438,2.363-0.871
						c0.621-0.592,0.714-1.336,0.714-2.207c0-0.559,0-5.75,0-5.75h-0.622v5.721L48.648,99.765L48.648,99.765z"/>
					<path fill="#002853" d="M51.756,94.698h2.301v7.555c0,0,0,0.123,0.031,0.215c0.03,0.125,0.25,0.313,0.559,0.313h0.715V94.7h2.3
						v-0.59h-5.906V94.698L51.756,94.698z"/>
					<path fill="#002853" d="M60.056,94.17c0,0.031,0,0.063,0.031,0.063c0.062,0.062,0.312,0.247,0.312,0.806v7.182
						c0,0,0,0.124,0.029,0.217c0.062,0.126,0.25,0.313,0.56,0.313h0.714v-8.64h-1.616C60.086,94.14,60.056,94.14,60.056,94.17z"/>
					<path fill="#002853" d="M105.402,102.469c0.063,0.123,0.25,0.313,0.559,0.313h0.716V94.14h-1.616
						c-0.031,0-0.031,0.03-0.031,0.03c0,0.031,0,0.063,0.031,0.063c0.063,0.062,0.312,0.247,0.312,0.806v7.182
						C105.373,102.25,105.373,102.375,105.402,102.469z"/>
					<path fill="#002853" d="M102.668,94.264c-0.527-0.186-1.09-0.279-1.708-0.279c-2.831,0-4.478,1.862-4.478,4.537
						c0,2.796,1.834,4.475,4.353,4.475c0.685,0,1.274-0.123,1.804-0.342v-0.435c0,0-0.561,0.249-1.804,0.249
						c-1.771,0-3.045-1.491-3.045-3.946c0-2.858,1.556-3.978,3.106-3.978c0.188,0,0.436,0.031,0.653,0.125
						c0,0,0.558,0.154,0.869,0.527c0.062,0.029,0.062,0.063,0.095,0.094c0,0.031,0.029,0.031,0.061,0.031
						c0.033,0,0.033-0.031,0.033-0.031V94.95v-0.684L102.668,94.264L102.668,94.264z"/>
					<path fill="#002853" d="M110.313,97.961h-3.074c0.031,0.096,0.123,0.468,0.496,0.59h2.578v3.764c0,0.029,0,0.122,0.033,0.186
						c0.061,0.125,0.25,0.311,0.561,0.311h0.714v-8.639h-1.308V97.961L110.313,97.961z"/>
					<path fill="#002853" d="M91.634,94.11h-1.366c-0.031,0-0.031,0.03-0.031,0.03c0,0.03,0,0.063,0.031,0.063
						c0.03,0.03,0.125,0.094,0.217,0.277v0.031l-2.922,8.236h0.592l2.643-7.428L92.1,99.02h-2.019c0,0.031,0.095,0.436,0.435,0.592
						h1.805l0.934,2.672c0,0.031,0.03,0.123,0.061,0.187c0.063,0.124,0.25,0.312,0.559,0.312h0.841L91.634,94.11z"/>
					<path fill="#002853" d="M85.667,102.189h-3.479v-7.491h3.138V94.11h-4.386H80.6c-0.029,0-0.029,0.029-0.029,0.029
						c0,0.031,0,0.063,0.029,0.063c0.063,0.062,0.312,0.25,0.312,0.838v7.211c0,0.031,0,0.125,0.028,0.186
						c0.033,0.126,0.25,0.313,0.562,0.313h0.714h3.482v-0.561L85.667,102.189L85.667,102.189z"/>
					<path fill="#002853" d="M75.006,97.463c1.057-0.153,2.333-0.713,2.333-2.517c0-2.61-2.985-2.452-2.985-2.452h-1.709h-1.211
						h-0.717c-0.029,0-0.093,0.028-0.093,0.06c0,0.03,0,0.094,0.062,0.126c0,0,0,0,0.03,0.029c0.125,0.095,0.716,0.496,0.746,1.399
						c0,0.062,0,0.095,0,0.154v0.063v7.955v-0.031c0,0,0,0.125,0.032,0.281c0.063,0.152,0.313,0.369,0.65,0.369h0.529h1.832
						c0,0,3.203,0.188,3.203-2.671C77.74,98.12,76.188,97.559,75.006,97.463z M73.824,102.22h-0.809v-9.104h0.684
						c0,0,2.301-0.125,2.301,1.957c0,1.832-0.84,2.053-1.896,2.053H73.7c0.03,0.092,0.155,0.592,0.592,0.682
						c1.088,0.031,1.958,0.313,1.958,2.238C76.279,102.344,73.824,102.22,73.824,102.22z"/>
					<path fill="#002853" d="M83.148,98.551h1.865v-0.59h-2.426C82.65,98.084,82.773,98.459,83.148,98.551z"/>
					<path fill="#A2D23F" d="M83.646,84.601c-1.679-0.996-3.389-0.312-3.389-0.312c0.592-0.063,1.646,0,2.58,0.59
						c1.68,1.088,2.455,3.418,3.791,3.574c0,0,0.559,0.094,0.9-0.031c0.343-0.094,0.375-0.186,0.375-0.186
						C86.227,88.297,85.448,85.688,83.646,84.601z"/>
					<path fill="#009D9A" d="M86.63,83.575c-2.674-1.584-5.347-0.498-5.347-0.498c0.963-0.063,2.609,0,4.072,0.932
						c2.672,1.711,3.854,5.38,5.968,5.658c0,0,0.899,0.123,1.43-0.033c0.528-0.153,0.56-0.278,0.56-0.278
						C90.702,89.354,89.488,85.286,86.63,83.575z"/>
					<path fill="#A2D23F" d="M98.007,87.799c0,0,0.683,0.561,0.933-0.434c0.312-1.43,1.431-3.978,3.822-4.476
						c0,0-1.242-0.281-2.673,0.964C98.505,85.221,98.007,87.799,98.007,87.799z"/>
					<path fill="#009D9A" d="M89.8,82.022c-3.387-2.02-6.776-0.652-6.776-0.652c1.213-0.096,3.326,0,5.162,1.18
						c3.389,2.176,4.879,6.839,7.582,7.209c0,0,1.15,0.188,1.803-0.028c0.652-0.218,0.717-0.342,0.717-0.342
						C94.99,89.387,93.438,84.196,89.8,82.022z"/>
					<path fill="#009D9A" d="M101.27,87.77c0,0,0.84,0.684,1.088-0.527c0.373-1.68,1.74-4.752,4.568-5.346
						c0,0-1.49-0.342-3.201,1.18C101.859,84.693,101.27,87.77,101.27,87.77z"/>
					<path fill="#002853" d="M93.688,80.499c-4.383-2.608-8.768-0.838-8.768-0.838c1.555-0.125,4.29,0,6.682,1.521
						c4.385,2.797,6.312,8.822,9.791,9.291c0,0,1.494,0.218,2.332-0.03c0.838-0.28,0.933-0.438,0.933-0.438
						C100.369,90.006,98.379,83.295,93.688,80.499z"/>
					<path fill="#002853" d="M105.339,87.741c0,0,0.935,0.744,1.214-0.592c0.436-1.863,1.928-5.283,5.066-5.938
						c0,0-1.646-0.371-3.545,1.305C105.994,84.352,105.339,87.741,105.339,87.741z"/>
					<path fill="#002853" d="M96.42,80.435c0,0-1.18-4.442-1.646-6.899c-0.312-1.584-0.187-1.957-0.187-1.957l2.302-15.165
						l1.959-1.927l-3.203,17.557c0,0-0.156,0.404,0.029,2.113c0.282,2.643,1.149,7.491,1.149,7.491L96.42,80.435z"/>
					<path fill="#009D9A" d="M91.074,77.7c0,0,0.527-2.236,0.715-3.447c0.126-0.812,0.063-0.994,0.063-0.994l-1.461-7.739
						l-1.305-1.024l1.956,8.949c0,0,0.097,0.188,0.032,1.059c-0.096,1.334-0.188,3.758-0.188,3.758L91.074,77.7z"/>
					<path fill="#002853" d="M81.779,81.182c-2.858,1.709-4.413,5.346-6.588,6.682c-0.342,0.219-0.838,0.496-1.43,0.684
						c0.186,0.062,0.494,0.062,0.934-0.03c3.045-0.776,5.158-6.37,8.234-7.894C82.557,80.777,82.188,80.965,81.779,81.182z"/>
					<path fill="#A2D23F" d="M75.348,84.475c-1.742,0.902-3.046,3.016-4.382,3.73c-0.219,0.123-0.528,0.278-0.87,0.342
						c0.123,0.029,0.279,0.061,0.559,0.029c1.834-0.34,3.544-3.574,5.377-4.382C75.813,84.256,75.598,84.352,75.348,84.475z"/>
					<path fill="#009D9A" d="M78.146,83.202c-2.207,1.211-3.64,3.914-5.315,4.881c-0.249,0.155-0.651,0.371-1.089,0.465
						c0.156,0.031,0.373,0.062,0.715,0c2.301-0.498,4.229-4.662,6.559-5.748C78.736,82.922,78.424,83.045,78.146,83.202z"/>
				</g>
			</g>
		</g>
	</g>
</g>
<path fill="#240074" d="M25.101,30.422l-3.708-9.466h0.99l2.731,7.418l2.874-7.418h0.945L25.101,30.422z M29.987,30.068v-9.111
	h0.861v9.111H29.987z M34.071,21.678v3.367h0.867c0.803,0,1.361-0.123,1.676-0.367c0.319-0.249,0.479-0.67,0.479-1.263
	c0-0.626-0.164-1.073-0.492-1.338c-0.328-0.266-0.882-0.399-1.663-0.399H34.071z M38.963,30.068h-1.048l-3.327-4.344h-0.518v4.344
	H33.21v-9.111h1.741c1.026,0,1.795,0.206,2.304,0.616c0.514,0.411,0.77,1.033,0.77,1.867c0,0.709-0.22,1.268-0.66,1.674
	c-0.436,0.407-1.037,0.61-1.805,0.61L38.963,30.068z M40.174,20.957h0.848v5.95c0,0.9,0.213,1.571,0.641,2.01
	c0.427,0.436,1.081,0.654,1.961,0.654c0.867,0,1.514-0.218,1.941-0.654c0.427-0.439,0.641-1.109,0.641-2.01v-5.95h0.861v5.682
	c0,1.232-0.285,2.153-0.854,2.764c-0.57,0.606-1.433,0.908-2.589,0.908c-1.161,0-2.025-0.302-2.595-0.908
	c-0.569-0.61-0.854-1.531-0.854-2.764V20.957z M51.072,30.068v-8.333h-2.608v-0.778h6.083v0.778h-2.615v8.333H51.072z
	 M56.133,26.271h3.301l-1.618-3.964L56.133,26.271z M53.712,30.068l4.162-9.472l3.986,9.472h-0.938l-1.21-3.087h-3.87l-1.255,3.087
	H53.712z M62.928,30.068v-9.111h0.861v8.333h3.249v0.778H62.928z M74.636,30.422l-3.708-9.466h0.989l2.731,7.418l2.873-7.418h0.945
	L74.636,30.422z M79.521,30.068v-9.111h4.692v0.778h-3.832v2.851h3.832v0.778h-3.832v3.927h3.832v0.778H79.521z M86.33,30.068
	v-9.497l6.711,7.624v-7.238h0.803v9.379l-6.705-7.636v7.369H86.33z M96.166,20.957h0.849v5.95c0,0.9,0.214,1.571,0.641,2.01
	c0.427,0.436,1.081,0.654,1.961,0.654c0.867,0,1.514-0.218,1.941-0.654c0.427-0.439,0.641-1.109,0.641-2.01v-5.95h0.861v5.682
	c0,1.232-0.285,2.153-0.854,2.764c-0.569,0.606-1.433,0.908-2.589,0.908c-1.161,0-2.025-0.302-2.596-0.908
	c-0.569-0.61-0.854-1.531-0.854-2.764V20.957z M105.383,30.068v-9.111h4.691v0.778h-3.831v2.851h3.831v0.778h-3.831v3.927h3.831
	v0.778H105.383z M42.005,45.363v-9.111h1.728c0.682,0,1.183,0.035,1.501,0.105c0.324,0.07,0.604,0.187,0.841,0.348
	c0.298,0.208,0.529,0.492,0.693,0.853c0.164,0.36,0.246,0.761,0.246,1.201c0,0.867-0.252,1.504-0.757,1.911
	c-0.504,0.402-1.303,0.603-2.395,0.603h-0.996v4.09H42.005z M42.866,40.545h0.588c1.044,0,1.746-0.127,2.104-0.38
	c0.362-0.257,0.544-0.705,0.544-1.345c0-0.27-0.042-0.515-0.124-0.74c-0.082-0.228-0.205-0.432-0.369-0.61
	c-0.168-0.182-0.397-0.311-0.686-0.385c-0.289-0.075-0.779-0.112-1.469-0.112h-0.588V40.545z M49.033,41.566h3.301l-1.618-3.965
	L49.033,41.566z M46.613,45.363l4.161-9.472l3.986,9.472h-0.938l-1.21-3.087h-3.87l-1.255,3.087H46.613z M56.689,36.974v3.366h0.867
	c0.802,0,1.361-0.122,1.676-0.367c0.319-0.249,0.479-0.669,0.479-1.263c0-0.627-0.164-1.073-0.492-1.338
	c-0.328-0.265-0.882-0.397-1.663-0.397H56.689z M61.582,45.363h-1.048l-3.327-4.344h-0.518v4.344h-0.861v-9.111h1.741
	c1.027,0,1.795,0.205,2.304,0.615c0.513,0.411,0.77,1.034,0.77,1.867c0,0.71-0.22,1.268-0.66,1.674
	c-0.436,0.407-1.038,0.61-1.806,0.61L61.582,45.363z M64.281,45.363v-8.334h-2.608v-0.777h6.083v0.777h-2.614v8.334H64.281z
	 M69.187,45.363v-9.497l6.711,7.624v-7.238H76.7v9.378l-6.705-7.636v7.369H69.187z M79.063,45.363v-9.111h4.692v0.777h-3.832v2.851
	h3.832v0.778h-3.832v3.926h3.832v0.779H79.063z M86.731,36.974v3.366h0.866c0.803,0,1.362-0.122,1.677-0.367
	c0.319-0.249,0.479-0.669,0.479-1.263c0-0.627-0.163-1.073-0.491-1.338c-0.328-0.265-0.883-0.397-1.664-0.397H86.731z
	 M91.624,45.363h-1.049l-3.327-4.344h-0.517v4.344H85.87v-9.111h1.741c1.026,0,1.795,0.205,2.304,0.615
	c0.514,0.411,0.771,1.034,0.771,1.867c0,0.71-0.221,1.268-0.66,1.674c-0.436,0.407-1.039,0.61-1.806,0.61L91.624,45.363z"/>
</svg>
