<?xml version="1.0" encoding="utf-8"?>
<!-- Generator: Adobe Illustrator 16.0.0, SVG Export Plug-In . SVG Version: 6.00 Build 0)  -->
<!DOCTYPE svg PUBLIC "-//W3C//DTD SVG 1.1//EN" "http://www.w3.org/Graphics/SVG/1.1/DTD/svg11.dtd">
<svg version="1.1" id="Layer_1" xmlns="http://www.w3.org/2000/svg" xmlns:xlink="http://www.w3.org/1999/xlink" x="0px" y="0px"
	 width="134.375px" height="123.958px" viewBox="0 0 134.375 123.958" enable-background="new 0 0 134.375 123.958"
	 xml:space="preserve">
<g>
	<g>
		<g>
			<g>
				<g>
					<defs>
						<rect id="SVGID_1_" x="23.005" y="54.487" width="88.614" height="48.666"/>
					</defs>
					<clipPath id="SVGID_2_">
						<use xlink:href="#SVGID_1_"  overflow="visible"/>
					</clipPath>
					<g clip-path="url(#SVGID_2_)">
						<path fill="#002853" d="M29.346,99.61c-0.155-0.809-0.466-1.309-1.43-1.959c-0.869-0.59-1.958-1.336-1.958-1.336
							s-1.368-0.745-1.43-1.617c-0.094-0.867,0.87-1.676,2.113-1.613c0.59,0.031,0.963,0.217,1.182,0.34
							c0.372,0.25,0.559,0.562,0.622,0.656c0,0.029,0.031,0.029,0.031,0.029c0.03,0.029,0.062,0.063,0.125,0.063
							c0.03,0,0.062-0.063,0.062-0.094V92.37c0,0-0.87,0-2.425,0c-1.492,0-3.295,1.088-3.232,2.826
							c0.032,0.434-0.031,1.243,1.647,2.301c1.554,0.994,2.954,1.584,2.954,3.075c0,1.554-1.492,2.177-2.673,1.989
							c-0.56-0.096-0.933-0.313-1.15-0.527c-0.342-0.342-0.436-0.748-0.499-1.09c0-0.063-0.062-0.092-0.124-0.092
							c-0.031,0-0.063,0.063-0.063,0.092v1.307c0,0,0.778,0.778,2.114,0.867C28.663,103.372,29.596,101.04,29.346,99.61z"/>
						<path fill="#002853" d="M35.905,93.954c-2.828,0-4.475,1.865-4.475,4.539c0,2.795,1.833,4.473,4.351,4.473
							c2.767,0,4.476-2.02,4.476-4.631C40.256,95.506,38.328,93.954,35.905,93.954z M35.812,102.469
							c-1.772,0-3.047-1.492-3.047-3.947c0-2.857,1.554-3.977,3.077-3.977c0.777,0,1.958,0.342,2.58,1.492
							c0.403,0.744,0.497,1.77,0.497,2.424C38.919,101.008,37.645,102.469,35.812,102.469z"/>
						<path fill="#002853" d="M65.37,97.961h-3.077c0.031,0.096,0.125,0.468,0.497,0.59h2.581v3.764c0,0.029,0,0.122,0.031,0.186
							c0.032,0.125,0.25,0.312,0.56,0.312h0.715v-8.64h-1.306L65.37,97.961L65.37,97.961z"/>
						<path fill="#002853" d="M48.648,99.765c-0.033,0.37,0,0.747-0.094,1.057c-0.342,1.398-1.896,1.521-2.175,1.521
							c-0.685,0-1.244-0.309-1.586-0.713c-0.342-0.373-0.373-0.842-0.403-1.646v-0.028V94.11h-1.306h-0.31
							c-0.032,0-0.032,0.029-0.032,0.029c0,0.031,0,0.063,0.032,0.063c0.063,0.063,0.31,0.25,0.31,0.809v4.88
							c0,0.841,0.063,1.397,0.466,1.896c0.653,0.842,1.803,1.09,2.61,1.09c1.212,0,1.928-0.438,2.363-0.871
							c0.621-0.592,0.714-1.336,0.714-2.207c0-0.559,0-5.75,0-5.75h-0.622v5.722L48.648,99.765L48.648,99.765z"/>
						<path fill="#002853" d="M51.756,94.698h2.301v7.555c0,0,0,0.123,0.031,0.215c0.03,0.125,0.25,0.314,0.559,0.314h0.715V94.7
							h2.3v-0.59h-5.906V94.698L51.756,94.698z"/>
						<path fill="#002853" d="M60.056,94.17c0,0.031,0,0.063,0.031,0.063c0.062,0.063,0.312,0.247,0.312,0.807v7.182
							c0,0,0,0.124,0.029,0.217c0.062,0.126,0.25,0.313,0.56,0.313h0.714v-8.64h-1.616C60.086,94.14,60.056,94.14,60.056,94.17z"/>
						<path fill="#002853" d="M105.402,102.469c0.063,0.123,0.25,0.313,0.559,0.313h0.716V94.14h-1.616
							c-0.031,0-0.031,0.03-0.031,0.03c0,0.031,0,0.063,0.031,0.063c0.063,0.063,0.313,0.247,0.313,0.807v7.182
							C105.373,102.25,105.373,102.375,105.402,102.469z"/>
						<path fill="#002853" d="M102.668,94.264c-0.527-0.186-1.09-0.279-1.708-0.279c-2.831,0-4.478,1.862-4.478,4.537
							c0,2.796,1.834,4.475,4.353,4.475c0.685,0,1.274-0.123,1.804-0.342v-0.435c0,0-0.561,0.249-1.804,0.249
							c-1.771,0-3.045-1.491-3.045-3.946c0-2.858,1.556-3.978,3.106-3.978c0.188,0,0.436,0.031,0.652,0.125
							c0,0,0.559,0.154,0.869,0.527c0.063,0.028,0.063,0.063,0.096,0.094c0,0.031,0.028,0.031,0.061,0.031
							c0.033,0,0.033-0.031,0.033-0.031V94.95v-0.684L102.668,94.264L102.668,94.264z"/>
						<path fill="#002853" d="M110.313,97.961h-3.073c0.03,0.096,0.122,0.468,0.495,0.59h2.578v3.764c0,0.029,0,0.122,0.033,0.186
							c0.062,0.125,0.25,0.312,0.562,0.312h0.714v-8.64h-1.309V97.961L110.313,97.961z"/>
						<path fill="#002853" d="M91.634,94.11h-1.366c-0.031,0-0.031,0.03-0.031,0.03c0,0.03,0,0.063,0.031,0.063
							c0.03,0.029,0.125,0.094,0.217,0.276v0.03l-2.922,8.236h0.592l2.644-7.428L92.1,99.02h-2.019c0,0.031,0.095,0.436,0.435,0.592
							h1.805l0.935,2.672c0,0.031,0.03,0.123,0.062,0.188c0.063,0.124,0.25,0.313,0.559,0.313h0.841L91.634,94.11z"/>
						<path fill="#002853" d="M85.667,102.189h-3.479v-7.491h3.139V94.11h-4.387H80.6c-0.029,0-0.029,0.029-0.029,0.029
							c0,0.031,0,0.063,0.029,0.063c0.063,0.063,0.313,0.25,0.313,0.838v7.211c0,0.031,0,0.125,0.027,0.187
							c0.033,0.126,0.25,0.313,0.563,0.313h0.714h3.482v-0.562H85.667L85.667,102.189z"/>
						<path fill="#002853" d="M75.006,97.463c1.057-0.153,2.333-0.713,2.333-2.518c0-2.609-2.985-2.451-2.985-2.451h-1.709h-1.211
							h-0.717c-0.029,0-0.093,0.027-0.093,0.06c0,0.03,0,0.094,0.062,0.126c0,0,0,0,0.03,0.029c0.125,0.095,0.716,0.496,0.746,1.398
							c0,0.063,0,0.096,0,0.154v0.063v7.955v-0.031c0,0,0,0.125,0.032,0.281c0.063,0.152,0.313,0.369,0.65,0.369h0.528h1.832
							c0,0,3.203,0.188,3.203-2.671C77.74,98.12,76.188,97.559,75.006,97.463z M73.824,102.22h-0.809v-9.104h0.684
							c0,0,2.301-0.125,2.301,1.957c0,1.832-0.84,2.053-1.896,2.053H73.7c0.03,0.092,0.155,0.592,0.592,0.683
							c1.088,0.03,1.958,0.313,1.958,2.237C76.279,102.344,73.824,102.22,73.824,102.22z"/>
						<path fill="#002853" d="M83.148,98.551h1.865v-0.59h-2.427C82.65,98.084,82.773,98.459,83.148,98.551z"/>
						<path fill="#A2D23F" d="M83.646,84.601c-1.68-0.996-3.39-0.312-3.39-0.312c0.593-0.063,1.646,0,2.58,0.59
							c1.681,1.088,2.455,3.418,3.791,3.574c0,0,0.56,0.094,0.899-0.031c0.344-0.094,0.375-0.187,0.375-0.187
							C86.227,88.297,85.448,85.688,83.646,84.601z"/>
						<path fill="#009D9A" d="M86.63,83.575c-2.674-1.584-5.347-0.498-5.347-0.498c0.963-0.063,2.609,0,4.072,0.932
							c2.672,1.712,3.854,5.381,5.968,5.658c0,0,0.899,0.123,1.43-0.033c0.528-0.152,0.56-0.277,0.56-0.277
							C90.702,89.354,89.488,85.286,86.63,83.575z"/>
						<path fill="#A2D23F" d="M98.007,87.799c0,0,0.683,0.561,0.933-0.434c0.313-1.431,1.432-3.979,3.822-4.477
							c0,0-1.242-0.281-2.673,0.964C98.505,85.221,98.007,87.799,98.007,87.799z"/>
						<path fill="#009D9A" d="M89.8,82.022c-3.387-2.02-6.776-0.652-6.776-0.652c1.213-0.096,3.326,0,5.162,1.18
							c3.39,2.177,4.879,6.84,7.582,7.209c0,0,1.15,0.189,1.803-0.027c0.652-0.218,0.718-0.342,0.718-0.342
							C94.99,89.387,93.438,84.196,89.8,82.022z"/>
						<path fill="#009D9A" d="M101.27,87.77c0,0,0.84,0.684,1.088-0.527c0.373-1.68,1.74-4.752,4.568-5.346
							c0,0-1.49-0.342-3.201,1.18C101.859,84.693,101.27,87.77,101.27,87.77z"/>
						<path fill="#002853" d="M93.688,80.499c-4.383-2.607-8.768-0.838-8.768-0.838c1.555-0.125,4.29,0,6.682,1.521
							c4.385,2.797,6.313,8.822,9.791,9.291c0,0,1.494,0.218,2.332-0.03c0.838-0.28,0.934-0.438,0.934-0.438
							C100.369,90.006,98.379,83.295,93.688,80.499z"/>
						<path fill="#002853" d="M105.339,87.741c0,0,0.935,0.744,1.214-0.592c0.436-1.863,1.928-5.283,5.066-5.938
							c0,0-1.646-0.371-3.545,1.305C105.994,84.352,105.339,87.741,105.339,87.741z"/>
						<path fill="#002853" d="M96.42,80.435c0,0-1.18-4.442-1.646-6.899c-0.312-1.584-0.187-1.957-0.187-1.957l2.302-15.165
							l1.959-1.927l-3.203,17.557c0,0-0.156,0.404,0.029,2.113c0.282,2.643,1.149,7.491,1.149,7.491L96.42,80.435z"/>
						<path fill="#009D9A" d="M91.074,77.7c0,0,0.527-2.236,0.715-3.447c0.126-0.812,0.063-0.994,0.063-0.994l-1.461-7.738
							l-1.305-1.023l1.956,8.948c0,0,0.097,0.188,0.032,1.06c-0.096,1.334-0.188,3.758-0.188,3.758L91.074,77.7z"/>
						<path fill="#002853" d="M81.779,81.182c-2.858,1.709-4.413,5.346-6.588,6.682c-0.342,0.219-0.838,0.496-1.43,0.684
							c0.186,0.063,0.493,0.063,0.934-0.029c3.045-0.775,5.158-6.37,8.234-7.895C82.557,80.777,82.188,80.965,81.779,81.182z"/>
						<path fill="#A2D23F" d="M75.348,84.475c-1.742,0.902-3.046,3.016-4.382,3.73c-0.219,0.123-0.528,0.277-0.87,0.342
							c0.123,0.029,0.279,0.061,0.559,0.029c1.834-0.341,3.545-3.574,5.378-4.383C75.813,84.256,75.598,84.352,75.348,84.475z"/>
						<path fill="#009D9A" d="M78.146,83.202c-2.207,1.211-3.641,3.914-5.315,4.881c-0.249,0.155-0.651,0.371-1.089,0.465
							c0.156,0.031,0.373,0.063,0.715,0c2.301-0.498,4.229-4.662,6.559-5.748C78.736,82.922,78.424,83.045,78.146,83.202z"/>
					</g>
				</g>
			</g>
		</g>
	</g>
</g>
<path fill="#240074" d="M26.157,30.528l-3.577-9.494h0.955l2.634,7.44l2.771-7.44h0.911L26.157,30.528z M30.87,30.172v-9.138h0.83
	v9.138H30.87z M34.809,21.758v3.376h0.836c0.774,0,1.313-0.123,1.617-0.368c0.308-0.25,0.462-0.672,0.462-1.267
	c0-0.628-0.158-1.076-0.474-1.342c-0.316-0.267-0.851-0.399-1.604-0.399H34.809z M39.527,30.172h-1.011l-3.208-4.357h-0.5v4.357
	h-0.83v-9.138h1.679c0.991,0,1.731,0.206,2.223,0.618c0.495,0.412,0.743,1.036,0.743,1.873c0,0.712-0.212,1.271-0.637,1.679
	c-0.42,0.408-1,0.612-1.742,0.612L39.527,30.172z M46.695,21.034h0.817v5.967c0,0.903,0.207,1.575,0.618,2.016
	c0.412,0.437,1.042,0.655,1.891,0.655c0.837,0,1.461-0.218,1.873-0.655c0.412-0.441,0.618-1.113,0.618-2.016v-5.967h0.831v5.699
	c0,1.236-0.275,2.16-0.824,2.771c-0.549,0.607-1.381,0.911-2.497,0.911c-1.119,0-1.954-0.304-2.502-0.911
	c-0.549-0.612-0.824-1.536-0.824-2.771V21.034z M56.087,26.364h3.184l-1.561-3.976L56.087,26.364z M53.753,30.172l4.014-9.5
	l3.845,9.5h-0.905l-1.167-3.096h-3.733l-1.211,3.096H53.753z M62.642,30.172v-9.138h0.83v8.358h3.134v0.78H62.642z M73.934,30.528
	l-3.576-9.494h0.954l2.634,7.44l2.771-7.44h0.912L73.934,30.528z M78.646,30.172v-9.138h4.525v0.78h-3.695v2.859h3.695v0.78h-3.695
	v3.939h3.695v0.78H78.646z M85.213,30.172v-9.525l6.473,7.646v-7.259h0.774v9.406l-6.467-7.659v7.391H85.213z M94.7,21.034h0.817
	v5.967c0,0.903,0.206,1.575,0.619,2.016c0.411,0.437,1.041,0.655,1.891,0.655c0.837,0,1.461-0.218,1.873-0.655
	c0.411-0.441,0.617-1.113,0.617-2.016v-5.967h0.831v5.699c0,1.236-0.275,2.16-0.824,2.771c-0.55,0.607-1.382,0.911-2.497,0.911
	c-1.119,0-1.954-0.304-2.503-0.911c-0.55-0.612-0.824-1.536-0.824-2.771V21.034z M103.589,30.172v-9.138h4.525v0.78h-3.695v2.859
	h3.695v0.78h-3.695v3.939h3.695v0.78H103.589z M42.461,45.512v-9.138h1.667c0.657,0,1.14,0.035,1.448,0.105
	c0.312,0.071,0.583,0.188,0.812,0.35c0.287,0.208,0.51,0.494,0.667,0.856c0.158,0.362,0.237,0.763,0.237,1.204
	c0,0.87-0.244,1.509-0.73,1.917c-0.487,0.404-1.257,0.605-2.31,0.605h-0.961v4.102H42.461z M43.292,40.681h0.568
	c1.007,0,1.683-0.127,2.029-0.381c0.35-0.258,0.524-0.708,0.524-1.349c0-0.27-0.04-0.517-0.119-0.742
	c-0.079-0.229-0.198-0.433-0.356-0.612c-0.162-0.183-0.383-0.312-0.662-0.387c-0.279-0.075-0.751-0.112-1.417-0.112h-0.568V40.681z
	 M49.24,41.705h3.184l-1.561-3.977L49.24,41.705z M46.906,45.512l4.014-9.5l3.845,9.5h-0.905l-1.167-3.096h-3.732l-1.211,3.096
	H46.906z M56.624,37.098v3.376h0.837c0.774,0,1.313-0.123,1.616-0.368c0.308-0.25,0.462-0.672,0.462-1.267
	c0-0.628-0.158-1.076-0.475-1.342c-0.316-0.267-0.851-0.399-1.604-0.399H56.624z M61.343,45.512h-1.011l-3.208-4.357h-0.5v4.357
	h-0.83v-9.138h1.679c0.991,0,1.731,0.206,2.222,0.617c0.495,0.412,0.743,1.037,0.743,1.873c0,0.711-0.213,1.271-0.637,1.679
	c-0.42,0.408-1.001,0.612-1.742,0.612L61.343,45.512z M63.946,45.512v-8.358h-2.516v-0.78h5.868v0.78h-2.522v8.358H63.946z
	 M68.678,45.512v-9.525l6.474,7.646v-7.259h0.773v9.406l-6.467-7.659v7.391H68.678z M78.203,45.512v-9.138h4.525v0.78h-3.695v2.859
	h3.695v0.781h-3.695v3.938h3.695v0.781H78.203z M85.6,37.098v3.376h0.837c0.773,0,1.313-0.123,1.616-0.368
	c0.309-0.25,0.462-0.672,0.462-1.267c0-0.628-0.158-1.076-0.475-1.342c-0.316-0.267-0.852-0.399-1.604-0.399H85.6z M90.318,45.512
	h-1.011l-3.209-4.357H85.6v4.357h-0.83v-9.138h1.679c0.99,0,1.731,0.206,2.222,0.617c0.496,0.412,0.743,1.037,0.743,1.873
	c0,0.711-0.212,1.271-0.636,1.679c-0.421,0.408-1.002,0.612-1.742,0.612L90.318,45.512z M42.206,30.172v-8.358H39.69v-0.78h5.868
	v0.78h-2.522v8.358H42.206z"/>
</svg>
