<?xml version="1.0" encoding="utf-8"?>
<!-- Generator: Adobe Illustrator 16.0.0, SVG Export Plug-In . SVG Version: 6.00 Build 0)  -->
<!DOCTYPE svg PUBLIC "-//W3C//DTD SVG 1.1//EN" "http://www.w3.org/Graphics/SVG/1.1/DTD/svg11.dtd">
<svg version="1.1" id="Layer_1" xmlns="http://www.w3.org/2000/svg" xmlns:xlink="http://www.w3.org/1999/xlink" x="0px" y="0px"
	 width="335.982px" height="292.484px" viewBox="0 0 335.982 292.484" enable-background="new 0 0 335.982 292.484"
	 xml:space="preserve">
<path fill="#002856" d="M56.352,266.553c-0.46-2.612-1.539-4.2-4.606-6.319c-2.759-1.907-6.331-4.265-6.331-4.265
	s-4.352-2.417-4.612-5.248c-0.258-2.842,2.837-5.436,6.795-5.159c1.94,0.075,3.076,0.681,3.795,1.143
	c1.228,0.79,1.781,1.835,1.964,2.126c0.039,0.063,0.055,0.09,0.055,0.09c0.064,0.131,0.212,0.195,0.353,0.161
	c0.14-0.03,0.238-0.161,0.238-0.307l-0.003-5.479h-7.753c-4.722-0.086-10.528,3.46-10.315,9.074c0.051,1.38-0.08,3.998,5.284,7.405
	c4.961,3.153,9.484,5.117,9.525,9.896c0.04,5.033-4.831,6.991-8.609,6.396c-1.777-0.282-3-1.021-3.691-1.693
	c-1.122-1.091-1.443-2.407-1.628-3.524c-0.032-0.195-0.235-0.285-0.377-0.25c-0.141,0.031-0.246,0.161-0.246,0.308v4.217
	c0,0,2.491,2.494,6.794,2.764C54.167,278.586,57.151,271.095,56.352,266.553"/>
<path fill="#002856" d="M77.417,248.375c-9.132,0-14.386,5.967-14.386,14.612c0,9.009,5.887,14.443,14.01,14.443
	c8.868,0,14.382-6.453,14.382-14.934C91.422,253.369,85.2,248.375,77.417,248.375 M77.113,275.687
	c-5.738,0-9.835-4.831-9.835-12.742c0-9.173,4.99-12.821,9.946-12.821c2.534,0,6.299,1.096,8.314,4.789
	c1.301,2.391,1.635,5.681,1.635,7.787C87.173,271.018,83.003,275.687,77.113,275.687"/>
<path fill="#002856" d="M172.188,261.199h-9.866c0.063,0.266,0.43,1.514,1.554,1.859h8.313v12.096
	c0.006,0.141,0.024,0.369,0.105,0.594c0.149,0.441,0.821,0.973,1.782,0.975h2.309v-27.826h-4.196V261.199z"/>
<path fill="#002856" d="M118.38,267.058c-0.063,1.162-0.006,2.416-0.253,3.385c-1.145,4.48-6.074,4.861-7.044,4.861
	c-2.181,0-3.961-0.986-5.07-2.268c-1.07-1.212-1.235-2.732-1.301-5.265l-0.005-0.104v-18.777h-4.172v0.004h-0.977
	c-0.062,0-0.116,0.063-0.129,0.146c-0.015,0.084,0.011,0.172,0.067,0.215c0,0,0.011,0.006,0.04,0.029
	c0.188,0.165,0.979,0.771,0.998,2.637v15.748h0.019c0.012,2.66,0.199,4.538,1.458,6.108c2.143,2.656,5.782,3.523,8.448,3.523
	c3.948,0,6.163-1.412,7.621-2.819c1.986-1.894,2.31-4.296,2.31-7.136v-18.455h-2.011V267.058z"/>
<path fill="#002856" d="M128.412,250.753h7.409v24.3l0.013-0.037c0,0-0.02,0.371,0.103,0.731c0.151,0.441,0.823,0.973,1.788,0.975
	h2.294v-25.969h7.397v-1.861h-19.004V250.753z"/>
<path fill="#002856" d="M155.137,249.041c-0.018,0.084,0.015,0.172,0.068,0.215c0,0,0.011,0.006,0.033,0.029
	c0.191,0.165,0.981,0.771,1.003,2.645v23.088c0,0-0.019,0.371,0.104,0.73c0.152,0.441,0.818,0.973,1.782,0.975h2.307v-27.826h-5.172
	C155.205,248.896,155.152,248.958,155.137,249.041"/>
<path fill="#002856" d="M301.026,275.748c0.155,0.441,0.824,0.973,1.785,0.975h2.312v-27.826h-5.174
	c-0.064,0-0.117,0.063-0.132,0.146c-0.013,0.084,0.015,0.172,0.066,0.215c0,0,0.014,0.006,0.039,0.029
	c0.188,0.165,0.981,0.771,0.999,2.645v23.09v-0.002C300.921,275.017,300.905,275.388,301.026,275.748"/>
<path fill="#002856" d="M292.206,249.294c-1.68-0.605-3.521-0.92-5.463-0.92c-9.136,0-14.387,5.967-14.387,14.612
	c0,9.008,5.893,14.443,14.01,14.443c2.156,0,4.111-0.384,5.84-1.08v-1.445c0,0-1.846,0.781-5.765,0.781
	c-5.737,0-9.836-4.83-9.836-12.742c0-9.172,4.991-12.822,9.953-12.822c0.632,0,1.353,0.132,2.105,0.396c0,0,1.805,0.521,2.83,1.744
	c0.016,0.018,0.017,0.031,0.028,0.049c0.154,0.131,0.249,0.25,0.302,0.306c0.022,0.03,0.029,0.042,0.029,0.042
	c0.041,0.059,0.125,0.084,0.208,0.072c0.081-0.015,0.146-0.067,0.146-0.135v-1.127l-0.002-0.004L292.206,249.294L292.206,249.294z"
	/>
<path fill="#002856" d="M316.87,261.199h-9.865c0.064,0.266,0.428,1.514,1.555,1.859h8.312v12.096
	c0.006,0.141,0.028,0.369,0.104,0.594c0.152,0.441,0.818,0.973,1.783,0.975h2.31v-27.826h-4.197L316.87,261.199L316.87,261.199z"/>
<path fill="#002856" d="M256.711,248.871h-4.367c-0.063,0-0.121,0.061-0.133,0.146c-0.016,0.084,0.012,0.17,0.068,0.214
	c0,0,0.012,0.006,0.036,0.031c0.111,0.096,0.415,0.341,0.66,0.881l0.021,0.051l-9.414,26.529h1.865l8.479-23.897l4.219,11.888
	h-6.533c0.015,0.055,0.31,1.423,1.438,1.859h5.76l3.043,8.569c0.049,0.145,0.141,0.377,0.216,0.606
	c0.156,0.44,0.824,0.973,1.786,0.975h2.745L256.711,248.871z"/>
<path fill="#002856" d="M237.506,274.858h-11.203v-24.09h10.127v-1.855h-14.143v0.018c-0.016-0.01-0.031-0.033-0.05-0.033h-1.108
	c-0.062,0-0.119,0.063-0.129,0.146c-0.016,0.084,0.01,0.172,0.068,0.215c0,0,0.018,0.006,0.036,0.029
	c0.189,0.17,0.99,0.774,0.999,2.676v23.178c0.003,0.144,0.028,0.378,0.11,0.609c0.147,0.441,0.815,0.973,1.777,0.975h2.311v-0.005
	h11.203L237.506,274.858L237.506,274.858z"/>
<path fill="#002856" d="M203.245,259.581c3.381-0.487,7.525-2.28,7.525-8.116c0-8.424-9.589-7.867-9.589-7.867h-5.527l-0.007,0.011
	h-3.863v0.014h-2.312c-0.145,0-0.276,0.1-0.305,0.238c-0.037,0.141,0.027,0.287,0.16,0.354c0,0,0.026,0.016,0.09,0.055
	c0.444,0.281,2.285,1.563,2.354,4.505c0,0.184,0.003,0.336,0.003,0.456v0.248v0.015c0,0.004,0,0.01,0.008,0.022v25.578l0.021-0.066
	c0,0-0.021,0.447,0.128,0.881c0.184,0.532,0.986,1.17,2.144,1.174h1.67l0.012,0.019h5.942c0,0,10.314,0.604,10.314-8.579
	C212.014,261.755,206.976,259.97,203.245,259.581 M199.415,274.892h-2.582v-29.273h2.223c0,0,7.373-0.442,7.373,6.302
	c0,5.856-2.738,6.631-6.055,6.631h-1.252c0.084,0.334,0.534,1.857,1.924,2.248c3.522,0.056,6.299,1.037,6.299,7.226
	C207.344,275.376,199.415,274.892,199.415,274.892"/>
<path fill="#002856" d="M229.424,263.099h6.043v-1.857h-7.771C227.793,261.599,228.213,262.853,229.424,263.099"/>
<path fill="#95D600" d="M230.997,218.273c-5.44-3.238-10.873-1.037-10.873-1.037c1.938-0.157,5.321-0.01,8.293,1.896
	c5.449,3.496,7.855,10.962,12.153,11.546c0,0,1.843,0.281,2.901-0.056c1.057-0.335,1.153-0.551,1.153-0.551
	C239.314,230.084,236.847,221.755,230.997,218.273"/>
<path fill="#00A19B" d="M240.588,214.945c-8.58-5.107-17.153-1.637-17.153-1.637c3.061-0.246,8.395-0.02,13.086,2.991
	c8.591,5.515,12.386,17.287,19.171,18.214c0,0,2.904,0.443,4.575-0.091c1.663-0.532,1.817-0.866,1.817-0.866
	C253.704,233.573,249.814,220.435,240.588,214.945"/>
<path fill="#95D600" d="M277.237,228.482c0,0,2.226,1.804,2.964-1.442c1.03-4.55,4.64-12.802,12.284-14.377
	c0,0-3.983-0.937-8.588,3.133C278.829,220.271,277.237,228.482,277.237,228.482"/>
<path fill="#00A19B" d="M250.834,209.92c-10.914-6.495-21.813-2.083-21.813-2.083c3.893-0.313,10.669-0.021,16.641,3.807
	c10.918,7.008,15.742,21.977,24.365,23.15c0,0,3.696,0.563,5.817-0.113c2.123-0.673,2.314-1.1,2.314-1.1
	C267.506,233.603,262.562,216.9,250.834,209.92"/>
<path fill="#00A19B" d="M287.766,228.38c0,0,2.66,2.164,3.547-1.729c1.233-5.44,5.556-15.323,14.707-17.21
	c0,0-4.771-1.121-10.282,3.752C289.67,218.552,287.766,228.38,287.766,228.38"/>
<path fill="#002856" d="M263.334,205.056c-14.082-8.385-28.151-2.688-28.151-2.688c5.026-0.407,13.776-0.032,21.479,4.909
	c14.096,9.048,20.324,28.371,31.461,29.892c0,0,4.766,0.722,7.508-0.146c2.734-0.873,2.985-1.424,2.985-1.424
	C284.858,235.627,278.474,214.068,263.334,205.056"/>
<path fill="#002856" d="M300.788,228.316c0,0,2.957,2.402,3.938-1.922c1.373-6.049,6.174-17.028,16.341-19.121
	c0,0-5.299-1.248-11.423,4.166C302.905,217.394,300.788,228.316,300.788,228.316"/>
<path fill="#002856" d="M272.118,204.798c0,0-3.793-14.313-5.309-22.203c-0.979-5.121-0.642-6.35-0.642-6.35l7.438-48.771
	l6.353-6.146l-10.314,56.504c0,0-0.467,1.254,0.125,6.789c0.915,8.528,3.689,24.135,3.689,24.135L272.118,204.798z"/>
<path fill="#00A19B" d="M254.879,196.011c0,0,1.653-7.162,2.271-11.121c0.4-2.569,0.206-3.2,0.206-3.2l-4.681-24.861l-4.194-3.258
	l6.282,28.846c0,0,0.258,0.646,0.061,3.434c-0.303,4.297-0.552,12.135-0.552,12.135L254.879,196.011z"/>
<path fill="#002856" d="M225.073,207.265c-9.236,5.5-14.182,17.162-21.188,21.497c-1.069,0.688-2.749,1.626-4.615,2.181
	c0.606,0.156,1.559,0.229,3.016-0.061c9.771-2.454,16.636-20.475,26.481-25.411C227.546,205.945,226.312,206.533,225.073,207.265"/>
<path fill="#95D600" d="M204.331,217.832c-5.646,2.938-9.797,9.662-14.086,11.985c-0.654,0.368-1.677,0.868-2.797,1.132
	c0.354,0.115,0.91,0.188,1.781,0.068c5.856-1.123,11.356-11.539,17.341-14.123C205.834,217.135,205.084,217.436,204.331,217.832"/>
<path fill="#00A19B" d="M213.315,213.746c-7.068,3.922-11.703,12.573-17.071,15.668c-0.82,0.487-2.104,1.16-3.52,1.53
	c0.451,0.134,1.167,0.209,2.271,0.026c7.398-1.616,13.62-15.005,21.132-18.489C215.202,212.81,214.259,213.221,213.315,213.746"/>
<g>
	<path fill="#361B87" d="M105.361,42.902l10.322-27h-7.323l-5.381,16.146c-0.187,0.557-0.378,1.336-0.568,2.194
		c-0.029,0.127-0.058,0.289-0.084,0.422c-0.04-0.171-0.078-0.323-0.116-0.486c-0.21-0.894-0.365-1.62-0.467-1.962l-5.307-16.313
		H89.04l10.246,27H105.361z"/>
	<rect x="117.901" y="15.902" fill="#361B87" width="6" height="27"/>
	<path fill="#361B87" d="M146.32,28.666c1.186-1.327,1.785-2.946,1.785-4.813c0-2.563-0.883-4.641-2.625-5.933
		c-1.695-1.259-4.249-2.02-7.587-2.02h-8.992v27h7v-10.88l6.264,10.881h7.773l-7.444-11.861
		C144.019,30.713,145.303,29.806,146.32,28.666z M135.901,20.902h0.39c2.602,0,3.729,0.582,4.216,0.904
		c0.652,0.434,0.969,1.268,0.969,2.348c0,1.021-0.289,1.714-0.883,2.1c-0.451,0.292-1.563,0.648-4.302,0.648h-0.39V20.902z"/>
	<path fill="#361B87" d="M184.037,43.247c4.008,0,7.037-0.902,9.03-2.681c2.01-1.792,2.833-4.518,2.833-8.101V15.902h-6v15.714
		c0,1.955-0.586,3.435-1.467,4.394c-0.867,0.947-2.349,1.427-4.125,1.427c-1.791,0-3.152-0.483-4.046-1.438
		c-0.902-0.965-1.362-2.439-1.362-4.382V15.902h-7v16.563c0,3.583,1.188,6.309,3.196,8.101
		C177.091,42.345,180.09,43.246,184.037,43.247z"/>
	<polygon fill="#361B87" points="162.901,21.902 169.901,21.902 169.901,15.902 149.901,15.902 149.901,21.902 155.901,21.902 
		155.901,42.902 162.901,42.902 	"/>
	<path fill="#361B87" d="M203.195,42.902l1.859-6h9.638l2.168,6h7.568l-10.701-27h-7.2l-10.549,27H203.195z M209.655,24.448
		c0.071-0.215,0.169-0.596,0.298-1.161c0.112,0.486,0.208,0.839,0.29,1.069l2.743,7.544h-5.977L209.655,24.448z"/>
	<polygon fill="#361B87" points="241.901,36.902 232.901,36.902 232.901,15.902 225.901,15.902 225.901,42.902 241.901,42.902 	"/>
	<path fill="#361B87" d="M27.704,87.857c-0.188,0.558-0.378,1.241-0.569,2.101c-0.029,0.127-0.057,0.241-0.084,0.375
		c-0.04-0.171-0.078-0.348-0.116-0.511c-0.21-0.894-0.365-1.441-0.467-1.783L21.16,71.902h-7.397l10.246,26h6.078l10.322-26h-7.323
		L27.704,87.857z"/>
	<polygon fill="#361B87" points="41.901,97.902 58.901,97.902 58.901,92.902 48.901,92.902 48.901,86.902 58.901,86.902 
		58.901,81.902 48.901,81.902 48.901,76.902 58.901,76.902 58.901,71.902 41.901,71.902 	"/>
	<path fill="#361B87" d="M82.901,86.49c0,0.778,0.111,1.474,0.142,2.076c-0.415-0.771-0.758-1.316-1.11-1.749L70.021,71.902h-7.12
		v26h7V83.173c0-0.777-0.062-1.471-0.09-2.073c0.418,0.79,0.774,1.246,1.134,1.688l12.264,15.114h6.692v-26h-7V86.49z"/>
	<path fill="#361B87" d="M111.901,87.236c0,1.943-0.528,3.417-1.432,4.383c-0.893,0.955-2.289,1.438-4.08,1.438
		c-1.776,0-3.206-0.479-4.074-1.427c-0.88-0.959-1.414-2.438-1.414-4.395V71.902h-7v16.186c0,3.583,1.256,6.309,3.265,8.101
		c1.993,1.778,5.153,2.681,9.162,2.681c3.946,0,7.256-0.901,9.25-2.681c2.009-1.792,3.324-4.518,3.324-8.101V71.902h-7
		L111.901,87.236L111.901,87.236z"/>
	<polygon fill="#361B87" points="122.901,97.902 139.901,97.902 139.901,92.902 129.901,92.902 129.901,86.902 139.901,86.902 
		139.901,81.902 129.901,81.902 129.901,76.902 139.901,76.902 139.901,71.902 122.901,71.902 	"/>
	<path fill="#361B87" d="M171.209,73.847c-1.752-1.335-4.462-1.945-8.058-1.945H155.9v26h7v-9h0.999
		c3.083,0,5.542-0.955,7.309-2.426c1.794-1.494,2.704-3.646,2.704-6.255C173.912,77.406,173.003,75.214,171.209,73.847z
		 M162.901,76.902h0.252c1.431,0,2.465,0.19,3.074,0.688c0.587,0.477,0.873,1.214,0.873,2.315c0,1.197-0.298,1.877-0.886,2.389
		c-0.607,0.528-1.637,0.609-3.062,0.609h-0.252V76.902z"/>
	<path fill="#361B87" d="M182.421,71.902l-10.549,26h7.217l1.858-5h9.638l2.169,5h7.565l-10.699-26H182.421z M185.549,80.256
		c0.071-0.216,0.168-0.692,0.296-1.254c0.113,0.483,0.208,0.978,0.289,1.213l2.745,7.687h-5.978L185.549,80.256z"/>
	<path fill="#361B87" d="M218.977,84.287c1.186-1.327,1.785-2.946,1.785-4.813c0-2.563-0.884-4.451-2.626-5.743
		c-1.695-1.259-4.248-1.829-7.587-1.829h-8.648v26h7v-10.26l5.919,10.26h7.774l-7.445-11.552
		C216.675,86.023,217.96,85.427,218.977,84.287z M208.901,76.902h0.045c2.602,0,3.729,0.394,4.217,0.716
		c0.651,0.433,0.97,1.172,0.97,2.253c0,1.021-0.289,1.854-0.883,2.239c-0.451,0.292-1.564,0.792-4.304,0.792h-0.045V76.902z"/>
	<polygon fill="#361B87" points="221.901,76.902 228.901,76.902 228.901,97.902 235.901,97.902 235.901,76.902 241.901,76.902 
		241.901,71.902 221.901,71.902 	"/>
	<path fill="#361B87" d="M264.901,86.49c0,0.777-0.186,1.473-0.155,2.076c-0.414-0.771-0.905-1.315-1.26-1.749l-12.06-14.916h-6.525
		v26h6V83.173c0-0.774,0.143-1.468,0.112-2.074c0.411,0.776,0.879,1.249,1.236,1.688l12.364,15.114h6.286v-26h-6L264.901,86.49
		L264.901,86.49z"/>
	<polygon fill="#361B87" points="275.901,97.902 292.901,97.902 292.901,92.902 282.901,92.902 282.901,86.902 292.901,86.902 
		292.901,81.902 282.901,81.902 282.901,76.902 292.901,76.902 292.901,71.902 275.901,71.902 	"/>
	<path fill="#361B87" d="M310.455,86.35c1.524-0.327,2.811-0.995,3.827-2.135c1.185-1.327,1.784-2.911,1.784-4.777
		c0-2.563-0.884-4.433-2.626-5.725c-1.694-1.258-4.248-1.812-7.587-1.812h-8.953v26h7v-10.26l6.226,10.26h7.773L310.455,86.35z
		 M303.901,76.902h0.351c2.602,0,3.729,0.394,4.216,0.716c0.652,0.433,0.97,1.172,0.97,2.253c0,1.021-0.289,1.854-0.883,2.24
		c-0.451,0.292-1.563,0.792-4.303,0.792h-0.351V76.902z"/>
</g>
</svg>
