<?xml version="1.0" encoding="utf-8"?>
<!-- Generator: Adobe Illustrator 24.2.3, SVG Export Plug-In . SVG Version: 6.00 Build 0)  -->
<svg version="1.1" id="Layer_1" xmlns="http://www.w3.org/2000/svg" xmlns:xlink="http://www.w3.org/1999/xlink" x="0px" y="0px"
	 viewBox="0 0 1366 2990.1" style="enable-background:new 0 0 1366 2990.1;" xml:space="preserve">
<style type="text/css">
	.st0{fill:#FFF6DE;}
	.st1{opacity:0.5;fill:#FFCC33;}
	.st2{opacity:0.5;fill:#E97792;}
	.st3{opacity:0.5;fill:#3399FF;}
	.st4{opacity:0.5;fill:#FF6633;}
	.st5{opacity:0.5;fill:#99CC33;}
</style>
<rect y="0.1" class="st0" width="1366" height="2990"/>
<polygon class="st1" points="1366,369.7 1366,344.8 1077.3,0.1 1056.4,0.1 "/>
<polygon class="st1" points="0,179.5 1359.2,1802.6 1366,1796.9 1366,1785.7 0,154.6 "/>
<polygon class="st1" points="983.1,2990.1 1366,2625.7 1366,2603.6 959.9,2990.1 "/>
<polygon class="st2" points="1366,1099.9 1366,1074.9 470,0.1 449.2,0.1 "/>
<polygon class="st2" points="0,1610.9 1152.1,2990.1 1173,2990.1 0,1585.9 "/>
<polygon class="st2" points="0,2737.6 1366,1437.4 1366,1415.3 0,2715.5 "/>
<polygon class="st3" points="0,266.7 0,288.7 303.6,0.1 280.3,0.1 "/>
<polygon class="st3" points="0,1537.8 1366,243 1366,220.9 0,1515.7 "/>
<polygon class="st3" points="351,2990.1 1366,2026.7 1366,2004.6 327.8,2990.1 "/>
<polygon class="st4" points="0,906.4 956,0.1 932.7,0.1 0,884.4 "/>
<polygon class="st4" points="0,2192.2 1366,892.2 1366,870.1 0,2170.1 "/>
<polygon class="st5" points="0,899.9 1366,2541.6 1366,2516.6 0,874.9 "/>
<polygon class="st5" points="543.6,2990.1 564.4,2990.1 0,2311.8 0,2336.8 "/>
</svg>
