<?xml version="1.0" encoding="utf-8"?>
<!-- Generator: Adobe Illustrator 24.2.3, SVG Export Plug-In . SVG Version: 6.00 Build 0)  -->
<svg version="1.1" id="Layer_1" xmlns="http://www.w3.org/2000/svg" xmlns:xlink="http://www.w3.org/1999/xlink" x="0px" y="0px"
	 viewBox="0 0 1892 1869.8" style="enable-background:new 0 0 1892 1869.8;" xml:space="preserve">
<style type="text/css">
	.st0{fill:#FFF6DE;}
	.st1{opacity:0.5;}
	.st2{fill:#FFCC33;}
	.st3{fill:#FF6633;}
	.st4{fill:#3399FF;}
	.st5{fill:#E97792;}
	.st6{fill:#99CC33;}
</style>
<g id="Background">
	<rect x="0.2" class="st0" width="1892" height="1871.3"/>
</g>
<g class="st1">
	<polygon class="st2" points="1701.4,1871.3 133.9,0 113,0 1680.5,1871.3 	"/>
	<polygon class="st3" points="0.2,1160 1219.6,0 1196.4,0 0.2,1137.9 	"/>
	<polygon class="st4" points="0.2,516.6 0.2,538.7 566.6,0 543.4,0 	"/>
	<polygon class="st5" points="1892.2,1390.6 1797.4,1277 1892.2,1186.9 1892.2,1164.8 1787.2,1264.7 733,0 712.2,0 1775.6,1275.7 
		1149.2,1871.3 1172.4,1871.3 1785.8,1288 1892.2,1415.6 	"/>
	<polygon class="st5" points="478.9,1871.3 499.7,1871.3 0.2,1272.1 0.2,1297.1 	"/>
	<polygon class="st4" points="0.2,1790.6 1886.2,0 1863,0 0.2,1768.5 	"/>
	<polygon class="st6" points="1073.4,1871.3 1094.2,1871.3 0.2,558.8 0.2,583.8 	"/>
	<polygon class="st3" points="599.4,1871.3 1892.2,641.7 1892.2,619.6 576.2,1871.3 	"/>
</g>
</svg>
