<svg width="202" height="60" viewBox="0 0 202 60" fill="none" xmlns="http://www.w3.org/2000/svg">
<path d="M9.33594 23.835L0.942383 1.55469H3.18359L9.36523 19.0156L15.8691 1.55469H18.0078L9.33594 23.835ZM20.3955 23V1.55469H22.3438V23H20.3955ZM29.6387 3.25391V11.1787H31.6016C33.418 11.1787 34.6826 10.8906 35.3955 10.3145C36.1182 9.72852 36.4795 8.7373 36.4795 7.34082C36.4795 5.86621 36.1084 4.81641 35.3662 4.19141C34.624 3.56641 33.3691 3.25391 31.6016 3.25391H29.6387ZM40.7129 23H38.3398L30.8105 12.7754H29.6387V23H27.6904V1.55469H31.6309C33.9551 1.55469 35.6934 2.03809 36.8457 3.00488C38.0078 3.97168 38.5889 5.43652 38.5889 7.39941C38.5889 9.06934 38.0908 10.3828 37.0947 11.3398C36.1084 12.2969 34.7461 12.7754 33.0078 12.7754L40.7129 23ZM43.4521 1.55469H45.3711V15.5586C45.3711 17.6777 45.8545 19.2549 46.8213 20.29C47.7881 21.3154 49.2676 21.8281 51.2598 21.8281C53.2227 21.8281 54.6875 21.3154 55.6543 20.29C56.6211 19.2549 57.1045 17.6777 57.1045 15.5586V1.55469H59.0527V14.9287C59.0527 17.8291 58.4082 19.9971 57.1191 21.4326C55.8301 22.8584 53.877 23.5713 51.2598 23.5713C48.6328 23.5713 46.6748 22.8584 45.3857 21.4326C44.0967 19.9971 43.4521 17.8291 43.4521 14.9287V1.55469ZM68.1201 23V3.38574H62.2168V1.55469H75.9863V3.38574H70.0684V23H68.1201ZM79.5752 14.0645H87.0459L83.3838 4.7334L79.5752 14.0645ZM74.0967 23L83.5156 0.705078L92.5391 23H90.415L87.6758 15.7344H78.916L76.0742 23H74.0967ZM94.9561 23V1.55469H96.9043V21.1689H104.258V23H94.9561ZM121.455 23.835L113.062 1.55469H115.303L121.484 19.0156L127.988 1.55469H130.127L121.455 23.835ZM132.515 23V1.55469H143.135V3.38574H134.463V10.0947H143.135V11.9258H134.463V21.1689H143.135V23H132.515ZM147.925 23V0.646484L163.115 18.5908V1.55469H164.932V23.6299L149.756 5.65625V23H147.925ZM170.19 1.55469H172.109V15.5586C172.109 17.6777 172.593 19.2549 173.56 20.29C174.526 21.3154 176.006 21.8281 177.998 21.8281C179.961 21.8281 181.426 21.3154 182.393 20.29C183.359 19.2549 183.843 17.6777 183.843 15.5586V1.55469H185.791V14.9287C185.791 17.8291 185.146 19.9971 183.857 21.4326C182.568 22.8584 180.615 23.5713 177.998 23.5713C175.371 23.5713 173.413 22.8584 172.124 21.4326C170.835 19.9971 170.19 17.8291 170.19 14.9287V1.55469ZM191.05 23V1.55469H201.67V3.38574H192.998V10.0947H201.67V11.9258H192.998V21.1689H201.67V23H191.05ZM47.5977 59V37.5547H51.5088C53.0518 37.5547 54.1846 37.6377 54.9072 37.8037C55.6396 37.9697 56.2744 38.2432 56.8115 38.624C57.4854 39.1123 58.0078 39.7812 58.3789 40.6309C58.75 41.4805 58.9355 42.4229 58.9355 43.458C58.9355 45.499 58.3643 46.998 57.2217 47.9551C56.0791 48.9023 54.2725 49.376 51.8018 49.376H49.5459V59H47.5977ZM49.5459 47.6621H50.8789C53.2422 47.6621 54.8291 47.3643 55.6396 46.7686C56.46 46.1631 56.8701 45.1084 56.8701 43.6045C56.8701 42.9697 56.7773 42.3887 56.5918 41.8613C56.4062 41.3242 56.1279 40.8457 55.7568 40.4258C55.376 39.9961 54.8584 39.6934 54.2041 39.5176C53.5498 39.3418 52.4414 39.2539 50.8789 39.2539H49.5459V47.6621ZM63.5059 50.0645H70.9766L67.3145 40.7334L63.5059 50.0645ZM58.0273 59L67.4463 36.7051L76.4697 59H74.3457L71.6064 51.7344H62.8467L60.0049 59H58.0273ZM80.835 39.2539V47.1787H82.7979C84.6143 47.1787 85.8789 46.8906 86.5918 46.3145C87.3145 45.7285 87.6758 44.7373 87.6758 43.3408C87.6758 41.8662 87.3047 40.8164 86.5625 40.1914C85.8203 39.5664 84.5654 39.2539 82.7979 39.2539H80.835ZM91.9092 59H89.5361L82.0068 48.7754H80.835V59H78.8867V37.5547H82.8271C85.1514 37.5547 86.8896 38.0381 88.042 39.0049C89.2041 39.9717 89.7852 41.4365 89.7852 43.3994C89.7852 45.0693 89.2871 46.3828 88.291 47.3398C87.3047 48.2969 85.9424 48.7754 84.2041 48.7754L91.9092 59ZM98.0176 59V39.3857H92.1143V37.5547H105.884V39.3857H99.9658V59H98.0176ZM109.121 59V36.6465L124.312 54.5908V37.5547H126.128V59.6299L110.952 41.6562V59H109.121ZM131.475 59V37.5547H142.095V39.3857H133.423V46.0947H142.095V47.9258H133.423V57.1689H142.095V59H131.475ZM148.833 39.2539V47.1787H150.796C152.612 47.1787 153.877 46.8906 154.59 46.3145C155.312 45.7285 155.674 44.7373 155.674 43.3408C155.674 41.8662 155.303 40.8164 154.561 40.1914C153.818 39.5664 152.563 39.2539 150.796 39.2539H148.833ZM159.907 59H157.534L150.005 48.7754H148.833V59H146.885V37.5547H150.825C153.149 37.5547 154.888 38.0381 156.04 39.0049C157.202 39.9717 157.783 41.4365 157.783 43.3994C157.783 45.0693 157.285 46.3828 156.289 47.3398C155.303 48.2969 153.94 48.7754 152.202 48.7754L159.907 59Z" fill="#240074"/>
</svg>
