<svg xmlns="http://www.w3.org/2000/svg" xmlns:xlink="http://www.w3.org/1999/xlink" width="1366" height="799.41" viewBox="0 0 1366 799.41"><defs><style>.cls-1{fill:none;}.cls-2{clip-path:url(#clip-path);}.cls-3{fill:#9c3;}.cls-4{fill:#39f;}.cls-5{clip-path:url(#clip-path-2);}.cls-6{clip-path:url(#clip-path-3);}.cls-7{fill:#1d0777;}.cls-8{fill:#a49ac3;}.cls-9{clip-path:url(#clip-path-4);}.cls-10{clip-path:url(#clip-path-5);}.cls-11{fill:#fff6de;}.cls-12{clip-path:url(#clip-path-6);}.cls-13{fill:#e06186;}.cls-14{fill:#f6c9d3;}</style><clipPath id="clip-path"><rect class="cls-1" y="1774.02" width="1366" height="798.81"/></clipPath><clipPath id="clip-path-2"><rect class="cls-1" x="1409.75" y="887.02" width="1366" height="798.81"/></clipPath><clipPath id="clip-path-3"><rect class="cls-1" y="887.02" width="1366" height="798.81"/></clipPath><clipPath id="clip-path-4"><rect class="cls-1" x="1046.6" y="887.01" width="319.4" height="412.3"/></clipPath><clipPath id="clip-path-5"><rect class="cls-1" x="1409.75" y="-799.4" width="1366" height="798.81"/></clipPath><clipPath id="clip-path-6"><rect class="cls-1" y="0.01" width="1366" height="798.81"/></clipPath></defs><g id="Business_Services" data-name="Business Services"><g id="Roads"><g class="cls-2"><polygon class="cls-3" points="-1273.29 770.42 -1318.37 822.77 693 3214.98 739.68 3160.91 -1273.29 770.42"/><polygon class="cls-4" points="2.72 350.16 -80.32 353.55 1469.2 2206.38 1516.61 2151.6 2.72 350.16"/></g></g></g><g id="Management_Systems" data-name="Management Systems"><g id="Roads-2" data-name="Roads"><g class="cls-5"><polygon class="cls-3" points="1243.12 1323.46 1227.94 1305.41 1803.13 644.45 1818.33 662.48 1243.12 1323.46"/></g></g></g><g id="Education_Training" data-name="Education &amp; Training"><g id="Roads-3" data-name="Roads"><g class="cls-6"><polygon class="cls-4" points="6.92 1201.44 -46.43 1203.42 674.49 370.89 699.63 400.71 6.92 1201.44"/><polygon class="cls-3" points="199 -248.02 174.95 -220.22 1355.88 1182.66 1408.2 1187.28 199 -248.02"/><polygon class="cls-3" points="-523.63 786.29 -547.68 814.09 633.25 2216.97 685.58 2221.59 -523.63 786.29"/><polygon class="cls-7" points="1038.43 739.53 942.5 857.17 927.37 844.83 1025.63 724.33 1038.43 739.53"/><path class="cls-8" d="M1038.44,739.53l8.33,9.89,55.43,65.8,8.57,10.18,8.24,9.78c-45.94,55.57-107.69,91.43-176.62,21.86h0Z"/></g></g><g id="Sponsors_Panel" data-name="Sponsors Panel"><g class="cls-9"><polygon class="cls-4" points="1257.82 756.57 1283.24 750.07 1134.94 926 1124.99 914.15 1257.82 756.57"/></g></g></g><g id="Gifting"><g id="Roads-4" data-name="Roads"><g class="cls-10"><polygon class="cls-4" points="972.14 -787.76 931.96 -741.11 2724.32 1390.61 2765.92 1342.43 972.14 -787.76"/><polygon class="cls-3" points="548.36 430.4 549.59 329.91 2244.95 -1629.78 2286.35 -1580.63 548.36 430.4"/></g></g></g><g id="Community_Engagement" data-name="Community Engagement"><rect id="Background" class="cls-11" y="-0.59" width="1366" height="799.41"/><g id="Roads-5" data-name="Roads"><g class="cls-12"><g id="Division"><polygon class="cls-3" points="969.3 -64.2 1473.74 541.77 1489.55 523.49 999.94 -64.66 969.3 -64.2"/><polygon class="cls-3" points="-109.81 491.5 394.63 1097.47 410.44 1079.19 -79.17 491.04 -109.81 491.5"/><polygon class="cls-3" points="-189.82 580.96 314.63 1186.93 330.43 1168.65 -159.17 580.5 -189.82 580.96"/><polygon class="cls-3" points="893.87 1173.97 893.86 1212.42 1301.93 740.48 1285.15 721.21 893.87 1173.97"/><polygon class="cls-3" points="1472.87 504 1322.44 677.99 1341.81 694.3 1489.55 523.49 1472.87 504"/><polygon class="cls-3" points="892.44 1402.24 892.91 1363.08 1553.55 599.45 1569.68 618.6 892.44 1402.24"/><polygon class="cls-3" points="-225.48 445.09 -225 405.93 435.63 -357.7 451.76 -338.55 -225.48 445.09"/><polygon class="cls-3" points="-312.99 357.58 -312.51 318.42 348.12 -445.21 364.25 -426.06 -312.99 357.58"/><g id="Doors"><polygon class="cls-13" points="1288.01 756.8 1219.89 679.51 1210.2 687.96 1279.13 767.06 1288.01 756.8"/><path class="cls-14" d="M1271.76,739.2,1288,756.8l26.15-30.24,13.85-16,15.61-18c-34.58-36.86-79.06-51.92-123.79-12.89h0Z"/></g></g></g></g></g></svg>