<svg id="B2B_Experience" data-name="B2B Experience" xmlns="http://www.w3.org/2000/svg" xmlns:xlink="http://www.w3.org/1999/xlink" width="1366" height="799.41" viewBox="0 0 1366 799.41"><defs><style>.cls-1,.cls-19,.cls-20,.cls-24,.cls-25,.cls-26,.cls-27,.cls-33,.cls-35,.cls-36,.cls-37{fill:none;}.cls-2{fill:#fff6de;}.cls-3{clip-path:url(#clip-path);}.cls-4{fill:#9c3;}.cls-5{fill:#39f;}.cls-6{fill:#e06186;}.cls-7{fill:#f6c9d3;}.cls-8{fill:#f63;}.cls-9{fill:#ffc2ad;}.cls-10{fill:#88b222;}.cls-11{fill:#d6ebad;}.cls-12{fill:#ffe38f;}.cls-13{fill:#fc3;}.cls-14{fill:#85c2ff;}.cls-15{fill:#1d0777;}.cls-16{fill:#a49ac3;}.cls-17{fill:#ff855c;}.cls-18{fill:#e24c24;}.cls-19{stroke:#ffc2ad;stroke-width:0.25px;}.cls-19,.cls-20,.cls-24,.cls-25,.cls-27,.cls-33,.cls-35,.cls-36,.cls-37{stroke-miterlimit:10;}.cls-20{stroke:#ff855c;stroke-width:1.27px;}.cls-21{fill:#add6ff;}.cls-22{fill:#70b8ff;}.cls-23{fill:#1f8be5;}.cls-24,.cls-25,.cls-26{stroke:#add6ff;}.cls-24{stroke-width:0.37px;}.cls-25{stroke-width:0.46px;}.cls-26{stroke-linecap:round;stroke-linejoin:round;}.cls-27{stroke:#39f;}.cls-28{fill:#5f4e95;}.cls-29{fill:#f0a0b3;}.cls-30{fill:#e97792;}.cls-31{fill:#ffdb70;}.cls-32{fill:#dba51d;}.cls-33{stroke:#dba51d;stroke-width:2px;}.cls-34{fill:#ffebad;}.cls-35,.cls-36{stroke:#88b222;}.cls-35{stroke-width:0.74px;}.cls-36{stroke-width:1.48px;}.cls-37{stroke:#9c3;stroke-width:0.99px;}.cls-38{fill:#1b0268;}.cls-39{clip-path:url(#clip-path-2);}</style><clipPath id="clip-path"><rect class="cls-1" x="-0.01" y="-0.65" width="1366.11" height="800.1"/></clipPath><clipPath id="clip-path-2"><rect class="cls-1" x="1046.88" y="0.15" width="319.4" height="412.3"/></clipPath></defs><rect class="cls-2" y="-0.59" width="1366" height="799.41"/><g id="Weaved_Divisions" data-name="Weaved Divisions"><g class="cls-3"><polygon class="cls-4" points="838.65 630.01 828.04 617.39 1228.98 154.02 1239.6 166.63 838.65 630.01"/><polygon class="cls-4" points="888.59 689.26 877.98 676.64 1280.03 214.63 1290.65 227.24 888.59 689.26"/><polygon class="cls-5" points="311.67 813.1 289.12 813.94 593.78 462.11 604.4 474.72 311.67 813.1"/><polygon class="cls-4" points="888.31 664.76 877.83 676.77 985.39 804.66 1006.12 804.66 888.31 664.76"/><polygon class="cls-4" points="400.37 85.31 390.32 96.97 838.56 630.09 848.97 618.04 400.37 85.31"/><polygon class="cls-4" points="302.28 -7.52 348.23 47.1 358.43 35.5 322.11 -7.63 302.28 -7.52"/><polygon class="cls-5" points="684.73 -8.35 666.22 -7.6 1011.55 405.32 1022.11 393.11 684.73 -8.35"/><polygon class="cls-4" points="392.84 200.57 382.68 212.31 881.73 805.17 903.85 807.12 392.84 200.57"/><polygon class="cls-4" points="201.21 -3.25 341.62 163.55 351.77 151.81 220.88 -3.55 201.21 -3.25"/><polygon class="cls-4" points="-30.53 569.28 -30.54 593.97 271.3 244.88 258.87 234.42 -30.53 569.28"/><polygon class="cls-4" points="341.06 139.31 258.87 234.42 271.3 244.88 351.77 151.81 341.06 139.31"/><polygon class="cls-4" points="-31.45 715.79 -31.15 690.66 392.84 200.57 403.2 212.86 -31.45 715.79"/><polygon class="cls-4" points="400.93 109.59 390.32 96.97 540.13 -77 560.55 -76.29 400.93 109.59"/><polygon class="cls-4" points="348.23 47.1 337.53 34.39 389.56 -24.08 410.15 -23.28 348.23 47.1"/></g></g><g id="Doors"><polygon class="cls-6" points="281.17 233.73 237.46 184.12 231.24 189.54 275.48 240.31 281.17 233.73"/><path class="cls-7" d="M270.75,222.43l10.42,11.3L298,214.32,306.85,204l10-11.58c-22.18-23.66-50.73-33.32-79.44-8.27h0Z"/><polygon class="cls-8" points="1027.16 505.22 1066.58 550.44 1060.36 555.86 1021.69 511.5 1027.16 505.22"/><path class="cls-9" d="M1027.16,505.22l2.74-3.15,14.91-17.14,5.44-6.25,6.29-7.23,6.41-7.36c33.2,28.49,29.06,60.05,3.56,86.38h0Z"/><polygon class="cls-10" points="1189.56 224.47 1151.21 179.26 1157.5 173.93 1195.02 218.15 1189.56 224.47"/><path class="cls-11" d="M1189.56,224.47l-7.79,9-11.5,13.29-8.14,9.4-8.29,9.59c-20.73-22.78-35.51-55-2.57-86.52h0Z"/><polygon class="cls-12" points="524.64 356.59 484.1 406.31 477.7 401.09 519.23 350.17 524.64 356.59"/><path class="cls-13" d="M524.64,356.59l3.52,4.18,23.43,27.81,3.62,4.3,3.48,4.13c-19.42,23.49-45.51,38.64-74.64,9.24h0Z"/><polygon class="cls-14" points="873.22 590.11 829.51 540.5 823.28 545.93 867.52 596.69 873.22 590.11"/><path class="cls-5" d="M862.8,578.81l10.42,11.3L890,570.7l8.9-10.29,10-11.58c-22.19-23.66-50.74-33.32-79.45-8.27h0Z"/><polygon class="cls-15" points="722.35 592.29 681.81 642 675.42 636.78 716.94 585.86 722.35 592.29"/><path class="cls-16" d="M722.35,592.29l3.52,4.18,23.43,27.8,3.62,4.3,3.49,4.14c-19.42,23.48-45.51,38.63-74.64,9.23h0Z"/></g><g id="Management_Systems" data-name="Management Systems"><rect class="cls-8" x="1129.07" y="440.92" width="148.44" height="8.62"/><rect class="cls-8" x="1118.05" y="467.84" width="47.82" height="8.62" transform="translate(1614.11 -669.81) rotate(90)"/><rect class="cls-8" x="1240.71" y="467.84" width="47.82" height="8.62" transform="translate(1736.77 -792.47) rotate(90)"/><rect class="cls-9" x="1194.65" y="417.48" width="21.92" height="42.02"/><rect class="cls-9" x="1203.73" y="462.61" width="3.56" height="33.55"/><rect class="cls-9" x="1203.5" y="486.94" width="3.56" height="14.82" transform="translate(1699.63 -710.93) rotate(90)"/><rect class="cls-17" x="1194.65" y="458.51" width="22" height="5.35"/><polygon class="cls-17" points="1155.75 425.32 1141.49 425.32 1144.39 411.04 1152.98 411.15 1155.75 425.32"/><rect class="cls-9" x="1147.69" y="425.37" width="1.86" height="14.75"/><rect class="cls-9" x="1143.1" y="439.58" width="11.03" height="1.64"/><rect class="cls-9" x="1172.54" y="426.36" width="3.18" height="14.49" transform="translate(2348.25 867.21) rotate(-180)"/><rect class="cls-8" x="1169.33" y="426.36" width="3.18" height="14.49" transform="translate(2341.84 867.21) rotate(-180)"/><rect class="cls-17" x="1155.72" y="426.36" width="3.18" height="14.49" transform="translate(2314.61 867.21) rotate(-180)"/><rect class="cls-9" x="1162.49" y="426.36" width="3.18" height="14.49" transform="translate(1920.9 1418.66) rotate(-147.96)"/><path class="cls-17" d="M1255.84,440.41a1.5,1.5,0,0,1-1.14.51h-12.54a1.57,1.57,0,0,1-1.14-.51,1.48,1.48,0,0,1-.35-1.18l1-7.36h2a1.52,1.52,0,0,0,1.49-1.26h6.6a1.52,1.52,0,0,0,1.49,1.26h2l1,7.36A1.63,1.63,0,0,1,1255.84,440.41Z"/><rect class="cls-9" x="1245.12" y="428.41" width="2.2" height="2.2"/><rect class="cls-9" x="1244.3" y="432.26" width="2.2" height="2.2"/><rect class="cls-9" x="1247.25" y="432.26" width="2.2" height="2.2"/><rect class="cls-9" x="1250.2" y="432.26" width="2.2" height="2.2"/><rect class="cls-9" x="1244.3" y="435.04" width="2.2" height="2.2"/><rect class="cls-9" x="1247.25" y="435.04" width="2.2" height="2.2"/><rect class="cls-9" x="1250.2" y="435.04" width="2.2" height="2.2"/><rect class="cls-9" x="1244.3" y="437.82" width="2.2" height="2.2"/><rect class="cls-9" x="1247.25" y="437.82" width="2.2" height="2.2"/><rect class="cls-9" x="1250.2" y="437.82" width="2.2" height="2.2"/><rect class="cls-8" x="1247.32" y="428.41" width="2.2" height="2.2"/><rect class="cls-9" x="1249.51" y="428.41" width="2.2" height="2.2"/><path class="cls-9" d="M1240,432.26a.51.51,0,0,1-.51-.51v-1h4.54v1a.51.51,0,0,1-.51.51Z"/><path class="cls-9" d="M1257.17,431.75a.51.51,0,0,1-.51.51h-3.52a.51.51,0,0,1-.51-.51v-1h4.54Z"/><path class="cls-17" d="M1257.17,430.75h-4.54V429a.51.51,0,0,0-.5-.5h-7.56a.5.5,0,0,0-.5.5v1.77h-4.54v-2.27A1.52,1.52,0,0,1,1241,427h14.61a1.52,1.52,0,0,1,1.52,1.51Z"/><rect class="cls-17" x="964.23" y="618.36" width="41.4" height="30.59"/><rect class="cls-9" x="966.68" y="620.97" width="36.5" height="25.35"/><rect class="cls-17" x="983.88" y="647.32" width="2.1" height="10.01"/><rect class="cls-17" x="983.88" y="652.63" width="2.1" height="10.01" transform="translate(1642.56 -327.3) rotate(90)"/><rect class="cls-17" x="1008.84" y="618.36" width="41.4" height="30.59"/><rect class="cls-9" x="1011.29" y="620.97" width="36.5" height="25.35"/><path class="cls-17" d="M1039.33,629.54c.48-2.51.06-4.7-1.38-5.86s-3.6-1.1-5.94-.06a7.48,7.48,0,0,0,2.64,4.45A7,7,0,0,0,1039.33,629.54Z"/><path class="cls-18" d="M1030.32,643.61a4.67,4.67,0,0,0,.49-3.93,15.91,15.91,0,0,0,5.55-4.55,15.69,15.69,0,0,0,3-5.65,7.57,7.57,0,0,1-4.6-1.55,7.32,7.32,0,0,1-2.72-4.33,15.5,15.5,0,0,0-4.87,4.22,15.9,15.9,0,0,0-3.16,6.32,5.14,5.14,0,0,0-3.88,1.44c-2.33,2.55,2.71,2,2.71,2l1.39,1c-.94,1.44-1.28,2.77-.78,3.16s1.72-.28,2.88-1.5l1.28,1.06C1027.71,641.4,1028.32,646.44,1030.32,643.61Zm-1.33-8.7a3.9,3.9,0,1,1,5.48-.61A3.82,3.82,0,0,1,1029,634.91Z"/><circle class="cls-17" cx="1031.42" cy="631.86" r="3.89"/><rect class="cls-4" x="1028.49" y="647.32" width="2.1" height="10.01"/><rect class="cls-4" x="1028.49" y="652.63" width="2.1" height="10.01" transform="translate(1687.18 -371.91) rotate(90)"/><rect class="cls-9" x="948.62" y="658.55" width="157.08" height="9.12"/><rect class="cls-9" x="936.96" y="687.04" width="50.6" height="9.12" transform="translate(1653.86 -270.66) rotate(90)"/><rect class="cls-9" x="1066.75" y="687.04" width="50.6" height="9.12" transform="translate(1783.66 -400.45) rotate(90)"/><rect class="cls-8" x="1018.02" y="633.75" width="23.2" height="44.46"/><rect class="cls-18" x="1027.63" y="681.5" width="3.77" height="35.51"/><rect class="cls-18" x="1027.37" y="707.25" width="3.77" height="15.68" transform="translate(1744.35 -314.17) rotate(90)"/><rect class="cls-17" x="1018.02" y="677.16" width="23.28" height="5.66"/><rect class="cls-13" x="1073.73" y="640.48" width="0.81" height="8.05"/><polygon class="cls-17" points="1069.11 647.06 1079.17 647.06 1077.13 657.15 1071.06 657.07 1069.11 647.06"/><rect class="cls-17" x="1069.38" y="657.02" width="9.53" height="1.33"/><polygon class="cls-4" points="1075.83 639.66 1074.15 641.34 1072.48 639.66 1074.12 636.45 1075.83 639.66"/><polygon class="cls-4" points="1072.83 641.74 1074.09 643.74 1072.08 645 1069.31 642.69 1072.83 641.74"/><polygon class="cls-4" points="1075.74 646.57 1074.09 644.88 1075.78 643.23 1078.97 644.9 1075.74 646.57"/><path class="cls-8" d="M984.87,629.12a4.29,4.29,0,0,0-4.36,4.15c0,3,2.1,3.73,2.34,5.66h4c.24-1.93,2.33-2.69,2.33-5.66A4.29,4.29,0,0,0,984.87,629.12Z"/><circle class="cls-9" cx="982.57" cy="633.86" r="0.4"/><circle class="cls-9" cx="984.83" cy="633.86" r="0.4"/><circle class="cls-9" cx="987.09" cy="633.86" r="0.4"/><polyline class="cls-19" points="982.58 634.02 983.56 635.81 983.56 639.13"/><polyline class="cls-19" points="987.09 634.02 986.11 635.81 986.11 639.08"/><line class="cls-19" x1="984.83" y1="634.02" x2="984.83" y2="639.13"/><path class="cls-8" d="M982.85,639.66V640a.74.74,0,0,0,.74.73h.55v.36a.74.74,0,0,0,1.47,0v-.36h.55a.74.74,0,0,0,.74-.73v-.36Z"/><path class="cls-17" d="M984.62,625.46a.37.37,0,0,0-.37.37v1.45a.37.37,0,0,0,.73,0v-1.45A.37.37,0,0,0,984.62,625.46Z"/><path class="cls-17" d="M979.48,627.59a.37.37,0,0,0-.26.62l1,1a.36.36,0,0,0,.51-.51l-1-1A.36.36,0,0,0,979.48,627.59Z"/><path class="cls-17" d="M989.75,627.59a.36.36,0,0,0-.25.11l-1,1a.36.36,0,0,0,.51.51l1-1a.37.37,0,0,0-.26-.62Z"/><path class="cls-17" d="M977.34,632.73a.37.37,0,0,0,0,.73h1.46a.37.37,0,0,0,0-.73Z"/><path class="cls-17" d="M990.43,632.73a.37.37,0,0,0,0,.73h1.45a.37.37,0,1,0,0-.73Z"/><rect class="cls-17" x="982.85" y="638.93" width="4.05" height="0.73"/><rect class="cls-8" x="1154.79" y="709.81" width="186.75" height="10.84"/><rect class="cls-8" x="1140.93" y="743.68" width="60.16" height="10.84" transform="translate(1920.11 -421.91) rotate(90)"/><rect class="cls-8" x="1295.24" y="743.68" width="60.16" height="10.84" transform="translate(2074.43 -576.22) rotate(90)"/><rect class="cls-9" x="1237.3" y="680.32" width="27.58" height="52.86"/><rect class="cls-17" x="1248.72" y="737.09" width="4.48" height="42.21"/><rect class="cls-17" x="1248.43" y="767.7" width="4.48" height="18.65" transform="translate(2027.69 -473.64) rotate(90)"/><rect class="cls-8" x="1237.3" y="731.93" width="27.67" height="6.73"/><rect class="cls-17" x="1161.88" y="691.55" width="4" height="18.23"/><rect class="cls-9" x="1165.91" y="691.55" width="4" height="18.23"/><rect class="cls-9" x="1186.99" y="691.55" width="4" height="18.23"/><rect class="cls-8" x="1183.03" y="691.55" width="4" height="18.23"/><rect class="cls-17" x="1174.51" y="691.55" width="4" height="18.23" transform="translate(-192.5 730.76) rotate(-32.04)"/><rect class="cls-13" x="1305.67" y="688.56" width="0.97" height="9.57"/><polygon class="cls-9" points="1300.17 696.39 1312.13 696.39 1309.7 708.38 1302.49 708.29 1300.17 696.39"/><rect class="cls-9" x="1300.49" y="708.23" width="11.33" height="1.58"/><polygon class="cls-4" points="1308.15 687.6 1306.17 689.58 1304.18 687.6 1306.12 683.77 1308.15 687.6"/><polygon class="cls-4" points="1304.59 690.06 1306.08 692.44 1303.7 693.93 1300.41 691.19 1304.59 690.06"/><polygon class="cls-4" points="1308.05 695.81 1306.09 693.8 1308.1 691.84 1311.9 693.82 1308.05 695.81"/><path class="cls-9" d="M1196.35,676.93l2.26-3.26a1,1,0,0,1,1.4-.26l1,.71-3.4,4.92-1-.71A1,1,0,0,1,1196.35,676.93Z"/><path class="cls-8" d="M1223.87,690.27a1.42,1.42,0,0,1,.36,2l-1.16,1.69a1.44,1.44,0,0,1-2,.36l-.36-.25,2.78-4Z"/><rect class="cls-9" x="1217.71" y="690.45" width="7.18" height="2.09" transform="translate(-41.7 1303.52) rotate(-55.37)"/><path class="cls-20" d="M1201.89,682.73a15.52,15.52,0,0,0-3.23,8c-.55,6.1,3,10.55,4.21,12.12a20.54,20.54,0,0,0,6,5.09"/><path class="cls-8" d="M1201.31,692a2.76,2.76,0,1,1-3.25-2.16,2.57,2.57,0,0,1,.55-.06,2.79,2.79,0,0,1,2.7,2.22Z"/><path class="cls-8" d="M1218.29,694.07a1,1,0,0,1-.63.4,1,1,0,0,1-.73-.15l-19.46-13.45a1,1,0,0,1-.4-.62.94.94,0,0,1,.16-.73l.16-.24h0l4.13-6a1,1,0,0,1,.8-.42,1,1,0,0,1,.56.17l19.46,13.45a1,1,0,0,1,.4.63,1,1,0,0,1-.15.72l-4.3,6.22Z"/><path class="cls-9" d="M1233.08,708.15v2h-35.4v-2a1,1,0,0,1,1-1h33.41A1,1,0,0,1,1233.08,708.15Z"/><path class="cls-17" d="M1215.88,704.62a1.29,1.29,0,0,1,1.28-1.28h12.66a1.29,1.29,0,0,1,1.28,1.28v2.54h-15.22Z"/><rect class="cls-9" x="1226.7" y="343.32" width="119.35" height="4.9"/><rect class="cls-9" x="1215.47" y="366.24" width="45.33" height="4.9" transform="translate(1606.83 -869.44) rotate(90)"/><rect class="cls-9" x="1310.32" y="366.24" width="45.33" height="4.9" transform="translate(1701.68 -964.29) rotate(90)"/><rect class="cls-17" x="1256.67" y="296.88" width="53.49" height="39.52"/><rect class="cls-9" x="1259.83" y="300.26" width="47.16" height="32.76"/><path class="cls-9" d="M1294.46,321a2.08,2.08,0,0,0-.53,1.55h-.8a2.87,2.87,0,0,1,.77-2.14,2.49,2.49,0,0,1,1.42-.66c.55-2.34.34-4.26-.65-5.69a6.87,6.87,0,0,0-4.48-2.54H1290l-.1-.11a4.58,4.58,0,0,0-3.4-1.57,6.12,6.12,0,0,0-3.25,1.07l1.06,1-.55.59-1.39-1.3a5.54,5.54,0,0,0-3.06-1c-2.73,0-4.41,2.62-4.43,2.65l-.1.17h-.21a3.75,3.75,0,0,0-2.84,1.38c-1.32,1.74-.78,4.55-.77,4.57V319a4.76,4.76,0,0,0,1.19,3.57,5.76,5.76,0,0,0,4,1.43,2.17,2.17,0,0,1-.36-1.22,3.62,3.62,0,0,1,1.2-2.37l.53.61a2.82,2.82,0,0,0-.93,1.77,1.71,1.71,0,0,0,.64,1.28,3.09,3.09,0,0,0,1.9.89,1.52,1.52,0,0,0,.52-.09,4.55,4.55,0,0,1,1.14-3.46,4.93,4.93,0,0,1,1.22-.9,4.71,4.71,0,0,1-.09-3.93,2.49,2.49,0,0,1,.15-.28c-.31-.54-1.33-2.07-2.64-2l-.06-.8c1.55-.11,2.69,1.27,3.21,2.07a7.47,7.47,0,0,1,3.42-2.06l.2.78s-2.65.7-3.56,2.62a4,4,0,0,0,.11,3.27,7.27,7.27,0,0,1,2.29-.38l0,.8a5.48,5.48,0,0,0-3.65,1.35,3.83,3.83,0,0,0-.9,3c.84,1.89,2.08,2.85,3.67,2.85a4.21,4.21,0,0,0,1.7-.36L1287,326l.64.48-.78,1.06a11.09,11.09,0,0,0,2,.22c2.8,0,3.7-1.4,3.7-1.42l.07-.11.13-.05a4.81,4.81,0,0,0,3.08-2.75,3.91,3.91,0,0,0-.39-2.91A1.74,1.74,0,0,0,1294.46,321Zm-21.86,0a3.79,3.79,0,0,1-.74-3.89l.74.32a3,3,0,0,0,.59,3Zm2.63-2.24a3.08,3.08,0,0,0,.09,2.75l-.74.32a3.8,3.8,0,0,1,0-3.46,2.12,2.12,0,0,1,.12-.2c-.08-.35-.41-1.39-1.25-1.45l.06-.8a2.17,2.17,0,0,1,1.8,1.52,7,7,0,0,1,3.2-1.52l.13.79S1276.08,317.18,1275.23,318.77Zm14.31,3.91a3,3,0,0,1,2,1.35l-.65.46a2.23,2.23,0,0,0-1.47-1,2.72,2.72,0,0,0-1.86.53,5.92,5.92,0,0,1-4.14,1.52l0-.81a5,5,0,0,0,3.67-1.34h0a3.47,3.47,0,0,0,1-2.07v-.15a2.17,2.17,0,0,0-.92-1.94l.41-.7a2.86,2.86,0,0,1,1.31,2.37,2.18,2.18,0,0,0,1.66-.71,2.27,2.27,0,0,0,.23-1.82l.77-.24a3.08,3.08,0,0,1-.35,2.53,2.94,2.94,0,0,1-2.36,1.06,4.56,4.56,0,0,1-.34,1A2.81,2.81,0,0,1,1289.54,322.68Zm1.55-8.36.27-.76c.11,0,2.57.94,2.57,4.67h-.8C1293.13,315.1,1291.18,314.35,1291.09,314.32Z"/><path class="cls-17" d="M1291.15,320.64a3.08,3.08,0,0,0,.35-2.53l-.77.24a2.27,2.27,0,0,1-.23,1.82,2.18,2.18,0,0,1-1.66.71,2.86,2.86,0,0,0-1.31-2.37l-.41.7a2.17,2.17,0,0,1,.92,1.94v.15a3.47,3.47,0,0,1-1,2.07h0a5,5,0,0,1-3.67,1.34l0,.81a5.92,5.92,0,0,0,4.14-1.52,2.72,2.72,0,0,1,1.86-.53,2.23,2.23,0,0,1,1.47,1l.65-.46a3,3,0,0,0-2-1.35,2.81,2.81,0,0,0-1.09.06,2.79,2.79,0,0,0,.21-.91A3.3,3.3,0,0,0,1291.15,320.64Z"/><path class="cls-17" d="M1275.13,317.57c-.25-.62-.65-1.57-1.67-1.64l-.06.8c.84.06,1.17,1.1,1.25,1.45a2.12,2.12,0,0,0-.12.2,3.8,3.8,0,0,0,0,3.46l.74-.32a3.08,3.08,0,0,1-.09-2.75c.85-1.59,3.34-2,3.36-2l-.13-.79A8.18,8.18,0,0,0,1275.13,317.57Z"/><path class="cls-17" d="M1272.6,317.44l-.74-.32a3.79,3.79,0,0,0,.74,3.89l.59-.55C1273.05,320.29,1271.69,319.54,1272.6,317.44Z"/><path class="cls-17" d="M1293.93,318.23h0a5.85,5.85,0,0,0-2.57-4.67l-.27.76c.09,0,2,.78,2,3.91Z"/><path class="cls-17" d="M1295.33,313.61a7.56,7.56,0,0,0-4.91-2.86,5.33,5.33,0,0,0-3.87-1.72,7,7,0,0,0-3.91,1.35,6.24,6.24,0,0,0-3.28-1,6.53,6.53,0,0,0-5,2.85,4.45,4.45,0,0,0-3.23,1.68c-1.45,1.92-1,4.76-.92,5.17a5.5,5.5,0,0,0,1.42,4.11c1.74,1.77,4.53,1.7,5.26,1.65a3.67,3.67,0,0,0,2.31,1,2.1,2.1,0,0,0,.73-.12c1.23,2.49,3,3,4.27,3a5.22,5.22,0,0,0,2-.41,12.15,12.15,0,0,0,2.63.32c2.8,0,4-1.28,4.31-1.68a5.47,5.47,0,0,0,3.44-3.22,4.78,4.78,0,0,0-.5-3.61C1296.73,317.44,1296.48,315.26,1295.33,313.61Zm.48,9.85a4.81,4.81,0,0,1-3.08,2.75l-.13.05-.07.11s-.9,1.42-3.7,1.42a11.09,11.09,0,0,1-2-.22l.78-1.06L1287,326l-1.1,1.49a4.21,4.21,0,0,1-1.7.36c-1.59,0-2.83-1-3.67-2.85a3.83,3.83,0,0,1,.9-3,5.48,5.48,0,0,1,3.65-1.35l0-.8a7.27,7.27,0,0,0-2.29.38,4,4,0,0,1-.11-3.27c.91-1.92,3.53-2.61,3.56-2.62l-.2-.78a7.47,7.47,0,0,0-3.42,2.06c-.52-.8-1.66-2.18-3.21-2.07l.06.8c1.31-.09,2.33,1.44,2.64,2a2.49,2.49,0,0,0-.15.28,4.71,4.71,0,0,0,.09,3.93,4.93,4.93,0,0,0-1.22.9,4.55,4.55,0,0,0-1.14,3.46,1.52,1.52,0,0,1-.52.09,3.09,3.09,0,0,1-1.9-.89,1.71,1.71,0,0,1-.64-1.28,2.82,2.82,0,0,1,.93-1.77l-.53-.61a3.62,3.62,0,0,0-1.2,2.37,2.17,2.17,0,0,0,.36,1.22,5.76,5.76,0,0,1-4-1.43A4.76,4.76,0,0,1,1271,319v-.09s-.55-2.83.77-4.57a3.39,3.39,0,0,1,2.72-1.25l.33-.14.1-.17s1.7-2.65,4.43-2.65a5.54,5.54,0,0,1,3.06,1l1.39,1.3.55-.59-1.06-1a6.12,6.12,0,0,1,3.25-1.07,4.58,4.58,0,0,1,3.4,1.57l.1.11h.15a6.87,6.87,0,0,1,4.48,2.54c1,1.43,1.2,3.35.65,5.69a2.49,2.49,0,0,0-1.42.66,2.87,2.87,0,0,0-.77,2.14h.8a2.08,2.08,0,0,1,.53-1.55,1.74,1.74,0,0,1,1-.46A3.91,3.91,0,0,1,1295.81,323.46Z"/><polygon class="cls-18" points="1280.78 320.19 1287.99 308.98 1282.64 308.98 1284.48 301.59 1278.09 312.32 1282.64 312.32 1280.78 320.19"/><rect class="cls-17" x="1281.45" y="333.99" width="1.95" height="7.97"/><rect class="cls-17" x="1281.45" y="337.26" width="2.1" height="10.03" transform="translate(1624.77 -940.23) rotate(90)"/><rect class="cls-8" x="1299.76" y="308.32" width="23.23" height="44.53"/><rect class="cls-18" x="1309.38" y="356.15" width="3.78" height="35.56"/><rect class="cls-18" x="1309.13" y="381.93" width="3.78" height="15.71" transform="translate(1700.8 -921.23) rotate(90)"/><rect class="cls-17" x="1299.76" y="351.8" width="23.31" height="5.67"/></g><g id="Business_Services" data-name="Business Services"><rect class="cls-13" x="728.18" y="348.57" width="2" height="46.73"/><polygon class="cls-21" points="716.78 394.12 741.59 394.12 736.55 418.98 721.6 418.79 716.78 394.12"/><rect class="cls-21" x="717.44" y="418.66" width="23.49" height="3.28"/><polygon class="cls-4" points="733.34 346.57 729.22 350.69 725.1 346.57 729.12 338.64 733.34 346.57"/><polygon class="cls-4" points="725.95 351.68 729.05 356.62 724.12 359.72 717.28 354.03 725.95 351.68"/><polygon class="cls-4" points="733.13 363.61 729.05 359.44 733.22 355.37 741.1 359.48 733.13 363.61"/><rect class="cls-13" x="828.24" y="182.93" width="2" height="46.73"/><polygon class="cls-22" points="816.83 228.48 841.65 228.48 836.61 253.34 821.66 253.15 816.83 228.48"/><rect class="cls-22" x="817.49" y="253.03" width="23.49" height="3.28"/><polygon class="cls-4" points="833.4 180.93 829.28 185.05 825.16 180.93 829.18 173 833.4 180.93"/><polygon class="cls-4" points="826.01 186.04 829.11 190.98 824.17 194.08 817.34 188.39 826.01 186.04"/><polygon class="cls-4" points="833.18 197.97 829.11 193.8 833.28 189.73 841.16 193.84 833.18 197.97"/><path class="cls-22" d="M776.93,413.16h3.62a1.21,1.21,0,0,1,1.17.9H796l-.36-3.59a.9.9,0,0,0-.9-.93H763.05a.9.9,0,0,0-.91.9v0l-.38,3.59h14A1.22,1.22,0,0,1,776.93,413.16Z"/><rect class="cls-21" x="774.52" y="417.69" width="8.45" height="2.11"/><path class="cls-22" d="M772.1,407.42a1.51,1.51,0,0,1,1.51-1.5h10.26a1.51,1.51,0,0,1,1.51,1.5v2.12h1.51v-4.23a.9.9,0,0,0-.91-.9H771.5a.9.9,0,0,0-.91.9v4.23h1.51Z"/><path class="cls-23" d="M775.69,414.07H761.24a.91.91,0,1,0,0,1.81H775.5Z"/><path class="cls-23" d="M796.34,414.07H781.8l.19,1.82h14.26l.16,0h0a.91.91,0,0,0-.09-1.79Z"/><path class="cls-21" d="M782.36,418.86a1.51,1.51,0,0,1-.6,1.25v1.5a.6.6,0,0,1-.6.6h-4.83a.6.6,0,0,1-.61-.6v-1.52a1.5,1.5,0,0,1-.6-1.22l.31-3H761.65l1.7,13.84v0a.9.9,0,0,0,.9.9h29a.9.9,0,0,0,.9-.9s0,0,0,0l2-13.84H782.05Z"/><path class="cls-23" d="M782.52,419.53l-.75-5.73v0a.71.71,0,0,0-.77-.6h-4.57a.7.7,0,0,0-.77.61v0l-.76,5.73c0,.35.45.76.89.89h0a15.55,15.55,0,0,0,5.84,0C782.13,420.31,782.56,419.86,782.52,419.53Zm-.76-.33a.7.7,0,0,1-.76.6h-4.57a.7.7,0,0,1-.77-.6v-.91a.7.7,0,0,1,.77-.6H781a.7.7,0,0,1,.76.6Z"/><path class="cls-23" d="M775.69,420.1v2.11h6.11v-2.1a8.83,8.83,0,0,1-3.06.52A7.82,7.82,0,0,1,775.69,420.1Z"/><path class="cls-21" d="M744.51,428.39a.64.64,0,0,0-.64-.63H732.28a.65.65,0,0,0-.46.18.68.68,0,0,0-.19.46v10.3a.69.69,0,0,0,.19.46.68.68,0,0,0,.46.18h9a.61.61,0,0,0,.58-.38l2.66-9.92C744.52,428.66,744.51,428.4,744.51,428.39Zm-9,7.09v-3.86h3.68l-1,3.86Z"/><path class="cls-23" d="M769,437.31l-1.29-7.73a.64.64,0,0,0-.63-.54H744.53L741.87,439l0-.1.24-1a.63.63,0,0,0,.87,0l.69-.69.22-.07.76.76a.65.65,0,0,0,.91,0l.83-.83.83.83a.65.65,0,0,0,.91,0L749,437l.83.83a.64.64,0,0,0,.45.19.66.66,0,0,0,.46-.19l.83-.83.83.83a.65.65,0,0,0,.91,0l.84-.83.83.83a.65.65,0,0,0,.91,0l.83-.83.83.83a.66.66,0,0,0,.92,0l.83-.83.83.83a.65.65,0,0,0,.91,0l.83-.83.84.83a.65.65,0,0,0,.91,0l.83-.83.83.83a.65.65,0,0,0,.91,0L767,437l.84.83a.65.65,0,0,0,.75.12A.67.67,0,0,0,769,437.31Z"/><rect class="cls-23" x="857.29" y="325.36" width="3.64" height="3.64"/><rect class="cls-22" x="870.04" y="339.02" width="7.29" height="3.64"/><rect class="cls-22" x="860.93" y="326.27" width="1.82" height="1.82"/><rect class="cls-22" x="855.47" y="325.81" width="1.82" height="2.73"/><line class="cls-24" x1="852.17" y1="327.18" x2="855.47" y2="327.18"/><polygon class="cls-21" points="870.04 330.37 870.5 332.64 870.5 333.1 872.32 333.1 871.87 330.37 870.04 330.37"/><rect class="cls-21" x="862.76" y="324.44" width="1.37" height="5.01"/><polygon class="cls-23" points="877.33 323.99 875.05 323.53 864.12 323.53 864.12 324.44 864.12 329.45 864.12 330.37 871.87 330.37 872.78 336.74 870.04 339.02 877.33 339.02 877.33 337.65 876.42 336.74 875.51 330.37 877.33 329.91 877.33 323.99"/><line class="cls-25" x1="874.6" y1="325.36" x2="877.33" y2="325.36"/><line class="cls-25" x1="874.6" y1="327.18" x2="877.33" y2="327.18"/><line class="cls-25" x1="868.22" y1="323.53" x2="868.22" y2="325.36"/><line class="cls-25" x1="870.04" y1="323.53" x2="870.04" y2="325.36"/><line class="cls-25" x1="871.87" y1="323.53" x2="871.87" y2="325.36"/><rect class="cls-22" x="865.94" y="326.72" width="7.29" height="1.82"/><path class="cls-23" d="M898.68,324.15h3.84a1.28,1.28,0,0,1,1.23,1h15.11l-.38-3.8a1,1,0,0,0-1-1H884a1,1,0,0,0-1,1v0l-.4,3.8h14.81A1.28,1.28,0,0,1,898.68,324.15Z"/><rect class="cls-21" x="896.13" y="328.94" width="8.94" height="2.23"/><path class="cls-22" d="M893.58,318.09a1.6,1.6,0,0,1,1.59-1.6H906a1.6,1.6,0,0,1,1.59,1.6v2.23h1.6v-4.47a1,1,0,0,0-1-1H892.94a1,1,0,0,0-1,1v4.47h1.6Z"/><path class="cls-22" d="M897.37,325.11H882.09a1,1,0,1,0,0,1.91h15.08Z"/><path class="cls-22" d="M919.21,325.12H903.83L904,327h15.08a.62.62,0,0,0,.18,0h0a1,1,0,0,0-.09-1.88Z"/><path class="cls-23" d="M904.43,330.18a1.61,1.61,0,0,1-.64,1.32v1.59a.64.64,0,0,1-.64.64h-5.1a.64.64,0,0,1-.64-.64v-1.61a1.59,1.59,0,0,1-.64-1.29l.33-3.17H882.53l1.79,14.65v0a1,1,0,0,0,1,1h30.64a1,1,0,0,0,1-1v0L919,327H904.1Z"/><path class="cls-22" d="M904.6,330.88l-.8-6.06v0a.75.75,0,0,0-.81-.64h-4.84a.74.74,0,0,0-.81.65v0l-.8,6.06c0,.36.47.81.94.94h0a16.26,16.26,0,0,0,6.17,0C904.18,331.71,904.64,331.24,904.6,330.88Zm-.81-.34a.73.73,0,0,1-.8.63h-4.84a.74.74,0,0,1-.81-.63v-1a.75.75,0,0,1,.81-.64H903a.74.74,0,0,1,.8.64Z"/><path class="cls-22" d="M897.37,331.49v2.24h6.46V331.5a9.34,9.34,0,0,1-3.23.55A8.38,8.38,0,0,1,897.37,331.49Z"/><path class="cls-22" d="M876.29,378.78a.41.41,0,0,0,0-.4.42.42,0,0,0-.36-.19l-2.41,0a.92.92,0,1,1,0-1.84l2.41,0a.42.42,0,0,0,.35-.2.41.41,0,0,0,0-.4,3.86,3.86,0,0,0-.81-1.16,3.78,3.78,0,0,0-5.8.64l-12.4.17a3.79,3.79,0,0,0-6.58.73.46.46,0,0,0,0,.41.43.43,0,0,0,.36.18l2.41,0a.94.94,0,0,1,.93.91.92.92,0,0,1-.9.93l-2.42,0a.42.42,0,0,0-.35.19.43.43,0,0,0,0,.41,3.87,3.87,0,0,0,.81,1.15h0a3.79,3.79,0,0,0,5.83-.67l12.35-.17a4.13,4.13,0,0,0,.47.55,3.7,3.7,0,0,0,2.69,1.07A3.78,3.78,0,0,0,876.29,378.78Zm-8.55-1-8.51.11a.39.39,0,0,1-.3-.12.4.4,0,0,1-.13-.3.42.42,0,0,1,.42-.43l8.51-.11a.42.42,0,0,1,.43.42A.44.44,0,0,1,867.74,377.81Z"/><path class="cls-22" d="M886.94,377.6l17.94-7.94a36.83,36.83,0,0,1,.78,4h0l-17.12,7.58a1,1,0,0,1-1.29-.5l-.8-1.8A1,1,0,0,1,886.94,377.6Z"/><path class="cls-23" d="M903.44,365.75l6-2.67a41.12,41.12,0,0,0,9.59,12.2c-.24.73-1.28,2.8-5.69,4.75-4.2,1.86-6.42,1.38-7.18,1.08l-.15-.06A41.24,41.24,0,0,0,903.44,365.75Z"/><rect class="cls-21" x="883.73" y="305.16" width="5.15" height="80.17" transform="translate(1231.55 -541.07) rotate(90)"/><rect class="cls-21" x="883.73" y="343.66" width="5.15" height="80.17" transform="translate(1270.05 -502.56) rotate(90)"/><rect class="cls-21" x="883.73" y="382.24" width="5.15" height="80.17" transform="translate(1308.63 -463.98) rotate(90)"/><rect class="cls-21" x="883.73" y="420.83" width="5.15" height="80.17" transform="translate(1347.21 -425.4) rotate(90)"/><rect class="cls-23" x="841.07" y="322.21" width="5.15" height="146.9"/><rect class="cls-23" x="926.39" y="322.21" width="5.15" height="146.9"/><path class="cls-1" d="M859.63,456.17a.53.53,0,0,0,.53-.53v-17a.53.53,0,1,0-1.06,0v17A.53.53,0,0,0,859.63,456.17Z"/><rect class="cls-21" x="858.01" y="437.75" width="3.22" height="19.35"/><path class="cls-23" d="M857,457.77a.53.53,0,0,0,.53.53h4.26a.53.53,0,0,0,.53-.53V436.82H857Zm2.13-19.15a.53.53,0,1,1,1.06,0v17a.53.53,0,0,1-1.06,0Z"/><path class="cls-22" d="M865,429.58H857.5a.53.53,0,0,0-.53.53,1.6,1.6,0,1,1-3.19,0,.53.53,0,0,0-.53-.53h-2.13a.53.53,0,0,0-.53.53v6.39a.53.53,0,0,0,.53.53h2.13a.53.53,0,0,0,.53-.53,1.6,1.6,0,1,1,3.19,0v.32h5.32v-.32a3.72,3.72,0,1,1,7.44,0,.54.54,0,0,0,.54.53h1.06a.53.53,0,0,0,.53-.53A6.92,6.92,0,0,0,865,429.58Z"/><path class="cls-22" d="M895.39,450.67c2.89.36,5.51.73,8,1.13a4.08,4.08,0,0,1,2.76,1.69,3,3,0,0,1,.44,2.4,2.8,2.8,0,0,1-1.39,1.77,4.3,4.3,0,0,1-3.35.33c-1.61-.48-3.18-1-4.7-1.45l-.82-.26c-4.21-1.32-8.18-2.58-11.93-3.42l-.15,0,.86-3.87C888.78,449.71,892.15,450.27,895.39,450.67Z"/><path class="cls-5" d="M874.75,451.26l1.38-6.16c1.11-5,6.21-5.89,8.32-6l-.66,1a18.73,18.73,0,0,0-2.51,4.4,2.55,2.55,0,0,0,.16,1.64,1.82,1.82,0,0,0,1.27,1.08c1.54.35,2.22.5,2.56.54v0a.2.2,0,0,1,.12.08.17.17,0,0,1,0,.14l-1.31,5.88a.2.2,0,0,1-.22.14l-2.39-.53a1.41,1.41,0,0,0-1.07.17,1.38,1.38,0,0,0-.34.3l-4.88-1A2.06,2.06,0,0,1,874.75,451.26Z"/><path class="cls-5" d="M873.69,456.78l.6-2.7a2.8,2.8,0,0,1,.75-1.27l5,1a2.32,2.32,0,0,1,.6,1.61l-.62,2.74a.19.19,0,0,1-.21.14L874,457c-.17,0-.21-.06-.24-.11A.22.22,0,0,1,873.69,456.78Z"/><rect class="cls-23" x="906.91" y="415.63" width="10.97" height="1.71"/><polygon class="cls-22" points="917.87 415.63 919.36 415.04 919.36 417.93 917.87 417.33 917.87 415.63"/><polygon class="cls-22" points="923.14 417.23 919.35 417.92 919.35 415.05 923.14 415.73 923.14 417.23"/><polygon class="cls-22" points="907 418.5 905.46 417.86 905.45 415.1 906.99 414.47 907 418.5"/><path class="cls-23" d="M905.48,415.12h-1.64l-1.72-1.9h-9.41a3.27,3.27,0,0,0-1.93.94,3.24,3.24,0,0,0-1,2.32,3.29,3.29,0,0,0,2.9,3.26h9.5l1.63-1.9h1.64Zm-12.74-.93h9.36l.6.71h-10Zm0,1.92h11.08v.74H892.74Zm9.41,2.66h-9.41v-.71h10Z"/><rect class="cls-23" x="892.43" y="408.03" width="10.97" height="1.71" transform="translate(-88.52 389.13) rotate(-23.34)"/><polygon class="cls-22" points="902.61 405.94 903.74 404.8 904.89 407.45 903.28 407.5 902.61 405.94"/><polygon class="cls-22" points="908.08 405.31 904.88 407.45 903.74 404.81 907.49 403.94 908.08 405.31"/><polygon class="cls-22" points="893.77 412.88 892.1 412.9 890.99 410.37 892.15 409.18 893.77 412.88"/><path class="cls-23" d="M891,410.38l-1.51.65h0L887.19,410,887,410l-.59.25-7.86,3.39h0a3.28,3.28,0,0,0,2.58,6h0l8-3.43.49-.21.27-.12.74-2.38h0l1.51-.65ZM879,414.57l8.59-3.71.84.41-9.15,4Zm.76,1.77L889.9,412l.29.67L880,417Zm9.7-1.29-8.64,3.73-.29-.65,9.15-3.95Z"/><rect class="cls-5" x="628.25" y="184.41" width="11.71" height="1.64"/><rect class="cls-21" x="636.24" y="172.12" width="1.64" height="1.64"/><path class="cls-22" d="M632.14,172.12h4.1v2.07L632.67,177h-6.2A5.75,5.75,0,0,1,632.14,172.12Z"/><rect class="cls-21" x="629.39" y="177.04" width="3.28" height="1.64"/><polygon class="cls-22" points="626.93 180.65 628.91 178.67 633.15 178.67 636.76 182.29 636.76 184.41 626.93 184.41 626.93 180.65"/><polygon class="cls-22" points="618.41 175.87 623.45 175.87 625.84 178.87 616.02 178.87 618.41 175.87"/><rect class="cls-21" x="619.29" y="171.78" width="3.28" height="4.09"/><rect class="cls-21" x="616.02" y="178.87" width="9.83" height="5.73"/><polygon class="cls-21" points="634.85 213.48 618.39 213.48 612.93 186.04 638.95 186.04 634.85 213.48"/><rect class="cls-5" x="611.55" y="184.41" width="7.15" height="1.64"/><path class="cls-23" d="M645,216.18h-1.28a4.17,4.17,0,0,1-1.86-.44,5.82,5.82,0,0,0-5.18,0,4.14,4.14,0,0,1-1.86.44h-1.28a3.28,3.28,0,0,1-3.28-3.28v-3.11c.9.82,2.07,3.11,3.28,3.11h1.28a5.8,5.8,0,0,0,2.59-.61,4.19,4.19,0,0,1,3.72,0,5.83,5.83,0,0,0,2.59.61H645c1.22,0,2.38-2.29,3.28-3.11v3.11A3.28,3.28,0,0,1,645,216.18Z"/><path class="cls-23" d="M626.89,184.41h1.36v4.77a.71.71,0,0,0,.38.62l4.1,2a.85.85,0,0,1,.42.49.89.89,0,0,1-.07.68.79.79,0,0,1-1.07.36h0L629.24,192a.7.7,0,0,0-.92.32.73.73,0,0,0-.07.3v6.82a1.36,1.36,0,0,1-1.36,1.36v-5.45a.69.69,0,0,0-.68-.69h0a.69.69,0,0,0-.69.69v4.77a.67.67,0,0,1-.68.68h0a.67.67,0,0,1-.68-.68v-4.77a.69.69,0,0,0-.68-.69h0a.69.69,0,0,0-.69.69v4.77a.67.67,0,0,1-.68.68h0a.67.67,0,0,1-.68-.68v-4.77a.69.69,0,0,0-.68-.69h0a.69.69,0,0,0-.69.69v5.45a1.36,1.36,0,0,1-1.36-1.36v-15Z"/><path class="cls-14" d="M641.86,207a4.17,4.17,0,0,1,1.86-.44H645a3.28,3.28,0,1,1,0,6.55h-1.28a4.17,4.17,0,0,1-1.86-.44,5.82,5.82,0,0,0-5.18,0,4.14,4.14,0,0,1-1.86.44h-1.28a3.28,3.28,0,1,1,0-6.55h1.28a4.14,4.14,0,0,1,1.86.44A5.82,5.82,0,0,0,641.86,207Z"/><path class="cls-2" d="M592.51,179.06c-6.42,0-11.45-3.35-11.45-7.63s5-7.63,11.45-7.63S604,167.15,604,171.43,598.93,179.06,592.51,179.06Zm0-12.72c-4.82,0-8.9,2.33-8.9,5.09s4.08,5.09,8.9,5.09,8.91-2.33,8.91-5.09S597.34,166.34,592.51,166.34Z"/><rect class="cls-5" x="575.98" y="151.23" width="33.23" height="50.46"/><rect class="cls-21" x="573.43" y="139.34" width="38.16" height="11.89" rx="1.37"/><rect class="cls-21" x="572.05" y="201.69" width="40.8" height="7.1"/><circle class="cls-5" cx="580.99" cy="209.37" r="3.74"/><circle class="cls-5" cx="603.96" cy="209.37" r="3.74"/><ellipse class="cls-21" cx="592.25" cy="171.74" rx="9.76" ry="5.4"/><rect class="cls-21" x="572.05" y="164.73" width="3.93" height="13.6"/><rect class="cls-23" x="538.83" y="208.25" width="28.19" height="5.22"/><polygon class="cls-21" points="542.48 208.25 550.36 199.32 555.88 199.32 563.37 208.25 542.48 208.25"/><rect class="cls-5" x="550.36" y="139.79" width="5.52" height="59.53"/><rect class="cls-5" x="550.36" y="139.79" width="16.66" height="4.99"/><rect class="cls-5" x="562.09" y="144.78" width="4.93" height="29.61"/><rect class="cls-5" x="565.8" y="168.89" width="6.25" height="5.5"/><rect class="cls-21" x="550.36" y="153.59" width="5.52" height="16.75"/><polyline class="cls-26" points="546.35 151.79 546.35 160.7 550.98 160.7"/><line class="cls-27" x1="592.59" y1="139.34" x2="592.59" y2="151.23"/><line class="cls-27" x1="597.87" y1="139.34" x2="597.87" y2="151.23"/><polygon class="cls-23" points="728.54 166.54 714.43 166.54 711.61 143.97 731.36 143.97 728.54 166.54"/><path class="cls-14" d="M721.48,134.86a9.11,9.11,0,0,0-9.11,9.11h18.22A9.11,9.11,0,0,0,721.48,134.86Z"/><rect class="cls-5" x="747.62" y="137.59" width="27.91" height="1.63"/><polygon class="cls-21" points="770.44 166.54 754.05 166.54 748.61 139.22 774.53 139.22 770.44 166.54"/><rect class="cls-21" x="775.01" y="147.14" width="1.14" height="1.14"/><path class="cls-22" d="M772.16,147.14H775v1.43l-2.48,2h-4.31A4,4,0,0,1,772.16,147.14Z"/><rect class="cls-21" x="770.25" y="150.55" width="2.28" height="1.14"/><polygon class="cls-22" points="768.54 153.06 769.92 151.69 772.86 151.69 775.38 154.2 775.38 166.54 768.54 166.54 768.54 153.06"/><rect class="cls-21" x="770.94" y="157.86" width="4.43" height="3.07"/><polygon class="cls-23" points="756.76 166.54 732.77 166.54 734.18 162.31 755.35 162.31 756.76 166.54"/><polygon class="cls-22" points="750.41 162.31 739.12 162.31 740.53 156.66 749 156.66 750.41 162.31"/><rect class="cls-21" x="743.35" y="93.14" width="2.82" height="63.53"/></g><g id="Education_Training" data-name="Education &amp; Training"><rect class="cls-28" x="548.32" y="513.93" width="102.67" height="4.03" transform="translate(1199.31 1031.88) rotate(-180)"/><rect class="cls-28" x="548.32" y="564.99" width="102.67" height="4.03" transform="translate(1199.31 1134) rotate(-180)"/><rect class="cls-28" x="640.62" y="614.6" width="10.95" height="4.03" transform="translate(1292.2 1233.22) rotate(-180)"/><rect class="cls-28" x="548.46" y="614.6" width="10.95" height="4.03" transform="translate(1107.86 1233.22) rotate(-180)"/><rect class="cls-16" x="553.48" y="517.94" width="93.48" height="47.11" transform="translate(1200.43 1082.99) rotate(-180)"/><rect class="cls-28" x="622.19" y="589.99" width="47.43" height="4.03" transform="translate(1237.91 -53.9) rotate(90)"/><rect class="cls-28" x="530.05" y="589.99" width="47.43" height="4.03" transform="translate(1145.76 38.25) rotate(90)"/><path class="cls-15" d="M602.52,554.56a12.87,12.87,0,0,0,3.06-1.28l1.84,1.85a1.12,1.12,0,0,0,1.6,0l3.5-3.5a1.12,1.12,0,0,0,0-1.6l-1.85-1.84a12.87,12.87,0,0,0,1.28-3.06h2.61a1.14,1.14,0,0,0,1.15-1.15v-5a1.14,1.14,0,0,0-1.15-1.15H612a12.87,12.87,0,0,0-1.28-3.06l1.85-1.84a1.12,1.12,0,0,0,0-1.6l-3.5-3.5a1.12,1.12,0,0,0-1.6,0l-1.84,1.85a12.87,12.87,0,0,0-3.06-1.28v-2.61a1.14,1.14,0,0,0-1.15-1.15h-5a1.14,1.14,0,0,0-1.15,1.15v2.61a12.87,12.87,0,0,0-3.06,1.28l-1.84-1.85a1.12,1.12,0,0,0-1.6,0l-3.57,3.5a1.13,1.13,0,0,0,0,1.6L587,534.8a13.27,13.27,0,0,0-1.27,3.06h-2.61A1.14,1.14,0,0,0,582,539v5a1.14,1.14,0,0,0,1.15,1.15h2.61a13.27,13.27,0,0,0,1.27,3.06L585.18,550a1.13,1.13,0,0,0,0,1.6l3.51,3.5a1.11,1.11,0,0,0,1.59,0l1.85-1.85a12.87,12.87,0,0,0,3.06,1.28v2.61a1.14,1.14,0,0,0,1.15,1.15h5a1.14,1.14,0,0,0,1.14-1.15v-2.61Zm-3.64-4.65a8.42,8.42,0,1,1,8.42-8.42A8.41,8.41,0,0,1,598.88,549.91Z"/><rect class="cls-16" x="753" y="696.3" width="89.02" height="3.49"/><rect class="cls-28" x="756.49" y="699.78" width="81.04" height="40.84"/><rect class="cls-16" x="753" y="740.57" width="89.02" height="3.49"/><rect class="cls-16" x="752.49" y="783.58" width="9.5" height="3.49"/><rect class="cls-16" x="832.39" y="783.58" width="9.5" height="3.49"/><rect class="cls-16" x="736.85" y="762.25" width="41.12" height="3.49" transform="translate(1521.4 6.58) rotate(90)"/><rect class="cls-16" x="816.74" y="762.25" width="41.12" height="3.49" transform="translate(1601.28 -73.3) rotate(90)"/><rect class="cls-28" x="420.7" y="674.52" width="47.47" height="4.03"/><rect class="cls-28" x="420.7" y="725.63" width="47.47" height="4.03"/><rect class="cls-28" x="420.12" y="775.28" width="10.96" height="4.03"/><rect class="cls-28" x="457.79" y="775.28" width="10.96" height="4.03"/><rect class="cls-15" x="424.74" y="678.54" width="39.39" height="47.15"/><rect class="cls-28" x="402.06" y="750.65" width="47.47" height="4.03" transform="translate(1178.46 326.87) rotate(90)"/><rect class="cls-28" x="439.34" y="750.65" width="47.47" height="4.03" transform="translate(1215.74 289.59) rotate(90)"/><rect class="cls-28" x="701.24" y="696.3" width="41.12" height="3.49"/><rect class="cls-28" x="701.24" y="740.57" width="41.12" height="3.49"/><rect class="cls-28" x="700.73" y="783.58" width="9.5" height="3.49"/><rect class="cls-28" x="733.37" y="783.58" width="9.5" height="3.49"/><rect class="cls-15" x="704.74" y="699.78" width="34.12" height="40.84"/><rect class="cls-28" x="685.09" y="762.25" width="41.12" height="3.49" transform="translate(1469.64 58.34) rotate(90)"/><rect class="cls-28" x="717.39" y="762.25" width="41.12" height="3.49" transform="translate(1501.94 26.04) rotate(90)"/><path class="cls-28" d="M716.59,713.68a7.59,7.59,0,0,0,2.67-4.52c-2.37-1-4.56-1.11-6,.06s-1.89,3.4-1.4,5.94A7.16,7.16,0,0,0,716.59,713.68Z"/><path class="cls-16" d="M723.74,727.19l1.29-1.07c1.18,1.24,2.42,1.91,2.92,1.52s.17-1.74-.78-3.2l1.4-1.07s5.12.5,2.76-2.08a5.22,5.22,0,0,0-3.94-1.46,16.33,16.33,0,0,0-3.2-6.41,15.71,15.71,0,0,0-5-4.28,7.41,7.41,0,0,1-2.75,4.39,7.66,7.66,0,0,1-4.67,1.57,15.84,15.84,0,0,0,3,5.74,16.32,16.32,0,0,0,5.63,4.61,4.77,4.77,0,0,0,.5,4C723,732.31,723.63,727.19,723.74,727.19Zm-7-7.2a4,4,0,1,1,5.56.62A3.87,3.87,0,0,1,716.77,720Z"/><circle class="cls-28" cx="719.86" cy="717.52" r="3.95"/></g><g id="Community_Engagement" data-name="Community Engagement"><rect class="cls-7" x="25.87" y="289.95" width="113.84" height="27.74"/><rect class="cls-7" x="25.87" y="329.57" width="113.84" height="12.42"/><rect class="cls-29" x="25.87" y="317.57" width="38.06" height="12.07"/><rect class="cls-30" x="63.76" y="317.57" width="38.06" height="12.07"/><rect class="cls-29" x="101.65" y="317.57" width="38.06" height="12.07"/><rect class="cls-30" x="7.94" y="304.81" width="27.29" height="12.99"/><rect class="cls-30" x="130.4" y="304.81" width="27.29" height="12.99"/><rect class="cls-30" x="12.71" y="317.46" width="13.16" height="24.54"/><rect class="cls-30" x="139.59" y="317.46" width="13.16" height="24.54"/><rect class="cls-7" x="15.39" y="341.96" width="8.09" height="6.38"/><rect class="cls-7" x="142.12" y="341.96" width="8.09" height="6.38"/><rect class="cls-13" x="34.23" y="388.1" width="2" height="46.73"/><polygon class="cls-30" points="22.82 433.64 47.64 433.64 42.6 458.5 27.65 458.31 22.82 433.64"/><rect class="cls-29" x="23.49" y="458.19" width="23.49" height="3.28"/><polygon class="cls-4" points="39.39 386.09 35.27 390.21 31.15 386.09 35.17 378.17 39.39 386.09"/><polygon class="cls-4" points="32 391.2 35.1 396.14 30.16 399.24 23.33 393.55 32 391.2"/><polygon class="cls-4" points="39.18 403.13 35.1 398.96 39.27 394.89 47.15 399 39.18 403.13"/><rect class="cls-30" x="135.95" y="79.16" width="119.27" height="29.07"/><rect class="cls-30" x="135.95" y="120.67" width="119.27" height="13.01"/><rect class="cls-29" x="135.95" y="108.09" width="39.87" height="12.64"/><rect class="cls-7" x="175.65" y="108.09" width="39.87" height="12.64"/><rect class="cls-29" x="215.35" y="108.09" width="39.87" height="12.64"/><rect class="cls-7" x="117.17" y="94.73" width="28.59" height="13.61"/><rect class="cls-7" x="245.46" y="94.73" width="28.59" height="13.61"/><rect class="cls-7" x="122.17" y="107.98" width="13.79" height="25.71"/><rect class="cls-7" x="255.1" y="107.98" width="13.79" height="25.71"/><rect class="cls-29" x="124.96" y="133.65" width="8.47" height="6.69"/><rect class="cls-29" x="257.75" y="133.65" width="8.47" height="6.69"/><polygon class="cls-29" points="54.76 136.34 35.05 136.34 39.05 116.59 50.93 116.74 54.76 136.34"/><rect class="cls-30" x="43.62" y="136.4" width="2.57" height="59.21"/><rect class="cls-30" x="37.27" y="194.48" width="15.26" height="2.27"/></g><g id="Gifting"><path class="cls-13" d="M141.49,677.63H119.83v32.26H140.2a1.38,1.38,0,0,0,1.29-1.44Z"/><path class="cls-31" d="M95.1,708.45a1.37,1.37,0,0,0,1.28,1.44h20.37V677.63H95.1Z"/><path class="cls-31" d="M143.14,668.27H119.82v9.53h23.32a1.3,1.3,0,0,0,1.27-1.32v-6.89A1.29,1.29,0,0,0,143.14,668.27Z"/><path class="cls-13" d="M92.19,669.59v6.89a1.31,1.31,0,0,0,1.28,1.32h23.32v-9.53H93.47A1.3,1.3,0,0,0,92.19,669.59Z"/><path class="cls-32" d="M116.74,668.26v41.63h3.19V668.26c7.54-.32,16.07-2.88,18.23-7.35a5.28,5.28,0,0,0-.65-5.59,8.06,8.06,0,0,0-10.74-1.55c-3.84,2.53-6.8,6.66-8.44,9.32-1.63-2.66-4.59-6.79-8.43-9.32a8.05,8.05,0,0,0-10.74,1.55,5.28,5.28,0,0,0-.66,5.59C100.67,665.38,109.2,667.94,116.74,668.26Zm4.28-3.37c1.47-2.39,4.14-6.14,7.46-8.33a5.25,5.25,0,0,1,2.9-.87A4.44,4.44,0,0,1,135,657.3a1.89,1.89,0,0,1,.36,2.13C134,662,127.72,664.37,121,664.89Zm-19.31-7.59a4.45,4.45,0,0,1,3.58-1.61,5.22,5.22,0,0,1,2.89.87c3.33,2.19,6,5.94,7.47,8.33-6.7-.52-13-2.85-14.29-5.46A1.86,1.86,0,0,1,101.71,657.3Z"/><line class="cls-33" x1="101.43" y1="590.97" x2="101.43" y2="634.3"/><line class="cls-33" x1="108.92" y1="588.5" x2="108.92" y2="628.11"/><line class="cls-33" x1="78.37" y1="609.41" x2="78.37" y2="654.79"/><line class="cls-33" x1="86.26" y1="600.07" x2="86.26" y2="647.89"/><line class="cls-33" x1="94.14" y1="593.86" x2="94.14" y2="640.79"/><line class="cls-33" x1="154.56" y1="609.41" x2="154.56" y2="654.79"/><line class="cls-33" x1="146.67" y1="600.07" x2="146.67" y2="647.89"/><line class="cls-33" x1="138.79" y1="593.86" x2="138.79" y2="640.79"/><line class="cls-33" x1="131.4" y1="590.97" x2="131.4" y2="634.3"/><line class="cls-33" x1="123.91" y1="588.5" x2="123.91" y2="628.11"/><line class="cls-33" x1="116.41" y1="587.87" x2="116.41" y2="622.6"/><path class="cls-33" d="M72.06,709.89V632.22a44.36,44.36,0,0,1,88.71,0v77.67"/><line class="cls-33" x1="408.14" y1="467.74" x2="408.14" y2="511.07"/><line class="cls-33" x1="415.63" y1="465.27" x2="415.63" y2="504.88"/><line class="cls-33" x1="385.08" y1="486.18" x2="385.08" y2="531.56"/><line class="cls-33" x1="392.96" y1="476.84" x2="392.96" y2="524.66"/><line class="cls-33" x1="400.85" y1="470.63" x2="400.85" y2="517.56"/><line class="cls-33" x1="461.26" y1="486.18" x2="461.26" y2="531.56"/><line class="cls-33" x1="453.38" y1="476.84" x2="453.38" y2="524.66"/><line class="cls-33" x1="445.49" y1="470.63" x2="445.49" y2="517.56"/><line class="cls-33" x1="438.1" y1="467.74" x2="438.1" y2="511.07"/><line class="cls-33" x1="430.61" y1="465.27" x2="430.61" y2="504.88"/><line class="cls-33" x1="423.12" y1="464.64" x2="423.12" y2="499.37"/><path class="cls-33" d="M378.77,586.66V509a44.35,44.35,0,0,1,88.7,0v77.67"/><path class="cls-13" d="M314,450.4H261.72V420.17l12.08-15.38h5.79v22.47a1,1,0,0,0,.62.93.88.88,0,0,0,.39.08,1,1,0,0,0,.7-.28l6.81-6.64,6.82,6.64a1,1,0,0,0,1.09.2,1,1,0,0,0,.62-.93V404.79H314V450.4Z"/><path class="cls-32" d="M296.8,404.76V432l-7.86-7.66a1.38,1.38,0,0,0-.95-.38,1.35,1.35,0,0,0-.95.39L279.18,432V404.76Z"/><rect class="cls-32" x="224.64" y="422.76" width="59.44" height="5.03" transform="translate(-237.19 362.55) rotate(-51.84)"/><rect class="cls-13" x="328.3" y="341.99" width="123.03" height="75.93"/><circle class="cls-34" cx="351.07" cy="417.45" r="10.07"/><circle class="cls-34" cx="426.94" cy="417.45" r="10.07"/><rect class="cls-13" x="328.29" y="332.12" width="4.29" height="15.41"/><polygon class="cls-13" points="332.59 336.2 332.49 332.1 318.83 332.1 318.83 336.39 332.59 336.2"/><rect class="cls-32" x="348.84" y="311.52" width="40.67" height="30.5"/><rect class="cls-34" x="390.87" y="311.52" width="40.67" height="30.5"/><path class="cls-34" d="M383.77,306a3.86,3.86,0,0,0-.48-4.11,5.91,5.91,0,0,0-7.9-1.14,22.56,22.56,0,0,0-6.21,6.85,22.69,22.69,0,0,0-6.21-6.85,5.91,5.91,0,0,0-7.9,1.14,3.89,3.89,0,0,0-.49,4.11c1.6,3.3,7.88,5.18,13.42,5.41V342h2.35V311.37C375.9,311.14,382.18,309.26,383.77,306Zm-27.09-1.09a1.38,1.38,0,0,1,.27-1.56,3.21,3.21,0,0,1,2.63-1.19,3.88,3.88,0,0,1,2.13.64,20.25,20.25,0,0,1,5.49,6.13C362.27,308.51,357.62,306.8,356.68,304.87Zm25,0c-.93,1.93-5.58,3.64-10.52,4a20.43,20.43,0,0,1,5.5-6.13,3.83,3.83,0,0,1,2.13-.64,3.23,3.23,0,0,1,2.63,1.19A1.37,1.37,0,0,1,381.67,304.87Z"/><path class="cls-32" d="M425.8,306a3.86,3.86,0,0,0-.48-4.11,5.91,5.91,0,0,0-7.9-1.14,22.56,22.56,0,0,0-6.21,6.85,22.82,22.82,0,0,0-6.21-6.85,5.93,5.93,0,0,0-7.91,1.14,3.91,3.91,0,0,0-.48,4.11c1.59,3.3,7.87,5.18,13.42,5.41V342h2.35V311.37C417.93,311.14,424.21,309.26,425.8,306Zm-27.09-1.09a1.38,1.38,0,0,1,.27-1.56,3.21,3.21,0,0,1,2.62-1.19,3.89,3.89,0,0,1,2.14.64,20.38,20.38,0,0,1,5.49,6.13C404.3,308.51,399.64,306.8,398.71,304.87Zm25,0c-.93,1.93-5.59,3.64-10.52,4a20.43,20.43,0,0,1,5.5-6.13,3.83,3.83,0,0,1,2.13-.64,3.24,3.24,0,0,1,2.63,1.19A1.37,1.37,0,0,1,423.7,304.87Z"/><path class="cls-34" d="M258.42,735.31a1.74,1.74,0,0,0,1.63,1.82h25.83v-40.9H258.42Z"/><path class="cls-31" d="M317.25,696.23H289.79v40.9h25.83a1.73,1.73,0,0,0,1.63-1.82Z"/><path class="cls-31" d="M254.71,686v8.74a1.64,1.64,0,0,0,1.62,1.67H285.9V684.35H256.33A1.64,1.64,0,0,0,254.71,686Z"/><path class="cls-34" d="M319.32,684.35H289.75v12.08h29.57a1.64,1.64,0,0,0,1.62-1.67V686A1.64,1.64,0,0,0,319.32,684.35Z"/><path class="cls-32" d="M312.94,675a6.7,6.7,0,0,0-.84-7.08c-2.59-3.57-8.68-5.22-13.61-2s-8.63,8.45-10.7,11.82c-2.08-3.37-5.83-8.61-10.7-11.82s-11-1.6-13.62,2a6.68,6.68,0,0,0-.83,7.08c2.74,5.68,13.56,8.92,23.12,9.33v52.79h4.05V684.34C299.37,683.93,310.19,680.69,312.94,675Zm-46.68-1.87a2.37,2.37,0,0,1,.45-2.7,5.66,5.66,0,0,1,4.53-2.05,6.65,6.65,0,0,1,3.67,1.11c4.22,2.78,7.6,7.53,9.47,10.56C275.89,679.41,267.86,676.45,266.26,673.14Zm43.05,0c-1.6,3.31-9.62,6.27-18.12,6.92,1.87-3,5.25-7.78,9.47-10.56a6.67,6.67,0,0,1,3.67-1.11,5.64,5.64,0,0,1,4.53,2.05A2.37,2.37,0,0,1,309.31,673.14Z"/><path class="cls-32" d="M270.65,775.24h-60.1V740.48l13.89-17.69h6.67v25.85a1.16,1.16,0,0,0,.7,1.06,1.22,1.22,0,0,0,.45.1,1.18,1.18,0,0,0,.81-.33l7.84-7.63,7.83,7.63a1.17,1.17,0,0,0,1.26.23,1.15,1.15,0,0,0,.71-1.06V722.79h19.94v52.45Z"/><path class="cls-34" d="M250.9,722.76V754l-9-8.8a1.53,1.53,0,0,0-1.09-.44,1.58,1.58,0,0,0-1.1.44l-9,8.8V722.76Z"/><rect class="cls-34" x="167.91" y="743.45" width="68.36" height="5.79" transform="translate(-509.64 444.17) rotate(-51.84)"/><path class="cls-34" d="M446,554.76H424.3V587h20.37a1.37,1.37,0,0,0,1.29-1.43Z"/><path class="cls-31" d="M399.57,585.58a1.35,1.35,0,0,0,1.28,1.43h20.37V554.76H399.57Z"/><path class="cls-31" d="M447.61,545.4H424.29v9.52h23.32a1.29,1.29,0,0,0,1.27-1.32v-6.88A1.29,1.29,0,0,0,447.61,545.4Z"/><path class="cls-34" d="M396.66,546.72v6.88a1.3,1.3,0,0,0,1.28,1.32h23.32V545.4H397.94A1.3,1.3,0,0,0,396.66,546.72Z"/><path class="cls-32" d="M421.2,545.39V587h3.2V545.39c7.53-.33,16.07-2.88,18.23-7.36a5.25,5.25,0,0,0-.66-5.58,8,8,0,0,0-10.73-1.55c-3.84,2.53-6.8,6.66-8.44,9.31-1.64-2.65-4.59-6.78-8.44-9.31a8,8,0,0,0-10.73,1.55A5.27,5.27,0,0,0,403,538C405.14,542.51,413.67,545.06,421.2,545.39Zm4.29-3.38c1.47-2.39,4.13-6.13,7.46-8.32a5.26,5.26,0,0,1,2.9-.88,4.48,4.48,0,0,1,3.57,1.62,1.89,1.89,0,0,1,.36,2.13C438.51,539.17,432.19,541.5,425.49,542Zm-19.31-7.58a4.49,4.49,0,0,1,3.58-1.62,5.23,5.23,0,0,1,2.89.88c3.33,2.19,6,5.93,7.47,8.32-6.7-.51-13-2.84-14.29-5.45A1.86,1.86,0,0,1,406.18,534.43Z"/></g><g id="Pantry"><rect class="cls-4" x="1105.49" y="148.16" width="23.62" height="34.97"/><rect class="cls-4" x="1108.63" y="182.76" width="3.89" height="2.2"/><rect class="cls-4" x="1122.21" y="182.76" width="3.89" height="2.2"/><rect class="cls-5" x="1108.17" y="122.15" width="18.1" height="25.25" rx="7.98"/><rect class="cls-14" x="1106.87" y="127.67" width="20.86" height="5.52" rx="2.43"/><rect class="cls-14" x="1106.87" y="136.11" width="20.86" height="5.52" rx="2.43"/><rect class="cls-5" x="1113.7" y="147.36" width="7.34" height="0.75"/><rect class="cls-11" x="1107.85" y="155.18" width="18.9" height="12.31"/><rect class="cls-4" x="1112.04" y="155" width="2.09" height="2.41"/><rect class="cls-4" x="1112.52" y="157.37" width="1.06" height="1.22"/><rect class="cls-4" x="1120.6" y="155" width="2.09" height="2.41"/><rect class="cls-4" x="1121.09" y="157.37" width="1.06" height="1.22"/><rect class="cls-11" x="1114.06" y="149.9" width="6.67" height="3.84"/><rect class="cls-11" x="1108.47" y="151.06" width="4.71" height="1.8" rx="0.79"/><rect class="cls-11" x="1121.41" y="151.06" width="4.71" height="1.8" rx="0.79"/><rect class="cls-10" x="967.59" y="239.89" width="108.96" height="7.78"/><rect class="cls-10" x="988.15" y="274.87" width="67.2" height="6.06" transform="translate(1299.65 -743.85) rotate(90)"/><rect class="cls-4" x="959.64" y="238.63" width="4.38" height="19.51"/><rect class="cls-11" x="959.64" y="258.07" width="15.89" height="4.33"/><rect class="cls-11" x="961.79" y="278.48" width="13.75" height="2.5"/><rect class="cls-11" x="959.66" y="262.41" width="2.88" height="48.83"/><rect class="cls-11" x="972.65" y="262.41" width="2.88" height="48.83"/><rect class="cls-4" x="965.76" y="248.33" width="4.38" height="15.18" transform="translate(1223.87 -712.03) rotate(90)"/><rect class="cls-4" x="1080.12" y="238.63" width="4.38" height="19.51" transform="translate(2164.62 496.78) rotate(-180)"/><rect class="cls-11" x="1068.6" y="258.07" width="15.89" height="4.33" transform="translate(2153.1 520.48) rotate(-180)"/><rect class="cls-11" x="1068.6" y="278.48" width="13.75" height="2.5" transform="translate(2150.95 559.46) rotate(-180)"/><rect class="cls-11" x="1081.6" y="262.41" width="2.88" height="48.83" transform="translate(2166.09 573.64) rotate(-180)"/><rect class="cls-11" x="1068.61" y="262.41" width="2.88" height="48.83" transform="translate(2140.1 573.64) rotate(-180)"/><rect class="cls-4" x="1074" y="248.33" width="4.38" height="15.18" transform="translate(1332.11 -820.27) rotate(90)"/><rect class="cls-4" x="988.76" y="238.63" width="26.79" height="19.51"/><rect class="cls-11" x="988.76" y="258.07" width="26.79" height="4.33"/><rect class="cls-11" x="988.76" y="278.48" width="26.79" height="2.5"/><rect class="cls-11" x="988.76" y="262.41" width="2.88" height="48.83"/><rect class="cls-11" x="1012.66" y="262.41" width="2.88" height="48.83"/><rect class="cls-4" x="1028.55" y="238.63" width="26.79" height="19.51"/><rect class="cls-11" x="1028.55" y="258.07" width="26.79" height="4.33"/><rect class="cls-11" x="1028.55" y="278.48" width="26.79" height="2.5"/><rect class="cls-11" x="1028.55" y="262.41" width="2.88" height="48.83"/><rect class="cls-11" x="1052.46" y="262.41" width="2.88" height="48.83"/><rect class="cls-13" x="1144.68" y="91.68" width="1.66" height="38.73"/><polygon class="cls-11" points="1135.22 129.43 1155.79 129.43 1151.62 150.04 1139.22 149.88 1135.22 129.43"/><rect class="cls-10" x="1135.77" y="149.78" width="19.47" height="2.72"/><polygon class="cls-4" points="1148.96 90.02 1145.54 93.43 1142.13 90.02 1145.46 83.44 1148.96 90.02"/><polygon class="cls-4" points="1142.83 94.25 1145.4 98.34 1141.31 100.91 1135.64 96.2 1142.83 94.25"/><polygon class="cls-4" points="1148.78 104.14 1145.4 100.69 1148.86 97.31 1155.39 100.72 1148.78 104.14"/><rect class="cls-13" x="875.51" y="107.8" width="1.64" height="38.31"/><polygon class="cls-4" points="866.15 145.15 886.5 145.15 882.37 165.53 870.11 165.37 866.15 145.15"/><rect class="cls-11" x="866.7" y="165.27" width="19.26" height="2.69"/><polygon class="cls-4" points="879.74 106.16 876.36 109.53 872.98 106.16 876.28 99.66 879.74 106.16"/><polygon class="cls-4" points="873.67 110.35 876.22 114.39 872.17 116.94 866.57 112.27 873.67 110.35"/><polygon class="cls-4" points="879.56 120.13 876.22 116.71 879.64 113.37 886.1 116.74 879.56 120.13"/><path class="cls-35" d="M1077.88,57a.89.89,0,0,1,.89.89,1,1,0,0,1-.89.9,1.08,1.08,0,0,1-.64-.14"/><rect class="cls-4" x="962.42" y="63.9" width="43.34" height="65.18"/><rect class="cls-11" x="1005.68" y="63.9" width="43.34" height="65.18"/><rect class="cls-10" x="1048.96" y="63.9" width="43.34" height="65.18"/><rect class="cls-11" x="966.03" y="67" width="36.13" height="53.38"/><rect class="cls-4" x="1009.28" y="67" width="36.13" height="17.51"/><rect class="cls-10" x="1009.28" y="84.59" width="36.13" height="17.51"/><rect class="cls-4" x="1009.28" y="102.18" width="36.13" height="17.51"/><rect class="cls-11" x="1052.57" y="67" width="36.13" height="17.51"/><rect class="cls-4" x="1052.57" y="84.59" width="36.13" height="17.51"/><rect class="cls-11" x="1052.57" y="102.18" width="36.13" height="17.51"/><path class="cls-10" d="M1026.09,46.3h5.17a3,3,0,0,1,3,3V63.89a0,0,0,0,1,0,0h-11.22a0,0,0,0,1,0,0V49.33A3,3,0,0,1,1026.09,46.3Z"/><path class="cls-36" d="M1023.17,59.14a3.74,3.74,0,0,1,0-7.48"/><rect class="cls-11" x="1027.72" y="51.86" width="2.22" height="9.5"/><rect class="cls-10" x="1031.57" y="48.18" width="3.71" height="1.65"/><rect class="cls-4" x="1059.82" y="40.49" width="19.69" height="8.04"/><rect class="cls-11" x="1059.82" y="48.56" width="8.43" height="14.77"/><rect class="cls-4" x="1068.25" y="60.87" width="10.96" height="2.45"/><rect class="cls-11" x="1072.23" y="48.52" width="4.6" height="2.3"/><rect class="cls-11" x="1073.11" y="50.75" width="3.18" height="1.22"/><rect class="cls-4" x="1076.83" y="49.3" width="9.07" height="0.98"/><path class="cls-11" d="M1071,56.05h6.87a0,0,0,0,1,0,0V58.7a1.85,1.85,0,0,1-1.85,1.85h-3.17A1.85,1.85,0,0,1,1071,58.7V56.05A0,0,0,0,1,1071,56.05Z"/><rect class="cls-10" x="912" y="7.21" width="50.38" height="73.07"/><rect class="cls-11" x="912" y="80.27" width="50.38" height="48.71"/><rect class="cls-11" x="1023.25" y="68.29" width="8.2" height="0.98"/><rect class="cls-11" x="1023.25" y="85.73" width="8.2" height="0.98"/><rect class="cls-11" x="1023.25" y="103.18" width="8.2" height="0.98"/><rect class="cls-10" x="1066.53" y="68.29" width="8.2" height="0.98"/><rect class="cls-10" x="1066.53" y="85.73" width="8.2" height="0.98"/><rect class="cls-10" x="1066.53" y="103.18" width="8.2" height="0.98"/><line class="cls-37" x1="984.09" y1="65.48" x2="984.09" y2="124.54"/><rect class="cls-4" x="977.52" y="73.06" width="8.2" height="0.98" transform="translate(1055.17 -908.08) rotate(90)"/><rect class="cls-4" x="982.46" y="73.06" width="8.2" height="0.98" transform="translate(1060.11 -913.02) rotate(90)"/><rect class="cls-4" x="914.46" y="56.1" width="1.73" height="20.23"/><rect class="cls-4" x="914.46" y="84.23" width="1.73" height="20.23"/></g><g id="Network_with_B2B_Button" data-name="Network with B2B Button"><polygon class="cls-2" points="0 634.89 138.74 799.41 0 799.41 0 634.89"/><polygon class="cls-38" points="22.12 651.42 7.9 634.88 7.9 634.88 0 625.68 0 634.89 138.74 799.41 146.51 799.33 22.12 651.42"/></g><g id="Sponsors_Panel" data-name="Sponsors Panel"><g class="cls-39"><polygon class="cls-2" points="1089.89 -12.57 1388.81 339.64 1379.16 -5.82 1089.89 -12.57"/><polygon class="cls-5" points="1087.14 -37.56 1067.29 -37.56 1422.39 383.83 1422.39 360.08 1087.14 -37.56"/><polygon class="cls-4" points="1351.39 -15.22 1376.82 -21.72 1228.52 154.21 1218.57 142.36 1351.39 -15.22"/><polygon class="cls-5" points="1258.1 -130.29 1283.52 -136.79 1135.22 39.14 1125.27 27.29 1258.1 -130.29"/><polygon class="cls-5" points="1449.25 166.63 1449.25 190.29 1357.62 299 1347.67 287.14 1449.25 166.63"/><polygon class="cls-4" points="1456.59 385.23 1467.2 372.63 1352.74 239.39 1342.11 252 1456.59 385.23"/><polygon class="cls-4" points="1419.64 137.02 1419.64 160.68 1327.02 270.65 1317.07 258.8 1419.64 137.02"/></g></g></svg>