<svg id="Key_Visual_1" data-name="Key Visual 1" xmlns="http://www.w3.org/2000/svg" xmlns:xlink="http://www.w3.org/1999/xlink" width="1400.92" height="838.53" viewBox="0 0 1400.92 838.53"><defs><style>.cls-1{fill:none;}.cls-2{fill:#fff6de;}.cls-3{clip-path:url(#clip-path);}.cls-4{fill:#9c3;}.cls-5{fill:#fc3;}.cls-6{fill:#39f;}.cls-7{fill:#ef86a4;}.cls-8{fill:#f63;}.cls-9{clip-path:url(#clip-path-2);}.cls-10{clip-path:url(#clip-path-3);}.cls-11{clip-path:url(#clip-path-4);}.cls-12{clip-path:url(#clip-path-5);}.cls-13{clip-path:url(#clip-path-6);}.cls-14{clip-path:url(#clip-path-7);}.cls-15{clip-path:url(#clip-path-8);}.cls-16{clip-path:url(#clip-path-9);}</style><clipPath id="clip-path"><rect class="cls-1" x="136.51" y="205.96" width="604.42" height="99.93"/></clipPath><clipPath id="clip-path-2"><polygon class="cls-1" points="710.78 305.93 118.54 305.93 114.9 207.16 710.78 205.39 710.78 305.93"/></clipPath><clipPath id="clip-path-3"><polygon class="cls-1" points="710.78 206.06 118.54 206.87 118.54 107.36 429.13 106.34 710.78 107.38 710.78 206.06"/></clipPath><clipPath id="clip-path-4"><rect class="cls-1" x="118.54" y="305.93" width="608.78" height="99.98"/></clipPath><clipPath id="clip-path-5"><rect class="cls-1" x="118.54" y="405.91" width="608.78" height="99.93"/></clipPath><clipPath id="clip-path-6"><polygon class="cls-1" points="710.78 605.09 435.75 605.09 118.54 605.09 118.7 505.88 710.94 505.88 710.78 605.09"/></clipPath><clipPath id="clip-path-7"><rect class="cls-1" x="246.81" y="605.09" width="368.57" height="117.28"/></clipPath><clipPath id="clip-path-8"><rect class="cls-1" x="-250.14" y="0.08" width="1643.14" height="838.14"/></clipPath><clipPath id="clip-path-9"><rect class="cls-1" x="27.5" width="1642.37" height="838.18"/></clipPath></defs><rect id="Background" class="cls-2" x="-250.14" y="0.37" width="1920" height="837.83"/><g id="Main_Weave_Type_" data-name="Main Weave (Type)"><g class="cls-3"><polygon class="cls-4" points="473.41 320.11 461.76 329.94 428.85 290.95 438.94 279.28 473.41 320.11"/><rect class="cls-5" x="474.95" y="191" width="15.24" height="51.95" transform="translate(259.71 -262.91) rotate(40.88)"/><rect class="cls-4" x="388.62" y="176.85" width="15.24" height="173.42" transform="translate(-76.55 317.77) rotate(-40.17)"/><rect class="cls-6" x="308.33" y="174.24" width="15.24" height="173.42" transform="translate(247.85 -143.13) rotate(40.88)"/><rect class="cls-7" x="408.41" y="176.85" width="15.24" height="173.42" transform="translate(-71.88 330.53) rotate(-40.17)"/><rect class="cls-5" x="295.77" y="186.59" width="15.24" height="173.42" transform="translate(-104.73 260.17) rotate(-40.17)"/><rect class="cls-4" x="261.14" y="168.62" width="15.24" height="173.42" transform="translate(232.66 -113.62) rotate(40.88)"/><rect class="cls-8" x="343.91" y="174.24" width="15.24" height="173.42" transform="translate(-85.41 288.31) rotate(-40.17)"/><rect class="cls-6" x="376.18" y="168.62" width="15.24" height="173.42" transform="translate(260.72 -188.91) rotate(40.88)"/><rect class="cls-7" x="442.68" y="168.62" width="15.24" height="173.42" transform="translate(276.94 -232.43) rotate(40.88)"/><polygon class="cls-8" points="542.53 323.6 531.01 313.63 611.97 220.09 622.38 231.36 542.53 323.6"/><rect class="cls-5" x="499.19" y="169.21" width="15.24" height="173.42" transform="translate(291.11 -269.27) rotate(40.88)"/><rect class="cls-6" x="494.6" y="176.53" width="15.24" height="173.42" transform="translate(-51.35 386.06) rotate(-40.17)"/><polygon class="cls-4" points="605.83 326.16 591.77 334.54 479.9 202.03 491.55 192.2 605.83 326.16"/><polygon class="cls-5" points="515.75 331.5 504.23 321.52 602.33 208.19 613.04 219.11 515.75 331.5"/><polygon class="cls-7" points="583.8 324.58 572.15 334.42 459.7 201.91 471.35 192.07 583.8 324.58"/><polygon class="cls-8" points="263.71 287.55 251.95 297.1 202.39 234.96 211.06 225.04 263.71 287.55"/><rect class="cls-7" x="609" y="169.75" width="15.24" height="173.42" transform="translate(-19.99 458.26) rotate(-40.17)"/><polygon class="cls-7" points="463.63 308.13 444.83 309.49 405.78 263.23 417.42 253.39 463.63 308.13"/><polygon class="cls-5" points="297.73 254.77 286.08 264.6 236.57 205.96 256.75 206.23 297.73 254.77"/><rect class="cls-4" x="374.28" y="218.11" width="15.07" height="56.83" transform="translate(-68.96 304.45) rotate(-40.17)"/><polygon class="cls-5" points="511.24 262.46 501.35 250.59 511.38 239 521.32 250.8 511.24 262.46"/></g><g class="cls-9"><polygon class="cls-4" points="473.73 320.15 462.08 329.99 429.17 291 439.26 279.33 473.73 320.15"/><rect class="cls-5" x="475.28" y="191.05" width="15.24" height="51.95" transform="translate(259.82 -263.11) rotate(40.88)"/><polygon class="cls-8" points="213.48 229.43 295.05 325.34 284.04 334.78 204.15 239.58 213.48 229.43"/><rect class="cls-4" x="388.94" y="176.9" width="15.24" height="173.42" transform="translate(-76.51 317.99) rotate(-40.17)"/><rect class="cls-7" x="408.73" y="176.9" width="15.24" height="173.42" transform="translate(-71.84 330.75) rotate(-40.17)"/><rect class="cls-5" x="296.2" y="186.77" width="15.24" height="173.42" transform="translate(-104.75 260.49) rotate(-40.17)"/><polygon class="cls-4" points="215.65 328.44 204.63 317.88 320.07 184.83 331.6 194.81 215.65 328.44"/><polygon class="cls-8" points="413.61 322.34 401.97 332.17 290.17 200.45 301.75 189.82 413.61 322.34"/><rect class="cls-6" x="376.5" y="168.67" width="15.24" height="173.42" transform="translate(260.83 -189.11) rotate(40.88)"/><rect class="cls-8" x="443" y="168.67" width="15.24" height="173.42" transform="translate(277.05 -232.63) rotate(40.88)"/><polygon class="cls-8" points="542.85 323.65 531.33 313.68 605.65 227.58 617.17 237.56 542.85 323.65"/><rect class="cls-5" x="499.51" y="169.26" width="15.24" height="173.42" transform="translate(291.22 -269.47) rotate(40.88)"/><polygon class="cls-5" points="386.11 318.17 373.18 309.9 492.89 174.59 502.66 183.51 386.11 318.17"/><rect class="cls-6" x="494.92" y="176.58" width="15.24" height="173.42" transform="translate(-51.31 386.28) rotate(-40.17)"/><polygon class="cls-6" points="486.83 310.74 480.22 327.72 365.73 192.1 377.38 182.27 486.83 310.74"/><polygon class="cls-4" points="606.15 326.21 592.09 334.59 480.22 202.08 491.87 192.25 606.15 326.21"/><polygon class="cls-5" points="516.07 331.55 504.48 321.38 598.41 212.53 610 222.69 516.07 331.55"/><polygon class="cls-7" points="584.12 324.63 572.48 334.47 460.03 201.96 471.68 192.13 584.12 324.63"/><rect class="cls-7" x="609.33" y="169.8" width="15.24" height="173.42" transform="translate(-19.95 458.48) rotate(-40.17)"/><polygon class="cls-7" points="463.95 308.18 445.15 309.54 406.1 263.28 417.75 253.44 463.95 308.18"/><polygon class="cls-5" points="298.05 254.82 286.4 264.65 236.89 206.01 257.07 206.28 298.05 254.82"/><rect class="cls-4" x="374.6" y="218.16" width="15.07" height="56.83" transform="translate(-68.92 304.67) rotate(-40.17)"/><polygon class="cls-5" points="511.56 262.5 501.67 250.64 511.7 239.05 521.65 250.85 511.56 262.5"/><polygon class="cls-8" points="182.81 306.17 183.63 330.77 161.83 304.98 171.64 293.69 182.81 306.17"/><polygon class="cls-4" points="409.6 291.01 419.66 279.43 441.91 305.69 422.17 305.75 409.6 291.01"/></g><g class="cls-10"><rect class="cls-4" x="381.71" y="65.86" width="15.24" height="173.42" transform="translate(194.82 -217.6) rotate(40.88)"/><rect class="cls-8" x="400.49" y="65.49" width="15.24" height="173.42" transform="translate(-1.92 299.16) rotate(-40.17)"/><polygon class="cls-4" points="522.16 227.01 510.63 217.04 557.63 164.89 569.16 174.87 522.16 227.01"/><polygon class="cls-5" points="530.29 213.91 518.64 223.74 409.51 94.47 420.39 83.73 530.29 213.91"/><polygon class="cls-6" points="298.4 223.12 288.98 214.11 411.87 72.14 420.39 83.73 298.4 223.12"/><polygon class="cls-7" points="385.15 214.84 373.51 224.67 294.52 130.31 306.17 120.47 385.15 214.84"/><polygon class="cls-8" points="550.44 214.17 538.79 224 388.09 45.49 398.23 33.86 550.44 214.17"/><polygon class="cls-5" points="309.02 233.85 297.5 223.88 411.05 94.41 422.52 102.73 309.02 233.85"/><rect class="cls-5" x="544.38" y="171.84" width="15.24" height="64.94" transform="translate(268.36 -311.44) rotate(40.88)"/><polygon class="cls-6" points="435.78 229.94 424.25 219.96 516.27 113.66 526.97 124.59 435.78 229.94"/><polygon class="cls-4" points="409.11 141.59 399.19 129.77 430.95 93.08 442.47 103.05 409.11 141.59"/><rect class="cls-8" x="483.21" y="129.33" width="15.24" height="52.13" transform="translate(15.53 353.28) rotate(-40.17)"/><polygon class="cls-8" points="388.76 141.2 430.33 190.42 440.56 178.89 399.12 129.83 388.76 141.2"/><polygon class="cls-8" points="347.41 92.17 379.59 130.27 389.76 118.68 357.59 80.59 347.41 92.17"/></g><g class="cls-11"><polygon class="cls-8" points="578.74 426.91 568.71 415.2 598.91 380.32 608.86 392.11 578.74 426.91"/><polygon class="cls-8" points="678.46 318.23 668.44 306.51 698.63 271.63 708.59 283.42 678.46 318.23"/><polygon class="cls-8" points="386.17 299.57 369.16 319.19 358.61 308.08 373.96 290.38 386.17 299.57"/><polygon class="cls-8" points="465.24 310.23 455.11 298.26 472.62 278.4 484.15 288.38 465.24 310.23"/><polygon class="cls-4" points="685.92 418.43 674.78 428.66 561.16 296.8 572.81 286.97 685.92 418.43"/><rect class="cls-4" x="311.99" y="273.99" width="15.24" height="173.42" transform="translate(314.03 -121.2) rotate(40.88)"/><rect class="cls-4" x="506.47" y="270.78" width="15.24" height="173.42" transform="translate(359.36 -249.26) rotate(40.88)"/><rect class="cls-6" x="526.68" y="270.78" width="15.24" height="173.42" transform="translate(364.29 -262.49) rotate(40.88)"/><polygon class="cls-5" points="537.96 427.72 526.43 417.74 593.81 334.7 603.92 346.42 537.96 427.72"/><polygon class="cls-6" points="636.92 428.27 625.39 418.3 705.86 325.34 715.85 336.79 636.92 428.27"/><polygon class="cls-8" points="626.04 372.1 577.9 427.72 566.38 417.74 615.99 360.43 626.04 372.1"/><polygon class="cls-8" points="636.08 360.5 691.4 296.6 679.88 286.62 626.04 348.81 636.08 360.5"/><rect class="cls-8" x="401.01" y="270.46" width="15.24" height="173.42" transform="translate(333.43 -180.32) rotate(40.88)"/><polygon class="cls-5" points="301.84 415.61 288.59 407.63 406.87 270.98 418.39 280.96 301.84 415.61"/><polygon class="cls-4" points="521.02 337.75 504.13 357.73 512.34 371.48 533.84 346.43 521.02 337.75"/><rect class="cls-4" x="258.13" y="258.8" width="15.24" height="178.09" transform="translate(292.48 -89.08) rotate(40.88)"/><polygon class="cls-4" points="134.84 421.78 134.19 399.25 239.88 277.15 251.4 287.13 134.84 421.78"/><rect class="cls-8" x="208.27" y="270.46" width="15.24" height="173.42" transform="translate(-179.47 223.51) rotate(-40.17)"/><polygon class="cls-8" points="379.49 423.63 367.84 433.46 255.4 300.65 265.47 289.42 379.49 423.63"/><polygon class="cls-7" points="399.34 424.15 387.54 433.81 275.13 300.76 286.11 290.19 399.34 424.15"/><rect class="cls-5" x="487.18" y="269.24" width="15.24" height="173.42" transform="translate(-112.9 403.14) rotate(-40.17)"/><rect class="cls-6" x="506.91" y="269.24" width="15.24" height="173.42" transform="translate(-108.25 415.87) rotate(-40.17)"/><rect class="cls-7" x="526.88" y="269.24" width="15.24" height="173.42" transform="translate(-103.54 428.75) rotate(-40.17)"/><polygon class="cls-7" points="459.14 422.2 447.49 432.03 358.61 326.74 368.71 315.07 459.14 422.2"/><polygon class="cls-7" points="723.15 368.94 714.08 382.03 640.97 296.8 652.62 286.97 723.15 368.94"/><rect class="cls-4" x="229.14" y="360.98" width="15.24" height="40.7" transform="translate(307.32 -61.94) rotate(40.88)"/><polygon class="cls-5" points="337.91 374.64 327.59 362.41 358.04 327.39 368.35 338.78 337.91 374.64"/><polygon class="cls-8" points="399.15 379.84 389.13 368.13 419.33 333.25 429.28 345.04 399.15 379.84"/><polygon class="cls-4" points="484.95 403.12 474.93 391.41 505.12 356.53 515.08 368.32 484.95 403.12"/><polygon class="cls-4" points="525.1 356.53 515.08 344.81 545.27 309.93 555.23 321.72 525.1 356.53"/><polygon class="cls-6" points="187.01 422.32 181.69 405.15 263.57 310.31 273.54 322.08 187.01 422.32"/><rect class="cls-8" x="575.79" y="390.83" width="15.24" height="37.76" transform="translate(410.44 -281.89) rotate(40.88)"/><polygon class="cls-8" points="675.88 314.53 665.81 302.87 690.52 274.32 702.05 284.3 675.88 314.53"/><polygon class="cls-7" points="303.53 310.86 292.42 321.17 266.23 290.47 280.61 284.55 303.53 310.86"/><polygon class="cls-7" points="357.1 305.75 348.89 315.23 340.9 305.75 355.79 305.75 357.1 305.75"/><polygon class="cls-7" points="202.35 406.66 181.9 405.98 128.29 342.96 138.41 331.34 202.35 406.66"/><polygon class="cls-8" points="211.4 224.45 201.25 236.07 171.55 200.58 181.62 188.87 211.4 224.45"/></g><g class="cls-12"><rect class="cls-4" x="516.7" y="378.75" width="15.24" height="173.42" transform="translate(432.52 -229.62) rotate(40.88)"/><rect class="cls-5" x="297.65" y="376.31" width="15.24" height="173.42" transform="translate(-226.68 306.14) rotate(-40.17)"/><rect class="cls-8" x="414.56" y="376.31" width="15.24" height="173.42" transform="translate(-199.1 381.55) rotate(-40.17)"/><rect class="cls-6" x="374.53" y="375.58" width="15.24" height="173.42" transform="translate(-208.07 355.56) rotate(-40.17)"/><polygon class="cls-8" points="657.95 455.52 648.47 466.85 591.37 399.43 603.02 389.6 657.95 455.52"/><polygon class="cls-6" points="269.19 526.97 257.54 536.81 145.2 403.56 157.74 394.22 269.19 526.97"/><polygon class="cls-6" points="631.1 482.27 620.61 493.49 536.94 394.37 548.59 384.54 631.1 482.27"/><rect class="cls-7" x="505.32" y="368.52" width="15.24" height="173.42" transform="translate(-172.66 438.26) rotate(-40.17)"/><polygon class="cls-7" points="303.83 526.8 292.19 536.63 180.32 404.12 191.46 393.83 303.83 526.8"/><polygon class="cls-5" points="454.38 523.89 442.86 513.92 558.77 380.35 572.32 387.65 454.38 523.89"/><rect class="cls-8" x="267.2" y="365" width="15.24" height="173.42" transform="translate(362.67 -69.68) rotate(40.88)"/><rect class="cls-4" x="421.91" y="368.64" width="15.24" height="173.42" transform="translate(402.78 -170.05) rotate(40.88)"/><rect class="cls-7" x="401.94" y="368.64" width="15.24" height="173.42" transform="translate(397.91 -156.98) rotate(40.88)"/><polygon class="cls-4" points="620.32 469.51 610.36 457.71 674.02 384.17 685.55 394.14 620.32 469.51"/><rect class="cls-5" x="444.24" y="365.98" width="15.24" height="173.42" transform="translate(406.49 -185.32) rotate(40.88)"/><rect class="cls-4" x="287.07" y="365" width="15.24" height="173.42" transform="translate(367.51 -82.69) rotate(40.88)"/><rect class="cls-7" x="195.53" y="408.17" width="15.24" height="22.52" transform="translate(-222.64 229.98) rotate(-40.17)"/><rect class="cls-7" x="249.25" y="460.97" width="15.24" height="44.07" transform="translate(-250.98 279.63) rotate(-40.17)"/><polygon class="cls-5" points="295.25 439.42 285.3 451.25 270.16 433.32 281.81 423.49 295.25 439.42"/><polygon class="cls-8" points="422.66 451.86 412.47 463.41 399.07 447.54 410.72 437.71 422.66 451.86"/><polygon class="cls-8" points="470.55 508.51 460.36 520.07 446.96 504.2 458.61 494.36 470.55 508.51"/><polygon class="cls-6" points="412.68 486.35 402.52 498.02 392.78 486.44 402.88 474.74 412.68 486.35"/><polygon class="cls-7" points="504.75 433.71 490.74 440.48 471.81 418.06 481.95 406.44 504.75 433.71"/><polygon class="cls-4" points="481.52 526.27 469.86 516.78 513.34 467.51 523.21 479.21 481.52 526.27"/><rect class="cls-6" x="551.89" y="395.28" width="15.24" height="28" transform="translate(-132.04 457.46) rotate(-40.17)"/><polygon class="cls-4" points="562.14 433.41 553.06 420.61 573.46 396.65 589.32 401.97 562.14 433.41"/><polygon class="cls-8" points="459.42 495.28 447.77 505.11 422.41 475.07 432.51 463.4 459.42 495.28"/><polygon class="cls-5" points="275.7 416.18 264.08 426.05 241.6 399.44 253.31 389.68 275.7 416.18"/><polygon class="cls-4" points="568.75 528.97 557.22 518.99 600.22 469.32 610.17 481.12 568.75 528.97"/><polygon class="cls-8" points="259.42 457.85 238.52 482 248.44 493.49 270.27 468.27 259.42 457.85"/></g><g class="cls-13"><rect class="cls-7" x="398.62" y="467.73" width="15.24" height="173.42" transform="translate(-261.83 392.83) rotate(-40.17)"/><polygon class="cls-5" points="386.14 638.68 376.04 650.33 243.27 493.1 254.92 483.27 386.14 638.68"/><polygon class="cls-5" points="283.39 723.25 261.16 725.93 466.12 487.25 477.64 497.22 283.39 723.25"/><polygon class="cls-8" points="534.15 597.32 522.5 607.16 453.46 525.37 463.52 513.66 534.15 597.32"/><polygon class="cls-8" points="309.2 605.09 294.52 598.72 398.52 479.85 410.05 489.83 309.2 605.09"/><polygon class="cls-6" points="416.4 626.33 405.48 638.5 282.73 493.1 294.38 483.27 416.4 626.33"/><polygon class="cls-6" points="374.53 674.92 364.67 663.35 520.32 481.76 531.85 491.73 374.53 674.92"/><polygon class="cls-4" points="355.18 720.64 332.95 723.31 537.91 484.63 549.44 494.61 355.18 720.64"/><polygon class="cls-8" points="501.24 558.34 490.8 569.61 477.96 554.4 488.06 542.73 501.24 558.34"/><polygon class="cls-7" points="509.29 494.72 499.27 506.48 487.97 493.1 499.62 483.27 509.29 494.72"/><polygon class="cls-7" points="581.59 524.17 571.63 536 533.68 491.61 545.21 481.63 581.59 524.17"/><polygon class="cls-8" points="244.08 498.53 237.66 505.95 234.62 509.45 231.57 505.84 244.08 498.53"/></g><g class="cls-14"><polygon class="cls-7" points="481.98 656.33 436.88 602.49 446.25 589.84 492.29 644.83 481.98 656.33"/><polygon class="cls-8" points="414.59 722.61 404.59 710.73 466.26 637.56 476.19 649.41 414.59 722.61"/><polygon class="cls-6" points="368.53 682.07 357.72 671.5 414.67 605.01 434.47 605.08 368.53 682.07"/><polygon class="cls-5" points="425.93 685.76 415.82 697.41 334.97 601.66 346.62 591.83 425.93 685.76"/><polygon class="cls-4" points="351.99 658.58 339 650.38 384.95 596.01 398.29 605.09 351.99 658.58"/></g></g><g id="Left_Weaved_Clipped_" data-name="Left Weaved (Clipped)"><g class="cls-15"><g id="Left_Weave" data-name="Left Weave"><polygon class="cls-7" points="717.72 362.04 350.68 797.08 361 809.47 726.96 372.69 717.72 362.04"/><polygon class="cls-7" points="-221.6 -32.08 -221.5 -9.92 435.35 771.41 445.28 759.58 -221.6 -32.08"/><polygon class="cls-6" points="-263.19 61.01 -262.34 84.05 371.35 840.85 387.28 841.02 -263.19 61.01"/><polygon class="cls-8" points="-265.85 770.96 -265.85 794.6 39.21 444.19 29.36 432.43 -265.85 770.96"/><polygon class="cls-4" points="409.53 -3.52 38.15 422.36 47.97 434.13 428.97 -3.52 409.53 -3.52"/><polygon class="cls-5" points="323.61 140.79 313.84 129.12 414.87 12.91 424.97 24.56 323.61 140.79"/><polygon class="cls-5" points="254.86 220.3 241.79 211.44 303.61 140.67 313.53 152.52 254.86 220.3"/><polygon class="cls-8" points="461.51 108.85 450.93 120.07 397.5 56.06 407.74 44.31 461.51 108.85"/><polygon class="cls-6" points="400.05 106.92 381.94 106.73 466.13 10.99 474.9 21.06 400.05 106.92"/><polygon class="cls-5" points="-264.96 901.34 -264.96 878.32 137.78 417.24 147.71 429.03 -264.96 901.34"/><polygon class="cls-8" points="-99.09 895.8 -99.09 872.06 214.66 508.59 224.59 520.39 -99.09 895.8"/><polygon class="cls-8" points="105.92 838.32 86.41 838.21 302.58 589.07 312.03 601.4 105.92 838.32"/><polygon class="cls-4" points="216.07 812.33 206.21 800.52 336.31 652.93 346.16 664.85 216.07 812.33"/><polygon class="cls-6" points="236.1 836.18 226.2 824.45 373.35 652.93 384.39 663.15 236.1 836.18"/><polygon class="cls-8" points="314.35 840.28 294.36 840.38 394.46 722.15 404.25 733.88 314.35 840.28"/><polygon class="cls-6" points="484.26 10.5 475.25 0.19 478.81 -3.52 496.53 -3.52 484.26 10.5"/><polygon class="cls-6" points="554.76 91.2 545.25 80.31 618.27 -3.52 635.94 -3.52 554.76 91.2"/><polygon class="cls-4" points="415.76 110.42 432.35 114.72 439.54 106.43 429.53 94.42 415.76 110.42"/><polygon class="cls-4" points="513.71 -3.52 439.68 82.63 449.58 94.64 533.64 -3.52 513.71 -3.52"/><polygon class="cls-5" points="581.08 181.74 570.94 170.13 721.32 -3.52 741.5 -3.52 581.08 181.74"/><polygon class="cls-6" points="528.44 121.62 518.93 110.73 535.9 91.2 545.13 102.16 528.44 121.62"/><polygon class="cls-8" points="397.6 33.21 387.3 44.54 347.92 -3.52 366.85 -3.52 397.6 33.21"/><polygon class="cls-5" points="184.57 385.71 252.63 305.37 235 305.78 175.17 374.64 184.57 385.71"/><polygon class="cls-5" points="174.64 397.44 157.3 417.91 147.59 406.39 165.36 386.53 174.64 397.44"/><polygon class="cls-8" points="211.1 223.77 200.94 235.4 171.21 199.88 181.29 188.16 211.1 223.77"/><polygon class="cls-5" points="184.24 385.18 252.36 304.76 234.72 305.17 174.84 374.1 184.24 385.18"/><polygon class="cls-5" points="174.3 396.91 156.95 417.4 147.23 405.87 165.01 385.99 174.3 396.91"/><polygon class="cls-7" points="-28.15 521.57 -37.47 532.27 154.31 760.07 163.46 749.36 -28.15 521.57"/><polygon class="cls-4" points="-327.79 259.28 123.71 795.48 132.86 784.77 -327.07 238.07 -327.79 259.28"/><polygon class="cls-6" points="-28.92 814.41 -38.13 825.1 -5.37 863.99 3.79 853.28 -28.92 814.41"/><polygon class="cls-7" points="173.11 760.91 163.97 771.57 219.78 838.21 237.78 838.18 173.11 760.91"/><polygon class="cls-5" points="51.15 314.3 -111 494.9 -100.86 506.96 61.18 326.22 51.15 314.3"/><polygon class="cls-4" points="53.06 173.63 -62.28 301.93 -52.18 314.04 63.09 185.56 53.06 173.63"/><polygon class="cls-5" points="69.31 -21.84 -138.75 210.23 -128.63 222.36 79.34 -9.92 69.31 -21.84"/><polygon class="cls-7" points="14.85 666.19 -41.97 729.57 -31.73 741.73 25.05 678.31 14.85 666.19"/><polygon class="cls-8" points="208.06 335.86 197.93 347.51 -82.97 13.42 -72.63 2.04 208.06 335.86"/><polygon class="cls-5" points="70.66 315.19 347.92 -3.52 328.47 -3.52 60.56 303.39 70.66 315.19"/><polygon class="cls-7" points="293.9 129 182.79 -3.4 202.61 -3.52 304.06 117.37 293.9 129"/><polygon class="cls-5" points="255.46 204.22 243.82 214.09 200.84 162.74 211.1 151.23 255.46 204.22"/></g></g></g><g id="Right_Weaved_Clipped_" data-name="Right Weaved (Clipped)"><g class="cls-16"><g id="Right_Weave" data-name="Right Weave"><polygon class="cls-7" points="1095.52 229.93 567.39 857.71 587.25 857.9 1105.45 241.32 1095.52 229.93"/><polygon class="cls-8" points="658.05 455.04 894.03 733.12 884.06 744.23 648.87 465.76 658.05 455.04"/><polygon class="cls-4" points="991.54 112.87 1000.5 124.58 690.46 493 680.45 481.28 991.54 112.87"/><polygon class="cls-4" points="839.92 293.13 848.88 304.84 390.1 848.22 369.83 848.7 839.92 293.13"/><polygon class="cls-6" points="641.38 595.43 650.34 607.13 418.94 881.39 405.58 873.72 641.38 595.43"/><polygon class="cls-5" points="843.67 438.13 851.66 451.04 495.94 873.43 476.63 872.71 843.67 438.13"/><polygon class="cls-8" points="1126.13 767.88 1136.62 756.06 453.35 -24.88 434.44 -24.88 1126.13 767.88"/><polygon class="cls-8" points="1091.6 483.77 1104.49 474.82 667.9 -24.88 648.84 -24.88 1091.6 483.77"/><polygon class="cls-4" points="1489.54 871.77 1489.63 848.09 1036.87 322.56 1026.89 334.42 1489.54 871.77"/><polygon class="cls-6" points="1524.62 -33.5 1524.53 -11.35 806.97 838.53 787.79 838.56 1524.62 -33.5"/><polygon class="cls-6" points="1681.67 -17.85 1690.22 -6.37 1217.77 556.7 1208.17 545.43 1681.67 -17.85"/><polygon class="cls-8" points="1477.12 411.69 1486.2 422.52 1307.32 637.04 1297.72 625.77 1477.12 411.69"/><polygon class="cls-8" points="1707.18 219.51 1715.73 231 1333.15 691.16 1323.55 679.88 1707.18 219.51"/><polygon class="cls-4" points="1784.19 296.53 1792.74 308.01 1410.16 768.17 1400.56 756.89 1784.19 296.53"/><polygon class="cls-8" points="1431.42 168 1439.97 179.49 1310.82 334.36 1301.22 323.08 1431.42 168"/><polygon class="cls-7" points="1262.09 607.21 1271.23 618.44 1036.82 896.99 1027.22 885.72 1262.09 607.21"/><polygon class="cls-4" points="1047.66 677.94 1056.92 689.24 905.26 869.47 895.66 858.19 1047.66 677.94"/><polygon class="cls-5" points="1157.11 302.54 1166.25 313.77 1066.95 431.98 1057.28 420.79 1157.11 302.54"/><polygon class="cls-7" points="1704.19 950.63 1704.19 926.99 869.21 -29.26 849.76 -29.26 1704.19 950.63"/><polygon class="cls-5" points="1262.4 276.84 1426.61 471.96 1435.7 461.11 1271.41 266.18 1262.4 276.84"/><polygon class="cls-4" points="1322.79 227.59 1398.96 318.46 1407.98 307.73 1331.79 216.94 1322.79 227.59"/><polygon class="cls-8" points="1267.67 -23.07 1477.26 225.32 1486.4 214.45 1276.87 -33.5 1267.67 -23.07"/><polygon class="cls-5" points="1332.19 -86.86 1450.87 53.79 1459.96 43.02 1341.39 -97.3 1332.19 -86.86"/><polygon class="cls-7" points="1105.27 240.95 1095.76 230.06 1299.55 -6.49 1318.45 -8.26 1105.27 240.95"/><polygon class="cls-5" points="1289.05 245.31 1298.37 234.28 1064.84 -41.4 1055.64 -30.96 1289.05 245.31"/><polygon class="cls-6" points="1120.89 200.9 1130.14 189.78 896.62 -85.89 887.42 -75.45 1120.89 200.9"/><polygon class="cls-6" points="769.86 398.49 759.78 410.42 853.19 518.08 863.5 505.87 769.86 398.49"/><polygon class="cls-6" points="401.61 -23.85 382.98 -23.85 749.82 398.94 759.97 387.14 401.61 -23.85"/><polygon class="cls-4" points="905.4 237.58 879.87 267.93 869.48 257.43 902.05 218.85 905.4 237.58"/><polygon class="cls-7" points="869.56 499.74 899.18 464 909.02 474.82 876.87 513.89 869.56 499.74"/><polygon class="cls-4" points="1107.76 -24.88 1127.21 -24.88 978.98 150.16 972.99 134.72 1107.76 -24.88"/><polygon class="cls-5" points="969.25 909.21 610.73 481.01 620.55 469.27 989.13 909.21 969.25 909.21"/><polygon class="cls-7" points="848.55 204.55 726.96 349.03 737.27 360.67 858.42 215.89 848.55 204.55"/><polygon class="cls-5" points="687.29 242.88 905.65 -27.03 894.12 -37.02 677.1 231.22 687.29 242.88"/><polygon class="cls-7" points="898.74 884.78 878.49 884.72 568.65 532.08 580.2 522.1 898.74 884.78"/><polygon class="cls-5" points="495.11 768.05 485.12 779.88 425.32 708.49 435.31 696.67 495.11 768.05"/><polygon class="cls-8" points="536.53 599.67 526.46 611.39 748.67 877.77 758.59 865.96 536.53 599.67"/><polygon class="cls-8" points="1067.52 197.84 1077.19 209.03 1167.31 101.21 1157.87 90.03 1067.52 197.84"/><polygon class="cls-8" points="1249.65 -19.48 1166.97 79.17 1176.41 90.31 1258.8 -8.26 1249.65 -19.48"/><polygon class="cls-5" points="949.48 668.81 1079.76 823.54 1088.85 812.77 958.5 658.18 949.48 668.81"/></g></g></g><g id="Overlay_Weave_Type_" data-name="Overlay Weave (Type)"><polygon class="cls-5" points="409.92 267.55 368.55 314.47 378.49 326.25 419.88 279.18 409.92 267.55"/><polygon class="cls-7" points="396.77 251.67 405.5 241.56 406.84 240.01 461.97 305.27 440.05 305.09 396.77 251.67"/><polygon class="cls-4" points="495.56 219.64 568.65 305.79 588.69 305.17 510.57 213.51 495.56 219.64"/><polygon class="cls-6" points="191.22 393.4 294.06 273.69 304 285.46 201.41 405.39 191.22 393.4"/><path class="cls-5" d="M536.8,405.09l-93,107.6c2,2.18.59,12.73,2.68,13.66,2.94,1.31,7.79-6.05,10.88-6.05,17.21-19.7,77-89.35,94.26-109l-5-6.16Z"/><polygon class="cls-4" points="622.43 443.78 568.65 505.87 588.89 505.87 632.86 454.89 622.43 443.78"/><path class="cls-6" d="M393.24,463.22a24.56,24.56,0,0,1-1.54,8.91,19.71,19.71,0,0,1-4.73,7.46L334.21,417l10.16-11.62Z"/><path class="cls-4" d="M297.79,459.1l46.58-53.71-20.1-.3-46.72,54Z"/><path class="cls-8" d="M393.91,385.1a19,19,0,0,1-6.53-3.77,22.87,22.87,0,0,1-5.54-6.82l59.89-69.19,9.87,11.91Z"/><path class="cls-6" d="M462,305.27l8,9.28,86.11,102,10.06-11.81c-20-23.72-63.39-75.71-83.41-99.43Z"/><polygon class="cls-4" points="333.72 354.7 322.27 354.7 322.27 345.03 356.59 305.27 376.45 305.32 333.72 354.7"/><polygon class="cls-8" points="485.75 637.04 475.99 625.54 514.5 580.04 526.73 588.34 485.75 637.04"/><polygon class="cls-4" points="268.47 243.06 278.63 255.01 250.54 287.09 244.4 287.19 244.51 270.74 268.47 243.06"/><polygon class="cls-5" points="677.87 254.52 613.7 333.84 603.59 322.09 667.67 242.88 677.87 254.52"/><polygon class="cls-5" points="564.48 370.32 574.59 382.07 561.22 398.87 551.13 386.93 564.48 370.32"/></g></svg>