<svg xmlns="http://www.w3.org/2000/svg" width="98.05" height="96.51" viewBox="0 0 98.05 96.51"><defs><style>.cls-1{font-size:13px;font-family:Futura-Bold, Futura;font-weight:700;}.cls-1,.cls-8{fill:#1b0268;}.cls-2{letter-spacing:-0.01em;}.cls-3{letter-spacing:-0.03em;}.cls-4{letter-spacing:0.03em;}.cls-5{letter-spacing:-0.01em;}.cls-6{letter-spacing:-0.03em;}.cls-7{fill:none;}.cls-9{fill:#8d80b3;}</style></defs><g id="Layer_2" data-name="Layer 2"><g id="Marketplace"><g id="Back_To_Featured_SEs_Button" data-name="Back To Featured SEs Button"><g id="Back_Button" data-name="Back Button"><g id="Back_Button-2" data-name="Back Button"><text class="cls-1" transform="translate(0 79.04)"><tspan class="cls-2">B</tspan><tspan class="cls-3" x="8.85" y="0">A</tspan><tspan class="cls-4" x="18.92" y="0">C</tspan><tspan x="28" y="0">K </tspan><tspan class="cls-5" x="42.72" y="0">T</tspan><tspan x="49.57" y="0">O </tspan><tspan x="0" y="13">FE</tspan><tspan class="cls-6" x="14.55" y="13">A</tspan><tspan x="24.54" y="13">TURED SEs</tspan></text></g><polygon class="cls-7" points="23.46 43.15 9.25 26.61 9.25 26.61 23.46 43.15"/><polygon class="cls-8" points="28.68 49.21 23.46 43.15 28.68 49.21 28.68 49.21"/><polygon class="cls-9" points="28.68 3.9 24.12 0 5.29 22.01 9.25 26.61 28.68 3.9"/><polygon class="cls-8" points="23.46 43.15 9.25 26.61 9.25 26.61 5.29 22.01 1.35 26.62 24.13 53.12 28.68 49.21 23.46 43.15"/></g></g></g></g></svg>