<svg xmlns="http://www.w3.org/2000/svg" width="98.05" height="109.51" viewBox="0 0 98.05 109.51"><defs><style>.cls-1{font-size:13px;font-family:Futura-Bold, Futura;font-weight:700;}.cls-1,.cls-7{fill:#1b0268;}.cls-2{letter-spacing:0.04em;}.cls-3{letter-spacing:-0.02em;}.cls-4{letter-spacing:0em;}.cls-5{letter-spacing:0em;}.cls-6{fill:none;}.cls-8{fill:#8d80b3;}</style></defs><g id="Layer_2" data-name="Layer 2"><g id="B2B_Experience" data-name="B2B Experience"><g id="Network_with_B2B_Button" data-name="Network with B2B Button"><g id="Back_Button" data-name="Back Button"><g id="Back_Button-2" data-name="Back Button"><text class="cls-1" transform="translate(0 79.04)">NE<tspan class="cls-2" x="19.25" y="0">T</tspan><tspan class="cls-3" x="26.74" y="0">W</tspan><tspan x="41.43" y="0">ORK</tspan><tspan x="0" y="13">WITH </tspan><tspan x="0" y="26">B2B GUE</tspan><tspan class="cls-4" x="60.7" y="26">S</tspan><tspan class="cls-5" x="69.16" y="26">T</tspan><tspan x="76.12" y="26">S</tspan></text></g><polygon class="cls-6" points="6.56 43.15 20.77 26.61 20.77 26.61 6.56 43.15"/><polygon class="cls-7" points="1.35 49.21 6.56 43.15 1.35 49.21 1.35 49.21"/><polygon class="cls-8" points="1.35 3.9 5.91 0 24.73 22.01 20.77 26.61 1.35 3.9"/><polygon class="cls-7" points="6.56 43.15 20.77 26.61 20.77 26.61 24.73 22.01 28.68 26.62 5.9 53.12 1.35 49.21 6.56 43.15"/></g></g></g></g></svg>