<?xml version="1.0" encoding="utf-8"?>
<!-- Generator: Adobe Illustrator 16.0.0, SVG Export Plug-In . SVG Version: 6.00 Build 0)  -->
<!DOCTYPE svg PUBLIC "-//W3C//DTD SVG 1.1//EN" "http://www.w3.org/Graphics/SVG/1.1/DTD/svg11.dtd">
<svg version="1.1" id="Layer_2" xmlns="http://www.w3.org/2000/svg" xmlns:xlink="http://www.w3.org/1999/xlink" x="0px" y="0px"
	 width="98.05px" height="109.51px" viewBox="0 0 98.05 109.51" enable-background="new 0 0 98.05 109.51" xml:space="preserve">
<polygon fill="#8F80B7" points="1.35,3.948 5.909,0.049 24.734,22.056 20.777,26.66 "/>
<polygon fill="#1F006D" points="6.564,43.197 20.776,26.66 24.734,22.056 28.681,26.671 5.904,53.171 1.354,49.26 "/>
<g>
	<path fill="#1F006D" d="M1.961,72.589v-8.578h1.904l3.797,4.992c0.109,0.141,0.229,0.339,0.36,0.595s0.267,0.558,0.407,0.905
		c-0.043-0.254-0.074-0.506-0.094-0.756s-0.029-0.563-0.029-0.938v-4.799h1.752v8.578H8.26l-3.902-5.086
		C4.248,67.362,4.129,67.164,4,66.908s-0.266-0.562-0.41-0.917c0.043,0.246,0.074,0.495,0.094,0.747s0.029,0.569,0.029,0.952v4.898
		H1.961z"/>
	<path fill="#1F006D" d="M11.969,72.589v-8.578h5.051v1.547h-3.217v1.764h3.217v1.559h-3.217v2.15h3.217v1.559H11.969z"/>
	<path fill="#1F006D" d="M22.023,65.569v7.02h-1.84v-7.02h-2.098v-1.559h6.035v1.559H22.023z"/>
	<path fill="#1F006D" d="M31.287,64.011l1.271,4.652c0.082,0.297,0.158,0.615,0.229,0.955s0.137,0.721,0.199,1.143
		c0.008-0.355,0.034-0.706,0.079-1.052s0.112-0.694,0.202-1.046l1.113-4.652h1.811l-2.244,8.578h-1.764l-1.535-5.473
		c-0.074-0.25-0.133-0.502-0.176-0.756s-0.072-0.518-0.088-0.791c-0.02,0.289-0.05,0.563-0.091,0.82s-0.095,0.5-0.161,0.727
		l-1.547,5.473h-1.764l-2.244-8.578h1.834l1.131,4.764c0.063,0.273,0.113,0.569,0.152,0.888s0.068,0.665,0.088,1.04
		c0.074-0.496,0.211-1.125,0.41-1.887l0.029-0.123l1.26-4.682H31.287z"/>
	<path fill="#1F006D" d="M46.164,68.317c0,0.613-0.113,1.193-0.342,1.74s-0.559,1.027-0.988,1.441
		c-0.445,0.426-0.947,0.752-1.506,0.979s-1.136,0.34-1.734,0.34c-0.523,0-1.036-0.089-1.538-0.267s-0.962-0.433-1.38-0.765
		c-0.539-0.43-0.952-0.943-1.239-1.541s-0.431-1.24-0.431-1.928c0-0.617,0.113-1.196,0.34-1.737s0.559-1.022,0.996-1.444
		c0.43-0.418,0.929-0.742,1.497-0.973s1.153-0.346,1.755-0.346c0.598,0,1.179,0.115,1.744,0.346s1.063,0.555,1.496,0.973
		c0.434,0.422,0.764,0.904,0.99,1.447S46.164,67.704,46.164,68.317z M41.594,71.183c0.777,0,1.419-0.272,1.925-0.817
		s0.758-1.228,0.758-2.048c0-0.813-0.256-1.496-0.768-2.051s-1.15-0.832-1.916-0.832c-0.777,0-1.422,0.276-1.934,0.829
		s-0.768,1.237-0.768,2.054c0,0.828,0.252,1.513,0.756,2.054S40.801,71.183,41.594,71.183z"/>
	<path fill="#1F006D" d="M53.916,72.589H51.8l-2.256-4.008v4.008H47.71v-8.578h2.625c1.043,0,1.824,0.202,2.344,0.606
		s0.779,1.013,0.779,1.825c0,0.59-0.178,1.094-0.533,1.512s-0.814,0.662-1.377,0.732L53.916,72.589z M49.544,67.667h0.275
		c0.742,0,1.232-0.081,1.471-0.243s0.357-0.444,0.357-0.847c0-0.422-0.128-0.722-0.384-0.899s-0.737-0.267-1.444-0.267h-0.275
		V67.667z"/>
	<path fill="#1F006D" d="M54.982,72.589v-8.578h1.834v3.885l2.859-3.885h2.121l-3.07,3.908l3.182,4.67h-2.209l-2.883-4.488v4.488
		H54.982z"/>
</g>
<g>
	<path fill="#1F006D" d="M7.962,78.677l1.271,4.652c0.082,0.297,0.158,0.615,0.229,0.955s0.137,0.721,0.199,1.143
		c0.008-0.355,0.034-0.706,0.079-1.052s0.112-0.694,0.202-1.046l1.113-4.652h1.811l-2.244,8.578H8.858l-1.535-5.473
		c-0.074-0.25-0.133-0.502-0.176-0.756s-0.072-0.518-0.088-0.791c-0.02,0.289-0.05,0.563-0.091,0.82s-0.095,0.5-0.161,0.727
		l-1.547,5.473H3.497l-2.244-8.578h1.834l1.131,4.764c0.063,0.273,0.113,0.569,0.152,0.888s0.068,0.665,0.088,1.04
		c0.074-0.496,0.211-1.125,0.41-1.887l0.029-0.123l1.26-4.682H7.962z"/>
	<path fill="#1F006D" d="M14.091,87.255v-8.578h1.834v8.578H14.091z"/>
	<path fill="#1F006D" d="M21.087,80.235v7.02h-1.84v-7.02h-2.098v-1.559h6.035v1.559H21.087z"/>
	<path fill="#1F006D" d="M24.386,87.255v-8.578h1.834v3.439h3.721v-3.439h1.834v8.578H29.94v-3.586H26.22v3.586H24.386z"/>
</g>
<g>
	<path fill="#1F006D" d="M1.961,101.51v-8.578h1.605c0.832,0,1.44,0.032,1.825,0.097s0.718,0.171,0.999,0.319
		c0.332,0.191,0.589,0.443,0.771,0.756s0.272,0.666,0.272,1.061c0,0.508-0.15,0.915-0.451,1.222s-0.75,0.511-1.348,0.612
		c0.691,0.102,1.214,0.326,1.567,0.674s0.53,0.811,0.53,1.389c0,0.422-0.102,0.808-0.305,1.157s-0.482,0.62-0.838,0.812
		c-0.316,0.172-0.688,0.295-1.113,0.369s-1.131,0.111-2.115,0.111H3.174H1.961z M3.795,96.359h0.41c0.555,0,0.947-0.078,1.178-0.234
		s0.346-0.418,0.346-0.785c0-0.359-0.11-0.615-0.331-0.768s-0.606-0.229-1.157-0.229H3.795V96.359z M3.795,100.08h0.721
		c0.461,0,0.811-0.101,1.049-0.302s0.357-0.495,0.357-0.882c0-0.363-0.118-0.641-0.354-0.832s-0.579-0.287-1.028-0.287H3.795V100.08
		z"/>
	<path fill="#1F006D" d="M14.576,100.092v1.418H8.635l3.047-3.996c0.422-0.551,0.716-0.984,0.882-1.301s0.249-0.596,0.249-0.838
		c0-0.336-0.101-0.6-0.302-0.791s-0.478-0.287-0.829-0.287c-0.328,0-0.59,0.12-0.785,0.36s-0.293,0.563-0.293,0.97v0.041H8.875
		v-0.146c0-0.852,0.244-1.511,0.732-1.978s1.18-0.7,2.074-0.7c0.914,0,1.625,0.209,2.133,0.627s0.762,1.002,0.762,1.752
		c0,0.844-0.66,2.09-1.98,3.738l-0.123,0.146l-0.791,0.984H14.576z"/>
	<path fill="#1F006D" d="M16.48,101.51v-8.578h1.605c0.832,0,1.44,0.032,1.825,0.097s0.718,0.171,0.999,0.319
		c0.332,0.191,0.589,0.443,0.771,0.756s0.272,0.666,0.272,1.061c0,0.508-0.15,0.915-0.451,1.222s-0.75,0.511-1.348,0.612
		c0.691,0.102,1.214,0.326,1.567,0.674s0.53,0.811,0.53,1.389c0,0.422-0.102,0.808-0.305,1.157s-0.482,0.62-0.838,0.812
		c-0.316,0.172-0.688,0.295-1.113,0.369s-1.131,0.111-2.115,0.111h-0.188H16.48z M18.314,96.359h0.41
		c0.555,0,0.947-0.078,1.178-0.234s0.346-0.418,0.346-0.785c0-0.359-0.11-0.615-0.331-0.768s-0.606-0.229-1.157-0.229h-0.445V96.359
		z M18.314,100.08h0.721c0.461,0,0.811-0.101,1.049-0.302s0.357-0.495,0.357-0.882c0-0.363-0.118-0.641-0.354-0.832
		s-0.579-0.287-1.028-0.287h-0.744V100.08z"/>
	<path fill="#1F006D" d="M31.592,96.986H35.5c0.008,0.051,0.013,0.105,0.015,0.164s0.003,0.148,0.003,0.27
		c0,1.285-0.367,2.326-1.102,3.123s-1.684,1.195-2.848,1.195c-1.332,0-2.43-0.425-3.293-1.274s-1.295-1.929-1.295-3.237
		c0-1.297,0.434-2.369,1.301-3.217s1.963-1.271,3.287-1.271c0.699,0,1.34,0.146,1.922,0.439s1.102,0.73,1.559,1.313l-1.236,0.914
		c-0.309-0.383-0.633-0.659-0.973-0.829s-0.732-0.255-1.178-0.255c-0.848,0-1.525,0.264-2.033,0.791s-0.762,1.232-0.762,2.115
		c0,0.867,0.255,1.567,0.765,2.101s1.175,0.8,1.995,0.8c0.602,0,1.09-0.142,1.465-0.425s0.563-0.653,0.563-1.11v-0.094h-2.063
		V96.986z"/>
	<path fill="#1F006D" d="M44.348,92.932v5.338c0,1.164-0.307,2.033-0.92,2.607s-1.537,0.861-2.771,0.861
		c-1.254,0-2.188-0.287-2.801-0.861s-0.92-1.443-0.92-2.607v-5.338h1.822v5.051c0,0.707,0.156,1.239,0.469,1.597
		s0.779,0.536,1.4,0.536c0.625,0,1.098-0.18,1.418-0.539s0.48-0.891,0.48-1.594v-5.051H44.348z"/>
	<path fill="#1F006D" d="M46.247,101.51v-8.578h5.051v1.547h-3.217v1.764h3.217v1.559h-3.217v2.15h3.217v1.559H46.247z"/>
	<path fill="#1F006D" d="M52.545,100.42l1.02-1.154c0.129,0.316,0.336,0.565,0.621,0.747s0.605,0.272,0.961,0.272
		c0.43,0,0.77-0.102,1.02-0.305s0.375-0.477,0.375-0.82c0-0.406-0.416-0.811-1.248-1.213c-0.27-0.129-0.482-0.234-0.639-0.316
		c-0.75-0.391-1.27-0.772-1.559-1.146s-0.434-0.817-0.434-1.333c0-0.707,0.28-1.288,0.841-1.743s1.288-0.683,2.183-0.683
		c0.52,0,0.968,0.091,1.345,0.272s0.71,0.466,0.999,0.853l-1.084,1.037c-0.129-0.25-0.3-0.437-0.513-0.56s-0.47-0.185-0.771-0.185
		c-0.363,0-0.656,0.091-0.879,0.272s-0.334,0.417-0.334,0.706c0,0.453,0.441,0.867,1.324,1.242c0.176,0.074,0.311,0.133,0.404,0.176
		c0.727,0.332,1.265,0.707,1.614,1.125s0.524,0.895,0.524,1.43c0,0.805-0.274,1.446-0.823,1.925s-1.286,0.718-2.212,0.718
		c-0.656,0-1.219-0.113-1.688-0.34S52.776,100.846,52.545,100.42z"/>
	<path fill="#1F006D" d="M63.022,94.49v7.02h-1.84v-7.02h-2.098v-1.559h6.035v1.559H63.022z"/>
</g>
</svg>
