<?xml version="1.0" encoding="utf-8"?>
<!-- Generator: Adobe Illustrator 16.0.0, SVG Export Plug-In . SVG Version: 6.00 Build 0)  -->
<!DOCTYPE svg PUBLIC "-//W3C//DTD SVG 1.1//EN" "http://www.w3.org/Graphics/SVG/1.1/DTD/svg11.dtd">
<svg version="1.1" id="Layer_1" xmlns="http://www.w3.org/2000/svg" xmlns:xlink="http://www.w3.org/1999/xlink" x="0px" y="0px"
	 width="56.236px" height="53.122px" viewBox="0 0 56.236 53.122" enable-background="new 0 0 56.236 53.122" xml:space="preserve">
<g>
	<path fill="#1F006D" d="M21.283,30.876v-9.293h1.739c0.901,0,1.561,0.035,1.978,0.104c0.417,0.07,0.777,0.186,1.082,0.347
		c0.36,0.207,0.638,0.479,0.835,0.818c0.196,0.339,0.295,0.722,0.295,1.148c0,0.551-0.163,0.992-0.489,1.324
		s-0.813,0.553-1.46,0.663c0.749,0.11,1.315,0.354,1.698,0.729c0.383,0.377,0.575,0.879,0.575,1.505c0,0.457-0.11,0.875-0.33,1.254
		s-0.522,0.672-0.908,0.879c-0.343,0.187-0.745,0.319-1.206,0.399c-0.461,0.081-1.225,0.121-2.292,0.121h-0.203H21.283z
		 M23.27,25.296h0.444c0.601,0,1.026-0.084,1.276-0.254c0.25-0.169,0.375-0.452,0.375-0.85c0-0.39-0.12-0.667-0.359-0.832
		c-0.239-0.165-0.657-0.248-1.253-0.248H23.27V25.296z M23.27,29.327h0.781c0.5,0,0.878-0.109,1.136-0.327s0.387-0.536,0.387-0.955
		c0-0.394-0.128-0.694-0.384-0.901c-0.256-0.207-0.627-0.311-1.114-0.311H23.27V29.327z"/>
	<path fill="#1F006D" d="M27.812,30.876l3.536-9.293h2.272l3.587,9.293h-2.26l-0.756-1.975h-3.6l-0.646,1.975H27.812z
		 M33.728,27.341l-1.041-3.003c-0.03-0.089-0.068-0.241-0.115-0.457c-0.046-0.216-0.095-0.48-0.146-0.794
		c-0.056,0.301-0.108,0.57-0.159,0.81s-0.088,0.399-0.113,0.479l-1.004,2.965H33.728z"/>
	<path fill="#1F006D" d="M45.316,24.001c-0.401-0.359-0.814-0.623-1.237-0.79s-0.876-0.251-1.358-0.251
		c-0.99,0-1.779,0.297-2.367,0.889c-0.589,0.593-0.883,1.389-0.883,2.387c0,0.979,0.273,1.754,0.818,2.327
		c0.547,0.573,1.291,0.86,2.234,0.86c0.538,0,1.037-0.091,1.498-0.271c0.462-0.18,0.889-0.449,1.283-0.81l-0.014,2.038
		c-0.423,0.25-0.866,0.436-1.329,0.559c-0.464,0.123-0.951,0.185-1.464,0.185c-1.48,0-2.696-0.461-3.646-1.381
		c-0.949-0.921-1.425-2.09-1.425-3.508c0-1.413,0.476-2.579,1.429-3.497c0.951-0.918,2.179-1.378,3.682-1.378
		c0.503,0,0.99,0.054,1.459,0.159c0.471,0.105,0.934,0.269,1.391,0.489L45.316,24.001z"/>
	<path fill="#1F006D" d="M47.58,30.876v-9.293h1.986v4.209l3.098-4.209h2.299l-3.326,4.234l3.446,5.059h-2.394l-3.123-4.862v4.862
		H47.58z"/>
</g>
<polygon fill="#8F80B7" points="27.331,3.899 22.772,0 3.947,22.007 7.904,26.612 "/>
<polygon fill="#1F006D" points="22.117,43.148 7.904,26.612 3.947,22.007 0,26.622 22.776,53.122 27.327,49.211 "/>
</svg>
