<?xml version="1.0" encoding="utf-8"?>
<!-- Generator: Adobe Illustrator 16.0.0, SVG Export Plug-In . SVG Version: 6.00 Build 0)  -->
<!DOCTYPE svg PUBLIC "-//W3C//DTD SVG 1.1//EN" "http://www.w3.org/Graphics/SVG/1.1/DTD/svg11.dtd">
<svg version="1.1" id="Layer_1" xmlns="http://www.w3.org/2000/svg" xmlns:xlink="http://www.w3.org/1999/xlink" x="0px" y="0px"
	 width="134.157px" height="136.182px" viewBox="0 0 134.157 136.182" enable-background="new 0 0 134.157 136.182"
	 xml:space="preserve">
<rect fill="#ACDD5E" width="134.157" height="136.182"/>
<path fill="#7AB400" d="M41.529,126.953c0-14.11,11.439-25.551,25.55-25.551s25.55,11.44,25.55,25.551"/>
<path fill="#FFFFFF" d="M79.676,93.227c0,6.957-5.64,12.597-12.597,12.597c-6.958,0-12.598-5.64-12.598-12.597
	c0-6.958,5.64-12.599,12.598-12.599C74.036,80.628,79.676,86.269,79.676,93.227"/>
<polyline fill="#7AB400" points="75.247,74.954 82.239,83.502 88.92,74.954 "/>
<rect x="36.078" y="9.364" fill="#7AB400" width="62.763" height="67.512"/>
<g>
	<path fill="#FFFFFF" d="M54.131,21.4c-0.583-0.522-1.182-0.904-1.796-1.146c-0.613-0.242-1.271-0.364-1.971-0.364
		c-1.436,0-2.581,0.43-3.434,1.289c-0.854,0.859-1.28,2.014-1.28,3.463c0,1.418,0.396,2.543,1.188,3.374
		c0.792,0.832,1.872,1.248,3.241,1.248c0.779,0,1.504-0.131,2.173-0.392s1.289-0.652,1.86-1.174l-0.019,2.956
		c-0.614,0.362-1.257,0.632-1.929,0.81c-0.673,0.179-1.38,0.268-2.123,0.268c-2.148,0-3.911-0.668-5.289-2.003
		c-1.379-1.335-2.067-3.031-2.067-5.087c0-2.051,0.69-3.742,2.071-5.074c1.382-1.332,3.161-1.998,5.341-1.998
		c0.73,0,1.437,0.077,2.118,0.23c0.681,0.153,1.354,0.39,2.017,0.709L54.131,21.4z"/>
	<path fill="#FFFFFF" d="M57.413,31.372v-13.48h2.883v5.405h5.847v-5.405h2.882v13.48h-2.882v-5.635h-5.847v5.635H57.413z"/>
	<path fill="#FFFFFF" d="M70.425,31.372l5.129-13.48h3.296l5.202,13.48h-3.277l-1.096-2.863h-5.221l-0.939,2.863H70.425z
		 M79.006,26.243l-1.51-4.355c-0.043-0.129-0.099-0.35-0.166-0.662c-0.067-0.313-0.138-0.697-0.212-1.151
		c-0.079,0.436-0.156,0.827-0.229,1.174c-0.074,0.347-0.129,0.579-0.166,0.695l-1.455,4.3H79.006z"/>
	<path fill="#FFFFFF" d="M89.903,20.341v11.031h-2.892V20.341h-3.296v-2.449h9.483v2.449H89.903z"/>
</g>
<g>
	<path fill="#FFFFFF" d="M53.657,36.749l1.998,7.312c0.129,0.467,0.248,0.967,0.359,1.501c0.11,0.533,0.214,1.132,0.313,1.795
		c0.013-0.559,0.054-1.109,0.124-1.652c0.071-0.544,0.177-1.092,0.318-1.644l1.749-7.312h2.846l-3.527,13.48h-2.771l-2.412-8.6
		c-0.116-0.394-0.209-0.789-0.276-1.188c-0.067-0.398-0.113-0.813-0.138-1.243c-0.031,0.455-0.078,0.885-0.143,1.289
		c-0.064,0.405-0.149,0.786-0.254,1.143l-2.431,8.6H46.64l-3.526-13.48h2.882l1.777,7.486c0.098,0.43,0.178,0.895,0.239,1.395
		c0.062,0.501,0.107,1.046,0.138,1.635c0.117-0.779,0.332-1.768,0.645-2.965l0.047-0.193l1.979-7.357H53.657z"/>
	<path fill="#FFFFFF" d="M63.287,50.229v-13.48h2.883v13.48H63.287z"/>
	<path fill="#FFFFFF" d="M74.281,39.198v11.031h-2.891V39.198h-3.297v-2.449h9.484v2.449H74.281z"/>
	<path fill="#FFFFFF" d="M79.465,50.229v-13.48h2.883v5.405h5.848v-5.405h2.881v13.48h-2.881v-5.635h-5.848v5.635H79.465z"/>
</g>
<g>
	<path fill="#FFFFFF" d="M71.101,55.606v8.389c0,1.829-0.481,3.195-1.445,4.098s-2.416,1.354-4.355,1.354
		c-1.971,0-3.438-0.451-4.401-1.354s-1.445-2.269-1.445-4.098v-8.389h2.863v7.938c0,1.111,0.245,1.947,0.736,2.509
		s1.225,0.843,2.201,0.843c0.981,0,1.725-0.282,2.229-0.847c0.503-0.565,0.755-1.4,0.755-2.505v-7.938H71.101z"/>
	<path fill="#FFFFFF" d="M73.219,67.374l1.603-1.813c0.202,0.497,0.527,0.889,0.976,1.174s0.951,0.428,1.51,0.428
		c0.676,0,1.21-0.159,1.603-0.479s0.589-0.749,0.589-1.289c0-0.639-0.653-1.273-1.961-1.906c-0.424-0.202-0.758-0.368-1.004-0.497
		c-1.179-0.613-1.995-1.214-2.449-1.8s-0.681-1.284-0.681-2.095c0-1.111,0.44-2.024,1.321-2.739s2.023-1.073,3.43-1.073
		c0.816,0,1.521,0.143,2.113,0.429c0.592,0.285,1.115,0.731,1.569,1.34l-1.703,1.63c-0.202-0.394-0.471-0.687-0.806-0.88
		s-0.738-0.29-1.211-0.29c-0.57,0-1.031,0.143-1.381,0.428c-0.35,0.286-0.525,0.656-0.525,1.11c0,0.712,0.694,1.362,2.081,1.952
		c0.276,0.116,0.488,0.208,0.636,0.275c1.142,0.522,1.987,1.111,2.536,1.769c0.55,0.656,0.824,1.405,0.824,2.246
		c0,1.265-0.431,2.273-1.293,3.025c-0.863,0.752-2.021,1.128-3.477,1.128c-1.031,0-1.915-0.179-2.651-0.534
		C74.13,68.556,73.581,68.043,73.219,67.374z"/>
</g>
</svg>
