<svg xmlns="http://www.w3.org/2000/svg" xmlns:xlink="http://www.w3.org/1999/xlink" width="36.68" height="36.68" viewBox="0 0 36.68 36.68"><defs><style>.cls-1{fill:url(#linear-gradient);}.cls-2{fill:#fff;}</style><linearGradient id="linear-gradient" x1="204.19" y1="260.59" x2="204.94" y2="261.4" gradientTransform="translate(-10248.69 8667.98) rotate(-90) scale(42.28 39.34)" gradientUnits="userSpaceOnUse"><stop offset="0" stop-color="#fadc6d"/><stop offset="0.5" stop-color="#ec6049"/><stop offset="1" stop-color="#b846a5"/></linearGradient></defs><g id="Layer_2" data-name="Layer 2"><g id="wORKSHOP"><path class="cls-1" d="M2.39,2.55C-.48,5.53.11,8.7.11,18.34c0,8-1.4,16,5.91,17.9,2.28.59,22.49.59,24.77,0,3-.78,5.51-3.25,5.85-7.55,0-.6,0-20.09,0-20.71C36.28,3.4,33.46.76,29.74.23c-.85-.13-1-.16-5.39-.17-15.5,0-18.9-.68-22,2.49Z"/><path class="cls-2" d="M18.39,4.84C12.86,4.84,7.6,4.35,5.6,9.5c-.83,2.13-.71,4.89-.71,8.85,0,3.47-.11,6.73.71,8.84,2,5.15,7.29,4.66,12.79,4.66,5.29,0,10.76.55,12.79-4.66.83-2.15.71-4.87.71-8.84,0-5.28.29-8.69-2.27-11.24S23.53,4.84,18.38,4.84ZM17.18,7.28c11.54,0,13-1.31,12.2,16.52-.29,6.3-5.09,5.61-11,5.61-10.76,0-11.07-.31-11.07-11.07S8.18,7.28,17.18,7.27ZM25.6,9.52a1.62,1.62,0,1,0,1.62,1.62A1.61,1.61,0,0,0,25.6,9.52Zm-7.21,1.89a6.94,6.94,0,1,0,6.93,6.94,6.94,6.94,0,0,0-6.93-6.94Zm0,2.43c5.95,0,6,9,0,9S12.43,13.84,18.39,13.84Z"/></g></g></svg>