<svg xmlns="http://www.w3.org/2000/svg" width="35" height="35" viewBox="0 0 35 35"><defs><style>.cls-1{fill:#4868ac;}.cls-2{fill:#fff;}</style></defs><g id="Layer_2" data-name="Layer 2"><g id="wORKSHOP"><path class="cls-1" d="M33.07,0H1.93A1.93,1.93,0,0,0,0,1.93V33.07A1.93,1.93,0,0,0,1.93,35H33.07A1.93,1.93,0,0,0,35,33.07h0V1.93A1.93,1.93,0,0,0,33.07,0Z"/><path class="cls-2" d="M24.17,35V21.46h4.56l.68-5.29H24.17V12.79c0-1.53.42-2.57,2.61-2.57h2.79V5.49a39.71,39.71,0,0,0-4.08-.2c-4,0-6.79,2.46-6.79,7v3.9H14.15v5.29H18.7V35Z"/></g></g></svg>