<svg xmlns="http://www.w3.org/2000/svg" width="34.79" height="34.79" viewBox="0 0 34.79 34.79"><defs><style>.cls-1{fill:#2e77b1;}</style></defs><g id="Layer_2" data-name="Layer 2"><g id="wORKSHOP"><path class="cls-1" d="M31.64,0H3.15A3.15,3.15,0,0,0,0,3.15V31.64a3.15,3.15,0,0,0,3.15,3.15H31.64a3.15,3.15,0,0,0,3.15-3.15V3.15A3.15,3.15,0,0,0,31.64,0ZM10.76,30a.91.91,0,0,1-.91.91H6A.91.91,0,0,1,5,30V13.7A.92.92,0,0,1,6,12.78h3.9a.92.92,0,0,1,.91.92ZM7.9,11.24a3.71,3.71,0,1,1,3.7-3.7A3.7,3.7,0,0,1,7.9,11.24ZM31.14,30.11a.84.84,0,0,1-.84.84H26.11a.84.84,0,0,1-.84-.84V22.45c0-1.15.34-5-3-5-2.58,0-3.1,2.64-3.2,3.83v8.84a.84.84,0,0,1-.85.84h-4a.83.83,0,0,1-.84-.84V13.62a.84.84,0,0,1,.84-.84h4a.85.85,0,0,1,.85.84v1.43c1-1.44,2.37-2.54,5.4-2.54,6.7,0,6.66,6.25,6.66,9.69v7.91Z"/></g></g></svg>