<svg xmlns="http://www.w3.org/2000/svg" width="34.56" height="34.56" viewBox="0 0 34.56 34.56"><g id="Layer_2" data-name="Layer 2"><g id="wORKSHOP"><path d="M29.5,5.06a17.28,17.28,0,1,0,0,24.44A17.28,17.28,0,0,0,29.5,5.06Zm-.73,22a17,17,0,0,0-2.58-1.91,28.28,28.28,0,0,0,1-6.74h5.07A14.93,14.93,0,0,1,28.77,27ZM2.25,18.38H7.32a28.28,28.28,0,0,0,1,6.74A17,17,0,0,0,5.79,27,14.87,14.87,0,0,1,2.25,18.38ZM5.79,7.53A17,17,0,0,0,8.37,9.44a28.28,28.28,0,0,0-1,6.74H2.25A14.87,14.87,0,0,1,5.79,7.53ZM16.18,9.67a14.93,14.93,0,0,1-5.13-1.31c.93-2.4,2.65-5.28,5.13-6Zm0,2.2v4.31H9.53a25.85,25.85,0,0,1,.83-5.71A17.24,17.24,0,0,0,16.18,11.87Zm0,6.51v4.31a17.24,17.24,0,0,0-5.82,1.4,25.85,25.85,0,0,1-.83-5.71Zm0,6.51V32.2c-2.48-.72-4.2-3.6-5.13-6A15.15,15.15,0,0,1,16.18,24.89Zm2.2,0a15.15,15.15,0,0,1,5.13,1.3c-.93,2.41-2.65,5.29-5.13,6Zm0-2.2V18.38H25a25.85,25.85,0,0,1-.83,5.71,17.24,17.24,0,0,0-5.82-1.4Zm0-6.51V11.87a17.24,17.24,0,0,0,5.82-1.4A25.85,25.85,0,0,1,25,16.18Zm0-6.51V2.36c2.48.72,4.2,3.6,5.13,6A14.93,14.93,0,0,1,18.38,9.67Zm4.95-6.21A15.23,15.23,0,0,1,27.23,6,15.24,15.24,0,0,1,25.46,7.3,16.74,16.74,0,0,0,23.33,3.46ZM9.1,7.3A15.24,15.24,0,0,1,7.33,6a15.06,15.06,0,0,1,3.9-2.5A16.74,16.74,0,0,0,9.1,7.3Zm0,20a16.74,16.74,0,0,0,2.13,3.84,15.06,15.06,0,0,1-3.9-2.5A15.24,15.24,0,0,1,9.1,27.26Zm16.36,0a15.24,15.24,0,0,1,1.77,1.34,15.23,15.23,0,0,1-3.9,2.5,16.74,16.74,0,0,0,2.13-3.84Zm1.78-11.08a28.28,28.28,0,0,0-1-6.74,17,17,0,0,0,2.58-1.91,14.93,14.93,0,0,1,3.54,8.65Z"/></g></g></svg>