<svg xmlns="http://www.w3.org/2000/svg" width="119.46" height="80.965" viewBox="0 0 119.46 80.965">
  <g id="Group_113" data-name="Group 113" transform="translate(-1209.839 -96.471)">
    <rect id="Rectangle_105" data-name="Rectangle 105" width="119.46" height="80.965" transform="translate(1209.839 96.471)" fill="none"/>
    <g id="Group_110" data-name="Group 110">
      <rect id="Rectangle_106" data-name="Rectangle 106" width="18.56" height="17.882" transform="translate(1226.531 111.885)" fill="#fff"/>
      <path id="Path_312" data-name="Path 312" d="M1315.157,108.78l.236,0,.09,4.388-.269,0c-.434-1.782-2.152-3.471-5.587-3.649-4.072-.21-5.831,2.213-5.851,4.5-.027,3.052,2.35,3.68,5.871,4.536,1.662.407,7.811,1.207,7.32,8.115-.347,4.826-4.513,7.122-10.411,6.935a27.793,27.793,0,0,1-5.874-1.03c-.639-.177-.8.035-1.059.507l-.276.013.01-4.732.273.015a3.477,3.477,0,0,0,1.035,2.128,7.47,7.47,0,0,0,5.378,1.97c3.206.037,5.855-1.314,6.211-4.9a4.02,4.02,0,0,0-2.162-4.185c-1.689-.79-6.374-1.312-8.65-3.3a5.914,5.914,0,0,1-2.263-5.379c.6-4.948,4.725-6.185,8.439-6.262a27.217,27.217,0,0,1,5.963.65,2.228,2.228,0,0,0,1.2-.027A.781.781,0,0,0,1315.157,108.78Z" fill="#231f20"/>
      <path id="Path_313" data-name="Path 313" d="M1291.955,120.173c.356-.192,5.155-2.021,4.75-6.4-.507-5.467-6.447-5.072-8.421-5.072h-10.758l.022.258c1.129.131,1.666.751,1.643,2.791l-.088,18.762c0,1.816-.772,2.384-1.806,2.523l-.013.277h14.223c1.862,0,6.482-.624,6.754-6.074C1298.348,126.019,1297.985,121.668,1291.955,120.173Zm1.584,7.106c-.078,3.734-2.234,4.656-3.5,4.928a21.573,21.573,0,0,1-4.882.156c-1.483-.07-1.408-.682-1.418-1.279,0,0,.007-2.53.06-5.814.1-6.037.271-14.627.271-14.733,0-.85.19-.9.968-.936.457-.021.7-.021,1.786-.007,1.341.017,5.005.127,5.217,4.956.215,4.953-4.979,5.555-6.282,5.606-.061.008-.092.21-.01.215C1289.77,120.592,1293.648,121.992,1293.539,127.279Z" fill="#231f20"/>
      <path id="Path_314" data-name="Path 314" d="M1265.193,108.777c-1.148,0-11.569,0-11.569,0l.017.266a1.785,1.785,0,0,1,1.6,1.561c.264,2.773.356,19.6-.072,21.445-.134.485-.945.939-1.676,1.065l-.017.273,12.928,0c5.1,0,10.608-4.7,10.63-12.337C1277.058,112.266,1270.314,108.751,1265.193,108.777Zm2.344,22.945a13.9,13.9,0,0,1-6.223.6c-1.326-.129-1.36-.892-1.378-1.209-.135-2.32-.1-18.365.04-20.427.073-1.1.3-1.065,1.329-1.058.961.007,2.108.088,2.108.088,6.058.441,8.336,5.126,8.787,11.1C1272.668,126.984,1269.826,130.9,1267.537,131.722Z" fill="#231f20"/>
      <path id="Path_315" data-name="Path 315" d="M1247.725,121.01h0a12.7,12.7,0,0,1,1.423-6.3c.39-.829,1.251-2.047-.017-3.459a2.368,2.368,0,0,0-2.991-.406,2.368,2.368,0,0,0-.406-2.992c-1.412-1.269-2.63-.407-3.459-.017a12.718,12.718,0,0,1-6.3,1.424h0a12.712,12.712,0,0,1-6.3-1.424c-.83-.39-2.046-1.252-3.458.017a2.366,2.366,0,0,0-.406,2.991,2.372,2.372,0,0,0-2.993.407c-1.267,1.412-.407,2.63-.016,3.457a12.725,12.725,0,0,1,1.425,6.3h0a12.731,12.731,0,0,1-1.425,6.307c-.391.829-1.251,2.046.016,3.457a2.375,2.375,0,0,0,2.993.407,2.359,2.359,0,0,0,.406,2.989c1.412,1.272,2.628.409,3.456.017a12.736,12.736,0,0,1,6.307-1.422h0a12.73,12.73,0,0,1,6.3,1.422c.829.392,2.047,1.255,3.459-.017a2.367,2.367,0,0,0,.405-2.989,2.369,2.369,0,0,0,2.992-.407c1.268-1.411.407-2.628.017-3.456A12.722,12.722,0,0,1,1247.725,121.01Zm-3.128,8.65-6.7-5.619a2.549,2.549,0,0,0-3.86,0l-6.7,5.619-.025-.022,5.623-6.7a2.552,2.552,0,0,0,0-3.861l-5.623-6.7.024-.026,6.7,5.623a2.548,2.548,0,0,0,3.859,0l6.695-5.618.024.023L1239,119.081a2.55,2.55,0,0,0,0,3.861l5.621,6.694Z" fill="#ed1c24"/>
    </g>
    <g id="Group_112" data-name="Group 112">
      <g id="Group_111" data-name="Group 111">
        <path id="Path_316" data-name="Path 316" d="M1230.195,139.721a1.8,1.8,0,0,1,1.836-.215,4.635,4.635,0,0,1,1,.468s3.725,2.97,4.655,3.5.986.746.745.764-5.975-2.029-6.6-2.309-.634-.35-1.167-.077-.558-.009-.7-.255-.439.107-.573-.344.446-.477.491-.778Z" fill="#231f20"/>
        <path id="Path_317" data-name="Path 317" d="M1233.028,139.974s-.465,1.665.265,1.749a8.913,8.913,0,0,0,2.469-.2c1.26-.186,1.405.906,3.452-.171,1.866-.983,8.113-.3,9.058-.438s1.276-.49,1.06-.707a13.58,13.58,0,0,0-1.7-1.233c-.829-.528-1.309-.991-1.967-.56a15.158,15.158,0,0,1-4.276,1.292,54.671,54.671,0,0,1-7.29.485,3.157,3.157,0,0,1-1.07-.214" fill="#231f20"/>
        <path id="Path_318" data-name="Path 318" d="M1232.764,144.28a23.074,23.074,0,0,1,3.248-2.979c.562-.393,5.545-1.526,4.268-.667a25.485,25.485,0,0,0-4.746,3.881,39.843,39.843,0,0,0-3.15,3.363c-1.255,1.588-1.491,2.038-4.869,7.047-4.124,6.117-3.952,7.568-4.166,8.646s-.157,2.189-.791,1.293c-.495-.708-1.016-2.129.09-5.131a18.517,18.517,0,0,1,1.234-2.808c.269-.5.666-1.155,1.114-1.894a63.794,63.794,0,0,1,4.366-6.665c.5-.662,1.331-1.744,1.779-2.287A15.531,15.531,0,0,1,1232.764,144.28Z" fill="#231f20"/>
        <path id="Path_319" data-name="Path 319" d="M1225.377,150.741a8.644,8.644,0,0,0,3.494-.391c1.914-.529,2.9-.6,6.66-1.328s5.489-.761,4.882-.5-6.376,1.918-8.6,2.581-4.312,1.023-4.925,1.288a1.568,1.568,0,0,1-1.609-.031c-.628-.334-.711-.6-.478-.829s-.163-.333-.04-.627S1225.377,150.741,1225.377,150.741Z" fill="#231f20"/>
      </g>
      <path id="Path_320" data-name="Path 320" d="M1243.867,150.079a3.169,3.169,0,0,1-2.01-1.121c-.166-.411-.853-.765-1.151-.573s-.487-.054-.734-.109-.566.271-.811.765c0,0-1.2,1.219-2.365,2.633-1.095,1.331-1.9,3.264-.9,4.141s2.569.953,4.329-.193a14.692,14.692,0,0,0,3.915-4.26C1244.485,150.653,1244.665,150.186,1243.867,150.079Zm-2.095,2.566a7.8,7.8,0,0,1-1.563,1.7,6.071,6.071,0,0,1-2.143.98c-.761.165-1.068-.2-.909-.885a5.065,5.065,0,0,1,.919-1.835,8.205,8.205,0,0,1,1.109-1.234c.344-.355.956-.854.956-.854.478-.189.943-.353.585.221s-.542.765-.413,1.281,1.072,1.557.922,1.094.147-.354.244-.765a.871.871,0,0,1,.7-.6C1242.327,151.745,1242.312,151.881,1241.772,152.645Z" fill="#231f20"/>
      <path id="Path_321" data-name="Path 321" d="M1243.219,152.015a21.583,21.583,0,0,0,3.108-1.281c1.409-.794,1.2-.984,1.518-1.312s.411-.081.6.053.583.028,1.124.194.651.081.424.326a7.4,7.4,0,0,1-2.8,1.449c-1.505.434-4.048.871-4.389.928S1243.219,152.015,1243.219,152.015Z" fill="#231f20"/>
      <path id="Path_322" data-name="Path 322" d="M1246.58,151.144a2.825,2.825,0,0,1,2.229-1.12c.858,0,1.665-.491,1.023.216s-1.358,1.367-1.86,1.914-1.352,1.32-1.63,1.731.465,1.14,1.7.43a38.888,38.888,0,0,0,4.2-3.524c1.255-1.231,1.3-1.553,1.8-1.531.849.039,2.092.3,1.517.791s-2.883,3.823-3.479,4.48-.753,1.453-.277,1.253a13.189,13.189,0,0,0,1.851-.947c1.421-.758,2.921-1.865,2.32-1.371s.369.052-.253.6a27.979,27.979,0,0,1-3.045,2.4,1.976,1.976,0,0,1-2.116.119,1.949,1.949,0,0,1-.261-1.666c.192-.6-.212-.549-.74-.11s-2.7,1.791-3.27,1.757c-2.144-.13-1.555-2.269-1.426-2.949A10.464,10.464,0,0,1,1246.58,151.144Z" fill="#231f20"/>
      <path id="Path_323" data-name="Path 323" d="M1284.26,141.386c1.011-.78.289-.727-.058-.7s-1.321-.207-1.77.134a3.891,3.891,0,0,0-.787.687,12.906,12.906,0,0,0-1.1,1.462c-.747,1.011-3.986,4.983-4.556,5.965s-.654.733-1.053.651a7.38,7.38,0,0,0-2.411-.63,6.422,6.422,0,0,0-3.439,1.287,11.537,11.537,0,0,0-2.255,2.306,9.514,9.514,0,0,0-1.1,2.354c-.068.206-.407,1.1.073,1.616s1.751.43,2.275.292a8.851,8.851,0,0,0,2.23-.963,13.823,13.823,0,0,0,2.52-1.979c.585-.6.8-.832.957-.7s.209.312.147.857a1.554,1.554,0,0,0,.114,1.142c.211.419.559.878,1,.906a2.126,2.126,0,0,0,1.822-.675c.879-.725.424-.622.11-.44s-.3.31-.782.336-.727-.285-.966-1.113-.1-1.637,1.14-3.556A85.636,85.636,0,0,1,1284.26,141.386Zm-11.889,11.034a11.855,11.855,0,0,1-2.3,2.042c-1.718,1.3-2.231,1.166-2.381.753s.546-1.716,1.506-2.669a9.9,9.9,0,0,1,1.662-1.473c.516-.253,1.955-.579,2.133-.026C1273.108,151.4,1272.58,152.115,1272.371,152.42Z" fill="#231f20"/>
      <path id="Path_324" data-name="Path 324" d="M1298.266,154.723c-1.379.542-1.832.53-1.655,0a6.508,6.508,0,0,1,1.674-2.654c1.023-1,1.52-1.2,1.144-1.527a1.82,1.82,0,0,0-1.525-.4c-.4.161-.493.636-1.388,1.521a14.536,14.536,0,0,1-3.948,3.062c-.63.274-2.953,1.213-2.748-.041a6.278,6.278,0,0,1,1.483-2.75c.9-1.167,6.167-6.094,6.683-6.618a8.284,8.284,0,0,0,1.741-2.1c.127-.525-.732-.163-.879-.525s-.8-.482-1.666.16a21.924,21.924,0,0,0-3.06,3.357c-1.55,1.847-3.795,4.062-4.892,5.273a20.688,20.688,0,0,1-3.095,2.967c-1.151.894-1.919.8-1.843.282s-1.475-.444-1.093.28.284,1.667,1.656,1.464c2.187-.319,3.944-3.19,3.944-3.19s-1.114,2-.776,2.721c.389.847,1.861.974,3.915.011a11.58,11.58,0,0,0,3.522-2.732,9.5,9.5,0,0,0-.571,2.328c-.051.966.656,1.489,1.835.806s2.63-1.212,3.246-2.091C1301.092,152.72,1299.744,154.142,1298.266,154.723Z" fill="#231f20"/>
      <path id="Path_325" data-name="Path 325" d="M1289.63,146.367c1.266-.037,4.853-.317,5.913-.279s5.19-.522,5.595-.522-.181.522-.526,1a7.651,7.651,0,0,1-3.572,1.406,29.006,29.006,0,0,1-3.972-.161,3.622,3.622,0,0,1-2.371-.521A9.8,9.8,0,0,1,1289.63,146.367Z" fill="#231f20"/>
      <path id="Path_326" data-name="Path 326" d="M1298.8,147.981c.317-.031.858.028.939.257s.537.17.614.514.109.915-.58,1.028-.911-.344-1.078-.8A1.476,1.476,0,0,1,1298.8,147.981Z" fill="#231f20"/>
      <path id="Path_327" data-name="Path 327" d="M1306.458,151.34a3.031,3.031,0,0,0-1.613-1.2,8.02,8.02,0,0,0-1.473-.488c-.344-.073-.436.34-.567.751s-.39.451-.914.938a5.442,5.442,0,0,0-1.036,1.2,4.216,4.216,0,0,0-.907,2.44,1.932,1.932,0,0,0,1.382,1.8,3.393,3.393,0,0,0,1.565-.161,5.931,5.931,0,0,0,2.552-1.753,10.319,10.319,0,0,0,1.268-2.178C1306.949,152.09,1306.552,151.678,1306.458,151.34Zm-3.59,3.565c-1.013.751-1.738.978-1.864.227s1-1.84,1-1.84c.373-.525.625-.675.948-.675s.628-.3,1.067-.527.821.489.521,1.164S1303.882,154.156,1302.868,154.9Z" fill="#231f20"/>
      <path id="Path_328" data-name="Path 328" d="M1263.5,155.81c-.049-.14.318-.752.474-1.1.217-.49.409-.987.67-1.466.538-.969,1.07-1.831,1.612-2.8a.566.566,0,0,0,.007-.461,4.514,4.514,0,0,0-1.727-.72,1.422,1.422,0,0,0-.6,0,2.64,2.64,0,0,0-.767.3,4.645,4.645,0,0,0-.812.631,14.444,14.444,0,0,1-1.23,1.129c-.415.307-.891.553-1.258.806-.03-.173.172-.331.223-.441.272-.574.215-1.175-.445-1.324a2.776,2.776,0,0,0-.549-.091,2.262,2.262,0,0,0-.582.06,2.394,2.394,0,0,0-.542.227,2.946,2.946,0,0,0-.679.658,16.747,16.747,0,0,1-1.4,1.349c-.275.233-1.831,1.693-2.352,2.049-.518.39-1.187.887-1.512,1.07l.125.753a5.465,5.465,0,0,0,.91-.476c1.181-.817,1.788-1.242,2.385-1.664.231-.164.584-.54.751-.628.091-.06.178-.126-.089.218a2.108,2.108,0,0,0-.327,1.573.912.912,0,0,0,1.1.526,6.255,6.255,0,0,0,1.6-1.046c.3-.236.593-.573.834-.76.685-.532,1.2-.9,1.2-.9.517-.5,1.1-.882,1.584-1.339.022-.019.166-.1.171,0-.031.15-.05.295-.094.439a8.077,8.077,0,0,0-.408,1.308,6.151,6.151,0,0,0,.008,2.464,1.148,1.148,0,0,0,1.57.692,8.587,8.587,0,0,0,2.051-1.123,1.168,1.168,0,0,0,.259-.286C1264.871,155.714,1263.634,156.159,1263.5,155.81Z" fill-rule="evenodd"/>
      <path id="Path_329" data-name="Path 329" d="M1314.228,155.734a4.687,4.687,0,0,1,.451-1.071c.209-.477.392-.959.641-1.425.508-.941,1.007-1.78,1.521-2.719a.607.607,0,0,0,.015-.448,3.849,3.849,0,0,0-1.557-.7,1.174,1.174,0,0,0-.545,0,2.345,2.345,0,0,0-.7.288,4.315,4.315,0,0,0-.751.616,14.744,14.744,0,0,1-1.141,1.094c-.383.3-.823.537-1.159.784-.023-.166.16-.323.21-.427.26-.559.219-1.143-.379-1.288a2.18,2.18,0,0,0-.495-.084,1.825,1.825,0,0,0-.532.052,2.26,2.26,0,0,0-.494.222c-.185.111-.314.454-.633.64a4.2,4.2,0,0,1-2.211.242c-1.109-.2-.532-.733-1.015-.388-.352.279-.137.26.5.515a5.982,5.982,0,0,0,2.559.768c.086-.059-.9,1.308-1.148,1.643a2.2,2.2,0,0,0-.33,1.526.8.8,0,0,0,.991.511,6,6,0,0,0,1.542-.941c.279-.231.571-.55.771-.739.6-.565,1.233-1.135,1.233-1.135.48-.488,1.018-.857,1.467-1.3.02-.022.15-.094.156,0-.033.145-.052.287-.1.426a8.632,8.632,0,0,0-.4,1.27,6.436,6.436,0,0,0-.046,2.394,1.014,1.014,0,0,0,1.418.674,7.918,7.918,0,0,0,1.886-1.091,1.12,1.12,0,0,0,.24-.279C1315.473,155.643,1314.338,156.075,1314.228,155.734Z" fill="#231f20" fill-rule="evenodd"/>
      <path id="Path_330" data-name="Path 330" d="M1276.558,154.536a6.63,6.63,0,0,1,1.362-2.058c.373-.349,1.022-.919,2.47-2.055a3.4,3.4,0,0,1,4.448-.082c.117.106.278.264.416.211a.953.953,0,0,1,1.2.207c.145.155-.084.54-.154.657-.376.619-.8,1.205-1.161,1.831a2.27,2.27,0,0,0-.359.868c-.275.85.375,1.089,1.56.387.476-.282,1.116-.951,1.772-1.351s.511.276-.081.955a11.94,11.94,0,0,1-1.81,1.956c-1.9.987-3.291.669-3.25-1.257a6.768,6.768,0,0,0,.035-.955,14.217,14.217,0,0,1-1.266.948,14.461,14.461,0,0,1-3.309,1.848,1.663,1.663,0,0,1-1.93-.577C1276.255,155.668,1276.484,154.853,1276.558,154.536Zm2.159-.762c-.247.29-.76.889-.555,1.114.323.357,1.321-.2,1.675-.381a7.2,7.2,0,0,0,1.255-.892,6.2,6.2,0,0,0,1.257-1.689c.275-.521-.216-.949-.856-.526a11.7,11.7,0,0,0-1.631,1.216A10.816,10.816,0,0,0,1278.717,153.774Z" fill-rule="evenodd"/>
    </g>
  </g>
</svg>
