<?xml version="1.0" encoding="utf-8"?>
<!-- Generator: Adobe Illustrator 16.0.0, SVG Export Plug-In . SVG Version: 6.00 Build 0)  -->
<!DOCTYPE svg PUBLIC "-//W3C//DTD SVG 1.1//EN" "http://www.w3.org/Graphics/SVG/1.1/DTD/svg11.dtd">
<svg version="1.1" id="Layer_1" xmlns="http://www.w3.org/2000/svg" xmlns:xlink="http://www.w3.org/1999/xlink" x="0px" y="0px"
	 width="63.588px" height="93.882px" viewBox="0 0 63.588 93.882" enable-background="new 0 0 63.588 93.882" xml:space="preserve">
<rect fill="#C2BADC" width="63.588" height="93.882"/>
<path fill="#1F006D" d="M18.345,87.52c0-9.729,7.886-17.613,17.612-17.613c9.729,0,17.613,7.885,17.613,17.613"/>
<path fill="#FFFFFF" d="M44.643,64.268c0,4.797-3.89,8.686-8.686,8.686s-8.684-3.889-8.684-8.686c0-4.795,3.888-8.685,8.684-8.685
	S44.643,59.473,44.643,64.268"/>
<polyline fill="#1F006D" points="41.589,51.672 46.408,57.564 51.015,51.672 "/>
<polygon fill="#1F006D" points="5.617,52.879 57.852,52.996 57.852,6.455 5.617,6.337 "/>
<g>
	<path fill="#FFFFFF" d="M18.918,21.627l3.536-9.293h2.271l3.587,9.293h-2.26l-0.755-1.974h-3.6l-0.647,1.974H18.918z
		 M24.834,18.092l-1.041-3.002c-0.029-0.089-0.067-0.241-0.114-0.457s-0.096-0.48-0.146-0.793c-0.055,0.3-0.107,0.57-0.158,0.809
		c-0.051,0.239-0.089,0.399-0.114,0.479l-1.003,2.964H24.834z"/>
	<path fill="#FFFFFF" d="M28.693,20.447l1.104-1.25c0.14,0.343,0.364,0.613,0.673,0.809c0.309,0.197,0.656,0.295,1.041,0.295
		c0.466,0,0.834-0.11,1.104-0.33s0.406-0.516,0.406-0.889c0-0.44-0.451-0.878-1.352-1.314c-0.293-0.14-0.523-0.254-0.692-0.343
		c-0.813-0.423-1.375-0.837-1.688-1.241c-0.313-0.404-0.47-0.885-0.47-1.444c0-0.766,0.304-1.396,0.911-1.888
		c0.607-0.493,1.396-0.74,2.364-0.74c0.563,0,1.049,0.098,1.457,0.295c0.408,0.196,0.769,0.504,1.082,0.923l-1.175,1.124
		c-0.139-0.271-0.324-0.473-0.555-0.606c-0.23-0.133-0.509-0.2-0.835-0.2c-0.394,0-0.711,0.098-0.952,0.295
		c-0.241,0.196-0.361,0.452-0.361,0.765c0,0.491,0.478,0.939,1.434,1.346c0.191,0.081,0.337,0.144,0.438,0.19
		c0.787,0.36,1.37,0.766,1.749,1.219s0.568,0.969,0.568,1.549c0,0.872-0.298,1.567-0.893,2.085
		c-0.595,0.519-1.393,0.778-2.396,0.778c-0.711,0-1.32-0.123-1.828-0.368S28.943,20.908,28.693,20.447z"/>
	<path fill="#FFFFFF" d="M36.57,21.627v-9.293h1.986v4.208l3.098-4.208h2.299l-3.326,4.234l3.446,5.059H41.68l-3.123-4.862v4.862
		H36.57z"/>
</g>
<g>
	<path fill="#FFFFFF" d="M8.778,34.627l3.536-9.293h2.271l3.587,9.293h-2.26l-0.755-1.974h-3.6l-0.647,1.974H8.778z M14.694,31.092
		l-1.041-3.002c-0.029-0.089-0.067-0.241-0.114-0.457s-0.096-0.48-0.146-0.793c-0.055,0.3-0.107,0.57-0.158,0.809
		c-0.051,0.239-0.089,0.399-0.114,0.479l-1.003,2.964H14.694z"/>
	<path fill="#FFFFFF" d="M19.15,34.627v-9.293h1.739c0.901,0,1.561,0.035,1.978,0.104c0.417,0.07,0.777,0.186,1.082,0.346
		c0.359,0.208,0.638,0.48,0.835,0.819c0.196,0.338,0.295,0.722,0.295,1.149c0,0.55-0.163,0.991-0.489,1.324
		c-0.325,0.332-0.813,0.553-1.459,0.663c0.748,0.11,1.314,0.354,1.697,0.73s0.574,0.878,0.574,1.504c0,0.457-0.109,0.875-0.33,1.254
		c-0.22,0.378-0.522,0.671-0.907,0.879c-0.343,0.186-0.745,0.319-1.206,0.4s-1.225,0.121-2.291,0.121h-0.203H19.15z M21.137,29.048
		h0.445c0.601,0,1.025-0.084,1.275-0.254s0.375-0.453,0.375-0.851c0-0.389-0.12-0.667-0.359-0.832s-0.656-0.248-1.254-0.248h-0.482
		V29.048z M21.137,33.079h0.781c0.499,0,0.878-0.109,1.137-0.327c0.258-0.218,0.387-0.536,0.387-0.955
		c0-0.394-0.128-0.694-0.384-0.901s-0.628-0.311-1.114-0.311h-0.807V33.079z"/>
	<path fill="#FFFFFF" d="M36.364,30c0,0.665-0.124,1.293-0.372,1.885c-0.247,0.592-0.604,1.113-1.069,1.562
		c-0.482,0.461-1.026,0.814-1.631,1.06c-0.605,0.246-1.232,0.368-1.879,0.368c-0.567,0-1.123-0.096-1.667-0.289
		c-0.544-0.193-1.042-0.469-1.495-0.829c-0.584-0.465-1.031-1.022-1.342-1.669c-0.312-0.647-0.467-1.344-0.467-2.088
		c0-0.668,0.123-1.296,0.368-1.882c0.245-0.586,0.605-1.107,1.079-1.564c0.466-0.453,1.006-0.804,1.622-1.054
		c0.615-0.25,1.249-0.375,1.901-0.375c0.646,0,1.276,0.125,1.888,0.375s1.152,0.601,1.622,1.054c0.47,0.457,0.827,0.979,1.072,1.568
		C36.241,28.709,36.364,29.335,36.364,30z M31.413,33.104c0.842,0,1.537-0.295,2.085-0.886c0.548-0.59,0.821-1.33,0.821-2.218
		c0-0.88-0.276-1.621-0.831-2.222s-1.246-0.901-2.075-0.901c-0.843,0-1.541,0.299-2.096,0.898c-0.554,0.599-0.831,1.341-0.831,2.225
		c0,0.897,0.272,1.639,0.819,2.225C29.851,32.811,30.554,33.104,31.413,33.104z"/>
	<path fill="#FFFFFF" d="M46.031,25.334v5.783c0,1.261-0.333,2.203-0.997,2.825s-1.665,0.933-3.003,0.933
		c-1.357,0-2.369-0.311-3.033-0.933c-0.665-0.622-0.997-1.563-0.997-2.825v-5.783h1.974v5.472c0,0.766,0.17,1.343,0.508,1.729
		c0.339,0.388,0.845,0.581,1.518,0.581c0.677,0,1.189-0.195,1.536-0.584s0.521-0.965,0.521-1.727v-5.472H46.031z"/>
	<path fill="#FFFFFF" d="M51.561,27.023v7.604h-1.994v-7.604h-2.271v-1.688h6.537v1.688H51.561z"/>
</g>
<g>
	<path fill="#FFFFFF" d="M22.243,47.627v-9.292h5.472v1.676h-3.485v1.911h3.485v1.688h-3.485v4.018H22.243z"/>
	<path fill="#FFFFFF" d="M29.251,47.627v-9.292h5.472v1.676h-3.485v1.911h3.485v1.688h-3.485v4.018H29.251z"/>
	<path fill="#FFFFFF" d="M40.874,42.727h4.233c0.009,0.055,0.014,0.114,0.016,0.178s0.003,0.161,0.003,0.292
		c0,1.392-0.397,2.52-1.193,3.383c-0.795,0.863-1.823,1.295-3.084,1.295c-1.443,0-2.633-0.461-3.568-1.38
		c-0.935-0.921-1.402-2.09-1.402-3.507c0-1.405,0.47-2.566,1.409-3.485s2.126-1.377,3.562-1.377c0.757,0,1.451,0.159,2.082,0.476
		c0.63,0.317,1.193,0.792,1.688,1.422l-1.339,0.99c-0.334-0.415-0.686-0.714-1.054-0.898c-0.368-0.184-0.793-0.276-1.275-0.276
		c-0.919,0-1.653,0.286-2.203,0.857s-0.825,1.335-0.825,2.292c0,0.939,0.276,1.698,0.828,2.276c0.553,0.577,1.272,0.866,2.161,0.866
		c0.652,0,1.182-0.153,1.588-0.46c0.406-0.307,0.609-0.708,0.609-1.203v-0.102h-2.234V42.727z"/>
</g>
</svg>
