<?xml version="1.0" encoding="utf-8"?>
<!-- Generator: Adobe Illustrator 16.0.0, SVG Export Plug-In . SVG Version: 6.00 Build 0)  -->
<!DOCTYPE svg PUBLIC "-//W3C//DTD SVG 1.1//EN" "http://www.w3.org/Graphics/SVG/1.1/DTD/svg11.dtd">
<svg version="1.1" id="Layer_1" xmlns="http://www.w3.org/2000/svg" xmlns:xlink="http://www.w3.org/1999/xlink" x="0px" y="0px"
	 width="63.588px" height="93.882px" viewBox="0 0 63.588 93.882" enable-background="new 0 0 63.588 93.882" xml:space="preserve">
<rect fill="#B8DB70" width="63.588" height="93.882"/>
<path fill="#88B222" d="M18.345,87.52c0-9.729,7.886-17.613,17.612-17.613c9.729,0,17.613,7.885,17.613,17.613"/>
<path fill="#FFFFFF" d="M44.643,64.268c0,4.797-3.89,8.686-8.686,8.686s-8.684-3.889-8.684-8.686c0-4.795,3.888-8.685,8.684-8.685
	S44.643,59.473,44.643,64.268"/>
<polyline fill="#88B222" points="41.589,51.672 46.408,57.564 51.015,51.672 "/>
<polygon fill="#88B222" points="5.617,52.879 57.852,52.996 57.852,6.455 5.617,6.337 "/>
<g>
	<path fill="#FFFFFF" d="M23.119,14.753c-0.402-0.36-0.815-0.623-1.238-0.791c-0.423-0.167-0.876-0.25-1.358-0.25
		c-0.99,0-1.779,0.296-2.368,0.889c-0.588,0.592-0.882,1.388-0.882,2.387c0,0.978,0.272,1.753,0.819,2.327
		c0.545,0.573,1.29,0.86,2.234,0.86c0.537,0,1.036-0.09,1.498-0.27c0.461-0.18,0.889-0.449,1.281-0.809l-0.012,2.038
		c-0.424,0.25-0.867,0.436-1.33,0.559c-0.464,0.123-0.951,0.184-1.463,0.184c-1.481,0-2.697-0.46-3.647-1.38
		c-0.95-0.921-1.425-2.09-1.425-3.507c0-1.414,0.477-2.579,1.428-3.498c0.953-0.918,2.18-1.377,3.682-1.377
		c0.504,0,0.99,0.053,1.461,0.159c0.469,0.106,0.933,0.269,1.39,0.489L23.119,14.753z"/>
	<path fill="#FFFFFF" d="M24.966,21.627v-9.293h1.986v3.726h4.031v-3.726h1.986v9.293h-1.986v-3.885h-4.031v3.885H24.966z"/>
	<path fill="#FFFFFF" d="M33.936,21.627l3.536-9.293h2.271l3.587,9.293h-2.26l-0.755-1.974h-3.6l-0.647,1.974H33.936z
		 M39.852,18.092l-1.041-3.002c-0.029-0.089-0.067-0.241-0.114-0.457s-0.096-0.48-0.146-0.793c-0.055,0.3-0.107,0.57-0.158,0.809
		c-0.051,0.239-0.089,0.399-0.114,0.479l-1.003,2.964H39.852z"/>
	<path fill="#FFFFFF" d="M47.78,14.023v7.604h-1.994v-7.604h-2.271v-1.688h6.537v1.688H47.78z"/>
</g>
<g>
	<path fill="#FFFFFF" d="M22.791,25.334l1.379,5.04c0.088,0.322,0.17,0.667,0.246,1.035s0.148,0.781,0.217,1.238
		c0.008-0.385,0.037-0.765,0.086-1.14c0.049-0.374,0.121-0.752,0.219-1.133l1.205-5.04h1.963l-2.432,9.293h-1.91L22.1,28.699
		c-0.08-0.271-0.145-0.544-0.189-0.819c-0.047-0.275-0.08-0.561-0.096-0.857c-0.021,0.313-0.055,0.609-0.1,0.889
		c-0.043,0.279-0.102,0.542-0.174,0.787l-1.676,5.929h-1.91l-2.432-9.293h1.986l1.227,5.161c0.066,0.296,0.121,0.617,0.164,0.961
		c0.043,0.345,0.074,0.721,0.096,1.127c0.08-0.538,0.229-1.219,0.443-2.044l0.033-0.133l1.363-5.072H22.791z"/>
	<path fill="#FFFFFF" d="M29.432,34.627v-9.293h1.986v9.293H29.432z"/>
	<path fill="#FFFFFF" d="M37.01,27.023v7.604h-1.994v-7.604h-2.271v-1.688h6.537v1.688H37.01z"/>
	<path fill="#FFFFFF" d="M40.584,34.627v-9.293h1.986v3.726h4.031v-3.726h1.986v9.293h-1.986v-3.885H42.57v3.885H40.584z"/>
</g>
<g>
	<path fill="#FFFFFF" d="M32.821,38.334v5.783c0,1.261-0.333,2.203-0.997,2.825c-0.664,0.623-1.665,0.933-3.003,0.933
		c-1.357,0-2.369-0.311-3.033-0.933c-0.665-0.622-0.997-1.563-0.997-2.825v-5.783h1.974v5.472c0,0.766,0.17,1.343,0.508,1.729
		c0.339,0.388,0.845,0.581,1.518,0.581c0.677,0,1.189-0.195,1.536-0.584s0.521-0.965,0.521-1.727v-5.472H32.821z"/>
	<path fill="#FFFFFF" d="M34.281,46.447l1.104-1.25c0.14,0.343,0.364,0.613,0.673,0.809c0.309,0.197,0.656,0.295,1.041,0.295
		c0.466,0,0.834-0.11,1.104-0.33s0.406-0.516,0.406-0.889c0-0.44-0.451-0.878-1.352-1.314c-0.293-0.14-0.523-0.254-0.692-0.343
		c-0.813-0.423-1.375-0.837-1.688-1.241c-0.313-0.404-0.47-0.885-0.47-1.444c0-0.766,0.304-1.396,0.911-1.888
		c0.607-0.493,1.396-0.74,2.364-0.74c0.563,0,1.049,0.098,1.457,0.295c0.408,0.196,0.769,0.504,1.082,0.923l-1.175,1.124
		c-0.139-0.271-0.324-0.473-0.555-0.606c-0.23-0.133-0.509-0.2-0.835-0.2c-0.394,0-0.711,0.098-0.952,0.295
		c-0.241,0.196-0.361,0.452-0.361,0.765c0,0.491,0.478,0.939,1.434,1.346c0.191,0.081,0.337,0.144,0.438,0.19
		c0.787,0.36,1.37,0.766,1.749,1.219s0.568,0.969,0.568,1.549c0,0.872-0.298,1.567-0.893,2.085s-1.393,0.778-2.396,0.778
		c-0.711,0-1.32-0.123-1.828-0.368S34.531,46.908,34.281,46.447z"/>
</g>
</svg>
