<?xml version="1.0" encoding="utf-8"?>
<!-- Generator: Adobe Illustrator 16.0.0, SVG Export Plug-In . SVG Version: 6.00 Build 0)  -->
<!DOCTYPE svg PUBLIC "-//W3C//DTD SVG 1.1//EN" "http://www.w3.org/Graphics/SVG/1.1/DTD/svg11.dtd">
<svg version="1.1" id="Layer_1" xmlns="http://www.w3.org/2000/svg" xmlns:xlink="http://www.w3.org/1999/xlink" x="0px" y="0px"
	 width="268px" height="227px" viewBox="-12.5 -84.5 268 227" enable-background="new -12.5 -84.5 268 227" xml:space="preserve">
<g>
	<g>
		<defs>
			<rect id="SVGID_1_" x="-0.5" y="-3.19" width="244" height="134"/>
		</defs>
		<clipPath id="SVGID_2_">
			<use xlink:href="#SVGID_1_"  overflow="visible"/>
		</clipPath>
		<g clip-path="url(#SVGID_2_)">
			<path fill="#002853" d="M16.959,121.055c-0.428-2.225-1.284-3.594-3.938-5.391c-2.396-1.625-5.392-3.68-5.392-3.68
				s-3.766-2.053-3.937-4.449c-0.257-2.396,2.396-4.619,5.819-4.449c1.626,0.086,2.653,0.6,3.253,0.941
				c1.026,0.686,1.54,1.539,1.711,1.797c0,0.086,0.086,0.086,0.086,0.086c0.086,0.086,0.171,0.172,0.343,0.172
				c0.085,0,0.171-0.172,0.171-0.258v-4.705c0,0-2.396,0-6.676,0c-4.108,0-9.072,2.994-8.9,7.787
				c0.085,1.195-0.086,3.422,4.536,6.33c4.278,2.738,8.13,4.365,8.13,8.473c0,4.277-4.107,5.99-7.36,5.475
				c-1.54-0.256-2.567-0.854-3.166-1.453c-0.941-0.941-1.198-2.055-1.37-2.996c0-0.172-0.171-0.256-0.342-0.256
				c-0.086,0-0.171,0.17-0.171,0.256v3.594c0,0,2.14,2.141,5.819,2.396C15.076,131.41,17.644,124.992,16.959,121.055z"/>
			<path fill="#002853" d="M35.017,105.482c-7.788,0-12.323,5.135-12.323,12.492c0,7.701,5.049,12.322,11.981,12.322
				c7.617,0,12.324-5.563,12.324-12.75C46.999,109.76,41.692,105.482,35.017,105.482z M34.761,128.928
				c-4.879,0-8.388-4.107-8.388-10.867c0-7.873,4.279-10.953,8.473-10.953c2.14,0,5.392,0.941,7.104,4.107
				c1.112,2.053,1.369,4.877,1.369,6.674C43.318,124.906,39.81,128.928,34.761,128.928z"/>
			<path fill="#002853" d="M116.15,116.52h-8.473c0.086,0.258,0.342,1.285,1.369,1.627h7.104V128.5c0,0.086,0,0.342,0.086,0.514
				c0.085,0.342,0.685,0.855,1.54,0.855h1.969v-23.787h-3.595V116.52L116.15,116.52z"/>
			<path fill="#002853" d="M70.106,121.482c-0.086,1.027,0,2.055-0.257,2.91c-0.941,3.852-5.221,4.193-5.99,4.193
				c-1.884,0-3.424-0.855-4.365-1.969c-0.941-1.027-1.027-2.311-1.112-4.535v-0.086V105.91h-3.595h-0.855
				c-0.086,0-0.086,0.086-0.086,0.086c0,0.086,0,0.17,0.086,0.17c0.171,0.172,0.855,0.686,0.855,2.225v13.436
				c0,2.311,0.171,3.85,1.283,5.219c1.798,2.311,4.964,2.996,7.189,2.996c3.338,0,5.307-1.199,6.505-2.396
				c1.711-1.627,1.968-3.68,1.968-6.076c0-1.541,0-15.83,0-15.83h-1.712v15.744H70.106z"/>
			<path fill="#002853" d="M78.665,107.535h6.333v20.795c0,0,0,0.342,0.086,0.598c0.085,0.342,0.685,0.855,1.54,0.855h1.969v-22.248
				h6.333v-1.625H78.665V107.535z"/>
			<path fill="#002853" d="M101.516,106.082c0,0.084,0,0.17,0.086,0.17c0.171,0.172,0.856,0.684,0.856,2.225v19.768
				c0,0,0,0.342,0.085,0.598c0.171,0.342,0.685,0.857,1.541,0.857h1.968V105.91h-4.45
				C101.602,105.996,101.516,105.996,101.516,106.082z"/>
			<path fill="#002853" d="M226.383,128.928c0.172,0.342,0.686,0.855,1.541,0.855h1.969v-23.787h-4.451
				c-0.086,0-0.086,0.086-0.086,0.086c0,0.084,0,0.17,0.086,0.17c0.172,0.172,0.856,0.684,0.856,2.225v19.768
				C226.298,128.33,226.298,128.672,226.383,128.928z"/>
			<path fill="#002853" d="M218.852,106.338c-1.455-0.514-2.996-0.771-4.707-0.771c-7.789,0-12.324,5.135-12.324,12.494
				c0,7.701,5.05,12.322,11.981,12.322c1.884,0,3.509-0.342,4.964-0.941v-1.197c0,0-1.539,0.684-4.964,0.684
				c-4.878,0-8.387-4.107-8.387-10.867c0-7.873,4.278-10.953,8.558-10.953c0.514,0,1.199,0.086,1.799,0.344
				c0,0,1.539,0.428,2.396,1.453c0.171,0.086,0.171,0.172,0.257,0.258c0,0.086,0.085,0.086,0.172,0.086
				c0.086,0,0.086-0.086,0.086-0.086v-0.941v-1.883H218.852z"/>
			<path fill="#002853" d="M239.904,116.52h-8.471c0.084,0.258,0.342,1.285,1.368,1.627h7.103V128.5c0,0.086,0,0.342,0.087,0.514
				c0.171,0.342,0.685,0.855,1.541,0.855h1.968v-23.787h-3.596V116.52L239.904,116.52z"/>
			<path fill="#002853" d="M188.469,105.91h-3.765c-0.086,0-0.086,0.086-0.086,0.086c0,0.086,0,0.17,0.086,0.17
				c0.085,0.086,0.342,0.258,0.599,0.77v0.086l-8.045,22.678h1.626l7.275-20.451l3.594,10.182h-5.563
				c0,0.086,0.258,1.197,1.199,1.625h4.963l2.568,7.359c0,0.086,0.085,0.342,0.171,0.514c0.171,0.342,0.685,0.855,1.541,0.855h2.31
				L188.469,105.91z"/>
			<path fill="#002853" d="M172.037,128.158h-9.585v-20.623h8.644v-1.625h-12.066h-0.942c-0.085,0-0.085,0.086-0.085,0.086
				c0,0.086,0,0.17,0.085,0.17c0.171,0.172,0.856,0.686,0.856,2.311v19.854c0,0.084,0,0.342,0.086,0.512
				c0.084,0.342,0.684,0.857,1.539,0.857h1.969h9.586v-1.541H172.037z"/>
			<path fill="#002853" d="M142.682,115.15c2.91-0.428,6.42-1.967,6.42-6.93c0-7.188-8.217-6.76-8.217-6.76h-4.707h-3.338h-1.969
				c-0.085,0-0.256,0.086-0.256,0.17c0,0.086,0,0.258,0.171,0.342c0,0,0,0,0.085,0.086c0.343,0.258,1.969,1.369,2.054,3.852
				c0,0.172,0,0.256,0,0.428v0.172v21.904v-0.084c0,0,0,0.342,0.087,0.77c0.17,0.426,0.855,1.025,1.797,1.025h1.455h5.049
				c0,0,8.815,0.514,8.815-7.357C150.213,116.949,145.934,115.408,142.682,115.15z M139.43,128.244h-2.225v-25.072h1.882
				c0,0,6.334-0.342,6.334,5.391c0,5.049-2.312,5.648-5.221,5.648h-1.113c0.086,0.256,0.429,1.625,1.627,1.881
				c2.995,0.086,5.392,0.857,5.392,6.162C146.191,128.586,139.43,128.244,139.43,128.244z"/>
			<path fill="#002853" d="M165.105,118.146h5.135v-1.627h-6.676C163.736,116.861,164.078,117.889,165.105,118.146z"/>
			<path fill="#A2D23F" d="M166.475,79.727c-4.621-2.738-9.328-0.855-9.328-0.855c1.625-0.172,4.535,0,7.103,1.625
				c4.622,2.994,6.761,9.412,10.44,9.84c0,0,1.541,0.258,2.482-0.086c0.942-0.256,1.027-0.512,1.027-0.512
				C173.578,89.908,171.438,82.721,166.475,79.727z"/>
			<path fill="#009D9A" d="M174.689,76.902c-7.359-4.363-14.719-1.369-14.719-1.369c2.652-0.172,7.188,0,11.211,2.566
				c7.36,4.707,10.612,14.805,16.433,15.574c0,0,2.481,0.342,3.936-0.086c1.455-0.428,1.541-0.77,1.541-0.77
				C185.902,92.818,182.564,81.609,174.689,76.902z"/>
			<path fill="#A2D23F" d="M206.014,88.539c0,0,1.883,1.541,2.568-1.197c0.855-3.936,3.938-10.953,10.527-12.322
				c0,0-3.424-0.77-7.361,2.652C207.384,81.438,206.014,88.539,206.014,88.539z"/>
			<path fill="#009D9A" d="M183.42,72.623c-9.329-5.561-18.656-1.797-18.656-1.797c3.336-0.256,9.156,0,14.207,3.252
				c9.327,5.99,13.436,18.826,20.881,19.852c0,0,3.168,0.514,4.965-0.084c1.797-0.6,1.968-0.941,1.968-0.941
				C197.712,92.904,193.434,78.613,183.42,72.623z"/>
			<path fill="#009D9A" d="M215.001,88.453c0,0,2.31,1.883,2.995-1.453c1.027-4.621,4.793-13.092,12.581-14.719
				c0,0-4.108-0.941-8.815,3.252C216.627,79.982,215.001,88.453,215.001,88.453z"/>
			<path fill="#002853" d="M194.118,68.432c-12.067-7.188-24.136-2.311-24.136-2.311c4.281-0.342,11.812,0,18.401,4.192
				c12.067,7.701,17.373,24.303,26.959,25.586c0,0,4.108,0.6,6.419-0.086c2.311-0.77,2.567-1.197,2.567-1.197
				C212.52,94.615,207.041,76.133,194.118,68.432z"/>
			<path fill="#002853" d="M226.212,88.369c0,0,2.567,2.053,3.338-1.627c1.198-5.133,5.306-14.547,13.95-16.344
				c0,0-4.536-1.025-9.757,3.594C228.009,79.041,226.212,88.369,226.212,88.369z"/>
			<path fill="#002853" d="M201.648,68.26c0,0-3.252-12.236-4.534-18.997c-0.856-4.364-0.515-5.391-0.515-5.391l6.334-41.757
				l5.392-5.305l-8.815,48.346c0,0-0.428,1.112,0.086,5.818c0.771,7.273,3.166,20.623,3.166,20.623L201.648,68.26z"/>
			<path fill="#009D9A" d="M186.93,60.729c0,0,1.454-6.161,1.967-9.498c0.344-2.225,0.172-2.738,0.172-2.738l-4.022-21.306
				l-3.594-2.824l5.391,24.644c0,0,0.257,0.513,0.087,2.909c-0.258,3.679-0.515,10.354-0.515,10.354L186.93,60.729z"/>
			<path fill="#002853" d="M161.339,70.313c-7.873,4.707-12.153,14.719-18.144,18.398c-0.941,0.6-2.311,1.369-3.937,1.883
				c0.513,0.17,1.369,0.17,2.567-0.086c8.387-2.139,14.207-17.541,22.68-21.734C163.479,69.201,162.452,69.715,161.339,70.313z"/>
			<path fill="#A2D23F" d="M143.623,79.383c-4.792,2.482-8.387,8.301-12.066,10.27c-0.6,0.342-1.455,0.77-2.396,0.941
				c0.342,0.084,0.77,0.17,1.54,0.084c5.05-0.939,9.757-9.84,14.806-12.064C144.907,78.785,144.309,79.041,143.623,79.383z"/>
			<path fill="#009D9A" d="M151.326,75.875c-6.076,3.338-10.014,10.781-14.635,13.436c-0.685,0.428-1.797,1.025-2.996,1.283
				c0.429,0.086,1.027,0.17,1.969,0c6.333-1.369,11.641-12.836,18.059-15.83C152.952,75.105,152.096,75.447,151.326,75.875z"/>
		</g>
	</g>
	<g>
		<path fill="#240074" d="M1.428-72.81l5.46,13.77l5.489-13.77h6.391l-9.54,22.62H4.547l-9.51-22.62H1.428z"/>
		<path fill="#240074" d="M27.018-72.81v22.62h-5.88v-22.62H27.018z"/>
		<path fill="#240074" d="M37.623-62.7h1.11c1.16,0,2.05-0.24,2.67-0.72s0.93-1.17,0.93-2.07c0-0.9-0.31-1.59-0.93-2.07
			s-1.51-0.72-2.67-0.72h-1.11V-62.7z M50.554-50.19h-7.32l-5.61-8.7v8.7h-5.88v-22.62h9.15c1.26,0,2.359,0.19,3.3,0.57
			c0.94,0.36,1.71,0.86,2.31,1.5c0.62,0.64,1.08,1.38,1.381,2.22c0.319,0.84,0.479,1.74,0.479,2.7c0,1.72-0.42,3.12-1.26,4.2
			c-0.82,1.06-2.04,1.78-3.66,2.16L50.554-50.19z"/>
		<path fill="#240074" d="M58.688-72.81v12.3c0,0.66,0.021,1.34,0.061,2.04c0.06,0.68,0.21,1.3,0.449,1.86
			c0.261,0.56,0.66,1.02,1.2,1.38c0.54,0.34,1.3,0.51,2.28,0.51c0.979,0,1.729-0.17,2.25-0.51c0.54-0.36,0.94-0.82,1.2-1.38
			s0.41-1.18,0.45-1.86c0.06-0.7,0.09-1.38,0.09-2.04v-12.3h5.85v13.11c0,3.52-0.81,6.09-2.43,7.71c-1.601,1.62-4.07,2.43-7.41,2.43
			s-5.82-0.81-7.44-2.43c-1.619-1.62-2.43-4.19-2.43-7.71v-13.11H58.688z"/>
		<path fill="#240074" d="M85.851-67.83v17.64h-5.88v-17.64h-4.83v-4.98h15.54v4.98H85.851z"/>
		<path fill="#240074" d="M104.542-58.59l-2.641-7.53l-2.64,7.53H104.542z M106.102-54.12h-8.399l-1.351,3.93h-6.271l8.61-22.62
			h6.42l8.61,22.62h-6.27L106.102-54.12z"/>
		<path fill="#240074" d="M122.174-72.81v17.64h7.051v4.98h-12.931v-22.62H122.174z"/>
		<path fill="#240074" d="M146.477-72.81l5.459,13.77l5.49-13.77h6.391l-9.541,22.62h-4.68l-9.51-22.62H146.477z"/>
		<path fill="#240074" d="M179.057-67.83h-6.99v3.78h6.602v4.98h-6.602v3.9h6.99v4.98h-12.869v-22.62h12.869V-67.83z"/>
		<path fill="#240074" d="M183.297-50.19v-22.62h5.879l10.861,13.83v-13.83h5.85v22.62h-5.85l-10.861-13.83v13.83H183.297z"/>
		<path fill="#240074" d="M216.51-72.81v12.3c0,0.66,0.021,1.34,0.061,2.04c0.061,0.68,0.211,1.3,0.449,1.86
			c0.262,0.56,0.66,1.02,1.201,1.38c0.539,0.34,1.299,0.51,2.279,0.51s1.73-0.17,2.25-0.51c0.541-0.36,0.939-0.82,1.201-1.38
			c0.26-0.56,0.408-1.18,0.449-1.86c0.061-0.7,0.09-1.38,0.09-2.04v-12.3h5.85v13.11c0,3.52-0.809,6.09-2.43,7.71
			c-1.6,1.62-4.07,2.43-7.41,2.43s-5.82-0.81-7.439-2.43c-1.621-1.62-2.43-4.19-2.43-7.71v-13.11H216.51z"/>
		<path fill="#240074" d="M247.963-67.83h-6.99v3.78h6.602v4.98h-6.602v3.9h6.99v4.98h-12.869v-22.62h12.869V-67.83z"/>
		<path fill="#240074" d="M57.604-23.43h1.95c2.16,0,3.24-0.939,3.24-2.82c0-1.879-1.08-2.819-3.24-2.819h-1.95V-23.43z
			 M57.604-11.19h-5.88v-22.62h9.36c2.54,0,4.479,0.66,5.819,1.979c1.36,1.32,2.04,3.181,2.04,5.58c0,2.4-0.68,4.261-2.04,5.58
			c-1.34,1.32-3.279,1.98-5.819,1.98h-3.48V-11.19z"/>
		<path fill="#240074" d="M83.096-19.59l-2.64-7.529l-2.64,7.529H83.096z M84.656-15.12h-8.4l-1.35,3.93h-6.271l8.61-22.62h6.42
			l8.61,22.62h-6.271L84.656-15.12z"/>
		<path fill="#240074" d="M100.729-23.7h1.11c1.16,0,2.05-0.24,2.67-0.721c0.62-0.479,0.93-1.17,0.93-2.069
			c0-0.9-0.31-1.591-0.93-2.07s-1.51-0.72-2.67-0.72h-1.11V-23.7z M113.659-11.19h-7.32l-5.61-8.7v8.7h-5.88v-22.62h9.15
			c1.26,0,2.359,0.19,3.3,0.57c0.94,0.36,1.71,0.86,2.31,1.5c0.62,0.64,1.08,1.38,1.381,2.22c0.319,0.84,0.479,1.74,0.479,2.7
			c0,1.72-0.42,3.12-1.26,4.2c-0.82,1.06-2.04,1.779-3.66,2.16L113.659-11.19z"/>
		<path fill="#240074" d="M124.729-28.831v17.641h-5.881v-17.641h-4.83v-4.979h15.541v4.979H124.729z"/>
		<path fill="#240074" d="M132.174-11.19v-22.62h5.879l10.861,13.83v-13.83h5.85v22.62h-5.85l-10.861-13.83v13.83H132.174z"/>
		<path fill="#240074" d="M172.377-28.831h-6.99v3.781h6.6v4.979h-6.6v3.899h6.99v4.98h-12.869v-22.62h12.869V-28.831z"/>
		<path fill="#240074" d="M182.498-23.7h1.109c1.16,0,2.051-0.24,2.67-0.721c0.619-0.479,0.93-1.17,0.93-2.069
			c0-0.9-0.311-1.591-0.93-2.07s-1.51-0.72-2.67-0.72h-1.109V-23.7z M195.428-11.19h-7.32l-5.609-8.7v8.7h-5.881v-22.62h9.15
			c1.26,0,2.359,0.19,3.299,0.57c0.941,0.36,1.711,0.86,2.311,1.5c0.621,0.64,1.08,1.38,1.381,2.22c0.32,0.84,0.479,1.74,0.479,2.7
			c0,1.72-0.42,3.12-1.26,4.2c-0.818,1.06-2.039,1.779-3.66,2.16L195.428-11.19z"/>
	</g>
</g>
</svg>
