<svg xmlns="http://www.w3.org/2000/svg" width="67.175" height="63.778" viewBox="0 0 67.175 63.778">
  <g id="Group_129" data-name="Group 129" transform="translate(-1210.079 -308.717)">
    <path id="Path_38" data-name="Path 38" d="M1247.2,316.308v56.187h-7.073V316.308Z" fill="#332083"/>
    <path id="Path_39" data-name="Path 39" d="M1238.824,313.559a4.688,4.688,0,0,1,.38-1.875,4.946,4.946,0,0,1,2.587-2.587,4.819,4.819,0,0,1,3.751,0,4.937,4.937,0,0,1,2.587,2.587,4.818,4.818,0,0,1,0,3.751,4.932,4.932,0,0,1-2.587,2.589,4.841,4.841,0,0,1-3.751,0,4.941,4.941,0,0,1-2.587-2.589A4.672,4.672,0,0,1,1238.824,313.559Z" fill="#332083"/>
    <g id="Group_46" data-name="Group 46">
      <path id="Path_40" data-name="Path 40" d="M1270.533,324.652l-25.208.01v15.617l24.915.08,7.015-7.853Z" fill="#fff"/>
      <path id="Path_41" data-name="Path 41" d="M1217.094,344.682h24.915V360.3l-24.915.08-7.015-7.853Z" fill="#fff"/>
    </g>
  </g>
</svg>
