<?xml version="1.0" encoding="utf-8"?>
<!-- Generator: Adobe Illustrator 16.0.0, SVG Export Plug-In . SVG Version: 6.00 Build 0)  -->
<!DOCTYPE svg PUBLIC "-//W3C//DTD SVG 1.1//EN" "http://www.w3.org/Graphics/SVG/1.1/DTD/svg11.dtd">
<svg version="1.1" id="Layer_1" xmlns="http://www.w3.org/2000/svg" xmlns:xlink="http://www.w3.org/1999/xlink" x="0px" y="0px"
	 width="176px" height="142.43px" viewBox="0 0 176 142.43" enable-background="new 0 0 176 142.43" xml:space="preserve">
<g id="Layer_2_3_">
	<g id="Layer_61">
		<path fill="#F2B725" d="M19.037,79.216h-5.765v3.18h5.467v4.175h-5.467v3.182h5.765v4.175H8.401V75.04h10.636V79.216z"/>
		<path fill="#F2B725" d="M22.517,75.04h7.157c1.193,0,2.485,0.298,3.579,0.795c2.187,0.994,3.977,2.783,4.871,5.069
			c0.994,2.287,0.994,4.871,0,7.157c-0.497,1.094-1.094,2.089-1.988,2.983c-0.796,0.894-1.789,1.591-2.982,2.087
			c-1.094,0.497-2.386,0.795-3.579,0.795h-7.158V75.04H22.517z M27.388,89.652h1.093c0.795,0,1.491-0.098,2.287-0.396
			c0.596-0.199,1.193-0.597,1.69-1.093c0.497-0.497,0.795-0.995,0.994-1.69c0.199-0.696,0.398-1.392,0.398-2.088
			s-0.1-1.392-0.398-2.087c-0.497-1.292-1.491-2.287-2.784-2.784c-0.695-0.297-1.491-0.397-2.187-0.397h-1.093V89.652z"/>
		<path fill="#F2B725" d="M46.971,75.04v10.14c0,0.596,0,1.094,0.099,1.688c0,0.498,0.199,1.095,0.398,1.592
			c0.197,0.496,0.596,0.895,0.993,1.094c0.596,0.297,1.194,0.496,1.889,0.397c0.596,0,1.292-0.101,1.889-0.397
			c0.398-0.299,0.795-0.696,0.995-1.094c0.198-0.497,0.397-0.994,0.397-1.592c0-0.595,0.099-1.093,0.099-1.688V75.04h4.871v10.835
			c0,2.882-0.695,5.069-1.987,6.362c-1.293,1.292-3.38,1.988-6.163,1.988c-2.785,0-4.871-0.696-6.164-1.988
			c-1.293-1.293-1.988-3.48-1.988-6.362V75.04H46.971z"/>
		<path fill="#F2B725" d="M75.799,81.303c-0.995-1.293-2.585-2.087-4.176-2.087c-0.695,0-1.391,0.098-1.987,0.396
			c-0.597,0.199-1.194,0.597-1.591,1.093c-0.497,0.498-0.795,0.995-1.094,1.592c-0.298,0.596-0.398,1.292-0.398,1.988
			c0,0.694,0.1,1.391,0.398,2.087c0.199,0.597,0.597,1.192,1.094,1.689c0.497,0.499,0.994,0.796,1.591,1.094
			c0.596,0.298,1.292,0.398,1.987,0.398c1.591,0,3.181-0.797,4.176-1.989v5.767l-0.498,0.198c-0.696,0.199-1.392,0.397-2.087,0.596
			c-0.596,0.101-1.292,0.199-1.889,0.199c-2.584,0-5.07-0.993-6.858-2.783c-0.895-0.895-1.69-1.987-2.188-3.18
			c-1.093-2.586-1.093-5.369,0-7.954c0.498-1.191,1.293-2.187,2.188-3.081c0.894-0.896,1.987-1.491,3.181-1.988
			c1.193-0.497,2.485-0.696,3.778-0.696c0.695,0,1.491,0.1,2.187,0.199c0.795,0.199,1.491,0.397,2.286,0.696v5.766H75.799z"/>
		<path fill="#F2B725" d="M90.909,90.547h-6.958l-1.194,3.28h-5.168l7.156-18.688h5.369l7.157,18.688h-5.17L90.909,90.547z
			 M89.616,86.868l-2.187-6.262l-2.188,6.262H89.616z"/>
		<path fill="#F2B725" d="M105.622,79.216v14.611h-4.872V79.216h-3.977v-4.077h12.924v4.077H105.622z"/>
		<path fill="#F2B725" d="M116.655,75.04v18.688h-4.871V75.04H116.655z"/>
		<path fill="#F2B725" d="M119.737,84.484c0-1.292,0.298-2.684,0.795-3.877c0.497-1.192,1.193-2.286,2.188-3.182
			c0.895-0.895,2.087-1.59,3.28-2.087c2.684-0.994,5.666-0.994,8.351,0c1.192,0.497,2.385,1.192,3.28,2.087
			c0.894,0.896,1.689,1.989,2.188,3.182c0.993,2.485,0.993,5.269,0,7.755c-0.498,1.192-1.194,2.285-2.188,3.18
			c-0.994,0.896-2.088,1.591-3.28,2.088c-2.685,0.994-5.667,0.994-8.351,0c-1.193-0.497-2.287-1.192-3.28-2.088
			c-0.896-0.895-1.69-1.987-2.188-3.18C119.936,87.068,119.737,85.776,119.737,84.484z M124.807,84.484
			c0,0.696,0.099,1.392,0.397,2.087c0.299,0.597,0.695,1.193,1.094,1.69c0.496,0.496,1.094,0.795,1.69,1.094
			c1.292,0.496,2.782,0.496,4.075,0c0.597-0.299,1.193-0.598,1.69-1.094c0.496-0.497,0.895-0.994,1.191-1.69
			c0.598-1.292,0.598-2.783,0-4.175c-0.297-0.596-0.695-1.192-1.191-1.69c-0.993-0.993-2.287-1.489-3.679-1.489
			c-0.696,0-1.392,0.098-1.988,0.396s-1.192,0.597-1.688,1.093c-0.499,0.498-0.896,0.995-1.194,1.69
			C125.006,82.992,124.807,83.688,124.807,84.484L124.807,84.484z"/>
		<path fill="#F2B725" d="M143.595,93.827V75.04h4.87l8.948,11.432V75.04h4.87v18.688h-4.87l-8.948-11.432v11.432h-4.87V93.827z"/>
		<path fill="#F2B725" d="M63.075,106.156h7.058v-7.257h4.871v18.787h-4.871v-7.754h-7.058v7.754h-4.871V98.899h4.871V106.156z"/>
		<path fill="#F2B725" d="M83.752,98.899v10.138c0,0.597,0,1.095,0.1,1.69c0,0.497,0.199,1.095,0.396,1.592
			c0.199,0.496,0.598,0.895,0.994,1.091c0.597,0.3,1.193,0.499,1.89,0.398c0.695,0,1.291-0.099,1.889-0.398
			c0.397-0.297,0.795-0.695,0.993-1.091c0.199-0.497,0.3-0.996,0.397-1.592c0-0.596,0.1-1.094,0.1-1.69V98.899h4.872v10.834
			c0,2.883-0.696,5.07-1.988,6.362c-1.293,1.392-3.381,1.988-6.163,1.988c-2.784,0-4.772-0.696-6.163-1.988
			c-1.393-1.292-1.989-3.479-1.989-6.362V98.899H83.752z"/>
		<path fill="#F2B725" d="M99.159,98.899h7.257c1.392-0.101,2.884,0.297,3.977,1.191c0.894,0.895,1.392,2.286,1.293,3.579
			c0,0.795-0.101,1.591-0.498,2.386c-0.397,0.695-0.895,1.191-1.59,1.59c0.596,0.101,1.192,0.3,1.789,0.598
			c0.497,0.197,0.895,0.596,1.193,0.994c0.298,0.396,0.497,0.895,0.695,1.291c0.1,0.498,0.198,1.095,0.198,1.592
			c0,0.794-0.099,1.59-0.496,2.286c-0.298,0.696-0.696,1.292-1.292,1.689c-0.596,0.496-1.293,0.795-1.988,0.994
			c-0.895,0.199-1.789,0.397-2.685,0.397h-7.952V98.899H99.159z M104.03,106.253h0.896c1.49,0,2.286-0.596,2.286-1.789
			c0-1.192-0.796-1.789-2.286-1.789h-0.896V106.253z M104.03,113.908h1.095c0.894,0.099,1.787-0.101,2.584-0.499
			c0.497-0.297,0.795-0.894,0.795-1.49s-0.298-1.192-0.795-1.491c-0.797-0.396-1.69-0.496-2.584-0.496h-1.095V113.908z"/>
		<g id="Statue_2_">
			<rect x="44.585" y="54.76" fill="#FFE38F" width="81.514" height="15.11"/>
			<path fill="#FFCC33" d="M81.068,5.455H55.619v48.113h25.449c0.396,0,0.895,0,1.291,0.099l0.397,0.1
				c0.3,0.099,0.498,0.199,0.697,0.298c0.198,0.099,0.397,0.199,0.497,0.298c0.297,0.298,0.595,0.597,0.794,0.895
				c0.101,0.099,0.2,0.298,0.3,0.498s0.197,0.398,0.197,0.597V9.63C85.342,7.344,83.454,5.455,81.068,5.455z M81.068,47.902H59.795
				c-0.795-0.1-1.392-0.795-1.292-1.491c0.099-0.696,0.596-1.194,1.292-1.293h21.273c0.794,0.1,1.391,0.795,1.291,1.492
				C82.359,47.305,81.764,47.802,81.068,47.902z M81.068,39.353H59.795c-0.795-0.1-1.392-0.795-1.292-1.491
				c0.099-0.696,0.596-1.193,1.292-1.292h21.273c0.794,0.099,1.391,0.794,1.291,1.491C82.359,38.756,81.764,39.353,81.068,39.353z
				 M81.068,30.903H59.795c-0.795-0.099-1.392-0.795-1.292-1.491c0.099-0.695,0.596-1.192,1.292-1.292h21.273
				c0.794,0.099,1.391,0.794,1.291,1.491C82.359,30.307,81.764,30.804,81.068,30.903z M81.068,22.454H59.795
				c-0.795-0.1-1.392-0.795-1.292-1.491c0.099-0.696,0.596-1.193,1.292-1.292h21.273c0.794,0.1,1.391,0.795,1.291,1.491
				C82.359,21.758,81.764,22.354,81.068,22.454z M81.068,13.905H59.795c-0.795-0.1-1.392-0.795-1.292-1.491
				c0.099-0.695,0.596-1.194,1.292-1.293h21.273c0.794,0.099,1.391,0.795,1.291,1.492C82.359,13.308,81.764,13.905,81.068,13.905z"
				/>
			<path fill="#FFEBAD" d="M81.068,11.121H59.795c-0.795,0.099-1.392,0.795-1.292,1.492c0.099,0.695,0.596,1.192,1.292,1.292h21.273
				c0.794-0.1,1.391-0.795,1.291-1.491C82.359,11.719,81.764,11.121,81.068,11.121z"/>
			<path fill="#FFEBAD" d="M81.068,19.571H59.795c-0.795,0.1-1.392,0.795-1.292,1.491c0.099,0.696,0.596,1.193,1.292,1.293h21.273
				c0.794-0.1,1.391-0.795,1.291-1.491C82.359,20.168,81.764,19.67,81.068,19.571z"/>
			<path fill="#FFEBAD" d="M81.068,45.018H59.795c-0.795,0.1-1.392,0.795-1.292,1.492c0.099,0.696,0.596,1.193,1.292,1.292h21.273
				c0.794-0.1,1.391-0.795,1.291-1.491C82.359,45.615,81.764,45.118,81.068,45.018z"/>
			<path fill="#FFEBAD" d="M81.068,36.57H59.795c-0.795,0.099-1.392,0.794-1.292,1.491c0.099,0.696,0.596,1.193,1.292,1.292h21.273
				c0.794-0.1,1.391-0.795,1.291-1.491C82.359,37.166,81.764,36.57,81.068,36.57z"/>
			<path fill="#FFEBAD" d="M81.068,28.12H59.795c-0.795,0.099-1.392,0.794-1.292,1.491c0.099,0.696,0.596,1.193,1.292,1.292h21.273
				c0.794-0.099,1.391-0.795,1.291-1.491C82.359,28.717,81.764,28.12,81.068,28.12z"/>
			<path fill="#FFD65C" d="M85.342,9.729v46.722c0.1-0.099,0.1-0.397,0.199-0.597c0.099-0.198,0.199-0.298,0.298-0.497
				c0.199-0.298,0.497-0.695,0.795-0.894c0.199-0.1,0.299-0.199,0.498-0.298c0.198-0.099,0.497-0.199,0.695-0.298l0.398-0.099
				c0.396-0.1,0.894-0.1,1.292-0.1h25.449V5.455H89.518C87.231,5.455,85.342,7.344,85.342,9.729z M88.226,46.51
				c0-0.795,0.596-1.392,1.391-1.392h21.274c0.795,0.1,1.391,0.795,1.291,1.492c-0.1,0.696-0.597,1.193-1.291,1.292H89.616
				C88.821,47.902,88.226,47.206,88.226,46.51L88.226,46.51z M88.226,37.961c0-0.795,0.596-1.392,1.391-1.392h21.274
				c0.795,0.099,1.391,0.794,1.291,1.491c-0.1,0.696-0.597,1.193-1.291,1.292H89.616C88.821,39.353,88.226,38.756,88.226,37.961
				L88.226,37.961z M88.226,29.511c0-0.795,0.596-1.391,1.391-1.391h21.274c0.795,0.099,1.391,0.794,1.291,1.491
				c-0.1,0.696-0.597,1.193-1.291,1.292H89.616C88.821,30.903,88.226,30.307,88.226,29.511z M88.226,20.963
				c0-0.795,0.596-1.392,1.391-1.392l0,0h21.274c0.795,0.1,1.391,0.795,1.291,1.491c-0.1,0.696-0.597,1.193-1.291,1.293H89.616
				C88.821,22.454,88.226,21.758,88.226,20.963z M88.226,12.513c0-0.794,0.596-1.392,1.391-1.392h21.274
				c0.795,0.099,1.391,0.795,1.291,1.492c-0.1,0.695-0.597,1.192-1.291,1.292H89.616C88.821,13.905,88.226,13.308,88.226,12.513z"/>
			<path fill="#FFEBAD" d="M89.616,11.121h21.274c0.795,0.099,1.391,0.795,1.291,1.492c-0.1,0.695-0.597,1.192-1.291,1.292H89.616
				c-0.795,0.1-1.49-0.497-1.49-1.292c-0.1-0.795,0.496-1.492,1.292-1.492C89.418,11.121,89.518,11.121,89.616,11.121z"/>
			<path fill="#FFEBAD" d="M89.616,19.571h21.274c0.795,0.1,1.391,0.795,1.291,1.491c-0.1,0.696-0.597,1.193-1.291,1.293H89.616
				c-0.795,0.1-1.49-0.498-1.49-1.293c-0.1-0.794,0.496-1.491,1.292-1.491C89.418,19.571,89.518,19.571,89.616,19.571z"/>
			<path fill="#FFEBAD" d="M89.616,45.018h21.274c0.795,0.1,1.391,0.795,1.291,1.492c-0.1,0.696-0.597,1.193-1.291,1.292H89.616
				c-0.795,0.1-1.49-0.497-1.49-1.292c-0.1-0.795,0.496-1.492,1.292-1.492C89.418,45.018,89.518,45.018,89.616,45.018z"/>
			<path fill="#FFEBAD" d="M89.616,36.57h21.274c0.795,0.099,1.391,0.794,1.291,1.491c-0.1,0.696-0.597,1.193-1.291,1.292H89.616
				c-0.795,0.1-1.49-0.497-1.49-1.292c-0.1-0.795,0.496-1.491,1.292-1.491C89.418,36.57,89.518,36.57,89.616,36.57z"/>
			<path fill="#FFEBAD" d="M89.616,28.12h21.274c0.795,0.099,1.391,0.794,1.291,1.491c-0.1,0.696-0.597,1.193-1.291,1.292H89.616
				c-0.795,0.1-1.49-0.497-1.49-1.292c-0.1-0.795,0.496-1.491,1.292-1.491C89.418,28.021,89.518,28.021,89.616,28.12z"/>
			<path fill="#FFD65C" d="M85.242,55.954c-0.098-0.101-0.098-0.299-0.197-0.398c0-0.1-0.1-0.199-0.199-0.298
				c-0.101-0.199-0.199-0.298-0.3-0.397l-0.099-0.199c-0.199-0.199-0.297-0.298-0.496-0.397l-0.199-0.1
				c-0.1-0.099-0.298-0.199-0.497-0.298l-0.198-0.099c-0.199-0.1-0.3-0.1-0.498-0.199c-0.1,0-0.1,0-0.199-0.099
				c-0.199-0.1-0.497-0.1-0.694-0.1H57.012c-0.796,0-1.393-0.597-1.393-1.392V5.256h-3.578v50.897h33.301c0,0,0-0.1,0-0.199
				C85.242,56.153,85.242,56.053,85.242,55.954z"/>
			<path fill="#FFCC33" d="M85.441,56.053c0.1-0.099,0.1-0.298,0.198-0.398l0.101-0.199c0.099-0.199,0.198-0.298,0.397-0.497
				l0.101-0.1c0.197-0.199,0.396-0.298,0.595-0.497l0.199-0.099c0.1-0.1,0.298-0.199,0.496-0.298l0.199-0.1
				c0.199-0.099,0.299-0.099,0.498-0.199c0.099,0,0.099,0,0.198-0.099c0.198-0.099,0.497-0.099,0.695-0.099h24.653
				c0.695,0,1.292-0.597,1.292-1.393V5.356h3.479v50.896H85.342c0,0,0-0.099,0-0.199H85.441z"/>
		</g>
	</g>
</g>
</svg>
