<?xml version="1.0" encoding="utf-8"?>
<!-- Generator: Adobe Illustrator 16.0.0, SVG Export Plug-In . SVG Version: 6.00 Build 0)  -->
<!DOCTYPE svg PUBLIC "-//W3C//DTD SVG 1.1//EN" "http://www.w3.org/Graphics/SVG/1.1/DTD/svg11.dtd">
<svg version="1.1" id="Layer_1" xmlns="http://www.w3.org/2000/svg" xmlns:xlink="http://www.w3.org/1999/xlink" x="0px" y="0px"
	 width="198px" height="143.939px" viewBox="0 0 198 143.939" enable-background="new 0 0 198 143.939" xml:space="preserve">
<g>
	<defs>
		<rect id="SVGID_1_" x="14.234" y="6.191" width="163.266" height="113.939"/>
	</defs>
	<clipPath id="SVGID_2_">
		<use xlink:href="#SVGID_1_"  overflow="visible"/>
	</clipPath>
	<g clip-path="url(#SVGID_2_)">
		<path fill="#1D0777" d="M29.637,81.124h-5.764v3.177h5.466v4.169h-5.466v3.176h5.764v4.169H19.004V77.056h10.633V81.124z"/>
		<path fill="#1D0777" d="M33.115,77.056h7.154c1.292,0,2.484,0.298,3.578,0.794c1.093,0.497,2.087,1.191,2.881,2.085
			c0.795,0.894,1.49,1.885,1.988,2.977c0.497,1.092,0.695,2.282,0.695,3.573c0,1.191-0.199,2.383-0.695,3.572
			c-0.498,1.093-1.093,2.085-1.988,2.978c-0.794,0.895-1.788,1.588-2.98,2.085c-1.094,0.496-2.286,0.794-3.578,0.794h-7.055V77.056z
			 M37.984,91.646h1.093c0.795,0,1.59-0.099,2.286-0.396c0.696-0.3,1.193-0.599,1.689-1.094s0.795-0.992,0.994-1.687
			c0.199-0.596,0.397-1.292,0.397-2.084c0-0.794-0.1-1.389-0.397-2.085c-0.298-0.693-0.497-1.19-0.994-1.687
			c-0.497-0.497-0.994-0.795-1.689-1.092c-0.696-0.298-1.391-0.398-2.186-0.398h-1.093v10.521H37.984z"/>
		<path fill="#1D0777" d="M57.56,77.056v10.122c0,0.498,0,1.093,0.099,1.689c0,0.595,0.199,1.091,0.397,1.588
			c0.199,0.495,0.497,0.795,0.994,1.092c0.497,0.298,1.094,0.396,1.888,0.396c0.795,0,1.391-0.099,1.888-0.396
			c0.398-0.297,0.795-0.695,0.993-1.092c0.199-0.497,0.299-0.993,0.398-1.588c0-0.597,0.099-1.093,0.099-1.689V77.056h4.869v10.818
			c0,2.878-0.695,5.062-1.988,6.352c-1.292,1.291-3.378,1.984-6.161,1.984s-4.869-0.693-6.16-1.984
			c-1.292-1.29-1.988-3.474-1.988-6.352V77.056H57.56z"/>
		<path fill="#1D0777" d="M86.377,83.309c-1.093-1.391-2.484-2.084-4.173-2.084c-0.696,0-1.391,0.098-1.988,0.396
			c-0.596,0.297-1.192,0.597-1.59,1.091c-0.496,0.497-0.794,0.992-1.092,1.589c-0.298,0.596-0.398,1.291-0.398,1.985
			c0,0.795,0.1,1.39,0.398,2.084c0.298,0.595,0.596,1.19,1.092,1.687c0.497,0.497,0.994,0.795,1.59,1.093
			c0.597,0.296,1.292,0.397,1.988,0.397c1.59,0,2.981-0.695,4.173-1.986v5.758l-0.497,0.198c-0.795,0.298-1.49,0.495-2.086,0.596
			c-0.696,0.098-1.292,0.198-1.888,0.198c-1.292,0-2.484-0.198-3.677-0.695c-1.193-0.496-2.186-1.191-3.081-2.084
			c-0.894-0.892-1.59-1.984-2.187-3.177c-0.595-1.19-0.794-2.58-0.794-3.969c0-1.489,0.298-2.778,0.794-3.972
			c0.498-1.189,1.292-2.183,2.187-3.074c0.895-0.895,1.987-1.59,3.18-2.086c1.193-0.497,2.485-0.694,3.777-0.694
			c0.795,0,1.49,0.1,2.186,0.197c0.695,0.2,1.49,0.398,2.285,0.695v5.856H86.377z"/>
		<path fill="#1D0777" d="M101.382,92.539h-6.956l-1.092,3.275h-5.168l7.155-18.659h5.368l7.153,18.659h-5.167L101.382,92.539z
			 M100.091,88.768l-2.188-6.153l-2.186,6.153H100.091z"/>
		<path fill="#1D0777" d="M116.188,81.124v14.591h-4.869V81.124h-3.975v-4.068h12.918v4.068H116.188z"/>
		<path fill="#1D0777" d="M127.219,77.056v18.659h-4.869V77.056H127.219z"/>
		<path fill="#1D0777" d="M130.301,86.386c0-1.389,0.296-2.682,0.793-3.871c0.496-1.192,1.192-2.283,2.086-3.175
			c0.896-0.895,1.988-1.59,3.28-2.086c1.292-0.497,2.683-0.794,4.174-0.794c1.49,0,2.882,0.297,4.174,0.794
			c1.291,0.496,2.384,1.191,3.279,2.086c0.894,0.892,1.59,1.982,2.186,3.175c0.596,1.189,0.796,2.482,0.796,3.871
			s-0.299,2.679-0.796,3.871c-0.497,1.188-1.191,2.282-2.186,3.175c-0.896,0.894-1.988,1.589-3.279,2.085
			c-1.292,0.495-2.684,0.794-4.174,0.794c-1.491,0-2.882-0.299-4.174-0.794c-1.292-0.496-2.385-1.191-3.28-2.085
			c-0.894-0.893-1.59-1.986-2.086-3.175C130.497,89.065,130.301,87.775,130.301,86.386z M135.368,86.386
			c0,0.792,0.099,1.389,0.396,2.084c0.299,0.595,0.696,1.191,1.193,1.587c0.496,0.497,0.993,0.795,1.689,1.093
			c0.597,0.296,1.291,0.397,1.987,0.397c0.694,0,1.392-0.102,1.988-0.397c0.595-0.298,1.191-0.596,1.688-1.093
			c0.497-0.496,0.896-0.992,1.191-1.587c0.3-0.596,0.398-1.292,0.398-2.084c0-0.794-0.099-1.389-0.398-2.085
			c-0.296-0.597-0.694-1.19-1.191-1.687c-0.497-0.497-1.094-0.795-1.688-1.092c-0.597-0.298-1.294-0.398-1.988-0.398
			c-0.696,0-1.391,0.101-1.987,0.398c-0.597,0.297-1.193,0.595-1.689,1.092c-0.497,0.496-0.895,0.993-1.193,1.687
			C135.467,84.997,135.368,85.692,135.368,86.386z"/>
		<path fill="#1D0777" d="M154.05,95.715V77.056h4.868l8.943,11.414V77.056h4.869v18.659h-4.869l-8.943-11.414v11.414H154.05z"/>
		<path fill="#1D0777" d="M27.549,112.389c0.995-0.894,1.79-1.786,2.386-2.68l2.782,2.68c-0.298,0.397-0.597,0.793-0.994,1.189
			c-0.398,0.398-0.795,0.795-1.192,1.193l-0.397,0.396l4.173,4.468h-6.062l-1.689-1.688c-2.186,1.489-4.373,2.184-6.459,2.184
			c-0.895,0-1.689-0.099-2.385-0.396c-0.696-0.299-1.392-0.598-1.889-1.094c-0.497-0.495-0.993-1.091-1.192-1.687
			c-0.199-0.597-0.398-1.489-0.398-2.183c0-0.696,0.1-1.29,0.299-1.887c0.198-0.496,0.496-1.091,0.993-1.588
			c0.298-0.397,0.696-0.694,1.192-0.992c0.397-0.298,0.895-0.596,1.59-0.794l0.497-0.199l-0.298-0.396
			c-0.994-1.191-1.491-2.381-1.491-3.474c0-0.695,0.199-1.389,0.497-2.084c0.297-0.695,0.695-1.192,1.192-1.589
			c0.497-0.496,1.093-0.793,1.887-1.092c0.597-0.199,1.392-0.298,2.187-0.298s1.59,0.099,2.285,0.396
			c0.696,0.298,1.292,0.597,1.889,1.092c0.496,0.497,0.894,0.993,1.192,1.589c0.298,0.597,0.397,1.29,0.397,1.985
			c0,0.495-0.1,0.993-0.199,1.39c-0.099,0.398-0.298,0.794-0.596,1.189c-0.299,0.397-0.597,0.695-1.094,0.993
			c-0.397,0.298-0.993,0.695-1.59,0.993L27.549,112.389z M20.991,111.794c-1.192,0.693-1.789,1.487-1.789,2.183
			c0,0.298,0.099,0.497,0.198,0.693c0.1,0.2,0.299,0.398,0.497,0.598c0.199,0.197,0.398,0.298,0.695,0.396
			c0.299,0.1,0.498,0.1,0.795,0.1c0.795,0,1.689-0.299,2.584-0.795L20.991,111.794z M23.078,107.724
			c1.192-0.695,1.789-1.488,1.789-2.383c0-0.494-0.2-0.892-0.497-1.189c-0.298-0.299-0.696-0.497-1.193-0.497
			c-0.397,0-0.795,0.198-1.093,0.497c-0.298,0.298-0.397,0.695-0.397,1.091C21.588,105.839,22.084,106.631,23.078,107.724z"/>
		<path fill="#1D0777" d="M51.896,104.946v14.59h-4.869v-14.59h-3.975v-4.069H55.97v4.069H51.896z"/>
		<path fill="#1D0777" d="M73.658,119.535h-6.062l-4.67-7.146v7.146h-4.869v-18.659h7.552c1.093,0,1.987,0.197,2.782,0.496
			s1.391,0.694,1.888,1.29c0.497,0.495,0.895,1.19,1.193,1.787c0.298,0.695,0.398,1.39,0.398,2.182c0,1.39-0.298,2.582-0.994,3.474
			c-0.696,0.896-1.69,1.489-3.081,1.788L73.658,119.535z M62.926,109.213h0.894c0.994,0,1.689-0.199,2.187-0.595
			c0.497-0.397,0.795-0.993,0.795-1.689c0-0.693-0.298-1.289-0.795-1.687c-0.498-0.396-1.292-0.596-2.187-0.596h-0.894V109.213z"/>
		<path fill="#1D0777" d="M87.073,116.358h-6.956l-1.093,3.277h-5.167l7.154-18.659h5.366l7.156,18.659h-5.168L87.073,116.358z
			 M85.781,112.588l-2.186-6.253l-2.186,6.253H85.781z"/>
		<path fill="#1D0777" d="M100.388,100.876v18.659H95.52v-18.659H100.388z"/>
		<path fill="#1D0777" d="M104.362,119.535v-18.659h4.87l8.944,11.413v-11.413h4.868v18.659h-4.868l-8.944-11.414v11.414H104.362z"
			/>
		<path fill="#1D0777" d="M131.891,100.876v18.659h-4.871v-18.659H131.891z"/>
		<path fill="#1D0777" d="M135.764,119.535v-18.659h4.87l8.942,11.413v-11.413h4.87v18.659h-4.87l-8.942-11.414v11.414H135.764z"/>
		<path fill="#1D0777" d="M167.861,109.114h9.639c0,0.991,0,1.887-0.098,2.681c-0.101,0.794-0.2,1.589-0.497,2.281
			c-0.299,0.993-0.797,1.886-1.392,2.582c-0.597,0.793-1.292,1.389-2.087,1.885c-0.796,0.498-1.689,0.894-2.684,1.192
			c-0.993,0.297-1.987,0.396-2.981,0.396c-1.49,0-2.781-0.198-3.975-0.694c-1.192-0.496-2.186-1.19-3.08-1.985
			c-0.895-0.893-1.491-1.885-1.988-3.176c-0.496-1.19-0.695-2.581-0.695-4.069c0-1.489,0.199-2.779,0.695-3.97
			c0.497-1.191,1.094-2.284,1.988-3.078c0.895-0.793,1.888-1.486,3.178-1.983c1.194-0.497,2.585-0.696,4.076-0.696
			c1.987,0,3.676,0.398,5.167,1.291c1.489,0.795,2.684,2.183,3.479,3.871l-4.572,1.886c-0.397-0.991-0.993-1.786-1.688-2.185
			c-0.695-0.396-1.491-0.694-2.385-0.694c-0.695,0-1.391,0.1-1.988,0.397c-0.597,0.297-1.093,0.695-1.489,1.191
			c-0.397,0.496-0.795,1.091-0.994,1.785c-0.199,0.695-0.397,1.49-0.397,2.383c0,0.794,0.099,1.489,0.298,2.185
			c0.199,0.693,0.495,1.29,0.895,1.785c0.397,0.497,0.894,0.895,1.491,1.192c0.596,0.298,1.292,0.396,2.186,0.396
			c0.497,0,0.994-0.098,1.391-0.197c0.497-0.1,0.896-0.299,1.193-0.496c0.397-0.199,0.695-0.598,0.895-0.895
			c0.197-0.396,0.397-0.892,0.496-1.39h-3.975v-3.87H167.861z"/>
		<path fill="#A49AC3" d="M119.269,58.397H72.564v13.896h46.704V58.397z"/>
		<path fill="#A49AC3" d="M119.667,34.577H72.068v2.481h47.599V34.577z"/>
		<path fill="#A49AC3" d="M119.667,6.191H72.068v2.481h47.599V6.191z"/>
		<path fill="#1D0777" d="M93.691,15.144L78.026,60.037l1.688,0.588l15.666-44.893L93.691,15.144z"/>
		<path fill="#1D0777" d="M96.56,58.38V37.041h-1.788L94.771,58.38H96.56z"/>
		<path fill="#1D0777" d="M96.932,15.766l15.664,44.892l1.689-0.587L98.62,15.178L96.932,15.766z"/>
		<path fill="#5F4E95" d="M115.989,8.673H75.745v25.904h40.244V8.673z"/>
	</g>
</g>
</svg>
