<?xml version="1.0" encoding="utf-8"?>
<!-- Generator: Adobe Illustrator 16.0.0, SVG Export Plug-In . SVG Version: 6.00 Build 0)  -->
<!DOCTYPE svg PUBLIC "-//W3C//DTD SVG 1.1//EN" "http://www.w3.org/Graphics/SVG/1.1/DTD/svg11.dtd">
<svg version="1.1" id="Layer_1" xmlns="http://www.w3.org/2000/svg" xmlns:xlink="http://www.w3.org/1999/xlink" x="0px" y="0px"
	 width="188px" height="141.223px" viewBox="0 0 188 141.223" enable-background="new 0 0 188 141.223" xml:space="preserve">
<g id="Layer_2_2_">
	<g id="Layer_71">
		<path fill="#1D0777" d="M18.938,69.653c-0.98-1.275-2.451-2.061-4.118-2.061c-0.687,0-1.373,0.098-1.962,0.392
			c-0.588,0.197-1.176,0.589-1.568,1.079c-0.491,0.491-0.784,0.981-1.079,1.569c-0.294,0.588-0.393,1.274-0.393,1.962
			c0,0.686,0.099,1.372,0.393,2.059c0.196,0.588,0.588,1.177,1.079,1.568c0.49,0.49,0.98,0.784,1.568,1.079
			c0.589,0.294,1.275,0.393,1.962,0.393c1.568,0,3.137-0.785,4.118-1.962v5.687l-0.49,0.197c-0.687,0.195-1.373,0.392-2.06,0.588
			c-0.588,0.099-1.274,0.196-1.863,0.196c-2.55,0-4.903-0.981-6.765-2.746c-0.884-0.882-1.668-1.96-2.158-3.137
			c-1.079-2.55-1.079-5.296,0-7.845c0.98-2.255,2.843-4.118,5.196-5.098c1.177-0.49,2.452-0.686,3.727-0.686
			c0.686,0,1.471,0.098,2.157,0.196c0.784,0.196,1.471,0.392,2.255,0.686V69.653L18.938,69.653z"/>
		<path fill="#1D0777" d="M21.39,72.79c0-4.021,2.353-7.55,6.08-9.021c1.274-0.49,2.745-0.784,4.118-0.784s2.843,0.196,4.118,0.784
			c1.177,0.491,2.354,1.176,3.235,2.059c3.825,3.825,3.825,9.903,0.099,13.825l-0.099,0.099c-0.979,0.882-2.058,1.568-3.235,2.059
			c-1.275,0.491-2.746,0.785-4.118,0.785s-2.844-0.196-4.118-0.785C23.841,80.34,21.39,76.712,21.39,72.79z M26.489,72.79
			c0,0.687,0.098,1.372,0.393,2.06c1.176,2.549,4.118,3.726,6.765,2.647c0.588-0.294,1.177-0.589,1.667-1.078
			c0.491-0.491,0.882-0.982,1.176-1.667c0.295-0.688,0.393-1.374,0.393-2.061s-0.098-1.372-0.393-2.059
			c-0.294-0.588-0.686-1.176-1.176-1.667c-1.471-1.471-3.726-1.863-5.687-1.078c-0.588,0.196-1.177,0.588-1.667,1.078
			c-0.489,0.491-0.882,0.98-1.078,1.667C26.587,71.319,26.391,72.005,26.489,72.79L26.489,72.79z"/>
		<path fill="#1D0777" d="M44.04,81.908l3.138-18.531h4.806l3.725,9.805l3.726-9.805h4.708l3.136,18.531h-4.805l-1.567-10.589
			l-4.413,10.589h-1.962l-4.118-10.589l-1.568,10.589H44.04z"/>
		<path fill="#1D0777" d="M69.436,81.908l3.138-18.531h4.707l3.726,9.805l3.727-9.805h4.705l3.139,18.531h-4.804l-1.57-10.589
			l-4.313,10.589h-1.962L75.81,71.319l-1.57,10.589H69.436z"/>
		<path fill="#1D0777" d="M100.421,63.475v10.001c0,0.588,0,1.078,0.098,1.667c0,0.49,0.099,1.078,0.393,1.568
			c0.196,0.491,0.588,0.883,0.98,1.078c0.587,0.295,1.177,0.491,1.862,0.393c0.688,0,1.274-0.098,1.864-0.393
			c0.391-0.293,0.784-0.686,0.98-1.078c0.196-0.49,0.392-0.98,0.392-1.568c0-0.589,0.099-1.079,0.099-1.667V63.475h4.804v10.687
			c0,2.844-0.687,5.001-1.961,6.275c-1.275,1.373-3.333,1.962-6.079,1.962c-2.745,0-4.707-0.687-6.08-1.962
			c-1.373-1.274-1.961-3.432-1.961-6.275V63.475H100.421L100.421,63.475z"/>
		<path fill="#1D0777" d="M115.619,81.908V63.475h4.804l8.825,11.277V63.475h4.805v18.433h-4.805l-8.825-11.275v11.275H115.619z"/>
		<path fill="#1D0777" d="M142.779,63.475v18.433h-4.804V63.475H142.779z"/>
		<path fill="#1D0777" d="M153.664,67.593v14.315h-4.805V67.494h-3.923v-4.02h12.648v4.02h-3.921V67.593z"/>
		<path fill="#1D0777" d="M165.332,73.084l-6.767-9.609h5.786l3.432,5.099l3.432-5.099H177l-6.766,9.609v8.824h-4.805v-8.824
			H165.332z"/>
		<path fill="#1D0777" d="M56.885,93.185c-0.98-1.274-2.45-2.061-4.118-2.061c-0.687,0-1.374,0.1-1.962,0.394
			c-0.588,0.196-1.176,0.588-1.666,1.078c-0.491,0.491-0.785,0.979-1.079,1.569c-0.294,0.588-0.392,1.274-0.392,1.96
			c0,0.687,0.098,1.373,0.392,2.06c0.196,0.589,0.588,1.176,1.079,1.568c0.49,0.49,0.98,0.784,1.569,1.079
			c0.588,0.295,1.275,0.393,1.961,0.393c1.568,0,3.138-0.784,4.118-1.962v5.688l-0.49,0.196c-0.687,0.195-1.372,0.392-2.06,0.588
			c-1.862,0.393-3.824,0.196-5.589-0.588c-1.176-0.49-2.156-1.176-3.039-2.06c-0.883-0.882-1.667-1.96-2.157-3.137
			c-0.588-1.275-0.784-2.55-0.784-3.922c0-1.373,0.294-2.647,0.784-3.923c0.98-2.354,2.842-4.118,5.196-5.099
			c1.177-0.491,2.452-0.687,3.727-0.687c0.687,0,1.47,0.098,2.156,0.195c0.786,0.196,1.57,0.394,2.255,0.688L56.885,93.185z"/>
		<path fill="#1D0777" d="M70.416,91.125h-5.687v3.041h5.393v4.02h-5.393v3.139h5.687v4.019H59.827V86.91h10.589V91.125z"/>
		<path fill="#1D0777" d="M73.849,105.441V87.008h4.804l8.825,11.275V87.008h4.805v18.434h-4.706l-8.825-11.275v11.275H73.849z"/>
		<path fill="#1D0777" d="M103.264,91.125v14.316H98.46V91.026h-3.923v-4.019h12.747v4.019h-4.021V91.125z"/>
		<path fill="#1D0777" d="M124.64,105.441h-5.98l-4.609-7.06v7.06h-4.805V87.008h7.453c0.882,0,1.862,0.098,2.745,0.49
			c0.687,0.295,1.372,0.687,1.863,1.274c0.488,0.49,0.881,1.176,1.078,1.766c0.294,0.687,0.392,1.471,0.392,2.156
			c0.099,1.178-0.293,2.452-0.981,3.432c-0.783,0.884-1.861,1.57-3.039,1.767L124.64,105.441z M114.148,95.343h0.882
			c0.783,0.098,1.569-0.196,2.157-0.589c0.979-0.784,0.979-2.256,0.196-3.138c-0.099-0.098-0.099-0.098-0.196-0.196
			c-0.686-0.394-1.374-0.686-2.157-0.587h-0.882V95.343z"/>
		<path fill="#1D0777" d="M137.19,91.125h-5.687v3.041h5.394v4.02h-5.394v3.139h5.687v4.019h-10.492V86.91h10.492V91.125z"/>
		<g id="Statue_1_">
			<rect x="70.613" y="45.041" fill="#1D0777" width="40.495" height="13.826"/>
			<path fill="#5F4E95" d="M100.911,24.156L100.911,24.156l-4.609-3.825c-1.372,1.373-3.922,3.825-5,4.903
				c-3.04,2.843-7.256,3.138-10.1,0.687c-0.882-0.687-1.471-1.765-1.471-2.942c0.098-1.176,0.589-2.353,1.569-3.137l5.785-5.688
				l4.118-3.922c-0.784-0.588-1.668-1.176-2.452-1.764c-6.667-3.825-15.1-2.255-19.904,3.628c-3.236,3.921-4.118,8.825-2.745,14.315
				c0.882,3.432,2.745,6.472,5.294,8.922c0.196-0.98,0.688-1.863,1.373-2.451l4.511-4.413l0.097-0.098
				c1.962-1.569,4.806-1.177,6.375,0.687c0.687,0.784,1.078,1.764,1.078,2.745c1.176-0.098,2.354,0.294,3.139,1.079
				c0.882,0.882,1.371,2.059,1.469,3.334c1.276,0,2.55,0.588,3.435,1.568c0.587,0.785,0.979,1.668,0.979,2.648
				c1.274,0.098,2.45,0.686,3.334,1.667c0.587,0.784,0.979,1.667,1.176,2.647c0,0.882-0.196,1.863-0.589,2.648
				c1.373,0.392,2.746,0.196,3.923-0.588c1.078-0.785,1.766-2.06,1.863-3.432c1.177-0.097,2.255-0.588,3.138-1.372
				c0.784-0.883,1.275-2.06,1.372-3.236c1.275-0.098,2.55-0.588,3.432-1.569c0.296-0.294,0.491-0.588,0.688-0.98
				c0.393-0.883,0.489-1.863,0.293-2.844L100.911,24.156z"/>
			<path fill="#A49AC3" d="M116.207,21.116c-0.491-4.216-2.647-8.04-5.98-10.688c-3.236-2.55-7.453-3.727-11.669-3.236
				c-2.647,0.294-5.295,1.373-7.452,3.039l0,0l-4.118,3.922l-5.785,5.688c-0.882,0.784-1.471,1.961-1.568,3.137
				c0,1.177,0.587,2.255,1.471,2.942c2.843,2.451,7.06,2.157,10.1-0.687c1.078-1.078,3.628-3.53,5.001-4.903l4.608,3.825
				l11.471,9.413l0,0C115.324,30.137,116.698,25.626,116.207,21.116z"/>
			<path fill="#A49AC3" d="M98.264,44.844c-0.196-0.98-0.589-1.863-1.177-2.647c-0.882-0.981-2.059-1.569-3.333-1.667
				c0-0.98-0.394-1.863-0.981-2.647c-0.883-0.981-2.157-1.569-3.433-1.569c0-1.274-0.588-2.451-1.47-3.334
				c-0.883-0.784-2.061-1.177-3.236-1.079c-0.098-0.98-0.489-1.961-1.078-2.647c-1.568-1.962-4.413-2.255-6.374-0.785l-0.097,0.098
				l-4.512,4.413c-0.784,0.589-1.273,1.471-1.371,2.452l0,0c0.098,1.47,0.686,2.941,1.861,3.922
				c0.785,0.784,1.765,1.275,2.844,1.373c0.196,1.078,0.686,2.156,1.47,2.941c0.786,0.785,1.766,1.275,2.844,1.373
				c0.196,1.177,0.785,2.255,1.57,3.04c0.979,0.883,2.06,1.471,3.333,1.667c0.393,1.569,1.569,2.941,3.138,3.431
				c0.589,0.196,1.176,0.295,1.766,0.196c1.177,0,2.353-0.393,3.235-1.176L93.36,52.1l0.491-0.392
				c1.47-1.275,2.744-2.745,3.921-4.314C98.165,46.707,98.361,45.727,98.264,44.844z"/>
		</g>
	</g>
</g>
</svg>
