<?xml version="1.0" encoding="utf-8"?>
<!-- Generator: Adobe Illustrator 16.0.0, SVG Export Plug-In . SVG Version: 6.00 Build 0)  -->
<!DOCTYPE svg PUBLIC "-//W3C//DTD SVG 1.1//EN" "http://www.w3.org/Graphics/SVG/1.1/DTD/svg11.dtd">
<svg version="1.1" id="Layer_1" xmlns="http://www.w3.org/2000/svg" xmlns:xlink="http://www.w3.org/1999/xlink" x="0px" y="0px"
	 width="114px" height="139.221px" viewBox="0 0 114 139.221" enable-background="new 0 0 114 139.221" xml:space="preserve">
<g id="Layer_2_5_">
	<g id="Layer_11">
		<path fill="#FF6633" d="M12.609,65.336v14.668h5.888v4.19H7.721V65.336H12.609z"/>
		<path fill="#FF6633" d="M25.88,65.336v18.858h-4.889V65.336H25.88z"/>
		<path fill="#FF6633" d="M33.164,65.336l4.491,11.475l4.589-11.475h5.388l-7.982,18.858h-3.891l-7.883-18.858H33.164z"/>
		<path fill="#FF6633" d="M54.416,65.336v18.858h-4.888V65.336H54.416z"/>
		<path fill="#FF6633" d="M58.408,84.194V65.336h4.889l8.981,11.475V65.336h4.889v18.858h-4.889l-8.981-11.476v11.476H58.408z"/>
		<path fill="#FF6633" d="M90.637,73.618h9.679c0,0.898,0,1.797-0.101,2.693c-0.099,0.797-0.2,1.496-0.498,2.295
			c-0.299,0.897-0.799,1.796-1.397,2.594c-0.599,0.699-1.297,1.398-2.096,1.897c-0.798,0.498-1.696,0.896-2.593,1.197
			c-0.999,0.299-1.996,0.398-2.994,0.398c-1.396,0-2.694-0.199-3.991-0.699c-1.198-0.398-2.194-1.097-3.094-1.994
			c-0.896-0.898-1.596-1.996-1.995-3.193c-0.996-2.596-0.996-5.487,0-8.083c0.399-1.197,1.099-2.194,1.995-3.093
			c0.899-0.897,1.995-1.596,3.193-1.996c1.297-0.499,2.694-0.798,4.092-0.699c1.795,0,3.592,0.399,5.187,1.297
			c1.598,0.898,2.795,2.295,3.493,3.991l-4.589,1.897c-0.3-0.899-0.898-1.697-1.697-2.197c-0.697-0.499-1.495-0.698-2.394-0.698
			c-0.699,0-1.397,0.099-1.996,0.4c-0.599,0.298-1.098,0.697-1.497,1.196c-0.399,0.5-0.799,1.198-0.999,1.797
			c-0.298,0.798-0.398,1.596-0.398,2.395c0,0.798,0.101,1.496,0.299,2.194c0.201,0.698,0.5,1.298,0.899,1.796
			c0.398,0.399,0.897,0.799,1.496,1.099c0.698,0.299,1.397,0.398,2.097,0.398c0.499,0,0.897-0.1,1.396-0.2
			c0.399-0.1,0.799-0.298,1.197-0.498c0.397-0.199,0.698-0.599,0.897-0.898c0.299-0.398,0.399-0.897,0.498-1.397h-3.989
			L90.637,73.618z"/>
		<path fill="#FF6633" d="M26.579,108.14h-6.087l-4.689-7.184v7.184h-4.889V89.282h7.583c0.897,0,1.896,0.1,2.794,0.5
			c0.697,0.299,1.396,0.698,1.895,1.297c0.499,0.497,0.898,1.197,1.098,1.795c0.299,0.699,0.4,1.497,0.4,2.195
			c0.099,1.198-0.3,2.495-0.999,3.492c-0.798,0.997-1.796,1.597-2.993,1.797L26.579,108.14z M15.803,97.666h0.897
			c0.798,0.098,1.596-0.2,2.195-0.6c0.999-0.898,0.999-2.295,0.2-3.293c-0.099-0.1-0.099-0.1-0.2-0.2
			c-0.698-0.398-1.396-0.699-2.195-0.598h-0.897V97.666z"/>
		<path fill="#FF6633" d="M27.377,98.661c0-4.09,2.395-7.683,6.186-9.179c2.695-0.998,5.688-0.998,8.382,0
			c1.196,0.498,2.394,1.197,3.292,2.094c0.899,0.899,1.697,1.997,2.197,3.195c0.997,2.495,0.997,5.286,0,7.781
			c-0.5,1.197-1.198,2.296-2.197,3.192c-0.998,0.899-2.095,1.598-3.292,2.098c-2.694,0.996-5.688,0.996-8.382,0
			C29.872,106.344,27.377,102.754,27.377,98.661z M32.467,98.661c0,0.699,0.098,1.396,0.398,2.097
			c0.298,0.598,0.698,1.197,1.097,1.696c0.499,0.498,1.098,0.799,1.697,1.097c1.297,0.499,2.794,0.499,4.091,0
			c0.598-0.298,1.198-0.599,1.696-1.097c0.5-0.499,0.898-0.998,1.197-1.696c0.299-0.7,0.399-1.397,0.399-2.097
			c0-0.698-0.1-1.395-0.399-2.096c-0.299-0.597-0.698-1.195-1.197-1.695c-0.498-0.499-1.098-0.798-1.696-1.097
			c-1.297-0.5-2.794-0.5-4.091,0c-1.297,0.498-2.295,1.497-2.793,2.695C32.666,97.266,32.467,97.963,32.467,98.661z"/>
		<path fill="#FF6633" d="M50.427,98.661c0-4.09,2.393-7.683,6.187-9.179c2.693-0.998,5.688-0.998,8.38,0
			c1.197,0.498,2.396,1.197,3.293,2.094c3.891,3.893,3.891,10.08,0.101,14.069l-0.101,0.1c-0.997,0.899-2.096,1.598-3.293,2.098
			c-2.692,0.996-5.687,0.996-8.38,0C52.92,106.344,50.427,102.754,50.427,98.661z M55.614,98.661c0,0.699,0.099,1.396,0.399,2.097
			c1.195,2.594,4.19,3.79,6.884,2.692c0.598-0.298,1.197-0.597,1.696-1.097c0.499-0.499,0.898-0.998,1.197-1.697
			c0.301-0.696,0.399-1.395,0.399-2.095c0-0.699-0.099-1.397-0.399-2.093c-0.299-0.6-0.698-1.198-1.197-1.599
			c-1.496-1.496-3.791-1.895-5.786-1.097c-0.599,0.199-1.197,0.598-1.696,1.097c-0.498,0.5-0.898,0.999-1.098,1.695
			C55.713,97.266,55.614,97.963,55.614,98.661L55.614,98.661z"/>
		<path fill="#FF6633" d="M73.574,108.14l3.193-18.858h4.789l3.791,9.979l3.792-9.979h4.89l3.191,18.759h-4.888l-1.596-10.774
			l-4.393,10.774H84.35L80.16,97.266l-1.598,10.774L73.574,108.14z"/>
		<g id="Statue_4_">
			<rect x="17.1" y="45.78" fill="#FFC2AD" width="73.038" height="15.166"/>
			<rect x="23.984" y="39.394" fill="#FF855C" width="7.584" height="7.583"/>
			<rect x="75.669" y="39.394" fill="#FF6633" width="7.586" height="7.583"/>
			<path fill="#FF855C" d="M81.557,20.735V10.557c0-2.793-2.294-5.089-5.089-5.089h-22.85v25.444h27.938V20.735z"/>
			<path fill="#FF6633" d="M53.618,5.469H30.67c-2.795,0-5.089,2.296-5.089,5.089v20.355h28.037V5.469z"/>
			<path fill="#FFC2AD" d="M86.646,13.85c-2.296,0-5.089,1.995-5.089,4.29v10.577c0,1.196-0.898,2.095-2.094,2.095l0,0H27.875
				c-1.196,0-2.094-0.899-2.194-2.095l0,0l-0.1-10.577c0-2.295-3.094-4.49-5.188-4.49c-2.295,0-4.989,2.195-4.989,4.49v21.153h76.43
				V18.14C91.735,15.845,88.841,13.85,86.646,13.85z"/>
		</g>
	</g>
</g>
</svg>
