<?xml version="1.0" encoding="utf-8"?>
<!-- Generator: Adobe Illustrator 16.0.0, SVG Export Plug-In . SVG Version: 6.00 Build 0)  -->
<!DOCTYPE svg PUBLIC "-//W3C//DTD SVG 1.1//EN" "http://www.w3.org/Graphics/SVG/1.1/DTD/svg11.dtd">
<svg version="1.1" id="Layer_1" xmlns="http://www.w3.org/2000/svg" xmlns:xlink="http://www.w3.org/1999/xlink" x="0px" y="0px"
	 width="243px" height="116.621px" viewBox="0 0 243 116.621" enable-background="new 0 0 243 116.621" xml:space="preserve">
<g>
	<defs>
		<rect id="SVGID_1_" x="65.395" y="7.155" width="107.605" height="87.698"/>
	</defs>
	<clipPath id="SVGID_2_">
		<use xlink:href="#SVGID_1_"  overflow="visible"/>
	</clipPath>
	<g clip-path="url(#SVGID_2_)">
		<path fill="#F2B725" d="M75.212,84.099h9.523c0,0.978,0,1.857-0.098,2.64c-0.098,0.781-0.197,1.563-0.491,2.248
			c-0.294,0.977-0.785,1.858-1.375,2.542c-0.589,0.782-1.276,1.369-2.062,1.857c-0.785,0.489-1.668,0.881-2.65,1.173
			c-0.982,0.294-1.964,0.392-2.946,0.392c-1.473,0-2.749-0.195-3.927-0.684c-1.178-0.489-2.16-1.174-3.044-1.956
			c-0.884-0.879-1.473-1.856-1.963-3.129c-0.589-1.271-0.786-2.541-0.786-4.008s0.196-2.737,0.687-3.91
			c0.491-1.175,1.08-2.249,1.964-3.032c0.884-0.879,1.866-1.466,3.142-1.954c1.178-0.489,2.553-0.685,4.025-0.685
			c1.964,0,3.633,0.391,5.106,1.271c1.473,0.781,2.65,2.151,3.436,3.812l-4.517,1.762c-0.393-0.979-0.981-1.762-1.669-2.152
			c-0.687-0.488-1.473-0.684-2.356-0.684c-0.687,0-1.375,0.098-1.963,0.391s-1.08,0.684-1.473,1.174
			c-0.393,0.488-0.786,1.075-0.982,1.761c-0.196,0.685-0.393,1.466-0.393,2.345c0,0.781,0.098,1.468,0.294,2.151
			c0.197,0.686,0.491,1.271,0.884,1.76c0.393,0.489,0.884,0.88,1.473,1.173c0.589,0.294,1.276,0.393,2.16,0.393
			c0.491,0,0.982-0.099,1.375-0.196c0.491-0.097,0.884-0.294,1.178-0.489c0.393-0.196,0.688-0.587,0.883-0.88
			c0.196-0.391,0.393-0.88,0.491-1.369h-3.927V84.099z"/>
		<path fill="#F2B725" d="M92.688,75.984v18.381h-4.812V75.984H92.688z"/>
		<path fill="#F2B725" d="M107.121,79.992h-5.793v3.129h5.302v4.009h-5.302v7.235h-4.811V75.984h10.604V79.992z"/>
		<path fill="#F2B725" d="M117.038,79.992v14.373h-4.812V79.992h-3.927v-4.008h12.763v4.008H117.038z"/>
		<path fill="#F2B725" d="M127.936,75.984v18.381h-4.811V75.984H127.936z"/>
		<path fill="#F2B725" d="M131.765,94.365V75.984h4.811l8.836,11.243V75.984h4.811v18.381h-4.811l-8.836-11.244v11.244H131.765z"/>
		<path fill="#F2B725" d="M163.476,84.099H173c0,0.978,0,1.857-0.099,2.64c-0.099,0.781-0.195,1.563-0.49,2.248
			c-0.295,0.977-0.786,1.858-1.375,2.542c-0.589,0.782-1.275,1.369-2.062,1.857c-0.785,0.489-1.669,0.881-2.65,1.173
			c-0.982,0.294-1.964,0.392-2.946,0.392c-1.473,0-2.749-0.195-3.927-0.684c-1.178-0.489-2.16-1.174-3.044-1.956
			c-0.884-0.879-1.473-1.856-1.963-3.129c-0.491-1.173-0.688-2.541-0.688-4.008s0.197-2.737,0.688-3.91
			c0.49-1.175,1.079-2.249,1.963-3.032c0.884-0.879,1.866-1.466,3.143-1.954c1.178-0.489,2.551-0.685,4.024-0.685
			c1.964,0,3.632,0.391,5.105,1.271c1.474,0.781,2.652,2.151,3.437,3.812l-4.614,1.762c-0.393-0.979-0.982-1.762-1.669-2.152
			c-0.688-0.488-1.473-0.684-2.357-0.684c-0.688,0-1.375,0.098-1.964,0.391s-1.079,0.684-1.472,1.174
			c-0.394,0.488-0.785,1.075-0.982,1.761c-0.293,0.685-0.393,1.466-0.393,2.345c0,0.781,0.1,1.468,0.295,2.151
			c0.195,0.686,0.491,1.271,0.883,1.76c0.394,0.489,0.885,0.88,1.474,1.173c0.589,0.294,1.276,0.393,2.159,0.393
			c0.491,0,0.982-0.099,1.375-0.196c0.491-0.097,0.884-0.294,1.178-0.489c0.394-0.196,0.688-0.587,0.884-0.88
			c0.197-0.391,0.394-0.88,0.491-1.369h-3.928V84.099z"/>
		<path fill="#FFE38F" d="M150.025,55.942H88.369v14.957h61.657V55.942z"/>
		<path fill="#FFD65C" d="M95.242,53.986c0,1.271,1.08,2.346,2.356,2.346h43.199c1.374,0,2.356-1.076,2.356-2.346V28.664H95.242
			V53.986z"/>
		<path fill="#FFCC33" d="M145.313,17.713h-6.773c0.688-1.466,0.785-3.226,0.393-4.791c-0.688-2.541-2.553-4.595-5.105-5.377
			c-2.552-0.782-5.302-0.196-7.266,1.466l-7.166,6.062l-7.168-6.062c-2.062-1.759-4.811-2.249-7.265-1.466
			c-2.553,0.782-4.418,2.836-5.106,5.377c-0.393,1.663-0.196,3.324,0.393,4.791h-6.774c-1.276,0-2.356,1.076-2.356,2.347v6.355
			c0,1.271,1.08,2.347,2.356,2.347h51.937c1.276,0,2.356-1.075,2.356-2.347v-6.257C147.67,18.79,146.589,17.713,145.313,17.713z
			 M129.604,12.63c0.785-0.685,1.769-0.88,2.65-0.489c0.983,0.293,1.571,0.978,1.866,1.956c0.197,0.88,0.099,1.76-0.491,2.444
			c-0.588,0.685-1.375,1.076-2.257,1.076h-7.757L129.604,12.63z M104.373,14.097c0.196-0.978,0.981-1.663,1.865-1.956
			c0.294-0.098,0.589-0.098,0.884-0.098c0.688,0,1.276,0.195,1.767,0.684l5.891,4.986h-7.756c-0.883,0-1.669-0.391-2.258-1.075
			C104.274,15.856,104.078,14.977,104.373,14.097z"/>
	</g>
</g>
</svg>
