<?xml version="1.0" encoding="utf-8"?>
<!-- Generator: Adobe Illustrator 16.0.0, SVG Export Plug-In . SVG Version: 6.00 Build 0)  -->
<!DOCTYPE svg PUBLIC "-//W3C//DTD SVG 1.1//EN" "http://www.w3.org/Graphics/SVG/1.1/DTD/svg11.dtd">
<svg version="1.1" id="Layer_1" xmlns="http://www.w3.org/2000/svg" xmlns:xlink="http://www.w3.org/1999/xlink" x="0px" y="0px"
	 width="162px" height="135.119px" viewBox="0 0 162 135.119" enable-background="new 0 0 162 135.119" xml:space="preserve">
<g id="Layer_2_1_">
	<g id="Layer_45">
		<path fill="#99CC33" d="M13.685,61.699l3.277,12.115l3.972-12.115h3.872l3.972,12.115l3.177-12.115h5.064l-5.66,18.766h-4.964
			l-3.674-10.822l-3.674,10.822h-4.965L8.522,61.699H13.685L13.685,61.699z"/>
		<path fill="#99CC33" d="M49.729,65.869h-5.858v3.078h5.461v4.171h-5.461v3.178h5.759v4.169H39.005V61.699H49.63v4.17H49.729z"/>
		<path fill="#99CC33" d="M58.07,61.699v14.597h5.858v4.169H53.205V61.699H58.07L58.07,61.699z"/>
		<path fill="#99CC33" d="M71.277,61.699v14.597h5.858v4.169H66.411V61.699H71.277L71.277,61.699z"/>
		<path fill="#99CC33" d="M79.617,80.465V61.699h4.866l8.936,11.419V61.699h4.865v18.766h-4.865l-8.936-11.418v11.418H79.617z"/>
		<path fill="#99CC33" d="M112.882,65.869h-5.759v3.078h5.46v4.171h-5.46v3.178h5.759v4.169h-10.724V61.699h10.724V65.869z"/>
		<path fill="#99CC33" d="M126.684,66.465c-0.496-0.397-0.992-0.794-1.588-0.993c-0.498-0.198-0.995-0.297-1.49-0.297
			c-0.596,0-1.093,0.099-1.489,0.396c-0.398,0.298-0.596,0.696-0.596,1.191c0,0.298,0.099,0.596,0.297,0.795
			c0.198,0.198,0.496,0.396,0.795,0.596c0.397,0.198,0.696,0.298,1.093,0.396c0.396,0.1,0.793,0.199,1.19,0.397
			c1.291,0.397,2.582,1.092,3.476,2.085c0.795,0.994,1.191,2.185,1.094,3.476c0,0.894-0.199,1.788-0.498,2.582
			c-0.297,0.793-0.794,1.39-1.39,1.985c-0.694,0.597-1.489,0.993-2.285,1.291c-0.992,0.299-1.983,0.496-3.077,0.496
			c-2.384,0-4.667-0.695-6.554-2.085l2.085-3.972c0.596,0.596,1.391,1.093,2.186,1.391c0.695,0.298,1.39,0.495,2.084,0.495
			c0.597,0,1.293-0.099,1.787-0.596c0.597-0.495,0.696-1.29,0.397-1.984c-0.1-0.199-0.297-0.398-0.495-0.597
			c-0.299-0.199-0.597-0.396-0.895-0.496c-0.396-0.1-0.795-0.298-1.391-0.497c-0.496-0.198-1.19-0.396-1.886-0.695
			c-0.596-0.198-1.093-0.596-1.589-0.992c-0.496-0.397-0.894-0.894-1.191-1.489c-0.297-0.695-0.497-1.49-0.397-2.284
			c0-0.894,0.101-1.688,0.497-2.481c0.298-0.697,0.694-1.391,1.29-1.887c0.595-0.597,1.291-0.993,1.985-1.291
			c0.895-0.298,1.789-0.498,2.682-0.498c0.992,0,1.986,0.1,2.881,0.397c0.992,0.298,1.985,0.596,2.878,1.093L126.684,66.465z"/>
		<path fill="#99CC33" d="M142.67,66.465c-0.496-0.397-0.994-0.695-1.589-0.993c-0.497-0.198-0.993-0.297-1.589-0.297
			s-1.092,0.099-1.589,0.396c-0.397,0.298-0.596,0.696-0.596,1.191c0,0.298,0.1,0.596,0.298,0.795
			c0.198,0.198,0.496,0.396,0.795,0.596c0.397,0.198,0.695,0.298,1.092,0.396c0.396,0.1,0.794,0.199,1.191,0.397
			c1.291,0.397,2.582,1.092,3.476,2.085c0.794,0.994,1.191,2.185,1.093,3.476c0,0.894-0.199,1.788-0.497,2.582
			c-0.298,0.793-0.794,1.39-1.39,1.985c-0.695,0.597-1.49,0.993-2.284,1.291c-0.993,0.299-1.985,0.496-3.077,0.496
			c-2.384,0-4.668-0.695-6.555-2.085l2.085-3.972c0.597,0.596,1.391,1.093,2.186,1.391c0.694,0.298,1.39,0.495,2.084,0.495
			c0.597,0.101,1.292-0.099,1.788-0.396c0.596-0.497,0.694-1.292,0.396-1.988c-0.1-0.196-0.298-0.396-0.496-0.595
			c-0.298-0.198-0.596-0.397-0.894-0.496c-0.397-0.099-0.795-0.298-1.391-0.496c-0.496-0.199-1.289-0.397-1.886-0.694
			c-0.596-0.2-1.093-0.597-1.589-0.994c-0.496-0.396-0.895-0.894-1.192-1.489c-0.297-0.695-0.496-1.49-0.396-2.283
			c0-0.894,0.1-1.688,0.497-2.483c0.298-0.695,0.694-1.39,1.29-1.886c0.595-0.596,1.291-0.993,1.987-1.291
			c0.893-0.298,1.787-0.497,2.68-0.397c0.993,0,1.985,0.099,2.88,0.397c1.093,0.298,2.084,0.596,2.979,1.092L142.67,66.465z"/>
		<path fill="#99CC33" d="M43.871,101.019H36.92l-1.092,3.277h-5.163l7.148-18.766h5.363l7.149,18.766h-5.164L43.871,101.019z
			 M42.58,97.346l-2.184-6.256l-2.184,6.256H42.58z"/>
		<path fill="#99CC33" d="M67.9,104.296h-6.057l-4.667-7.148v7.148h-4.865V85.53h7.546c0.894,0,1.887,0.099,2.781,0.496
			c0.694,0.297,1.39,0.695,1.886,1.191c0.497,0.496,0.894,1.19,1.093,1.787c0.298,0.695,0.396,1.489,0.396,2.185
			c0.1,1.192-0.298,2.482-0.993,3.476c-0.794,0.893-1.887,1.588-3.078,1.787L67.9,104.296z M57.176,93.971h0.894
			c0.794,0,1.489-0.2,2.185-0.598c0.894-0.893,0.993-2.283,0.199-3.275c-0.1-0.1-0.1-0.1-0.199-0.199
			c-0.695-0.396-1.39-0.694-2.185-0.596h-0.894V93.971z"/>
		<path fill="#99CC33" d="M80.61,89.7h-5.76v3.078h5.461v4.071h-5.461v3.177h5.76v4.171H69.986V85.43H80.61V89.7z"/>
		<path fill="#99CC33" d="M84.086,104.296V85.53h4.864l8.937,11.418V85.53h4.867v18.766h-4.867L88.95,92.878v11.418H84.086z"/>
		<path fill="#99CC33" d="M118.244,101.019h-6.951l-1.093,3.277h-5.163l7.149-18.766h5.361l7.149,18.766h-5.362L118.244,101.019z
			 M116.854,97.346l-2.185-6.256l-2.185,6.256H116.854z"/>
		<g id="Statue_1_">
			<rect x="55.489" y="42.237" fill="#99CC33" width="44.186" height="15.093"/>
			<path fill="#99CC33" d="M84.881,29.329c2.978-2.185,6.453-3.873,10.028-4.766c0.595-3.773,0.298-7.646-0.795-11.319
				c-3.773,0.894-7.249,2.581-10.228,4.964C84.881,21.782,85.277,25.555,84.881,29.329z"/>
			<path fill="#99CC33" d="M70.284,29.329c-0.397-3.773-0.1-7.546,0.894-11.221c-2.979-2.383-6.454-4.071-10.227-4.965
				c-1.093,3.674-1.391,7.546-0.794,11.32C63.83,25.456,67.205,27.144,70.284,29.329z"/>
			<path fill="#B8DB70" d="M46.354,24.165c3.078,13.007,15.788,21.448,28.994,19.264c0.694-0.1,1.49-0.298,2.185-0.497
				c-3.873-3.872-6.554-8.738-7.546-14.001C63.333,23.47,54.496,21.684,46.354,24.165z"/>
			<path fill="#D6EBAD" d="M77.532,5.795c-2.78,2.582-4.964,5.858-6.355,9.434c-3.673,9.631-1.092,20.553,6.355,27.703
				c10.228-9.532,10.823-25.618,1.291-35.845C78.427,6.689,78.029,6.193,77.532,5.795z"/>
			<path fill="#B8DB70" d="M85.178,28.931c-1.092,5.362-3.772,10.229-7.545,14.001c0.694,0.199,1.389,0.397,2.184,0.497
				c13.206,2.184,25.916-6.156,28.993-19.264C100.569,21.684,91.731,23.47,85.178,28.931z"/>
		</g>
	</g>
</g>
</svg>
