<?xml version="1.0" encoding="utf-8"?>
<!-- Generator: Adobe Illustrator 16.0.0, SVG Export Plug-In . SVG Version: 6.00 Build 0)  -->
<!DOCTYPE svg PUBLIC "-//W3C//DTD SVG 1.1//EN" "http://www.w3.org/Graphics/SVG/1.1/DTD/svg11.dtd">
<svg version="1.1" id="Layer_1" xmlns="http://www.w3.org/2000/svg" xmlns:xlink="http://www.w3.org/1999/xlink" x="0px" y="0px"
	 width="148px" height="144.949px" viewBox="0 0 148 144.949" enable-background="new 0 0 148 144.949" xml:space="preserve">
<g id="Layer_2_4_">
	<g id="Fashion-Main-01">
		<path fill="#E97792" d="M22.226,75.14h-5.841v3.068h5.346v4.06h-5.346v7.326h-4.851v-18.71h10.691V75.14z"/>
		<path fill="#E97792" d="M35.789,86.426h-6.93l-1.089,3.267h-5.148l7.128-18.611h5.247l7.128,18.611h-5.147L35.789,86.426z
			 M34.502,82.763l-2.178-6.236l-2.177,6.236H34.502z"/>
		<path fill="#E97792" d="M54.5,75.733c-0.495-0.396-0.99-0.791-1.584-0.99c-0.495-0.196-0.989-0.296-1.484-0.296
			c-0.594,0-1.089,0.1-1.584,0.396c-0.396,0.297-0.594,0.693-0.594,1.188c0,0.297,0.099,0.595,0.297,0.791
			c0.199,0.199,0.495,0.398,0.792,0.595c0.396,0.198,0.693,0.298,1.089,0.397l1.188,0.395c1.387,0.396,2.574,1.089,3.465,2.179
			c0.792,0.989,1.188,2.177,1.089,3.464c0,0.893-0.197,1.783-0.495,2.575c-0.297,0.791-0.792,1.386-1.386,1.979
			c-0.693,0.595-1.485,0.989-2.277,1.287c-0.99,0.297-1.98,0.495-3.069,0.495c-2.376,0-4.653-0.693-6.534-2.078l2.079-3.861
			c0.594,0.594,1.386,1.088,2.178,1.386c0.693,0.296,1.386,0.494,2.08,0.494c0.593,0.1,1.287-0.099,1.781-0.494
			c0.396-0.298,0.594-0.792,0.594-1.188c0-0.296,0-0.495-0.098-0.692c-0.099-0.197-0.297-0.396-0.496-0.596
			c-0.297-0.196-0.594-0.395-0.891-0.494c-0.396-0.1-0.792-0.296-1.386-0.494c-0.594-0.199-1.188-0.396-1.881-0.693
			c-0.594-0.197-1.089-0.595-1.584-0.989c-0.495-0.396-0.89-0.892-1.188-1.485c-0.297-0.693-0.495-1.485-0.396-2.277
			c0-0.892,0.099-1.682,0.494-2.475c0.297-0.693,0.693-1.386,1.288-1.881c0.594-0.594,1.287-0.99,2.079-1.287
			c0.891-0.297,1.782-0.396,2.673-0.396c0.99,0,1.98,0.099,2.871,0.396c0.99,0.296,1.98,0.593,2.871,1.089L54.5,75.733z"/>
		<path fill="#E97792" d="M65.092,78.208h7.029v-7.226h4.85v18.611h-4.85v-7.723h-7.029v7.723h-4.852V70.982h4.852V78.208z"/>
		<path fill="#E97792" d="M85.684,70.982v18.611h-4.851V70.982H85.684z"/>
		<path fill="#E97792" d="M88.753,80.287c0-2.673,0.989-5.147,2.871-7.029c0.891-0.89,2.078-1.583,3.268-2.078
			c2.671-0.99,5.643-0.99,8.314,0c1.188,0.495,2.376,1.188,3.267,2.078c0.891,0.892,1.584,1.98,2.08,3.169
			c0.989,2.475,0.989,5.247,0,7.723c-0.496,1.187-1.189,2.276-2.179,3.167c-0.991,0.891-2.079,1.584-3.267,2.079
			c-2.673,0.989-5.643,0.989-8.316,0C91.128,87.91,88.753,84.347,88.753,80.287z M93.802,80.287c0,0.693,0.1,1.387,0.396,2.08
			c0.495,1.286,1.583,2.178,2.771,2.673c1.287,0.494,2.771,0.494,4.06,0c0.594-0.297,1.188-0.595,1.684-1.09
			c0.494-0.494,0.89-0.989,1.188-1.683c0.296-0.692,0.396-1.387,0.396-2.078c0-1.387-0.595-2.773-1.583-3.663
			c-0.496-0.496-1.09-0.793-1.684-1.09c-1.288-0.494-2.772-0.494-4.06,0c-0.594,0.297-1.188,0.594-1.683,1.09
			c-0.495,0.494-0.891,0.989-1.188,1.583C94,78.901,93.802,79.595,93.802,80.287L93.802,80.287z"/>
		<path fill="#E97792" d="M112.513,89.692V71.081h4.85l8.91,11.384V71.081h4.851v18.611h-4.851l-9.01-11.385v11.385H112.513z"/>
		<path fill="#E97792" d="M34.106,113.452h-4.852V94.841h7.722c1.782-0.1,3.464,0.494,4.85,1.583c2.277,2.673,2.277,6.533,0,9.207
			c-1.286,1.188-3.068,1.782-4.85,1.683h-2.871V113.452z M34.106,103.354h1.583c1.782,0,2.673-0.791,2.673-2.376
			c0-1.583-0.892-2.375-2.673-2.375h-1.583V103.354z"/>
		<path fill="#E97792" d="M50.836,94.741v14.553h5.841v4.059H45.986V94.741H50.836L50.836,94.741z"/>
		<path fill="#E97792" d="M71.428,110.185h-6.931l-1.088,3.268h-5.147l7.127-18.611h5.247l7.127,18.611h-5.147L71.428,110.185z
			 M70.141,106.521l-2.178-6.236l-2.178,6.236H70.141z"/>
		<path fill="#E97792" d="M86.377,109.294h7.82v4.158H78.258l8.813-14.554h-7.327v-4.058h15.443L86.377,109.294z"/>
		<path fill="#E97792" d="M108.948,110.185h-6.93l-1.09,3.268H95.78l7.129-18.611h5.346l7.128,18.611h-5.147L108.948,110.185z
			 M107.661,106.521l-2.178-6.236l-2.178,6.236H107.661z"/>
		<g id="Statue_3_">
			<rect x="42.224" y="51.677" fill="#F6C9D3" width="58.211" height="14.157"/>
			<path fill="#ED92A8" d="M44.996,50.292c-0.396,0.396-0.297,0.99,0.099,1.385c0.198,0.199,0.396,0.199,0.595,0.297h21.978
				c3.068,0,5.84-1.683,7.226-4.257l7.127-12.968c1.486-2.673,3.07-5.148,4.951-7.623c0.495-0.694,1.484-0.891,2.276-0.297
				c0.396,0.297,0.694,0.792,0.595,1.287v23.859h2.376v-12.87c0-4.654,1.188-9.108,3.563-13.067
				c4.258-7.228,1.882-16.533-5.345-20.79l-7.425,9.008L68.457,37.521c-1.88,2.971-4.849,5.148-8.314,6.138l-6.237,1.683
				C50.54,46.134,47.471,47.916,44.996,50.292z"/>
		</g>
	</g>
</g>
</svg>
