<svg xmlns="http://www.w3.org/2000/svg" width="48.064" height="65.745" viewBox="0 0 48.064 65.745">
  <g id="Group_34" data-name="Group 34" transform="translate(-108.248 -628.761)">
    <path id="Path_30" data-name="Path 30" d="M123.522,675.658v-17.52c.715.123,1.378.224,1.974.316a11.754,11.754,0,0,0,1.707.136,15.332,15.332,0,0,0,4.584-.676,12.325,12.325,0,0,0,3.728-1.842,8.609,8.609,0,0,0,2.47-2.829,7.544,7.544,0,0,0,.9-3.637,6.714,6.714,0,0,0-1.8-4.672,6.229,6.229,0,0,0-4.852-1.978,5.634,5.634,0,0,0-4.448,1.886,7.224,7.224,0,0,0-1.658,4.944h-17.88a19.068,19.068,0,0,1,1.842-8.4,20.5,20.5,0,0,1,5.119-6.65,23.9,23.9,0,0,1,7.725-4.4,28.8,28.8,0,0,1,9.66-1.574,25.624,25.624,0,0,1,9.659,1.754,23.633,23.633,0,0,1,7.5,4.716,20.947,20.947,0,0,1,4.852,6.826,19.618,19.618,0,0,1,1.706,8q0,13.476-16.261,19.135v6.47Z" fill="#332083"/>
    <path id="Path_31" data-name="Path 31" d="M121.724,684a10.51,10.51,0,1,1,20.213,4.088,10.323,10.323,0,0,1-5.615,5.615,10.6,10.6,0,0,1-11.545-2.246A10.518,10.518,0,0,1,121.724,684Z" fill="#fff"/>
  </g>
</svg>
