<svg xmlns="http://www.w3.org/2000/svg" width="50.089" height="56.625" viewBox="0 0 50.089 56.625">
  <g id="Group_50" data-name="Group 50" transform="translate(-1151.666 -396.729)">
    <g id="Group_48" data-name="Group 48">
      <path id="Path_42" data-name="Path 42" d="M1157.906,441.659l14.59-16.976h0Z" fill="none"/>
      <path id="Path_43" data-name="Path 43" d="M1152.558,447.882l5.349-6.223-5.349,6.223Z" fill="#1b0268"/>
      <path id="Path_44" data-name="Path 44" d="M1151.666,402.08l5.024-5.35,19.868,23.227-4.784,5.567Z" fill="#fff"/>
      <path id="Path_45" data-name="Path 45" d="M1157.906,441.659l14.59-16.976h0l4.062-4.727,4.775,5.567-23.921,27.832-4.854-5.473Z" fill="#1b0268"/>
    </g>
    <g id="Group_49" data-name="Group 49">
      <path id="Path_46" data-name="Path 46" d="M1178.328,408.431l14.59,16.976h0Z" fill="none"/>
      <path id="Path_47" data-name="Path 47" d="M1172.979,402.208l5.349,6.223-5.349-6.223Z" fill="#1b0268"/>
      <path id="Path_48" data-name="Path 48" d="M1172.087,448.01l5.03,5.344,19.863-23.22-4.784-5.567Z" fill="#fff"/>
      <path id="Path_49" data-name="Path 49" d="M1178.328,408.431l14.59,16.976h0l4.062,4.727,4.775-5.567-23.926-27.838-4.849,5.479Z" fill="#1b0268"/>
    </g>
  </g>
</svg>
