<?xml version="1.0" encoding="utf-8"?>
<!-- Generator: Adobe Illustrator 16.0.0, SVG Export Plug-In . SVG Version: 6.00 Build 0)  -->
<!DOCTYPE svg PUBLIC "-//W3C//DTD SVG 1.1//EN" "http://www.w3.org/Graphics/SVG/1.1/DTD/svg11.dtd">
<svg version="1.1" id="Layer_1" xmlns="http://www.w3.org/2000/svg" xmlns:xlink="http://www.w3.org/1999/xlink" x="0px" y="0px"
	 width="229px" height="161.18px" viewBox="0 0 229 161.18" enable-background="new 0 0 229 161.18" xml:space="preserve">
<g>
	<defs>
		<rect id="SVGID_1_" x="43.667" y="5.758" width="128.65" height="130.534"/>
	</defs>
	<clipPath id="SVGID_2_">
		<use xlink:href="#SVGID_1_"  overflow="visible"/>
	</clipPath>
	<g clip-path="url(#SVGID_2_)">
		<path fill="#3399FF" d="M43.667,92.912h7.286c1.696,0,2.994,0.4,3.893,1.199c0.898,0.801,1.397,2,1.397,3.6
			c0,0.998-0.2,1.697-0.499,2.398c-0.299,0.699-0.898,1.199-1.597,1.6c0.699,0.1,1.297,0.299,1.796,0.6c0.5,0.299,0.898,0.6,1.198,1
			c0.299,0.398,0.499,0.799,0.698,1.299c0.1,0.498,0.2,0.998,0.2,1.598c0,0.9-0.2,1.701-0.499,2.301
			c-0.299,0.699-0.699,1.299-1.297,1.697c-0.599,0.5-1.198,0.801-1.996,1.1c-0.798,0.301-1.697,0.4-2.695,0.4h-7.885V92.912z
			 M48.558,100.309h0.898c1.498,0,2.296-0.6,2.296-1.799s-0.798-1.799-2.296-1.799h-0.898V100.309z M48.558,107.906h1.098
			c1.198,0,2.096-0.201,2.595-0.5c0.499-0.301,0.798-0.801,0.798-1.5s-0.2-1.199-0.798-1.5c-0.499-0.299-1.397-0.498-2.595-0.498
			h-1.098V107.906z"/>
		<path fill="#3399FF" d="M65.824,92.912v10.195c0,0.5,0,1.1,0.1,1.699c0,0.6,0.199,1.1,0.399,1.6c0.199,0.5,0.499,0.799,0.998,1.1
			c0.499,0.299,1.098,0.4,1.896,0.4s1.397-0.102,1.896-0.4c0.399-0.301,0.798-0.699,0.998-1.1c0.199-0.5,0.299-1,0.399-1.6
			c0-0.6,0.1-1.1,0.1-1.699V92.912h4.89v10.895c0,2.898-0.698,5.098-1.996,6.396c-1.297,1.301-3.393,2-6.188,2
			c-2.794,0-4.89-0.699-6.188-2c-1.297-1.299-1.996-3.498-1.996-6.396V92.912H65.824z"/>
		<path fill="#3399FF" d="M91.574,97.711c-0.499-0.4-1.098-0.801-1.597-1c-0.5-0.199-0.999-0.301-1.498-0.301
			c-0.599,0-1.098,0.102-1.497,0.5c-0.399,0.301-0.599,0.699-0.599,1.199c0,0.301,0.1,0.6,0.299,0.801
			c0.199,0.199,0.499,0.4,0.798,0.6s0.699,0.299,1.098,0.398c0.399,0.102,0.799,0.201,1.198,0.4c1.597,0.5,2.795,1.199,3.494,2.1
			s1.098,2.098,1.098,3.498c0,1-0.2,1.799-0.499,2.6c-0.299,0.799-0.798,1.498-1.397,1.998c-0.599,0.5-1.397,1-2.295,1.299
			c-0.898,0.301-1.896,0.5-3.094,0.5c-2.396,0-4.591-0.699-6.587-2.1l2.096-3.998c0.698,0.602,1.497,1.1,2.195,1.5
			c0.699,0.299,1.397,0.5,2.096,0.5c0.799,0,1.397-0.201,1.797-0.5s0.599-0.799,0.599-1.199c0-0.301-0.1-0.5-0.199-0.699
			c-0.1-0.201-0.3-0.4-0.5-0.6c-0.199-0.201-0.599-0.5-0.998-0.701c-0.399-0.199-0.798-0.299-1.397-0.5
			c-0.599-0.199-1.298-0.398-1.896-0.697c-0.599-0.201-1.098-0.602-1.597-1c-0.499-0.4-0.898-0.9-1.098-1.5
			c-0.3-0.6-0.399-1.4-0.399-2.299c0-0.9,0.199-1.799,0.499-2.498c0.299-0.801,0.699-1.4,1.297-1.9
			c0.599-0.498,1.198-0.998,2.096-1.299c0.798-0.299,1.696-0.5,2.694-0.5c0.898,0,1.896,0.102,2.895,0.4s1.996,0.6,2.895,1.1
			L91.574,97.711z"/>
		<path fill="#3399FF" d="M102.253,92.912v18.791h-4.891V92.912H102.253z"/>
		<path fill="#3399FF" d="M106.246,111.703V92.912h4.891l8.983,11.494V92.912h4.891v18.791h-4.891l-8.983-11.494v11.494H106.246z"/>
		<path fill="#3399FF" d="M139.681,97.012h-5.789v3.197h5.489v4.098h-5.489v3.199h5.789v4.197h-10.779V92.912h10.679v4.1H139.681z"
			/>
		<path fill="#3399FF" d="M153.555,97.711c-0.499-0.4-1.099-0.801-1.598-1s-0.998-0.301-1.497-0.301c-0.599,0-1.099,0.102-1.497,0.5
			c-0.399,0.301-0.599,0.699-0.599,1.199c0,0.301,0.1,0.6,0.3,0.801c0.199,0.199,0.498,0.4,0.798,0.6s0.698,0.299,1.098,0.398
			c0.399,0.102,0.798,0.201,1.197,0.4c1.598,0.5,2.795,1.199,3.494,2.1c0.698,0.9,1.098,2.098,1.098,3.498
			c0,1-0.199,1.799-0.499,2.6c-0.3,0.799-0.799,1.498-1.397,1.998s-1.396,1-2.296,1.299c-0.897,0.301-1.896,0.5-3.095,0.5
			c-2.395,0-4.59-0.699-6.586-2.1l2.097-3.998c0.697,0.602,1.496,1.1,2.194,1.5c0.7,0.299,1.398,0.5,2.097,0.5
			c0.798,0,1.397-0.201,1.796-0.5c0.399-0.299,0.6-0.799,0.6-1.199c0-0.301-0.101-0.5-0.2-0.699c-0.1-0.201-0.299-0.4-0.499-0.6
			c-0.199-0.201-0.499-0.301-0.898-0.5c-0.399-0.201-0.798-0.301-1.397-0.5c-0.598-0.201-1.298-0.4-1.896-0.699
			c-0.6-0.199-1.099-0.6-1.597-1c-0.5-0.4-0.898-0.9-1.1-1.5c-0.299-0.6-0.397-1.398-0.397-2.299c0-0.898,0.199-1.799,0.499-2.498
			c0.299-0.799,0.698-1.4,1.297-1.898c0.6-0.5,1.197-1,2.096-1.301c0.799-0.299,1.697-0.498,2.695-0.498
			c0.898,0,1.896,0.1,2.895,0.398c0.997,0.301,1.995,0.6,2.895,1.1L153.555,97.711z"/>
		<path fill="#3399FF" d="M169.623,97.711c-0.499-0.4-1.098-0.801-1.598-1c-0.499-0.199-0.998-0.301-1.497-0.301
			c-0.598,0-1.099,0.102-1.496,0.5c-0.4,0.301-0.6,0.699-0.6,1.199c0,0.301,0.101,0.6,0.3,0.801c0.199,0.199,0.499,0.4,0.798,0.6
			c0.3,0.199,0.699,0.299,1.099,0.398c0.398,0.102,0.798,0.201,1.197,0.4c1.598,0.5,2.794,1.199,3.493,2.1s1.098,2.098,1.098,3.498
			c0,1-0.199,1.799-0.499,2.6c-0.299,0.799-0.798,1.498-1.397,1.998c-0.598,0.5-1.396,1-2.296,1.299
			c-0.897,0.301-1.896,0.5-3.094,0.5c-2.395,0-4.591-0.699-6.587-2.1l2.096-3.998c0.699,0.602,1.497,1.1,2.195,1.5
			c0.699,0.299,1.398,0.5,2.097,0.5c0.798,0,1.397-0.201,1.797-0.5s0.599-0.799,0.599-1.199c0-0.301-0.101-0.5-0.199-0.699
			c-0.101-0.201-0.3-0.4-0.499-0.6c-0.2-0.201-0.499-0.301-0.899-0.5c-0.398-0.201-0.798-0.301-1.396-0.5
			c-0.599-0.201-1.298-0.4-1.896-0.699c-0.599-0.199-1.098-0.6-1.597-1s-0.898-0.9-1.099-1.5c-0.299-0.6-0.398-1.398-0.398-2.299
			c0-0.898,0.199-1.799,0.499-2.498c0.3-0.799,0.698-1.4,1.297-1.898c0.6-0.5,1.198-1,2.097-1.301
			c0.798-0.299,1.696-0.498,2.695-0.498c0.897,0,1.896,0.1,2.894,0.398c0.998,0.301,1.996,0.6,2.895,1.1L169.623,97.711z"/>
		<path fill="#3399FF" d="M58.438,121.698c-0.499-0.4-1.098-0.799-1.597-0.998c-0.499-0.201-0.998-0.301-1.497-0.301
			c-0.599,0-1.098,0.1-1.497,0.5c-0.399,0.301-0.599,0.699-0.599,1.199c0,0.299,0.1,0.6,0.299,0.799c0.2,0.201,0.5,0.4,0.799,0.602
			c0.299,0.199,0.699,0.299,1.098,0.398c0.399,0.1,0.798,0.201,1.198,0.4c1.597,0.5,2.794,1.199,3.493,2.098
			c0.699,0.9,1.098,2.1,1.098,3.5c0,1-0.2,1.799-0.5,2.598c-0.299,0.801-0.798,1.5-1.397,1.998
			c-0.599,0.502-1.397,1.002-2.295,1.301c-0.898,0.299-1.896,0.5-3.094,0.5c-2.396,0-4.591-0.701-6.587-2.1l2.096-3.998
			c0.699,0.6,1.497,1.1,2.196,1.5c0.699,0.301,1.397,0.5,2.096,0.5c0.798,0,1.397-0.199,1.796-0.5
			c0.399-0.301,0.599-0.799,0.599-1.199c0-0.301-0.1-0.5-0.2-0.699c-0.1-0.201-0.299-0.4-0.499-0.602
			c-0.2-0.199-0.499-0.299-0.898-0.498c-0.399-0.201-0.798-0.301-1.397-0.5c-0.599-0.201-1.297-0.4-1.896-0.701
			c-0.599-0.199-1.098-0.6-1.597-0.998c-0.499-0.4-0.898-0.9-1.098-1.5c-0.299-0.6-0.399-1.398-0.399-2.299
			c0-0.898,0.199-1.799,0.499-2.5c0.3-0.799,0.699-1.398,1.298-1.898c0.599-0.498,1.198-0.998,2.096-1.299
			c0.799-0.299,1.697-0.5,2.695-0.5c0.898,0,1.896,0.102,2.894,0.4s1.996,0.6,2.895,1.1L58.438,121.698z"/>
		<path fill="#3399FF" d="M74.906,120.998h-5.789v3.199h5.489v4.098h-5.489v3.197h5.789v4.199H64.227v-18.791h10.679V120.998z"/>
		<path fill="#3399FF" d="M94.069,135.692h-6.088l-4.691-7.197v7.197h-4.891v-18.791h7.585c1.098,0,1.996,0.199,2.794,0.5
			c0.799,0.301,1.397,0.699,1.896,1.299c0.499,0.5,0.898,1.199,1.198,1.799c0.299,0.701,0.399,1.5,0.399,2.199
			c0,1.4-0.299,2.6-0.998,3.498c-0.699,0.9-1.697,1.5-3.094,1.799L94.069,135.692z M83.39,125.297h0.898
			c0.998,0,1.697-0.201,2.196-0.6c0.499-0.4,0.798-1,0.798-1.699c0-0.701-0.299-1.301-0.798-1.701
			c-0.499-0.398-1.297-0.598-2.196-0.598H83.39V125.297z"/>
		<path fill="#3399FF" d="M98.76,116.901l4.491,11.494l4.591-11.494h5.29l-7.984,18.791h-3.893l-7.884-18.791H98.76z"/>
		<path fill="#3399FF" d="M120.02,116.901v18.791h-4.891v-18.791H120.02z"/>
		<path fill="#3399FF" d="M137.584,123.198c-1.098-1.398-2.494-2.1-4.191-2.1c-0.699,0-1.397,0.102-1.996,0.4
			c-0.599,0.301-1.197,0.6-1.597,1.1c-0.499,0.5-0.799,1-1.099,1.6c-0.299,0.6-0.398,1.299-0.398,1.998c0,0.799,0.1,1.4,0.398,2.1
			c0.3,0.6,0.6,1.199,1.099,1.699s0.998,0.799,1.597,1.1c0.599,0.299,1.297,0.398,1.996,0.398c1.598,0,2.994-0.699,4.191-1.998
			v5.797l-0.498,0.201c-0.799,0.299-1.497,0.498-2.096,0.598c-0.699,0.102-1.298,0.201-1.896,0.201
			c-1.299,0-2.496-0.201-3.693-0.701c-1.197-0.498-2.195-1.197-3.094-2.098s-1.598-2-2.196-3.199
			c-0.499-1.199-0.798-2.598-0.798-3.998c0-1.498,0.299-2.797,0.798-3.998c0.5-1.199,1.298-2.197,2.196-3.098s1.996-1.6,3.193-2
			c1.198-0.498,2.495-0.699,3.793-0.699c0.799,0,1.497,0.102,2.195,0.201c0.699,0.199,1.498,0.398,2.296,0.699v5.797H137.584z"/>
		<path fill="#3399FF" d="M151.357,120.998h-5.788v3.199h5.489v4.098h-5.489v3.197h5.788v4.199h-10.778v-18.791h10.68v4.098H151.357
			z"/>
		<path fill="#3399FF" d="M165.231,121.698c-0.499-0.4-1.098-0.799-1.597-0.998c-0.499-0.201-0.999-0.301-1.498-0.301
			c-0.599,0-1.097,0.1-1.497,0.5c-0.399,0.301-0.599,0.699-0.599,1.199c0,0.299,0.101,0.6,0.3,0.799
			c0.2,0.201,0.499,0.4,0.798,0.602c0.3,0.199,0.699,0.299,1.099,0.398c0.398,0.1,0.799,0.201,1.197,0.4
			c1.598,0.5,2.795,1.199,3.493,2.098c0.699,0.9,1.098,2.1,1.098,3.5c0,1-0.199,1.799-0.499,2.598c-0.3,0.801-0.798,1.5-1.396,1.998
			c-0.6,0.502-1.397,1.002-2.296,1.301s-1.896,0.5-3.094,0.5c-2.396,0-4.591-0.701-6.588-2.1l2.096-3.998
			c0.699,0.6,1.498,1.1,2.196,1.5c0.698,0.301,1.397,0.5,2.097,0.5c0.798,0,1.396-0.199,1.796-0.5s0.599-0.799,0.599-1.199
			c0-0.301-0.101-0.5-0.199-0.699c-0.101-0.201-0.3-0.4-0.499-0.602c-0.2-0.199-0.499-0.299-0.898-0.498
			c-0.399-0.201-0.798-0.301-1.397-0.5c-0.599-0.201-1.298-0.4-1.896-0.701c-0.599-0.199-1.098-0.6-1.597-0.998
			c-0.499-0.4-0.898-0.9-1.098-1.5c-0.3-0.6-0.399-1.398-0.399-2.299c0-0.898,0.2-1.799,0.499-2.5
			c0.299-0.799,0.699-1.398,1.297-1.898c0.6-0.498,1.199-0.998,2.096-1.299c0.799-0.299,1.698-0.5,2.695-0.5
			c0.898,0,1.896,0.102,2.895,0.4c0.997,0.299,1.996,0.6,2.895,1.1L165.231,121.698z"/>
		<path fill="#3399FF" d="M134.49,20.35v-9.095h-9.082c0,2.998-2.395,5.497-5.489,5.497c-2.993,0-5.489-2.399-5.489-5.497h-6.987
			v9.195v10.894v6.896h26.949v-6.896c2.993,0,5.489-2.398,5.489-5.497C139.98,22.849,137.485,20.35,134.49,20.35z"/>
		<path fill="#70B8FF" d="M134.49,46.136v-7.995h-8.883c0-2.999-2.395-5.497-5.488-5.497c-2.994,0-5.49,2.398-5.49,5.497h-7.086
			v26.986h7.185c0,2.998,2.396,5.497,5.49,5.497c2.994,0,5.49-2.399,5.49-5.497h8.781v-7.996c-2.993,0-5.488-2.398-5.488-5.497
			S131.497,46.136,134.49,46.136z"/>
		<path fill="#70B8FF" d="M102.154,25.847c0-2.999,2.396-5.497,5.489-5.497v-9.095h-7.386c0-2.999-2.396-5.498-5.489-5.498
			c-2.994,0-5.489,2.399-5.489,5.498h-8.583v9.195c2.994,0,5.489,2.398,5.489,5.497c0,2.999-2.395,5.498-5.489,5.498v6.896h8.583
			c0,2.999,2.395,5.497,5.489,5.497c3.094,0,5.489-2.398,5.489-5.497h7.286v-6.896C104.549,31.344,102.154,28.846,102.154,25.847z"
			/>
		<path fill="#3399FF" d="M102.153,25.847c0,2.999,2.396,5.497,5.489,5.497V20.35C104.549,20.35,102.153,22.849,102.153,25.847z"/>
		<path fill="#3399FF" d="M100.157,38.141c0,2.998-2.395,5.497-5.489,5.497c-3.094,0-5.489-2.398-5.489-5.497h-8.583v7.995
			c-2.994,0-5.49,2.399-5.49,5.498s2.396,5.497,5.49,5.497v7.996h8.583c0-2.999,2.396-5.498,5.489-5.498
			c2.995,0,5.489,2.399,5.489,5.498h7.386v-7.996c2.995,0,5.489-2.398,5.489-5.497s-2.495-5.498-5.489-5.498v-7.995H100.157z"/>
		<path fill="#3399FF" d="M134.092,70.324H81.094v16.993h52.998V70.324z"/>
	</g>
</g>
</svg>
