<?xml version="1.0" encoding="utf-8"?>
<!-- Generator: Adobe Illustrator 16.0.0, SVG Export Plug-In . SVG Version: 6.00 Build 0)  -->
<!DOCTYPE svg PUBLIC "-//W3C//DTD SVG 1.1//EN" "http://www.w3.org/Graphics/SVG/1.1/DTD/svg11.dtd">
<svg version="1.1" id="Layer_1" xmlns="http://www.w3.org/2000/svg" xmlns:xlink="http://www.w3.org/1999/xlink" x="0px" y="0px"
	 width="231px" height="140.371px" viewBox="0 0 231 140.371" enable-background="new 0 0 231 140.371" xml:space="preserve">
<g>
	<defs>
		<rect id="SVGID_1_" x="18.187" y="4.2" width="190.393" height="114.235"/>
	</defs>
	<clipPath id="SVGID_2_">
		<use xlink:href="#SVGID_1_"  overflow="visible"/>
	</clipPath>
	<g clip-path="url(#SVGID_2_)">
		<path fill="#E97792" d="M39.106,81.096c-1.112-1.412-2.527-2.118-4.245-2.118c-0.708,0-1.415,0.102-2.021,0.402
			c-0.606,0.304-1.212,0.607-1.617,1.111c-0.505,0.504-0.809,1.009-1.112,1.614c-0.303,0.604-0.404,1.313-0.404,2.018
			c0,0.809,0.102,1.413,0.404,2.12c0.303,0.606,0.606,1.21,1.112,1.715c0.505,0.504,1.011,0.807,1.617,1.11
			c0.606,0.303,1.314,0.404,2.021,0.404c1.617,0,3.032-0.708,4.245-2.02v5.854L38.6,93.509c-0.808,0.304-1.516,0.506-2.122,0.604
			c-0.708,0.103-1.314,0.202-1.92,0.202c-1.314,0-2.527-0.202-3.739-0.705c-1.213-0.505-2.224-1.212-3.133-2.119
			c-0.909-0.908-1.617-2.019-2.223-3.23c-0.505-1.21-0.809-2.623-0.809-4.036c0-1.515,0.303-2.824,0.809-4.036
			c0.404-1.312,1.111-2.321,2.021-3.229c0.909-0.908,2.021-1.615,3.233-2.019c1.212-0.505,2.526-0.707,3.84-0.707
			c0.808,0,1.516,0.102,2.223,0.202c0.708,0.202,1.516,0.403,2.325,0.706V81.096z"/>
		<path fill="#E97792" d="M41.632,84.225c0-1.413,0.303-2.725,0.808-3.937c0.506-1.209,1.213-2.319,2.123-3.229
			s2.021-1.614,3.334-2.119c1.314-0.505,2.729-0.807,4.245-0.807s2.931,0.302,4.245,0.807s2.425,1.21,3.334,2.119
			c0.91,0.909,1.617,2.02,2.224,3.229c0.505,1.212,0.809,2.523,0.809,3.937s-0.304,2.725-0.809,3.936
			c-0.505,1.211-1.213,2.321-2.224,3.229c-0.909,0.908-2.021,1.615-3.334,2.119c-1.313,0.506-2.729,0.807-4.245,0.807
			s-2.931-0.301-4.245-0.807c-1.313-0.504-2.425-1.211-3.334-2.119s-1.617-2.019-2.123-3.229
			C41.834,86.95,41.632,85.638,41.632,84.225z M46.786,84.225c0,0.808,0.101,1.413,0.404,2.12c0.303,0.604,0.707,1.211,1.213,1.613
			c0.505,0.504,1.01,0.807,1.717,1.11c0.708,0.303,1.314,0.404,2.021,0.404s1.415-0.102,2.021-0.404
			c0.607-0.304,1.213-0.606,1.718-1.11c0.505-0.505,0.909-1.009,1.212-1.613c0.303-0.605,0.404-1.313,0.404-2.12
			c0-0.807-0.101-1.413-0.404-2.119c-0.303-0.605-0.707-1.21-1.212-1.716c-0.505-0.505-1.111-0.808-1.718-1.109
			c-0.606-0.303-1.313-0.403-2.021-0.403s-1.415,0.101-2.021,0.403c-0.606,0.302-1.212,0.604-1.717,1.109
			c-0.506,0.506-0.91,1.011-1.213,1.716C46.887,82.812,46.786,83.418,46.786,84.225z"/>
		<path fill="#E97792" d="M64.976,93.711L68.21,74.74h4.851l3.841,10.092l3.84-10.092h4.851l3.234,18.972h-4.952l-1.617-10.899
			l-4.447,10.899h-2.021l-4.244-10.899l-1.617,10.899H64.976z"/>
		<path fill="#E97792" d="M91.151,93.711l3.234-18.972h4.85l3.841,10.092l3.839-10.092h4.851L115,93.711h-4.951l-1.617-10.899
			l-4.547,10.899h-2.021l-4.244-10.899L96,93.711H91.151z"/>
		<path fill="#E97792" d="M123.085,74.74v10.293c0,0.504,0,1.11,0.101,1.715c0,0.606,0.202,1.11,0.403,1.615
			c0.203,0.504,0.506,0.808,1.012,1.11c0.505,0.303,1.111,0.402,1.919,0.402c0.809,0,1.415-0.1,1.921-0.402
			c0.404-0.303,0.808-0.708,1.01-1.11c0.202-0.505,0.304-1.009,0.405-1.615c0-0.604,0.102-1.109,0.102-1.715V74.74h4.95v11
			c0,2.926-0.706,5.146-2.021,6.458s-3.437,2.019-6.266,2.019s-4.951-0.707-6.265-2.019s-2.021-3.532-2.021-6.458v-11H123.085z"/>
		<path fill="#E97792" d="M138.749,93.711V74.74h4.951l9.096,11.605V74.74h4.951v18.972h-4.951L143.7,82.106v11.605H138.749z"/>
		<path fill="#E97792" d="M166.641,74.74v18.972h-4.952V74.74H166.641z"/>
		<path fill="#E97792" d="M177.856,78.877v14.834h-4.95V78.877h-4.043V74.74H182v4.138H177.856z"/>
		<path fill="#E97792" d="M189.984,84.629l-6.974-9.89h5.862l3.537,5.146l3.537-5.146h5.962l-6.972,9.89v9.082h-4.953V84.629z"/>
		<path fill="#E97792" d="M29,103.096h-5.861v3.229h5.558v4.137h-5.558v3.23H29v4.238H18.187V98.958H29V103.096z"/>
		<path fill="#E97792" d="M32.537,117.931V98.958h4.952l9.095,11.605V98.958h4.952v18.973h-4.952l-9.095-11.605v11.605H32.537z"/>
		<path fill="#E97792" d="M65.179,107.334h9.802c0,1.01,0,1.918-0.101,2.725c-0.101,0.808-0.202,1.615-0.505,2.321
			c-0.303,1.01-0.809,1.917-1.415,2.624c-0.606,0.807-1.314,1.413-2.122,1.917c-0.809,0.505-1.718,0.908-2.729,1.211
			c-1.011,0.303-2.021,0.404-3.032,0.404c-1.516,0-2.83-0.203-4.042-0.707c-1.213-0.505-2.224-1.21-3.133-2.019
			c-0.91-0.907-1.516-1.916-2.021-3.229c-0.505-1.211-0.708-2.623-0.708-4.139c0-1.513,0.202-2.824,0.708-4.036
			c0.505-1.211,1.111-2.319,2.021-3.129c0.909-0.907,1.92-1.513,3.234-2.018c1.212-0.504,2.627-0.705,4.144-0.705
			c2.021,0,3.739,0.402,5.254,1.312c1.517,0.808,2.729,2.221,3.538,3.934l-4.648,1.919c-0.405-1.01-1.011-1.817-1.719-2.221
			c-0.707-0.505-1.515-0.707-2.425-0.707c-0.708,0-1.415,0.102-2.021,0.404c-0.606,0.303-1.112,0.706-1.517,1.211
			c-0.404,0.505-0.808,1.11-1.01,1.817c-0.202,0.706-0.405,1.514-0.405,2.421c0,0.809,0.102,1.514,0.304,2.221
			c0.202,0.706,0.505,1.313,0.91,1.816s0.909,0.909,1.516,1.212c0.606,0.302,1.314,0.402,2.224,0.402
			c0.505,0,1.01-0.101,1.415-0.201c0.505-0.102,0.909-0.303,1.212-0.504c0.404-0.202,0.708-0.606,0.909-0.909
			c0.202-0.403,0.404-0.909,0.506-1.413H65.28v-3.936H65.179z"/>
		<path fill="#E97792" d="M89.129,114.6h-7.074l-1.111,3.331h-5.255l7.175-18.973h5.457l7.276,18.973h-5.254L89.129,114.6z
			 M87.815,110.867l-2.223-6.357l-2.224,6.357H87.815z"/>
		<path fill="#E97792" d="M106.41,107.334h9.803c0,1.01,0,1.918-0.1,2.725c-0.104,0.808-0.205,1.615-0.507,2.321
			c-0.303,1.01-0.808,1.917-1.415,2.624c-0.607,0.807-1.313,1.413-2.123,1.917c-0.808,0.505-1.718,0.908-2.729,1.211
			c-1.011,0.303-2.021,0.404-3.032,0.404c-1.516,0-2.83-0.203-4.042-0.707c-1.212-0.505-2.223-1.21-3.133-2.019
			c-0.909-0.907-1.515-1.916-2.021-3.229c-0.506-1.211-0.707-2.623-0.707-4.139c0-1.513,0.201-2.824,0.707-4.036
			c0.505-1.211,1.111-2.319,2.021-3.129c0.91-0.907,1.92-1.513,3.234-2.018c1.212-0.504,2.627-0.705,4.144-0.705
			c2.021,0,3.739,0.402,5.254,1.312c1.516,0.808,2.729,2.221,3.538,3.934l-4.65,1.919c-0.404-1.01-1.01-1.817-1.718-2.221
			c-0.708-0.505-1.516-0.707-2.425-0.707c-0.708,0-1.415,0.102-2.022,0.404c-0.605,0.303-1.111,0.706-1.516,1.211
			c-0.403,0.505-0.809,1.11-1.01,1.817c-0.202,0.706-0.405,1.514-0.405,2.421c0,0.809,0.102,1.514,0.304,2.221
			c0.202,0.706,0.505,1.313,0.909,1.816s0.91,0.909,1.516,1.212c0.606,0.302,1.314,0.402,2.224,0.402
			c0.505,0,1.01-0.101,1.415-0.201c0.505-0.102,0.909-0.303,1.213-0.504c0.404-0.202,0.707-0.606,0.909-0.909
			c0.202-0.403,0.404-0.909,0.505-1.413h-4.042v-3.936H106.41z"/>
		<path fill="#E97792" d="M130.159,103.096h-5.862v3.229h5.559v4.137h-5.559v3.23h5.862v4.238h-10.813V98.958h10.813V103.096z"/>
		<path fill="#E97792" d="M132.887,117.931l3.234-18.973h4.851l3.84,10.093l3.841-10.093h4.85l3.234,18.973h-4.95l-1.618-10.898
			l-4.548,10.898H143.6l-4.245-10.898l-1.617,10.898H132.887z"/>
		<path fill="#E97792" d="M170.783,103.096h-5.86v3.229h5.558v4.137h-5.558v3.23h5.86v4.238h-10.813V98.958h10.813V103.096z"/>
		<path fill="#E97792" d="M174.32,117.931V98.958h4.952l9.095,11.605V98.958h4.952v18.973h-4.952l-9.095-11.605v11.605H174.32z"/>
		<path fill="#E97792" d="M204.537,103.096v14.835h-4.952v-14.835h-4.042v-4.138h13.138v4.138H204.537z"/>
		<path fill="#ED92A8" d="M141.881,55.062H85.289V69.29h56.592V55.062z"/>
		<path fill="#E06186" d="M121.164,31.447c2.83-2.826,4.648-6.862,4.648-11.303c0-8.78-7.074-15.944-15.967-15.944h-7.376h-2.224
			C96,4.2,91.958,6.016,89.027,8.842c-0.707,0.706-1.313,1.413-1.919,2.22c-1.819,2.523-2.83,5.651-2.83,8.981
			c0,5.349,2.627,10.192,6.771,13.018c-0.91,2.321-2.224,4.339-3.841,6.156c-0.303,0.505,0,1.313,0.708,1.313
			c4.952,0,9.499-1.716,13.137-4.542h8.792C114.292,36.089,118.335,34.272,121.164,31.447z"/>
		<path fill="#F6C9D3" d="M142.486,34.777c0-1.109-0.1-2.321-0.303-3.431c-0.707-3.33-2.526-6.358-5.053-8.578
			c-2.829-2.523-6.467-3.936-10.51-3.936h-0.809c-0.505,4.138-2.526,7.972-5.456,11c-3.739,3.633-8.591,5.65-13.745,5.65h-5.558
			c0.202,5.047,2.83,9.587,6.771,12.414c2.525,1.816,5.759,2.825,9.195,2.825h7.58c3.031,3.532,7.477,5.752,12.43,5.854
			c-1.718-2.221-2.829-4.744-3.335-7.569c1.516-0.808,2.931-1.816,4.144-2.927C140.668,43.153,142.486,39.217,142.486,34.777z"/>
	</g>
</g>
</svg>
