<svg xmlns="http://www.w3.org/2000/svg" width="21.024" height="71.545" viewBox="0 0 21.024 71.545">
  <g id="Group_36" data-name="Group 36" transform="translate(-47.421 -524.458)">
    <path id="Path_32" data-name="Path 32" d="M67.258,543.137V596H48.607V543.137Z" fill="#332083"/>
    <path id="Path_33" data-name="Path 33" d="M47.421,534.97a10.144,10.144,0,0,1,.825-4.071,10.716,10.716,0,0,1,5.616-5.616,10.457,10.457,0,0,1,8.142,0,10.718,10.718,0,0,1,5.615,5.616,10.445,10.445,0,0,1,0,8.142A10.7,10.7,0,0,1,62,544.661a10.5,10.5,0,0,1-8.142,0,10.734,10.734,0,0,1-3.349-2.269,10.619,10.619,0,0,1-2.267-3.351A10.109,10.109,0,0,1,47.421,534.97Z" fill="#fff"/>
  </g>
</svg>
