<?xml version="1.0" encoding="utf-8"?>
<!-- Generator: Adobe Illustrator 24.0.0, SVG Export Plug-In . SVG Version: 6.00 Build 0)  -->
<svg version="1.1" id="Layer_1" xmlns="http://www.w3.org/2000/svg" xmlns:xlink="http://www.w3.org/1999/xlink" x="0px" y="0px"
	 viewBox="0 0 144 194.1" style="enable-background:new 0 0 144 194.1;" xml:space="preserve">
<style type="text/css">
	.st0{enable-background:new    ;}
	.st1{fill:#1B0268;}
	.st2{fill:#C2BCDA;}
</style>
<g>
	<g id="Layer_2_1_">
		<g id="Key_Visual_1">
			<g id="Highlights_This_Week">
				
					<image style="overflow:visible;opacity:0.2;enable-background:new    ;" width="144" height="125" xlink:href="18DEB04A.png"  transform="matrix(1 0 0 1 0 69.14)">
				</image>
				<g class="st0">
					<path class="st1" d="M19.3,93.5l-5.4-12.9h3.7l2.6,7.2c0,0.2,0.1,0.3,0.1,0.5c0.1,0.3,0.2,0.7,0.3,1.2c0.1-0.4,0.2-0.7,0.3-1.1
						c0.1-0.3,0.1-0.6,0.2-0.7l2.6-7.2h3.7L22,93.5H19.3z"/>
				</g>
				<g class="st0">
					<path class="st1" d="M42.5,87c0,0.9-0.2,1.8-0.5,2.6c-0.3,0.8-0.8,1.5-1.5,2.2c-0.7,0.6-1.4,1.1-2.2,1.5
						c-0.9,0.3-1.8,0.5-2.6,0.5c-0.9,0-1.8-0.2-2.6-0.5c-0.9-0.3-1.6-0.8-2.2-1.5c-0.6-0.6-1.1-1.3-1.5-2.2
						c-0.4-0.8-0.5-1.7-0.5-2.6s0.2-1.8,0.5-2.6c0.4-0.8,0.9-1.6,1.5-2.2c0.6-0.6,1.4-1.1,2.2-1.5c0.8-0.3,1.7-0.5,2.6-0.5
						s1.8,0.2,2.6,0.5c0.8,0.3,1.6,0.8,2.2,1.5c0.7,0.6,1.2,1.4,1.5,2.2C42.3,85.3,42.5,86.1,42.5,87z M35.6,90.8
						c1,0,1.8-0.4,2.4-1.1c0.3-0.4,0.6-0.8,0.7-1.2S39,87.6,39,87c0-1.1-0.3-2-1-2.7c-0.7-0.7-1.5-1.1-2.4-1.1c-1,0-1.8,0.4-2.4,1.1
						S32.2,86,32.2,87c0,1.1,0.3,2,0.9,2.7C33.8,90.5,34.6,90.8,35.6,90.8z"/>
				</g>
				<g class="st0">
					<path class="st1" d="M47.6,93.5v-9.8h-2.9v-3H54v3h-2.9v9.8H47.6z"/>
					<path class="st1" d="M55.7,93.5V80.6h7.9v2.8h-4.5v2.2h4.2v2.8h-4.2v2.2h4.5v2.9H55.7z"/>
				</g>
				<g class="st0">
					<path class="st1" d="M71.8,93.5V80.6h7.9v2.8h-4.5v2.2h4.2v2.8h-4.2v5H71.8z"/>
				</g>
				<g class="st0">
					<path class="st1" d="M94.8,87c0,0.9-0.2,1.8-0.5,2.6c-0.3,0.8-0.8,1.5-1.5,2.2c-0.7,0.6-1.4,1.1-2.2,1.5
						c-0.9,0.3-1.8,0.5-2.6,0.5c-0.9,0-1.8-0.2-2.6-0.5c-0.9-0.3-1.6-0.8-2.2-1.5c-0.6-0.6-1.1-1.3-1.5-2.2
						c-0.4-0.8-0.5-1.7-0.5-2.6s0.2-1.8,0.5-2.6c0.4-0.8,0.9-1.6,1.5-2.2c0.6-0.6,1.4-1.1,2.2-1.5c0.8-0.3,1.7-0.5,2.6-0.5
						c0.9,0,1.8,0.2,2.6,0.5c0.8,0.3,1.6,0.8,2.2,1.5s1.2,1.4,1.5,2.2C94.7,85.3,94.8,86.1,94.8,87z M88,90.8c1,0,1.8-0.4,2.4-1.1
						c0.3-0.4,0.6-0.8,0.7-1.2s0.2-0.9,0.2-1.5c0-1.1-0.3-2-1-2.7c-0.7-0.7-1.5-1.1-2.4-1.1c-1,0-1.8,0.4-2.4,1.1S84.6,86,84.6,87
						c0,1.1,0.3,2,0.9,2.7C86.2,90.5,87,90.8,88,90.8z"/>
					<path class="st1" d="M97,93.5V80.6h3.7c0.7,0,1.3,0,1.8,0c0.5,0,0.9,0.1,1.2,0.1c0.5,0.1,1,0.4,1.5,0.7
						c0.5,0.4,0.8,0.8,1.1,1.4c0.3,0.5,0.4,1.1,0.4,1.8c0,1-0.2,1.8-0.7,2.4c-0.5,0.6-1.2,1-2.1,1.2l3.5,5.2h-4l-3-5v5H97z
						 M100.3,86.7h0.7c0.8,0,1.3-0.1,1.7-0.4c0.3-0.3,0.5-0.7,0.5-1.2c0-0.6-0.2-1.1-0.5-1.4c-0.3-0.3-0.9-0.4-1.6-0.4h-0.7V86.7z"
						/>
				</g>
				<g class="st0">
					<path class="st1" d="M37.6,111.5v-5.9l-4.5-7h4l1.7,3.3c0,0,0,0.1,0.1,0.1c0.2,0.3,0.3,0.7,0.4,1c0.1-0.3,0.2-0.6,0.4-0.9
						l0.1-0.1l1.7-3.3h4l-4.5,7v5.9H37.6z"/>
				</g>
				<g class="st0">
					<path class="st1" d="M60.5,105c0,0.9-0.2,1.8-0.5,2.6c-0.3,0.8-0.8,1.5-1.5,2.2c-0.7,0.6-1.4,1.1-2.2,1.5
						c-0.9,0.3-1.8,0.5-2.6,0.5c-0.9,0-1.8-0.2-2.6-0.5c-0.9-0.3-1.6-0.8-2.2-1.5c-0.6-0.6-1.1-1.3-1.5-2.2
						c-0.4-0.8-0.5-1.7-0.5-2.6s0.2-1.8,0.5-2.6c0.4-0.8,0.9-1.6,1.5-2.2c0.6-0.6,1.4-1.1,2.2-1.5c0.8-0.3,1.7-0.5,2.6-0.5
						s1.8,0.2,2.6,0.5c0.8,0.3,1.6,0.8,2.2,1.5c0.7,0.6,1.2,1.4,1.5,2.2C60.4,103.3,60.5,104.1,60.5,105z M53.7,108.8
						c1,0,1.8-0.4,2.4-1.1c0.3-0.4,0.6-0.8,0.7-1.2s0.2-0.9,0.2-1.5c0-1.1-0.3-2-1-2.7c-0.7-0.7-1.5-1.1-2.4-1.1
						c-1,0-1.8,0.4-2.4,1.1s-0.9,1.6-0.9,2.7c0,1.1,0.3,2,0.9,2.7C51.9,108.5,52.7,108.8,53.7,108.8z"/>
					<path class="st1" d="M62.6,98.6h3.5v6.3c0,1,0,1.6,0.1,2c0.1,0.4,0.1,0.8,0.2,1c0.1,0.3,0.4,0.6,0.7,0.7
						c0.3,0.2,0.8,0.3,1.2,0.3c0.5,0,0.9-0.1,1.2-0.3c0.3-0.2,0.5-0.4,0.7-0.7c0.1-0.2,0.2-0.6,0.2-1c0.1-0.4,0.1-1,0.1-2V104v-5.4
						h3.5v6.8c0,1.4-0.1,2.4-0.3,3.1c-0.2,0.7-0.4,1.3-0.9,1.7c-0.5,0.5-1.1,0.9-1.8,1.2c-0.8,0.3-1.7,0.4-2.8,0.4
						c-1.1,0-2.1-0.1-2.8-0.4c-0.7-0.2-1.3-0.6-1.8-1.2c-0.4-0.5-0.7-1-0.9-1.7c-0.2-0.7-0.3-1.7-0.3-3.1V104V98.6z"/>
					<path class="st1" d="M76.8,111.5V98.6h3.7c0.7,0,1.3,0,1.8,0c0.5,0,0.9,0.1,1.2,0.1c0.5,0.1,1,0.4,1.5,0.7
						c0.5,0.4,0.8,0.8,1.1,1.4c0.3,0.5,0.4,1.1,0.4,1.8c0,1-0.2,1.8-0.7,2.4c-0.5,0.6-1.2,1-2.1,1.2l3.5,5.2h-4l-3-5v5H76.8z
						 M80.1,104.7h0.7c0.8,0,1.3-0.1,1.7-0.4c0.3-0.3,0.5-0.7,0.5-1.2c0-0.6-0.2-1.1-0.5-1.4c-0.3-0.3-0.9-0.4-1.6-0.4h-0.7V104.7z"
						/>
				</g>
				<g class="st0">
					<path class="st1" d="M10,129.5v-12.9h7.9v2.8h-4.5v2.2h4.2v2.8h-4.2v5H10z"/>
				</g>
				<g class="st0">
					<path class="st1" d="M17.8,129.5l4.4-12.9h4.4l4.4,12.9h-3.5l-0.7-2.3h-5l-0.7,2.3H17.8z M22.7,124.6h3.5l-1.3-4.2
						c0-0.1-0.1-0.3-0.2-0.6c-0.1-0.4-0.2-0.8-0.3-1.1c-0.1,0.3-0.2,0.6-0.2,0.9c-0.1,0.3-0.2,0.6-0.2,0.8L22.7,124.6z"/>
				</g>
				<g class="st0">
					<path class="st1" d="M36.4,129.5L31,116.6h3.7l2.6,7.2c0,0.2,0.1,0.3,0.1,0.5c0.1,0.3,0.2,0.7,0.3,1.2c0.1-0.4,0.2-0.7,0.3-1.1
						c0.1-0.3,0.1-0.6,0.2-0.7l2.6-7.2h3.7l-5.4,12.9H36.4z"/>
				</g>
				<g class="st0">
					<path class="st1" d="M59.6,123c0,0.9-0.2,1.8-0.5,2.6c-0.3,0.8-0.8,1.5-1.5,2.2c-0.7,0.6-1.4,1.1-2.2,1.5
						c-0.9,0.3-1.8,0.5-2.6,0.5c-0.9,0-1.8-0.2-2.6-0.5c-0.9-0.3-1.6-0.8-2.2-1.5c-0.6-0.6-1.1-1.3-1.5-2.2
						c-0.4-0.8-0.5-1.7-0.5-2.6s0.2-1.8,0.5-2.6c0.4-0.8,0.9-1.6,1.5-2.2c0.6-0.6,1.4-1.1,2.2-1.5c0.8-0.3,1.7-0.5,2.6-0.5
						c0.9,0,1.8,0.2,2.6,0.5c0.8,0.3,1.6,0.8,2.2,1.5s1.2,1.4,1.5,2.2C59.4,121.3,59.6,122.1,59.6,123z M52.7,126.8
						c1,0,1.8-0.4,2.4-1.1c0.3-0.4,0.6-0.8,0.7-1.2s0.2-0.9,0.2-1.5c0-1.1-0.3-2-1-2.7c-0.7-0.7-1.5-1.1-2.4-1.1
						c-1,0-1.8,0.4-2.4,1.1s-0.9,1.6-0.9,2.7c0,1.1,0.3,2,0.9,2.7C50.9,126.5,51.7,126.8,52.7,126.8z"/>
					<path class="st1" d="M61.7,116.6h3.5v6.3c0,1,0,1.6,0.1,2c0.1,0.4,0.1,0.8,0.2,1c0.1,0.3,0.4,0.6,0.7,0.7
						c0.3,0.2,0.8,0.3,1.2,0.3c0.5,0,0.9-0.1,1.2-0.3c0.3-0.2,0.5-0.4,0.7-0.7c0.1-0.2,0.2-0.6,0.2-1c0.1-0.4,0.1-1,0.1-2V122v-5.4
						h3.5v6.8c0,1.4-0.1,2.4-0.3,3.1c-0.2,0.7-0.4,1.3-0.9,1.7c-0.5,0.5-1.1,0.9-1.8,1.2c-0.8,0.3-1.7,0.4-2.8,0.4
						c-1.1,0-2.1-0.1-2.8-0.4c-0.7-0.2-1.3-0.6-1.8-1.2c-0.4-0.5-0.7-1-0.9-1.7c-0.2-0.7-0.3-1.7-0.3-3.1V122V116.6z"/>
					<path class="st1" d="M75.8,129.5v-12.9h3.7c0.7,0,1.3,0,1.8,0s0.9,0.1,1.2,0.1c0.5,0.1,1,0.4,1.5,0.7c0.5,0.4,0.8,0.8,1.1,1.4
						c0.3,0.5,0.4,1.1,0.4,1.8c0,1-0.2,1.8-0.7,2.4c-0.5,0.6-1.2,1-2.1,1.2l3.5,5.2h-4l-3-5v5H75.8z M79.1,122.7h0.7
						c0.8,0,1.3-0.1,1.7-0.4c0.3-0.3,0.5-0.7,0.5-1.2c0-0.6-0.2-1.1-0.5-1.4c-0.3-0.3-0.9-0.4-1.6-0.4h-0.7V122.7z"/>
					<path class="st1" d="M87.4,129.5v-12.9H91v12.9H87.4z"/>
					<path class="st1" d="M95.6,129.5v-9.8h-2.9v-3h9.3v3h-2.9v9.8H95.6z"/>
					<path class="st1" d="M103.7,129.5v-12.9h7.9v2.8h-4.5v2.2h4.2v2.8h-4.2v2.2h4.5v2.9H103.7z"/>
				</g>
				<g class="st0">
					<path class="st1" d="M28.6,143.3c0.5,0.6,1.1,1,1.5,1.3c0.5,0.3,1,0.4,1.5,0.4c0.5,0,0.8-0.1,1.1-0.4s0.5-0.6,0.5-1
						c0-0.4-0.1-0.8-0.4-1c-0.3-0.2-0.9-0.5-1.8-0.7c-1.3-0.3-2.1-0.8-2.7-1.3c-0.5-0.6-0.8-1.3-0.8-2.3c0-1.2,0.4-2.2,1.2-3
						c0.8-0.8,1.9-1.2,3.2-1.2c0.7,0,1.4,0.1,2,0.3c0.6,0.2,1.2,0.5,1.8,0.9l-1.1,2.5c-0.4-0.3-0.8-0.6-1.2-0.8
						c-0.4-0.2-0.8-0.3-1.2-0.3c-0.4,0-0.8,0.1-1,0.3c-0.3,0.2-0.4,0.5-0.4,0.8c0,0.3,0.1,0.6,0.3,0.8c0.2,0.2,0.7,0.4,1.4,0.6
						c0,0,0,0,0.1,0s0,0,0.1,0c1.4,0.4,2.4,0.8,2.8,1.3c0.3,0.3,0.5,0.7,0.7,1.1c0.2,0.4,0.2,0.9,0.2,1.5c0,1.4-0.4,2.5-1.3,3.3
						c-0.9,0.8-2.1,1.2-3.6,1.2c-0.9,0-1.7-0.1-2.4-0.4s-1.4-0.8-2.1-1.4L28.6,143.3z"/>
					<path class="st1" d="M51.7,141c0,0.9-0.2,1.8-0.5,2.6c-0.3,0.8-0.8,1.5-1.5,2.2c-0.7,0.6-1.4,1.1-2.2,1.5
						c-0.9,0.3-1.8,0.5-2.6,0.5c-0.9,0-1.8-0.2-2.6-0.5c-0.9-0.3-1.6-0.8-2.2-1.5c-0.6-0.6-1.1-1.3-1.5-2.2
						c-0.4-0.8-0.5-1.7-0.5-2.6s0.2-1.8,0.5-2.6c0.4-0.8,0.9-1.6,1.5-2.2c0.6-0.6,1.4-1.1,2.2-1.5c0.8-0.3,1.7-0.5,2.6-0.5
						s1.8,0.2,2.6,0.5c0.8,0.3,1.6,0.8,2.2,1.5c0.7,0.6,1.2,1.4,1.5,2.2C51.5,139.3,51.7,140.1,51.7,141z M44.8,144.8
						c1,0,1.8-0.4,2.4-1.1c0.3-0.4,0.6-0.8,0.7-1.2s0.2-0.9,0.2-1.5c0-1.1-0.3-2-1-2.7c-0.7-0.7-1.5-1.1-2.4-1.1
						c-1,0-1.8,0.4-2.4,1.1s-0.9,1.6-0.9,2.7c0,1.1,0.3,2,0.9,2.7C43,144.5,43.8,144.8,44.8,144.8z"/>
					<path class="st1" d="M63.2,135.1v3.8c-0.5-0.5-1-0.9-1.4-1.2c-0.5-0.2-1-0.4-1.5-0.4c-1,0-1.8,0.3-2.5,1
						c-0.2,0.2-0.4,0.5-0.5,0.8s-0.2,0.6-0.3,0.9c-0.1,0.3-0.1,0.7-0.1,1c0,1,0.3,1.9,0.9,2.6c0.6,0.7,1.5,1,2.4,1
						c0.5,0,1-0.1,1.5-0.4c0.4-0.2,0.9-0.6,1.4-1.2v3.8c-0.7,0.3-1.2,0.5-1.7,0.6c-0.6,0.1-1.1,0.2-1.7,0.2c-0.7,0-1.3-0.1-2-0.3
						c-0.6-0.2-1.2-0.4-1.6-0.8c-1-0.7-1.7-1.5-2.2-2.4c-0.5-1-0.8-2.1-0.8-3.3c0-1,0.2-1.9,0.5-2.7c0.1-0.4,0.3-0.8,0.6-1.1
						s0.5-0.7,0.9-1.1c0.6-0.6,1.3-1.1,2.1-1.4c0.8-0.3,1.6-0.5,2.5-0.5c0.5,0,1.1,0.1,1.7,0.2C62.1,134.6,62.7,134.8,63.2,135.1z"
						/>
					<path class="st1" d="M65.3,147.5v-12.9h3.5v12.9H65.3z"/>
					<path class="st1" d="M70.1,147.5l4.4-12.9H79l4.4,12.9h-3.5l-0.7-2.3h-5l-0.7,2.3H70.1z M75,142.6h3.5l-1.3-4.2
						c0-0.1-0.1-0.3-0.2-0.6c-0.1-0.4-0.2-0.8-0.3-1.1c-0.1,0.3-0.2,0.6-0.2,0.9c-0.1,0.3-0.2,0.6-0.2,0.8L75,142.6z"/>
					<path class="st1" d="M84.6,147.5v-12.9h3.5v9.9h4.4v3H84.6z"/>
				</g>
				<g class="st0">
					<path class="st1" d="M10.1,165.5v-12.9H18v2.8h-4.5v2.2h4.2v2.8h-4.2v2.2H18v2.9H10.1z"/>
					<path class="st1" d="M20.3,165.5v-12.9h3.4l4.9,6.6c0.1,0.2,0.3,0.5,0.5,0.8c0.2,0.5,0.5,1,0.7,1.5c-0.1-0.7-0.1-1.1-0.1-1.4
						c0-0.4-0.1-0.8-0.1-1.1v-6.4h3.4v12.9h-3.4l-4.9-6.6c-0.1-0.1-0.2-0.4-0.5-0.8c-0.2-0.4-0.4-0.8-0.7-1.4
						c0.1,0.5,0.1,0.9,0.2,1.4c0,0.6,0,0.9,0,1.1v6.4H20.3z"/>
					<path class="st1" d="M37.5,165.5v-9.8h-2.9v-3h9.3v3H41v9.8H37.5z"/>
					<path class="st1" d="M45.6,165.5v-12.9h7.9v2.8h-4.5v2.2h4.2v2.8h-4.2v2.2h4.5v2.9H45.6z"/>
					<path class="st1" d="M55.8,165.5v-12.9h3.7c0.7,0,1.3,0,1.8,0c0.5,0,0.9,0.1,1.2,0.1c0.5,0.1,1,0.4,1.5,0.7
						c0.5,0.4,0.8,0.8,1.1,1.4c0.3,0.5,0.4,1.1,0.4,1.8c0,1-0.2,1.8-0.7,2.4c-0.5,0.6-1.2,1-2.1,1.2l3.5,5.2h-4l-3-5v5H55.8z
						 M59.1,158.7h0.7c0.8,0,1.3-0.1,1.7-0.4c0.3-0.3,0.5-0.7,0.5-1.2c0-0.6-0.2-1.1-0.5-1.4c-0.3-0.3-0.9-0.4-1.6-0.4h-0.7V158.7z"
						/>
					<path class="st1" d="M70.7,165.5h-3.3v-12.9H71c1.4,0,2.4,0.1,3,0.2c0.6,0.2,1.1,0.4,1.5,0.7c0.5,0.4,0.8,0.9,1.1,1.5
						c0.3,0.6,0.4,1.3,0.4,2c0,0.8-0.1,1.4-0.4,2c-0.2,0.6-0.6,1.1-1.1,1.4c-0.4,0.3-0.8,0.5-1.3,0.6c-0.5,0.1-1.2,0.2-2.4,0.2h-0.6
						h-0.6V165.5z M70.7,158.4h0.7c0.8,0,1.4-0.1,1.8-0.4c0.3-0.2,0.5-0.6,0.5-1.2c0-0.5-0.2-0.9-0.5-1.1c-0.3-0.2-0.9-0.3-1.7-0.3
						h-0.7V158.4z"/>
					<path class="st1" d="M78.8,165.5v-12.9h3.7c0.7,0,1.3,0,1.8,0c0.5,0,0.9,0.1,1.2,0.1c0.5,0.1,1,0.4,1.5,0.7
						c0.5,0.4,0.8,0.8,1.1,1.4c0.3,0.5,0.4,1.1,0.4,1.8c0,1-0.2,1.8-0.7,2.4c-0.5,0.6-1.2,1-2.1,1.2l3.5,5.2h-4l-3-5v5H78.8z
						 M82.1,158.7h0.7c0.8,0,1.3-0.1,1.7-0.4c0.3-0.3,0.5-0.7,0.5-1.2c0-0.6-0.2-1.1-0.5-1.4c-0.3-0.3-0.9-0.4-1.6-0.4h-0.7V158.7z"
						/>
					<path class="st1" d="M90.4,165.5v-12.9H94v12.9H90.4z"/>
					<path class="st1" d="M97.4,161.3c0.5,0.6,1.1,1,1.5,1.3c0.5,0.3,1,0.4,1.5,0.4c0.5,0,0.8-0.1,1.1-0.4s0.5-0.6,0.5-1
						c0-0.4-0.1-0.8-0.4-1c-0.3-0.2-0.9-0.5-1.8-0.7c-1.3-0.3-2.1-0.8-2.7-1.3c-0.5-0.6-0.8-1.3-0.8-2.3c0-1.2,0.4-2.2,1.2-3
						c0.8-0.8,1.9-1.2,3.2-1.2c0.7,0,1.4,0.1,2,0.3c0.6,0.2,1.2,0.5,1.8,0.9l-1.1,2.5c-0.4-0.3-0.8-0.6-1.2-0.8
						c-0.4-0.2-0.8-0.3-1.2-0.3c-0.4,0-0.8,0.1-1,0.3c-0.3,0.2-0.4,0.5-0.4,0.8c0,0.3,0.1,0.6,0.3,0.8c0.2,0.2,0.7,0.4,1.4,0.6
						c0,0,0,0,0.1,0s0,0,0.1,0c1.4,0.4,2.4,0.8,2.8,1.3c0.3,0.3,0.5,0.7,0.7,1.1c0.2,0.4,0.2,0.9,0.2,1.5c0,1.4-0.4,2.5-1.3,3.3
						c-0.9,0.8-2.1,1.2-3.6,1.2c-0.9,0-1.7-0.1-2.4-0.4s-1.4-0.8-2.1-1.4L97.4,161.3z"/>
					<path class="st1" d="M107.3,165.5v-12.9h7.9v2.8h-4.5v2.2h4.2v2.8h-4.2v2.2h4.5v2.9H107.3z"/>
				</g>
			</g>
			<path class="st2" d="M93.4,0H72c-3.8,0-6.9,3.1-6.9,6.9v14.3c0,3.6,2.7,6.5,6.3,6.8v6.9l6.9-6.9h15.2c3.8,0,6.9-3.1,6.9-6.8
				c0,0,0,0,0,0V6.9C100.3,3.1,97.2,0,93.4,0C93.4,0,93.4,0,93.4,0z"/>
			<path class="st1" d="M69.1,41.1H56.2c1.1-2.6,2.3-6.7,2.1-9.5c-0.3-3.3-1.7-5.3-3.5-5.6c-1.3-0.2-2.5,1.7-3.2,4
				c-0.7,2.3-1.7,4.5-2.9,6.6l-7.3,7v20.6c1.9,1.5,4.2,2.5,6.5,3c2.5,0.6,19.6,2,21.7-1c0.7-1.1,1-2.3,0.8-3.6
				c0.8-0.7,1.4-1.7,1.8-2.7c0.4-1.4,0.4-2.9-0.1-4.2c0.8-0.9,1.3-2.1,1.4-3.3c0.1-1.2-0.1-2.4-0.6-3.4c0.5-1.3,0.8-2.6,0.8-4
				C73.7,42.3,71.2,41.1,69.1,41.1z"/>
			<path class="st2" d="M38.1,41.3h-5.3c-1.7,0-3,1.3-3,3v18.5c0,1.7,1.3,3,3,3.1h5.3c1.7,0,3-1.3,3-3c0,0,0,0,0-0.1V44.3
				C41.1,42.7,39.8,41.3,38.1,41.3C38.1,41.3,38.1,41.3,38.1,41.3z M35.4,62.7c-1.3,0-2.4-1.1-2.4-2.4s1.1-2.4,2.4-2.4
				s2.4,1.1,2.4,2.4v0C37.9,61.6,36.8,62.7,35.4,62.7z"/>
		</g>
	</g>
</g>
</svg>
