<?xml version="1.0" encoding="utf-8"?>
<!-- Generator: Adobe Illustrator 16.0.0, SVG Export Plug-In . SVG Version: 6.00 Build 0)  -->
<!DOCTYPE svg PUBLIC "-//W3C//DTD SVG 1.1//EN" "http://www.w3.org/Graphics/SVG/1.1/DTD/svg11.dtd">
<svg version="1.1" id="Layer_1" xmlns="http://www.w3.org/2000/svg" xmlns:xlink="http://www.w3.org/1999/xlink" x="0px" y="0px"
	 width="232px" height="149px" viewBox="0 0 232 149" enable-background="new 0 0 232 149" xml:space="preserve">
<g>
	<defs>
		<rect id="SVGID_1_" x="13.115" y="5.297" width="196.191" height="118.778"/>
	</defs>
	<clipPath id="SVGID_2_">
		<use xlink:href="#SVGID_1_"  overflow="visible"/>
	</clipPath>
	<g clip-path="url(#SVGID_2_)">
		<path fill="#FF6633" d="M13.115,99.885l3.148-18.563h4.723l3.739,9.874l3.739-9.874h4.723l3.148,18.563h-4.821l-1.574-10.663
			l-4.428,10.663h-1.869L19.51,89.123l-1.574,10.762H13.115z"/>
		<path fill="#FF6633" d="M50.798,96.627h-6.887l-1.083,3.258h-5.116l7.084-18.563h5.215l7.084,18.563h-5.116L50.798,96.627z
			 M49.519,92.974l-2.165-6.221l-2.165,6.221H49.519z"/>
		<path fill="#FF6633" d="M59.162,99.885v-18.66h4.821l8.954,11.354V81.225h4.821v18.562h-4.821l-8.954-11.354v11.354h-4.821V99.885
			z"/>
		<path fill="#FF6633" d="M92.909,96.627h-6.887l-1.082,3.258h-5.116l7.084-18.66h5.313l7.083,18.562h-5.116L92.909,96.627z
			 M91.631,92.974l-2.165-6.221l-2.165,6.221H91.631z"/>
		<path fill="#FF6633" d="M109.734,89.419h9.544c0,0.987,0,1.876-0.099,2.666s-0.197,1.58-0.491,2.271
			c-0.296,0.986-0.788,1.875-1.378,2.566c-0.59,0.79-1.279,1.383-2.066,1.876c-0.787,0.494-1.673,0.889-2.656,1.186
			c-0.984,0.295-1.968,0.395-2.952,0.395c-1.477,0-2.755-0.197-3.936-0.691s-2.165-1.184-3.05-1.975
			c-0.886-0.889-1.476-1.876-1.968-3.16c-0.492-1.185-0.688-2.566-0.688-4.048s0.196-2.764,0.688-3.949
			c0.492-1.185,1.082-2.271,1.968-3.061c0.885-0.889,1.869-1.48,3.148-1.974c1.181-0.495,2.559-0.692,4.033-0.692
			c1.969,0,3.641,0.396,5.117,1.284c1.476,0.79,2.656,2.172,3.443,3.85l-4.624,1.877c-0.394-0.988-0.984-1.778-1.673-2.173
			s-1.476-0.69-2.361-0.69c-0.688,0-1.378,0.098-1.968,0.395c-0.59,0.296-1.083,0.69-1.476,1.185
			c-0.395,0.493-0.787,1.087-0.984,1.777s-0.394,1.48-0.394,2.369c0,0.791,0.099,1.481,0.296,2.173
			c0.196,0.691,0.491,1.283,0.885,1.777s0.886,0.889,1.476,1.185c0.591,0.296,1.279,0.395,2.165,0.395
			c0.492,0,0.983-0.099,1.377-0.196c0.394-0.1,0.886-0.297,1.181-0.494c0.394-0.198,0.689-0.593,0.886-0.889
			c0.197-0.396,0.394-0.889,0.492-1.383h-3.936V89.419z"/>
		<path fill="#FF6633" d="M132.954,85.371h-5.707v3.159h5.412v4.049h-5.412v3.159h5.707v4.146h-10.626v-18.66h10.527v4.146H132.954z
			"/>
		<path fill="#FF6633" d="M135.512,99.885l3.149-18.563h4.723l3.738,9.874l3.739-9.874h4.723l3.148,18.563h-4.82l-1.574-10.663
			l-4.428,10.663h-1.869l-4.133-10.663l-1.574,10.663H135.512z"/>
		<path fill="#FF6633" d="M172.409,85.371h-5.706v3.159h5.412v4.049h-5.412v3.159h5.706v4.146h-10.527v-18.66h10.527V85.371z"/>
		<path fill="#FF6633" d="M175.854,99.885v-18.66h4.82l8.855,11.354V81.225h4.822v18.562h-4.822l-8.855-11.354v11.354h-4.82V99.885z
			"/>
		<path fill="#FF6633" d="M205.271,85.371v14.514h-4.82V85.371h-3.937v-4.049h12.693v4.049H205.271z"/>
		<path fill="#FF6633" d="M64.18,109.66c-0.492-0.396-1.083-0.79-1.575-0.987c-0.492-0.197-0.984-0.297-1.476-0.297
			c-0.59,0-1.181,0.1-1.575,0.494c-0.393,0.296-0.59,0.691-0.59,1.185c0,0.296,0.098,0.593,0.295,0.79
			c0.197,0.197,0.492,0.395,0.787,0.593c0.295,0.197,0.689,0.296,1.083,0.395c0.394,0.1,0.787,0.197,1.181,0.396
			c1.574,0.494,2.755,1.185,3.444,2.072c0.689,0.89,1.082,2.074,1.082,3.456c0,0.988-0.196,1.777-0.492,2.566
			c-0.295,0.791-0.787,1.482-1.377,1.976c-0.59,0.494-1.377,0.987-2.263,1.284c-0.886,0.296-1.87,0.493-3.05,0.493
			c-2.361,0-4.525-0.691-6.494-2.074l2.066-3.948c0.689,0.592,1.476,1.086,2.165,1.48c0.689,0.396,1.377,0.494,2.066,0.494
			c0.787,0,1.377-0.198,1.771-0.494c0.393-0.395,0.59-0.789,0.59-1.186c0-0.295-0.098-0.492-0.197-0.69
			c-0.098-0.198-0.295-0.396-0.492-0.592c-0.197-0.198-0.492-0.297-0.885-0.494c-0.394-0.197-0.787-0.296-1.377-0.494
			c-0.59-0.197-1.279-0.395-1.87-0.69c-0.59-0.197-1.181-0.593-1.574-0.987c-0.492-0.396-0.886-0.889-1.181-1.481
			s-0.394-1.382-0.394-2.271s0.197-1.777,0.492-2.469c0.295-0.789,0.689-1.382,1.279-1.876s1.181-0.987,2.066-1.283
			c0.885-0.297,1.672-0.493,2.656-0.493c0.886,0,1.87,0.098,2.854,0.394c0.984,0.297,1.968,0.593,2.853,1.087L64.18,109.66z"/>
		<path fill="#FF6633" d="M74.412,114.597l-6.789-9.677h5.707l3.444,5.036l3.444-5.036h5.706l-6.789,9.677v8.886h-4.821v-8.886
			H74.412z"/>
		<path fill="#FF6633" d="M97.042,109.66c-0.492-0.396-1.083-0.79-1.575-0.987c-0.492-0.197-1.083-0.297-1.574-0.297
			c-0.591,0-1.083,0.1-1.477,0.494c-0.394,0.296-0.59,0.691-0.59,1.185c0,0.296,0.098,0.593,0.295,0.79
			c0.197,0.197,0.492,0.395,0.787,0.593c0.295,0.197,0.688,0.296,1.082,0.395c0.394,0.1,0.787,0.197,1.181,0.396
			c1.574,0.494,2.754,1.185,3.444,2.072c0.688,0.89,1.082,2.074,1.082,3.456c0,0.988-0.197,1.777-0.491,2.566
			c-0.296,0.791-0.788,1.482-1.378,1.976c-0.591,0.494-1.378,0.987-2.264,1.284c-0.885,0.296-1.869,0.493-3.049,0.493
			c-2.362,0-4.526-0.691-6.494-2.074l2.066-3.948c0.689,0.592,1.477,1.086,2.165,1.48c0.689,0.296,1.378,0.494,2.067,0.494
			c0.787,0,1.377-0.198,1.771-0.494c0.394-0.395,0.59-0.789,0.59-1.186c0-0.295-0.099-0.492-0.197-0.69
			c-0.099-0.198-0.295-0.396-0.492-0.592c-0.197-0.198-0.492-0.297-0.885-0.494c-0.394-0.197-0.787-0.296-1.377-0.494
			c-0.591-0.197-1.28-0.395-1.87-0.69c-0.591-0.197-1.083-0.593-1.575-0.987c-0.491-0.396-0.885-0.889-1.082-1.481
			c-0.295-0.593-0.394-1.382-0.394-2.271s0.197-1.777,0.492-2.469c0.296-0.789,0.689-1.382,1.28-1.876
			c0.59-0.494,1.181-0.987,2.066-1.283c0.787-0.297,1.673-0.493,2.656-0.493c0.886,0,1.87,0.098,2.854,0.394
			c0.983,0.297,1.968,0.593,2.854,1.087L97.042,109.66z"/>
		<path fill="#FF6633" d="M109.932,109.067v14.515h-4.822v-14.515h-3.935v-4.048h12.79v4.048H109.932z"/>
		<path fill="#FF6633" d="M126.56,109.067h-5.707v3.16h5.412v4.048h-5.412v3.159h5.707v4.147h-10.528V105.02h10.528V109.067z"/>
		<path fill="#FF6633" d="M129.215,123.582l3.149-18.563h4.723l3.739,9.873l3.738-9.873h4.724l3.147,18.563h-4.82l-1.574-10.664
			l-4.429,10.664h-1.868l-4.133-10.664l-1.574,10.664H129.215z"/>
		<path fill="#FF6633" d="M165.62,109.66c-0.491-0.396-1.082-0.79-1.574-0.987s-1.082-0.297-1.574-0.297
			c-0.59,0-1.082,0.1-1.476,0.494c-0.394,0.296-0.591,0.691-0.591,1.185c0,0.296,0.099,0.593,0.295,0.79
			c0.197,0.197,0.492,0.395,0.787,0.593c0.296,0.197,0.689,0.296,1.083,0.395c0.394,0.1,0.787,0.197,1.181,0.396
			c1.574,0.494,2.755,1.185,3.443,2.072c0.688,0.89,1.083,2.074,1.083,3.456c0,0.988-0.198,1.777-0.493,2.566
			c-0.294,0.791-0.787,1.482-1.377,1.976c-0.59,0.494-1.378,0.987-2.263,1.284c-0.886,0.296-1.869,0.493-3.051,0.493
			c-2.361,0-4.526-0.691-6.494-2.074l2.067-3.948c0.688,0.592,1.476,1.086,2.165,1.48c0.688,0.296,1.377,0.494,2.065,0.494
			c0.787,0,1.378-0.198,1.771-0.494c0.394-0.395,0.591-0.789,0.591-1.186c0-0.295-0.098-0.492-0.197-0.69
			c-0.098-0.198-0.294-0.396-0.491-0.592c-0.197-0.198-0.492-0.297-0.886-0.494s-0.787-0.296-1.378-0.494
			c-0.59-0.197-1.278-0.395-1.869-0.69c-0.59-0.197-1.082-0.593-1.574-0.987c-0.492-0.396-0.886-0.889-1.082-1.481
			c-0.296-0.593-0.394-1.382-0.394-2.271s0.196-1.777,0.492-2.469c0.295-0.789,0.688-1.382,1.278-1.876s1.182-0.987,2.067-1.283
			c0.786-0.297,1.672-0.493,2.656-0.493c0.886,0,1.869,0.098,2.854,0.394c0.983,0.297,1.968,0.593,2.853,1.087L165.62,109.66z"/>
		<path fill="#FFC2AD" d="M133.151,61.872H86.612V76.88h46.539V61.872z"/>
		<path fill="#FFC2AD" d="M114.162,34.818c1.082-0.395,2.065-0.79,2.951-1.481l1.968,1.679c0.492,0.395,1.182,0.395,1.575-0.099
			l3.246-3.654c0.394-0.493,0.394-1.184-0.098-1.579l-1.968-1.679c0.491-0.987,0.787-1.975,1.081-3.061l2.559-0.198
			c0.59,0,1.083-0.592,1.083-1.185l-0.295-4.937c0-0.592-0.592-1.086-1.182-1.086l-2.559,0.197
			c-0.394-1.086-0.787-2.073-1.476-2.962l1.673-1.975c0.394-0.494,0.394-1.185-0.098-1.58l-3.642-3.258
			c-0.492-0.395-1.181-0.395-1.574,0.099l-1.672,1.975c-0.984-0.494-1.968-0.79-3.051-1.086l-0.196-2.567
			c0-0.592-0.591-1.086-1.181-1.086l-4.92,0.296c-0.591,0-1.082,0.593-1.082,1.186l0.197,2.566c-1.083,0.395-2.066,0.79-2.952,1.481
			l-1.968-1.678c-0.492-0.395-1.181-0.395-1.574,0.099l-3.346,3.653c-0.394,0.494-0.394,1.185,0.098,1.58l1.968,1.679
			c-0.492,0.987-0.787,1.975-1.082,3.061l-2.559,0.197c-0.59,0-1.083,0.592-1.083,1.185l0.295,4.937
			c0,0.592,0.591,1.086,1.181,1.086l2.559-0.197c0.394,1.086,0.787,2.073,1.476,2.962l-1.673,1.975
			c-0.394,0.494-0.394,1.185,0.099,1.58l3.641,3.258c0.491,0.395,1.181,0.395,1.574-0.099l1.672-1.975
			c0.984,0.494,1.968,0.79,3.051,1.086l0.196,2.567c0,0.592,0.591,1.086,1.182,1.086l4.919-0.296c0.591,0,1.082-0.593,1.082-1.185
			L114.162,34.818z M110.324,30.474c-4.624,0.296-8.56-3.159-8.855-7.8c-0.294-4.641,3.148-8.59,7.773-8.886
			c4.624-0.296,8.56,3.16,8.855,7.8C118.393,26.229,114.949,30.178,110.324,30.474z"/>
		<path fill="#FF6633" d="M94.188,58.515c1.082,0.099,2.165,0.099,3.247-0.099l1.082,2.37c0.295,0.592,0.886,0.79,1.477,0.592
			l4.427-2.074c0.59-0.296,0.787-0.889,0.59-1.481l-1.081-2.369c0.885-0.692,1.574-1.481,2.262-2.37l2.461,0.889
			c0.59,0.198,1.278-0.099,1.475-0.691l1.674-4.641c0.196-0.592-0.099-1.283-0.689-1.481l-2.459-0.888
			c0.098-1.086,0.098-2.172-0.099-3.258l2.36-1.086c0.591-0.296,0.788-0.888,0.591-1.48l-2.065-4.542
			c-0.296-0.592-0.886-0.79-1.477-0.592l-2.361,1.086c-0.688-0.889-1.476-1.58-2.361-2.271l0.886-2.468
			c0.197-0.592-0.099-1.284-0.688-1.481L98.813,28.5c-0.59-0.198-1.279,0.099-1.476,0.691l-0.886,2.468
			c-1.083-0.099-2.165-0.099-3.247,0.099l-1.082-2.37c-0.295-0.592-0.886-0.79-1.476-0.592l-4.526,2.172
			c-0.59,0.296-0.787,0.889-0.59,1.481l1.083,2.369c-0.886,0.691-1.574,1.481-2.263,2.37L81.987,36.3
			c-0.59-0.198-1.279,0.099-1.475,0.691l-1.673,4.641c-0.197,0.592,0.099,1.283,0.689,1.481l2.459,0.888
			c-0.098,1.086-0.098,2.172,0.099,3.258l-2.361,1.086c-0.59,0.296-0.787,0.889-0.59,1.481L81.2,54.27
			c0.296,0.592,0.886,0.79,1.476,0.592l2.362-1.086c0.688,0.889,1.476,1.58,2.361,2.271l-0.886,2.469
			c-0.197,0.593,0.099,1.284,0.689,1.48l4.625,1.581c0.59,0.197,1.279-0.099,1.476-0.691L94.188,58.515z M92.417,52.887
			c-4.329-1.58-6.494-6.418-4.919-10.762c1.574-4.345,6.396-6.517,10.725-4.937s6.494,6.417,4.92,10.762
			C101.567,52.295,96.746,54.467,92.417,52.887z"/>
		<path fill="#FF855C" d="M128.034,58.021c1.083-0.296,2.067-0.691,3.051-1.283l1.869,1.875c0.394,0.395,1.181,0.395,1.574,0
			l3.444-3.456c0.394-0.395,0.394-1.185,0-1.58l-1.87-1.876c0.591-0.987,0.984-1.975,1.279-3.061h2.559
			c0.59,0,1.181-0.494,1.181-1.185V42.52c0-0.593-0.492-1.185-1.181-1.185h-2.559c-0.295-1.086-0.688-2.073-1.279-3.061l1.87-1.876
			c0.394-0.395,0.394-1.185,0-1.58l-3.444-3.455c-0.394-0.396-1.181-0.396-1.574,0l-1.869,1.875
			c-0.983-0.592-1.968-0.987-3.051-1.284v-2.567c0-0.592-0.491-1.185-1.181-1.185h-4.919c-0.591,0-1.181,0.493-1.181,1.185v2.567
			c-1.083,0.296-2.065,0.691-3.05,1.284l-1.87-1.875c-0.394-0.396-1.181-0.396-1.574,0l-3.542,3.455
			c-0.394,0.396-0.394,1.185,0,1.58l1.87,1.876c-0.591,0.988-0.984,1.975-1.279,3.061h-2.559c-0.591,0-1.181,0.494-1.181,1.185
			v4.937c0,0.593,0.492,1.185,1.181,1.185h2.559c0.295,1.086,0.688,2.073,1.279,3.061l-1.87,1.876c-0.394,0.395-0.394,1.185,0,1.58
			l3.444,3.456c0.394,0.395,1.181,0.395,1.574,0l1.869-1.875c0.983,0.592,1.968,0.987,3.051,1.283v2.567
			c0,0.593,0.491,1.185,1.181,1.185h4.919c0.591,0,1.181-0.493,1.181-1.185L128.034,58.021z M124.492,53.381
			c-4.623,0-8.362-3.752-8.362-8.393s3.739-8.393,8.362-8.393c4.625,0,8.363,3.752,8.363,8.393
			C132.855,49.728,129.117,53.381,124.492,53.381z"/>
	</g>
</g>
</svg>
