<svg xmlns="http://www.w3.org/2000/svg" width="15.122" height="15.124" viewBox="0 0 15.122 15.124">
  <g id="Linkedin" transform="translate(-1322.111 -804.569)">
    <g id="Group_105" data-name="Group 105">
      <path id="Path_271" data-name="Path 271" d="M1337.231,812.179c0,1.089,0,2.178,0,3.267a4.19,4.19,0,0,1-4.243,4.242q-3.3.009-6.611,0a4.187,4.187,0,0,1-4.262-4.262q-.008-3.287,0-6.572a4.188,4.188,0,0,1,4.282-4.282q3.287-.006,6.572,0a4.187,4.187,0,0,1,4.262,4.261C1337.234,809.949,1337.231,811.064,1337.231,812.179Z" fill="#332083"/>
    </g>
    <g id="Group_106" data-name="Group 106">
      <path id="Path_272" data-name="Path 272" d="M1330.286,811.161a4.664,4.664,0,0,1,.886-.627,2.309,2.309,0,0,1,3.292,1.808,5.717,5.717,0,0,1,.081.951c.01,1.074,0,2.149.007,3.223,0,.205-.058.279-.271.274q-.816-.021-1.633,0c-.209.005-.257-.073-.256-.264.005-1.075,0-2.149,0-3.223a2.316,2.316,0,0,0-.041-.388.951.951,0,0,0-.784-.873,1.07,1.07,0,0,0-1.129.566,1.187,1.187,0,0,0-.14.515c-.014,1.125-.009,2.25-.011,3.375,0,.287,0,.287-.291.288-.529,0-1.06-.011-1.589.005-.228.007-.282-.075-.28-.287q.025-2.558.035-5.116c0-.238-.015-.477-.026-.716-.007-.133.035-.2.184-.2.595.006,1.19.005,1.785,0,.131,0,.186.051.183.179C1330.283,810.835,1330.286,811.016,1330.286,811.161Z" fill="#fff6de"/>
      <path id="Path_273" data-name="Path 273" d="M1324.9,813.63c0-.965,0-1.931,0-2.9,0-.194.053-.268.259-.263.559.013,1.118.011,1.677,0,.185,0,.235.066.235.241q-.008,2.918,0,5.836c0,.174-.05.244-.235.241q-.849-.015-1.7,0c-.186,0-.234-.069-.233-.242.005-.973,0-1.945,0-2.918Z" fill="#fff6de"/>
      <path id="Path_274" data-name="Path 274" d="M1326.159,807.469a1.039,1.039,0,0,1,.918.627,1.067,1.067,0,0,1-.153,1.2,1.324,1.324,0,0,1-1.67.182,1.112,1.112,0,0,1-.319-1.451A1.273,1.273,0,0,1,1326.159,807.469Z" fill="#fff6de"/>
    </g>
  </g>
</svg>
