<svg xmlns="http://www.w3.org/2000/svg" width="15.121" height="15.124" viewBox="0 0 15.121 15.124">
  <g id="Instagram" transform="translate(-1302.629 -804.569)">
    <g id="Group_104" data-name="Group 104">
      <path id="Path_269" data-name="Path 269" d="M1317.749,812.179c0,1.089,0,2.178,0,3.267a4.19,4.19,0,0,1-4.242,4.242q-3.306.009-6.612,0a4.186,4.186,0,0,1-4.261-4.262q-.008-3.287,0-6.572a4.189,4.189,0,0,1,4.282-4.282q3.287-.006,6.572,0a4.187,4.187,0,0,1,4.262,4.261C1317.753,809.949,1317.749,811.064,1317.749,812.179Zm-7.552,4.142a4.191,4.191,0,1,0-4.2-4.194A4.171,4.171,0,0,0,1310.2,816.321Zm5.874-9.229a.842.842,0,1,0-.862.84A.861.861,0,0,0,1316.071,807.092Z" fill="#332083"/>
      <path id="Path_270" data-name="Path 270" d="M1312.71,812.14a2.519,2.519,0,1,1-2.52-2.529A2.518,2.518,0,0,1,1312.71,812.14Z" fill="#332083"/>
    </g>
  </g>
</svg>
