<svg xmlns="http://www.w3.org/2000/svg" width="15.121" height="15.123" viewBox="0 0 15.121 15.123">
  <g id="Facebook" transform="translate(-1283.148 -804.569)">
    <path id="Path_275" data-name="Path 275" d="M1283.149,813.424V810.77Q1283.147,812.1,1283.149,813.424Z" fill="#332083"/>
    <path id="Path_276" data-name="Path 276" d="M1298.269,813.7v0Z" fill="#332083"/>
    <path id="Path_277" data-name="Path 277" d="M1298.268,812.179c0-1.115,0-2.23,0-3.345a4.187,4.187,0,0,0-4.262-4.261q-3.287-.009-6.572,0a4.188,4.188,0,0,0-4.282,4.282q0,.958,0,1.916v2.654q0,1,0,2a4.187,4.187,0,0,0,4.262,4.262q1.643,0,3.286,0v-5.714h-1.833v-2.525h1.841c0-.338,0-.655,0-.972a3.374,3.374,0,0,1,.669-2.044,2.7,2.7,0,0,1,2.313-1.188c.576.008,1.153.005,1.729,0,.128,0,.17.031.169.164-.006.74,0,1.48,0,2.22,0,.044-.006.088-.011.148h-.167c-.6,0-1.192,0-1.788,0a.438.438,0,0,0-.428.241,1.041,1.041,0,0,0-.12.407c-.018.312-.006.625-.005.938a.518.518,0,0,0,.017.091h.185c.72,0,1.44,0,2.16,0,.123,0,.161.032.16.158-.005.745,0,1.49,0,2.235,0,.042-.007.085-.012.141h-2.5v5.7h.951a4.19,4.19,0,0,0,4.243-4.242q0-.78,0-1.56V813.7Q1298.269,812.94,1298.268,812.179Z" fill="#332083"/>
  </g>
</svg>
