<?xml version="1.0" encoding="utf-8"?>
<!-- Generator: Adobe Illustrator 16.0.0, SVG Export Plug-In . SVG Version: 6.00 Build 0)  -->
<!DOCTYPE svg PUBLIC "-//W3C//DTD SVG 1.1//EN" "http://www.w3.org/Graphics/SVG/1.1/DTD/svg11.dtd">
<svg version="1.1" id="Layer_1" xmlns="http://www.w3.org/2000/svg" xmlns:xlink="http://www.w3.org/1999/xlink" x="0px" y="0px"
	 width="134.375px" height="123.958px" viewBox="0 0 134.375 123.958" enable-background="new 0 0 134.375 123.958"
	 xml:space="preserve">
<g>
	<g>
		<g>
			<defs>
				<rect id="SVGID_1_" x="19.197" y="53.759" width="96.231" height="52.849"/>
			</defs>
			<clipPath id="SVGID_2_">
				<use xlink:href="#SVGID_1_"  overflow="visible"/>
			</clipPath>
			<g clip-path="url(#SVGID_2_)">
				<path fill="#002853" d="M26.083,102.76c-0.168-0.877-0.506-1.419-1.553-2.126c-0.944-0.642-2.126-1.452-2.126-1.452
					s-1.485-0.809-1.553-1.755c-0.102-0.944,0.945-1.821,2.295-1.753c0.641,0.033,1.046,0.235,1.283,0.369
					c0.404,0.272,0.607,0.608,0.675,0.711c0,0.033,0.034,0.033,0.034,0.033c0.033,0.033,0.067,0.067,0.135,0.067
					c0.033,0,0.067-0.067,0.067-0.101v-1.856c0,0-0.945,0-2.633,0c-1.62,0-3.578,1.181-3.51,3.07
					c0.034,0.471-0.034,1.35,1.789,2.498c1.687,1.08,3.207,1.719,3.207,3.34c0,1.688-1.62,2.364-2.903,2.16
					c-0.608-0.102-1.013-0.337-1.249-0.574c-0.371-0.37-0.473-0.81-0.541-1.181c0-0.068-0.067-0.101-0.135-0.101
					c-0.034,0-0.068,0.067-0.068,0.101v1.417c0,0,0.845,0.846,2.296,0.943C25.341,106.844,26.354,104.313,26.083,102.76z"/>
				<path fill="#002853" d="M33.205,96.618c-3.071,0-4.86,2.026-4.86,4.929c0,3.035,1.991,4.858,4.725,4.858
					c3.004,0,4.86-2.194,4.86-5.029C37.93,98.304,35.837,96.618,33.205,96.618z M33.104,105.865c-1.925,0-3.309-1.62-3.309-4.286
					c0-3.104,1.688-4.318,3.341-4.318c0.844,0,2.126,0.37,2.802,1.62c0.438,0.809,0.54,1.922,0.54,2.632
					C36.479,104.279,35.095,105.865,33.104,105.865z"/>
				<path fill="#002853" d="M65.203,100.971h-3.341c0.034,0.103,0.135,0.507,0.54,0.641h2.802v4.086c0,0.032,0,0.133,0.034,0.2
					c0.034,0.137,0.271,0.338,0.607,0.338h0.777v-9.381h-1.418V100.971L65.203,100.971z"/>
				<path fill="#002853" d="M47.044,102.929c-0.035,0.403,0,0.811-0.102,1.147c-0.371,1.519-2.059,1.652-2.362,1.652
					c-0.743,0-1.351-0.337-1.722-0.775c-0.371-0.406-0.405-0.913-0.438-1.788v-0.034v-6.344h-1.418h-0.337
					c-0.034,0-0.034,0.033-0.034,0.033c0,0.034,0,0.067,0.034,0.067c0.068,0.066,0.337,0.271,0.337,0.878v5.298
					c0,0.913,0.068,1.519,0.506,2.059c0.709,0.913,1.958,1.182,2.835,1.182c1.316,0,2.093-0.474,2.566-0.944
					c0.674-0.642,0.775-1.452,0.775-2.396c0-0.608,0-6.244,0-6.244h-0.675v6.21H47.044L47.044,102.929z"/>
				<path fill="#002853" d="M50.419,97.427h2.498v8.202c0,0,0,0.135,0.034,0.235c0.033,0.135,0.271,0.338,0.607,0.338h0.777v-8.775
					h2.498v-0.64h-6.413V97.427z"/>
				<path fill="#002853" d="M59.432,96.855c0,0.033,0,0.067,0.034,0.067c0.067,0.067,0.338,0.269,0.338,0.876v7.797
					c0,0,0,0.135,0.032,0.235c0.067,0.137,0.271,0.34,0.608,0.34h0.775v-9.383h-1.754C59.465,96.821,59.432,96.821,59.432,96.855z"
					/>
				<path fill="#002853" d="M108.678,105.865c0.067,0.135,0.27,0.338,0.605,0.338h0.777v-9.382h-1.755
					c-0.034,0-0.034,0.034-0.034,0.034c0,0.033,0,0.067,0.034,0.067c0.067,0.067,0.338,0.269,0.338,0.876v7.797
					C108.644,105.629,108.644,105.764,108.678,105.865z"/>
				<path fill="#002853" d="M105.707,96.955c-0.574-0.2-1.183-0.303-1.855-0.303c-3.074,0-4.862,2.023-4.862,4.927
					c0,3.037,1.993,4.859,4.726,4.859c0.744,0,1.385-0.134,1.958-0.371v-0.472c0,0-0.607,0.271-1.958,0.271
					c-1.924,0-3.307-1.62-3.307-4.286c0-3.105,1.688-4.319,3.374-4.319c0.203,0,0.473,0.034,0.71,0.136c0,0,0.607,0.168,0.945,0.572
					c0.066,0.034,0.066,0.069,0.101,0.102c0,0.035,0.033,0.035,0.067,0.035c0.035,0,0.035-0.035,0.035-0.035v-0.371v-0.743
					L105.707,96.955L105.707,96.955z"/>
				<path fill="#002853" d="M114.009,100.971h-3.34c0.034,0.103,0.134,0.507,0.54,0.641h2.8v4.086c0,0.032,0,0.133,0.034,0.2
					c0.067,0.137,0.271,0.338,0.609,0.338h0.776v-9.381h-1.42V100.971L114.009,100.971z"/>
				<path fill="#002853" d="M93.725,96.788h-1.485c-0.033,0-0.033,0.033-0.033,0.033c0,0.034,0,0.067,0.033,0.067
					c0.034,0.034,0.135,0.102,0.235,0.303v0.034l-3.172,8.945h0.642l2.87-8.066l1.416,4.016h-2.193c0,0.035,0.102,0.472,0.472,0.642
					h1.959l1.013,2.901c0,0.035,0.033,0.135,0.066,0.203c0.067,0.135,0.27,0.337,0.607,0.337h0.911L93.725,96.788z"/>
				<path fill="#002853" d="M87.244,105.561h-3.779v-8.134h3.407v-0.64h-4.76h-0.369c-0.033,0-0.033,0.033-0.033,0.033
					c0,0.034,0,0.067,0.033,0.067c0.067,0.066,0.337,0.271,0.337,0.91v7.831c0,0.033,0,0.135,0.032,0.201
					c0.034,0.137,0.271,0.34,0.608,0.34h0.776h3.781v-0.609H87.244L87.244,105.561z"/>
				<path fill="#002853" d="M75.667,100.43c1.147-0.167,2.533-0.775,2.533-2.732c0-2.835-3.241-2.665-3.241-2.665h-1.857h-1.315
					h-0.777c-0.034,0-0.102,0.033-0.102,0.065c0,0.034,0,0.102,0.067,0.137c0,0,0,0,0.034,0.033c0.135,0.102,0.777,0.539,0.81,1.52
					c0,0.067,0,0.101,0,0.167v0.07v8.638v-0.033c0,0,0,0.135,0.034,0.304c0.068,0.167,0.338,0.403,0.708,0.403h0.575h1.989
					c0,0,3.478,0.204,3.478-2.901C78.636,101.141,76.949,100.534,75.667,100.43z M74.384,105.595h-0.878v-9.888h0.742
					c0,0,2.499-0.135,2.499,2.126c0,1.99-0.912,2.228-2.06,2.228h-0.439c0.034,0.101,0.169,0.642,0.642,0.741
					c1.182,0.034,2.128,0.339,2.128,2.431C77.051,105.73,74.384,105.595,74.384,105.595z"/>
				<path fill="#002853" d="M84.51,101.612h2.025v-0.641h-2.633C83.969,101.105,84.104,101.512,84.51,101.612z"/>
				<path fill="#A2D23F" d="M85.051,86.461c-1.823-1.081-3.68-0.338-3.68-0.338c0.642-0.069,1.788,0,2.802,0.641
					c1.823,1.182,2.667,3.712,4.117,3.881c0,0,0.607,0.102,0.979-0.032c0.371-0.103,0.406-0.203,0.406-0.203
					C87.851,90.476,87.007,87.642,85.051,86.461z"/>
				<path fill="#009D9A" d="M88.29,85.346c-2.903-1.721-5.805-0.54-5.805-0.54c1.045-0.067,2.834,0,4.421,1.012
					c2.902,1.856,4.186,5.84,6.48,6.143c0,0,0.979,0.135,1.553-0.034c0.574-0.168,0.607-0.303,0.607-0.303
					C92.713,91.624,91.395,87.203,88.29,85.346z"/>
				<path fill="#A2D23F" d="M100.644,89.935c0,0,0.742,0.608,1.014-0.471c0.337-1.552,1.553-4.319,4.151-4.859
					c0,0-1.35-0.306-2.903,1.046C101.185,87.136,100.644,89.935,100.644,89.935z"/>
				<path fill="#009D9A" d="M91.732,83.661c-3.678-2.194-7.358-0.71-7.358-0.71c1.317-0.103,3.612,0,5.604,1.282
					c3.68,2.362,5.299,7.425,8.235,7.829c0,0,1.25,0.203,1.958-0.032c0.707-0.236,0.777-0.371,0.777-0.371
					C97.369,91.658,95.683,86.021,91.732,83.661z"/>
				<path fill="#009D9A" d="M104.188,89.903c0,0,0.911,0.742,1.181-0.573c0.405-1.823,1.89-5.162,4.962-5.805
					c0,0-1.62-0.371-3.478,1.281C104.829,86.561,104.188,89.903,104.188,89.903z"/>
				<path fill="#002853" d="M95.953,82.006c-4.759-2.834-9.519-0.911-9.519-0.911c1.687-0.136,4.658,0,7.256,1.653
					c4.76,3.037,6.852,9.583,10.632,10.09c0,0,1.622,0.236,2.531-0.033c0.911-0.304,1.013-0.474,1.013-0.474
					C103.21,92.332,101.049,85.043,95.953,82.006z"/>
				<path fill="#002853" d="M108.608,89.87c0,0,1.013,0.809,1.318-0.642c0.472-2.025,2.092-5.738,5.502-6.447
					c0,0-1.79-0.403-3.85,1.417C109.318,86.191,108.608,89.87,108.608,89.87z"/>
				<path fill="#002853" d="M98.922,81.938c0,0-1.282-4.826-1.789-7.493c-0.337-1.721-0.201-2.126-0.201-2.126l2.497-16.467
					l2.127-2.093l-3.478,19.066c0,0-0.168,0.439,0.033,2.295c0.307,2.868,1.249,8.134,1.249,8.134L98.922,81.938z"/>
				<path fill="#009D9A" d="M93.116,78.967c0,0,0.574-2.43,0.777-3.745c0.136-0.879,0.067-1.079,0.067-1.079l-1.587-8.404
					l-1.416-1.113l2.125,9.718c0,0,0.104,0.205,0.034,1.149c-0.102,1.45-0.203,4.082-0.203,4.082L93.116,78.967z"/>
				<path fill="#002853" d="M83.023,82.749c-3.104,1.856-4.792,5.805-7.155,7.256c-0.371,0.236-0.909,0.539-1.552,0.742
					c0.202,0.066,0.538,0.066,1.014-0.034c3.306-0.843,5.602-6.917,8.943-8.571C83.867,82.309,83.465,82.513,83.023,82.749z"/>
				<path fill="#A2D23F" d="M76.038,86.325c-1.891,0.98-3.308,3.275-4.759,4.052c-0.237,0.134-0.574,0.302-0.944,0.37
					c0.134,0.033,0.303,0.066,0.607,0.033c1.99-0.37,3.847-3.881,5.838-4.759C76.544,86.089,76.308,86.191,76.038,86.325z"/>
				<path fill="#009D9A" d="M79.076,84.942c-2.396,1.315-3.951,4.251-5.771,5.299c-0.271,0.169-0.709,0.404-1.183,0.506
					c0.17,0.033,0.406,0.066,0.776,0c2.498-0.541,4.592-5.063,7.122-6.242C79.718,84.638,79.379,84.773,79.076,84.942z"/>
			</g>
		</g>
	</g>
	<g>
		<path fill="#240074" d="M19.958,19.302l2.153,5.431l2.165-5.431h2.521l-3.763,8.921h-1.846l-3.75-8.921H19.958z"/>
		<path fill="#240074" d="M30.051,19.302v8.921h-2.319v-8.921H30.051z"/>
		<path fill="#240074" d="M34.232,23.29h0.438c0.458,0,0.809-0.095,1.054-0.285c0.245-0.189,0.367-0.461,0.367-0.816
			c0-0.354-0.122-0.627-0.367-0.816c-0.245-0.189-0.596-0.284-1.054-0.284h-0.438V23.29z M39.333,28.223h-2.887l-2.213-3.431v3.431
			h-2.318v-8.921h3.608c0.498,0,0.931,0.074,1.302,0.225c0.371,0.143,0.674,0.339,0.911,0.592c0.245,0.252,0.426,0.544,0.545,0.875
			c0.126,0.332,0.189,0.686,0.189,1.065c0,0.679-0.166,1.231-0.498,1.657c-0.323,0.418-0.805,0.702-1.443,0.852L39.333,28.223z"/>
		<path fill="#240074" d="M42.541,19.302v4.852c0,0.259,0.008,0.528,0.024,0.804c0.023,0.268,0.083,0.513,0.177,0.733
			c0.102,0.221,0.26,0.403,0.473,0.545c0.212,0.134,0.513,0.201,0.899,0.201s0.683-0.067,0.887-0.201
			c0.213-0.142,0.371-0.324,0.474-0.545c0.103-0.22,0.162-0.465,0.178-0.733c0.023-0.276,0.035-0.545,0.035-0.804v-4.852h2.308v5.17
			c0,1.389-0.32,2.403-0.959,3.041c-0.632,0.639-1.605,0.959-2.922,0.959c-1.318,0-2.296-0.32-2.935-0.959
			c-0.638-0.638-0.958-1.652-0.958-3.041v-5.17H42.541z"/>
		<path fill="#240074" d="M53.253,21.267v6.957h-2.318v-6.957H49.03v-1.964h6.128v1.964H53.253z"/>
		<path fill="#240074" d="M60.624,24.911l-1.041-2.97l-1.041,2.97H60.624z M61.24,26.673h-3.313l-0.533,1.55h-2.474l3.396-8.921
			h2.532l3.396,8.921h-2.473L61.24,26.673z"/>
		<path fill="#240074" d="M67.579,19.302v6.957h2.78v1.964h-5.1v-8.921H67.579z"/>
		<path fill="#240074" d="M77.162,19.302l2.153,5.431l2.166-5.431h2.52l-3.762,8.921h-1.845l-3.752-8.921H77.162z"/>
		<path fill="#240074" d="M90.013,21.267h-2.757v1.491h2.603v1.964h-2.603v1.538h2.757v1.964h-5.077v-8.921h5.077V21.267z"/>
		<path fill="#240074" d="M91.684,28.223v-8.921h2.32l4.282,5.455v-5.455h2.308v8.921h-2.308l-4.282-5.454v5.454H91.684z"/>
		<path fill="#240074" d="M104.783,19.302v4.852c0,0.259,0.008,0.528,0.023,0.804c0.025,0.268,0.084,0.513,0.177,0.733
			c0.104,0.221,0.262,0.403,0.474,0.545c0.213,0.134,0.513,0.201,0.9,0.201c0.386,0,0.682-0.067,0.887-0.201
			c0.214-0.142,0.37-0.324,0.474-0.545c0.103-0.22,0.162-0.465,0.179-0.733c0.021-0.276,0.033-0.545,0.033-0.804v-4.852h2.308v5.17
			c0,1.389-0.318,2.403-0.958,3.041c-0.631,0.639-1.605,0.959-2.922,0.959c-1.317,0-2.295-0.32-2.935-0.959
			c-0.64-0.638-0.958-1.652-0.958-3.041v-5.17H104.783z"/>
		<path fill="#240074" d="M117.188,21.267h-2.757v1.491h2.604v1.964h-2.604v1.538h2.757v1.964h-5.075v-8.921h5.075V21.267z"/>
		<path fill="#240074" d="M42.113,38.777h0.77c0.851,0,1.277-0.371,1.277-1.113c0-0.741-0.426-1.111-1.277-1.111h-0.77V38.777z
			 M42.113,43.604h-2.319v-8.922h3.692c1.002,0,1.766,0.262,2.295,0.781c0.537,0.521,0.805,1.254,0.805,2.201
			c0,0.946-0.268,1.68-0.805,2.201c-0.529,0.521-1.293,0.781-2.295,0.781h-1.373V43.604z"/>
		<path fill="#240074" d="M52.167,40.292l-1.042-2.969l-1.041,2.969H52.167z M52.782,42.054h-3.313l-0.533,1.551h-2.473l3.396-8.922
			h2.531l3.396,8.922h-2.473L52.782,42.054z"/>
		<path fill="#240074" d="M59.121,38.67h0.437c0.458,0,0.809-0.094,1.054-0.284c0.244-0.189,0.366-0.461,0.366-0.816
			c0-0.354-0.122-0.627-0.366-0.816c-0.245-0.188-0.597-0.284-1.054-0.284h-0.437V38.67z M64.221,43.604h-2.887l-2.212-3.431v3.431
			h-2.319v-8.922h3.608c0.497,0,0.931,0.076,1.302,0.225c0.371,0.143,0.674,0.34,0.911,0.592c0.244,0.252,0.426,0.543,0.545,0.875
			c0.126,0.331,0.188,0.686,0.188,1.065c0,0.678-0.165,1.23-0.496,1.656c-0.323,0.419-0.805,0.702-1.444,0.853L64.221,43.604z"/>
		<path fill="#240074" d="M68.587,36.647v6.958h-2.32v-6.958h-1.905v-1.964h6.13v1.964H68.587z"/>
		<path fill="#240074" d="M71.523,43.604v-8.922h2.317l4.282,5.455v-5.455h2.309v8.922h-2.309l-4.282-5.455v5.455H71.523z"/>
		<path fill="#240074" d="M87.378,36.647h-2.756v1.492h2.602v1.963h-2.602v1.537h2.756v1.964h-5.075v-8.921h5.075V36.647z"/>
		<path fill="#240074" d="M91.37,38.67h0.437c0.457,0,0.809-0.094,1.053-0.284c0.246-0.189,0.367-0.461,0.367-0.816
			c0-0.354-0.121-0.627-0.367-0.816c-0.244-0.188-0.596-0.284-1.053-0.284H91.37V38.67z M96.469,43.604h-2.887l-2.212-3.431v3.431
			h-2.319v-8.922h3.609c0.496,0,0.929,0.076,1.3,0.225c0.372,0.143,0.675,0.34,0.911,0.592c0.246,0.252,0.428,0.543,0.545,0.875
			c0.126,0.331,0.188,0.686,0.188,1.065c0,0.678-0.164,1.23-0.497,1.656c-0.322,0.419-0.804,0.702-1.443,0.853L96.469,43.604z"/>
	</g>
</g>
</svg>
