<?xml version="1.0" encoding="utf-8"?>
<!-- Generator: Adobe Illustrator 16.0.0, SVG Export Plug-In . SVG Version: 6.00 Build 0)  -->
<!DOCTYPE svg PUBLIC "-//W3C//DTD SVG 1.1//EN" "http://www.w3.org/Graphics/SVG/1.1/DTD/svg11.dtd">
<svg version="1.1" id="Layer_1" xmlns="http://www.w3.org/2000/svg" xmlns:xlink="http://www.w3.org/1999/xlink" x="0px" y="0px"
	 width="134.375px" height="123.958px" viewBox="0 0 134.375 123.958" enable-background="new 0 0 134.375 123.958"
	 xml:space="preserve">
<g>
	<g>
		<g>
			<g>
				<defs>
					<rect id="SVGID_1_" x="23.005" y="54.487" width="88.614" height="48.666"/>
				</defs>
				<clipPath id="SVGID_2_">
					<use xlink:href="#SVGID_1_"  overflow="visible"/>
				</clipPath>
				<g clip-path="url(#SVGID_2_)">
					<path fill="#002853" d="M29.346,99.61c-0.155-0.808-0.466-1.308-1.43-1.959c-0.869-0.59-1.958-1.336-1.958-1.336
						s-1.368-0.745-1.43-1.617c-0.094-0.868,0.87-1.676,2.113-1.613c0.59,0.03,0.963,0.216,1.182,0.34
						c0.372,0.25,0.559,0.56,0.622,0.655c0,0.03,0.031,0.03,0.031,0.03c0.03,0.029,0.062,0.062,0.125,0.062
						c0.03,0,0.062-0.062,0.062-0.094v-1.709c0,0-0.87,0-2.425,0c-1.492,0-3.295,1.088-3.232,2.827
						c0.032,0.434-0.031,1.243,1.647,2.301c1.554,0.994,2.954,1.583,2.954,3.075c0,1.554-1.492,2.177-2.673,1.989
						c-0.56-0.095-0.933-0.312-1.15-0.528c-0.342-0.341-0.436-0.747-0.499-1.089c0-0.062-0.062-0.092-0.124-0.092
						c-0.031,0-0.063,0.062-0.063,0.092v1.306c0,0,0.778,0.779,2.114,0.868C28.663,103.371,29.596,101.04,29.346,99.61z"/>
					<path fill="#002853" d="M35.905,93.954c-2.828,0-4.475,1.865-4.475,4.539c0,2.795,1.833,4.473,4.351,4.473
						c2.767,0,4.476-2.02,4.476-4.631C40.256,95.506,38.328,93.954,35.905,93.954z M35.812,102.469
						c-1.772,0-3.047-1.492-3.047-3.947c0-2.858,1.554-3.977,3.077-3.977c0.777,0,1.958,0.342,2.58,1.492
						c0.403,0.745,0.497,1.77,0.497,2.424C38.919,101.008,37.645,102.469,35.812,102.469z"/>
					<path fill="#002853" d="M65.37,97.962h-3.077c0.031,0.095,0.125,0.467,0.497,0.59h2.581v3.763c0,0.029,0,0.122,0.031,0.185
						c0.032,0.126,0.25,0.311,0.56,0.311h0.715v-8.639h-1.306L65.37,97.962L65.37,97.962z"/>
					<path fill="#002853" d="M48.648,99.765c-0.033,0.371,0,0.747-0.094,1.057c-0.342,1.398-1.896,1.521-2.175,1.521
						c-0.685,0-1.244-0.31-1.586-0.713c-0.342-0.374-0.373-0.842-0.403-1.647v-0.03V94.11h-1.306h-0.31
						c-0.032,0-0.032,0.029-0.032,0.029c0,0.032,0,0.063,0.032,0.063c0.063,0.061,0.31,0.25,0.31,0.809v4.878
						c0,0.841,0.063,1.399,0.466,1.896c0.653,0.842,1.803,1.09,2.61,1.09c1.212,0,1.928-0.437,2.363-0.87
						c0.621-0.592,0.714-1.336,0.714-2.207c0-0.559,0-5.75,0-5.75h-0.622v5.72L48.648,99.765L48.648,99.765z"/>
					<path fill="#002853" d="M51.756,94.698h2.301v7.554c0,0,0,0.124,0.031,0.216c0.03,0.124,0.25,0.312,0.559,0.312h0.715v-8.081
						h2.3V94.11h-5.906L51.756,94.698L51.756,94.698z"/>
					<path fill="#002853" d="M60.056,94.171c0,0.031,0,0.063,0.031,0.063c0.062,0.062,0.312,0.247,0.312,0.806v7.181
						c0,0,0,0.124,0.029,0.217c0.062,0.126,0.25,0.313,0.56,0.313h0.714v-8.64h-1.616C60.086,94.14,60.056,94.14,60.056,94.171z"/>
					<path fill="#002853" d="M105.403,102.469c0.063,0.124,0.249,0.312,0.558,0.312h0.716V94.14h-1.616
						c-0.031,0-0.031,0.031-0.031,0.031c0,0.031,0,0.063,0.031,0.063c0.062,0.062,0.311,0.247,0.311,0.806v7.181
						C105.373,102.251,105.373,102.375,105.403,102.469z"/>
					<path fill="#002853" d="M102.668,94.264c-0.528-0.185-1.09-0.279-1.708-0.279c-2.831,0-4.477,1.862-4.477,4.537
						c0,2.796,1.834,4.475,4.352,4.475c0.685,0,1.275-0.123,1.803-0.342v-0.435c0,0-0.56,0.249-1.803,0.249
						c-1.771,0-3.045-1.491-3.045-3.946c0-2.859,1.555-3.978,3.106-3.978c0.188,0,0.436,0.032,0.654,0.126
						c0,0,0.558,0.154,0.869,0.526c0.062,0.03,0.062,0.063,0.094,0.094c0,0.032,0.03,0.032,0.061,0.032
						c0.033,0,0.033-0.032,0.033-0.032V94.95v-0.684L102.668,94.264L102.668,94.264z"/>
					<path fill="#002853" d="M110.313,97.962h-3.075c0.031,0.095,0.123,0.467,0.497,0.59h2.578v3.763c0,0.029,0,0.122,0.032,0.185
						c0.061,0.126,0.25,0.311,0.561,0.311h0.714v-8.639h-1.307V97.962L110.313,97.962z"/>
					<path fill="#002853" d="M91.634,94.11h-1.366c-0.031,0-0.031,0.03-0.031,0.03c0,0.031,0,0.063,0.031,0.063
						c0.03,0.031,0.124,0.094,0.216,0.278v0.031l-2.921,8.237h0.592l2.642-7.428L92.1,99.02h-2.019c0,0.032,0.095,0.435,0.435,0.592
						h1.804l0.934,2.671c0,0.032,0.03,0.124,0.061,0.187c0.062,0.124,0.249,0.312,0.558,0.312h0.841L91.634,94.11z"/>
					<path fill="#002853" d="M85.667,102.189h-3.48v-7.491h3.138V94.11H80.94h-0.34c-0.03,0-0.03,0.029-0.03,0.029
						c0,0.032,0,0.063,0.03,0.063c0.063,0.061,0.311,0.25,0.311,0.838v7.21c0,0.031,0,0.125,0.029,0.186
						c0.032,0.126,0.25,0.313,0.561,0.313h0.714h3.482v-0.561L85.667,102.189L85.667,102.189z"/>
					<path fill="#002853" d="M75.006,97.464c1.057-0.154,2.333-0.714,2.333-2.517c0-2.61-2.985-2.453-2.985-2.453h-1.71h-1.211
						h-0.716c-0.03,0-0.093,0.029-0.093,0.06s0,0.094,0.061,0.126c0,0,0,0,0.031,0.03c0.125,0.094,0.716,0.496,0.746,1.399
						c0,0.062,0,0.094,0,0.154v0.064v7.954v-0.031c0,0,0,0.125,0.032,0.281c0.063,0.153,0.312,0.37,0.651,0.37h0.529h1.832
						c0,0,3.203,0.188,3.203-2.671C77.74,98.119,76.187,97.559,75.006,97.464z M73.824,102.22h-0.809v-9.105h0.684
						c0,0,2.301-0.125,2.301,1.957c0,1.833-0.84,2.053-1.896,2.053h-0.404c0.031,0.093,0.155,0.592,0.592,0.682
						c1.088,0.032,1.958,0.313,1.958,2.239C76.28,102.344,73.824,102.22,73.824,102.22z"/>
					<path fill="#002853" d="M83.148,98.552h1.865v-0.59h-2.425C82.65,98.085,82.774,98.46,83.148,98.552z"/>
					<path fill="#A2D23F" d="M83.646,84.601c-1.678-0.996-3.388-0.312-3.388-0.312c0.592-0.063,1.646,0,2.58,0.59
						c1.679,1.089,2.455,3.418,3.791,3.574c0,0,0.559,0.094,0.901-0.03c0.342-0.094,0.374-0.186,0.374-0.186
						C86.226,88.297,85.448,85.688,83.646,84.601z"/>
					<path fill="#009D9A" d="M86.63,83.574c-2.674-1.584-5.347-0.497-5.347-0.497c0.963-0.063,2.61,0,4.072,0.932
						c2.673,1.71,3.854,5.379,5.968,5.657c0,0,0.9,0.124,1.43-0.032c0.528-0.154,0.559-0.279,0.559-0.279
						C90.702,89.354,89.488,85.285,86.63,83.574z"/>
					<path fill="#A2D23F" d="M98.007,87.799c0,0,0.682,0.561,0.933-0.434c0.311-1.429,1.43-3.977,3.822-4.475
						c0,0-1.243-0.281-2.673,0.964C98.505,85.221,98.007,87.799,98.007,87.799z"/>
					<path fill="#009D9A" d="M89.8,82.022c-3.387-2.02-6.776-0.653-6.776-0.653c1.213-0.095,3.326,0,5.161,1.18
						c3.389,2.176,4.88,6.839,7.583,7.21c0,0,1.15,0.187,1.803-0.029c0.651-0.218,0.716-0.342,0.716-0.342
						C94.99,89.387,93.438,84.196,89.8,82.022z"/>
					<path fill="#009D9A" d="M101.269,87.77c0,0,0.84,0.684,1.089-0.527c0.372-1.68,1.74-4.753,4.568-5.346
						c0,0-1.491-0.342-3.202,1.18C101.859,84.693,101.269,87.77,101.269,87.77z"/>
					<path fill="#002853" d="M93.687,80.499c-4.383-2.609-8.767-0.839-8.767-0.839c1.555-0.125,4.29,0,6.682,1.522
						c4.384,2.797,6.311,8.823,9.791,9.291c0,0,1.493,0.218,2.331-0.03c0.839-0.281,0.933-0.438,0.933-0.438
						C100.369,90.007,98.379,83.295,93.687,80.499z"/>
					<path fill="#002853" d="M105.339,87.74c0,0,0.934,0.745,1.214-0.591c0.436-1.864,1.927-5.283,5.066-5.937
						c0,0-1.647-0.372-3.545,1.304C105.994,84.352,105.339,87.74,105.339,87.74z"/>
					<path fill="#002853" d="M96.42,80.435c0,0-1.18-4.443-1.647-6.899c-0.311-1.585-0.186-1.958-0.186-1.958l2.301-15.164
						l1.959-1.927l-3.203,17.557c0,0-0.155,0.404,0.03,2.113c0.282,2.642,1.149,7.491,1.149,7.491L96.42,80.435z"/>
					<path fill="#009D9A" d="M91.074,77.7c0,0,0.527-2.237,0.715-3.448c0.126-0.811,0.062-0.994,0.062-0.994l-1.461-7.739
						l-1.304-1.024l1.956,8.949c0,0,0.096,0.188,0.032,1.058c-0.095,1.335-0.188,3.759-0.188,3.759L91.074,77.7z"/>
					<path fill="#002853" d="M81.78,81.182c-2.859,1.709-4.414,5.346-6.589,6.682c-0.342,0.218-0.838,0.496-1.43,0.684
						c0.186,0.061,0.495,0.061,0.934-0.031c3.045-0.776,5.158-6.37,8.235-7.893C82.557,80.777,82.187,80.965,81.78,81.182z"/>
					<path fill="#A2D23F" d="M75.348,84.475c-1.742,0.902-3.046,3.016-4.382,3.731c-0.219,0.123-0.529,0.278-0.87,0.341
						c0.123,0.03,0.279,0.061,0.559,0.03c1.833-0.34,3.543-3.574,5.376-4.382C75.813,84.257,75.597,84.352,75.348,84.475z"/>
					<path fill="#009D9A" d="M78.146,83.202c-2.207,1.21-3.639,3.914-5.315,4.88c-0.249,0.156-0.652,0.372-1.089,0.466
						c0.156,0.03,0.373,0.061,0.715,0c2.301-0.499,4.229-4.662,6.558-5.749C78.736,82.922,78.424,83.046,78.146,83.202z"/>
				</g>
			</g>
		</g>
	</g>
	<g>
		<path fill="#240074" d="M23.706,22.757l1.982,5.001l1.994-5.001h2.322l-3.465,8.215h-1.7l-3.453-8.215H23.706z"/>
		<path fill="#240074" d="M33,22.757v8.215h-2.135v-8.215H33z"/>
		<path fill="#240074" d="M36.85,26.429h0.403c0.422,0,0.745-0.087,0.971-0.262c0.226-0.174,0.338-0.425,0.338-0.751
			c0-0.326-0.112-0.577-0.338-0.751c-0.226-0.174-0.549-0.262-0.971-0.262H36.85V26.429z M41.547,30.972h-2.659l-2.038-3.16v3.16
			h-2.134v-8.215h3.322c0.458,0,0.857,0.068,1.199,0.208c0.341,0.131,0.621,0.313,0.838,0.545c0.226,0.232,0.393,0.501,0.502,0.806
			c0.117,0.306,0.174,0.631,0.174,0.98c0,0.625-0.153,1.133-0.458,1.526c-0.298,0.385-0.742,0.646-1.329,0.784L41.547,30.972z"/>
		<path fill="#240074" d="M44.501,22.757v4.468c0,0.238,0.007,0.486,0.022,0.74c0.021,0.247,0.076,0.473,0.163,0.675
			c0.093,0.204,0.239,0.371,0.435,0.502c0.195,0.124,0.473,0.185,0.828,0.185s0.629-0.062,0.817-0.185
			c0.196-0.131,0.341-0.298,0.437-0.502c0.095-0.202,0.149-0.428,0.164-0.675c0.021-0.254,0.032-0.502,0.032-0.74v-4.468h2.125
			v4.761c0,1.279-0.295,2.212-0.883,2.8c-0.583,0.588-1.478,0.883-2.691,0.883c-1.214,0-2.114-0.295-2.703-0.883
			c-0.588-0.588-0.882-1.521-0.882-2.8v-4.761H44.501z"/>
		<path fill="#240074" d="M54.366,24.566v6.407h-2.134v-6.407h-1.754v-1.809h5.643v1.809H54.366L54.366,24.566z"/>
		<path fill="#240074" d="M61.153,27.922l-0.958-2.735l-0.958,2.735H61.153z M61.721,29.544h-3.051l-0.49,1.428h-2.278l3.127-8.215
			h2.332l3.127,8.215h-2.277L61.721,29.544z"/>
		<path fill="#240074" d="M67.558,22.757v6.406h2.56v1.809h-4.697v-8.215H67.558z"/>
		<path fill="#240074" d="M76.383,22.757l1.981,5.001l1.995-5.001h2.32l-3.465,8.215h-1.697l-3.455-8.215H76.383z"/>
		<path fill="#240074" d="M88.217,24.566h-2.539v1.373h2.397v1.809h-2.397v1.416h2.539v1.809h-4.676v-8.215h4.676V24.566z"/>
		<path fill="#240074" d="M89.755,30.972v-8.215h2.137l3.943,5.023v-5.023h2.125v8.215h-2.125l-3.943-5.022v5.022H89.755z"/>
		<path fill="#240074" d="M101.817,22.757v4.468c0,0.238,0.007,0.486,0.021,0.74c0.022,0.247,0.077,0.473,0.162,0.675
			c0.097,0.204,0.242,0.371,0.437,0.502c0.196,0.124,0.474,0.185,0.83,0.185c0.354,0,0.627-0.062,0.816-0.185
			c0.196-0.131,0.341-0.298,0.436-0.502c0.095-0.202,0.149-0.428,0.165-0.675c0.02-0.254,0.03-0.502,0.03-0.74v-4.468h2.126v4.761
			c0,1.279-0.293,2.212-0.883,2.8c-0.581,0.588-1.478,0.883-2.69,0.883s-2.113-0.295-2.703-0.883
			c-0.589-0.588-0.882-1.521-0.882-2.8v-4.761H101.817z"/>
		<path fill="#240074" d="M113.24,24.566h-2.538v1.373h2.397v1.809h-2.397v1.416h2.538v1.809h-4.673v-8.215h4.673V24.566z"/>
		<path fill="#240074" d="M44.107,40.69h0.709c0.784,0,1.176-0.341,1.176-1.025c0-0.682-0.393-1.023-1.176-1.023h-0.709V40.69z
			 M44.107,45.136h-2.135V36.92h3.399c0.923,0,1.626,0.241,2.114,0.719c0.494,0.48,0.741,1.155,0.741,2.027
			c0,0.871-0.247,1.547-0.741,2.027c-0.487,0.479-1.191,0.719-2.114,0.719h-1.264V45.136z"/>
		<path fill="#240074" d="M53.366,42.086l-0.959-2.734l-0.958,2.734H53.366z M53.932,43.708h-3.051l-0.49,1.428h-2.277l3.127-8.215
			h2.331l3.127,8.215h-2.277L53.932,43.708z"/>
		<path fill="#240074" d="M59.77,40.592h0.402c0.422,0,0.745-0.086,0.97-0.262c0.225-0.174,0.337-0.425,0.337-0.751
			c0-0.326-0.112-0.578-0.337-0.751c-0.225-0.173-0.549-0.262-0.97-0.262H59.77V40.592z M64.466,45.136h-2.659l-2.037-3.16v3.16
			h-2.135V36.92h3.322c0.458,0,0.857,0.07,1.199,0.207c0.342,0.131,0.621,0.313,0.839,0.545c0.225,0.232,0.392,0.5,0.502,0.806
			c0.116,0.305,0.173,0.631,0.173,0.98c0,0.625-0.152,1.133-0.457,1.525c-0.297,0.386-0.741,0.646-1.33,0.786L64.466,45.136z"/>
		<path fill="#240074" d="M68.486,38.729v6.407H66.35v-6.407h-1.754v-1.808h5.645v1.808H68.486z"/>
		<path fill="#240074" d="M71.19,45.136V36.92h2.133l3.943,5.023V36.92h2.127v8.216h-2.127l-3.943-5.023v5.023H71.19z"/>
		<path fill="#240074" d="M85.79,38.729h-2.538v1.374h2.396v1.808h-2.396v1.416h2.538v1.809h-4.674V36.92h4.674V38.729z"/>
		<path fill="#240074" d="M89.466,40.592h0.402c0.421,0,0.745-0.086,0.97-0.262c0.227-0.174,0.338-0.425,0.338-0.751
			c0-0.326-0.111-0.578-0.338-0.751c-0.225-0.173-0.549-0.262-0.97-0.262h-0.402V40.592z M94.161,45.136h-2.658l-2.037-3.16v3.16
			H87.33V36.92h3.324c0.456,0,0.854,0.07,1.196,0.207c0.343,0.131,0.622,0.313,0.839,0.545c0.227,0.232,0.395,0.5,0.502,0.806
			c0.116,0.305,0.173,0.631,0.173,0.98c0,0.625-0.151,1.133-0.457,1.525c-0.297,0.386-0.74,0.646-1.329,0.786L94.161,45.136z"/>
	</g>
</g>
</svg>
