<svg width="260" height="205" viewBox="0 0 260 205" fill="none" xmlns="http://www.w3.org/2000/svg">
<path d="M12.4925 0.38L17.9525 14.15L23.4425 0.38H29.8325L20.2925 23H15.6125L6.10254 0.38H12.4925ZM38.083 0.38V23H32.203V0.38H38.083ZM48.6885 10.49H49.7985C50.9585 10.49 51.8485 10.25 52.4685 9.77C53.0885 9.29 53.3985 8.6 53.3985 7.7C53.3985 6.8 53.0885 6.11 52.4685 5.63C51.8485 5.15 50.9585 4.91 49.7985 4.91H48.6885V10.49ZM61.6185 23H54.2985L48.6885 14.3V23H42.8085V0.38H51.9585C53.2185 0.38 54.3185 0.57 55.2585 0.95C56.1985 1.31 56.9685 1.81 57.5685 2.45C58.1885 3.09 58.6485 3.83 58.9485 4.67C59.2685 5.51 59.4285 6.41 59.4285 7.37C59.4285 9.09 59.0085 10.49 58.1685 11.57C57.3485 12.63 56.1285 13.35 54.5085 13.73L61.6185 23ZM69.7529 0.38V12.68C69.7529 13.34 69.7729 14.02 69.8129 14.72C69.8729 15.4 70.0229 16.02 70.2629 16.58C70.5229 17.14 70.9229 17.6 71.4629 17.96C72.0029 18.3 72.7629 18.47 73.7429 18.47C74.7229 18.47 75.4729 18.3 75.9929 17.96C76.5329 17.6 76.9329 17.14 77.1929 16.58C77.4529 16.02 77.6029 15.4 77.6429 14.72C77.7029 14.02 77.7329 13.34 77.7329 12.68V0.38H83.5829V13.49C83.5829 17.01 82.7729 19.58 81.1529 21.2C79.5529 22.82 77.0829 23.63 73.7429 23.63C70.4029 23.63 67.9229 22.82 66.3029 21.2C64.6829 19.58 63.8729 17.01 63.8729 13.49V0.38H69.7529ZM96.9158 5.36V23H91.0358V5.36H86.2058V0.38H101.746V5.36H96.9158ZM115.607 14.6L112.967 7.07L110.327 14.6H115.607ZM117.167 19.07H108.767L107.417 23H101.147L109.757 0.38H116.177L124.787 23H118.517L117.167 19.07ZM133.239 0.38V18.02H140.289V23H127.359V0.38H133.239ZM157.541 0.38L163.001 14.15L168.491 0.38H174.881L165.341 23H160.661L151.151 0.38H157.541ZM190.122 5.36H183.132V9.14H189.732V14.12H183.132V18.02H190.122V23H177.252V0.38H190.122V5.36ZM194.361 23V0.38H200.241L211.101 14.21V0.38H216.951V23H211.101L200.241 9.17V23H194.361ZM227.575 0.38V12.68C227.575 13.34 227.595 14.02 227.635 14.72C227.695 15.4 227.845 16.02 228.085 16.58C228.345 17.14 228.745 17.6 229.285 17.96C229.825 18.3 230.585 18.47 231.565 18.47C232.545 18.47 233.295 18.3 233.815 17.96C234.355 17.6 234.755 17.14 235.015 16.58C235.275 16.02 235.425 15.4 235.465 14.72C235.525 14.02 235.555 13.34 235.555 12.68V0.38H241.405V13.49C241.405 17.01 240.595 19.58 238.975 21.2C237.375 22.82 234.905 23.63 231.565 23.63C228.225 23.63 225.745 22.82 224.125 21.2C222.505 19.58 221.695 17.01 221.695 13.49V0.38H227.575ZM259.028 5.36H252.038V9.14H258.638V14.12H252.038V18.02H259.028V23H246.158V0.38H259.028V5.36ZM68.6689 49.76H70.6189C72.7789 49.76 73.8589 48.82 73.8589 46.94C73.8589 45.06 72.7789 44.12 70.6189 44.12H68.6689V49.76ZM68.6689 62H62.7889V39.38H72.1489C74.6889 39.38 76.6289 40.04 77.9689 41.36C79.3289 42.68 80.0089 44.54 80.0089 46.94C80.0089 49.34 79.3289 51.2 77.9689 52.52C76.6289 53.84 74.6889 54.5 72.1489 54.5H68.6689V62ZM94.1612 53.6L91.5212 46.07L88.8812 53.6H94.1612ZM95.7212 58.07H87.3212L85.9712 62H79.7012L88.3112 39.38H94.7312L103.341 62H97.0712L95.7212 58.07ZM111.794 49.49H112.904C114.064 49.49 114.954 49.25 115.574 48.77C116.194 48.29 116.504 47.6 116.504 46.7C116.504 45.8 116.194 45.11 115.574 44.63C114.954 44.15 114.064 43.91 112.904 43.91H111.794V49.49ZM124.724 62H117.404L111.794 53.3V62H105.914V39.38H115.064C116.324 39.38 117.424 39.57 118.364 39.95C119.304 40.31 120.074 40.81 120.674 41.45C121.294 42.09 121.754 42.83 122.054 43.67C122.374 44.51 122.534 45.41 122.534 46.37C122.534 48.09 122.114 49.49 121.274 50.57C120.454 51.63 119.234 52.35 117.614 52.73L124.724 62ZM135.793 44.36V62H129.913V44.36H125.083V39.38H140.623V44.36H135.793ZM143.238 62V39.38H149.118L159.978 53.21V39.38H165.828V62H159.978L149.118 48.17V62H143.238ZM183.442 44.36H176.452V48.14H183.052V53.12H176.452V57.02H183.442V62H170.572V39.38H183.442V44.36ZM193.562 49.49H194.672C195.832 49.49 196.722 49.25 197.342 48.77C197.962 48.29 198.272 47.6 198.272 46.7C198.272 45.8 197.962 45.11 197.342 44.63C196.722 44.15 195.832 43.91 194.672 43.91H193.562V49.49ZM206.492 62H199.172L193.562 53.3V62H187.682V39.38H196.832C198.092 39.38 199.192 39.57 200.132 39.95C201.072 40.31 201.842 40.81 202.442 41.45C203.062 42.09 203.522 42.83 203.822 43.67C204.142 44.51 204.302 45.41 204.302 46.37C204.302 48.09 203.882 49.49 203.042 50.57C202.222 51.63 201.002 52.35 199.382 52.73L206.492 62Z" fill="#240074"/>
<g clip-path="url(#clip0)">
<path d="M17.4595 195.245C17.0316 193.02 16.1758 191.651 13.5227 189.854C11.1263 188.229 8.13088 186.175 8.13088 186.175C8.13088 186.175 4.36519 184.121 4.19402 181.725C3.93727 179.329 6.59037 177.105 10.0137 177.276C11.6398 177.361 12.6668 177.875 13.2659 178.217C14.2929 178.902 14.8064 179.757 14.9776 180.014C14.9776 180.1 15.0632 180.1 15.0632 180.1C15.1488 180.185 15.2344 180.271 15.4055 180.271C15.4911 180.271 15.5767 180.1 15.5767 180.014V175.308C15.5767 175.308 13.1803 175.308 8.90114 175.308C4.7931 175.308 -0.170767 178.303 0.000401099 183.095C0.0859851 184.292 -0.0851827 186.517 4.53635 189.427C8.81555 192.165 12.6668 193.791 12.6668 197.898C12.6668 202.176 8.5588 203.888 5.30661 203.374C3.7661 203.117 2.73909 202.518 2.14 201.92C1.19858 200.978 0.941825 199.866 0.770657 198.925C0.770657 198.753 0.599489 198.668 0.428321 198.668C0.342737 198.668 0.257153 198.839 0.257153 198.925V202.518C0.257153 202.518 2.39675 204.658 6.07687 204.914C15.5767 205.599 18.1442 199.181 17.4595 195.245Z" fill="#002853"/>
<path d="M35.5175 179.672C27.7293 179.672 23.1934 184.806 23.1934 192.165C23.1934 199.866 28.2428 204.487 35.1751 204.487C42.7921 204.487 47.4992 198.925 47.4992 191.737C47.4992 183.95 42.193 179.672 35.5175 179.672ZM35.2607 203.117C30.3824 203.117 26.8735 199.01 26.8735 192.25C26.8735 184.378 31.1527 181.298 35.3463 181.298C37.4859 181.298 40.7381 182.239 42.4498 185.405C43.5623 187.458 43.8191 190.282 43.8191 192.079C43.8191 199.096 40.3102 203.117 35.2607 203.117Z" fill="#002853"/>
<path d="M116.652 190.71H108.179C108.264 190.967 108.521 191.994 109.548 192.336H116.652V202.69C116.652 202.775 116.652 203.032 116.737 203.203C116.823 203.545 117.422 204.059 118.278 204.059H120.246V180.271H116.652V190.71Z" fill="#002853"/>
<path d="M70.6076 195.673C70.5221 196.7 70.6076 197.727 70.3509 198.582C69.4095 202.433 65.1303 202.775 64.36 202.775C62.4772 202.775 60.9366 201.92 59.9952 200.807C59.0538 199.78 58.9682 198.497 58.8826 196.272V196.186V180.1H55.2881H54.4323C54.3467 180.1 54.3467 180.185 54.3467 180.185C54.3467 180.271 54.3467 180.356 54.4323 180.356C54.6034 180.527 55.2881 181.041 55.2881 182.581V196.015C55.2881 198.326 55.4593 199.866 56.5719 201.235C58.3691 203.545 61.5357 204.23 63.7609 204.23C67.0987 204.23 69.0671 203.032 70.2653 201.834C71.977 200.208 72.2337 198.155 72.2337 195.759C72.2337 194.218 72.2337 179.928 72.2337 179.928H70.5221V195.673H70.6076Z" fill="#002853"/>
<path d="M79.166 181.725H85.4992V202.519C85.4992 202.519 85.4992 202.861 85.5848 203.117C85.6704 203.46 86.2695 203.973 87.1253 203.973H89.0938V181.725H95.427V180.1H79.166V181.725Z" fill="#002853"/>
<path d="M102.017 180.271C102.017 180.356 102.017 180.442 102.102 180.442C102.273 180.613 102.958 181.126 102.958 182.667V202.433C102.958 202.433 102.958 202.775 103.044 203.032C103.215 203.374 103.728 203.888 104.584 203.888H106.553V180.1H102.102C102.102 180.185 102.017 180.185 102.017 180.271Z" fill="#002853"/>
<path d="M226.883 203.117C227.055 203.46 227.568 203.973 228.424 203.973H230.392V180.185H225.942C225.856 180.185 225.856 180.271 225.856 180.271C225.856 180.356 225.856 180.442 225.942 180.442C226.113 180.613 226.798 181.126 226.798 182.667V202.433C226.798 202.519 226.798 202.861 226.883 203.117Z" fill="#002853"/>
<path d="M219.352 180.527C217.898 180.014 216.357 179.757 214.645 179.757C206.857 179.757 202.321 184.891 202.321 192.25C202.321 199.951 207.371 204.572 214.303 204.572C216.186 204.572 217.812 204.23 219.267 203.631V202.433C219.267 202.433 217.726 203.117 214.303 203.117C209.425 203.117 205.916 199.01 205.916 192.25C205.916 184.378 210.195 181.298 214.474 181.298C214.988 181.298 215.672 181.383 216.271 181.64C216.271 181.64 217.812 182.068 218.668 183.094C218.839 183.18 218.839 183.266 218.925 183.351C218.925 183.437 219.01 183.437 219.096 183.437C219.181 183.437 219.181 183.351 219.181 183.351V182.41V180.527H219.352Z" fill="#002853"/>
<path d="M240.405 190.71H231.933C232.018 190.967 232.275 191.994 233.302 192.336H240.405V202.69C240.405 202.775 240.405 203.032 240.491 203.203C240.662 203.545 241.176 204.059 242.032 204.059H244V180.271H240.405V190.71Z" fill="#002853"/>
<path d="M188.97 180.1H185.205C185.119 180.1 185.119 180.185 185.119 180.185C185.119 180.271 185.119 180.356 185.205 180.356C185.29 180.442 185.547 180.613 185.804 181.126V181.212L177.759 203.888H179.385L186.66 183.437L190.254 193.619H184.691C184.691 193.705 184.948 194.817 185.889 195.245H190.853L193.421 202.604C193.421 202.69 193.506 202.946 193.592 203.117C193.763 203.46 194.277 203.973 195.132 203.973H197.443L188.97 180.1Z" fill="#002853"/>
<path d="M172.538 202.347H162.952V181.725H171.596V180.1H159.529H158.588C158.502 180.1 158.502 180.185 158.502 180.185C158.502 180.271 158.502 180.356 158.588 180.356C158.759 180.527 159.443 181.041 159.443 182.667V202.519C159.443 202.604 159.443 202.861 159.529 203.032C159.615 203.374 160.214 203.888 161.069 203.888H163.038H172.623V202.347H172.538Z" fill="#002853"/>
<path d="M143.183 189.341C146.092 188.913 149.601 187.373 149.601 182.41C149.601 175.222 141.385 175.65 141.385 175.65H136.678H133.34H131.372C131.286 175.65 131.115 175.736 131.115 175.821C131.115 175.907 131.115 176.078 131.286 176.163C131.286 176.163 131.286 176.163 131.372 176.249C131.714 176.506 133.34 177.618 133.426 180.1C133.426 180.271 133.426 180.356 133.426 180.527V180.699V202.604V202.519C133.426 202.519 133.426 202.861 133.512 203.289C133.683 203.716 134.367 204.315 135.309 204.315H136.764H141.813C141.813 204.315 150.628 204.829 150.628 196.957C150.714 191.138 146.435 189.598 143.183 189.341ZM139.93 202.433H137.705V177.361H139.588C139.588 177.361 145.921 177.019 145.921 182.752C145.921 187.801 143.61 188.4 140.701 188.4H139.588C139.674 188.656 140.016 190.026 141.214 190.282C144.21 190.368 146.606 191.138 146.606 196.443C146.692 202.775 139.93 202.433 139.93 202.433Z" fill="#002853"/>
<path d="M165.605 192.336H170.74V190.71H164.064C164.236 191.052 164.578 192.079 165.605 192.336Z" fill="#002853"/>
<path d="M166.975 153.916C162.354 151.178 157.646 153.06 157.646 153.06C159.273 152.889 162.182 153.06 164.75 154.686C169.372 157.681 171.511 164.098 175.191 164.526C175.191 164.526 176.732 164.783 177.673 164.441C178.615 164.184 178.7 163.927 178.7 163.927C174.079 164.098 171.939 156.911 166.975 153.916Z" fill="#A2D23F"/>
<path d="M175.191 151.092C167.831 146.728 160.471 149.723 160.471 149.723C163.124 149.552 167.66 149.723 171.682 152.29C179.042 156.996 182.295 167.093 188.114 167.863C188.114 167.863 190.596 168.206 192.051 167.778C193.506 167.35 193.592 167.008 193.592 167.008C186.403 167.008 183.065 155.798 175.191 151.092Z" fill="#009D9A"/>
<path d="M206.515 162.729C206.515 162.729 208.397 164.269 209.082 161.531C209.938 157.595 213.019 150.579 219.609 149.209C219.609 149.209 216.186 148.439 212.249 151.862C207.884 155.627 206.515 162.729 206.515 162.729Z" fill="#A2D23F"/>
<path d="M183.92 146.814C174.591 141.252 165.263 145.017 165.263 145.017C168.6 144.76 174.42 145.017 179.47 148.268C188.798 154.258 192.906 167.093 200.352 168.12C200.352 168.12 203.519 168.633 205.316 168.034C207.113 167.436 207.284 167.093 207.284 167.093C198.213 167.093 193.933 152.803 183.92 146.814Z" fill="#009D9A"/>
<path d="M215.501 162.644C215.501 162.644 217.812 164.526 218.496 161.189C219.523 156.568 223.289 148.097 231.077 146.471C231.077 146.471 226.969 145.53 222.262 149.723C217.127 154.172 215.501 162.644 215.501 162.644Z" fill="#009D9A"/>
<path d="M194.618 142.621C182.551 135.433 170.483 140.31 170.483 140.31C174.763 139.968 182.294 140.31 188.884 144.503C200.951 152.204 206.258 168.805 215.843 170.088C215.843 170.088 219.951 170.687 222.262 170.003C224.573 169.232 224.829 168.805 224.829 168.805C213.019 168.805 207.541 150.322 194.618 142.621Z" fill="#002853"/>
<path d="M226.712 162.558C226.712 162.558 229.279 164.612 230.05 160.932C231.248 155.798 235.356 146.386 244 144.589C244 144.589 239.464 143.562 234.243 148.183C228.509 153.231 226.712 162.558 226.712 162.558Z" fill="#002853"/>
<path d="M202.15 142.45C202.15 142.45 198.898 130.213 197.614 123.453C196.758 119.089 197.101 118.063 197.101 118.063L203.434 76.3052L208.826 71L200.011 119.346C200.011 119.346 199.583 120.458 200.096 125.165C200.867 132.438 203.263 145.787 203.263 145.787L202.15 142.45Z" fill="#002853"/>
<path d="M187.43 134.92C187.43 134.92 188.884 128.759 189.398 125.421C189.74 123.197 189.569 122.683 189.569 122.683L185.547 101.377L181.952 98.553L187.344 123.197C187.344 123.197 187.601 123.71 187.43 126.106C187.173 129.785 186.916 136.46 186.916 136.46L187.43 134.92Z" fill="#009D9A"/>
<path d="M161.839 144.503C153.966 149.209 149.687 159.221 143.696 162.9C142.754 163.499 141.385 164.269 139.759 164.783C140.272 164.954 141.128 164.954 142.326 164.697C150.714 162.558 156.533 147.156 165.006 142.963C163.979 143.391 162.952 143.904 161.839 144.503Z" fill="#002853"/>
<path d="M144.124 153.573C139.331 156.055 135.737 161.874 132.057 163.842C131.457 164.184 130.602 164.612 129.66 164.783C130.002 164.868 130.43 164.954 131.201 164.868C136.25 163.927 140.957 155.028 146.007 152.803C145.408 152.974 144.809 153.231 144.124 153.573Z" fill="#A2D23F"/>
<path d="M151.827 150.065C145.75 153.402 141.813 160.847 137.192 163.499C136.507 163.927 135.394 164.526 134.196 164.783C134.624 164.868 135.223 164.954 136.165 164.783C142.498 163.414 147.804 151.948 154.223 148.953C153.453 149.295 152.597 149.637 151.827 150.065Z" fill="#009D9A"/>
</g>
<defs>
<clipPath id="clip0">
<rect width="244" height="134" fill="white" transform="translate(0 71)"/>
</clipPath>
</defs>
</svg>
