<?xml version="1.0" encoding="utf-8"?>
<!-- Generator: Adobe Illustrator 16.0.0, SVG Export Plug-In . SVG Version: 6.00 Build 0)  -->
<!DOCTYPE svg PUBLIC "-//W3C//DTD SVG 1.1//EN" "http://www.w3.org/Graphics/SVG/1.1/DTD/svg11.dtd">
<svg version="1.1" id="Layer_1" xmlns="http://www.w3.org/2000/svg" xmlns:xlink="http://www.w3.org/1999/xlink" x="0px" y="0px"
	 width="134.375px" height="123.958px" viewBox="0 0 134.375 123.958" enable-background="new 0 0 134.375 123.958"
	 xml:space="preserve">
<g enable-background="new    ">
	<path fill="#371B87" d="M23.342,28.767l-3.125-9.773h1.998l1.646,6.095c0.031,0.125,0.079,0.356,0.145,0.694
		c0.065,0.338,0.135,0.723,0.208,1.155c0.05-0.418,0.105-0.79,0.165-1.115c0.06-0.325,0.118-0.592,0.176-0.801l1.669-6.028h1.975
		l-3.147,9.773H23.342z"/>
	<path fill="#371B87" d="M29.146,28.767v-9.773h1.808v9.773H29.146z"/>
	<path fill="#371B87" d="M38.999,28.767h-2.085l-2.223-4.566v4.566h-1.808v-9.773h2.587c1.028,0,1.798,0.23,2.31,0.691
		c0.512,0.461,0.768,1.154,0.768,2.08c0,0.672-0.175,1.246-0.526,1.722c-0.35,0.477-0.803,0.754-1.357,0.834L38.999,28.767z
		 M34.69,23.16h0.271c0.731,0,1.214-0.093,1.449-0.277s0.353-0.506,0.353-0.964c0-0.481-0.126-0.822-0.378-1.025
		c-0.252-0.203-0.727-0.304-1.423-0.304H34.69V23.16z"/>
	<path fill="#371B87" d="M43.208,20.77v7.998h-1.813V20.77h-2.068v-1.776h5.949v1.776H43.208z"/>
	<path fill="#371B87" d="M53.731,18.994v6.082c0,1.327-0.302,2.317-0.907,2.971c-0.604,0.654-1.515,0.981-2.732,0.981
		c-1.236,0-2.156-0.327-2.76-0.981c-0.604-0.654-0.907-1.644-0.907-2.971v-6.082h1.796v5.754c0,0.806,0.154,1.412,0.462,1.819
		s0.768,0.611,1.38,0.611c0.616,0,1.082-0.205,1.397-0.614c0.316-0.409,0.474-1.015,0.474-1.816v-5.754H53.731z"/>
	<path fill="#371B87" d="M54.39,28.767l3.217-9.773h2.067l3.263,9.773h-2.056l-0.687-2.076h-3.275l-0.589,2.076H54.39z
		 M59.772,25.049l-0.947-3.158c-0.027-0.094-0.062-0.254-0.104-0.481c-0.042-0.227-0.086-0.505-0.133-0.834
		c-0.05,0.316-0.098,0.6-0.144,0.852c-0.046,0.251-0.081,0.419-0.104,0.504l-0.913,3.118H59.772z"/>
	<path fill="#371B87" d="M63.827,28.767v-9.773h1.808v7.998h2.887v1.776H63.827z"/>
	<path fill="#371B87" d="M75.435,28.767l-3.124-9.773h1.998l1.646,6.095c0.03,0.125,0.079,0.356,0.145,0.694
		c0.065,0.338,0.135,0.723,0.208,1.155c0.05-0.418,0.105-0.79,0.164-1.115c0.061-0.325,0.119-0.592,0.177-0.801l1.669-6.028h1.975
		l-3.146,9.773H75.435z"/>
	<path fill="#371B87" d="M81.204,28.767v-9.773h4.978v1.763h-3.17v2.009h3.17v1.776h-3.17v2.45h3.17v1.776H81.204z"/>
	<path fill="#371B87" d="M87.955,28.767v-9.773h1.877l3.742,5.688c0.108,0.16,0.227,0.386,0.355,0.677
		c0.129,0.292,0.264,0.636,0.401,1.032c-0.042-0.29-0.073-0.577-0.093-0.861c-0.019-0.285-0.028-0.641-0.028-1.068v-5.468h1.728
		v9.773h-1.773l-3.847-5.794c-0.108-0.16-0.226-0.386-0.353-0.678s-0.262-0.64-0.404-1.045c0.043,0.281,0.074,0.564,0.093,0.852
		c0.019,0.287,0.028,0.648,0.028,1.084v5.581H87.955z"/>
	<path fill="#371B87" d="M105.09,18.994v6.082c0,1.327-0.302,2.317-0.906,2.971c-0.604,0.654-1.516,0.981-2.732,0.981
		c-1.235,0-2.155-0.327-2.76-0.981c-0.604-0.654-0.906-1.644-0.906-2.971v-6.082h1.795v5.754c0,0.806,0.154,1.412,0.463,1.819
		c0.308,0.407,0.768,0.611,1.38,0.611c0.616,0,1.082-0.205,1.397-0.614c0.316-0.409,0.474-1.015,0.474-1.816v-5.754H105.09z"/>
	<path fill="#371B87" d="M106.961,28.767v-9.773h4.979v1.763h-3.17v2.009h3.17v1.776h-3.17v2.45h3.17v1.776H106.961z"/>
</g>
<g enable-background="new    ">
	<path fill="#371B87" d="M40.244,41.197l1.005-1.315c0.127,0.36,0.331,0.644,0.612,0.851c0.281,0.207,0.597,0.311,0.947,0.311
		c0.424,0,0.759-0.116,1.005-0.347c0.247-0.231,0.37-0.543,0.37-0.935c0-0.463-0.41-0.924-1.23-1.382
		c-0.266-0.146-0.476-0.267-0.629-0.36c-0.739-0.445-1.251-0.88-1.536-1.305c-0.285-0.425-0.428-0.931-0.428-1.519
		c0-0.806,0.276-1.468,0.829-1.986c0.552-0.518,1.27-0.777,2.151-0.777c0.512,0,0.954,0.104,1.325,0.31
		c0.372,0.207,0.7,0.531,0.985,0.972l-1.069,1.182c-0.127-0.285-0.295-0.498-0.505-0.638c-0.21-0.14-0.463-0.21-0.76-0.21
		c-0.358,0-0.646,0.104-0.866,0.311c-0.219,0.207-0.329,0.475-0.329,0.805c0,0.516,0.435,0.988,1.305,1.415
		c0.173,0.084,0.306,0.151,0.398,0.2c0.716,0.378,1.247,0.806,1.591,1.282c0.344,0.477,0.517,1.019,0.517,1.629
		c0,0.917-0.271,1.648-0.812,2.193c-0.541,0.545-1.268,0.818-2.18,0.818c-0.646,0-1.201-0.129-1.663-0.387
		C40.815,42.054,40.471,41.683,40.244,41.197z"/>
	<path fill="#371B87" d="M47.411,42.439v-9.773h2.079c1.109,0,1.928,0.245,2.457,0.734c0.529,0.49,0.794,1.246,0.794,2.27
		c0,0.948-0.267,1.691-0.8,2.229c-0.534,0.539-1.272,0.808-2.215,0.808h-0.497v3.732H47.411z M49.229,37.078h0.26
		c0.493,0,0.851-0.118,1.074-0.354c0.223-0.236,0.335-0.614,0.335-1.135c0-0.481-0.112-0.832-0.335-1.052
		c-0.224-0.22-0.582-0.331-1.074-0.331h-0.26V37.078z"/>
	<path fill="#371B87" d="M62.646,37.572c0,0.699-0.112,1.36-0.338,1.983c-0.225,0.623-0.549,1.17-0.973,1.642
		c-0.439,0.485-0.934,0.857-1.484,1.115c-0.551,0.258-1.121,0.387-1.709,0.387c-0.516,0-1.021-0.101-1.516-0.304
		s-0.948-0.493-1.36-0.871c-0.531-0.49-0.938-1.075-1.222-1.756c-0.283-0.681-0.424-1.413-0.424-2.196
		c0-0.703,0.111-1.363,0.335-1.979c0.223-0.616,0.55-1.165,0.981-1.646c0.424-0.476,0.916-0.845,1.476-1.108
		c0.561-0.263,1.137-0.394,1.73-0.394c0.589,0,1.162,0.131,1.718,0.394c0.556,0.263,1.048,0.632,1.476,1.108
		c0.427,0.481,0.752,1.03,0.976,1.649C62.534,36.215,62.646,36.874,62.646,37.572z M58.141,40.837c0.766,0,1.398-0.311,1.897-0.932
		c0.499-0.621,0.748-1.398,0.748-2.333c0-0.926-0.252-1.705-0.757-2.336s-1.134-0.948-1.888-0.948c-0.766,0-1.401,0.315-1.906,0.945
		s-0.757,1.41-0.757,2.34c0,0.944,0.249,1.724,0.745,2.34C56.72,40.529,57.359,40.837,58.141,40.837z"/>
	<path fill="#371B87" d="M64.17,42.439v-9.773h1.877l3.742,5.688c0.108,0.16,0.227,0.386,0.355,0.677
		c0.129,0.292,0.264,0.636,0.401,1.032c-0.042-0.29-0.073-0.577-0.093-0.861c-0.019-0.285-0.028-0.641-0.028-1.068v-5.468h1.728
		v9.773h-1.773l-3.847-5.794c-0.108-0.16-0.225-0.386-0.352-0.678s-0.262-0.64-0.404-1.045c0.042,0.281,0.073,0.564,0.092,0.852
		c0.019,0.287,0.029,0.648,0.029,1.084v5.581H64.17z"/>
	<path fill="#371B87" d="M73.492,41.197l1.004-1.315c0.127,0.36,0.332,0.644,0.613,0.851c0.28,0.207,0.596,0.311,0.946,0.311
		c0.424,0,0.759-0.116,1.005-0.347s0.369-0.543,0.369-0.935c0-0.463-0.409-0.924-1.229-1.382c-0.266-0.146-0.476-0.267-0.63-0.36
		c-0.738-0.445-1.251-0.88-1.535-1.305c-0.285-0.425-0.428-0.931-0.428-1.519c0-0.806,0.275-1.468,0.828-1.986
		c0.553-0.518,1.27-0.777,2.152-0.777c0.512,0,0.953,0.104,1.324,0.31c0.372,0.207,0.7,0.531,0.985,0.972l-1.069,1.182
		c-0.127-0.285-0.295-0.498-0.504-0.638c-0.211-0.14-0.464-0.21-0.76-0.21c-0.358,0-0.646,0.104-0.867,0.311
		c-0.219,0.207-0.328,0.475-0.328,0.805c0,0.516,0.435,0.988,1.305,1.415c0.174,0.084,0.307,0.151,0.398,0.2
		c0.717,0.378,1.246,0.806,1.592,1.282c0.344,0.477,0.516,1.019,0.516,1.629c0,0.917-0.27,1.648-0.811,2.193
		c-0.541,0.545-1.268,0.818-2.181,0.818c-0.646,0-1.201-0.129-1.663-0.387C74.063,42.054,73.719,41.683,73.492,41.197z"/>
	<path fill="#371B87" d="M89.315,37.572c0,0.699-0.112,1.36-0.338,1.983s-0.55,1.17-0.973,1.642
		c-0.438,0.485-0.935,0.857-1.484,1.115c-0.551,0.258-1.12,0.387-1.71,0.387c-0.516,0-1.021-0.101-1.516-0.304
		s-0.948-0.493-1.359-0.871c-0.531-0.49-0.939-1.075-1.223-1.756c-0.282-0.681-0.424-1.413-0.424-2.196
		c0-0.703,0.111-1.363,0.335-1.979c0.224-0.616,0.55-1.165,0.981-1.646c0.424-0.476,0.916-0.845,1.476-1.108
		c0.561-0.263,1.137-0.394,1.729-0.394c0.59,0,1.162,0.131,1.719,0.394s1.048,0.632,1.476,1.108c0.427,0.481,0.753,1.03,0.976,1.649
		C89.204,36.215,89.315,36.874,89.315,37.572z M84.811,40.837c0.767,0,1.398-0.311,1.897-0.932c0.499-0.621,0.748-1.398,0.748-2.333
		c0-0.926-0.253-1.705-0.757-2.336s-1.134-0.948-1.889-0.948c-0.766,0-1.4,0.315-1.905,0.945s-0.757,1.41-0.757,2.34
		c0,0.944,0.248,1.724,0.745,2.34C83.391,40.529,84.029,40.837,84.811,40.837z"/>
	<path fill="#371B87" d="M96.956,42.439h-2.085l-2.223-4.566v4.566H90.84v-9.773h2.588c1.027,0,1.798,0.23,2.311,0.691
		c0.512,0.461,0.768,1.154,0.768,2.08c0,0.672-0.176,1.246-0.525,1.722c-0.351,0.477-0.803,0.754-1.357,0.834L96.956,42.439z
		 M92.648,36.832h0.271c0.73,0,1.214-0.093,1.449-0.277c0.234-0.185,0.352-0.506,0.352-0.964c0-0.481-0.125-0.822-0.378-1.025
		c-0.252-0.203-0.727-0.304-1.423-0.304h-0.271V36.832z"/>
</g>
<path fill="#02447C" d="M26.058,103.084c-0.155-0.881-0.52-1.414-1.553-2.129c-0.928-0.643-2.131-1.436-2.131-1.436
	s-1.465-0.814-1.553-1.768c-0.087-0.957,0.955-1.83,2.288-1.736c0.652,0.025,1.035,0.229,1.277,0.383
	c0.413,0.268,0.601,0.619,0.661,0.717c0.014,0.021,0.019,0.031,0.019,0.031c0.021,0.043,0.072,0.064,0.119,0.053
	c0.047-0.01,0.08-0.053,0.08-0.102l-0.002-1.848h-2.61c-1.589-0.027-3.545,1.166-3.474,3.057c0.018,0.465-0.026,1.346,1.779,2.494
	c1.671,1.063,3.194,1.723,3.207,3.332c0.016,1.695-1.626,2.355-2.897,2.154c-0.6-0.097-1.011-0.345-1.243-0.572
	c-0.378-0.365-0.487-0.809-0.548-1.187c-0.012-0.065-0.08-0.096-0.127-0.084c-0.048,0.011-0.083,0.056-0.083,0.104v1.42
	c0,0,0.839,0.84,2.287,0.93C25.321,107.137,26.327,104.616,26.058,103.084"/>
<path fill="#02447C" d="M33.15,96.961c-3.075,0-4.844,2.011-4.844,4.922c0,3.033,1.981,4.863,4.717,4.863
	c2.986,0,4.843-2.172,4.843-5.026C37.866,98.645,35.771,96.961,33.15,96.961 M33.049,106.163c-1.934,0-3.313-1.627-3.313-4.291
	c0-3.09,1.681-4.318,3.35-4.318c0.854,0,2.12,0.369,2.8,1.611c0.438,0.807,0.55,1.914,0.55,2.623
	C36.436,104.586,35.031,106.163,33.049,106.163"/>
<path fill="#02447C" d="M65.064,101.284h-3.322c0.021,0.088,0.144,0.508,0.522,0.625h2.8v4.073c0.002,0.047,0.008,0.125,0.034,0.199
	c0.051,0.147,0.277,0.327,0.601,0.327h0.777v-9.369h-1.412V101.284z"/>
<path fill="#02447C" d="M46.944,103.254c-0.021,0.392-0.002,0.813-0.085,1.14c-0.386,1.51-2.046,1.638-2.372,1.638
	c-0.733,0-1.334-0.332-1.708-0.765c-0.359-0.407-0.415-0.918-0.438-1.771l-0.001-0.035v-6.322h-1.405l0,0h-0.329
	c-0.021,0-0.039,0.021-0.043,0.049c-0.005,0.029,0.004,0.059,0.022,0.072c0,0,0.004,0.002,0.014,0.012
	c0.063,0.055,0.329,0.26,0.336,0.887v5.303h0.006c0.004,0.896,0.067,1.529,0.491,2.06c0.722,0.896,1.948,1.187,2.845,1.187
	c1.33,0,2.075-0.476,2.566-0.949c0.67-0.639,0.777-1.447,0.777-2.402v-6.215h-0.677L46.944,103.254L46.944,103.254z"/>
<path fill="#02447C" d="M50.322,97.765h2.496v8.182l0.004-0.012c0,0-0.007,0.125,0.035,0.246c0.05,0.147,0.277,0.327,0.601,0.327
	h0.773v-8.743h2.49v-0.627h-6.399V97.765z"/>
<path fill="#02447C" d="M59.322,97.187c-0.007,0.028,0.005,0.06,0.022,0.071c0,0,0.003,0.002,0.011,0.013
	c0.065,0.056,0.331,0.259,0.338,0.892v7.772c0,0-0.006,0.125,0.035,0.246c0.051,0.147,0.276,0.327,0.601,0.327h0.776v-9.37h-1.741
	C59.345,97.138,59.327,97.161,59.322,97.187"/>
<path fill="#02447C" d="M108.448,106.181c0.052,0.147,0.278,0.327,0.601,0.327h0.778v-9.37h-1.742c-0.021,0-0.04,0.021-0.044,0.05
	s0.004,0.059,0.021,0.07c0,0,0.006,0.002,0.014,0.012c0.064,0.057,0.331,0.262,0.336,0.891v7.775l0.001-0.001
	C108.413,105.935,108.407,106.06,108.448,106.181"/>
<path fill="#02447C" d="M105.479,97.273c-0.564-0.203-1.187-0.31-1.84-0.31c-3.076,0-4.845,2.011-4.845,4.92
	c0,3.033,1.983,4.863,4.718,4.863c0.727,0,1.385-0.129,1.967-0.363v-0.485c0,0-0.621,0.265-1.94,0.265
	c-1.933,0-3.313-1.627-3.313-4.291c0-3.09,1.683-4.318,3.354-4.318c0.213,0,0.455,0.045,0.709,0.133c0,0,0.605,0.176,0.951,0.588
	c0.007,0.006,0.007,0.01,0.012,0.016c0.051,0.045,0.083,0.084,0.102,0.104c0.008,0.01,0.01,0.015,0.01,0.015
	c0.015,0.02,0.043,0.028,0.07,0.024c0.026-0.007,0.049-0.022,0.049-0.048v-0.379l0,0v-0.733H105.479z"/>
<path fill="#02447C" d="M113.784,101.284h-3.322c0.021,0.088,0.144,0.508,0.522,0.625h2.8v4.073c0.002,0.047,0.01,0.125,0.034,0.199
	c0.052,0.147,0.275,0.327,0.601,0.327h0.778v-9.369h-1.413V101.284z"/>
<path fill="#02447C" d="M93.525,97.129h-1.471c-0.021,0-0.041,0.021-0.045,0.05c-0.005,0.028,0.004,0.058,0.023,0.071
	c0,0,0.003,0.002,0.013,0.01c0.037,0.033,0.14,0.117,0.222,0.298l0.008,0.019l-3.17,8.934h0.627l2.855-8.047l1.42,4.002h-2.199
	c0.006,0.02,0.104,0.479,0.483,0.627h1.938l1.024,2.885c0.017,0.049,0.048,0.127,0.073,0.205c0.052,0.148,0.277,0.328,0.602,0.328
	h0.924L93.525,97.129z"/>
<path fill="#02447C" d="M87.061,105.881h-3.773v-8.112h3.41v-0.625h-4.762v0.006c-0.006-0.002-0.012-0.012-0.018-0.012h-0.374
	c-0.021,0-0.04,0.021-0.043,0.049c-0.005,0.028,0.003,0.06,0.022,0.071c0,0,0.006,0.002,0.013,0.013
	c0.063,0.056,0.334,0.261,0.336,0.899v7.806c0.001,0.047,0.01,0.127,0.037,0.205c0.05,0.147,0.276,0.327,0.599,0.327h0.778v-0.002
	h3.772v-0.625H87.061z"/>
<path fill="#02447C" d="M75.521,100.738c1.139-0.163,2.533-0.771,2.533-2.733c0-2.836-3.229-2.648-3.229-2.648h-1.861l-0.003,0.004
	h-1.301v0.004h-0.778c-0.048,0-0.092,0.033-0.104,0.08c-0.012,0.049,0.012,0.098,0.056,0.119c0,0,0.009,0.005,0.03,0.018
	c0.148,0.096,0.769,0.527,0.793,1.519c0,0.063,0.001,0.112,0.001,0.153v0.082v0.006c0,0.002,0,0.004,0.002,0.009v8.612l0.007-0.021
	c0,0-0.007,0.15,0.043,0.296c0.063,0.181,0.332,0.396,0.723,0.396h0.563L73,106.635h2.001c0,0,3.474,0.201,3.474-2.889
	C78.475,101.47,76.777,100.87,75.521,100.738 M74.232,105.892h-0.871v-9.856h0.748c0,0,2.482-0.148,2.482,2.123
	c0,1.973-0.921,2.231-2.037,2.231h-0.423c0.028,0.112,0.181,0.625,0.647,0.757c1.187,0.02,2.121,0.352,2.121,2.434
	C76.902,106.056,74.232,105.892,74.232,105.892"/>
<path fill="#02447C" d="M84.338,101.92h2.033v-0.625h-2.615C83.788,101.417,83.93,101.838,84.338,101.92"/>
<path fill="#A0CF67" d="M84.867,86.829c-1.832-1.093-3.662-0.351-3.662-0.351c0.652-0.054,1.793-0.004,2.793,0.64
	c1.835,1.176,2.646,3.69,4.093,3.887c0,0,0.62,0.096,0.978-0.019c0.356-0.114,0.389-0.187,0.389-0.187
	C87.668,90.804,86.837,88,84.867,86.829"/>
<path fill="#00A9A5" d="M88.098,85.708c-2.891-1.722-5.777-0.551-5.777-0.551c1.031-0.085,2.826-0.009,4.406,1.008
	c2.895,1.854,4.172,5.819,6.455,6.131c0,0,0.979,0.149,1.541-0.029c0.562-0.18,0.613-0.291,0.613-0.291
	C92.514,91.978,91.203,87.556,88.098,85.708"/>
<path fill="#A0CF67" d="M100.438,90.265c0,0,0.75,0.606,0.998-0.486c0.348-1.53,1.563-4.312,4.137-4.841
	c0,0-1.342-0.314-2.891,1.057C100.975,87.5,100.438,90.265,100.438,90.265"/>
<path fill="#00A9A5" d="M91.547,84.015c-3.675-2.188-7.345-0.701-7.345-0.701c1.312-0.106,3.593-0.008,5.604,1.281
	c3.676,2.358,5.301,7.399,8.205,7.795c0,0,1.242,0.188,1.959-0.037c0.713-0.228,0.778-0.371,0.778-0.371
	C97.16,91.991,95.495,86.366,91.547,84.015"/>
<path fill="#00A9A5" d="M103.982,90.23c0,0,0.896,0.729,1.193-0.581c0.416-1.833,1.871-5.16,4.953-5.796
	c0,0-1.605-0.377-3.462,1.265C104.625,86.92,103.982,90.23,103.982,90.23"/>
<path fill="#02447C" d="M95.757,82.375c-4.741-2.824-9.479-0.903-9.479-0.903c1.691-0.138,4.639-0.013,7.231,1.651
	c4.747,3.047,6.845,9.556,10.595,10.065c0,0,1.604,0.243,2.528-0.05c0.921-0.293,1.005-0.479,1.005-0.479
	C103.004,92.67,100.854,85.413,95.757,82.375"/>
<path fill="#02447C" d="M108.368,90.208c0,0,0.995,0.81,1.327-0.646c0.462-2.037,2.078-5.733,5.502-6.438
	c0,0-1.784-0.42-3.848,1.402C109.081,86.534,108.368,90.208,108.368,90.208"/>
<path fill="#02447C" d="M98.714,82.292c0,0-1.276-4.82-1.787-7.479c-0.329-1.725-0.216-2.139-0.216-2.139l2.505-16.422l2.14-2.069
	l-3.474,19.026c0,0-0.157,0.422,0.042,2.285c0.309,2.873,1.241,8.127,1.241,8.127L98.714,82.292z"/>
<path fill="#00A9A5" d="M92.909,79.333c0,0,0.557-2.412,0.765-3.746c0.135-0.865,0.069-1.078,0.069-1.078l-1.576-8.371l-1.412-1.098
	l2.115,9.715c0,0,0.087,0.217,0.021,1.156c-0.102,1.445-0.186,4.086-0.186,4.086L92.909,79.333z"/>
<path fill="#02447C" d="M82.872,83.122c-3.11,1.852-4.774,5.778-7.136,7.237c-0.359,0.231-0.926,0.55-1.553,0.733
	c0.203,0.054,0.522,0.078,1.015-0.02c3.29-0.826,5.602-6.895,8.917-8.557C83.705,82.676,83.289,82.874,82.872,83.122"/>
<path fill="#A0CF67" d="M75.889,86.679c-1.902,0.987-3.301,3.252-4.744,4.034c-0.222,0.125-0.563,0.293-0.941,0.382
	c0.12,0.04,0.309,0.063,0.602,0.022c1.971-0.379,3.822-3.885,5.838-4.756C76.395,86.445,76.143,86.545,75.889,86.679"/>
<path fill="#00A9A5" d="M78.913,85.301c-2.38,1.32-3.94,4.234-5.749,5.277c-0.275,0.164-0.709,0.392-1.186,0.514
	c0.151,0.046,0.394,0.072,0.766,0.011c2.49-0.544,4.586-5.054,7.115-6.228C79.548,84.988,79.23,85.125,78.913,85.301"/>
</svg>
