<?xml version="1.0" encoding="utf-8"?>
<!-- Generator: Adobe Illustrator 16.0.0, SVG Export Plug-In . SVG Version: 6.00 Build 0)  -->
<!DOCTYPE svg PUBLIC "-//W3C//DTD SVG 1.1//EN" "http://www.w3.org/Graphics/SVG/1.1/DTD/svg11.dtd">
<svg version="1.1" id="Layer_1" xmlns="http://www.w3.org/2000/svg" xmlns:xlink="http://www.w3.org/1999/xlink" x="0px" y="0px"
	 width="134.375px" height="123.958px" viewBox="0 0 134.375 123.958" enable-background="new 0 0 134.375 123.958"
	 xml:space="preserve">
<g>
	<text transform="matrix(0.8651 0 0 1 20.252 28.7666)" fill="#371B87" font-family="'FuturaBT-Heavy'" font-size="13.672">VIRTUAL VENUE</text>
	<text transform="matrix(0.8651 0 0 1 39.8389 42.4385)" fill="#371B87" font-family="'FuturaBT-Heavy'" font-size="13.672">SPONSOR</text>
	<path fill="#02447C" d="M26.058,103.085c-0.155-0.881-0.52-1.415-1.553-2.129c-0.928-0.643-2.131-1.436-2.131-1.436
		s-1.465-0.814-1.553-1.768c-0.087-0.957,0.955-1.83,2.288-1.736c0.652,0.025,1.035,0.229,1.277,0.383
		c0.413,0.268,0.601,0.619,0.661,0.717c0.014,0.021,0.019,0.031,0.019,0.031c0.021,0.043,0.072,0.065,0.119,0.053
		c0.047-0.01,0.08-0.053,0.08-0.102l-0.002-1.847h-2.61c-1.589-0.028-3.545,1.165-3.474,3.056c0.018,0.465-0.026,1.346,1.779,2.494
		c1.671,1.063,3.194,1.723,3.207,3.332c0.016,1.695-1.626,2.355-2.897,2.154c-0.6-0.096-1.011-0.344-1.243-0.571
		c-0.378-0.366-0.487-0.81-0.548-1.187c-0.012-0.065-0.08-0.096-0.127-0.084c-0.048,0.01-0.083,0.055-0.083,0.104v1.42
		c0,0,0.839,0.84,2.287,0.93C25.321,107.137,26.327,104.615,26.058,103.085"/>
	<path fill="#02447C" d="M33.15,96.962c-3.075,0-4.844,2.01-4.844,4.922c0,3.033,1.981,4.863,4.717,4.863
		c2.986,0,4.843-2.172,4.843-5.027C37.866,98.645,35.771,96.962,33.15,96.962 M33.049,106.162c-1.934,0-3.313-1.627-3.313-4.291
		c0-3.09,1.681-4.318,3.35-4.318c0.854,0,2.12,0.369,2.8,1.611c0.438,0.807,0.55,1.914,0.55,2.623
		C36.436,104.587,35.031,106.162,33.049,106.162"/>
	<path fill="#02447C" d="M65.064,101.283h-3.322c0.021,0.088,0.144,0.508,0.522,0.625h2.8v4.074
		c0.002,0.047,0.008,0.125,0.034,0.199c0.051,0.148,0.277,0.328,0.601,0.328h0.777v-9.37h-1.412V101.283z"/>
	<path fill="#02447C" d="M46.944,103.255c-0.021,0.391-0.002,0.813-0.085,1.139c-0.386,1.51-2.046,1.638-2.372,1.638
		c-0.733,0-1.334-0.332-1.708-0.765c-0.359-0.407-0.415-0.918-0.438-1.771l-0.001-0.035v-6.322h-1.405l0,0h-0.329
		c-0.021,0-0.039,0.021-0.043,0.049c-0.005,0.029,0.004,0.059,0.022,0.072c0,0,0.004,0.002,0.014,0.012
		c0.063,0.055,0.329,0.259,0.336,0.887v5.303h0.006c0.004,0.896,0.067,1.528,0.491,2.059c0.722,0.895,1.948,1.186,2.845,1.186
		c1.33,0,2.075-0.475,2.566-0.949c0.67-0.638,0.777-1.447,0.777-2.402v-6.215h-0.677V103.255z"/>
	<path fill="#02447C" d="M50.322,97.765h2.496v8.182l0.004-0.012c0,0-0.007,0.125,0.035,0.246c0.05,0.148,0.277,0.328,0.601,0.328
		h0.773v-8.744h2.49v-0.627h-6.399V97.765z"/>
	<path fill="#02447C" d="M59.322,97.187c-0.007,0.029,0.005,0.059,0.022,0.072c0,0,0.003,0.002,0.011,0.012
		c0.065,0.055,0.331,0.259,0.338,0.891v7.773c0,0-0.006,0.125,0.035,0.246c0.051,0.148,0.276,0.328,0.601,0.328h0.776v-9.371h-1.741
		C59.345,97.138,59.327,97.16,59.322,97.187"/>
	<path fill="#02447C" d="M108.448,106.181c0.052,0.148,0.278,0.328,0.601,0.328h0.778v-9.371h-1.742c-0.021,0-0.04,0.021-0.044,0.05
		s0.004,0.058,0.022,0.071c0,0,0.005,0.002,0.013,0.011c0.064,0.056,0.331,0.261,0.336,0.89v7.776l0.001-0.001
		C108.413,105.935,108.407,106.06,108.448,106.181"/>
	<path fill="#02447C" d="M105.479,97.273c-0.565-0.203-1.187-0.31-1.841-0.31c-3.075,0-4.844,2.011-4.844,4.921
		c0,3.033,1.984,4.863,4.718,4.863c0.727,0,1.385-0.129,1.967-0.363v-0.486c0,0-0.621,0.264-1.941,0.264
		c-1.932,0-3.313-1.627-3.313-4.291c0-3.09,1.682-4.318,3.353-4.318c0.213,0,0.455,0.045,0.709,0.133c0,0,0.606,0.176,0.952,0.588
		c0.006,0.006,0.006,0.01,0.011,0.016c0.051,0.045,0.083,0.084,0.101,0.104c0.008,0.01,0.011,0.014,0.011,0.014
		c0.014,0.02,0.042,0.029,0.069,0.025c0.027-0.006,0.049-0.023,0.049-0.047v-0.379v-0.001V97.273z"/>
	<path fill="#02447C" d="M113.784,101.283h-3.322c0.021,0.088,0.144,0.508,0.522,0.625h2.8v4.074
		c0.002,0.047,0.01,0.125,0.034,0.199c0.052,0.148,0.276,0.328,0.601,0.328h0.778v-9.37h-1.413V101.283z"/>
	<path fill="#02447C" d="M93.526,97.13h-1.472c-0.021,0-0.041,0.02-0.044,0.049c-0.005,0.029,0.003,0.058,0.023,0.072
		c0,0,0.003,0.002,0.013,0.01c0.037,0.033,0.139,0.117,0.221,0.297l0.008,0.018l-3.17,8.934h0.627l2.856-8.047l1.42,4.002h-2.2
		c0.006,0.02,0.104,0.479,0.484,0.627h1.939l1.024,2.885c0.017,0.049,0.048,0.127,0.073,0.205c0.052,0.148,0.277,0.328,0.601,0.328
		h0.925L93.526,97.13z"/>
	<path fill="#02447C" d="M87.06,105.882h-3.773v-8.113h3.41v-0.625h-4.762v0.006c-0.005-0.002-0.011-0.012-0.017-0.012h-0.374
		c-0.021,0-0.04,0.021-0.043,0.049c-0.005,0.029,0.003,0.059,0.023,0.072c0,0,0.005,0.002,0.012,0.012
		c0.063,0.056,0.334,0.26,0.336,0.9v7.805c0.001,0.047,0.01,0.127,0.037,0.205c0.05,0.148,0.276,0.328,0.599,0.328h0.778v-0.002
		h3.773V105.882z"/>
	<path fill="#02447C" d="M75.521,100.738c1.139-0.164,2.534-0.77,2.534-2.734c0-2.836-3.229-2.648-3.229-2.648h-1.861l-0.003,0.004
		h-1.301v0.004h-0.778c-0.048,0-0.092,0.033-0.103,0.08c-0.012,0.049,0.011,0.098,0.055,0.119c0,0,0.009,0.005,0.03,0.018
		c0.149,0.096,0.769,0.527,0.793,1.518c0,0.063,0.001,0.113,0.001,0.154v0.082v0.006c0,0.002,0,0.004,0.002,0.008v8.613l0.007-0.022
		c0,0-0.007,0.151,0.043,0.296c0.063,0.18,0.332,0.395,0.722,0.395h0.563L73,106.636h2.001c0,0,3.474,0.201,3.474-2.889
		C78.475,101.47,76.778,100.869,75.521,100.738 M74.232,105.892h-0.87v-9.857h0.748c0,0,2.482-0.148,2.482,2.123
		c0,1.973-0.921,2.232-2.038,2.232h-0.422c0.028,0.113,0.18,0.625,0.648,0.757c1.186,0.019,2.121,0.351,2.121,2.433
		C76.902,106.056,74.232,105.892,74.232,105.892"/>
	<path fill="#02447C" d="M84.338,101.921h2.033v-0.625h-2.615C83.788,101.417,83.93,101.839,84.338,101.921"/>
	<path fill="#A0CF67" d="M84.867,86.828c-1.832-1.092-3.662-0.35-3.662-0.35c0.653-0.053,1.793-0.004,2.793,0.639
		c1.835,1.177,2.646,3.691,4.093,3.888c0,0,0.62,0.095,0.977-0.019s0.389-0.186,0.389-0.186C87.668,90.804,86.837,88,84.867,86.828"
		/>
	<path fill="#00A9A5" d="M88.097,85.707c-2.89-1.721-5.776-0.551-5.776-0.551c1.03-0.084,2.826-0.008,4.406,1.008
		c2.894,1.855,4.171,5.82,6.455,6.132c0,0,0.979,0.149,1.541-0.03c0.561-0.179,0.613-0.291,0.613-0.291
		C92.514,91.978,91.203,87.556,88.097,85.707"/>
	<path fill="#A0CF67" d="M100.438,90.265c0,0,0.749,0.607,0.998-0.486c0.347-1.531,1.563-4.311,4.136-4.841
		c0,0-1.342-0.315-2.891,1.056C100.974,87.5,100.438,90.265,100.438,90.265"/>
	<path fill="#00A9A5" d="M91.547,84.015c-3.675-2.188-7.345-0.701-7.345-0.701c1.311-0.106,3.593-0.008,5.604,1.281
		c3.677,2.359,5.302,7.399,8.205,7.795c0,0,1.243,0.189,1.959-0.037c0.714-0.228,0.779-0.371,0.779-0.371
		C97.16,91.99,95.495,86.365,91.547,84.015"/>
	<path fill="#00A9A5" d="M103.983,90.23c0,0,0.896,0.73,1.193-0.581c0.416-1.833,1.871-5.16,4.953-5.796
		c0,0-1.606-0.377-3.462,1.264C104.625,86.921,103.983,90.23,103.983,90.23"/>
	<path fill="#02447C" d="M95.757,82.376c-4.742-2.824-9.48-0.904-9.48-0.904c1.692-0.137,4.639-0.012,7.232,1.652
		c4.747,3.047,6.845,9.555,10.595,10.065c0,0,1.604,0.243,2.528-0.05c0.921-0.293,1.005-0.479,1.005-0.479
		C103.004,92.671,100.854,85.412,95.757,82.376"/>
	<path fill="#02447C" d="M108.368,90.208c0,0,0.996,0.809,1.327-0.646c0.462-2.037,2.078-5.734,5.502-6.439
		c0,0-1.784-0.42-3.847,1.403C109.081,86.533,108.368,90.208,108.368,90.208"/>
	<path fill="#02447C" d="M98.714,82.291c0,0-1.277-4.82-1.787-7.478c-0.33-1.724-0.216-2.138-0.216-2.138l2.505-16.423l2.139-2.069
		L97.882,73.21c0,0-0.158,0.422,0.042,2.285c0.308,2.873,1.241,8.127,1.241,8.127L98.714,82.291z"/>
	<path fill="#00A9A5" d="M92.909,79.332c0,0,0.557-2.412,0.765-3.746c0.135-0.865,0.069-1.078,0.069-1.078l-1.576-8.371
		l-1.412-1.098l2.115,9.715c0,0,0.087,0.217,0.02,1.156c-0.101,1.446-0.185,4.086-0.185,4.086L92.909,79.332z"/>
	<path fill="#02447C" d="M82.872,83.121c-3.11,1.852-4.775,5.779-7.136,7.238c-0.359,0.232-0.925,0.549-1.553,0.734
		c0.203,0.053,0.523,0.077,1.015-0.02c3.29-0.827,5.602-6.895,8.917-8.557C83.705,82.677,83.289,82.874,82.872,83.121"/>
	<path fill="#A0CF67" d="M75.888,86.679c-1.901,0.988-3.3,3.252-4.743,4.035c-0.222,0.125-0.564,0.293-0.942,0.381
		c0.12,0.041,0.308,0.063,0.601,0.023c1.972-0.379,3.823-3.885,5.839-4.756C76.394,86.445,76.142,86.546,75.888,86.679"/>
	<path fill="#00A9A5" d="M78.913,85.302c-2.38,1.32-3.94,4.234-5.749,5.277c-0.276,0.164-0.709,0.391-1.186,0.514
		c0.152,0.045,0.394,0.072,0.766,0.01c2.491-0.544,4.586-5.053,7.115-6.227C79.548,84.988,79.23,85.126,78.913,85.302"/>
</g>
</svg>
