<svg id="Layer_1" data-name="Layer 1" xmlns="http://www.w3.org/2000/svg" width="94.72mm" height="112.51mm" viewBox="0 0 268.49 318.94"><defs><style>.cls-1{fill:#fff6df;}.cls-2{fill:#5590cc;}.cls-3{fill:#99ca3c;}.cls-4{fill:none;}</style></defs><polygon class="cls-1" points="-7.9 -12.71 291.02 339.49 281.37 -5.97 -7.9 -12.71"/><polygon class="cls-2" points="-10.65 -37.71 -30.5 -37.71 324.6 383.69 324.6 359.93 -10.65 -37.71"/><polygon class="cls-3" points="253.6 -15.37 279.03 -21.87 130.73 154.07 120.78 142.22 253.6 -15.37"/><polygon class="cls-2" points="160.31 -130.44 185.73 -136.94 37.43 38.99 27.48 27.14 160.31 -130.44"/><polygon class="cls-2" points="351.46 166.48 351.46 190.14 259.83 298.85 249.88 287 351.46 166.48"/><polygon class="cls-3" points="358.8 385.08 369.41 372.48 254.96 239.25 244.32 251.86 358.8 385.08"/><polygon class="cls-3" points="321.85 136.87 321.85 160.53 229.23 270.5 219.28 258.65 321.85 136.87"/><rect class="cls-4" x="-50.91" width="319.4" height="412.3"/></svg>