<?xml version="1.0" encoding="utf-8"?>
<!-- Generator: Adobe Illustrator 16.0.0, SVG Export Plug-In . SVG Version: 6.00 Build 0)  -->
<!DOCTYPE svg PUBLIC "-//W3C//DTD SVG 1.1//EN" "http://www.w3.org/Graphics/SVG/1.1/DTD/svg11.dtd">
<svg version="1.1" id="Layer_2" xmlns="http://www.w3.org/2000/svg" xmlns:xlink="http://www.w3.org/1999/xlink" x="0px" y="0px"
	 width="447.21px" height="127.26px" viewBox="0 0 447.21 127.26" enable-background="new 0 0 447.21 127.26" xml:space="preserve">
<g>
	<polygon fill="#FFF5DA" points="1.854,0.485 108.736,126.419 335.622,126.667 437.965,0.485 	"/>
	<polygon fill="#87CE00" points="259.985,57.232 289.145,91.532 295.666,91.532 266.505,57.232 	"/>
	<polygon fill="#FFCA00" points="360.058,57.232 331.621,91.532 338.072,91.532 366.509,57.232 	"/>
	<polygon fill="#FF5913" points="322.25,57.232 293.813,91.532 300.263,91.532 328.702,57.232 	"/>
	<polygon fill="#0098FF" points="334.995,57.232 306.557,91.532 313.008,91.532 341.446,57.232 	"/>
	<polygon fill="#FF5913" points="246.99,57.232 218.796,91.532 224.973,91.532 253.404,57.232 	"/>
	<polygon fill="#FFCA00" points="392.324,57.232 364.901,91.532 371.295,91.532 398.834,57.232 	"/>
	<polygon fill="#0098FF" points="263.188,57.232 235.979,90.136 237.259,91.532 241.268,91.532 269.631,57.232 	"/>
	<polygon fill="#0098FF" points="292.738,57.232 264.299,91.532 270.75,91.532 299.189,57.232 	"/>
	<polygon fill="#FF7EA3" points="381.197,57.232 352.726,91.532 359.172,91.532 387.61,57.232 	"/>
	<polygon fill="#FFCA00" points="266.445,57.232 295.604,91.532 302.121,91.532 272.889,57.232 	"/>
	<polygon fill="#FF5913" points="341.46,57.232 370.62,91.532 377.139,91.532 347.98,57.232 	"/>
	<polygon fill="#87CE00" points="290.411,57.232 319.57,91.532 326.09,91.532 296.93,57.232 	"/>
	<polygon fill="#FF7EA3" points="296.87,57.232 326.03,91.532 332.548,91.532 303.388,57.232 	"/>
	<polygon fill="#87CE00" points="228.008,57.232 245.811,78.171 249.029,74.29 234.528,57.232 	"/>
	<polygon fill="#FFCA00" points="283.933,57.232 313.092,91.532 319.614,91.532 290.454,57.232 	"/>
	<polygon fill="#87CE00" points="335.035,57.232 364.195,91.532 370.713,91.532 341.553,57.232 	"/>
	<polygon fill="#FF7EA3" points="381.181,57.232 376.484,62.898 380.25,66.134 384.948,60.47 	"/>
	<polygon fill="#FF7EA3" points="356.864,86.542 360.632,89.78 369.825,78.69 366.058,75.454 	"/>
	<polygon fill="#FFCA00" points="350.932,68.263 354.153,72.161 359.046,66.257 355.281,63.02 	"/>
	<polygon fill="#FF5913" points="309.73,72.36 313.026,76.165 317.358,70.94 313.591,67.702 	"/>
	<polygon fill="#FF5913" points="294.245,91.015 294.692,91.532 300.266,91.532 301.873,89.595 298.107,86.356 	"/>
	<polygon fill="#0098FF" points="312.959,83.716 316.244,87.562 319.395,83.745 316.128,79.896 	"/>
	<polygon fill="#FF7EA3" points="283.183,66.386 287.713,68.614 293.835,61.231 290.557,57.404 	"/>
	<polygon fill="#0098FF" points="263.168,57.232 260.671,60.243 264.438,63.482 269.619,57.232 	"/>
	<polygon fill="#87CE00" points="260.038,57.232 267.695,66.251 270.632,62.037 266.613,57.232 	"/>
	<polygon fill="#FF5913" points="297.842,86.659 301.61,89.897 309.812,80.003 306.545,76.161 	"/>
	<polygon fill="#FFCA00" points="360.061,57.232 357.255,60.613 361.012,63.862 366.514,57.232 	"/>
	<polygon fill="#87CE00" points="249.091,81.995 257.2,91.53 263.719,91.53 252.311,78.112 	"/>
	<polygon fill="#FF5913" points="362.52,74.335 369.28,82.286 366.069,86.069 359.011,77.767 	"/>
	<polygon fill="#FF7EA3" points="165.932,57.232 194.907,91.532 201.356,91.532 172.381,57.232 	"/>
	<polygon fill="#FFCA00" points="133.2,57.232 162.181,91.532 168.633,91.532 139.651,57.232 	"/>
	<polygon fill="#FFCA00" points="198.04,57.232 168.565,91.532 175.038,91.532 204.537,57.232 	"/>
	<polygon fill="#FF5913" points="224.489,87.626 220.722,90.804 198.394,64.374 201.649,60.588 	"/>
	<polygon fill="#FF5913" points="174.024,57.232 144.093,91.532 150.52,91.532 180.551,57.232 	"/>
	<polygon fill="#0098FF" points="145.959,57.232 174.934,91.532 181.744,91.532 152.466,57.232 	"/>
	<polygon fill="#0098FF" points="214.054,57.232 184.633,91.532 191.065,91.532 220.541,57.232 	"/>
	<polygon fill="#87CE00" points="220.585,57.232 191.112,91.532 197.583,91.532 227.081,57.232 	"/>
	<polygon fill="#FF5913" points="213.845,75.026 210.471,78.669 206.319,73.755 209.585,69.983 	"/>
	<polygon fill="#FF7EA3" points="212.333,57.232 213.208,58.27 214.093,57.232 	"/>
	<polygon fill="#87CE00" points="100.8,91.532 107.251,91.532 112.491,85.251 109.226,81.429 	"/>
	<polygon fill="#FFCA00" points="88.6,57.232 98.751,69.099 102.478,65.833 95.12,57.232 	"/>
	<polygon fill="#87CE00" points="135.705,57.232 107.091,91.532 113.543,91.532 142.155,57.232 	"/>
	<polygon fill="#FF7EA3" points="129.304,57.232 100.692,91.532 107.143,91.532 135.754,57.232 	"/>
	<polygon fill="#FF5913" points="149.448,57.232 120.835,91.532 127.319,91.532 156.086,57.232 	"/>
	<polygon fill="#0098FF" points="109.809,57.232 139.146,91.532 145.666,91.532 116.328,57.232 	"/>
	<polygon fill="#FF5913" points="88.302,57.232 117.64,91.532 124.159,91.532 94.821,57.232 	"/>
	<polygon fill="#FFCA00" points="69.862,57.232 99.2,91.532 105.719,91.532 76.382,57.232 	"/>
	<polygon fill="#FFCA00" points="94.849,57.232 124.187,91.532 130.447,91.532 130.597,91.435 100.698,57.232 	"/>
	<polygon fill="#0098FF" points="101.345,57.232 72.733,91.532 79.184,91.532 107.796,57.232 	"/>
	<polygon fill="#0098FF" points="122.868,57.232 93.993,91.532 100.765,91.532 129.377,57.232 	"/>
	<polygon fill="#FF5913" points="57.3,57.232 86.683,91.532 93.282,91.532 63.899,57.232 	"/>
	<polygon fill="#FF7EA3" points="101.242,90.87 107.322,91.315 119.952,76.175 116.186,72.956 	"/>
	<polygon fill="#87CE00" points="119.91,76.226 123.634,79.407 135.49,65.194 131.766,62.013 	"/>
	<polygon fill="#FFCA00" points="85.847,75.923 89.046,72.042 85.8,68.247 82.585,72.11 	"/>
	<polygon fill="#FF5913" points="192.161,90.214 192.118,91.53 197.518,91.53 198.946,89.821 195.774,86.13 	"/>
	<polygon fill="#87CE00" points="118.82,85.251 115.565,81.46 108.37,90.058 114.756,90.077 	"/>
	<polygon fill="#FFCA00" points="300.473,0.485 253.291,57.276 259.748,57.276 306.929,0.485 	"/>
	<polygon fill="#0098FF" points="293.973,0.485 260.351,40.972 246.834,57.276 253.292,57.276 300.43,0.485 	"/>
	<polygon fill="#0098FF" points="382.387,0.485 346.412,43.553 335.034,57.276 341.525,57.276 388.865,0.485 	"/>
	<polygon fill="#0098FF" points="251.159,0.485 204.145,57.276 210.59,57.276 257.606,0.485 	"/>
	<polygon fill="#FFCA00" points="276.576,0.485 229.379,57.276 235.836,57.276 283.033,0.485 	"/>
	<polygon fill="#FF5913" points="148.633,0.485 101.579,57.276 108.027,57.276 155.083,0.485 	"/>
	<polygon fill="#FF5913" points="117.003,0.485 70.06,57.276 76.503,57.276 123.446,0.485 	"/>
	<polygon fill="#0098FF" points="123.592,0.485 76.342,57.276 82.803,57.276 130.053,0.485 	"/>
	<polygon fill="#0098FF" points="189.307,0.485 142.127,57.276 148.584,57.276 195.764,0.485 	"/>
	<polygon fill="#FF5913" points="221.492,0.485 189.688,38.375 174.017,57.276 180.511,57.276 227.979,0.485 	"/>
	<polygon fill="#FFCA00" points="439.248,0.485 392.247,57.276 398.72,57.276 445.837,0.485 	"/>
	<polygon fill="#FF7EA3" points="321.78,0.485 274.419,57.276 280.879,57.276 328.207,0.485 	"/>
	<polygon fill="#FF7EA3" points="352.334,0.485 305.177,57.276 311.625,57.276 358.748,0.485 	"/>
	<polygon fill="#FF5913" points="369.617,0.485 322.495,57.276 328.942,57.276 376.031,0.485 	"/>
	<polygon fill="#FF5913" points="406.652,0.485 359.534,57.276 365.981,57.276 413.064,0.485 	"/>
	<polygon fill="#87CE00" points="413.125,0.485 365.668,57.276 372.13,57.276 419.532,0.485 	"/>
	<polygon fill="#FFCA00" points="89.655,41.168 103.348,57.276 109.855,57.276 92.859,37.333 	"/>
	<polygon fill="#FFCA00" points="54.828,0.485 86.589,37.346 89.778,33.501 61.291,0.485 	"/>
	<polygon fill="#FF5913" points="238.588,0.485 286.71,57.276 293.221,57.276 245.098,0.485 	"/>
	<polygon fill="#FFCA00" points="280.074,0.485 328.34,57.276 334.859,57.276 286.593,0.485 	"/>
	<polygon fill="#87CE00" points="300.37,0.485 348.397,57.276 354.903,57.276 306.875,0.485 	"/>
	<polygon fill="#FFCA00" points="306.813,0.485 354.9,57.276 361.409,57.276 313.321,0.485 	"/>
	<polygon fill="#FF7EA3" points="332.731,0.485 381.036,57.276 387.556,57.276 339.252,0.485 	"/>
	<polygon fill="#87CE00" points="111.147,0.485 150.637,47.01 153.831,43.167 117.657,0.485 	"/>
	<polygon fill="#87CE00" points="153.907,50.842 159.376,57.276 165.872,57.276 157.087,46.998 	"/>
	<polygon fill="#87CE00" points="104.399,31.101 126.651,57.276 133.17,57.276 107.646,27.252 	"/>
	<polygon fill="#87CE00" points="79.608,0.485 101.198,27.335 104.41,23.445 85.972,0.485 	"/>
	<polygon fill="#FF7EA3" points="28.616,0.485 76.55,57.087 79.703,53.128 35.125,0.485 	"/>
	<polygon fill="#FF7EA3" points="117.421,0.485 165.807,57.276 172.333,57.276 123.948,0.485 	"/>
	<polygon fill="#FFCA00" points="167.369,34.585 186.659,57.276 193.178,57.276 170.594,30.71 	"/>
	<polygon fill="#FFCA00" points="139.237,0.485 164.112,30.754 167.331,26.871 145.661,0.485 	"/>
	<polygon fill="#FF7EA3" points="166.78,0.485 215.343,57.276 221.879,57.276 173.315,0.485 	"/>
	<polygon fill="#FF7EA3" points="202.223,0.485 250.415,57.276 256.929,57.276 208.739,0.485 	"/>
	<polygon fill="#FF5913" points="208.65,0.485 256.945,57.276 263.464,57.276 215.169,0.485 	"/>
	<polygon fill="#87CE00" points="160.378,0.485 208.836,57.276 215.366,57.276 166.909,0.485 	"/>
	<polygon fill="#FFCA00" points="173.243,0.485 221.802,57.276 228.338,57.276 179.78,0.485 	"/>
	<polygon fill="#87CE00" points="232.154,0.485 280.284,57.276 286.795,57.276 238.666,0.485 	"/>
	<polygon fill="#FF7EA3" points="275.762,55.613 277.697,57.276 280.834,57.276 288.723,47.761 284.956,44.524 	"/>
	<polygon fill="#FFCA00" points="269.831,37.333 273.05,41.231 277.945,35.328 274.178,32.09 	"/>
	<polygon fill="#FFCA00" points="276.153,29.683 279.911,32.932 288.575,22.49 283.394,20.957 	"/>
	<polygon fill="#FF5913" points="281.418,43.405 288.177,51.356 284.967,55.139 277.909,46.836 	"/>
	<polygon fill="#FF5913" points="8.688,0.485 57.381,57.276 63.982,57.276 15.29,0.485 	"/>
	<polygon fill="#0098FF" points="261.218,39.939 266.563,33.397 269.831,37.334 264.935,43.195 	"/>
	<polygon fill="#FF5913" points="189.688,38.375 193.146,41.985 197.698,36.468 194.438,32.645 	"/>
	<polygon fill="#FF5913" points="197.574,28.92 200.836,32.765 207.413,25.092 203.771,21.596 	"/>
	<polygon fill="#0098FF" points="212.917,46.773 209.736,50.643 213,54.462 216.186,50.619 	"/>
	<polygon fill="#0098FF" points="230.198,25.842 226.25,30.641 228.652,35.503 233.47,29.691 	"/>
	<polygon fill="#FFCA00" points="249.903,32.511 243.003,40.875 246.273,44.674 252.528,37.13 	"/>
	<polygon fill="#FFCA00" points="261.161,18.916 257.726,23.078 260.978,26.919 264.411,22.779 	"/>
	<polygon fill="#0098FF" points="258.704,42.964 251.803,51.328 255.074,55.127 261.328,47.583 	"/>
	<polygon fill="#FF5913" points="324.397,55.004 326.275,57.276 328.939,57.276 333.679,51.559 330.295,47.863 	"/>
	<polygon fill="#FF5913" points="345.139,29.996 338.501,38.034 341.74,41.879 347.812,34.554 	"/>
	<polygon fill="#FF7EA3" points="329.736,27.583 323.84,34.725 327.048,38.605 333.02,31.402 	"/>
	<polygon fill="#0098FF" points="338.174,53.479 341.371,57.276 341.453,57.276 348.08,49.282 344.812,45.441 	"/>
	<polygon fill="#0098FF" points="364.72,21.634 356.14,31.831 358.6,36.792 367.438,26.188 	"/>
	<polygon fill="#87CE00" points="378.166,42.083 371.528,50.121 374.766,53.966 381.434,45.924 	"/>
	<polygon fill="#0098FF" points="120.571,4.181 116.341,9.225 118.439,14.444 123.826,8.002 	"/>
	<polygon fill="#FF5913" points="117.421,0.485 120.458,4.05 123.439,0.485 	"/>
	<polygon fill="#FF5913" points="138.659,12.563 133.106,18.875 136.5,22.858 141.915,16.383 	"/>
	<polygon fill="#0098FF" points="178.18,13.818 181.496,17.582 184.622,13.793 181.363,9.981 	"/>
	<polygon fill="#0098FF" points="244.994,7.903 240.25,13.653 244.81,15.907 248.245,11.766 	"/>
	<polygon fill="#FF7EA3" points="307.763,17.293 299.519,27.224 302.011,31.918 309.378,23.077 	"/>
	<polygon fill="#0098FF" points="292.952,1.714 284.708,11.645 285.774,18.05 295.876,5.929 	"/>
	<polygon fill="#FF7EA3" points="321.852,0.485 314.432,9.422 317.864,13.478 326.249,2.835 324.616,0.485 	"/>
	<polygon fill="#87CE00" points="256.967,91.532 286.268,126.397 292.788,126.397 263.487,91.532 	"/>
	<polygon fill="#FFCA00" points="364.732,91.532 336.156,126.397 342.607,126.397 371.042,91.702 370.846,91.532 	"/>
	<polygon fill="#FF5913" points="323.361,91.532 294.785,126.397 301.236,126.397 329.671,91.702 329.474,91.532 	"/>
	<polygon fill="#0098FF" points="336.106,91.532 307.53,126.397 313.981,126.397 342.557,91.532 	"/>
	<polygon fill="#FF5913" points="358.342,91.532 329.766,126.397 336.218,126.397 364.793,91.532 	"/>
	<polygon fill="#0098FF" points="264.089,91.532 235.7,126.259 235.827,126.397 242.031,126.397 270.534,91.532 	"/>
	<polygon fill="#FF5913" points="246.358,91.532 219.186,124.771 221.988,126.397 224.298,126.397 252.801,91.532 	"/>
	<polygon fill="#FF7EA3" points="291.881,91.532 263.305,126.397 269.756,126.397 298.333,91.532 	"/>
	<polygon fill="#FFCA00" points="264.93,91.532 294.231,126.397 300.747,126.397 271.374,91.532 	"/>
	<polygon fill="#87CE00" points="288.897,91.532 318.198,126.397 324.718,126.397 295.417,91.532 	"/>
	<polygon fill="#FF7EA3" points="295.356,91.532 324.657,126.397 331.176,126.397 301.875,91.532 	"/>
	<polygon fill="#FFCA00" points="226.495,91.532 245.625,114.294 248.843,110.368 233.014,91.532 	"/>
	<polygon fill="#FF7EA3" points="222.343,91.532 220.936,92.786 249.182,126.397 255.702,126.397 226.401,91.532 	"/>
	<polygon fill="#FFCA00" points="282.418,91.532 311.72,126.397 318.24,126.397 288.939,91.532 	"/>
	<polygon fill="#FF7EA3" points="282.997,102.372 287.528,104.626 293.649,97.155 290.372,93.286 	"/>
	<polygon fill="#0098FF" points="264.12,91.532 258.576,98.296 264.208,99.296 270.595,91.532 	"/>
	<polygon fill="#87CE00" points="256.978,91.532 266.65,103.056 269.587,98.792 263.326,91.532 	"/>
	<polygon fill="#FFCA00" points="364.735,91.532 360.632,96.532 364.39,99.819 371.189,91.532 	"/>
	<polygon fill="#FF7EA3" points="164.425,91.532 193.542,126.397 199.994,126.397 170.876,91.532 	"/>
	<polygon fill="#87CE00" points="132.554,91.532 161.676,126.397 168.129,126.397 139.006,91.532 	"/>
	<polygon fill="#FFCA00" points="199.198,91.532 169.579,126.397 176.052,126.397 205.694,91.532 	"/>
	<polygon fill="#FF5913" points="198.209,100.337 219.972,126.396 226.423,126.396 201.463,96.509 	"/>
	<polygon fill="#FFCA00" points="201.193,96.188 226.419,126.397 232.87,126.397 204.447,92.362 	"/>
	<polygon fill="#FF5913" points="175.279,91.532 145.645,126.397 151.557,126.397 181.735,91.532 	"/>
	<polygon fill="#FF5913" points="143.89,91.532 119.296,120.466 122.191,124.054 150.342,91.532 	"/>
	<polygon fill="#FF7EA3" points="148.59,91.532 177.708,126.397 184.504,126.397 155.084,91.532 	"/>
	<polygon fill="#0098FF" points="215.208,91.532 185.645,126.397 192.079,126.397 221.698,91.532 	"/>
	<polygon fill="#87CE00" points="221.742,91.532 192.124,126.397 198.597,126.397 228.24,91.532 	"/>
	<polygon fill="#FFCA00" points="88.226,91.532 87.571,92.112 98.565,105.116 102.292,101.813 93.599,91.532 	"/>
	<polygon fill="#0098FF" points="108.287,91.532 137.766,126.397 144.285,126.397 114.806,91.532 	"/>
	<polygon fill="#FF5913" points="86.604,91.532 116.083,126.397 122.604,126.397 93.124,91.532 	"/>
	<polygon fill="#FFCA00" points="93.328,91.532 122.808,126.397 129.275,126.397 99.146,91.532 	"/>
	<polygon fill="#0098FF" points="214.317,70.401 208.064,85.688 231.714,57.299 225.292,57.253 	"/>
	<polygon fill="#0098FF" points="237.803,91.532 231.022,91.532 201.975,57.147 208.545,57.253 	"/>
	<polygon fill="#87CE00" points="208.357,87.753 205.191,83.909 228.098,57.253 234.587,57.253 	"/>
	<polygon fill="#FFCA00" points="231.299,91.532 237.711,91.405 208.515,57.147 202.068,57.147 	"/>
	<polygon fill="#0098FF" points="211.074,75.31 210.5,78.399 211.963,79.673 214.475,79.294 229.279,54.835 225.508,51.388 	"/>
	<g>
		<path fill="#250075" d="M95.31,58.535c0.652-1.121,0.982-2.374,0.982-3.723c0-1.865-0.585-3.387-1.74-4.522
			c-0.753-0.741-1.746-1.31-2.965-1.702c0.943-0.358,1.717-0.843,2.312-1.45c0.993-1.012,1.497-2.363,1.497-4.015
			c0-1.268-0.298-2.422-0.885-3.433c-0.587-1.009-1.426-1.833-2.51-2.458c-0.887-0.468-1.946-0.808-3.148-1.009
			c-1.176-0.197-3.046-0.297-5.558-0.297h-5.316V62.66h4.701c3.01,0,5.114-0.112,6.432-0.341c1.325-0.231,2.5-0.622,3.491-1.16
			C93.745,60.542,94.656,59.66,95.31,58.535z M89.86,54.32c0,1.015-0.292,1.755-0.895,2.264c-0.619,0.522-1.569,0.787-2.824,0.787
			h-1.662v-5.908h1.732c1.224,0,2.156,0.252,2.771,0.75C89.573,52.691,89.86,53.38,89.86,54.32z M84.479,46.208v-5.047h0.836
			c1.92,0,2.793,0.325,3.188,0.597c0.523,0.361,0.777,0.979,0.777,1.891c0,0.934-0.268,1.568-0.818,1.941
			c-0.604,0.41-1.698,0.617-3.252,0.617H84.479z"/>
		<path fill="#250075" d="M107.242,49.868L97.489,62.66h19.334v-5.254h-8.141l1.713-2.131l0.376-0.449
			c4.072-5.083,6.051-8.854,6.051-11.527c0-2.396-0.83-4.294-2.467-5.642c-1.608-1.323-3.868-1.995-6.716-1.995
			c-2.804,0-5.014,0.753-6.568,2.239c-1.561,1.492-2.352,3.609-2.352,6.294v0.939h6.186v-0.623c0-1.095,0.258-1.968,0.767-2.594
			c0.49-0.603,1.134-0.896,1.967-0.896c0.93,0,1.631,0.237,2.143,0.724c0.505,0.48,0.75,1.138,0.75,2.011
			c0,0.642-0.232,1.409-0.69,2.281C109.359,46.957,108.485,48.245,107.242,49.868z"/>
		<path fill="#250075" d="M135.145,48.587c0.943-0.358,1.717-0.843,2.312-1.45c0.993-1.012,1.497-2.363,1.497-4.015
			c0-1.268-0.298-2.422-0.885-3.433c-0.587-1.009-1.426-1.833-2.51-2.458c-0.887-0.468-1.946-0.808-3.148-1.009
			c-1.176-0.197-3.046-0.297-5.558-0.297h-5.316V62.66h4.701c3.01,0,5.114-0.112,6.432-0.341c1.325-0.231,2.5-0.622,3.491-1.16
			c1.144-0.616,2.056-1.499,2.709-2.624c0.652-1.121,0.982-2.374,0.982-3.723c0-1.865-0.585-3.387-1.74-4.522
			C137.357,49.549,136.364,48.979,135.145,48.587z M133.418,54.32c0,1.015-0.292,1.755-0.895,2.264
			c-0.619,0.522-1.569,0.787-2.824,0.787h-1.662v-5.908h1.732c1.224,0,2.156,0.252,2.771,0.75
			C133.131,52.691,133.418,53.38,133.418,54.32z M128.038,46.208v-5.047h0.836c1.92,0,2.793,0.325,3.188,0.597
			c0.523,0.361,0.777,0.979,0.777,1.891c0,0.934-0.268,1.568-0.818,1.941c-0.604,0.41-1.698,0.617-3.252,0.617H128.038z"/>
		<polygon fill="#250075" points="170.243,56.984 160.592,56.984 160.592,51.533 170.243,51.533 170.243,45.857 160.592,45.857 
			160.592,41.566 170.243,41.566 170.243,35.925 154.09,35.925 154.09,62.66 170.243,62.66 		"/>
		<path fill="#250075" d="M178.356,62.66l3.957-7.349c0.194-0.364,0.396-0.799,0.601-1.292c0.04-0.097,0.08-0.196,0.121-0.299
			c0.016,0.043,0.032,0.087,0.05,0.13c0.188,0.486,0.407,0.961,0.648,1.409l3.956,7.401h7.116l-8.218-13.957l8-12.777h-7.035
			l-3.773,6.873c-0.277,0.47-0.516,0.923-0.71,1.347c-0.013,0.028-0.025,0.056-0.037,0.083c-0.171-0.384-0.404-0.83-0.687-1.311
			l-3.815-6.993h-7.074l8.055,12.778l-8.235,13.956H178.356z"/>
		<path fill="#250075" d="M202.78,52.833h1.012c2.982,0,5.361-0.757,7.07-2.25c1.729-1.51,2.605-3.612,2.605-6.248
			c0-2.842-0.876-4.984-2.604-6.367c-1.695-1.355-4.316-2.043-7.792-2.043h-6.828V62.66h6.537V52.833z M202.78,40.986h0.291
			c1.371,0,2.361,0.252,2.945,0.75c0.56,0.478,0.844,1.281,0.844,2.388c0,1.218-0.288,2.1-0.856,2.619
			c-0.582,0.531-1.568,0.801-2.933,0.801h-0.291V40.986z"/>
		<polygon fill="#250075" points="216.264,62.66 232.417,62.66 232.417,56.984 222.766,56.984 222.766,51.533 232.417,51.533 
			232.417,45.857 222.766,45.857 222.766,41.566 232.417,41.566 232.417,35.925 216.264,35.925 		"/>
		<path fill="#250075" d="M243.315,52.044l5.976,10.616h7.525l-7.182-11.84c1.477-0.332,2.721-1.083,3.704-2.24
			c1.141-1.341,1.719-2.976,1.719-4.859c0-2.588-0.852-4.563-2.531-5.87c-1.641-1.277-4.109-1.925-7.338-1.925h-8.375V62.66h6.502
			V52.044z M243.315,41.126h0.326c2.5,0,3.581,0.386,4.048,0.71c0.63,0.438,0.937,1.186,0.937,2.288c0,1.04-0.279,1.736-0.854,2.126
			c-0.431,0.293-1.498,0.643-4.131,0.643h-0.326V41.126z"/>
		<rect x="258.733" y="35.925" fill="#250075" width="6.502" height="26.734"/>
		<polygon fill="#250075" points="286.258,56.984 276.608,56.984 276.608,51.533 286.258,51.533 286.258,45.857 276.608,45.857 
			276.608,41.566 286.258,41.566 286.258,35.925 270.106,35.925 270.106,62.66 286.258,62.66 		"/>
		<path fill="#250075" d="M296.911,47.464c0-0.757-0.013-1.436-0.038-2.029c0.387,0.759,0.739,1.339,1.075,1.771l11.857,15.454
			h6.143V35.925h-6.256v14.896c0,0.759,0.014,1.44,0.04,2.035c-0.386-0.744-0.748-1.336-1.075-1.757l-11.541-15.174h-6.461V62.66
			h6.256V47.464z"/>
		<path fill="#250075" d="M342.411,61.219l0.244-0.144l0.044-7.07l-0.844,0.772c-1.039,0.95-2.182,1.671-3.396,2.145
			c-1.213,0.473-2.548,0.713-3.967,0.713c-2.459,0-4.419-0.749-5.825-2.227c-1.413-1.484-2.13-3.536-2.13-6.098
			c0-2.616,0.773-4.721,2.298-6.257c1.524-1.535,3.611-2.313,6.202-2.313c1.267,0,2.471,0.222,3.578,0.659
			c1.111,0.439,2.214,1.145,3.278,2.096l0.795,0.712l0.242-6.913l-0.294-0.142c-1.294-0.623-2.625-1.091-3.956-1.391
			s-2.729-0.452-4.153-0.452c-4.274,0-7.821,1.331-10.542,3.955c-2.727,2.629-4.108,6.009-4.108,10.045
			c0,4.048,1.379,7.437,4.099,10.071c2.715,2.631,6.229,3.964,10.446,3.964c1.454,0,2.86-0.177,4.18-0.526
			C339.923,62.469,341.205,61.931,342.411,61.219z"/>
		<polygon fill="#250075" points="362.995,56.984 353.344,56.984 353.344,51.533 362.995,51.533 362.995,45.857 353.344,45.857 
			353.344,41.566 362.995,41.566 362.995,35.925 346.842,35.925 346.842,62.66 362.995,62.66 		"/>
		<path fill="#250075" d="M79.148,87.146c-0.18,0.564-0.364,1.291-0.549,2.158c-0.021,0.102-0.042,0.205-0.064,0.309
			c-0.031-0.143-0.062-0.283-0.093-0.42c-0.202-0.904-0.351-1.523-0.45-1.867l-5.119-16.4h-7.167l9.879,26.734h5.898l9.953-26.734
			H84.34L79.148,87.146z"/>
		<polygon fill="#250075" points="92.994,97.659 109.146,97.659 109.146,91.983 99.496,91.983 99.496,86.532 109.146,86.532 
			109.146,80.856 99.496,80.856 99.496,76.565 109.146,76.565 109.146,70.925 92.994,70.925 		"/>
		<path fill="#250075" d="M132.58,85.821c0,0.76,0.014,1.439,0.04,2.035c-0.385-0.744-0.748-1.336-1.076-1.758l-11.541-15.174
			h-6.461v26.734h6.256V82.464c0-0.756-0.013-1.436-0.039-2.029c0.387,0.76,0.74,1.34,1.076,1.771l11.857,15.453h6.143V70.925
			h-6.256V85.821z"/>
		<path fill="#250075" d="M162.121,73.538c-1.256-0.939-2.73-1.617-4.383-2.02c-1.625-0.395-3.865-0.594-6.657-0.594h-7.514v26.734
			h7.954c2.794,0,4.956-0.191,6.426-0.568c1.49-0.385,2.862-1.023,4.081-1.9c1.645-1.193,2.91-2.729,3.763-4.561
			c0.848-1.822,1.277-3.938,1.277-6.285c0-2.311-0.421-4.404-1.25-6.227C164.982,76.284,163.738,74.743,162.121,73.538z
			 M160.407,84.31c0,2.695-0.616,4.676-1.831,5.887c-1.216,1.209-3.217,1.822-5.948,1.822h-2.559V76.601h2.559
			c2.731,0,4.732,0.617,5.947,1.832C159.791,79.647,160.407,81.626,160.407,84.31z"/>
		<path fill="#250075" d="M193.878,74.44c-1.34-1.293-2.904-2.309-4.649-3.021c-3.504-1.43-7.368-1.42-10.871,0
			c-1.757,0.711-3.321,1.729-4.649,3.021c-1.356,1.307-2.399,2.82-3.103,4.5c-0.702,1.676-1.059,3.494-1.059,5.404
			c0,2.131,0.451,4.148,1.34,6c0.891,1.852,2.188,3.467,3.859,4.799c1.292,1.025,2.732,1.824,4.282,2.373
			c1.553,0.549,3.161,0.828,4.782,0.828c1.85,0,3.663-0.355,5.391-1.057c1.728-0.699,3.3-1.721,4.677-3.039
			c1.332-1.281,2.366-2.793,3.075-4.49c0.709-1.695,1.068-3.518,1.068-5.414s-0.356-3.713-1.058-5.395
			C196.261,77.265,195.224,75.749,193.878,74.44z M191.362,84.345c0,2.318-0.722,4.271-2.144,5.803
			c-1.433,1.543-3.201,2.293-5.407,2.293c-2.255,0-4.044-0.744-5.47-2.275c-1.416-1.52-2.134-3.479-2.134-5.82
			c0-2.307,0.729-4.266,2.17-5.82c1.449-1.566,3.227-2.328,5.434-2.328c2.171,0,3.931,0.764,5.381,2.336
			C190.631,80.093,191.362,82.048,191.362,84.345z"/>
		<path fill="#250075" d="M218.188,83.579c1.141-1.342,1.719-2.977,1.719-4.859c0-2.588-0.852-4.563-2.531-5.869
			c-1.641-1.277-4.109-1.926-7.338-1.926h-8.375v26.734h6.502V87.044l5.976,10.615h7.525l-7.182-11.84
			C215.96,85.487,217.205,84.735,218.188,83.579z M208.165,76.126h0.326c2.499,0,3.58,0.387,4.047,0.711
			c0.631,0.438,0.938,1.186,0.938,2.287c0,1.041-0.279,1.736-0.854,2.127c-0.431,0.293-1.498,0.643-4.131,0.643h-0.326V76.126z"/>
		<path fill="#250075" d="M249.154,72.968c-1.695-1.355-4.316-2.043-7.792-2.043h-6.828v26.734h6.537v-9.826h1.012
			c2.982,0,5.361-0.758,7.07-2.25c1.729-1.51,2.605-3.613,2.605-6.248C251.758,76.493,250.882,74.351,249.154,72.968z
			 M241.071,75.985h0.291c1.371,0,2.361,0.252,2.945,0.75c0.56,0.479,0.844,1.281,0.844,2.389c0,1.219-0.288,2.1-0.856,2.619
			c-0.582,0.531-1.568,0.801-2.933,0.801h-0.291V75.985z"/>
		<path fill="#250075" d="M271.081,83.579c1.141-1.342,1.719-2.977,1.719-4.859c0-2.588-0.852-4.563-2.531-5.869
			c-1.641-1.277-4.109-1.926-7.338-1.926h-8.375v26.734h6.502V87.044l5.976,10.615h7.525l-7.182-11.84
			C268.853,85.487,270.097,84.735,271.081,83.579z M261.057,76.126h0.326c2.5,0,3.581,0.387,4.048,0.711
			c0.63,0.438,0.937,1.186,0.937,2.287c0,1.041-0.279,1.736-0.854,2.127c-0.431,0.293-1.498,0.643-4.131,0.643h-0.326V76.126z"/>
		<path fill="#250075" d="M299.107,74.44c-1.34-1.293-2.904-2.309-4.648-3.021c-3.504-1.43-7.368-1.42-10.871,0
			c-1.758,0.713-3.323,1.729-4.65,3.021c-1.356,1.307-2.399,2.82-3.103,4.5c-0.702,1.676-1.059,3.494-1.059,5.404
			c0,2.129,0.451,4.146,1.341,6c0.891,1.854,2.188,3.467,3.858,4.799c1.291,1.025,2.732,1.824,4.283,2.373
			c1.553,0.549,3.161,0.828,4.781,0.828c1.85,0,3.663-0.355,5.391-1.057c1.728-0.699,3.3-1.721,4.677-3.039
			c1.333-1.283,2.368-2.795,3.076-4.49s1.067-3.516,1.067-5.414c0-1.896-0.356-3.713-1.058-5.395
			C301.49,77.265,300.453,75.749,299.107,74.44z M296.59,84.345c0,2.32-0.721,4.271-2.143,5.803
			c-1.433,1.543-3.201,2.293-5.408,2.293c-2.255,0-4.044-0.744-5.47-2.275c-1.416-1.52-2.134-3.479-2.134-5.82
			c0-2.307,0.729-4.266,2.17-5.82c1.449-1.566,3.227-2.328,5.434-2.328c2.171,0,3.931,0.764,5.381,2.336
			C295.86,80.093,296.59,82.048,296.59,84.345z"/>
		<polygon fill="#250075" points="306.891,97.659 313.393,97.659 313.393,86.532 323.043,86.532 323.043,80.856 313.393,80.856 
			313.393,76.565 323.043,76.565 323.043,70.925 306.891,70.925 		"/>
		<rect x="326.403" y="70.925" fill="#250075" width="6.502" height="26.734"/>
		<polygon fill="#250075" points="344.278,70.925 337.776,70.925 337.776,97.659 353.067,97.659 353.067,91.983 344.278,91.983 		
			"/>
		<polygon fill="#250075" points="371.682,76.565 371.682,70.925 355.53,70.925 355.53,97.659 371.682,97.659 371.682,91.983 
			362.032,91.983 362.032,86.532 371.682,86.532 371.682,80.856 362.032,80.856 362.032,76.565 		"/>
	</g>
</g>
</svg>
